<svg xmlns="http://www.w3.org/2000/svg" xmlns:xlink="http://www.w3.org/1999/xlink" contentStyleType="text/css" height="839px" preserveAspectRatio="none" style="width:1077px;height:839px;background:#FFFFFF;" version="1.1" viewBox="0 0 1077 839" width="1077px" zoomAndPan="magnify"><title>Project Domain Model</title><defs/><g><text fill="#000000" font-family="sans-serif" font-size="14" font-weight="bold" lengthAdjust="spacing" textLength="147.0205" x="458.3896" y="25.1074">Project Domain Model</text><!--class ProductionLine--><g id="elem_ProductionLine"><rect codeLine="11" fill="#ADD8E6" height="36.6211" id="ProductionLine" rx="2.5" ry="2.5" style="stroke:#181818;stroke-width:0.5;" width="99.3994" x="278.5" y="178.6211"/><text fill="#000000" font-family="sans-serif" font-size="14" lengthAdjust="spacing" textLength="93.3994" x="281.5" y="198.7285">ProductionLine</text><line style="stroke:#181818;stroke-width:0.5;" x1="279.5" x2="376.8994" y1="207.2422" y2="207.2422"/></g><!--class Administrator--><g id="elem_Administrator"><rect codeLine="14" fill="#ADD8E6" height="36.6211" id="Administrator" rx="2.5" ry="2.5" style="stroke:#181818;stroke-width:0.5;" width="88.4688" x="27" y="598.6211"/><text fill="#000000" font-family="sans-serif" font-size="14" lengthAdjust="spacing" textLength="82.4688" x="30" y="618.7285">Administrator</text><line style="stroke:#181818;stroke-width:0.5;" x1="28" x2="114.4688" y1="627.2422" y2="627.2422"/></g><!--class SystemUsers--><g id="elem_SystemUsers"><rect codeLine="17" fill="#ADD8E6" height="129.7266" id="SystemUsers" rx="2.5" ry="2.5" style="stroke:#181818;stroke-width:0.5;" width="100.7236" x="277.5" y="538.1211"/><text fill="#000000" font-family="sans-serif" font-size="14" lengthAdjust="spacing" textLength="83.2344" x="286.2446" y="558.2285">SystemUsers</text><line style="stroke:#181818;stroke-width:0.5;" x1="278.5" x2="377.2236" y1="566.7422" y2="566.7422"/><text fill="#000000" font-family="sans-serif" font-size="14" lengthAdjust="spacing" textLength="25.6689" x="283.5" y="585.8496">mail</text><text fill="#000000" font-family="sans-serif" font-size="14" lengthAdjust="spacing" textLength="59.917" x="283.5" y="604.4707">password</text><text fill="#000000" font-family="sans-serif" font-size="14" lengthAdjust="spacing" textLength="35.0205" x="283.5" y="623.0918">name</text><text fill="#000000" font-family="sans-serif" font-size="14" lengthAdjust="spacing" textLength="22.5518" x="283.5" y="641.7129">NIF</text><text fill="#000000" font-family="sans-serif" font-size="14" lengthAdjust="spacing" textLength="88.7236" x="283.5" y="660.334">phoneNumber</text></g><!--class PlantFloorManager--><g id="elem_PlantFloorManager"><rect codeLine="24" fill="#ADD8E6" height="36.6211" id="PlantFloorManager" rx="2.5" ry="2.5" style="stroke:#181818;stroke-width:0.5;" width="125.0615" x="8.5" y="487.6211"/><text fill="#000000" font-family="sans-serif" font-size="14" lengthAdjust="spacing" textLength="119.0615" x="11.5" y="507.7285">PlantFloorManager</text><line style="stroke:#181818;stroke-width:0.5;" x1="9.5" x2="132.5615" y1="516.2422" y2="516.2422"/></g><!--class ProductionManager--><g id="elem_ProductionManager"><rect codeLine="27" fill="#ADD8E6" height="36.6211" id="ProductionManager" rx="2.5" ry="2.5" style="stroke:#181818;stroke-width:0.5;" width="128.1855" x="7" y="693.6211"/><text fill="#000000" font-family="sans-serif" font-size="14" lengthAdjust="spacing" textLength="122.1855" x="10" y="713.7285">ProductionManager</text><line style="stroke:#181818;stroke-width:0.5;" x1="8" x2="134.1855" y1="722.2422" y2="722.2422"/></g><!--class RawMaterial--><g id="elem_RawMaterial"><rect codeLine="31" fill="#ADD8E6" height="92.4844" id="RawMaterial" rx="2.5" ry="2.5" style="stroke:#181818;stroke-width:0.5;" width="83.7998" x="987" y="693.1211"/><text fill="#000000" font-family="sans-serif" font-size="14" lengthAdjust="spacing" textLength="77.7998" x="990" y="713.2285">RawMaterial</text><line style="stroke:#181818;stroke-width:0.5;" x1="988" x2="1069.7998" y1="721.7422" y2="721.7422"/><text fill="#000000" font-family="sans-serif" font-size="14" lengthAdjust="spacing" textLength="35.0205" x="993" y="740.8496">name</text><text fill="#000000" font-family="sans-serif" font-size="14" lengthAdjust="spacing" textLength="67.7031" x="993" y="759.4707">description</text><text fill="#000000" font-family="sans-serif" font-size="14" lengthAdjust="spacing" textLength="32.6758" x="993" y="778.0918">stock</text></g><!--class Product--><g id="elem_Product"><rect codeLine="37" fill="#ADD8E6" height="129.7266" id="Product" rx="2.5" ry="2.5" style="stroke:#181818;stroke-width:0.5;" width="130.2891" x="263" y="703.1211"/><text fill="#000000" font-family="sans-serif" font-size="14" lengthAdjust="spacing" textLength="48.248" x="304.0205" y="723.2285">Product</text><line style="stroke:#181818;stroke-width:0.5;" x1="264" x2="392.2891" y1="731.7422" y2="731.7422"/><text fill="#000000" font-family="sans-serif" font-size="14" lengthAdjust="spacing" textLength="35.0205" x="269" y="750.8496">name</text><text fill="#000000" font-family="sans-serif" font-size="14" lengthAdjust="spacing" textLength="32.6758" x="269" y="769.4707">stock</text><text fill="#000000" font-family="sans-serif" font-size="14" lengthAdjust="spacing" textLength="118.2891" x="269" y="788.0918">manufacturingDate</text><text fill="#000000" font-family="sans-serif" font-size="14" lengthAdjust="spacing" textLength="24.8965" x="269" y="806.7129">size</text><text fill="#000000" font-family="sans-serif" font-size="14" lengthAdjust="spacing" textLength="38.1309" x="269" y="825.334">colour</text></g><!--class Component--><g id="elem_Component"><rect codeLine="45" fill="#ADD8E6" height="92.4844" id="Component" rx="2.5" ry="2.5" style="stroke:#181818;stroke-width:0.5;" width="79.7031" x="773" y="693.1211"/><text fill="#000000" font-family="sans-serif" font-size="14" lengthAdjust="spacing" textLength="72.3789" x="776.6621" y="713.2285">Component</text><line style="stroke:#181818;stroke-width:0.5;" x1="774" x2="851.7031" y1="721.7422" y2="721.7422"/><text fill="#000000" font-family="sans-serif" font-size="14" lengthAdjust="spacing" textLength="35.0205" x="779" y="740.8496">name</text><text fill="#000000" font-family="sans-serif" font-size="14" lengthAdjust="spacing" textLength="67.7031" x="779" y="759.4707">description</text><text fill="#000000" font-family="sans-serif" font-size="14" lengthAdjust="spacing" textLength="32.6758" x="779" y="778.0918">stock</text></g><!--class Machine--><g id="elem_Machine"><rect codeLine="51" fill="#ADD8E6" height="73.8633" id="Machine" rx="2.5" ry="2.5" style="stroke:#181818;stroke-width:0.5;" width="103.041" x="276.5" y="69.1211"/><text fill="#000000" font-family="sans-serif" font-size="14" lengthAdjust="spacing" textLength="52.917" x="301.562" y="89.2285">Machine</text><line style="stroke:#181818;stroke-width:0.5;" x1="277.5" x2="378.541" y1="97.7422" y2="97.7422"/><text fill="#000000" font-family="sans-serif" font-size="14" lengthAdjust="spacing" textLength="10.8965" x="282.5" y="116.8496">id</text><text fill="#000000" font-family="sans-serif" font-size="14" lengthAdjust="spacing" textLength="91.041" x="282.5" y="135.4707">executionTime</text></g><!--class Employee--><g id="elem_Employee"><rect codeLine="56" fill="#ADD8E6" height="111.1055" id="Employee" rx="2.5" ry="2.5" style="stroke:#181818;stroke-width:0.5;" width="100.7236" x="20.5" y="207.6211"/><text fill="#000000" font-family="sans-serif" font-size="14" lengthAdjust="spacing" textLength="62.2549" x="39.7344" y="227.7285">Employee</text><line style="stroke:#181818;stroke-width:0.5;" x1="21.5" x2="120.2236" y1="236.2422" y2="236.2422"/><text fill="#000000" font-family="sans-serif" font-size="14" lengthAdjust="spacing" textLength="35.0205" x="26.5" y="255.3496">name</text><text fill="#000000" font-family="sans-serif" font-size="14" lengthAdjust="spacing" textLength="22.5518" x="26.5" y="273.9707">NIF</text><text fill="#000000" font-family="sans-serif" font-size="14" lengthAdjust="spacing" textLength="88.7236" x="26.5" y="292.5918">phoneNumber</text><text fill="#000000" font-family="sans-serif" font-size="14" lengthAdjust="spacing" textLength="54.4824" x="26.5" y="311.2129">birthdate</text></g><!--class Operation--><g id="elem_Operation"><rect codeLine="63" fill="#ADD8E6" height="111.1055" id="Operation" rx="2.5" ry="2.5" style="stroke:#181818;stroke-width:0.5;" width="103.041" x="553" y="217.6211"/><text fill="#000000" font-family="sans-serif" font-size="14" lengthAdjust="spacing" textLength="61.4824" x="573.7793" y="237.7285">Operation</text><line style="stroke:#181818;stroke-width:0.5;" x1="554" x2="655.041" y1="246.2422" y2="246.2422"/><text fill="#000000" font-family="sans-serif" font-size="14" lengthAdjust="spacing" textLength="35.0205" x="559" y="265.3496">name</text><text fill="#000000" font-family="sans-serif" font-size="14" lengthAdjust="spacing" textLength="91.041" x="559" y="283.9707">executionTime</text><text fill="#000000" font-family="sans-serif" font-size="14" lengthAdjust="spacing" textLength="37.3516" x="559" y="302.5918">status</text><text fill="#000000" font-family="sans-serif" font-size="14" lengthAdjust="spacing" textLength="26.4619" x="559" y="321.2129">type</text></g><!--class Workstation--><g id="elem_Workstation"><rect codeLine="70" fill="#ADD8E6" height="111.1055" id="Workstation" rx="2.5" ry="2.5" style="stroke:#181818;stroke-width:0.5;" width="79.9102" x="31" y="46.6211"/><text fill="#000000" font-family="sans-serif" font-size="14" lengthAdjust="spacing" textLength="73.9102" x="34" y="66.7285">Workstation</text><line style="stroke:#181818;stroke-width:0.5;" x1="32" x2="109.9102" y1="75.2422" y2="75.2422"/><text fill="#000000" font-family="sans-serif" font-size="14" lengthAdjust="spacing" textLength="35.0205" x="37" y="94.3496">name</text><text fill="#000000" font-family="sans-serif" font-size="14" lengthAdjust="spacing" textLength="51.3584" x="37" y="112.9707">capacity</text><text fill="#000000" font-family="sans-serif" font-size="14" lengthAdjust="spacing" textLength="37.3516" x="37" y="131.5918">status</text><text fill="#000000" font-family="sans-serif" font-size="14" lengthAdjust="spacing" textLength="26.4619" x="37" y="150.2129">type</text></g><!--class Order--><g id="elem_Order"><rect codeLine="82" fill="#ADD8E6" height="73.8633" id="Order" rx="2.5" ry="2.5" style="stroke:#181818;stroke-width:0.5;" width="89.8135" x="283" y="340.1211"/><text fill="#000000" font-family="sans-serif" font-size="14" lengthAdjust="spacing" textLength="35.7861" x="310.0137" y="360.2285">Order</text><line style="stroke:#181818;stroke-width:0.5;" x1="284" x2="371.8135" y1="368.7422" y2="368.7422"/><text fill="#000000" font-family="sans-serif" font-size="14" lengthAdjust="spacing" textLength="62.2549" x="289" y="387.8496">orderDate</text><text fill="#000000" font-family="sans-serif" font-size="14" lengthAdjust="spacing" textLength="77.8135" x="289" y="406.4707">deliveryDate</text></g><!--class Client--><g id="elem_Client"><rect codeLine="88" fill="#ADD8E6" height="92.4844" id="Client" rx="2.5" ry="2.5" style="stroke:#181818;stroke-width:0.5;" width="100.7236" x="20.5" y="355.1211"/><text fill="#000000" font-family="sans-serif" font-size="14" lengthAdjust="spacing" textLength="35.793" x="52.9653" y="375.2285">Client</text><line style="stroke:#181818;stroke-width:0.5;" x1="21.5" x2="120.2236" y1="383.7422" y2="383.7422"/><text fill="#000000" font-family="sans-serif" font-size="14" lengthAdjust="spacing" textLength="35.0205" x="26.5" y="402.8496">name</text><text fill="#000000" font-family="sans-serif" font-size="14" lengthAdjust="spacing" textLength="22.5518" x="26.5" y="421.4707">NIF</text><text fill="#000000" font-family="sans-serif" font-size="14" lengthAdjust="spacing" textLength="88.7236" x="26.5" y="440.0918">phoneNumber</text></g><!--class Address--><g id="elem_Address"><rect codeLine="94" fill="#ADD8E6" height="92.4844" id="Address" rx="2.5" ry="2.5" style="stroke:#181818;stroke-width:0.5;" width="60.2549" x="574.5" y="413.1211"/><text fill="#000000" font-family="sans-serif" font-size="14" lengthAdjust="spacing" textLength="51.3584" x="578.9482" y="433.2285">Address</text><line style="stroke:#181818;stroke-width:0.5;" x1="575.5" x2="633.7549" y1="441.7422" y2="441.7422"/><text fill="#000000" font-family="sans-serif" font-size="14" lengthAdjust="spacing" textLength="35.0137" x="580.5" y="460.8496">street</text><text fill="#000000" font-family="sans-serif" font-size="14" lengthAdjust="spacing" textLength="21" x="580.5" y="479.4707">city</text><text fill="#000000" font-family="sans-serif" font-size="14" lengthAdjust="spacing" textLength="48.2549" x="580.5" y="498.0918">zipcode</text></g><!--class ProductFamily--><g id="elem_ProductFamily"><rect codeLine="100" fill="#ADD8E6" height="36.6211" id="ProductFamily" rx="2.5" ry="2.5" style="stroke:#181818;stroke-width:0.5;" width="95.4688" x="557" y="676.6211"/><text fill="#000000" font-family="sans-serif" font-size="14" lengthAdjust="spacing" textLength="89.4688" x="560" y="696.7285">ProductFamily</text><line style="stroke:#181818;stroke-width:0.5;" x1="558" x2="651.4688" y1="705.2422" y2="705.2422"/></g><!--link Administrator to SystemUsers--><g id="link_Administrator_SystemUsers"><path codeLine="104" d="M115.26,614.7511 C160.16,612.2811 230.29,608.4311 277.41,605.8411 " fill="none" id="Administrator-SystemUsers" style="stroke:#181818;stroke-width:1.0;"/><polygon fill="#000000" points="191.4925,598.4923,182.2998,596.054,182.6223,601.923,191.4925,598.4923" style="stroke:#000000;stroke-width:1.0;"/><text fill="#000000" font-family="sans-serif" font-size="13" lengthAdjust="spacing" textLength="20.23" x="195.5" y="604.1494">is a</text><text fill="#000000" font-family="sans-serif" font-size="13" lengthAdjust="spacing" textLength="7.23" x="123.4482" y="629.8906">1</text><text fill="#000000" font-family="sans-serif" font-size="13" lengthAdjust="spacing" textLength="7.23" x="262.1662" y="621.6307">1</text></g><!--link Administrator to SystemUsers--><g id="link_Administrator_SystemUsers"><path codeLine="107" d="M115.23,629.9611 C147.74,637.8811 193.33,645.2711 233,638.1211 C247.74,635.4711 263.18,630.6411 277.2,625.4111 " fill="none" id="Administrator-SystemUsers-1" style="stroke:#181818;stroke-width:1.0;"/><polygon fill="#000000" points="174.998,628.6262,165.874,625.9424,166.039,631.818,174.998,628.6262" style="stroke:#000000;stroke-width:1.0;"/><text fill="#000000" font-family="sans-serif" font-size="13" lengthAdjust="spacing" textLength="53.479" x="179" y="634.1494">manages</text><text fill="#000000" font-family="sans-serif" font-size="13" lengthAdjust="spacing" textLength="19.5127" x="123.4608" y="647.3084">1..*</text><text fill="#000000" font-family="sans-serif" font-size="13" lengthAdjust="spacing" textLength="19.5127" x="250.1502" y="643.6147">1..*</text></g><!--link ProductionManager to SystemUsers--><g id="link_ProductionManager_SystemUsers"><path codeLine="105" d="M135.23,699.4811 C165.62,692.1511 202.08,681.5011 233,667.1211 C248.04,660.1311 263.33,650.8411 277.09,641.5011 " fill="none" id="ProductionManager-SystemUsers" style="stroke:#181818;stroke-width:1.0;"/><polygon fill="#000000" points="191.1283,655.8749,181.6437,656.5765,183.8675,662.0175,191.1283,655.8749" style="stroke:#000000;stroke-width:1.0;"/><text fill="#000000" font-family="sans-serif" font-size="13" lengthAdjust="spacing" textLength="20.23" x="195.5" y="663.1494">is a</text><text fill="#000000" font-family="sans-serif" font-size="13" lengthAdjust="spacing" textLength="7.23" x="143.0639" y="713.0695">1</text><text fill="#000000" font-family="sans-serif" font-size="13" lengthAdjust="spacing" textLength="7.23" x="262.1357" y="662.4564">1</text></g><!--link PlantFloorManager to SystemUsers--><g id="link_PlantFloorManager_SystemUsers"><path codeLine="106" d="M120.86,524.7111 C165.84,541.8211 232.23,567.0711 277.43,584.2611 " fill="none" id="PlantFloorManager-SystemUsers" style="stroke:#181818;stroke-width:1.0;"/><polygon fill="#000000" points="191.1734,535.5441,183.7639,529.5816,181.6744,535.0755,191.1734,535.5441" style="stroke:#000000;stroke-width:1.0;"/><text fill="#000000" font-family="sans-serif" font-size="13" lengthAdjust="spacing" textLength="20.23" x="195.5" y="539.1494">is a</text><text fill="#000000" font-family="sans-serif" font-size="13" lengthAdjust="spacing" textLength="7.23" x="126.3419" y="546.1099">1</text><text fill="#000000" font-family="sans-serif" font-size="13" lengthAdjust="spacing" textLength="7.23" x="262.1893" y="596.7463">1</text></g><!--link PlantFloorManager to ProductionLine--><g id="link_PlantFloorManager_ProductionLine"><path codeLine="108" d="M109.29,487.4411 C118.81,481.1611 128.25,473.3511 135,464.1211 C163.41,425.3011 142.4,402.5911 165,360.1211 C196.87,300.2411 213.29,289.2811 263,243.1211 C273.63,233.2511 286.43,223.6711 297.78,215.8311 " fill="none" id="PlantFloorManager-ProductionLine" style="stroke:#181818;stroke-width:1.0;"/><polygon fill="#000000" points="174.3507,258.6588,166.7793,264.4143,171.6082,267.7654,174.3507,258.6588" style="stroke:#000000;stroke-width:1.0;"/><text fill="#000000" font-family="sans-serif" font-size="13" lengthAdjust="spacing" textLength="50.5781" x="180.5" y="268.1494">specifies</text><text fill="#000000" font-family="sans-serif" font-size="13" lengthAdjust="spacing" textLength="19.5127" x="99.176" y="476.2481">1..*</text><text fill="#000000" font-family="sans-serif" font-size="13" lengthAdjust="spacing" textLength="19.5127" x="268.1205" y="237.2621">1..*</text></g><!--link Workstation to Machine--><g id="link_Workstation_Machine"><path codeLine="109" d="M111.01,102.7311 C155.23,103.4311 227.49,104.5611 276.12,105.3211 " fill="none" id="Workstation-Machine" style="stroke:#181818;stroke-width:1.0;"/><polygon fill="#000000" points="191.4994,94.845,182.5015,91.7646,182.4093,97.6417,191.4994,94.845" style="stroke:#000000;stroke-width:1.0;"/><text fill="#000000" font-family="sans-serif" font-size="13" lengthAdjust="spacing" textLength="20.96" x="195.5" y="100.1494">has</text><text fill="#000000" font-family="sans-serif" font-size="13" lengthAdjust="spacing" textLength="7.23" x="118.7887" y="98.3705">1</text><text fill="#000000" font-family="sans-serif" font-size="13" lengthAdjust="spacing" textLength="19.5127" x="248.9038" y="120.4128">0..*</text></g><!--link ProductionManager to Product--><g id="link_ProductionManager_Product"><path codeLine="110" d="M101.79,730.6711 C119.47,740.6811 142.72,752.1811 165,758.1211 C196.58,766.5411 232.81,769.3811 262.98,769.9711 " fill="none" id="ProductionManager-Product" style="stroke:#181818;stroke-width:1.0;"/><polygon fill="#000000" points="174.8577,749.951,166.7662,744.9531,165.3739,750.6637,174.8577,749.951" style="stroke:#000000;stroke-width:1.0;"/><text fill="#000000" font-family="sans-serif" font-size="13" lengthAdjust="spacing" textLength="53.479" x="179" y="754.1494">manages</text><text fill="#000000" font-family="sans-serif" font-size="13" lengthAdjust="spacing" textLength="19.5127" x="88.8238" y="752.4014">1..*</text><text fill="#000000" font-family="sans-serif" font-size="13" lengthAdjust="spacing" textLength="19.5127" x="235.3766" y="785.2288">1..*</text></g><!--link Component to RawMaterial--><g id="link_Component_RawMaterial"><path codeLine="111" d="M853.25,739.1211 C891.14,739.1211 948.28,739.1211 986.81,739.1211 " fill="none" id="Component-RawMaterial" style="stroke:#181818;stroke-width:1.0;"/><polygon fill="#000000" points="893,729.7666,883.9549,726.8277,883.9549,732.7055,893,729.7666" style="stroke:#000000;stroke-width:1.0;"/><text fill="#000000" font-family="sans-serif" font-size="13" lengthAdjust="spacing" textLength="59.9727" x="897" y="735.1494">is made of</text><text fill="#000000" font-family="sans-serif" font-size="13" lengthAdjust="spacing" textLength="19.5127" x="860.6165" y="754.3837">1..*</text><text fill="#000000" font-family="sans-serif" font-size="13" lengthAdjust="spacing" textLength="19.5127" x="959.6287" y="754.4887">1..*</text></g><!--link Product to Component--><g id="link_Product_Component"><path codeLine="112" d="M393.24,764.8811 C459.19,761.4811 564.78,755.8511 656,750.1211 C695.83,747.6211 741.36,744.3611 772.9,742.0411 " fill="none" id="Product-Component" style="stroke:#181818;stroke-width:1.0;"/><polygon fill="#000000" points="577.491,740.4663,568.2857,738.0759,568.6387,743.9431,577.491,740.4663" style="stroke:#000000;stroke-width:1.0;"/><text fill="#000000" font-family="sans-serif" font-size="13" lengthAdjust="spacing" textLength="59.9727" x="581.5" y="746.1494">is made of</text><text fill="#000000" font-family="sans-serif" font-size="13" lengthAdjust="spacing" textLength="7.23" x="401.1846" y="779.5502">1</text><text fill="#000000" font-family="sans-serif" font-size="13" lengthAdjust="spacing" textLength="19.5127" x="745.4446" y="758.0156">1..*</text></g><!--link Operation to Component--><g id="link_Operation_Component"><path codeLine="115" d="M630.2,328.8711 C671.42,421.8811 753.44,606.9811 791.6,693.0911 " fill="none" id="Operation-Component" style="stroke:#181818;stroke-width:1.0;"/><polygon fill="#000000" points="693.0257,460.3379,692.0481,450.8777,686.6742,453.259,693.0257,460.3379" style="stroke:#000000;stroke-width:1.0;"/><text fill="#000000" font-family="sans-serif" font-size="13" lengthAdjust="spacing" textLength="42.6309" x="700" y="461.1494">creates</text><text fill="#000000" font-family="sans-serif" font-size="13" lengthAdjust="spacing" textLength="19.5127" x="613.2031" y="350.7412">1..*</text><text fill="#000000" font-family="sans-serif" font-size="13" lengthAdjust="spacing" textLength="19.5127" x="767.9304" y="681.7547">1..*</text></g><!--link Order to Operation--><g id="link_Order_Operation"><path codeLine="116" d="M373.1,360.4111 C422.21,341.8111 501.43,311.7911 552.98,292.2611 " fill="none" id="Order-Operation" style="stroke:#181818;stroke-width:1.0;"/><polygon fill="#000000" points="465.1757,292.9952,455.6761,293.4514,457.7585,298.948,465.1757,292.9952" style="stroke:#000000;stroke-width:1.0;"/><text fill="#000000" font-family="sans-serif" font-size="13" lengthAdjust="spacing" textLength="20.96" x="469.5" y="300.1494">has</text><text fill="#000000" font-family="sans-serif" font-size="13" lengthAdjust="spacing" textLength="7.23" x="380.8788" y="373.165">1</text><text fill="#000000" font-family="sans-serif" font-size="13" lengthAdjust="spacing" textLength="19.5127" x="525.4322" y="310.1893">1..*</text></g><!--link Client to Order--><g id="link_Client_Order"><path codeLine="118" d="M121.77,396.4411 C168.59,392.0311 238.01,385.5011 282.89,381.2711 " fill="none" id="Client-Order" style="stroke:#181818;stroke-width:1.0;"/><polygon fill="#000000" points="182.978,377.2979,173.6972,375.2198,174.2482,381.0718,182.978,377.2979" style="stroke:#000000;stroke-width:1.0;"/><text fill="#000000" font-family="sans-serif" font-size="13" lengthAdjust="spacing" textLength="37.5781" x="187" y="383.1494">places</text><text fill="#000000" font-family="sans-serif" font-size="13" lengthAdjust="spacing" textLength="7.23" x="129.0966" y="410.9697">1</text><text fill="#000000" font-family="sans-serif" font-size="13" lengthAdjust="spacing" textLength="19.5127" x="255.5814" y="397.2692">1..*</text></g><!--link Machine to Operation--><g id="link_Machine_Operation"><path codeLine="119" d="M379.53,122.2411 C420.36,136.6411 478.2,160.2211 523,191.1211 C534,198.7111 544.76,207.9411 554.65,217.4411 " fill="none" id="Machine-Operation" style="stroke:#181818;stroke-width:1.0;"/><polygon fill="#000000" points="445.3928,134.1547,438.8498,127.2526,436.0424,132.4167,445.3928,134.1547" style="stroke:#000000;stroke-width:1.0;"/><text fill="#000000" font-family="sans-serif" font-size="13" lengthAdjust="spacing" textLength="59.249" x="450" y="137.1494">processes</text><text fill="#000000" font-family="sans-serif" font-size="13" lengthAdjust="spacing" textLength="19.5127" x="387.3797" y="139.4513">1..*</text><text fill="#000000" font-family="sans-serif" font-size="13" lengthAdjust="spacing" textLength="7.23" x="540.8266" y="206.2582">1</text></g><!--link Employee to Machine--><g id="link_Employee_Machine"><path codeLine="120" d="M121.54,244.5311 C154.45,231.1211 197.89,211.3411 233,188.1211 C247.96,178.2211 249.53,172.9711 263,161.1211 C269.6,155.3111 276.62,149.2111 283.51,143.2611 " fill="none" id="Employee-Machine" style="stroke:#181818;stroke-width:1.0;"/><polygon fill="#000000" points="175.7395,176.1159,166.5121,178.4191,169.6282,183.403,175.7395,176.1159" style="stroke:#000000;stroke-width:1.0;"/><text fill="#000000" font-family="sans-serif" font-size="13" lengthAdjust="spacing" textLength="50.5908" x="180.5" y="184.1494">operates</text><text fill="#000000" font-family="sans-serif" font-size="13" lengthAdjust="spacing" textLength="19.5127" x="129.2832" y="238.1004">0..*</text><text fill="#000000" font-family="sans-serif" font-size="13" lengthAdjust="spacing" textLength="19.5127" x="255.607" y="164.884">0..*</text></g><!--link Workstation to ProductionLine--><g id="link_Workstation_ProductionLine"><path codeLine="121" d="M111.01,116.6511 C155.93,133.3911 229.78,160.9011 278.4,179.0111 " fill="none" id="Workstation-ProductionLine" style="stroke:#181818;stroke-width:1.0;"/><polygon fill="#000000" points="183.1854,131.5121,175.7354,125.6004,173.6834,131.1085,183.1854,131.5121" style="stroke:#000000;stroke-width:1.0;"/><text fill="#000000" font-family="sans-serif" font-size="13" lengthAdjust="spacing" textLength="36.8545" x="187.5" y="135.1494">part of</text><text fill="#000000" font-family="sans-serif" font-size="13" lengthAdjust="spacing" textLength="7.23" x="118.7887" y="134.7982">1</text><text fill="#000000" font-family="sans-serif" font-size="13" lengthAdjust="spacing" textLength="19.5127" x="251.097" y="191.7351">1..*</text></g><!--link Client to Address--><g id="link_Client_Address"><path codeLine="124" d="M121.65,417.1311 C159.85,428.6511 214.18,443.3011 263,450.1211 C377.21,466.0711 514.99,462.9411 574.17,460.5511 " fill="none" id="Client-Address" style="stroke:#181818;stroke-width:1.0;"/><polygon fill="#000000" points="320.4771,441.2442,311.7541,437.4548,311.1927,443.3057,320.4771,441.2442" style="stroke:#000000;stroke-width:1.0;"/><text fill="#000000" font-family="sans-serif" font-size="13" lengthAdjust="spacing" textLength="20.96" x="324.5" y="446.1494">has</text><text fill="#000000" font-family="sans-serif" font-size="13" lengthAdjust="spacing" textLength="19.5127" x="129.4073" y="434.2874">1..*</text><text fill="#000000" font-family="sans-serif" font-size="13" lengthAdjust="spacing" textLength="7.23" x="559.3439" y="476.8534">1</text></g><!--link Order to Address--><g id="link_Order_Address"><path codeLine="126" d="M373.1,390.2911 C429.63,407.1811 526.08,435.9911 574.28,450.3911 " fill="none" id="Order-Address" style="stroke:#181818;stroke-width:1.0;"/><polygon fill="#000000" points="432.7908,398.1978,424.9654,392.7928,423.2829,398.4247,432.7908,398.1978" style="stroke:#000000;stroke-width:1.0;"/><text fill="#000000" font-family="sans-serif" font-size="13" lengthAdjust="spacing" textLength="85.2808" x="437" y="402.1494">to be delivered</text><text fill="#000000" font-family="sans-serif" font-size="13" lengthAdjust="spacing" textLength="19.5127" x="380.8273" y="407.3968">0..*</text><text fill="#000000" font-family="sans-serif" font-size="13" lengthAdjust="spacing" textLength="7.23" x="559.4794" y="443.4126">1</text></g><!--link Employee to Address--><g id="link_Employee_Address"><path codeLine="127" d="M121.82,260.1911 C225.2,255.0711 458.75,248.8311 523,292.1211 C528.54,295.8511 560.74,364.9611 582.7,413.0911 " fill="none" id="Employee-Address" style="stroke:#181818;stroke-width:1.0;"/><polygon fill="#000000" points="320.2457,249.341,312.5861,243.7035,310.7353,249.2823,320.2457,249.341" style="stroke:#000000;stroke-width:1.0;"/><text fill="#000000" font-family="sans-serif" font-size="13" lengthAdjust="spacing" textLength="20.96" x="324.5" y="253.1494">has</text><text fill="#000000" font-family="sans-serif" font-size="13" lengthAdjust="spacing" textLength="19.5127" x="129.2196" y="274.9096">1..*</text><text fill="#000000" font-family="sans-serif" font-size="13" lengthAdjust="spacing" textLength="7.23" x="571.824" y="401.7547">1</text></g><!--link SystemUsers to Address--><g id="link_SystemUsers_Address"><path codeLine="128" d="M378.69,582.6211 C418.53,565.5911 475.44,539.8911 523,513.1211 C540.6,503.2211 559.39,490.7311 574.38,480.2611 " fill="none" id="SystemUsers-Address" style="stroke:#181818;stroke-width:1.0;"/><polygon fill="#000000" points="464.9305,501.4491,455.5535,503.0373,458.2778,508.2457,464.9305,501.4491" style="stroke:#000000;stroke-width:1.0;"/><text fill="#000000" font-family="sans-serif" font-size="13" lengthAdjust="spacing" textLength="20.96" x="469.5" y="509.1494">has</text><text fill="#000000" font-family="sans-serif" font-size="13" lengthAdjust="spacing" textLength="19.5127" x="386.0737" y="595.2213">1..*</text><text fill="#000000" font-family="sans-serif" font-size="13" lengthAdjust="spacing" textLength="7.23" x="559.1821" y="501.4906">1</text></g><!--link Product to ProductFamily--><g id="link_Product_ProductFamily"><path codeLine="130" d="M393.18,750.2311 C403.16,747.4911 413.35,744.7111 423,742.1211 C468.35,729.9511 520.23,716.4811 556.7,707.1011 " fill="none" id="Product-ProductFamily" style="stroke:#181818;stroke-width:1.0;"/><polygon fill="#000000" points="450.8347,705.4914,441.3391,704.9565,442.8382,710.64,450.8347,705.4914" style="stroke:#000000;stroke-width:1.0;"/><text fill="#000000" font-family="sans-serif" font-size="13" lengthAdjust="spacing" textLength="49.8545" x="455" y="712.1494">is part of</text><text fill="#000000" font-family="sans-serif" font-size="13" lengthAdjust="spacing" textLength="19.5127" x="401.3604" y="744.4039">1..*</text><text fill="#000000" font-family="sans-serif" font-size="13" lengthAdjust="spacing" textLength="7.23" x="541.8264" y="724.3167">1</text></g><!--link ProductionLine to Operation--><g id="link_ProductionLine_Operation"><path codeLine="131" d="M377.62,207.3711 C417.1,216.0611 474.04,229.4211 523,244.1211 C532.67,247.0311 542.89,250.4311 552.67,253.8711 " fill="none" id="ProductionLine-Operation" style="stroke:#181818;stroke-width:1.0;"/><polygon fill="#000000" points="444.8324,210.0503,436.845,204.8877,435.336,210.5685,444.8324,210.0503" style="stroke:#000000;stroke-width:1.0;"/><text fill="#000000" font-family="sans-serif" font-size="13" lengthAdjust="spacing" textLength="61.4136" x="449" y="214.1494">consists of</text><text fill="#000000" font-family="sans-serif" font-size="13" lengthAdjust="spacing" textLength="7.23" x="385.741" y="224.3218">1</text><text fill="#000000" font-family="sans-serif" font-size="13" lengthAdjust="spacing" textLength="19.5127" x="525.4605" y="266.4673">1..*</text></g><!--SRC=[bLRTRjCm5BxFKrZZee2qQTmWr0kaigxI93ec1kBQjKyRKySEnmwZgtWQ7eKNuzX94oTD6VGcJivtlk_yMdLRPKgEl612S-VUSR7TeAsClBBQ8discy_VNB_EN0ih2S4tSEzt6XY2yDniD2G0btDf7vJPi3NNBhL4XPdtg5QLXnjXpRrw17QPvKe24me54SLp0JwtqcKQrfvvor1jSi-a2dhAcYppofFy7Tglz8NDRS6LOKihGMTPb0asMKNqUsLWdsK_6yDC5ieevv5xYydt-vtpK7nsW6wVCVeHfuw7aimF5cLyCRo0UBYzMTJMt1guhOeLOCjrfxdn2sqjBhcXQgKwNM2fhJ5-v0zBxW4LrspVrvFW1AeovX_UdRTYstasj4El6bMdOwer5xv2wisSH6exTI0U1FMxmexloXOb9MRyVyQnv2AdWZTUgYuQ_01H1OzFYbXQx7LHQhi364gCbJQyhnJwN8RGMueF9L0ZYNd8qPUi0-M-Sl7eTsN2ySNYDXX7M0IdULT-TufWKZCigAuMTxNtf7MVC5U2e5uImQGB6ILW8rJMNNlkNiHN6qnjRsYQrNV0tRoNyPLM8rqPdyPsv2K2FVTD6WZWw_GEgJsgKj3s78tJWXTAXxo2fRSvPw_EsFav2uzaSwPCESRPs-neof_23pVc2VmWbekBbmqyddeUHIHquo83n_wjCQtxjrRHEnsJGtINqQkP-IdBkHlBdPtIIOFh5ku8dTmAiG05fplIhZkfDfuQtr4Du9DK9FNerYXw86ZIa-7g9QVqKlftjyvsb4yQdq0Wdr20UYzE2zJ5dT1qLjHxQTct2fZv_SlIhglGRmP6s0AC9A3QL5ovh5cM0MaKch9ISn6L3tTM6cXVc_QKe2wYsrkhwVxH713UHj-JOpCsR465esyQTRXH-Xufrw4WNOvfy8ULRyjsH7YCQHfmESv3JLt1uKwY9gU5-AjqienF89DnJc7zkoXEMbUfGH5FZm_ztN0q9Yww_G40]--></g></svg>