<svg xmlns="http://www.w3.org/2000/svg" xmlns:xlink="http://www.w3.org/1999/xlink" contentStyleType="text/css" height="1040px" preserveAspectRatio="none" style="width:1068px;height:1040px;background:#FFFFFF;" version="1.1" viewBox="0 0 1068 1040" width="1068px" zoomAndPan="magnify"><title>Project Domain Model</title><defs/><g><text fill="#000000" font-family="sans-serif" font-size="14" font-weight="bold" lengthAdjust="spacing" textLength="147.0205" x="453.6425" y="25.1074">Project Domain Model</text><!--class ProductionLine--><g id="elem_ProductionLine"><rect codeLine="12" fill="#ADD8E6" height="36.6211" id="ProductionLine" rx="2.5" ry="2.5" style="stroke:#181818;stroke-width:0.5;" width="99.3994" x="193.62" y="492.1211"/><text fill="#000000" font-family="sans-serif" font-size="14" lengthAdjust="spacing" textLength="93.3994" x="196.62" y="512.2285">ProductionLine</text><line style="stroke:#181818;stroke-width:0.5;" x1="194.62" x2="292.0194" y1="520.7422" y2="520.7422"/></g><!--class Administrator--><g id="elem_Administrator"><rect codeLine="16" fill="#ADD8E6" height="36.6211" id="Administrator" rx="2.5" ry="2.5" style="stroke:#181818;stroke-width:0.5;" width="88.4688" x="775.12" y="292.6211"/><text fill="#000000" font-family="sans-serif" font-size="14" lengthAdjust="spacing" textLength="82.4688" x="778.12" y="312.7285">Administrator</text><line style="stroke:#181818;stroke-width:0.5;" x1="776.12" x2="862.5888" y1="321.2422" y2="321.2422"/></g><!--class SystemUsers--><g id="elem_SystemUsers"><rect codeLine="20" fill="#ADD8E6" height="129.7266" id="SystemUsers" rx="2.5" ry="2.5" style="stroke:#181818;stroke-width:0.5;" width="100.7236" x="734.62" y="445.6211"/><text fill="#000000" font-family="sans-serif" font-size="14" lengthAdjust="spacing" textLength="83.2344" x="743.3646" y="465.7285">SystemUsers</text><line style="stroke:#181818;stroke-width:0.5;" x1="735.62" x2="834.3436" y1="474.2422" y2="474.2422"/><text fill="#000000" font-family="sans-serif" font-size="14" lengthAdjust="spacing" textLength="25.6689" x="740.62" y="493.3496">mail</text><text fill="#000000" font-family="sans-serif" font-size="14" lengthAdjust="spacing" textLength="59.917" x="740.62" y="511.9707">password</text><text fill="#000000" font-family="sans-serif" font-size="14" lengthAdjust="spacing" textLength="35.0205" x="740.62" y="530.5918">name</text><text fill="#000000" font-family="sans-serif" font-size="14" lengthAdjust="spacing" textLength="22.5518" x="740.62" y="549.2129">NIF</text><text fill="#000000" font-family="sans-serif" font-size="14" lengthAdjust="spacing" textLength="88.7236" x="740.62" y="567.834">phoneNumber</text></g><!--class PlantFloorManager--><g id="elem_PlantFloorManager"><rect codeLine="28" fill="#ADD8E6" height="36.6211" id="PlantFloorManager" rx="2.5" ry="2.5" style="stroke:#181818;stroke-width:0.5;" width="125.0615" x="456.62" y="292.6211"/><text fill="#000000" font-family="sans-serif" font-size="14" lengthAdjust="spacing" textLength="119.0615" x="459.62" y="312.7285">PlantFloorManager</text><line style="stroke:#181818;stroke-width:0.5;" x1="457.62" x2="580.6815" y1="321.2422" y2="321.2422"/></g><!--class ProductionManager--><g id="elem_ProductionManager"><rect codeLine="31" fill="#ADD8E6" height="36.6211" id="ProductionManager" rx="2.5" ry="2.5" style="stroke:#181818;stroke-width:0.5;" width="128.1855" x="933.12" y="292.6211"/><text fill="#000000" font-family="sans-serif" font-size="14" lengthAdjust="spacing" textLength="122.1855" x="936.12" y="312.7285">ProductionManager</text><line style="stroke:#181818;stroke-width:0.5;" x1="934.12" x2="1060.3055" y1="321.2422" y2="321.2422"/></g><!--class RawMaterial--><g id="elem_RawMaterial"><rect codeLine="35" fill="#ADD8E6" height="55.2422" id="RawMaterial" rx="2.5" ry="2.5" style="stroke:#181818;stroke-width:0.5;" width="83.7998" x="48.12" y="835.1211"/><text fill="#000000" font-family="sans-serif" font-size="14" lengthAdjust="spacing" textLength="77.7998" x="51.12" y="855.2285">RawMaterial</text><line style="stroke:#181818;stroke-width:0.5;" x1="49.12" x2="130.9198" y1="863.7422" y2="863.7422"/><text fill="#000000" font-family="sans-serif" font-size="14" lengthAdjust="spacing" textLength="35.0205" x="54.12" y="882.8496">name</text></g><!--class Product--><g id="elem_Product"><rect codeLine="39" fill="#ADD8E6" height="73.8633" id="Product" rx="2.5" ry="2.5" style="stroke:#181818;stroke-width:0.5;" width="79.7031" x="812.12" y="825.6211"/><text fill="#000000" font-family="sans-serif" font-size="14" lengthAdjust="spacing" textLength="48.248" x="827.8475" y="845.7285">Product</text><line style="stroke:#181818;stroke-width:0.5;" x1="813.12" x2="890.8231" y1="854.2422" y2="854.2422"/><text fill="#000000" font-family="sans-serif" font-size="14" lengthAdjust="spacing" textLength="35.0205" x="818.12" y="873.3496">name</text><text fill="#000000" font-family="sans-serif" font-size="14" lengthAdjust="spacing" textLength="67.7031" x="818.12" y="891.9707">description</text></g><!--class Component--><g id="elem_Component"><rect codeLine="44" fill="#ADD8E6" height="55.2422" id="Component" rx="2.5" ry="2.5" style="stroke:#181818;stroke-width:0.5;" width="78.3789" x="206.12" y="835.1211"/><text fill="#000000" font-family="sans-serif" font-size="14" lengthAdjust="spacing" textLength="72.3789" x="209.12" y="855.2285">Component</text><line style="stroke:#181818;stroke-width:0.5;" x1="207.12" x2="283.4989" y1="863.7422" y2="863.7422"/><text fill="#000000" font-family="sans-serif" font-size="14" lengthAdjust="spacing" textLength="35.0205" x="212.12" y="882.8496">name</text></g><!--class Machine--><g id="elem_Machine"><rect codeLine="48" fill="#ADD8E6" height="92.4844" id="Machine" rx="2.5" ry="2.5" style="stroke:#181818;stroke-width:0.5;" width="103.041" x="55.62" y="464.6211"/><text fill="#000000" font-family="sans-serif" font-size="14" lengthAdjust="spacing" textLength="52.917" x="80.682" y="484.7285">Machine</text><line style="stroke:#181818;stroke-width:0.5;" x1="56.62" x2="157.661" y1="493.2422" y2="493.2422"/><text fill="#000000" font-family="sans-serif" font-size="14" lengthAdjust="spacing" textLength="10.8965" x="61.62" y="512.3496">id</text><text fill="#000000" font-family="sans-serif" font-size="14" lengthAdjust="spacing" textLength="91.041" x="61.62" y="530.9707">executionTime</text><text fill="#000000" font-family="sans-serif" font-size="14" lengthAdjust="spacing" textLength="65.3584" x="61.62" y="549.5918">setupTime</text></g><!--class Employee--><g id="elem_Employee"><rect codeLine="54" fill="#ADD8E6" height="129.7266" id="Employee" rx="2.5" ry="2.5" style="stroke:#181818;stroke-width:0.5;" width="100.7236" x="389.62" y="46.6211"/><text fill="#000000" font-family="sans-serif" font-size="14" lengthAdjust="spacing" textLength="62.2549" x="408.8544" y="66.7285">Employee</text><line style="stroke:#181818;stroke-width:0.5;" x1="390.62" x2="489.3436" y1="75.2422" y2="75.2422"/><text fill="#000000" font-family="sans-serif" font-size="14" lengthAdjust="spacing" textLength="35.0205" x="395.62" y="94.3496">name</text><text fill="#000000" font-family="sans-serif" font-size="14" lengthAdjust="spacing" textLength="22.5518" x="395.62" y="112.9707">NIF</text><text fill="#000000" font-family="sans-serif" font-size="14" lengthAdjust="spacing" textLength="88.7236" x="395.62" y="131.5918">phoneNumber</text><text fill="#000000" font-family="sans-serif" font-size="14" lengthAdjust="spacing" textLength="54.4824" x="395.62" y="150.2129">birthdate</text><text fill="#000000" font-family="sans-serif" font-size="14" lengthAdjust="spacing" textLength="25.6689" x="395.62" y="168.834">mail</text></g><!--class Operation--><g id="elem_Operation"><rect codeLine="62" fill="#ADD8E6" height="92.4844" id="Operation" rx="2.5" ry="2.5" style="stroke:#181818;stroke-width:0.5;" width="121.7373" x="218.12" y="654.6211"/><text fill="#000000" font-family="sans-serif" font-size="14" lengthAdjust="spacing" textLength="61.4824" x="248.2474" y="674.7285">Operation</text><line style="stroke:#181818;stroke-width:0.5;" x1="219.12" x2="338.8573" y1="683.2422" y2="683.2422"/><text fill="#000000" font-family="sans-serif" font-size="14" lengthAdjust="spacing" textLength="10.8965" x="224.12" y="702.3496">id</text><text fill="#000000" font-family="sans-serif" font-size="14" lengthAdjust="spacing" textLength="71.6133" x="224.12" y="720.9707">designation</text><text fill="#000000" font-family="sans-serif" font-size="14" lengthAdjust="spacing" textLength="109.7373" x="224.12" y="739.5918">expectedDuration</text></g><!--class Workstation--><g id="elem_Workstation"><rect codeLine="68" fill="#ADD8E6" height="111.1055" id="Workstation" rx="2.5" ry="2.5" style="stroke:#181818;stroke-width:0.5;" width="79.9102" x="203.12" y="255.6211"/><text fill="#000000" font-family="sans-serif" font-size="14" lengthAdjust="spacing" textLength="73.9102" x="206.12" y="275.7285">Workstation</text><line style="stroke:#181818;stroke-width:0.5;" x1="204.12" x2="282.0302" y1="284.2422" y2="284.2422"/><text fill="#000000" font-family="sans-serif" font-size="14" lengthAdjust="spacing" textLength="35.0205" x="209.12" y="303.3496">name</text><text fill="#000000" font-family="sans-serif" font-size="14" lengthAdjust="spacing" textLength="51.3584" x="209.12" y="321.9707">capacity</text><text fill="#000000" font-family="sans-serif" font-size="14" lengthAdjust="spacing" textLength="37.3516" x="209.12" y="340.5918">status</text><text fill="#000000" font-family="sans-serif" font-size="14" lengthAdjust="spacing" textLength="26.4619" x="209.12" y="359.2129">type</text></g><!--class Order--><g id="elem_Order"><rect codeLine="75" fill="#ADD8E6" height="73.8633" id="Order" rx="2.5" ry="2.5" style="stroke:#181818;stroke-width:0.5;" width="89.8135" x="328.12" y="473.6211"/><text fill="#000000" font-family="sans-serif" font-size="14" lengthAdjust="spacing" textLength="35.7861" x="355.1337" y="493.7285">Order</text><line style="stroke:#181818;stroke-width:0.5;" x1="329.12" x2="416.9335" y1="502.2422" y2="502.2422"/><text fill="#000000" font-family="sans-serif" font-size="14" lengthAdjust="spacing" textLength="62.2549" x="334.12" y="521.3496">orderDate</text><text fill="#000000" font-family="sans-serif" font-size="14" lengthAdjust="spacing" textLength="77.8135" x="334.12" y="539.9707">deliveryDate</text></g><!--class Client--><g id="elem_Client"><rect codeLine="81" fill="#ADD8E6" height="111.1055" id="Client" rx="2.5" ry="2.5" style="stroke:#181818;stroke-width:0.5;" width="100.7236" x="320.62" y="255.6211"/><text fill="#000000" font-family="sans-serif" font-size="14" lengthAdjust="spacing" textLength="35.793" x="353.0853" y="275.7285">Client</text><line style="stroke:#181818;stroke-width:0.5;" x1="321.62" x2="420.3436" y1="284.2422" y2="284.2422"/><text fill="#000000" font-family="sans-serif" font-size="14" lengthAdjust="spacing" textLength="35.0205" x="326.62" y="303.3496">name</text><text fill="#000000" font-family="sans-serif" font-size="14" lengthAdjust="spacing" textLength="22.5518" x="326.62" y="321.9707">NIF</text><text fill="#000000" font-family="sans-serif" font-size="14" lengthAdjust="spacing" textLength="88.7236" x="326.62" y="340.5918">phoneNumber</text><text fill="#000000" font-family="sans-serif" font-size="14" lengthAdjust="spacing" textLength="25.6689" x="326.62" y="359.2129">mail</text></g><!--class Address--><g id="elem_Address"><rect codeLine="88" fill="#ADD8E6" height="92.4844" id="Address" rx="2.5" ry="2.5" style="stroke:#181818;stroke-width:0.5;" width="60.2549" x="555.12" y="654.6211"/><text fill="#000000" font-family="sans-serif" font-size="14" lengthAdjust="spacing" textLength="51.3584" x="559.5682" y="674.7285">Address</text><line style="stroke:#181818;stroke-width:0.5;" x1="556.12" x2="614.3749" y1="683.2422" y2="683.2422"/><text fill="#000000" font-family="sans-serif" font-size="14" lengthAdjust="spacing" textLength="35.0137" x="561.12" y="702.3496">street</text><text fill="#000000" font-family="sans-serif" font-size="14" lengthAdjust="spacing" textLength="21" x="561.12" y="720.9707">city</text><text fill="#000000" font-family="sans-serif" font-size="14" lengthAdjust="spacing" textLength="48.2549" x="561.12" y="739.5918">zipcode</text></g><!--class ProductFamily--><g id="elem_ProductFamily"><rect codeLine="94" fill="#ADD8E6" height="55.2422" id="ProductFamily" rx="2.5" ry="2.5" style="stroke:#181818;stroke-width:0.5;" width="95.4688" x="804.62" y="978.6211"/><text fill="#000000" font-family="sans-serif" font-size="14" lengthAdjust="spacing" textLength="89.4688" x="807.62" y="998.7285">ProductFamily</text><line style="stroke:#181818;stroke-width:0.5;" x1="805.62" x2="899.0888" y1="1007.2422" y2="1007.2422"/><text fill="#000000" font-family="sans-serif" font-size="14" lengthAdjust="spacing" textLength="35.0205" x="810.62" y="1026.3496">name</text></g><!--class Supplier--><g id="elem_Supplier"><rect codeLine="98" fill="#ADD8E6" height="92.4844" id="Supplier" rx="2.5" ry="2.5" style="stroke:#181818;stroke-width:0.5;" width="100.7236" x="43.62" y="654.6211"/><text fill="#000000" font-family="sans-serif" font-size="14" lengthAdjust="spacing" textLength="51.3652" x="68.2992" y="674.7285">Supplier</text><line style="stroke:#181818;stroke-width:0.5;" x1="44.62" x2="143.3436" y1="683.2422" y2="683.2422"/><text fill="#000000" font-family="sans-serif" font-size="14" lengthAdjust="spacing" textLength="35.0205" x="49.62" y="702.3496">name</text><text fill="#000000" font-family="sans-serif" font-size="14" lengthAdjust="spacing" textLength="88.7236" x="49.62" y="720.9707">phoneNumber</text><text fill="#000000" font-family="sans-serif" font-size="14" lengthAdjust="spacing" textLength="25.6689" x="49.62" y="739.5918">mail</text></g><!--link Supplier to RawMaterial--><g id="link_Supplier_RawMaterial"><path codeLine="104" d="M43.36,738.8211 C32.32,749.6611 22.15,762.4511 16.12,776.6211 C6,800.3811 25.99,822.2411 47.73,837.8411 " fill="none" id="Supplier-RawMaterial" style="stroke:#181818;stroke-width:1.0;"/><polygon fill="#000000" points="21.3404,791.2617,23.8777,782.0959,18.0056,782.355,21.3404,791.2617" style="stroke:#000000;stroke-width:1.0;"/><text fill="#000000" font-family="sans-serif" font-size="13" lengthAdjust="spacing" textLength="49.1372" x="30.12" y="791.6494">provides</text><text fill="#000000" font-family="sans-serif" font-size="13" lengthAdjust="spacing" textLength="19.5127" x="15.9414" y="740.0124">1..*</text><text fill="#000000" font-family="sans-serif" font-size="13" lengthAdjust="spacing" textLength="19.5127" x="20.5168" y="829.5693">1..*</text></g><!--link Supplier to Component--><g id="link_Supplier_Component"><path codeLine="105" d="M144.11,746.7111 C154.26,756.3611 164.71,766.6511 174.12,776.6211 C191.81,795.3511 210.43,817.7611 224.16,834.8711 " fill="none" id="Supplier-Component" style="stroke:#181818;stroke-width:1.0;"/><polygon fill="#000000" points="199.4812,789.9683,195.5766,781.2962,191.225,785.2475,199.4812,789.9683" style="stroke:#000000;stroke-width:1.0;"/><text fill="#000000" font-family="sans-serif" font-size="13" lengthAdjust="spacing" textLength="49.1372" x="205.12" y="791.6494">provides</text><text fill="#000000" font-family="sans-serif" font-size="13" lengthAdjust="spacing" textLength="19.5127" x="131.3704" y="769.0837">1..*</text><text fill="#000000" font-family="sans-serif" font-size="13" lengthAdjust="spacing" textLength="19.5127" x="198.5115" y="823.9751">1..*</text></g><!--link Operation to RawMaterial--><g id="link_Operation_RawMaterial"><path codeLine="108" d="M217.88,723.7511 C177.87,739.3111 130.47,760.2011 116.12,776.6211 C101.9,792.8911 95.46,816.7811 92.54,835.1011 " fill="none" id="Operation-RawMaterial" style="stroke:#181818;stroke-width:1.0;"/><polygon fill="#000000" points="117.382,789.5874,126.096,785.7772,122.1922,781.3829,117.382,789.5874" style="stroke:#000000;stroke-width:1.0;"/><text fill="#000000" font-family="sans-serif" font-size="13" lengthAdjust="spacing" textLength="35.4199" x="130.12" y="791.6494">needs</text><text fill="#000000" font-family="sans-serif" font-size="13" lengthAdjust="spacing" textLength="19.5127" x="190.7455" y="722.4598">1..*</text><text fill="#000000" font-family="sans-serif" font-size="13" lengthAdjust="spacing" textLength="19.5127" x="71.9852" y="823.8054">0..*</text></g><!--link Operation to Component--><g id="link_Operation_Component"><path codeLine="109" d="M282.74,747.0811 C282.9,762.6511 281.87,780.0711 278.12,795.6211 C274.81,809.3211 268.25,823.4311 261.84,835.0711 " fill="none" id="Operation-Component" style="stroke:#181818;stroke-width:1.0;"/><polygon fill="#000000" points="285.9645,791.1313,290.9142,783.0102,285.1954,781.6518,285.9645,791.1313" style="stroke:#000000;stroke-width:1.0;"/><text fill="#000000" font-family="sans-serif" font-size="13" lengthAdjust="spacing" textLength="35.4199" x="296.12" y="791.6494">needs</text><text fill="#000000" font-family="sans-serif" font-size="13" lengthAdjust="spacing" textLength="19.5127" x="262.9333" y="769.1675">1..*</text><text fill="#000000" font-family="sans-serif" font-size="13" lengthAdjust="spacing" textLength="19.5127" x="244.5251" y="823.7685">0..*</text></g><!--link Administrator to SystemUsers--><g id="link_Administrator_SystemUsers"><path codeLine="111" d="M832.2,329.6711 C845.86,350.2311 864.04,385.3411 854.12,415.6211 C849.93,428.4111 843.26,440.9011 835.68,452.3811 " fill="none" id="Administrator-SystemUsers" style="stroke:#181818;stroke-width:1.0;"/><polygon fill="#000000" points="861.2617,411.2646,863.9431,402.1398,858.0676,402.3065,861.2617,411.2646" style="stroke:#000000;stroke-width:1.0;"/><text fill="#000000" font-family="sans-serif" font-size="13" lengthAdjust="spacing" textLength="20.23" x="870.12" y="411.6494">is a</text><text fill="#000000" font-family="sans-serif" font-size="13" lengthAdjust="spacing" textLength="7.23" x="827.8608" y="351.4014">1</text><text fill="#000000" font-family="sans-serif" font-size="13" lengthAdjust="spacing" textLength="7.23" x="843.3178" y="440.0638">1</text></g><!--link Administrator to SystemUsers--><g id="link_Administrator_SystemUsers"><path codeLine="114" d="M807.65,329.7011 C797.61,346.2111 783.78,371.9911 778.12,396.6211 C774.53,412.2311 773.94,429.3611 774.79,445.4511 " fill="none" id="Administrator-SystemUsers-1" style="stroke:#181818;stroke-width:1.0;"/><polygon fill="#000000" points="781.7545,411.0765,787.0519,403.1779,781.3975,401.5727,781.7545,411.0765" style="stroke:#000000;stroke-width:1.0;"/><text fill="#000000" font-family="sans-serif" font-size="13" lengthAdjust="spacing" textLength="53.479" x="792.12" y="411.6494">manages</text><text fill="#000000" font-family="sans-serif" font-size="13" lengthAdjust="spacing" textLength="19.5127" x="782.7584" y="351.4399">1..*</text><text fill="#000000" font-family="sans-serif" font-size="13" lengthAdjust="spacing" textLength="19.5127" x="753.6642" y="434.4526">1..*</text></g><!--link ProductionManager to SystemUsers--><g id="link_ProductionManager_SystemUsers"><path codeLine="112" d="M981.45,329.9711 C962.6,351.1211 929.68,387.0811 899.12,415.6211 C879.05,434.3511 855.85,453.8511 835.63,470.1911 " fill="none" id="ProductionManager-SystemUsers" style="stroke:#181818;stroke-width:1.0;"/><polygon fill="#000000" points="919.5159,409.7323,928.0728,405.5812,923.9987,401.3444,919.5159,409.7323" style="stroke:#000000;stroke-width:1.0;"/><text fill="#000000" font-family="sans-serif" font-size="13" lengthAdjust="spacing" textLength="20.23" x="932.12" y="411.6494">is a</text><text fill="#000000" font-family="sans-serif" font-size="13" lengthAdjust="spacing" textLength="7.23" x="969.304" y="351.4397">1</text><text fill="#000000" font-family="sans-serif" font-size="13" lengthAdjust="spacing" textLength="7.23" x="843.2608" y="460.3783">1</text></g><!--link PlantFloorManager to SystemUsers--><g id="link_PlantFloorManager_SystemUsers"><path codeLine="113" d="M557.41,329.7511 C589.25,345.2511 635.03,369.5111 671.12,396.6211 C693.4,413.3611 715.67,434.2611 734.53,453.5211 " fill="none" id="PlantFloorManager-SystemUsers" style="stroke:#181818;stroke-width:1.0;"/><polygon fill="#000000" points="700.2185,409.1306,694.4877,401.5406,691.1208,406.3586,700.2185,409.1306" style="stroke:#000000;stroke-width:1.0;"/><text fill="#000000" font-family="sans-serif" font-size="13" lengthAdjust="spacing" textLength="20.23" x="705.12" y="411.6494">is a</text><text fill="#000000" font-family="sans-serif" font-size="13" lengthAdjust="spacing" textLength="7.23" x="559.7824" y="351.1606">1</text><text fill="#000000" font-family="sans-serif" font-size="13" lengthAdjust="spacing" textLength="7.23" x="719.2862" y="440.5476">1</text></g><!--link PlantFloorManager to ProductionLine--><g id="link_PlantFloorManager_ProductionLine"><path codeLine="115" d="M509.22,329.7311 C495.16,353.0611 467.2,393.8011 432.12,415.6211 C384.7,445.1111 359.07,418.7611 310.12,445.6211 C288.82,457.3011 269.34,477.4711 256.94,492.0511 " fill="none" id="PlantFloorManager-ProductionLine" style="stroke:#181818;stroke-width:1.0;"/><polygon fill="#000000" points="455.9152,408.972,465.112,406.5494,461.9316,401.6063,455.9152,408.972" style="stroke:#000000;stroke-width:1.0;"/><text fill="#000000" font-family="sans-serif" font-size="13" lengthAdjust="spacing" textLength="50.5781" x="469.12" y="411.6494">specifies</text><text fill="#000000" font-family="sans-serif" font-size="13" lengthAdjust="spacing" textLength="19.5127" x="485.0669" y="351.1352">1..*</text><text fill="#000000" font-family="sans-serif" font-size="13" lengthAdjust="spacing" textLength="19.5127" x="239.2803" y="480.8918">1..*</text></g><!--link Workstation to Machine--><g id="link_Workstation_Machine"><path codeLine="116" d="M205.41,366.8711 C184.27,397.5811 158.21,435.4311 138.23,464.4311 " fill="none" id="Workstation-Machine" style="stroke:#181818;stroke-width:1.0;"/><polygon fill="#000000" points="186.2843,410.3847,193.8347,404.6018,188.9936,401.2682,186.2843,410.3847" style="stroke:#000000;stroke-width:1.0;"/><text fill="#000000" font-family="sans-serif" font-size="13" lengthAdjust="spacing" textLength="20.96" x="198.12" y="411.6494">has</text><text fill="#000000" font-family="sans-serif" font-size="13" lengthAdjust="spacing" textLength="7.23" x="193.407" y="388.7412">1</text><text fill="#000000" font-family="sans-serif" font-size="13" lengthAdjust="spacing" textLength="19.5127" x="122.4386" y="453.4126">0..*</text></g><!--link ProductionManager to Product--><g id="link_ProductionManager_Product"><path codeLine="117" d="M992.46,329.7811 C972,407.3011 889.93,718.3311 861.71,825.2811 " fill="none" id="ProductionManager-Product" style="stroke:#181818;stroke-width:1.0;"/><polygon fill="#000000" points="922.8443,620.1011,927.9937,612.1052,922.3104,610.6056,922.8443,620.1011" style="stroke:#000000;stroke-width:1.0;"/><text fill="#000000" font-family="sans-serif" font-size="13" lengthAdjust="spacing" textLength="53.479" x="933.12" y="620.6494">manages</text><text fill="#000000" font-family="sans-serif" font-size="13" lengthAdjust="spacing" textLength="19.5127" x="993.8047" y="351.1987">1..*</text><text fill="#000000" font-family="sans-serif" font-size="13" lengthAdjust="spacing" textLength="19.5127" x="842.795" y="814.4674">1..*</text></g><!--link Operation to Product--><g id="link_Operation_Product"><path codeLine="118" d="M340.17,718.6711 C457.82,751.5211 713.06,822.7911 811.89,850.3911 " fill="none" id="Operation-Product" style="stroke:#181818;stroke-width:1.0;"/><polygon fill="#000000" points="599.3042,784.9219,607.2256,790.1852,608.8065,784.5239,599.3042,784.9219" style="stroke:#000000;stroke-width:1.0;"/><text fill="#000000" font-family="sans-serif" font-size="13" lengthAdjust="spacing" textLength="59.9727" x="613.12" y="791.6494">is made of</text><text fill="#000000" font-family="sans-serif" font-size="13" lengthAdjust="spacing" textLength="19.5127" x="347.9288" y="716.7334">1..*</text><text fill="#000000" font-family="sans-serif" font-size="13" lengthAdjust="spacing" textLength="19.5127" x="784.7205" y="844.0214">1..*</text></g><!--link Order to Operation--><g id="link_Order_Operation"><path codeLine="119" d="M354.99,547.8711 C339.79,578.2811 318,621.8511 301.67,654.5111 " fill="none" id="Order-Operation" style="stroke:#181818;stroke-width:1.0;"/><polygon fill="#000000" points="328.8839,619.7387,335.5577,612.9629,330.3004,610.3342,328.8839,619.7387" style="stroke:#000000;stroke-width:1.0;"/><text fill="#000000" font-family="sans-serif" font-size="13" lengthAdjust="spacing" textLength="20.96" x="340.12" y="620.6494">has</text><text fill="#000000" font-family="sans-serif" font-size="13" lengthAdjust="spacing" textLength="7.23" x="344.442" y="569.5122">1</text><text fill="#000000" font-family="sans-serif" font-size="13" lengthAdjust="spacing" textLength="19.5127" x="284.6437" y="643.5044">1..*</text></g><!--link Client to Order--><g id="link_Client_Order"><path codeLine="120" d="M371.67,366.8711 C372.02,400.8911 372.45,443.6711 372.75,473.4811 " fill="none" id="Client-Order" style="stroke:#181818;stroke-width:1.0;"/><polygon fill="#000000" points="377.1706,411.2663,380.0178,402.192,374.1402,402.2515,377.1706,411.2663" style="stroke:#000000;stroke-width:1.0;"/><text fill="#000000" font-family="sans-serif" font-size="13" lengthAdjust="spacing" textLength="37.5781" x="386.12" y="411.6494">places</text><text fill="#000000" font-family="sans-serif" font-size="13" lengthAdjust="spacing" textLength="7.23" x="364.3413" y="388.7412">1</text><text fill="#000000" font-family="sans-serif" font-size="13" lengthAdjust="spacing" textLength="19.5127" x="352.0542" y="462.4179">1..*</text></g><!--link Machine to Operation--><g id="link_Machine_Operation"><path codeLine="121" d="M108.7,556.7111 C111.53,579.1011 118.16,605.4011 133.12,624.6211 C154.29,651.8311 188.06,670.0811 217.8,681.7511 " fill="none" id="Machine-Operation" style="stroke:#181818;stroke-width:1.0;"/><polygon fill="#000000" points="141.4072,619.0341,137.6751,610.2864,133.2461,614.1508,141.4072,619.0341" style="stroke:#000000;stroke-width:1.0;"/><text fill="#000000" font-family="sans-serif" font-size="13" lengthAdjust="spacing" textLength="59.249" x="147.12" y="620.6494">processes</text><text fill="#000000" font-family="sans-serif" font-size="13" lengthAdjust="spacing" textLength="19.5127" x="88.5234" y="579.0837">1..*</text><text fill="#000000" font-family="sans-serif" font-size="13" lengthAdjust="spacing" textLength="7.23" x="202.9301" y="675.4319">1</text></g><!--link Employee to Workstation--><g id="link_Employee_Workstation"><path codeLine="122" d="M389.38,163.4811 C356.32,196.6311 313.79,239.2711 283.12,270.0211 " fill="none" id="Employee-Workstation" style="stroke:#181818;stroke-width:1.0;"/><polygon fill="#000000" points="343.5891,219.8068,352.0574,215.4779,347.8957,211.3271,343.5891,219.8068" style="stroke:#000000;stroke-width:1.0;"/><text fill="#000000" font-family="sans-serif" font-size="13" lengthAdjust="spacing" textLength="50.5908" x="356.12" y="221.6494">operates</text><text fill="#000000" font-family="sans-serif" font-size="13" lengthAdjust="spacing" textLength="19.5127" x="361.9642" y="166.6466">0..*</text><text fill="#000000" font-family="sans-serif" font-size="13" lengthAdjust="spacing" textLength="19.5127" x="291.0571" y="259.1592">0..*</text></g><!--link Workstation to ProductionLine--><g id="link_Workstation_ProductionLine"><path codeLine="123" d="M243.12,366.8711 C243.12,408.8811 243.12,464.2511 243.12,492.0711 " fill="none" id="Workstation-ProductionLine" style="stroke:#181818;stroke-width:1.0;"/><polygon fill="#000000" points="248.12,411.2666,251.0589,402.2215,245.1811,402.2215,248.12,411.2666" style="stroke:#000000;stroke-width:1.0;"/><text fill="#000000" font-family="sans-serif" font-size="13" lengthAdjust="spacing" textLength="36.8545" x="257.12" y="411.6494">part of</text><text fill="#000000" font-family="sans-serif" font-size="13" lengthAdjust="spacing" textLength="7.23" x="235.7129" y="388.7412">1</text><text fill="#000000" font-family="sans-serif" font-size="13" lengthAdjust="spacing" textLength="19.5127" x="221.228" y="480.9179">1..*</text></g><!--link Client to Address--><g id="link_Client_Address"><path codeLine="124" d="M412.43,366.7211 C419.28,376.5011 426.1,386.7311 432.12,396.6211 C485.78,484.8611 537.67,594.2811 565.07,654.5311 " fill="none" id="Client-Address" style="stroke:#181818;stroke-width:1.0;"/><polygon fill="#000000" points="533.4627,515.1838,531.8211,505.816,526.6284,508.57,533.4627,515.1838" style="stroke:#000000;stroke-width:1.0;"/><text fill="#000000" font-family="sans-serif" font-size="13" lengthAdjust="spacing" textLength="20.96" x="540.12" y="516.1494">has</text><text fill="#000000" font-family="sans-serif" font-size="13" lengthAdjust="spacing" textLength="19.5127" x="397.3549" y="388.5729">1..*</text><text fill="#000000" font-family="sans-serif" font-size="13" lengthAdjust="spacing" textLength="7.23" x="554.6093" y="643.5273">1</text></g><!--link Order to Address--><g id="link_Order_Address"><path codeLine="125" d="M376.78,547.8511 C380.96,572.1811 389.93,603.5311 409.12,624.6211 C448.12,667.4911 515.73,686.7611 554.82,694.6911 " fill="none" id="Order-Address" style="stroke:#181818;stroke-width:1.0;"/><polygon fill="#000000" points="417.9773,618.448,412.8693,610.4255,409.1294,614.9601,417.9773,618.448" style="stroke:#000000;stroke-width:1.0;"/><text fill="#000000" font-family="sans-serif" font-size="13" lengthAdjust="spacing" textLength="85.2808" x="423.12" y="620.6494">to be delivered</text><text fill="#000000" font-family="sans-serif" font-size="13" lengthAdjust="spacing" textLength="19.5127" x="356.8707" y="569.4889">0..*</text><text fill="#000000" font-family="sans-serif" font-size="13" lengthAdjust="spacing" textLength="7.23" x="540.0009" y="688.3601">1</text></g><!--link Employee to Address--><g id="link_Employee_Address"><path codeLine="126" d="M490.74,141.7111 C528.44,166.5611 577.06,206.1111 599.12,255.6211 C630.43,325.8911 604.43,556.2811 591.44,654.5511 " fill="none" id="Employee-Address" style="stroke:#181818;stroke-width:1.0;"/><polygon fill="#000000" points="619.0834,411.1729,620.2245,401.731,614.4567,402.8636,619.0834,411.1729" style="stroke:#000000;stroke-width:1.0;"/><text fill="#000000" font-family="sans-serif" font-size="13" lengthAdjust="spacing" textLength="20.96" x="627.12" y="411.6494">has</text><text fill="#000000" font-family="sans-serif" font-size="13" lengthAdjust="spacing" textLength="19.5127" x="498.4934" y="141.5418">1..*</text><text fill="#000000" font-family="sans-serif" font-size="13" lengthAdjust="spacing" textLength="7.23" x="584.8699" y="643.2086">1</text></g><!--link SystemUsers to Address--><g id="link_SystemUsers_Address"><path codeLine="127" d="M734.39,559.3011 C696.78,594.6611 646.77,641.6711 615.26,671.2911 " fill="none" id="SystemUsers-Address" style="stroke:#181818;stroke-width:1.0;"/><polygon fill="#000000" points="686.477,618.6913,695.0802,614.6373,691.0543,610.3547,686.477,618.6913" style="stroke:#000000;stroke-width:1.0;"/><text fill="#000000" font-family="sans-serif" font-size="13" lengthAdjust="spacing" textLength="20.96" x="699.12" y="620.6494">has</text><text fill="#000000" font-family="sans-serif" font-size="13" lengthAdjust="spacing" textLength="19.5127" x="706.9756" y="562.0194">1..*</text><text fill="#000000" font-family="sans-serif" font-size="13" lengthAdjust="spacing" textLength="7.23" x="623.4567" y="659.0748">1</text></g><!--link Product to ProductFamily--><g id="link_Product_ProductFamily"><path codeLine="128" d="M852.12,899.6911 C852.12,924.2611 852.12,956.2311 852.12,978.5011 " fill="none" id="Product-ProductFamily" style="stroke:#181818;stroke-width:1.0;"/><polygon fill="#000000" points="857.12,944.2666,860.0589,935.2215,854.1811,935.2215,857.12,944.2666" style="stroke:#000000;stroke-width:1.0;"/><text fill="#000000" font-family="sans-serif" font-size="13" lengthAdjust="spacing" textLength="49.8545" x="866.12" y="944.6494">is part of</text><text fill="#000000" font-family="sans-serif" font-size="13" lengthAdjust="spacing" textLength="19.5127" x="831.5568" y="921.5885">1..*</text><text fill="#000000" font-family="sans-serif" font-size="13" lengthAdjust="spacing" textLength="7.23" x="844.283" y="967.1823">1</text></g><!--link ProductionLine to Operation--><g id="link_ProductionLine_Operation"><path codeLine="129" d="M233.27,529.2211 C221.99,551.7811 206.48,591.8711 218.12,624.6211 C221.83,635.0611 227.68,645.1011 234.32,654.2511 " fill="none" id="ProductionLine-Operation" style="stroke:#181818;stroke-width:1.0;"/><polygon fill="#000000" points="223.162,620.2664,226.0249,611.197,220.1472,611.2463,223.162,620.2664" style="stroke:#000000;stroke-width:1.0;"/><text fill="#000000" font-family="sans-serif" font-size="13" lengthAdjust="spacing" textLength="61.4136" x="232.12" y="620.6494">consists of</text><text fill="#000000" font-family="sans-serif" font-size="13" lengthAdjust="spacing" textLength="7.23" x="222.6594" y="550.6226">1</text><text fill="#000000" font-family="sans-serif" font-size="13" lengthAdjust="spacing" textLength="19.5127" x="207.4016" y="643.2062">1..*</text></g><!--SRC=[XLLDRzim3BthLmZPOHz0Y_Oo3C4m86jQeC3I5ik6dHMBYRdAaY79xToW_tsq_2MxJf9BPFEHV7maPVU8EXTMP3nHmhdl8ddSMLDeUMMKiVpTOhdySlsPkGwM4qBiOErB1Tn2ueNUAOW0BXNIFAFUyQrGBhQ430llBMuA3xU9qMjy0Nx1KfJ04xG91Ghd37ngf6Fl5MmzzuPRtAMUIwmIej6CCO-U23nOyvTUyQN916g-CX8KOo5HPPD5WFz03Nl6NblBGcQeqNahlB6nOLqw3zbl1zRj6QSVHLNXa9FvsLWP7hJ881pkRczgQseqt1NP1cmVx449xM-KCNObD4bMPnfpYssDyQTuNWaF5eNY-pxXwwYms5OT9BZ4OXxqwR1N9ik9c_QJaLOYIKcRnePrTV0FagAAyWkRo0vyaOUdplCwovKf0SOafXIfdZTeVIgfgbxMBjPz3jG9IZZaGVNWJWT3mokdLeDS5ZMw3_37s4Vdun0TdqJGmA8lwpe8KxXmz6KULNDl9TZ6DQ_L_U0-XaTJcPOjSHelV09RXXUzo0f72X-JObZyGaeBzBzl65e0NpDlMRzWdj1Sl-d_ZSXGbPDzNHTvJfpiYD4X9YsSpoxFpp_D-DbPUuf7SLv9yqJhwVYt8oxzn0qS6ElR7FbSJAJH0B9oEU8G9sdXRB3Miyk6r2pUwZb7nmM1topWAVnucK_WHrn66WqyiX3GJISPEGxlj3btj1AunU0TRq7BhbQhMVCvJuMRgfqVoXEJc-p60Cr3zPcW2zni-LTMRrKdL83sKLespVACOC6L1aY996HlRweuzp0QpHf1NK1tjrCZG2z5BDASc-1_KBqfpQjCmlggmeXxJAhTwBR0HeQBQGnzt3RGtYiW1-IFXercw0IoRSyGDRn5GklwmaOr7-uXVSGTZRaBRly1]--></g></svg>