<?xml version="1.0" encoding="us-ascii" standalone="no"?><svg xmlns="http://www.w3.org/2000/svg" xmlns:xlink="http://www.w3.org/1999/xlink" contentStyleType="text/css" height="1493px" preserveAspectRatio="none" style="width:733px;height:1493px;background:#FFFFFF;" version="1.1" viewBox="0 0 733 1493" width="733px" zoomAndPan="magnify"><defs/><g><text fill="#000000" font-family="sans-serif" font-size="14" font-weight="bold" lengthAdjust="spacing" textLength="154" x="282.905" y="25.1074">Project Domain Model</text><!--class ProductionLine--><g id="elem_ProductionLine"><rect codeLine="11" fill="#ADD8E6" height="36.6211" id="ProductionLine" rx="2.5" ry="2.5" style="stroke:#181818;stroke-width:0.5;" width="101" x="527.31" y="463.1211"/><text fill="#000000" font-family="sans-serif" font-size="14" lengthAdjust="spacing" textLength="95" x="530.31" y="483.2285">ProductionLine</text><line style="stroke:#181818;stroke-width:0.5;" x1="528.31" x2="627.31" y1="491.7422" y2="491.7422"/></g><!--class Administrator--><g id="elem_Administrator"><rect codeLine="14" fill="#ADD8E6" height="36.6211" id="Administrator" rx="2.5" ry="2.5" style="stroke:#181818;stroke-width:0.5;" width="89" x="292.31" y="254.6211"/><text fill="#000000" font-family="sans-serif" font-size="14" lengthAdjust="spacing" textLength="83" x="295.31" y="274.7285">Administrator</text><line style="stroke:#181818;stroke-width:0.5;" x1="293.31" x2="380.31" y1="283.2422" y2="283.2422"/></g><!--class SystemUsers--><g id="elem_SystemUsers"><rect codeLine="17" fill="#ADD8E6" height="148.3477" id="SystemUsers" rx="2.5" ry="2.5" style="stroke:#181818;stroke-width:0.5;" width="101" x="319.31" y="407.6211"/><text fill="#000000" font-family="sans-serif" font-size="14" lengthAdjust="spacing" textLength="82" x="328.81" y="427.7285">SystemUsers</text><line style="stroke:#181818;stroke-width:0.5;" x1="320.31" x2="419.31" y1="436.2422" y2="436.2422"/><text fill="#000000" font-family="sans-serif" font-size="14" lengthAdjust="spacing" textLength="25" x="325.31" y="455.3496">mail</text><text fill="#000000" font-family="sans-serif" font-size="14" lengthAdjust="spacing" textLength="60" x="325.31" y="473.9707">password</text><text fill="#000000" font-family="sans-serif" font-size="14" lengthAdjust="spacing" textLength="35" x="325.31" y="492.5918">name</text><text fill="#000000" font-family="sans-serif" font-size="14" lengthAdjust="spacing" textLength="21" x="325.31" y="511.2129">NIF</text><text fill="#000000" font-family="sans-serif" font-size="14" lengthAdjust="spacing" textLength="43" x="325.31" y="529.834">adress</text><text fill="#000000" font-family="sans-serif" font-size="14" lengthAdjust="spacing" textLength="89" x="325.31" y="548.4551">phoneNumber</text></g><!--class PlantFloorManager--><g id="elem_PlantFloorManager"><rect codeLine="25" fill="#ADD8E6" height="36.6211" id="PlantFloorManager" rx="2.5" ry="2.5" style="stroke:#181818;stroke-width:0.5;" width="127" x="467.31" y="254.6211"/><text fill="#000000" font-family="sans-serif" font-size="14" lengthAdjust="spacing" textLength="121" x="470.31" y="274.7285">PlantFloorManager</text><line style="stroke:#181818;stroke-width:0.5;" x1="468.31" x2="593.31" y1="283.2422" y2="283.2422"/></g><!--class ProductManager--><g id="elem_ProductManager"><rect codeLine="28" fill="#ADD8E6" height="36.6211" id="ProductManager" rx="2.5" ry="2.5" style="stroke:#181818;stroke-width:0.5;" width="111" x="120.31" y="254.6211"/><text fill="#000000" font-family="sans-serif" font-size="14" lengthAdjust="spacing" textLength="105" x="123.31" y="274.7285">ProductManager</text><line style="stroke:#181818;stroke-width:0.5;" x1="121.31" x2="230.31" y1="283.2422" y2="283.2422"/></g><!--class ExecutionTime--><g id="elem_ExecutionTime"><rect codeLine="31" fill="#ADD8E6" height="55.2422" id="ExecutionTime" rx="2.5" ry="2.5" style="stroke:#181818;stroke-width:0.5;" width="103" x="351.31" y="1232.1211"/><text fill="#000000" font-family="sans-serif" font-size="14" lengthAdjust="spacing" textLength="92" x="356.81" y="1252.2285">ExecutionTime</text><line style="stroke:#181818;stroke-width:0.5;" x1="352.31" x2="453.31" y1="1260.7422" y2="1260.7422"/><text fill="#000000" font-family="sans-serif" font-size="14" lengthAdjust="spacing" textLength="91" x="357.31" y="1279.8496">executionTime</text></g><!--class RawMaterial--><g id="elem_RawMaterial"><rect codeLine="34" fill="#ADD8E6" height="92.4844" id="RawMaterial" rx="2.5" ry="2.5" style="stroke:#181818;stroke-width:0.5;" width="83" x="143.31" y="824.6211"/><text fill="#000000" font-family="sans-serif" font-size="14" lengthAdjust="spacing" textLength="77" x="146.31" y="844.7285">RawMaterial</text><line style="stroke:#181818;stroke-width:0.5;" x1="144.31" x2="225.31" y1="853.2422" y2="853.2422"/><text fill="#000000" font-family="sans-serif" font-size="14" lengthAdjust="spacing" textLength="35" x="149.31" y="872.3496">name</text><text fill="#000000" font-family="sans-serif" font-size="14" lengthAdjust="spacing" textLength="69" x="149.31" y="890.9707">description</text><text fill="#000000" font-family="sans-serif" font-size="14" lengthAdjust="spacing" textLength="33" x="149.31" y="909.5918">stock</text></g><!--class Product--><g id="elem_Product"><rect codeLine="40" fill="#ADD8E6" height="92.4844" id="Product" rx="2.5" ry="2.5" style="stroke:#181818;stroke-width:0.5;" width="132" x="78.81" y="435.6211"/><text fill="#000000" font-family="sans-serif" font-size="14" lengthAdjust="spacing" textLength="49" x="120.31" y="455.7285">Product</text><line style="stroke:#181818;stroke-width:0.5;" x1="79.81" x2="209.81" y1="464.2422" y2="464.2422"/><text fill="#000000" font-family="sans-serif" font-size="14" lengthAdjust="spacing" textLength="35" x="84.81" y="483.3496">name</text><text fill="#000000" font-family="sans-serif" font-size="14" lengthAdjust="spacing" textLength="33" x="84.81" y="501.9707">stock</text><text fill="#000000" font-family="sans-serif" font-size="14" lengthAdjust="spacing" textLength="120" x="84.81" y="520.5918">manufacturingDate</text></g><!--class Component--><g id="elem_Component"><rect codeLine="46" fill="#ADD8E6" height="92.4844" id="Component" rx="2.5" ry="2.5" style="stroke:#181818;stroke-width:0.5;" width="81" x="104.31" y="644.1211"/><text fill="#000000" font-family="sans-serif" font-size="14" lengthAdjust="spacing" textLength="73" x="108.31" y="664.2285">Component</text><line style="stroke:#181818;stroke-width:0.5;" x1="105.31" x2="184.31" y1="672.7422" y2="672.7422"/><text fill="#000000" font-family="sans-serif" font-size="14" lengthAdjust="spacing" textLength="35" x="110.31" y="691.8496">name</text><text fill="#000000" font-family="sans-serif" font-size="14" lengthAdjust="spacing" textLength="69" x="110.31" y="710.4707">description</text><text fill="#000000" font-family="sans-serif" font-size="14" lengthAdjust="spacing" textLength="33" x="110.31" y="729.0918">stock</text></g><!--class Machine--><g id="elem_Machine"><rect codeLine="52" fill="#ADD8E6" height="73.8633" id="Machine" rx="2.5" ry="2.5" style="stroke:#181818;stroke-width:0.5;" width="76" x="525.81" y="1412.6211"/><text fill="#000000" font-family="sans-serif" font-size="14" lengthAdjust="spacing" textLength="53" x="537.31" y="1432.7285">Machine</text><line style="stroke:#181818;stroke-width:0.5;" x1="526.81" x2="600.81" y1="1441.2422" y2="1441.2422"/><text fill="#000000" font-family="sans-serif" font-size="14" lengthAdjust="spacing" textLength="64" x="531.81" y="1460.3496">machineId</text><text fill="#000000" font-family="sans-serif" font-size="14" lengthAdjust="spacing" textLength="38" x="531.81" y="1478.9707">power</text></g><!--class Employee--><g id="elem_Employee"><rect codeLine="57" fill="#ADD8E6" height="148.3477" id="Employee" rx="2.5" ry="2.5" style="stroke:#181818;stroke-width:0.5;" width="101" x="617.31" y="1185.6211"/><text fill="#000000" font-family="sans-serif" font-size="14" lengthAdjust="spacing" textLength="62" x="636.81" y="1205.7285">Employee</text><line style="stroke:#181818;stroke-width:0.5;" x1="618.31" x2="717.31" y1="1214.2422" y2="1214.2422"/><text fill="#000000" font-family="sans-serif" font-size="14" lengthAdjust="spacing" textLength="35" x="623.31" y="1233.3496">name</text><text fill="#000000" font-family="sans-serif" font-size="14" lengthAdjust="spacing" textLength="21" x="623.31" y="1251.9707">NIF</text><text fill="#000000" font-family="sans-serif" font-size="14" lengthAdjust="spacing" textLength="51" x="623.31" y="1270.5918">address</text><text fill="#000000" font-family="sans-serif" font-size="14" lengthAdjust="spacing" textLength="89" x="623.31" y="1289.2129">phoneNumber</text><text fill="#000000" font-family="sans-serif" font-size="14" lengthAdjust="spacing" textLength="56" x="623.31" y="1307.834">birthdate</text><text fill="#000000" font-family="sans-serif" font-size="14" lengthAdjust="spacing" textLength="38" x="623.31" y="1326.4551">salary</text></g><!--class Operation--><g id="elem_Operation"><rect codeLine="66" fill="#ADD8E6" height="111.1055" id="Operation" rx="2.5" ry="2.5" style="stroke:#181818;stroke-width:0.5;" width="103" x="233.31" y="995.6211"/><text fill="#000000" font-family="sans-serif" font-size="14" lengthAdjust="spacing" textLength="63" x="253.31" y="1015.7285">Operation</text><line style="stroke:#181818;stroke-width:0.5;" x1="234.31" x2="335.31" y1="1024.2422" y2="1024.2422"/><text fill="#000000" font-family="sans-serif" font-size="14" lengthAdjust="spacing" textLength="35" x="239.31" y="1043.3496">name</text><text fill="#000000" font-family="sans-serif" font-size="14" lengthAdjust="spacing" textLength="91" x="239.31" y="1061.9707">executionTime</text><text fill="#000000" font-family="sans-serif" font-size="14" lengthAdjust="spacing" textLength="38" x="239.31" y="1080.5918">status</text><text fill="#000000" font-family="sans-serif" font-size="14" lengthAdjust="spacing" textLength="27" x="239.31" y="1099.2129">type</text></g><!--class Station--><g id="elem_Station"><rect codeLine="73" fill="#ADD8E6" height="111.1055" id="Station" rx="2.5" ry="2.5" style="stroke:#181818;stroke-width:0.5;" width="64" x="658.81" y="217.6211"/><text fill="#000000" font-family="sans-serif" font-size="14" lengthAdjust="spacing" textLength="44" x="668.81" y="237.7285">Station</text><line style="stroke:#181818;stroke-width:0.5;" x1="659.81" x2="721.81" y1="246.2422" y2="246.2422"/><text fill="#000000" font-family="sans-serif" font-size="14" lengthAdjust="spacing" textLength="35" x="664.81" y="265.3496">name</text><text fill="#000000" font-family="sans-serif" font-size="14" lengthAdjust="spacing" textLength="52" x="664.81" y="283.9707">capacity</text><text fill="#000000" font-family="sans-serif" font-size="14" lengthAdjust="spacing" textLength="38" x="664.81" y="302.5918">status</text><text fill="#000000" font-family="sans-serif" font-size="14" lengthAdjust="spacing" textLength="27" x="664.81" y="321.2129">type</text></g><!--class Factory--><g id="elem_Factory"><rect codeLine="80" fill="#ADD8E6" height="92.4844" id="Factory" rx="2.5" ry="2.5" style="stroke:#181818;stroke-width:0.5;" width="67" x="657.31" y="46.6211"/><text fill="#000000" font-family="sans-serif" font-size="14" lengthAdjust="spacing" textLength="48" x="666.81" y="66.7285">Factory</text><line style="stroke:#181818;stroke-width:0.5;" x1="658.31" x2="723.31" y1="75.2422" y2="75.2422"/><text fill="#000000" font-family="sans-serif" font-size="14" lengthAdjust="spacing" textLength="35" x="663.31" y="94.3496">name</text><text fill="#000000" font-family="sans-serif" font-size="14" lengthAdjust="spacing" textLength="55" x="663.31" y="112.9707">specialty</text><text fill="#000000" font-family="sans-serif" font-size="14" lengthAdjust="spacing" textLength="51" x="663.31" y="131.5918">address</text></g><!--class Order--><g id="elem_Order"><rect codeLine="86" fill="#ADD8E6" height="73.8633" id="Order" rx="2.5" ry="2.5" style="stroke:#181818;stroke-width:0.5;" width="91" x="350.31" y="833.6211"/><text fill="#000000" font-family="sans-serif" font-size="14" lengthAdjust="spacing" textLength="37" x="377.31" y="853.7285">Order</text><line style="stroke:#181818;stroke-width:0.5;" x1="351.31" x2="440.31" y1="862.2422" y2="862.2422"/><text fill="#000000" font-family="sans-serif" font-size="14" lengthAdjust="spacing" textLength="64" x="356.31" y="881.3496">orderDate</text><text fill="#000000" font-family="sans-serif" font-size="14" lengthAdjust="spacing" textLength="79" x="356.31" y="899.9707">deliveryDate</text></g><!--class Client--><g id="elem_Client"><rect codeLine="92" fill="#ADD8E6" height="111.1055" id="Client" rx="2.5" ry="2.5" style="stroke:#181818;stroke-width:0.5;" width="101" x="357.31" y="634.6211"/><text fill="#000000" font-family="sans-serif" font-size="14" lengthAdjust="spacing" textLength="36" x="389.81" y="654.7285">Client</text><line style="stroke:#181818;stroke-width:0.5;" x1="358.31" x2="457.31" y1="663.2422" y2="663.2422"/><text fill="#000000" font-family="sans-serif" font-size="14" lengthAdjust="spacing" textLength="35" x="363.31" y="682.3496">name</text><text fill="#000000" font-family="sans-serif" font-size="14" lengthAdjust="spacing" textLength="21" x="363.31" y="700.9707">NIF</text><text fill="#000000" font-family="sans-serif" font-size="14" lengthAdjust="spacing" textLength="51" x="363.31" y="719.5918">address</text><text fill="#000000" font-family="sans-serif" font-size="14" lengthAdjust="spacing" textLength="89" x="363.31" y="738.2129">phoneNumber</text></g><!--link Administrator to SystemUsers--><g id="link_Administrator_SystemUsers"><path codeLine="99" d="M351.24,291.9311 C363.41,308.2011 379.93,333.4611 386.81,358.6211 C391.08,374.1911 391.35,391.1911 389.61,407.4211 " fill="none" id="Administrator-SystemUsers" style="stroke:#181818;stroke-width:1.0;"/><polygon fill="#000000" points="397.3865,373.0116,397.3236,363.5012,391.7456,365.3545,397.3865,373.0116" style="stroke:#000000;stroke-width:1.0;"/><text fill="#000000" font-family="sans-serif" font-size="13" lengthAdjust="spacing" textLength="21" x="404.81" y="373.6494">is a</text><text fill="#000000" font-family="sans-serif" font-size="13" lengthAdjust="spacing" textLength="20" x="332.4306" y="313.389">1..*</text><text fill="#000000" font-family="sans-serif" font-size="13" lengthAdjust="spacing" textLength="20" x="370.5747" y="396.3058">1..*</text></g><!--link Administrator to SystemUsers--><g id="link_Administrator_SystemUsers"><path codeLine="102" d="M325.92,291.6911 C314.53,312.2811 299.42,347.4111 307.81,377.6211 C310.61,387.6811 314.67,397.7311 319.41,407.4111 " fill="none" id="Administrator-SystemUsers-1" style="stroke:#181818;stroke-width:1.0;"/><polygon fill="#000000" points="312.5292,373.2587,315.9715,364.393,310.1029,364.0628,312.5292,373.2587" style="stroke:#000000;stroke-width:1.0;"/><text fill="#000000" font-family="sans-serif" font-size="13" lengthAdjust="spacing" textLength="56" x="321.81" y="373.6494">managing</text><text fill="#000000" font-family="sans-serif" font-size="13" lengthAdjust="spacing" textLength="20" x="300.0447" y="313.4271">1..*</text><text fill="#000000" font-family="sans-serif" font-size="13" lengthAdjust="spacing" textLength="20" x="293.4644" y="396.2949">1..*</text></g><!--link ProductManager to SystemUsers--><g id="link_ProductManager_SystemUsers"><path codeLine="100" d="M189.52,291.8611 C206.02,312.9011 234.87,348.7611 261.81,377.6211 C279.85,396.9411 300.66,417.2111 319.17,434.6111 " fill="none" id="ProductManager-SystemUsers" style="stroke:#181818;stroke-width:1.0;"/><polygon fill="#000000" points="270.1716,371.9679,266.266,363.2963,261.9148,367.2481,270.1716,371.9679" style="stroke:#000000;stroke-width:1.0;"/><text fill="#000000" font-family="sans-serif" font-size="13" lengthAdjust="spacing" textLength="21" x="275.81" y="373.6494">is a</text><text fill="#000000" font-family="sans-serif" font-size="13" lengthAdjust="spacing" textLength="20" x="170.5171" y="313.3002">1..*</text><text fill="#000000" font-family="sans-serif" font-size="13" lengthAdjust="spacing" textLength="20" x="291.4005" y="424.5236">1..*</text></g><!--link PlantFloorManager to SystemUsers--><g id="link_PlantFloorManager_SystemUsers"><path codeLine="101" d="M517.09,291.7311 C495.87,318.9411 454.05,372.5811 420.37,415.7711 " fill="none" id="PlantFloorManager-SystemUsers" style="stroke:#181818;stroke-width:1.0;"/><polygon fill="#000000" points="466.7355,372.2096,474.615,366.8838,469.9797,363.2695,466.7355,372.2096" style="stroke:#000000;stroke-width:1.0;"/><text fill="#000000" font-family="sans-serif" font-size="13" lengthAdjust="spacing" textLength="21" x="478.81" y="373.6494">is a</text><text fill="#000000" font-family="sans-serif" font-size="13" lengthAdjust="spacing" textLength="20" x="490.7152" y="313.1352">1..*</text><text fill="#000000" font-family="sans-serif" font-size="13" lengthAdjust="spacing" textLength="20" x="428.1293" y="403.2697">1..*</text></g><!--link PlantFloorManager to ProductionLine--><g id="link_PlantFloorManager_ProductionLine"><path codeLine="103" d="M534.82,291.7311 C543.7,330.7411 564.95,424.0911 573.82,463.0611 " fill="none" id="PlantFloorManager-ProductionLine" style="stroke:#181818;stroke-width:1.0;"/><polygon fill="#000000" points="560.9198,373.1419,561.7778,363.6701,556.0466,364.9747,560.9198,373.1419" style="stroke:#000000;stroke-width:1.0;"/><text fill="#000000" font-family="sans-serif" font-size="13" lengthAdjust="spacing" textLength="58" x="568.81" y="373.6494">specifying</text><text fill="#000000" font-family="sans-serif" font-size="13" lengthAdjust="spacing" textLength="20" x="513.2102" y="313.1352">1..*</text><text fill="#000000" font-family="sans-serif" font-size="13" lengthAdjust="spacing" textLength="20" x="549.5356" y="451.9049">1..*</text></g><!--link ProductionLine to Machine--><g id="link_ProductionLine_Machine"><path codeLine="104" d="M575.81,500.2711 C571.94,535.9111 563.81,619.0511 563.81,689.1211 C563.81,689.1211 563.81,689.1211 563.81,1260.6211 C563.81,1313.5011 563.81,1374.7311 563.81,1412.5811 " fill="none" id="ProductionLine-Machine" style="stroke:#181818;stroke-width:1.0;"/><polygon fill="#000000" points="568.7442,961.2662,571.8019,952.2605,565.9245,952.1832,568.7442,961.2662" style="stroke:#000000;stroke-width:1.0;"/><text fill="#000000" font-family="sans-serif" font-size="13" lengthAdjust="spacing" textLength="21" x="577.81" y="961.6494">has</text><text fill="#000000" font-family="sans-serif" font-size="13" lengthAdjust="spacing" textLength="7" x="567.3319" y="521.686">1</text><text fill="#000000" font-family="sans-serif" font-size="13" lengthAdjust="spacing" textLength="20" x="541.9663" y="1401.2524">1..*</text></g><!--link ProductManager to Product--><g id="link_ProductManager_Product"><path codeLine="105" d="M161.1,291.8811 C148.69,308.1111 131.84,333.3611 124.81,358.6211 C117.85,383.6411 121.94,412.2611 128.18,435.4911 " fill="none" id="ProductManager-Product" style="stroke:#181818;stroke-width:1.0;"/><polygon fill="#000000" points="128.6928,373.1402,133.5784,364.9804,127.8492,363.6671,128.6928,373.1402" style="stroke:#000000;stroke-width:1.0;"/><text fill="#000000" font-family="sans-serif" font-size="13" lengthAdjust="spacing" textLength="56" x="138.81" y="373.6494">controling</text><text fill="#000000" font-family="sans-serif" font-size="13" lengthAdjust="spacing" textLength="20" x="134.4592" y="313.3256">1..*</text><text fill="#000000" font-family="sans-serif" font-size="13" lengthAdjust="spacing" textLength="20" x="104.2687" y="424.4814">1..*</text></g><!--link Component to RawMaterial--><g id="link_Component_RawMaterial"><path codeLine="106" d="M154.91,736.1611 C160.97,763.2211 168.66,797.5311 174.72,824.5911 " fill="none" id="Component-RawMaterial" style="stroke:#181818;stroke-width:1.0;"/><polygon fill="#000000" points="173.903,790.1457,174.7936,780.6769,169.0579,781.9618,173.903,790.1457" style="stroke:#000000;stroke-width:1.0;"/><text fill="#000000" font-family="sans-serif" font-size="13" lengthAdjust="spacing" textLength="46" x="181.81" y="790.6494">made of</text><text fill="#000000" font-family="sans-serif" font-size="13" lengthAdjust="spacing" textLength="20" x="134.9253" y="758.526">1..*</text><text fill="#000000" font-family="sans-serif" font-size="13" lengthAdjust="spacing" textLength="20" x="151.6437" y="813.2547">1..*</text></g><!--link Product to Component--><g id="link_Product_Component"><path codeLine="107" d="M144.81,527.6811 C144.81,562.1011 144.81,609.3211 144.81,643.8011 " fill="none" id="Product-Component" style="stroke:#181818;stroke-width:1.0;"/><polygon fill="#000000" points="149.81,600.2666,152.7489,591.2215,146.8711,591.2215,149.81,600.2666" style="stroke:#000000;stroke-width:1.0;"/><text fill="#000000" font-family="sans-serif" font-size="13" lengthAdjust="spacing" textLength="60" x="158.81" y="600.6494">is made of</text><text fill="#000000" font-family="sans-serif" font-size="13" lengthAdjust="spacing" textLength="20" x="123.2788" y="550.0491">1..*</text><text fill="#000000" font-family="sans-serif" font-size="13" lengthAdjust="spacing" textLength="20" x="123.3413" y="632.7635">1..*</text></g><!--link Component to Operation--><g id="link_Component_Operation"><path codeLine="108" d="M104.31,730.2911 C61.84,776.3111 6,854.2711 42.81,916.6211 C83.8,986.0411 175.21,1021.8411 233.21,1038.2511 " fill="none" id="Component-Operation" style="stroke:#181818;stroke-width:1.0;"/><polygon fill="#000000" points="49.7405,875.3789,48.9592,865.9005,43.5371,868.1699,49.7405,875.3789" style="stroke:#000000;stroke-width:1.0;"/><text fill="#000000" font-family="sans-serif" font-size="13" lengthAdjust="spacing" textLength="68" x="56.81" y="876.1494">is related to</text><text fill="#000000" font-family="sans-serif" font-size="13" lengthAdjust="spacing" textLength="7" x="89.1975" y="733.1407">1</text><text fill="#000000" font-family="sans-serif" font-size="13" lengthAdjust="spacing" textLength="20" x="205.3175" y="1051.7314">1..*</text></g><!--link RawMaterial to Operation--><g id="link_RawMaterial_Operation"><path codeLine="109" d="M170.9,916.9211 C168.39,932.9811 168.53,950.7511 175.81,965.6211 C187.93,990.3511 211.16,1009.9111 233.07,1023.9611 " fill="none" id="RawMaterial-Operation" style="stroke:#181818;stroke-width:1.0;"/><polygon fill="#000000" points="183.3212,960.5902,181.3198,951.2927,176.237,954.2448,183.3212,960.5902" style="stroke:#000000;stroke-width:1.0;"/><text fill="#000000" font-family="sans-serif" font-size="13" lengthAdjust="spacing" textLength="68" x="189.81" y="961.6494">is related to</text><text fill="#000000" font-family="sans-serif" font-size="13" lengthAdjust="spacing" textLength="7" x="161.3429" y="938.984">1</text><text fill="#000000" font-family="sans-serif" font-size="13" lengthAdjust="spacing" textLength="20" x="205.1596" y="1016.4324">1..*</text></g><!--link Product to Operation--><g id="link_Product_Operation"><path codeLine="110" d="M190.18,527.7011 C204.54,544.5311 218.96,564.6811 227.81,585.6211 C286.53,724.4311 290.08,905.9611 287.59,995.4211 " fill="none" id="Product-Operation" style="stroke:#181818;stroke-width:1.0;"/><polygon fill="#000000" points="285.8295,790.1616,286.8624,780.7073,281.1081,781.9057,285.8295,790.1616" style="stroke:#000000;stroke-width:1.0;"/><text fill="#000000" font-family="sans-serif" font-size="13" lengthAdjust="spacing" textLength="68" x="293.81" y="790.6494">is related to</text><text fill="#000000" font-family="sans-serif" font-size="13" lengthAdjust="spacing" textLength="7" x="189.5913" y="550.0722">1</text><text fill="#000000" font-family="sans-serif" font-size="13" lengthAdjust="spacing" textLength="20" x="266.6649" y="984.2357">1..*</text></g><!--link Order to Operation--><g id="link_Order_Operation"><path codeLine="111" d="M373.35,907.7411 C357.7,932.9011 336.55,966.9211 318.84,995.4011 " fill="none" id="Order-Operation" style="stroke:#181818;stroke-width:1.0;"/><polygon fill="#000000" points="350.1697,960.5126,357.4418,954.3834,352.4503,951.2796,350.1697,960.5126" style="stroke:#000000;stroke-width:1.0;"/><text fill="#000000" font-family="sans-serif" font-size="13" lengthAdjust="spacing" textLength="21" x="361.81" y="961.6494">has</text><text fill="#000000" font-family="sans-serif" font-size="13" lengthAdjust="spacing" textLength="7" x="361.8881" y="929.6471">1</text><text fill="#000000" font-family="sans-serif" font-size="13" lengthAdjust="spacing" textLength="20" x="301.9188" y="984.2131">1..*</text></g><!--link Client to Order--><g id="link_Client_Order"><path codeLine="113" d="M404.15,745.6511 C402.23,774.1511 399.94,808.2511 398.24,833.4611 " fill="none" id="Client-Order" style="stroke:#181818;stroke-width:1.0;"/><polygon fill="#000000" points="406.4742,790.2553,410.0139,781.428,404.1493,781.0333,406.4742,790.2553" style="stroke:#000000;stroke-width:1.0;"/><text fill="#000000" font-family="sans-serif" font-size="13" lengthAdjust="spacing" textLength="38" x="415.81" y="790.6494">places</text><text fill="#000000" font-family="sans-serif" font-size="13" lengthAdjust="spacing" textLength="7" x="396.2326" y="767.8951">1</text><text fill="#000000" font-family="sans-serif" font-size="13" lengthAdjust="spacing" textLength="20" x="376.8916" y="822.3943">1..*</text></g><!--link ExecutionTime to Machine--><g id="link_ExecutionTime_Machine"><path codeLine="114" d="M423.52,1287.2511 C443.18,1312.2811 473.82,1350.5711 501.81,1382.6211 C510.4,1392.4511 519.93,1402.8411 528.9,1412.4011 " fill="none" id="ExecutionTime-Machine" style="stroke:#181818;stroke-width:1.0;"/><polygon fill="#000000" points="510.0305,1377.0913,506.4527,1368.2794,501.9565,1372.0653,510.0305,1377.0913" style="stroke:#000000;stroke-width:1.0;"/><text fill="#000000" font-family="sans-serif" font-size="13" lengthAdjust="spacing" textLength="21" x="515.81" y="1378.6494">has</text><text fill="#000000" font-family="sans-serif" font-size="13" lengthAdjust="spacing" textLength="20" x="405.8628" y="1309.1882">1..*</text><text fill="#000000" font-family="sans-serif" font-size="13" lengthAdjust="spacing" textLength="20" x="500.9004" y="1401.3236">1..*</text></g><!--link Operation to ExecutionTime--><g id="link_Operation_ExecutionTime"><path codeLine="115" d="M315.97,1106.6511 C339.05,1147.0311 369.5,1200.3311 387.54,1231.8911 " fill="none" id="Operation-ExecutionTime" style="stroke:#181818;stroke-width:1.0;"/><polygon fill="#000000" points="351.2908,1150.6078,349.3547,1141.2964,344.2513,1144.2127,351.2908,1150.6078" style="stroke:#000000;stroke-width:1.0;"/><text fill="#000000" font-family="sans-serif" font-size="13" lengthAdjust="spacing" textLength="21" x="357.81" y="1151.6494">has</text><text fill="#000000" font-family="sans-serif" font-size="13" lengthAdjust="spacing" textLength="20" x="298.6811" y="1128.8951">1..*</text><text fill="#000000" font-family="sans-serif" font-size="13" lengthAdjust="spacing" textLength="20" x="362.0122" y="1220.9994">1..*</text></g><!--link Employee to Machine--><g id="link_Employee_Machine"><path codeLine="116" d="M627.31,1333.8411 C612.36,1360.8611 596.09,1390.2811 583.76,1412.5711 " fill="none" id="Employee-Machine" style="stroke:#181818;stroke-width:1.0;"/><polygon fill="#000000" points="617.2302,1368.8914,610.2803,1375.3837,615.4237,1378.2288,617.2302,1368.8914" style="stroke:#000000;stroke-width:1.0;"/><text fill="#000000" font-family="sans-serif" font-size="13" lengthAdjust="spacing" textLength="82" x="623.81" y="1378.6494">is operated by</text><text fill="#000000" font-family="sans-serif" font-size="13" lengthAdjust="spacing" textLength="20" x="602.3389" y="1356.0094">1..*</text><text fill="#000000" font-family="sans-serif" font-size="13" lengthAdjust="spacing" textLength="20" x="565.5945" y="1401.2406">1..*</text></g><!--link Station to ProductionLine--><g id="link_Station_ProductionLine"><path codeLine="117" d="M662.09,328.7711 C653.7,344.5811 644.46,361.8211 635.81,377.6211 C619.36,407.6911 599.69,442.3611 588,462.8311 " fill="none" id="Station-ProductionLine" style="stroke:#181818;stroke-width:1.0;"/><polygon fill="#000000" points="648.3915,372.6428,655.3389,366.1478,650.1944,363.3046,648.3915,372.6428" style="stroke:#000000;stroke-width:1.0;"/><text fill="#000000" font-family="sans-serif" font-size="13" lengthAdjust="spacing" textLength="21" x="659.81" y="373.6494">has</text><text fill="#000000" font-family="sans-serif" font-size="13" lengthAdjust="spacing" textLength="7" x="651.1632" y="350.629">1</text><text fill="#000000" font-family="sans-serif" font-size="13" lengthAdjust="spacing" textLength="20" x="593.9308" y="451.9414">1..*</text></g><!--link Factory to Station--><g id="link_Factory_Station"><path codeLine="118" d="M690.81,138.6611 C690.81,162.6211 690.81,192.2711 690.81,217.5311 " fill="none" id="Factory-Station" style="stroke:#181818;stroke-width:1.0;"/><polygon fill="#000000" points="695.81,183.2666,698.7489,174.2215,692.8711,174.2215,695.81,183.2666" style="stroke:#000000;stroke-width:1.0;"/><text fill="#000000" font-family="sans-serif" font-size="13" lengthAdjust="spacing" textLength="21" x="704.81" y="183.6494">has</text><text fill="#000000" font-family="sans-serif" font-size="13" lengthAdjust="spacing" textLength="7" x="683.2741" y="161.026">1</text><text fill="#000000" font-family="sans-serif" font-size="13" lengthAdjust="spacing" textLength="20" x="669.5288" y="206.3598">1..*</text></g><!--SRC=[bLJRRXCn47ttLrZmK41g1Iy8HQXIQLgf4YaLWG-Os9EigTUps5x2Kl4rV0e_ngntDtj9MzAyn5xFEMTynZFXrhW2FEHIMGZX0wZRZQVIwNEovENpi_dytSLR4NPX1KV01fUniYWzgWXkOt4G43BGj3Lk8zTWm_0aAPp5wCsgZ7Ybo2tDBvIlHMOqIcMyOgAqpZ5cf8CuihYECfBqPfD5gKqjQCW94Kra_HjFt_YBd5CEnia5QRH299twJ9Sf-gDnU2V4x_RWJEV6cH0zHFA3xyigHCo_1lJXJaZ-CQTDYuAFj-HrsZZ8CIskhoxJFsYF8JI16JcyBlCL-XtjZGKNBosHNu1ZvuQIROxx1nS_KPLrxbzCZaqsEFoq2_mCsmL4z0Qil1ldfp4eRuhaLxqFaTGj0yVQKrGJrLpVbMjGiVHSp3cBzDXpoWk-gOjFr5o0ohWOilCtxQuQNmlQ9jSw1_B2KeKuLUXTlz_sUhyoFcQwpZZb01PyrJD_Af1BpnbEgSSED-b3B1kDM1K30vRnNWO5t1ucLe-3BzbKyjMUymKgBcEBxkxNf-qr-XPJDBLx4LwcBTL7y-w-t0Fc1_fgKZ9hxgdN_zna-AXTdhqvENdrJ1uVotOrQ9gPD462F1NZLtqOPDea1w6Ua5fUqzP3wH2jyUYODPLPLoryTCYG8R9zu3EPGTXpGZuaD9Cy2wCdsoZqtRK76BHxVISUbRJkTVRZUwfaMeyOQWm1VNCaW4VBSheUmQTYE6iEH_Mv7OfeNlh3yOstH_ogIww_9lczHEd-_Y7kO5FNNA9JbAFJ76Ws9PWWskS_8Kr2CrbOK5XpZiRklflT-EfIw9FQ2nqpTO3TK7k4cjsWnCjsh2hvNdIpPfpxv1bs2jri6GTt55tKFm00]--></g></svg>