<svg xmlns="http://www.w3.org/2000/svg" xmlns:xlink="http://www.w3.org/1999/xlink" contentStyleType="text/css" height="1096px" preserveAspectRatio="none" style="width:958px;height:1096px;background:#FFFFFF;" version="1.1" viewBox="0 0 958 1096" width="958px" zoomAndPan="magnify"><title>Project Domain Model</title><defs/><g><text fill="#000000" font-family="sans-serif" font-size="14" font-weight="bold" lengthAdjust="spacing" textLength="147.0205" x="398.7261" y="25.1074">Project Domain Model</text><!--class ProductionLine--><g id="elem_ProductionLine"><rect codeLine="11" fill="#ADD8E6" height="36.6211" id="ProductionLine" rx="2.5" ry="2.5" style="stroke:#181818;stroke-width:0.5;" width="99.3994" x="145" y="473.1211"/><text fill="#000000" font-family="sans-serif" font-size="14" lengthAdjust="spacing" textLength="93.3994" x="148" y="493.2285">ProductionLine</text><line style="stroke:#181818;stroke-width:0.5;" x1="146" x2="243.3994" y1="501.7422" y2="501.7422"/></g><!--class Administrator--><g id="elem_Administrator"><rect codeLine="14" fill="#ADD8E6" height="36.6211" id="Administrator" rx="2.5" ry="2.5" style="stroke:#181818;stroke-width:0.5;" width="88.4688" x="577.5" y="273.6211"/><text fill="#000000" font-family="sans-serif" font-size="14" lengthAdjust="spacing" textLength="82.4688" x="580.5" y="293.7285">Administrator</text><line style="stroke:#181818;stroke-width:0.5;" x1="578.5" x2="664.9688" y1="302.2422" y2="302.2422"/></g><!--class SystemUsers--><g id="elem_SystemUsers"><rect codeLine="17" fill="#ADD8E6" height="129.7266" id="SystemUsers" rx="2.5" ry="2.5" style="stroke:#181818;stroke-width:0.5;" width="100.7236" x="555" y="426.6211"/><text fill="#000000" font-family="sans-serif" font-size="14" lengthAdjust="spacing" textLength="83.2344" x="563.7446" y="446.7285">SystemUsers</text><line style="stroke:#181818;stroke-width:0.5;" x1="556" x2="654.7236" y1="455.2422" y2="455.2422"/><text fill="#000000" font-family="sans-serif" font-size="14" lengthAdjust="spacing" textLength="25.6689" x="561" y="474.3496">mail</text><text fill="#000000" font-family="sans-serif" font-size="14" lengthAdjust="spacing" textLength="59.917" x="561" y="492.9707">password</text><text fill="#000000" font-family="sans-serif" font-size="14" lengthAdjust="spacing" textLength="35.0205" x="561" y="511.5918">name</text><text fill="#000000" font-family="sans-serif" font-size="14" lengthAdjust="spacing" textLength="22.5518" x="561" y="530.2129">NIF</text><text fill="#000000" font-family="sans-serif" font-size="14" lengthAdjust="spacing" textLength="88.7236" x="561" y="548.834">phoneNumber</text></g><!--class PlantFloorManager--><g id="elem_PlantFloorManager"><rect codeLine="24" fill="#ADD8E6" height="36.6211" id="PlantFloorManager" rx="2.5" ry="2.5" style="stroke:#181818;stroke-width:0.5;" width="125.0615" x="229" y="273.6211"/><text fill="#000000" font-family="sans-serif" font-size="14" lengthAdjust="spacing" textLength="119.0615" x="232" y="293.7285">PlantFloorManager</text><line style="stroke:#181818;stroke-width:0.5;" x1="230" x2="353.0615" y1="302.2422" y2="302.2422"/></g><!--class ProductionManager--><g id="elem_ProductionManager"><rect codeLine="27" fill="#ADD8E6" height="36.6211" id="ProductionManager" rx="2.5" ry="2.5" style="stroke:#181818;stroke-width:0.5;" width="128.1855" x="794.5" y="273.6211"/><text fill="#000000" font-family="sans-serif" font-size="14" lengthAdjust="spacing" textLength="122.1855" x="797.5" y="293.7285">ProductionManager</text><line style="stroke:#181818;stroke-width:0.5;" x1="795.5" x2="921.6855" y1="302.2422" y2="302.2422"/></g><!--class RawMaterial--><g id="elem_RawMaterial"><rect codeLine="31" fill="#ADD8E6" height="92.4844" id="RawMaterial" rx="2.5" ry="2.5" style="stroke:#181818;stroke-width:0.5;" width="83.7998" x="555.5" y="996.6211"/><text fill="#000000" font-family="sans-serif" font-size="14" lengthAdjust="spacing" textLength="77.7998" x="558.5" y="1016.7285">RawMaterial</text><line style="stroke:#181818;stroke-width:0.5;" x1="556.5" x2="638.2998" y1="1025.2422" y2="1025.2422"/><text fill="#000000" font-family="sans-serif" font-size="14" lengthAdjust="spacing" textLength="35.0205" x="561.5" y="1044.3496">name</text><text fill="#000000" font-family="sans-serif" font-size="14" lengthAdjust="spacing" textLength="67.7031" x="561.5" y="1062.9707">description</text><text fill="#000000" font-family="sans-serif" font-size="14" lengthAdjust="spacing" textLength="32.6758" x="561.5" y="1081.5918">stock</text></g><!--class Product--><g id="elem_Product"><rect codeLine="37" fill="#ADD8E6" height="129.7266" id="Product" rx="2.5" ry="2.5" style="stroke:#181818;stroke-width:0.5;" width="130.2891" x="810.5" y="426.6211"/><text fill="#000000" font-family="sans-serif" font-size="14" lengthAdjust="spacing" textLength="48.248" x="851.5205" y="446.7285">Product</text><line style="stroke:#181818;stroke-width:0.5;" x1="811.5" x2="939.7891" y1="455.2422" y2="455.2422"/><text fill="#000000" font-family="sans-serif" font-size="14" lengthAdjust="spacing" textLength="35.0205" x="816.5" y="474.3496">name</text><text fill="#000000" font-family="sans-serif" font-size="14" lengthAdjust="spacing" textLength="32.6758" x="816.5" y="492.9707">stock</text><text fill="#000000" font-family="sans-serif" font-size="14" lengthAdjust="spacing" textLength="118.2891" x="816.5" y="511.5918">manufacturingDate</text><text fill="#000000" font-family="sans-serif" font-size="14" lengthAdjust="spacing" textLength="24.8965" x="816.5" y="530.2129">size</text><text fill="#000000" font-family="sans-serif" font-size="14" lengthAdjust="spacing" textLength="38.1309" x="816.5" y="548.834">colour</text></g><!--class Component--><g id="elem_Component"><rect codeLine="45" fill="#ADD8E6" height="92.4844" id="Component" rx="2.5" ry="2.5" style="stroke:#181818;stroke-width:0.5;" width="79.7031" x="557.5" y="825.6211"/><text fill="#000000" font-family="sans-serif" font-size="14" lengthAdjust="spacing" textLength="72.3789" x="561.1621" y="845.7285">Component</text><line style="stroke:#181818;stroke-width:0.5;" x1="558.5" x2="636.2031" y1="854.2422" y2="854.2422"/><text fill="#000000" font-family="sans-serif" font-size="14" lengthAdjust="spacing" textLength="35.0205" x="563.5" y="873.3496">name</text><text fill="#000000" font-family="sans-serif" font-size="14" lengthAdjust="spacing" textLength="67.7031" x="563.5" y="891.9707">description</text><text fill="#000000" font-family="sans-serif" font-size="14" lengthAdjust="spacing" textLength="32.6758" x="563.5" y="910.5918">stock</text></g><!--class Machine--><g id="elem_Machine"><rect codeLine="51" fill="#ADD8E6" height="73.8633" id="Machine" rx="2.5" ry="2.5" style="stroke:#181818;stroke-width:0.5;" width="103.041" x="7" y="454.6211"/><text fill="#000000" font-family="sans-serif" font-size="14" lengthAdjust="spacing" textLength="52.917" x="32.062" y="474.7285">Machine</text><line style="stroke:#181818;stroke-width:0.5;" x1="8" x2="109.041" y1="483.2422" y2="483.2422"/><text fill="#000000" font-family="sans-serif" font-size="14" lengthAdjust="spacing" textLength="10.8965" x="13" y="502.3496">id</text><text fill="#000000" font-family="sans-serif" font-size="14" lengthAdjust="spacing" textLength="91.041" x="13" y="520.9707">executionTime</text></g><!--class Employee--><g id="elem_Employee"><rect codeLine="56" fill="#ADD8E6" height="111.1055" id="Employee" rx="2.5" ry="2.5" style="stroke:#181818;stroke-width:0.5;" width="100.7236" x="382" y="46.6211"/><text fill="#000000" font-family="sans-serif" font-size="14" lengthAdjust="spacing" textLength="62.2549" x="401.2344" y="66.7285">Employee</text><line style="stroke:#181818;stroke-width:0.5;" x1="383" x2="481.7236" y1="75.2422" y2="75.2422"/><text fill="#000000" font-family="sans-serif" font-size="14" lengthAdjust="spacing" textLength="35.0205" x="388" y="94.3496">name</text><text fill="#000000" font-family="sans-serif" font-size="14" lengthAdjust="spacing" textLength="22.5518" x="388" y="112.9707">NIF</text><text fill="#000000" font-family="sans-serif" font-size="14" lengthAdjust="spacing" textLength="88.7236" x="388" y="131.5918">phoneNumber</text><text fill="#000000" font-family="sans-serif" font-size="14" lengthAdjust="spacing" textLength="54.4824" x="388" y="150.2129">birthdate</text></g><!--class Operation--><g id="elem_Operation"><rect codeLine="63" fill="#ADD8E6" height="111.1055" id="Operation" rx="2.5" ry="2.5" style="stroke:#181818;stroke-width:0.5;" width="103.041" x="179" y="635.6211"/><text fill="#000000" font-family="sans-serif" font-size="14" lengthAdjust="spacing" textLength="61.4824" x="199.7793" y="655.7285">Operation</text><line style="stroke:#181818;stroke-width:0.5;" x1="180" x2="281.041" y1="664.2422" y2="664.2422"/><text fill="#000000" font-family="sans-serif" font-size="14" lengthAdjust="spacing" textLength="35.0205" x="185" y="683.3496">name</text><text fill="#000000" font-family="sans-serif" font-size="14" lengthAdjust="spacing" textLength="91.041" x="185" y="701.9707">executionTime</text><text fill="#000000" font-family="sans-serif" font-size="14" lengthAdjust="spacing" textLength="37.3516" x="185" y="720.5918">status</text><text fill="#000000" font-family="sans-serif" font-size="14" lengthAdjust="spacing" textLength="26.4619" x="185" y="739.2129">type</text></g><!--class Workstation--><g id="elem_Workstation"><rect codeLine="70" fill="#ADD8E6" height="111.1055" id="Workstation" rx="2.5" ry="2.5" style="stroke:#181818;stroke-width:0.5;" width="79.9102" x="98.5" y="236.6211"/><text fill="#000000" font-family="sans-serif" font-size="14" lengthAdjust="spacing" textLength="73.9102" x="101.5" y="256.7285">Workstation</text><line style="stroke:#181818;stroke-width:0.5;" x1="99.5" x2="177.4102" y1="265.2422" y2="265.2422"/><text fill="#000000" font-family="sans-serif" font-size="14" lengthAdjust="spacing" textLength="35.0205" x="104.5" y="284.3496">name</text><text fill="#000000" font-family="sans-serif" font-size="14" lengthAdjust="spacing" textLength="51.3584" x="104.5" y="302.9707">capacity</text><text fill="#000000" font-family="sans-serif" font-size="14" lengthAdjust="spacing" textLength="37.3516" x="104.5" y="321.5918">status</text><text fill="#000000" font-family="sans-serif" font-size="14" lengthAdjust="spacing" textLength="26.4619" x="104.5" y="340.2129">type</text></g><!--class Order--><g id="elem_Order"><rect codeLine="82" fill="#ADD8E6" height="73.8633" id="Order" rx="2.5" ry="2.5" style="stroke:#181818;stroke-width:0.5;" width="89.8135" x="289.5" y="454.6211"/><text fill="#000000" font-family="sans-serif" font-size="14" lengthAdjust="spacing" textLength="35.7861" x="316.5137" y="474.7285">Order</text><line style="stroke:#181818;stroke-width:0.5;" x1="290.5" x2="378.3135" y1="483.2422" y2="483.2422"/><text fill="#000000" font-family="sans-serif" font-size="14" lengthAdjust="spacing" textLength="62.2549" x="295.5" y="502.3496">orderDate</text><text fill="#000000" font-family="sans-serif" font-size="14" lengthAdjust="spacing" textLength="77.8135" x="295.5" y="520.9707">deliveryDate</text></g><!--class Client--><g id="elem_Client"><rect codeLine="88" fill="#ADD8E6" height="92.4844" id="Client" rx="2.5" ry="2.5" style="stroke:#181818;stroke-width:0.5;" width="100.7236" x="419" y="246.1211"/><text fill="#000000" font-family="sans-serif" font-size="14" lengthAdjust="spacing" textLength="35.793" x="451.4653" y="266.2285">Client</text><line style="stroke:#181818;stroke-width:0.5;" x1="420" x2="518.7236" y1="274.7422" y2="274.7422"/><text fill="#000000" font-family="sans-serif" font-size="14" lengthAdjust="spacing" textLength="35.0205" x="425" y="293.8496">name</text><text fill="#000000" font-family="sans-serif" font-size="14" lengthAdjust="spacing" textLength="22.5518" x="425" y="312.4707">NIF</text><text fill="#000000" font-family="sans-serif" font-size="14" lengthAdjust="spacing" textLength="88.7236" x="425" y="331.0918">phoneNumber</text></g><!--class Address--><g id="elem_Address"><rect codeLine="94" fill="#ADD8E6" height="92.4844" id="Address" rx="2.5" ry="2.5" style="stroke:#181818;stroke-width:0.5;" width="60.2549" x="500.5" y="645.1211"/><text fill="#000000" font-family="sans-serif" font-size="14" lengthAdjust="spacing" textLength="51.3584" x="504.9482" y="665.2285">Address</text><line style="stroke:#181818;stroke-width:0.5;" x1="501.5" x2="559.7549" y1="673.7422" y2="673.7422"/><text fill="#000000" font-family="sans-serif" font-size="14" lengthAdjust="spacing" textLength="35.0137" x="506.5" y="692.8496">street</text><text fill="#000000" font-family="sans-serif" font-size="14" lengthAdjust="spacing" textLength="21" x="506.5" y="711.4707">city</text><text fill="#000000" font-family="sans-serif" font-size="14" lengthAdjust="spacing" textLength="48.2549" x="506.5" y="730.0918">zipcode</text></g><!--class ProductFamily--><g id="elem_ProductFamily"><rect codeLine="100" fill="#ADD8E6" height="36.6211" id="ProductFamily" rx="2.5" ry="2.5" style="stroke:#181818;stroke-width:0.5;" width="95.4688" x="723" y="672.6211"/><text fill="#000000" font-family="sans-serif" font-size="14" lengthAdjust="spacing" textLength="89.4688" x="726" y="692.7285">ProductFamily</text><line style="stroke:#181818;stroke-width:0.5;" x1="724" x2="817.4688" y1="701.2422" y2="701.2422"/></g><!--link Administrator to SystemUsers--><g id="link_Administrator_SystemUsers"><path codeLine="104" d="M620.08,310.6511 C617.99,336.4211 613.99,385.8811 610.7,426.4311 " fill="none" id="Administrator-SystemUsers" style="stroke:#181818;stroke-width:1.0;"/><polygon fill="#000000" points="618.0962,392.2503,621.756,383.472,615.8973,382.9974,618.0962,392.2503" style="stroke:#000000;stroke-width:1.0;"/><text fill="#000000" font-family="sans-serif" font-size="13" lengthAdjust="spacing" textLength="20.23" x="627.5" y="392.6494">is a</text><text fill="#000000" font-family="sans-serif" font-size="13" lengthAdjust="spacing" textLength="7.23" x="611.6627" y="332.3758">1</text><text fill="#000000" font-family="sans-serif" font-size="13" lengthAdjust="spacing" textLength="7.23" x="603.9136" y="415.4304">1</text></g><!--link Administrator to SystemUsers--><g id="link_Administrator_SystemUsers"><path codeLine="107" d="M595.09,310.7411 C575.07,325.8211 549.09,349.5111 537.5,377.6211 C527.94,400.8011 539,424.8211 554.79,444.7311 " fill="none" id="Administrator-SystemUsers-1" style="stroke:#181818;stroke-width:1.0;"/><polygon fill="#000000" points="541.0599,392.0547,546.4795,384.2394,540.8507,382.5465,541.0599,392.0547" style="stroke:#000000;stroke-width:1.0;"/><text fill="#000000" font-family="sans-serif" font-size="13" lengthAdjust="spacing" textLength="53.479" x="551.5" y="392.6494">manages</text><text fill="#000000" font-family="sans-serif" font-size="13" lengthAdjust="spacing" textLength="19.5127" x="566.4451" y="332.1479">1..*</text><text fill="#000000" font-family="sans-serif" font-size="13" lengthAdjust="spacing" textLength="19.5127" x="527.3784" y="434.0099">1..*</text></g><!--link ProductionManager to SystemUsers--><g id="link_ProductionManager_SystemUsers"><path codeLine="105" d="M844.66,310.6311 C826.9,332.4211 794.43,369.9811 761.5,396.6211 C728.8,423.0711 687.97,447.4011 656.29,464.6911 " fill="none" id="ProductionManager-SystemUsers" style="stroke:#181818;stroke-width:1.0;"/><polygon fill="#000000" points="782.6296,390.432,791.4918,386.9807,787.7706,382.4307,782.6296,390.432" style="stroke:#000000;stroke-width:1.0;"/><text fill="#000000" font-family="sans-serif" font-size="13" lengthAdjust="spacing" textLength="20.23" x="795.5" y="392.6494">is a</text><text fill="#000000" font-family="sans-serif" font-size="13" lengthAdjust="spacing" textLength="7.23" x="832.7894" y="332.3502">1</text><text fill="#000000" font-family="sans-serif" font-size="13" lengthAdjust="spacing" textLength="7.23" x="663.6192" y="456.9964">1</text></g><!--link PlantFloorManager to SystemUsers--><g id="link_PlantFloorManager_SystemUsers"><path codeLine="106" d="M327.02,310.7711 C374.22,334.7611 459.55,380.0411 527.5,426.6211 C536.6,432.8611 545.95,439.9011 554.87,446.9811 " fill="none" id="PlantFloorManager-SystemUsers" style="stroke:#181818;stroke-width:1.0;"/><polygon fill="#000000" points="486.7916,389.8322,480.536,382.6685,477.52,387.7136,486.7916,389.8322" style="stroke:#000000;stroke-width:1.0;"/><text fill="#000000" font-family="sans-serif" font-size="13" lengthAdjust="spacing" textLength="20.23" x="491.5" y="392.6494">is a</text><text fill="#000000" font-family="sans-serif" font-size="13" lengthAdjust="spacing" textLength="7.23" x="328.648" y="332.186">1</text><text fill="#000000" font-family="sans-serif" font-size="13" lengthAdjust="spacing" textLength="7.23" x="539.6201" y="455.5187">1</text></g><!--link PlantFloorManager to ProductionLine--><g id="link_PlantFloorManager_ProductionLine"><path codeLine="108" d="M274.58,310.8611 C259.95,327.0811 239.22,352.3211 226.5,377.6211 C210.56,409.3211 201.51,450.1311 197.34,473.0211 " fill="none" id="PlantFloorManager-ProductionLine" style="stroke:#181818;stroke-width:1.0;"/><polygon fill="#000000" points="229.3499,391.7807,235.8928,384.8785,230.5862,382.3508,229.3499,391.7807" style="stroke:#000000;stroke-width:1.0;"/><text fill="#000000" font-family="sans-serif" font-size="13" lengthAdjust="spacing" textLength="50.5781" x="240.5" y="392.6494">specifies</text><text fill="#000000" font-family="sans-serif" font-size="13" lengthAdjust="spacing" textLength="19.5127" x="248.5403" y="332.3002">1..*</text><text fill="#000000" font-family="sans-serif" font-size="13" lengthAdjust="spacing" textLength="19.5127" x="176.3177" y="461.8526">1..*</text></g><!--link Workstation to Machine--><g id="link_Workstation_Machine"><path codeLine="109" d="M103.98,347.9811 C98.69,357.6411 93.63,367.7711 89.5,377.6211 C79.09,402.4811 71.15,431.8811 65.91,454.4611 " fill="none" id="Workstation-Machine" style="stroke:#181818;stroke-width:1.0;"/><polygon fill="#000000" points="92.8167,391.9747,98.6292,384.4471,93.0945,382.4682,92.8167,391.9747" style="stroke:#000000;stroke-width:1.0;"/><text fill="#000000" font-family="sans-serif" font-size="13" lengthAdjust="spacing" textLength="20.96" x="103.5" y="392.6494">has</text><text fill="#000000" font-family="sans-serif" font-size="13" lengthAdjust="spacing" textLength="7.23" x="92.3658" y="369.8646">1</text><text fill="#000000" font-family="sans-serif" font-size="13" lengthAdjust="spacing" textLength="19.5127" x="46.5797" y="443.3943">0..*</text></g><!--link ProductionManager to Product--><g id="link_ProductionManager_Product"><path codeLine="110" d="M860.01,310.6511 C862.23,336.4211 866.48,385.8811 869.97,426.4311 " fill="none" id="ProductionManager-Product" style="stroke:#181818;stroke-width:1.0;"/><polygon fill="#000000" points="871.9285,392.2482,874.0814,382.9845,868.2252,383.4883,871.9285,392.2482" style="stroke:#000000;stroke-width:1.0;"/><text fill="#000000" font-family="sans-serif" font-size="13" lengthAdjust="spacing" textLength="53.479" x="880.5" y="392.6494">manages</text><text fill="#000000" font-family="sans-serif" font-size="13" lengthAdjust="spacing" textLength="19.5127" x="863.1526" y="332.3758">1..*</text><text fill="#000000" font-family="sans-serif" font-size="13" lengthAdjust="spacing" textLength="19.5127" x="849.3383" y="415.4304">1..*</text></g><!--link Component to RawMaterial--><g id="link_Component_RawMaterial"><path codeLine="111" d="M597.5,917.9111 C597.5,942.2511 597.5,972.1811 597.5,996.5011 " fill="none" id="Component-RawMaterial" style="stroke:#181818;stroke-width:1.0;"/><polygon fill="#000000" points="602.5,962.2666,605.4389,953.2215,599.5611,953.2215,602.5,962.2666" style="stroke:#000000;stroke-width:1.0;"/><text fill="#000000" font-family="sans-serif" font-size="13" lengthAdjust="spacing" textLength="59.9727" x="611.5" y="962.6494">is made of</text><text fill="#000000" font-family="sans-serif" font-size="13" lengthAdjust="spacing" textLength="19.5127" x="577.1641" y="939.9725">1..*</text><text fill="#000000" font-family="sans-serif" font-size="13" lengthAdjust="spacing" textLength="19.5127" x="577.157" y="985.4929">1..*</text></g><!--link Product to Component--><g id="link_Product_Component"><path codeLine="112" d="M881.46,556.8211 C883.18,612.5211 876.95,692.4811 835.5,746.6211 C785.51,811.9111 691.32,846.1211 637.64,861.0611 " fill="none" id="Product-Component" style="stroke:#181818;stroke-width:1.0;"/><polygon fill="#000000" points="878.3732,695.1683,886.323,689.948,881.7363,686.2722,878.3732,695.1683" style="stroke:#000000;stroke-width:1.0;"/><text fill="#000000" font-family="sans-serif" font-size="13" lengthAdjust="spacing" textLength="59.9727" x="890.5" y="696.6494">is made of</text><text fill="#000000" font-family="sans-serif" font-size="13" lengthAdjust="spacing" textLength="7.23" x="874.7106" y="578.4788">1</text><text fill="#000000" font-family="sans-serif" font-size="13" lengthAdjust="spacing" textLength="19.5127" x="645.3031" y="855.156">1..*</text></g><!--link Operation to Component--><g id="link_Operation_Component"><path codeLine="115" d="M282.3,717.3211 C356.2,753.2611 490.32,818.4911 557.25,851.0511 " fill="none" id="Operation-Component" style="stroke:#181818;stroke-width:1.0;"/><polygon fill="#000000" points="444.9964,788.4535,438.1478,781.8544,435.5769,787.1402,444.9964,788.4535" style="stroke:#000000;stroke-width:1.0;"/><text fill="#000000" font-family="sans-serif" font-size="13" lengthAdjust="spacing" textLength="42.6309" x="449.5" y="791.6494">creates</text><text fill="#000000" font-family="sans-serif" font-size="13" lengthAdjust="spacing" textLength="19.5127" x="290.1843" y="716.6291">1..*</text><text fill="#000000" font-family="sans-serif" font-size="13" lengthAdjust="spacing" textLength="19.5127" x="530.0772" y="843.2487">1..*</text></g><!--link Order to Operation--><g id="link_Order_Operation"><path codeLine="116" d="M315.42,528.8411 C299.71,558.6911 277.18,601.4811 259.27,635.4811 " fill="none" id="Order-Operation" style="stroke:#181818;stroke-width:1.0;"/><polygon fill="#000000" points="285.1705,600.6908,291.9851,594.0566,286.7841,591.3181,285.1705,600.6908" style="stroke:#000000;stroke-width:1.0;"/><text fill="#000000" font-family="sans-serif" font-size="13" lengthAdjust="spacing" textLength="20.96" x="296.5" y="601.6494">has</text><text fill="#000000" font-family="sans-serif" font-size="13" lengthAdjust="spacing" textLength="7.23" x="304.7147" y="550.4772">1</text><text fill="#000000" font-family="sans-serif" font-size="13" lengthAdjust="spacing" textLength="19.5127" x="242.7692" y="624.3034">1..*</text></g><!--link Client to Order--><g id="link_Client_Order"><path codeLine="118" d="M418.87,320.9211 C381.6,341.9111 336.56,368.5811 331.5,377.6211 C318.5,400.8211 320.1,431.1211 324.49,454.5011 " fill="none" id="Client-Order" style="stroke:#181818;stroke-width:1.0;"/><polygon fill="#000000" points="333.6148,391.3502,341.2344,385.6588,336.4339,382.267,333.6148,391.3502" style="stroke:#000000;stroke-width:1.0;"/><text fill="#000000" font-family="sans-serif" font-size="13" lengthAdjust="spacing" textLength="37.5781" x="345.5" y="392.6494">places</text><text fill="#000000" font-family="sans-serif" font-size="13" lengthAdjust="spacing" textLength="7.23" x="403.6201" y="321.043">1</text><text fill="#000000" font-family="sans-serif" font-size="13" lengthAdjust="spacing" textLength="19.5127" x="302.0771" y="443.4414">1..*</text></g><!--link Machine to Operation--><g id="link_Machine_Operation"><path codeLine="119" d="M59.51,528.7911 C61.82,552.6311 68.12,583.4411 84.5,605.6211 C107.9,637.3111 147.01,659.0211 178.87,672.5011 " fill="none" id="Machine-Operation" style="stroke:#181818;stroke-width:1.0;"/><polygon fill="#000000" points="92.6946,600.1129,89.1763,591.2771,84.6547,595.0326,92.6946,600.1129" style="stroke:#000000;stroke-width:1.0;"/><text fill="#000000" font-family="sans-serif" font-size="13" lengthAdjust="spacing" textLength="59.249" x="98.5" y="601.6494">processes</text><text fill="#000000" font-family="sans-serif" font-size="13" lengthAdjust="spacing" textLength="19.5127" x="39.1429" y="550.4189">1..*</text><text fill="#000000" font-family="sans-serif" font-size="13" lengthAdjust="spacing" textLength="7.23" x="163.7867" y="665.5598">1</text></g><!--link Employee to Workstation--><g id="link_Employee_Workstation"><path codeLine="120" d="M381.59,131.9711 C336.22,158.1211 268.4,198.3311 211.5,236.6211 C200.61,243.9511 189.11,252.2511 178.53,260.1311 " fill="none" id="Employee-Workstation" style="stroke:#181818;stroke-width:1.0;"/><polygon fill="#000000" points="283.2717,199.9353,292.4893,197.5929,289.3522,192.6223,283.2717,199.9353" style="stroke:#000000;stroke-width:1.0;"/><text fill="#000000" font-family="sans-serif" font-size="13" lengthAdjust="spacing" textLength="50.5908" x="296.5" y="202.6494">operates</text><text fill="#000000" font-family="sans-serif" font-size="13" lengthAdjust="spacing" textLength="19.5127" x="354.5254" y="131.8808">0..*</text><text fill="#000000" font-family="sans-serif" font-size="13" lengthAdjust="spacing" textLength="19.5127" x="186.4719" y="250.7211">0..*</text></g><!--link Workstation to ProductionLine--><g id="link_Workstation_ProductionLine"><path codeLine="121" d="M130.71,347.6311 C130.07,363.6611 131.02,381.0711 135.5,396.6211 C143.97,426.0611 164.68,455.1911 179.16,473.0411 " fill="none" id="Workstation-ProductionLine" style="stroke:#181818;stroke-width:1.0;"/><polygon fill="#000000" points="142.3019,391.9306,141.7837,382.4342,136.3008,384.5524,142.3019,391.9306" style="stroke:#000000;stroke-width:1.0;"/><text fill="#000000" font-family="sans-serif" font-size="13" lengthAdjust="spacing" textLength="36.8545" x="149.5" y="392.6494">part of</text><text fill="#000000" font-family="sans-serif" font-size="13" lengthAdjust="spacing" textLength="7.23" x="122.284" y="369.8726">1</text><text fill="#000000" font-family="sans-serif" font-size="13" lengthAdjust="spacing" textLength="19.5127" x="152.5701" y="461.8787">1..*</text></g><!--link Client to Address--><g id="link_Client_Address"><path codeLine="124" d="M474.04,338.5111 C479.57,391.1511 489.77,480.4511 502.5,556.6211 C507.44,586.1711 514.33,619.1111 520.05,644.8811 " fill="none" id="Client-Address" style="stroke:#181818;stroke-width:1.0;"/><polygon fill="#000000" points="508.2426,496.7112,509.8056,487.3299,503.9929,488.2028,508.2426,496.7112" style="stroke:#000000;stroke-width:1.0;"/><text fill="#000000" font-family="sans-serif" font-size="13" lengthAdjust="spacing" textLength="20.96" x="516.5" y="497.1494">has</text><text fill="#000000" font-family="sans-serif" font-size="13" lengthAdjust="spacing" textLength="19.5127" x="454.3694" y="360.5872">1..*</text><text fill="#000000" font-family="sans-serif" font-size="13" lengthAdjust="spacing" textLength="7.23" x="510.9993" y="633.8553">1</text></g><!--link Order to Address--><g id="link_Order_Address"><path codeLine="126" d="M335.04,528.8711 C337.13,552.9011 343.36,583.8911 360.5,605.6211 C396.01,650.6511 461.79,673.5011 500.28,683.5211 " fill="none" id="Order-Address" style="stroke:#181818;stroke-width:1.0;"/><polygon fill="#000000" points="369.1506,599.6832,364.5549,591.3567,360.5384,595.6483,369.1506,599.6832" style="stroke:#000000;stroke-width:1.0;"/><text fill="#000000" font-family="sans-serif" font-size="13" lengthAdjust="spacing" textLength="85.2808" x="374.5" y="601.6494">to be delivered</text><text fill="#000000" font-family="sans-serif" font-size="13" lengthAdjust="spacing" textLength="19.5127" x="314.6139" y="550.5122">0..*</text><text fill="#000000" font-family="sans-serif" font-size="13" lengthAdjust="spacing" textLength="7.23" x="485.4794" y="676.8039">1</text></g><!--link Employee to Address--><g id="link_Employee_Address"><path codeLine="127" d="M483.03,113.6411 C542.93,129.1111 640.1,164.3811 683.5,236.6211 C705.73,273.6211 699.71,500.0311 673.5,556.6211 C649.45,608.5511 595.11,649.9511 560.77,672.1911 " fill="none" id="Employee-Address" style="stroke:#181818;stroke-width:1.0;"/><polygon fill="#000000" points="702.1893,392.2189,703.8532,382.855,698.0315,383.6653,702.1893,392.2189" style="stroke:#000000;stroke-width:1.0;"/><text fill="#000000" font-family="sans-serif" font-size="13" lengthAdjust="spacing" textLength="20.96" x="710.5" y="392.6494">has</text><text fill="#000000" font-family="sans-serif" font-size="13" lengthAdjust="spacing" textLength="19.5127" x="490.7719" y="111.0682">1..*</text><text fill="#000000" font-family="sans-serif" font-size="13" lengthAdjust="spacing" textLength="7.23" x="568.5764" y="662.8539">1</text></g><!--link SystemUsers to Address--><g id="link_SystemUsers_Address"><path codeLine="128" d="M581.15,556.7411 C570.2,585.5811 557.54,618.9211 547.61,645.0611 " fill="none" id="SystemUsers-Address" style="stroke:#181818;stroke-width:1.0;"/><polygon fill="#000000" points="570.7249,600.9409,576.6836,593.5284,571.1886,591.4416,570.7249,600.9409" style="stroke:#000000;stroke-width:1.0;"/><text fill="#000000" font-family="sans-serif" font-size="13" lengthAdjust="spacing" textLength="20.96" x="581.5" y="601.6494">has</text><text fill="#000000" font-family="sans-serif" font-size="13" lengthAdjust="spacing" textLength="19.5127" x="558.6999" y="578.3906">1..*</text><text fill="#000000" font-family="sans-serif" font-size="13" lengthAdjust="spacing" textLength="7.23" x="542.6921" y="633.7201">1</text></g><!--link Product to ProductFamily--><g id="link_Product_ProductFamily"><path codeLine="130" d="M817.26,556.6511 C810.27,566.2711 803.76,576.4011 798.5,586.6211 C784.02,614.7611 776.42,651.1711 772.95,672.4511 " fill="none" id="Product-ProductFamily" style="stroke:#181818;stroke-width:1.0;"/><polygon fill="#000000" points="801.7131,600.9364,807.6904,593.5389,802.2008,591.4384,801.7131,600.9364" style="stroke:#000000;stroke-width:1.0;"/><text fill="#000000" font-family="sans-serif" font-size="13" lengthAdjust="spacing" textLength="49.8545" x="812.5" y="601.6494">is part of</text><text fill="#000000" font-family="sans-serif" font-size="13" lengthAdjust="spacing" textLength="19.5127" x="791.2858" y="578.2913">1..*</text><text fill="#000000" font-family="sans-serif" font-size="13" lengthAdjust="spacing" textLength="7.23" x="765.5919" y="661.2612">1</text></g><!--link ProductionLine to Operation--><g id="link_ProductionLine_Operation"><path codeLine="131" d="M184.95,510.1211 C173.98,532.5711 158.81,572.5511 169.5,605.6211 C172.84,615.9511 177.96,626.0811 183.85,635.5311 " fill="none" id="ProductionLine-Operation" style="stroke:#181818;stroke-width:1.0;"/><polygon fill="#000000" points="174.4561,601.2664,177.4743,592.2474,171.5967,592.1959,174.4561,601.2664" style="stroke:#000000;stroke-width:1.0;"/><text fill="#000000" font-family="sans-serif" font-size="13" lengthAdjust="spacing" textLength="61.4136" x="183.5" y="601.6494">consists of</text><text fill="#000000" font-family="sans-serif" font-size="13" lengthAdjust="spacing" textLength="7.23" x="174.2559" y="531.8374">1</text><text fill="#000000" font-family="sans-serif" font-size="13" lengthAdjust="spacing" textLength="19.5127" x="157.686" y="624.3598">1..*</text></g><!--SRC=[bLRTRjCm5BxFKrZZ8e2qQTmWr0kaigxI93ec1kBQjKyRKySEjiF8Afw6H-75EBRJn4bJ1hs9a_ETxpk_LkrEg8eQMX8cgRNlADjjZQuLlz9I6_9ilbYykNwTsGvM8O9kuTur4eW1vgZQIaW0jg1SFmYr9HigRMe92dFdZ5ZN3cwOLlVY4SXbLWWEX0d3a2YSIt25vZRB9MmSSPeOiIqSuS8B2gsop0c7-dT6VyKlPA5BAXHPQGuoouAEj_4weDyB1Vii-zaQvhmKIbXdgDCc-NxVM0VbPml6xZE2F-IKuL2X-K4R7buKBI4SRc-MqLfe1RTrkGRJSTr9gjnIQcrML66vKfq-iDJM6Z_IXnLrO0ILP3_Kus2P4LN8txzRfzckzsnfnruH5TDHzOOoLnjipW95eXrR40uC6rwRdkzAbnKcfjn_nh6YhC22jruY5Wr-0AkznoU1B1tskgoaRW364bEbzUzhOLp1VUWTnOSAi978FEOOIiP0gQjjEBgcIZY-QBFpnWaMHd7WXMjE4UIHOObrrQQ9tddddXDR0SDU8a7UXsmuc5QeYbrxRb-4L-rDNMzmciLtCCrYaF6L51DTcPx6RkIv0NpkspGCW8lf7L9x51N3xJaQfoKjXVHvUSjWSyvUdP7pS-8VoURCYB24ahVPqPG_XHzlp1FuKImN5ozRU3WDFCf0QAT5Hex3MsCM-xSHmJiTaqDqby6hdVaPAQYTofsSqac3wnVk29tS2g409SLBKczwgIwUYE-fHl0y5Kaz-ZKA7WOawd5_zQ9JUYdzkrjlEyedZOyPG1zVWBWNfmLYSNESpXfxppNvLWDHltzft7NX-qr0CLs2uWWKsveAcxNBCY8DGZDIISg2yk7EIWCTQkEU8jG6T7ThjTtlvo2Ta1dHmV_aw4mDd5UYnhNDEjmgGu-XI2nAdsUQm67jkz8T4HvZsYPSJlDWOzTmk9UmqMan_YgTBEGJo6IaKzZmFWhJrbTgLCJJ8uJ_EIoEYWrkVm00]--></g></svg>