<svg xmlns="http://www.w3.org/2000/svg" xmlns:xlink="http://www.w3.org/1999/xlink" contentStyleType="text/css" height="1059px" preserveAspectRatio="none" style="width:955px;height:1059px;background:#FFFFFF;" version="1.1" viewBox="0 0 955 1059" width="955px" zoomAndPan="magnify"><title>Project Domain Model</title><defs/><g><text fill="#000000" font-family="sans-serif" font-size="14" font-weight="bold" lengthAdjust="spacing" textLength="147.0205" x="397.2261" y="25.1074">Project Domain Model</text><!--class ProductionLine--><g id="elem_ProductionLine"><rect codeLine="11" fill="#ADD8E6" height="36.6211" id="ProductionLine" rx="2.5" ry="2.5" style="stroke:#181818;stroke-width:0.5;" width="99.3994" x="145" y="492.1211"/><text fill="#000000" font-family="sans-serif" font-size="14" lengthAdjust="spacing" textLength="93.3994" x="148" y="512.2285">ProductionLine</text><line style="stroke:#181818;stroke-width:0.5;" x1="146" x2="243.3994" y1="520.7422" y2="520.7422"/></g><!--class Administrator--><g id="elem_Administrator"><rect codeLine="14" fill="#ADD8E6" height="36.6211" id="Administrator" rx="2.5" ry="2.5" style="stroke:#181818;stroke-width:0.5;" width="88.4688" x="577.5" y="292.6211"/><text fill="#000000" font-family="sans-serif" font-size="14" lengthAdjust="spacing" textLength="82.4688" x="580.5" y="312.7285">Administrator</text><line style="stroke:#181818;stroke-width:0.5;" x1="578.5" x2="664.9688" y1="321.2422" y2="321.2422"/></g><!--class SystemUsers--><g id="elem_SystemUsers"><rect codeLine="17" fill="#ADD8E6" height="129.7266" id="SystemUsers" rx="2.5" ry="2.5" style="stroke:#181818;stroke-width:0.5;" width="100.7236" x="555" y="445.6211"/><text fill="#000000" font-family="sans-serif" font-size="14" lengthAdjust="spacing" textLength="83.2344" x="563.7446" y="465.7285">SystemUsers</text><line style="stroke:#181818;stroke-width:0.5;" x1="556" x2="654.7236" y1="474.2422" y2="474.2422"/><text fill="#000000" font-family="sans-serif" font-size="14" lengthAdjust="spacing" textLength="25.6689" x="561" y="493.3496">mail</text><text fill="#000000" font-family="sans-serif" font-size="14" lengthAdjust="spacing" textLength="59.917" x="561" y="511.9707">password</text><text fill="#000000" font-family="sans-serif" font-size="14" lengthAdjust="spacing" textLength="35.0205" x="561" y="530.5918">name</text><text fill="#000000" font-family="sans-serif" font-size="14" lengthAdjust="spacing" textLength="22.5518" x="561" y="549.2129">NIF</text><text fill="#000000" font-family="sans-serif" font-size="14" lengthAdjust="spacing" textLength="88.7236" x="561" y="567.834">phoneNumber</text></g><!--class PlantFloorManager--><g id="elem_PlantFloorManager"><rect codeLine="24" fill="#ADD8E6" height="36.6211" id="PlantFloorManager" rx="2.5" ry="2.5" style="stroke:#181818;stroke-width:0.5;" width="125.0615" x="229" y="292.6211"/><text fill="#000000" font-family="sans-serif" font-size="14" lengthAdjust="spacing" textLength="119.0615" x="232" y="312.7285">PlantFloorManager</text><line style="stroke:#181818;stroke-width:0.5;" x1="230" x2="353.0615" y1="321.2422" y2="321.2422"/></g><!--class ProductionManager--><g id="elem_ProductionManager"><rect codeLine="27" fill="#ADD8E6" height="36.6211" id="ProductionManager" rx="2.5" ry="2.5" style="stroke:#181818;stroke-width:0.5;" width="128.1855" x="794.5" y="292.6211"/><text fill="#000000" font-family="sans-serif" font-size="14" lengthAdjust="spacing" textLength="122.1855" x="797.5" y="312.7285">ProductionManager</text><line style="stroke:#181818;stroke-width:0.5;" x1="795.5" x2="921.6855" y1="321.2422" y2="321.2422"/></g><!--class RawMaterial--><g id="elem_RawMaterial"><rect codeLine="31" fill="#ADD8E6" height="73.8633" id="RawMaterial" rx="2.5" ry="2.5" style="stroke:#181818;stroke-width:0.5;" width="83.7998" x="555.5" y="978.6211"/><text fill="#000000" font-family="sans-serif" font-size="14" lengthAdjust="spacing" textLength="77.7998" x="558.5" y="998.7285">RawMaterial</text><line style="stroke:#181818;stroke-width:0.5;" x1="556.5" x2="638.2998" y1="1007.2422" y2="1007.2422"/><text fill="#000000" font-family="sans-serif" font-size="14" lengthAdjust="spacing" textLength="35.0205" x="561.5" y="1026.3496">name</text><text fill="#000000" font-family="sans-serif" font-size="14" lengthAdjust="spacing" textLength="67.7031" x="561.5" y="1044.9707">description</text></g><!--class Product--><g id="elem_Product"><rect codeLine="36" fill="#ADD8E6" height="111.1055" id="Product" rx="2.5" ry="2.5" style="stroke:#181818;stroke-width:0.5;" width="130.2891" x="810.5" y="455.1211"/><text fill="#000000" font-family="sans-serif" font-size="14" lengthAdjust="spacing" textLength="48.248" x="851.5205" y="475.2285">Product</text><line style="stroke:#181818;stroke-width:0.5;" x1="811.5" x2="939.7891" y1="483.7422" y2="483.7422"/><text fill="#000000" font-family="sans-serif" font-size="14" lengthAdjust="spacing" textLength="35.0205" x="816.5" y="502.8496">name</text><text fill="#000000" font-family="sans-serif" font-size="14" lengthAdjust="spacing" textLength="118.2891" x="816.5" y="521.4707">manufacturingDate</text><text fill="#000000" font-family="sans-serif" font-size="14" lengthAdjust="spacing" textLength="24.8965" x="816.5" y="540.0918">size</text><text fill="#000000" font-family="sans-serif" font-size="14" lengthAdjust="spacing" textLength="38.1309" x="816.5" y="558.7129">colour</text></g><!--class Component--><g id="elem_Component"><rect codeLine="43" fill="#ADD8E6" height="73.8633" id="Component" rx="2.5" ry="2.5" style="stroke:#181818;stroke-width:0.5;" width="79.7031" x="557.5" y="825.6211"/><text fill="#000000" font-family="sans-serif" font-size="14" lengthAdjust="spacing" textLength="72.3789" x="561.1621" y="845.7285">Component</text><line style="stroke:#181818;stroke-width:0.5;" x1="558.5" x2="636.2031" y1="854.2422" y2="854.2422"/><text fill="#000000" font-family="sans-serif" font-size="14" lengthAdjust="spacing" textLength="35.0205" x="563.5" y="873.3496">name</text><text fill="#000000" font-family="sans-serif" font-size="14" lengthAdjust="spacing" textLength="67.7031" x="563.5" y="891.9707">description</text></g><!--class Machine--><g id="elem_Machine"><rect codeLine="48" fill="#ADD8E6" height="73.8633" id="Machine" rx="2.5" ry="2.5" style="stroke:#181818;stroke-width:0.5;" width="103.041" x="7" y="473.6211"/><text fill="#000000" font-family="sans-serif" font-size="14" lengthAdjust="spacing" textLength="52.917" x="32.062" y="493.7285">Machine</text><line style="stroke:#181818;stroke-width:0.5;" x1="8" x2="109.041" y1="502.2422" y2="502.2422"/><text fill="#000000" font-family="sans-serif" font-size="14" lengthAdjust="spacing" textLength="10.8965" x="13" y="521.3496">id</text><text fill="#000000" font-family="sans-serif" font-size="14" lengthAdjust="spacing" textLength="91.041" x="13" y="539.9707">executionTime</text></g><!--class Employee--><g id="elem_Employee"><rect codeLine="53" fill="#ADD8E6" height="129.7266" id="Employee" rx="2.5" ry="2.5" style="stroke:#181818;stroke-width:0.5;" width="100.7236" x="382" y="46.6211"/><text fill="#000000" font-family="sans-serif" font-size="14" lengthAdjust="spacing" textLength="62.2549" x="401.2344" y="66.7285">Employee</text><line style="stroke:#181818;stroke-width:0.5;" x1="383" x2="481.7236" y1="75.2422" y2="75.2422"/><text fill="#000000" font-family="sans-serif" font-size="14" lengthAdjust="spacing" textLength="35.0205" x="388" y="94.3496">name</text><text fill="#000000" font-family="sans-serif" font-size="14" lengthAdjust="spacing" textLength="22.5518" x="388" y="112.9707">NIF</text><text fill="#000000" font-family="sans-serif" font-size="14" lengthAdjust="spacing" textLength="88.7236" x="388" y="131.5918">phoneNumber</text><text fill="#000000" font-family="sans-serif" font-size="14" lengthAdjust="spacing" textLength="54.4824" x="388" y="150.2129">birthdate</text><text fill="#000000" font-family="sans-serif" font-size="14" lengthAdjust="spacing" textLength="25.6689" x="388" y="168.834">mail</text></g><!--class Operation--><g id="elem_Operation"><rect codeLine="61" fill="#ADD8E6" height="92.4844" id="Operation" rx="2.5" ry="2.5" style="stroke:#181818;stroke-width:0.5;" width="67.4824" x="197" y="654.6211"/><text fill="#000000" font-family="sans-serif" font-size="14" lengthAdjust="spacing" textLength="61.4824" x="200" y="674.7285">Operation</text><line style="stroke:#181818;stroke-width:0.5;" x1="198" x2="263.4824" y1="683.2422" y2="683.2422"/><text fill="#000000" font-family="sans-serif" font-size="14" lengthAdjust="spacing" textLength="35.0205" x="203" y="702.3496">name</text><text fill="#000000" font-family="sans-serif" font-size="14" lengthAdjust="spacing" textLength="37.3516" x="203" y="720.9707">status</text><text fill="#000000" font-family="sans-serif" font-size="14" lengthAdjust="spacing" textLength="26.4619" x="203" y="739.5918">type</text></g><!--class Workstation--><g id="elem_Workstation"><rect codeLine="67" fill="#ADD8E6" height="111.1055" id="Workstation" rx="2.5" ry="2.5" style="stroke:#181818;stroke-width:0.5;" width="79.9102" x="98.5" y="255.6211"/><text fill="#000000" font-family="sans-serif" font-size="14" lengthAdjust="spacing" textLength="73.9102" x="101.5" y="275.7285">Workstation</text><line style="stroke:#181818;stroke-width:0.5;" x1="99.5" x2="177.4102" y1="284.2422" y2="284.2422"/><text fill="#000000" font-family="sans-serif" font-size="14" lengthAdjust="spacing" textLength="35.0205" x="104.5" y="303.3496">name</text><text fill="#000000" font-family="sans-serif" font-size="14" lengthAdjust="spacing" textLength="51.3584" x="104.5" y="321.9707">capacity</text><text fill="#000000" font-family="sans-serif" font-size="14" lengthAdjust="spacing" textLength="37.3516" x="104.5" y="340.5918">status</text><text fill="#000000" font-family="sans-serif" font-size="14" lengthAdjust="spacing" textLength="26.4619" x="104.5" y="359.2129">type</text></g><!--class Order--><g id="elem_Order"><rect codeLine="79" fill="#ADD8E6" height="73.8633" id="Order" rx="2.5" ry="2.5" style="stroke:#181818;stroke-width:0.5;" width="89.8135" x="289.5" y="473.6211"/><text fill="#000000" font-family="sans-serif" font-size="14" lengthAdjust="spacing" textLength="35.7861" x="316.5137" y="493.7285">Order</text><line style="stroke:#181818;stroke-width:0.5;" x1="290.5" x2="378.3135" y1="502.2422" y2="502.2422"/><text fill="#000000" font-family="sans-serif" font-size="14" lengthAdjust="spacing" textLength="62.2549" x="295.5" y="521.3496">orderDate</text><text fill="#000000" font-family="sans-serif" font-size="14" lengthAdjust="spacing" textLength="77.8135" x="295.5" y="539.9707">deliveryDate</text></g><!--class Client--><g id="elem_Client"><rect codeLine="85" fill="#ADD8E6" height="111.1055" id="Client" rx="2.5" ry="2.5" style="stroke:#181818;stroke-width:0.5;" width="100.7236" x="419" y="255.6211"/><text fill="#000000" font-family="sans-serif" font-size="14" lengthAdjust="spacing" textLength="35.793" x="451.4653" y="275.7285">Client</text><line style="stroke:#181818;stroke-width:0.5;" x1="420" x2="518.7236" y1="284.2422" y2="284.2422"/><text fill="#000000" font-family="sans-serif" font-size="14" lengthAdjust="spacing" textLength="35.0205" x="425" y="303.3496">name</text><text fill="#000000" font-family="sans-serif" font-size="14" lengthAdjust="spacing" textLength="22.5518" x="425" y="321.9707">NIF</text><text fill="#000000" font-family="sans-serif" font-size="14" lengthAdjust="spacing" textLength="88.7236" x="425" y="340.5918">phoneNumber</text><text fill="#000000" font-family="sans-serif" font-size="14" lengthAdjust="spacing" textLength="25.6689" x="425" y="359.2129">mail</text></g><!--class Address--><g id="elem_Address"><rect codeLine="92" fill="#ADD8E6" height="92.4844" id="Address" rx="2.5" ry="2.5" style="stroke:#181818;stroke-width:0.5;" width="60.2549" x="500.5" y="654.6211"/><text fill="#000000" font-family="sans-serif" font-size="14" lengthAdjust="spacing" textLength="51.3584" x="504.9482" y="674.7285">Address</text><line style="stroke:#181818;stroke-width:0.5;" x1="501.5" x2="559.7549" y1="683.2422" y2="683.2422"/><text fill="#000000" font-family="sans-serif" font-size="14" lengthAdjust="spacing" textLength="35.0137" x="506.5" y="702.3496">street</text><text fill="#000000" font-family="sans-serif" font-size="14" lengthAdjust="spacing" textLength="21" x="506.5" y="720.9707">city</text><text fill="#000000" font-family="sans-serif" font-size="14" lengthAdjust="spacing" textLength="48.2549" x="506.5" y="739.5918">zipcode</text></g><!--class ProductFamily--><g id="elem_ProductFamily"><rect codeLine="98" fill="#ADD8E6" height="36.6211" id="ProductFamily" rx="2.5" ry="2.5" style="stroke:#181818;stroke-width:0.5;" width="95.4688" x="723" y="682.1211"/><text fill="#000000" font-family="sans-serif" font-size="14" lengthAdjust="spacing" textLength="89.4688" x="726" y="702.2285">ProductFamily</text><line style="stroke:#181818;stroke-width:0.5;" x1="724" x2="817.4688" y1="710.7422" y2="710.7422"/></g><!--link Administrator to SystemUsers--><g id="link_Administrator_SystemUsers"><path codeLine="102" d="M620.08,329.6511 C617.99,355.4211 613.99,404.8811 610.7,445.4311 " fill="none" id="Administrator-SystemUsers" style="stroke:#181818;stroke-width:1.0;"/><polygon fill="#000000" points="618.0962,411.2503,621.756,402.472,615.8973,401.9974,618.0962,411.2503" style="stroke:#000000;stroke-width:1.0;"/><text fill="#000000" font-family="sans-serif" font-size="13" lengthAdjust="spacing" textLength="20.23" x="627.5" y="411.6494">is a</text><text fill="#000000" font-family="sans-serif" font-size="13" lengthAdjust="spacing" textLength="7.23" x="611.6627" y="351.3758">1</text><text fill="#000000" font-family="sans-serif" font-size="13" lengthAdjust="spacing" textLength="7.23" x="603.9136" y="434.4304">1</text></g><!--link Administrator to SystemUsers--><g id="link_Administrator_SystemUsers"><path codeLine="105" d="M595.09,329.7411 C575.07,344.8211 549.09,368.5111 537.5,396.6211 C527.94,419.8011 539,443.8211 554.79,463.7311 " fill="none" id="Administrator-SystemUsers-1" style="stroke:#181818;stroke-width:1.0;"/><polygon fill="#000000" points="541.0599,411.0547,546.4795,403.2394,540.8507,401.5465,541.0599,411.0547" style="stroke:#000000;stroke-width:1.0;"/><text fill="#000000" font-family="sans-serif" font-size="13" lengthAdjust="spacing" textLength="53.479" x="551.5" y="411.6494">manages</text><text fill="#000000" font-family="sans-serif" font-size="13" lengthAdjust="spacing" textLength="19.5127" x="566.4451" y="351.1479">1..*</text><text fill="#000000" font-family="sans-serif" font-size="13" lengthAdjust="spacing" textLength="19.5127" x="527.3784" y="453.0099">1..*</text></g><!--link ProductionManager to SystemUsers--><g id="link_ProductionManager_SystemUsers"><path codeLine="103" d="M844.66,329.6311 C826.9,351.4211 794.43,388.9811 761.5,415.6211 C728.8,442.0711 687.97,466.4011 656.29,483.6911 " fill="none" id="ProductionManager-SystemUsers" style="stroke:#181818;stroke-width:1.0;"/><polygon fill="#000000" points="782.6296,409.432,791.4918,405.9807,787.7706,401.4307,782.6296,409.432" style="stroke:#000000;stroke-width:1.0;"/><text fill="#000000" font-family="sans-serif" font-size="13" lengthAdjust="spacing" textLength="20.23" x="795.5" y="411.6494">is a</text><text fill="#000000" font-family="sans-serif" font-size="13" lengthAdjust="spacing" textLength="7.23" x="832.7894" y="351.3502">1</text><text fill="#000000" font-family="sans-serif" font-size="13" lengthAdjust="spacing" textLength="7.23" x="663.6192" y="475.9964">1</text></g><!--link PlantFloorManager to SystemUsers--><g id="link_PlantFloorManager_SystemUsers"><path codeLine="104" d="M327.02,329.7711 C374.22,353.7611 459.55,399.0411 527.5,445.6211 C536.6,451.8611 545.95,458.9011 554.87,465.9811 " fill="none" id="PlantFloorManager-SystemUsers" style="stroke:#181818;stroke-width:1.0;"/><polygon fill="#000000" points="486.7916,408.8322,480.536,401.6685,477.52,406.7136,486.7916,408.8322" style="stroke:#000000;stroke-width:1.0;"/><text fill="#000000" font-family="sans-serif" font-size="13" lengthAdjust="spacing" textLength="20.23" x="491.5" y="411.6494">is a</text><text fill="#000000" font-family="sans-serif" font-size="13" lengthAdjust="spacing" textLength="7.23" x="328.648" y="351.186">1</text><text fill="#000000" font-family="sans-serif" font-size="13" lengthAdjust="spacing" textLength="7.23" x="539.6201" y="474.5187">1</text></g><!--link PlantFloorManager to ProductionLine--><g id="link_PlantFloorManager_ProductionLine"><path codeLine="106" d="M274.58,329.8611 C259.95,346.0811 239.22,371.3211 226.5,396.6211 C210.56,428.3211 201.51,469.1311 197.34,492.0211 " fill="none" id="PlantFloorManager-ProductionLine" style="stroke:#181818;stroke-width:1.0;"/><polygon fill="#000000" points="229.3499,410.7807,235.8928,403.8785,230.5862,401.3508,229.3499,410.7807" style="stroke:#000000;stroke-width:1.0;"/><text fill="#000000" font-family="sans-serif" font-size="13" lengthAdjust="spacing" textLength="50.5781" x="240.5" y="411.6494">specifies</text><text fill="#000000" font-family="sans-serif" font-size="13" lengthAdjust="spacing" textLength="19.5127" x="248.5403" y="351.3002">1..*</text><text fill="#000000" font-family="sans-serif" font-size="13" lengthAdjust="spacing" textLength="19.5127" x="176.3177" y="480.8526">1..*</text></g><!--link Workstation to Machine--><g id="link_Workstation_Machine"><path codeLine="107" d="M103.98,366.9811 C98.69,376.6411 93.63,386.7711 89.5,396.6211 C79.09,421.4811 71.15,450.8811 65.91,473.4611 " fill="none" id="Workstation-Machine" style="stroke:#181818;stroke-width:1.0;"/><polygon fill="#000000" points="92.8167,410.9747,98.6292,403.4471,93.0945,401.4682,92.8167,410.9747" style="stroke:#000000;stroke-width:1.0;"/><text fill="#000000" font-family="sans-serif" font-size="13" lengthAdjust="spacing" textLength="20.96" x="103.5" y="411.6494">has</text><text fill="#000000" font-family="sans-serif" font-size="13" lengthAdjust="spacing" textLength="7.23" x="92.3658" y="388.8646">1</text><text fill="#000000" font-family="sans-serif" font-size="13" lengthAdjust="spacing" textLength="19.5127" x="46.5797" y="462.3943">0..*</text></g><!--link ProductionManager to Product--><g id="link_ProductionManager_Product"><path codeLine="108" d="M860.01,329.6511 C862.41,357.5011 867.18,413.0011 870.8,455.0511 " fill="none" id="ProductionManager-Product" style="stroke:#181818;stroke-width:1.0;"/><polygon fill="#000000" points="871.9286,411.2482,874.0813,401.9845,868.2251,402.4884,871.9286,411.2482" style="stroke:#000000;stroke-width:1.0;"/><text fill="#000000" font-family="sans-serif" font-size="13" lengthAdjust="spacing" textLength="53.479" x="880.5" y="411.6494">manages</text><text fill="#000000" font-family="sans-serif" font-size="13" lengthAdjust="spacing" textLength="19.5127" x="863.1526" y="351.3758">1..*</text><text fill="#000000" font-family="sans-serif" font-size="13" lengthAdjust="spacing" textLength="19.5127" x="849.995" y="443.8823">1..*</text></g><!--link Component to RawMaterial--><g id="link_Component_RawMaterial"><path codeLine="109" d="M597.5,899.7911 C597.5,923.6111 597.5,954.6711 597.5,978.4911 " fill="none" id="Component-RawMaterial" style="stroke:#181818;stroke-width:1.0;"/><polygon fill="#000000" points="602.5,944.2666,605.4389,935.2215,599.5611,935.2215,602.5,944.2666" style="stroke:#000000;stroke-width:1.0;"/><text fill="#000000" font-family="sans-serif" font-size="13" lengthAdjust="spacing" textLength="59.9727" x="611.5" y="944.6494">is made of</text><text fill="#000000" font-family="sans-serif" font-size="13" lengthAdjust="spacing" textLength="19.5127" x="576.9936" y="921.4189">1..*</text><text fill="#000000" font-family="sans-serif" font-size="13" lengthAdjust="spacing" textLength="19.5127" x="576.8713" y="967.4297">1..*</text></g><!--link Product to Component--><g id="link_Product_Component"><path codeLine="110" d="M880.58,566.3011 C882.4,618.3311 876.86,695.9711 835.5,746.6211 C784.42,809.1811 691.08,840.0811 637.73,853.2811 " fill="none" id="Product-Component" style="stroke:#181818;stroke-width:1.0;"/><polygon fill="#000000" points="875.2701,704.5834,883.3565,699.5772,878.8696,695.7803,875.2701,704.5834" style="stroke:#000000;stroke-width:1.0;"/><text fill="#000000" font-family="sans-serif" font-size="13" lengthAdjust="spacing" textLength="59.9727" x="887.5" y="706.1494">is made of</text><text fill="#000000" font-family="sans-serif" font-size="13" lengthAdjust="spacing" textLength="7.23" x="873.769" y="588.1627">1</text><text fill="#000000" font-family="sans-serif" font-size="13" lengthAdjust="spacing" textLength="19.5127" x="645.0935" y="847.7206">1..*</text></g><!--link Operation to Component--><g id="link_Operation_Component"><path codeLine="113" d="M264.04,716.2411 C331.72,745.7511 484.39,812.3111 557.28,844.0911 " fill="none" id="Operation-Component" style="stroke:#181818;stroke-width:1.0;"/><polygon fill="#000000" points="445.0833,788.2649,437.9666,781.9559,435.6175,787.344,445.0833,788.2649" style="stroke:#000000;stroke-width:1.0;"/><text fill="#000000" font-family="sans-serif" font-size="13" lengthAdjust="spacing" textLength="42.6309" x="449.5" y="791.6494">creates</text><text fill="#000000" font-family="sans-serif" font-size="13" lengthAdjust="spacing" textLength="19.5127" x="272.5165" y="714.6521">1..*</text><text fill="#000000" font-family="sans-serif" font-size="13" lengthAdjust="spacing" textLength="19.5127" x="530.1122" y="836.678">1..*</text></g><!--link Order to Operation--><g id="link_Order_Operation"><path codeLine="114" d="M314.45,547.8711 C297.63,578.2811 273.52,621.8511 255.45,654.5111 " fill="none" id="Order-Operation" style="stroke:#181818;stroke-width:1.0;"/><polygon fill="#000000" points="285.0795,619.6416,292.0298,613.1499,286.8867,610.3044,285.0795,619.6416" style="stroke:#000000;stroke-width:1.0;"/><text fill="#000000" font-family="sans-serif" font-size="13" lengthAdjust="spacing" textLength="20.96" x="296.5" y="620.6494">has</text><text fill="#000000" font-family="sans-serif" font-size="13" lengthAdjust="spacing" textLength="7.23" x="303.584" y="569.5122">1</text><text fill="#000000" font-family="sans-serif" font-size="13" lengthAdjust="spacing" textLength="19.5127" x="238.7214" y="643.5044">1..*</text></g><!--link Client to Order--><g id="link_Client_Order"><path codeLine="116" d="M418.87,339.9211 C381.6,360.9111 336.56,387.5811 331.5,396.6211 C318.5,419.8211 320.1,450.1211 324.49,473.5011 " fill="none" id="Client-Order" style="stroke:#181818;stroke-width:1.0;"/><polygon fill="#000000" points="333.6148,410.3502,341.2344,404.6588,336.4339,401.267,333.6148,410.3502" style="stroke:#000000;stroke-width:1.0;"/><text fill="#000000" font-family="sans-serif" font-size="13" lengthAdjust="spacing" textLength="37.5781" x="345.5" y="411.6494">places</text><text fill="#000000" font-family="sans-serif" font-size="13" lengthAdjust="spacing" textLength="7.23" x="403.6201" y="340.0721">1</text><text fill="#000000" font-family="sans-serif" font-size="13" lengthAdjust="spacing" textLength="19.5127" x="302.0771" y="462.4414">1..*</text></g><!--link Machine to Operation--><g id="link_Machine_Operation"><path codeLine="117" d="M59.13,547.8011 C61.26,571.8011 67.5,602.7711 84.5,624.6211 C112.67,660.8311 163.16,681.1611 196.74,691.2611 " fill="none" id="Machine-Operation" style="stroke:#181818;stroke-width:1.0;"/><polygon fill="#000000" points="92.9612,618.8749,88.8208,610.313,84.5789,614.3818,92.9612,618.8749" style="stroke:#000000;stroke-width:1.0;"/><text fill="#000000" font-family="sans-serif" font-size="13" lengthAdjust="spacing" textLength="59.249" x="98.5" y="620.6494">processes</text><text fill="#000000" font-family="sans-serif" font-size="13" lengthAdjust="spacing" textLength="19.5127" x="38.7" y="569.4306">1..*</text><text fill="#000000" font-family="sans-serif" font-size="13" lengthAdjust="spacing" textLength="7.23" x="181.5618" y="684.3614">1</text></g><!--link Employee to Workstation--><g id="link_Employee_Workstation"><path codeLine="118" d="M381.84,144.0511 C336.63,172.4111 268.9,215.6911 211.5,255.6211 C200.72,263.1211 189.26,271.4811 178.69,279.3611 " fill="none" id="Employee-Workstation" style="stroke:#181818;stroke-width:1.0;"/><polygon fill="#000000" points="284.3386,219.0384,293.4959,216.4702,290.2375,211.5782,284.3386,219.0384" style="stroke:#000000;stroke-width:1.0;"/><text fill="#000000" font-family="sans-serif" font-size="13" lengthAdjust="spacing" textLength="50.5908" x="297.5" y="221.6494">operates</text><text fill="#000000" font-family="sans-serif" font-size="13" lengthAdjust="spacing" textLength="19.5127" x="354.4355" y="144.4843">0..*</text><text fill="#000000" font-family="sans-serif" font-size="13" lengthAdjust="spacing" textLength="19.5127" x="186.3449" y="270.2388">0..*</text></g><!--link Workstation to ProductionLine--><g id="link_Workstation_ProductionLine"><path codeLine="119" d="M130.71,366.6311 C130.07,382.6611 131.02,400.0711 135.5,415.6211 C143.97,445.0611 164.68,474.1911 179.16,492.0411 " fill="none" id="Workstation-ProductionLine" style="stroke:#181818;stroke-width:1.0;"/><polygon fill="#000000" points="142.3019,410.9306,141.7837,401.4342,136.3008,403.5524,142.3019,410.9306" style="stroke:#000000;stroke-width:1.0;"/><text fill="#000000" font-family="sans-serif" font-size="13" lengthAdjust="spacing" textLength="36.8545" x="149.5" y="411.6494">part of</text><text fill="#000000" font-family="sans-serif" font-size="13" lengthAdjust="spacing" textLength="7.23" x="122.284" y="388.8726">1</text><text fill="#000000" font-family="sans-serif" font-size="13" lengthAdjust="spacing" textLength="19.5127" x="152.5701" y="480.8787">1..*</text></g><!--link Client to Address--><g id="link_Client_Address"><path codeLine="122" d="M474.78,366.8511 C480.31,420.3111 489.94,503.8711 502.5,575.6211 C507.11,601.9211 513.61,631.0611 519.2,654.4811 " fill="none" id="Client-Address" style="stroke:#181818;stroke-width:1.0;"/><polygon fill="#000000" points="508.2631,515.708,509.7871,506.3204,503.9781,507.2175,508.2631,515.708" style="stroke:#000000;stroke-width:1.0;"/><text fill="#000000" font-family="sans-serif" font-size="13" lengthAdjust="spacing" textLength="20.96" x="516.5" y="516.1494">has</text><text fill="#000000" font-family="sans-serif" font-size="13" lengthAdjust="spacing" textLength="19.5127" x="455.3138" y="388.7188">1..*</text><text fill="#000000" font-family="sans-serif" font-size="13" lengthAdjust="spacing" textLength="7.23" x="510.0244" y="643.47">1</text></g><!--link Order to Address--><g id="link_Order_Address"><path codeLine="124" d="M334.7,547.8611 C336.63,572.0411 342.8,603.2111 360.5,624.6211 C396.26,667.8811 461.94,686.9811 500.35,694.7811 " fill="none" id="Order-Address" style="stroke:#181818;stroke-width:1.0;"/><polygon fill="#000000" points="369.2407,618.5843,364.4238,610.3838,360.5236,614.7812,369.2407,618.5843" style="stroke:#000000;stroke-width:1.0;"/><text fill="#000000" font-family="sans-serif" font-size="13" lengthAdjust="spacing" textLength="85.2808" x="374.5" y="620.6494">to be delivered</text><text fill="#000000" font-family="sans-serif" font-size="13" lengthAdjust="spacing" textLength="19.5127" x="314.2176" y="569.5005">0..*</text><text fill="#000000" font-family="sans-serif" font-size="13" lengthAdjust="spacing" textLength="7.23" x="485.1448" y="688.2905">1</text></g><!--link Employee to Address--><g id="link_Employee_Address"><path codeLine="125" d="M483.15,125.0011 C543.18,142.6911 640.47,181.5811 683.5,255.6211 C705.77,293.9311 699.78,521.5011 673.5,575.6211 C649.31,625.4311 595.01,663.3911 560.72,683.5211 " fill="none" id="Employee-Address" style="stroke:#181818;stroke-width:1.0;"/><polygon fill="#000000" points="702.1878,411.2191,703.8545,401.8557,698.0326,402.6643,702.1878,411.2191" style="stroke:#000000;stroke-width:1.0;"/><text fill="#000000" font-family="sans-serif" font-size="13" lengthAdjust="spacing" textLength="20.96" x="710.5" y="411.6494">has</text><text fill="#000000" font-family="sans-serif" font-size="13" lengthAdjust="spacing" textLength="19.5127" x="490.9073" y="122.6908">1..*</text><text fill="#000000" font-family="sans-serif" font-size="13" lengthAdjust="spacing" textLength="7.23" x="568.9362" y="674.2858">1</text></g><!--link SystemUsers to Address--><g id="link_SystemUsers_Address"><path codeLine="126" d="M579.9,575.7911 C569.59,601.6411 557.94,630.8511 548.54,654.4011 " fill="none" id="SystemUsers-Address" style="stroke:#181818;stroke-width:1.0;"/><polygon fill="#000000" points="570.6473,619.9107,576.7286,612.5984,571.2691,610.4205,570.6473,619.9107" style="stroke:#000000;stroke-width:1.0;"/><text fill="#000000" font-family="sans-serif" font-size="13" lengthAdjust="spacing" textLength="20.96" x="581.5" y="620.6494">has</text><text fill="#000000" font-family="sans-serif" font-size="13" lengthAdjust="spacing" textLength="19.5127" x="557.321" y="597.4457">1..*</text><text fill="#000000" font-family="sans-serif" font-size="13" lengthAdjust="spacing" textLength="7.23" x="543.6737" y="643.3782">1</text></g><!--link Product to ProductFamily--><g id="link_Product_ProductFamily"><path codeLine="128" d="M824.78,566.2011 C815.08,578.5311 805.72,592.0211 798.5,605.6211 C785.33,630.4411 777.5,662.3111 773.61,681.8411 " fill="none" id="Product-ProductFamily" style="stroke:#181818;stroke-width:1.0;"/><polygon fill="#000000" points="801.4768,619.839,807.8244,612.7567,802.4493,610.3783,801.4768,619.839" style="stroke:#000000;stroke-width:1.0;"/><text fill="#000000" font-family="sans-serif" font-size="13" lengthAdjust="spacing" textLength="49.8545" x="812.5" y="620.6494">is part of</text><text fill="#000000" font-family="sans-serif" font-size="13" lengthAdjust="spacing" textLength="19.5127" x="798.0786" y="588.4516">1..*</text><text fill="#000000" font-family="sans-serif" font-size="13" lengthAdjust="spacing" textLength="7.23" x="766.4604" y="670.9543">1</text></g><!--link ProductionLine to Operation--><g id="link_ProductionLine_Operation"><path codeLine="129" d="M184.65,529.2211 C173.37,551.7811 157.86,591.8711 169.5,624.6211 C175.18,640.5911 185.87,655.6411 196.73,668.0011 " fill="none" id="ProductionLine-Operation" style="stroke:#181818;stroke-width:1.0;"/><polygon fill="#000000" points="174.9336,620.2478,177.0771,610.9819,171.2214,611.4916,174.9336,620.2478" style="stroke:#000000;stroke-width:1.0;"/><text fill="#000000" font-family="sans-serif" font-size="13" lengthAdjust="spacing" textLength="61.4136" x="183.5" y="620.6494">consists of</text><text fill="#000000" font-family="sans-serif" font-size="13" lengthAdjust="spacing" textLength="7.23" x="174.0394" y="550.6226">1</text><text fill="#000000" font-family="sans-serif" font-size="13" lengthAdjust="spacing" textLength="19.5127" x="169.4845" y="657.1725">1..*</text></g><!--SRC=[ZLR1Rjim3BtxAuJja6r0Y-uo33aCo9e6AB1qnRfXPqLYOgwov57okhJer-nJzcEZPSUMdMHjBfRDHpwHZoJYRz6MacGXb97UVvJgTaEkilhS6KVYvMm-Vt_nBlCTh6I4tC1Ds1eG12f8kp6G07mkjRj3kn5hQNngYGop40XNLO1BvUmDteCuotBK81IIua3nN438dVRPnC0wYE04uIOFGcDDYCvcMS30_DVaVl0NCNU5H2kMJeF9iiXJstGLqP_GmaEMFRQ6cIxGeWyaWwFa-ytM1oY-UI3_a0d-SKmJ3oMRxnpf-69b0V5mTRbehBcpS5KLAw0krhMHDYoCSxIKbikLylGNIssjyOkyMye0XDA8Xo6V1gy8ovZ_uoZBCRQGjbfB5IfY8UOSC7xrNEvuK2nkHNsKSrUKd8GDp-9SIfLpILiiDcM1tw2g6lSLsRV3NXIbSLk0SU13nQlVLqWXrxiBHmMwM9zBOCsOOXpC1nag7uzXMoRitntTriO3Fafo9sFO7WimQI8ik8YEjettf7EV25-2Of4umAI_86cWbgXiX7dbNyTNLviw8RXDyHVGDdxeLJ1uG89ZbHhMPgOr0JyVsdm883HvxdAynrBnVEorpa8MQEe4QyjWDbwyVI5EJaJzI6PZAj0BAJvaUtty57uy4q_WHtSvFNtJmkDfu574WFumoSXnk1UcZP1hZDvfl-nkTnQzsfwVYbpwGxcBOppfvVensqCdSnyBK4XUWsxTKtNtQV1zg15yafAa7ltqH0y2mtowNgxibAwTvxlrjhryqlif0lQf2z0Co762fhWJxiwAjTTE_An0sBz_7AyNhFKMO9Khm6e6ugQIwBDsQaP18z5Kb4QgoBpRMUb5Xzmyi0pr4TrjhLRzlW_I3faA5_sFjiwXXgkP98LMhDrw6NeCIPgYz7cc2Up6lYlTNi1zJ2l2sU4uBEmATWkAXKwByL_gP22VG2OjdSA6-oXsMr-fKH6Fjn3_g_3SAZww_GC0]--></g></svg>