<svg xmlns="http://www.w3.org/2000/svg" xmlns:xlink="http://www.w3.org/1999/xlink" contentStyleType="text/css" height="1058px" preserveAspectRatio="none" style="width:1068px;height:1058px;background:#FFFFFF;" version="1.1" viewBox="0 0 1068 1058" width="1068px" zoomAndPan="magnify"><title>Project Domain Model</title><defs/><g><text fill="#000000" font-family="sans-serif" font-size="14" font-weight="bold" lengthAdjust="spacing" textLength="147.0205" x="453.6425" y="25.1074">Project Domain Model</text><!--class ProductionLine--><g id="elem_ProductionLine"><rect codeLine="12" fill="#ADD8E6" height="36.6211" id="ProductionLine" rx="2.5" ry="2.5" style="stroke:#181818;stroke-width:0.5;" width="99.3994" x="193.62" y="510.1211"/><text fill="#000000" font-family="sans-serif" font-size="14" lengthAdjust="spacing" textLength="93.3994" x="196.62" y="530.2285">ProductionLine</text><line style="stroke:#181818;stroke-width:0.5;" x1="194.62" x2="292.0194" y1="538.7422" y2="538.7422"/></g><!--class Administrator--><g id="elem_Administrator"><rect codeLine="16" fill="#ADD8E6" height="36.6211" id="Administrator" rx="2.5" ry="2.5" style="stroke:#181818;stroke-width:0.5;" width="88.4688" x="775.12" y="310.6211"/><text fill="#000000" font-family="sans-serif" font-size="14" lengthAdjust="spacing" textLength="82.4688" x="778.12" y="330.7285">Administrator</text><line style="stroke:#181818;stroke-width:0.5;" x1="776.12" x2="862.5888" y1="339.2422" y2="339.2422"/></g><!--class SystemUsers--><g id="elem_SystemUsers"><rect codeLine="20" fill="#ADD8E6" height="129.7266" id="SystemUsers" rx="2.5" ry="2.5" style="stroke:#181818;stroke-width:0.5;" width="100.7236" x="734.62" y="463.6211"/><text fill="#000000" font-family="sans-serif" font-size="14" lengthAdjust="spacing" textLength="83.2344" x="743.3646" y="483.7285">SystemUsers</text><line style="stroke:#181818;stroke-width:0.5;" x1="735.62" x2="834.3436" y1="492.2422" y2="492.2422"/><text fill="#000000" font-family="sans-serif" font-size="14" lengthAdjust="spacing" textLength="25.6689" x="740.62" y="511.3496">mail</text><text fill="#000000" font-family="sans-serif" font-size="14" lengthAdjust="spacing" textLength="59.917" x="740.62" y="529.9707">password</text><text fill="#000000" font-family="sans-serif" font-size="14" lengthAdjust="spacing" textLength="35.0205" x="740.62" y="548.5918">name</text><text fill="#000000" font-family="sans-serif" font-size="14" lengthAdjust="spacing" textLength="22.5518" x="740.62" y="567.2129">NIF</text><text fill="#000000" font-family="sans-serif" font-size="14" lengthAdjust="spacing" textLength="88.7236" x="740.62" y="585.834">phoneNumber</text></g><!--class PlantFloorManager--><g id="elem_PlantFloorManager"><rect codeLine="28" fill="#ADD8E6" height="36.6211" id="PlantFloorManager" rx="2.5" ry="2.5" style="stroke:#181818;stroke-width:0.5;" width="125.0615" x="456.62" y="310.6211"/><text fill="#000000" font-family="sans-serif" font-size="14" lengthAdjust="spacing" textLength="119.0615" x="459.62" y="330.7285">PlantFloorManager</text><line style="stroke:#181818;stroke-width:0.5;" x1="457.62" x2="580.6815" y1="339.2422" y2="339.2422"/></g><!--class ProductionManager--><g id="elem_ProductionManager"><rect codeLine="31" fill="#ADD8E6" height="36.6211" id="ProductionManager" rx="2.5" ry="2.5" style="stroke:#181818;stroke-width:0.5;" width="128.1855" x="933.12" y="310.6211"/><text fill="#000000" font-family="sans-serif" font-size="14" lengthAdjust="spacing" textLength="122.1855" x="936.12" y="330.7285">ProductionManager</text><line style="stroke:#181818;stroke-width:0.5;" x1="934.12" x2="1060.3055" y1="339.2422" y2="339.2422"/></g><!--class RawMaterial--><g id="elem_RawMaterial"><rect codeLine="35" fill="#ADD8E6" height="55.2422" id="RawMaterial" rx="2.5" ry="2.5" style="stroke:#181818;stroke-width:0.5;" width="83.7998" x="48.12" y="853.1211"/><text fill="#000000" font-family="sans-serif" font-size="14" lengthAdjust="spacing" textLength="77.7998" x="51.12" y="873.2285">RawMaterial</text><line style="stroke:#181818;stroke-width:0.5;" x1="49.12" x2="130.9198" y1="881.7422" y2="881.7422"/><text fill="#000000" font-family="sans-serif" font-size="14" lengthAdjust="spacing" textLength="35.0205" x="54.12" y="900.8496">name</text></g><!--class Product--><g id="elem_Product"><rect codeLine="39" fill="#ADD8E6" height="73.8633" id="Product" rx="2.5" ry="2.5" style="stroke:#181818;stroke-width:0.5;" width="79.7031" x="812.12" y="843.6211"/><text fill="#000000" font-family="sans-serif" font-size="14" lengthAdjust="spacing" textLength="48.248" x="827.8475" y="863.7285">Product</text><line style="stroke:#181818;stroke-width:0.5;" x1="813.12" x2="890.8231" y1="872.2422" y2="872.2422"/><text fill="#000000" font-family="sans-serif" font-size="14" lengthAdjust="spacing" textLength="35.0205" x="818.12" y="891.3496">name</text><text fill="#000000" font-family="sans-serif" font-size="14" lengthAdjust="spacing" textLength="67.7031" x="818.12" y="909.9707">description</text></g><!--class Component--><g id="elem_Component"><rect codeLine="44" fill="#ADD8E6" height="55.2422" id="Component" rx="2.5" ry="2.5" style="stroke:#181818;stroke-width:0.5;" width="78.3789" x="206.12" y="853.1211"/><text fill="#000000" font-family="sans-serif" font-size="14" lengthAdjust="spacing" textLength="72.3789" x="209.12" y="873.2285">Component</text><line style="stroke:#181818;stroke-width:0.5;" x1="207.12" x2="283.4989" y1="881.7422" y2="881.7422"/><text fill="#000000" font-family="sans-serif" font-size="14" lengthAdjust="spacing" textLength="35.0205" x="212.12" y="900.8496">name</text></g><!--class Machine--><g id="elem_Machine"><rect codeLine="48" fill="#ADD8E6" height="92.4844" id="Machine" rx="2.5" ry="2.5" style="stroke:#181818;stroke-width:0.5;" width="103.041" x="55.62" y="482.6211"/><text fill="#000000" font-family="sans-serif" font-size="14" lengthAdjust="spacing" textLength="52.917" x="80.682" y="502.7285">Machine</text><line style="stroke:#181818;stroke-width:0.5;" x1="56.62" x2="157.661" y1="511.2422" y2="511.2422"/><text fill="#000000" font-family="sans-serif" font-size="14" lengthAdjust="spacing" textLength="10.8965" x="61.62" y="530.3496">id</text><text fill="#000000" font-family="sans-serif" font-size="14" lengthAdjust="spacing" textLength="91.041" x="61.62" y="548.9707">executionTime</text><text fill="#000000" font-family="sans-serif" font-size="14" lengthAdjust="spacing" textLength="65.3584" x="61.62" y="567.5918">setupTime</text></g><!--class Employee--><g id="elem_Employee"><rect codeLine="54" fill="#ADD8E6" height="129.7266" id="Employee" rx="2.5" ry="2.5" style="stroke:#181818;stroke-width:0.5;" width="100.7236" x="389.62" y="55.6211"/><text fill="#000000" font-family="sans-serif" font-size="14" lengthAdjust="spacing" textLength="62.2549" x="408.8544" y="75.7285">Employee</text><line style="stroke:#181818;stroke-width:0.5;" x1="390.62" x2="489.3436" y1="84.2422" y2="84.2422"/><text fill="#000000" font-family="sans-serif" font-size="14" lengthAdjust="spacing" textLength="35.0205" x="395.62" y="103.3496">name</text><text fill="#000000" font-family="sans-serif" font-size="14" lengthAdjust="spacing" textLength="22.5518" x="395.62" y="121.9707">NIF</text><text fill="#000000" font-family="sans-serif" font-size="14" lengthAdjust="spacing" textLength="88.7236" x="395.62" y="140.5918">phoneNumber</text><text fill="#000000" font-family="sans-serif" font-size="14" lengthAdjust="spacing" textLength="54.4824" x="395.62" y="159.2129">birthdate</text><text fill="#000000" font-family="sans-serif" font-size="14" lengthAdjust="spacing" textLength="25.6689" x="395.62" y="177.834">mail</text></g><!--class Operation--><g id="elem_Operation"><rect codeLine="62" fill="#ADD8E6" height="92.4844" id="Operation" rx="2.5" ry="2.5" style="stroke:#181818;stroke-width:0.5;" width="121.7373" x="218.12" y="672.6211"/><text fill="#000000" font-family="sans-serif" font-size="14" lengthAdjust="spacing" textLength="61.4824" x="248.2474" y="692.7285">Operation</text><line style="stroke:#181818;stroke-width:0.5;" x1="219.12" x2="338.8573" y1="701.2422" y2="701.2422"/><text fill="#000000" font-family="sans-serif" font-size="14" lengthAdjust="spacing" textLength="10.8965" x="224.12" y="720.3496">id</text><text fill="#000000" font-family="sans-serif" font-size="14" lengthAdjust="spacing" textLength="71.6133" x="224.12" y="738.9707">designation</text><text fill="#000000" font-family="sans-serif" font-size="14" lengthAdjust="spacing" textLength="109.7373" x="224.12" y="757.5918">expectedDuration</text></g><!--class Workstation--><g id="elem_Workstation"><rect codeLine="68" fill="#ADD8E6" height="111.1055" id="Workstation" rx="2.5" ry="2.5" style="stroke:#181818;stroke-width:0.5;" width="79.9102" x="203.12" y="273.6211"/><text fill="#000000" font-family="sans-serif" font-size="14" lengthAdjust="spacing" textLength="73.9102" x="206.12" y="293.7285">Workstation</text><line style="stroke:#181818;stroke-width:0.5;" x1="204.12" x2="282.0302" y1="302.2422" y2="302.2422"/><text fill="#000000" font-family="sans-serif" font-size="14" lengthAdjust="spacing" textLength="35.0205" x="209.12" y="321.3496">name</text><text fill="#000000" font-family="sans-serif" font-size="14" lengthAdjust="spacing" textLength="51.3584" x="209.12" y="339.9707">capacity</text><text fill="#000000" font-family="sans-serif" font-size="14" lengthAdjust="spacing" textLength="37.3516" x="209.12" y="358.5918">status</text><text fill="#000000" font-family="sans-serif" font-size="14" lengthAdjust="spacing" textLength="26.4619" x="209.12" y="377.2129">type</text></g><!--class Order--><g id="elem_Order"><rect codeLine="75" fill="#ADD8E6" height="73.8633" id="Order" rx="2.5" ry="2.5" style="stroke:#181818;stroke-width:0.5;" width="89.8135" x="328.12" y="491.6211"/><text fill="#000000" font-family="sans-serif" font-size="14" lengthAdjust="spacing" textLength="35.7861" x="355.1337" y="511.7285">Order</text><line style="stroke:#181818;stroke-width:0.5;" x1="329.12" x2="416.9335" y1="520.2422" y2="520.2422"/><text fill="#000000" font-family="sans-serif" font-size="14" lengthAdjust="spacing" textLength="62.2549" x="334.12" y="539.3496">orderDate</text><text fill="#000000" font-family="sans-serif" font-size="14" lengthAdjust="spacing" textLength="77.8135" x="334.12" y="557.9707">deliveryDate</text></g><!--class Client--><g id="elem_Client"><rect codeLine="81" fill="#ADD8E6" height="111.1055" id="Client" rx="2.5" ry="2.5" style="stroke:#181818;stroke-width:0.5;" width="100.7236" x="320.62" y="273.6211"/><text fill="#000000" font-family="sans-serif" font-size="14" lengthAdjust="spacing" textLength="35.793" x="353.0853" y="293.7285">Client</text><line style="stroke:#181818;stroke-width:0.5;" x1="321.62" x2="420.3436" y1="302.2422" y2="302.2422"/><text fill="#000000" font-family="sans-serif" font-size="14" lengthAdjust="spacing" textLength="35.0205" x="326.62" y="321.3496">name</text><text fill="#000000" font-family="sans-serif" font-size="14" lengthAdjust="spacing" textLength="22.5518" x="326.62" y="339.9707">NIF</text><text fill="#000000" font-family="sans-serif" font-size="14" lengthAdjust="spacing" textLength="88.7236" x="326.62" y="358.5918">phoneNumber</text><text fill="#000000" font-family="sans-serif" font-size="14" lengthAdjust="spacing" textLength="25.6689" x="326.62" y="377.2129">mail</text></g><!--class Address--><g id="elem_Address"><rect codeLine="88" fill="#ADD8E6" height="92.4844" id="Address" rx="2.5" ry="2.5" style="stroke:#181818;stroke-width:0.5;" width="60.2549" x="555.12" y="672.6211"/><text fill="#000000" font-family="sans-serif" font-size="14" lengthAdjust="spacing" textLength="51.3584" x="559.5682" y="692.7285">Address</text><line style="stroke:#181818;stroke-width:0.5;" x1="556.12" x2="614.3749" y1="701.2422" y2="701.2422"/><text fill="#000000" font-family="sans-serif" font-size="14" lengthAdjust="spacing" textLength="35.0137" x="561.12" y="720.3496">street</text><text fill="#000000" font-family="sans-serif" font-size="14" lengthAdjust="spacing" textLength="21" x="561.12" y="738.9707">city</text><text fill="#000000" font-family="sans-serif" font-size="14" lengthAdjust="spacing" textLength="48.2549" x="561.12" y="757.5918">zipcode</text></g><!--class ProductFamily--><g id="elem_ProductFamily"><rect codeLine="94" fill="#ADD8E6" height="55.2422" id="ProductFamily" rx="2.5" ry="2.5" style="stroke:#181818;stroke-width:0.5;" width="95.4688" x="804.62" y="996.6211"/><text fill="#000000" font-family="sans-serif" font-size="14" lengthAdjust="spacing" textLength="89.4688" x="807.62" y="1016.7285">ProductFamily</text><line style="stroke:#181818;stroke-width:0.5;" x1="805.62" x2="899.0888" y1="1025.2422" y2="1025.2422"/><text fill="#000000" font-family="sans-serif" font-size="14" lengthAdjust="spacing" textLength="35.0205" x="810.62" y="1044.3496">name</text></g><!--class Supplier--><g id="elem_Supplier"><rect codeLine="98" fill="#ADD8E6" height="92.4844" id="Supplier" rx="2.5" ry="2.5" style="stroke:#181818;stroke-width:0.5;" width="100.7236" x="43.62" y="672.6211"/><text fill="#000000" font-family="sans-serif" font-size="14" lengthAdjust="spacing" textLength="51.3652" x="68.2992" y="692.7285">Supplier</text><line style="stroke:#181818;stroke-width:0.5;" x1="44.62" x2="143.3436" y1="701.2422" y2="701.2422"/><text fill="#000000" font-family="sans-serif" font-size="14" lengthAdjust="spacing" textLength="35.0205" x="49.62" y="720.3496">name</text><text fill="#000000" font-family="sans-serif" font-size="14" lengthAdjust="spacing" textLength="88.7236" x="49.62" y="738.9707">phoneNumber</text><text fill="#000000" font-family="sans-serif" font-size="14" lengthAdjust="spacing" textLength="25.6689" x="49.62" y="757.5918">mail</text></g><!--class Activities--><g id="elem_Activities"><rect codeLine="104" fill="#ADD8E6" height="148.3477" id="Activities" rx="2.5" ry="2.5" style="stroke:#181818;stroke-width:0.5;" width="87.4893" x="525.62" y="46.6211"/><text fill="#000000" font-family="sans-serif" font-size="14" lengthAdjust="spacing" textLength="55.2344" x="541.7474" y="66.7285">Activities</text><line style="stroke:#181818;stroke-width:0.5;" x1="526.62" x2="612.1093" y1="75.2422" y2="75.2422"/><text fill="#000000" font-family="sans-serif" font-size="14" lengthAdjust="spacing" textLength="10.8965" x="531.62" y="94.3496">id</text><text fill="#000000" font-family="sans-serif" font-size="14" lengthAdjust="spacing" textLength="67.7031" x="531.62" y="112.9707">description</text><text fill="#000000" font-family="sans-serif" font-size="14" lengthAdjust="spacing" textLength="50.5928" x="531.62" y="131.5918">duration</text><text fill="#000000" font-family="sans-serif" font-size="14" lengthAdjust="spacing" textLength="75.4893" x="531.62" y="150.2129">durationUnit</text><text fill="#000000" font-family="sans-serif" font-size="14" lengthAdjust="spacing" textLength="25.6758" x="531.62" y="168.834">cost</text><text fill="#000000" font-family="sans-serif" font-size="14" lengthAdjust="spacing" textLength="50.5723" x="531.62" y="187.4551">costUnit</text></g><!--link Supplier to RawMaterial--><g id="link_Supplier_RawMaterial"><path codeLine="113" d="M43.36,756.8211 C32.32,767.6611 22.15,780.4511 16.12,794.6211 C6,818.3811 25.99,840.2411 47.73,855.8411 " fill="none" id="Supplier-RawMaterial" style="stroke:#181818;stroke-width:1.0;"/><polygon fill="#000000" points="21.3404,809.2617,23.8777,800.0959,18.0056,800.355,21.3404,809.2617" style="stroke:#000000;stroke-width:1.0;"/><text fill="#000000" font-family="sans-serif" font-size="13" lengthAdjust="spacing" textLength="49.1372" x="30.12" y="809.6494">provides</text><text fill="#000000" font-family="sans-serif" font-size="13" lengthAdjust="spacing" textLength="19.5127" x="15.9414" y="758.0124">1..*</text><text fill="#000000" font-family="sans-serif" font-size="13" lengthAdjust="spacing" textLength="19.5127" x="20.5168" y="847.5693">1..*</text></g><!--link Supplier to Component--><g id="link_Supplier_Component"><path codeLine="114" d="M144.11,764.7111 C154.26,774.3611 164.71,784.6511 174.12,794.6211 C191.81,813.3511 210.43,835.7611 224.16,852.8711 " fill="none" id="Supplier-Component" style="stroke:#181818;stroke-width:1.0;"/><polygon fill="#000000" points="199.4812,807.9683,195.5766,799.2962,191.225,803.2475,199.4812,807.9683" style="stroke:#000000;stroke-width:1.0;"/><text fill="#000000" font-family="sans-serif" font-size="13" lengthAdjust="spacing" textLength="49.1372" x="205.12" y="809.6494">provides</text><text fill="#000000" font-family="sans-serif" font-size="13" lengthAdjust="spacing" textLength="19.5127" x="131.3704" y="787.0837">1..*</text><text fill="#000000" font-family="sans-serif" font-size="13" lengthAdjust="spacing" textLength="19.5127" x="198.5115" y="841.9751">1..*</text></g><!--link Operation to RawMaterial--><g id="link_Operation_RawMaterial"><path codeLine="117" d="M217.88,741.7511 C177.87,757.3111 130.47,778.2011 116.12,794.6211 C101.9,810.8911 95.46,834.7811 92.54,853.1011 " fill="none" id="Operation-RawMaterial" style="stroke:#181818;stroke-width:1.0;"/><polygon fill="#000000" points="117.382,807.5874,126.096,803.7772,122.1922,799.3829,117.382,807.5874" style="stroke:#000000;stroke-width:1.0;"/><text fill="#000000" font-family="sans-serif" font-size="13" lengthAdjust="spacing" textLength="35.4199" x="130.12" y="809.6494">needs</text><text fill="#000000" font-family="sans-serif" font-size="13" lengthAdjust="spacing" textLength="19.5127" x="190.7455" y="740.4598">1..*</text><text fill="#000000" font-family="sans-serif" font-size="13" lengthAdjust="spacing" textLength="19.5127" x="71.9852" y="841.8054">0..*</text></g><!--link Operation to Component--><g id="link_Operation_Component"><path codeLine="118" d="M282.74,765.0811 C282.9,780.6511 281.87,798.0711 278.12,813.6211 C274.81,827.3211 268.25,841.4311 261.84,853.0711 " fill="none" id="Operation-Component" style="stroke:#181818;stroke-width:1.0;"/><polygon fill="#000000" points="285.9645,809.1313,290.9142,801.0102,285.1954,799.6518,285.9645,809.1313" style="stroke:#000000;stroke-width:1.0;"/><text fill="#000000" font-family="sans-serif" font-size="13" lengthAdjust="spacing" textLength="35.4199" x="296.12" y="809.6494">needs</text><text fill="#000000" font-family="sans-serif" font-size="13" lengthAdjust="spacing" textLength="19.5127" x="262.9333" y="787.1675">1..*</text><text fill="#000000" font-family="sans-serif" font-size="13" lengthAdjust="spacing" textLength="19.5127" x="244.5251" y="841.7685">0..*</text></g><!--link Administrator to SystemUsers--><g id="link_Administrator_SystemUsers"><path codeLine="120" d="M832.2,347.6711 C845.86,368.2311 864.04,403.3411 854.12,433.6211 C849.93,446.4111 843.26,458.9011 835.68,470.3811 " fill="none" id="Administrator-SystemUsers" style="stroke:#181818;stroke-width:1.0;"/><polygon fill="#000000" points="861.2617,429.2646,863.9431,420.1398,858.0676,420.3065,861.2617,429.2646" style="stroke:#000000;stroke-width:1.0;"/><text fill="#000000" font-family="sans-serif" font-size="13" lengthAdjust="spacing" textLength="20.23" x="870.12" y="429.6494">is a</text><text fill="#000000" font-family="sans-serif" font-size="13" lengthAdjust="spacing" textLength="7.23" x="827.8608" y="369.4014">1</text><text fill="#000000" font-family="sans-serif" font-size="13" lengthAdjust="spacing" textLength="7.23" x="843.3178" y="458.0638">1</text></g><!--link Administrator to SystemUsers--><g id="link_Administrator_SystemUsers"><path codeLine="123" d="M807.65,347.7011 C797.61,364.2111 783.78,389.9911 778.12,414.6211 C774.53,430.2311 773.94,447.3611 774.79,463.4511 " fill="none" id="Administrator-SystemUsers-1" style="stroke:#181818;stroke-width:1.0;"/><polygon fill="#000000" points="781.7545,429.0765,787.0519,421.1779,781.3975,419.5727,781.7545,429.0765" style="stroke:#000000;stroke-width:1.0;"/><text fill="#000000" font-family="sans-serif" font-size="13" lengthAdjust="spacing" textLength="53.479" x="792.12" y="429.6494">manages</text><text fill="#000000" font-family="sans-serif" font-size="13" lengthAdjust="spacing" textLength="19.5127" x="782.7584" y="369.4399">1..*</text><text fill="#000000" font-family="sans-serif" font-size="13" lengthAdjust="spacing" textLength="19.5127" x="753.6642" y="452.4526">1..*</text></g><!--link ProductionManager to SystemUsers--><g id="link_ProductionManager_SystemUsers"><path codeLine="121" d="M981.45,347.9711 C962.6,369.1211 929.68,405.0811 899.12,433.6211 C879.05,452.3511 855.85,471.8511 835.63,488.1911 " fill="none" id="ProductionManager-SystemUsers" style="stroke:#181818;stroke-width:1.0;"/><polygon fill="#000000" points="919.5159,427.7323,928.0728,423.5812,923.9987,419.3444,919.5159,427.7323" style="stroke:#000000;stroke-width:1.0;"/><text fill="#000000" font-family="sans-serif" font-size="13" lengthAdjust="spacing" textLength="20.23" x="932.12" y="429.6494">is a</text><text fill="#000000" font-family="sans-serif" font-size="13" lengthAdjust="spacing" textLength="7.23" x="969.304" y="369.4397">1</text><text fill="#000000" font-family="sans-serif" font-size="13" lengthAdjust="spacing" textLength="7.23" x="843.2608" y="478.3783">1</text></g><!--link PlantFloorManager to SystemUsers--><g id="link_PlantFloorManager_SystemUsers"><path codeLine="122" d="M557.41,347.7511 C589.25,363.2511 635.03,387.5111 671.12,414.6211 C693.4,431.3611 715.67,452.2611 734.53,471.5211 " fill="none" id="PlantFloorManager-SystemUsers" style="stroke:#181818;stroke-width:1.0;"/><polygon fill="#000000" points="700.2185,427.1306,694.4877,419.5406,691.1208,424.3586,700.2185,427.1306" style="stroke:#000000;stroke-width:1.0;"/><text fill="#000000" font-family="sans-serif" font-size="13" lengthAdjust="spacing" textLength="20.23" x="705.12" y="429.6494">is a</text><text fill="#000000" font-family="sans-serif" font-size="13" lengthAdjust="spacing" textLength="7.23" x="559.7824" y="369.1606">1</text><text fill="#000000" font-family="sans-serif" font-size="13" lengthAdjust="spacing" textLength="7.23" x="719.2862" y="458.5476">1</text></g><!--link PlantFloorManager to ProductionLine--><g id="link_PlantFloorManager_ProductionLine"><path codeLine="124" d="M509.22,347.7311 C495.16,371.0611 467.2,411.8011 432.12,433.6211 C384.7,463.1111 359.07,436.7611 310.12,463.6211 C288.82,475.3011 269.34,495.4711 256.94,510.0511 " fill="none" id="PlantFloorManager-ProductionLine" style="stroke:#181818;stroke-width:1.0;"/><polygon fill="#000000" points="455.9152,426.972,465.112,424.5494,461.9316,419.6063,455.9152,426.972" style="stroke:#000000;stroke-width:1.0;"/><text fill="#000000" font-family="sans-serif" font-size="13" lengthAdjust="spacing" textLength="50.5781" x="469.12" y="429.6494">specifies</text><text fill="#000000" font-family="sans-serif" font-size="13" lengthAdjust="spacing" textLength="19.5127" x="485.0669" y="369.1352">1..*</text><text fill="#000000" font-family="sans-serif" font-size="13" lengthAdjust="spacing" textLength="19.5127" x="239.2803" y="498.8918">1..*</text></g><!--link Workstation to Machine--><g id="link_Workstation_Machine"><path codeLine="125" d="M205.41,384.8711 C184.27,415.5811 158.21,453.4311 138.23,482.4311 " fill="none" id="Workstation-Machine" style="stroke:#181818;stroke-width:1.0;"/><polygon fill="#000000" points="186.2843,428.3847,193.8347,422.6018,188.9936,419.2682,186.2843,428.3847" style="stroke:#000000;stroke-width:1.0;"/><text fill="#000000" font-family="sans-serif" font-size="13" lengthAdjust="spacing" textLength="20.96" x="198.12" y="429.6494">has</text><text fill="#000000" font-family="sans-serif" font-size="13" lengthAdjust="spacing" textLength="7.23" x="193.407" y="406.7412">1</text><text fill="#000000" font-family="sans-serif" font-size="13" lengthAdjust="spacing" textLength="19.5127" x="122.4386" y="471.4126">0..*</text></g><!--link ProductionManager to Product--><g id="link_ProductionManager_Product"><path codeLine="126" d="M992.46,347.7811 C972,425.3011 889.93,736.3311 861.71,843.2811 " fill="none" id="ProductionManager-Product" style="stroke:#181818;stroke-width:1.0;"/><polygon fill="#000000" points="922.8443,638.1011,927.9937,630.1052,922.3104,628.6056,922.8443,638.1011" style="stroke:#000000;stroke-width:1.0;"/><text fill="#000000" font-family="sans-serif" font-size="13" lengthAdjust="spacing" textLength="53.479" x="933.12" y="638.6494">manages</text><text fill="#000000" font-family="sans-serif" font-size="13" lengthAdjust="spacing" textLength="19.5127" x="993.8047" y="369.1987">1..*</text><text fill="#000000" font-family="sans-serif" font-size="13" lengthAdjust="spacing" textLength="19.5127" x="842.795" y="832.4674">1..*</text></g><!--link Operation to Product--><g id="link_Operation_Product"><path codeLine="127" d="M340.17,736.6711 C457.82,769.5211 713.06,840.7911 811.89,868.3911 " fill="none" id="Operation-Product" style="stroke:#181818;stroke-width:1.0;"/><polygon fill="#000000" points="599.3042,802.9219,607.2256,808.1852,608.8065,802.5239,599.3042,802.9219" style="stroke:#000000;stroke-width:1.0;"/><text fill="#000000" font-family="sans-serif" font-size="13" lengthAdjust="spacing" textLength="59.9727" x="613.12" y="809.6494">is made of</text><text fill="#000000" font-family="sans-serif" font-size="13" lengthAdjust="spacing" textLength="19.5127" x="347.9288" y="734.7334">1..*</text><text fill="#000000" font-family="sans-serif" font-size="13" lengthAdjust="spacing" textLength="19.5127" x="784.7205" y="862.0214">1..*</text></g><!--link Order to Operation--><g id="link_Order_Operation"><path codeLine="128" d="M354.99,565.8711 C339.79,596.2811 318,639.8511 301.67,672.5111 " fill="none" id="Order-Operation" style="stroke:#181818;stroke-width:1.0;"/><polygon fill="#000000" points="328.8839,637.7387,335.5577,630.9629,330.3004,628.3342,328.8839,637.7387" style="stroke:#000000;stroke-width:1.0;"/><text fill="#000000" font-family="sans-serif" font-size="13" lengthAdjust="spacing" textLength="20.96" x="340.12" y="638.6494">has</text><text fill="#000000" font-family="sans-serif" font-size="13" lengthAdjust="spacing" textLength="7.23" x="344.442" y="587.5122">1</text><text fill="#000000" font-family="sans-serif" font-size="13" lengthAdjust="spacing" textLength="19.5127" x="284.6437" y="661.5044">1..*</text></g><!--link Client to Order--><g id="link_Client_Order"><path codeLine="129" d="M371.67,384.8711 C372.02,418.8911 372.45,461.6711 372.75,491.4811 " fill="none" id="Client-Order" style="stroke:#181818;stroke-width:1.0;"/><polygon fill="#000000" points="377.1706,429.2663,380.0178,420.192,374.1402,420.2515,377.1706,429.2663" style="stroke:#000000;stroke-width:1.0;"/><text fill="#000000" font-family="sans-serif" font-size="13" lengthAdjust="spacing" textLength="37.5781" x="386.12" y="429.6494">places</text><text fill="#000000" font-family="sans-serif" font-size="13" lengthAdjust="spacing" textLength="7.23" x="364.3413" y="406.7412">1</text><text fill="#000000" font-family="sans-serif" font-size="13" lengthAdjust="spacing" textLength="19.5127" x="352.0542" y="480.4179">1..*</text></g><!--link Machine to Operation--><g id="link_Machine_Operation"><path codeLine="130" d="M108.7,574.7111 C111.53,597.1011 118.16,623.4011 133.12,642.6211 C154.29,669.8311 188.06,688.0811 217.8,699.7511 " fill="none" id="Machine-Operation" style="stroke:#181818;stroke-width:1.0;"/><polygon fill="#000000" points="141.4072,637.0341,137.6751,628.2864,133.2461,632.1508,141.4072,637.0341" style="stroke:#000000;stroke-width:1.0;"/><text fill="#000000" font-family="sans-serif" font-size="13" lengthAdjust="spacing" textLength="59.249" x="147.12" y="638.6494">processes</text><text fill="#000000" font-family="sans-serif" font-size="13" lengthAdjust="spacing" textLength="19.5127" x="88.5234" y="597.0837">1..*</text><text fill="#000000" font-family="sans-serif" font-size="13" lengthAdjust="spacing" textLength="7.23" x="202.9301" y="693.4319">1</text></g><!--link Employee to Workstation--><g id="link_Employee_Workstation"><path codeLine="131" d="M389.38,174.8011 C356.32,209.4511 313.79,254.0411 283.12,286.1911 " fill="none" id="Employee-Workstation" style="stroke:#181818;stroke-width:1.0;"/><polygon fill="#000000" points="343.6688,237.8845,352.0386,233.3683,347.7856,229.3111,343.6688,237.8845" style="stroke:#000000;stroke-width:1.0;"/><text fill="#000000" font-family="sans-serif" font-size="13" lengthAdjust="spacing" textLength="50.5908" x="356.12" y="239.6494">operates</text><text fill="#000000" font-family="sans-serif" font-size="13" lengthAdjust="spacing" textLength="19.5127" x="361.9642" y="178.2929">0..*</text><text fill="#000000" font-family="sans-serif" font-size="13" lengthAdjust="spacing" textLength="19.5127" x="291.0571" y="275.0375">0..*</text></g><!--link Workstation to ProductionLine--><g id="link_Workstation_ProductionLine"><path codeLine="132" d="M243.12,384.8711 C243.12,426.8811 243.12,482.2511 243.12,510.0711 " fill="none" id="Workstation-ProductionLine" style="stroke:#181818;stroke-width:1.0;"/><polygon fill="#000000" points="248.12,429.2666,251.0589,420.2215,245.1811,420.2215,248.12,429.2666" style="stroke:#000000;stroke-width:1.0;"/><text fill="#000000" font-family="sans-serif" font-size="13" lengthAdjust="spacing" textLength="36.8545" x="257.12" y="429.6494">part of</text><text fill="#000000" font-family="sans-serif" font-size="13" lengthAdjust="spacing" textLength="7.23" x="235.7129" y="406.7412">1</text><text fill="#000000" font-family="sans-serif" font-size="13" lengthAdjust="spacing" textLength="19.5127" x="221.228" y="498.9179">1..*</text></g><!--link Client to Address--><g id="link_Client_Address"><path codeLine="133" d="M412.43,384.7211 C419.28,394.5011 426.1,404.7311 432.12,414.6211 C485.78,502.8611 537.67,612.2811 565.07,672.5311 " fill="none" id="Client-Address" style="stroke:#181818;stroke-width:1.0;"/><polygon fill="#000000" points="533.4627,533.1838,531.8211,523.816,526.6284,526.57,533.4627,533.1838" style="stroke:#000000;stroke-width:1.0;"/><text fill="#000000" font-family="sans-serif" font-size="13" lengthAdjust="spacing" textLength="20.96" x="540.12" y="534.1494">has</text><text fill="#000000" font-family="sans-serif" font-size="13" lengthAdjust="spacing" textLength="19.5127" x="397.3549" y="406.5729">1..*</text><text fill="#000000" font-family="sans-serif" font-size="13" lengthAdjust="spacing" textLength="7.23" x="554.6093" y="661.5273">1</text></g><!--link Order to Address--><g id="link_Order_Address"><path codeLine="134" d="M376.78,565.8511 C380.96,590.1811 389.93,621.5311 409.12,642.6211 C448.12,685.4911 515.73,704.7611 554.82,712.6911 " fill="none" id="Order-Address" style="stroke:#181818;stroke-width:1.0;"/><polygon fill="#000000" points="417.9773,636.448,412.8693,628.4255,409.1294,632.9601,417.9773,636.448" style="stroke:#000000;stroke-width:1.0;"/><text fill="#000000" font-family="sans-serif" font-size="13" lengthAdjust="spacing" textLength="85.2808" x="423.12" y="638.6494">to be delivered</text><text fill="#000000" font-family="sans-serif" font-size="13" lengthAdjust="spacing" textLength="19.5127" x="356.8707" y="587.4889">0..*</text><text fill="#000000" font-family="sans-serif" font-size="13" lengthAdjust="spacing" textLength="7.23" x="540.0009" y="706.3601">1</text></g><!--link Employee to Address--><g id="link_Employee_Address"><path codeLine="135" d="M490.75,177.2211 C496.52,183.1811 502.39,189.0911 508.12,194.6211 C546.65,231.8211 576.89,224.8911 599.12,273.6211 C631.04,343.6111 604.71,574.1611 591.53,672.5111 " fill="none" id="Employee-Address" style="stroke:#181818;stroke-width:1.0;"/><polygon fill="#000000" points="619.117,429.1662,620.1934,419.7167,614.4335,420.8887,619.117,429.1662" style="stroke:#000000;stroke-width:1.0;"/><text fill="#000000" font-family="sans-serif" font-size="13" lengthAdjust="spacing" textLength="20.96" x="627.12" y="429.6494">has</text><text fill="#000000" font-family="sans-serif" font-size="13" lengthAdjust="spacing" textLength="19.5127" x="498.0273" y="180.8724">1..*</text><text fill="#000000" font-family="sans-serif" font-size="13" lengthAdjust="spacing" textLength="7.23" x="584.9556" y="661.5044">1</text></g><!--link SystemUsers to Address--><g id="link_SystemUsers_Address"><path codeLine="136" d="M734.39,577.3011 C696.78,612.6611 646.77,659.6711 615.26,689.2911 " fill="none" id="SystemUsers-Address" style="stroke:#181818;stroke-width:1.0;"/><polygon fill="#000000" points="686.477,636.6913,695.0802,632.6373,691.0543,628.3547,686.477,636.6913" style="stroke:#000000;stroke-width:1.0;"/><text fill="#000000" font-family="sans-serif" font-size="13" lengthAdjust="spacing" textLength="20.96" x="699.12" y="638.6494">has</text><text fill="#000000" font-family="sans-serif" font-size="13" lengthAdjust="spacing" textLength="19.5127" x="706.9756" y="580.0194">1..*</text><text fill="#000000" font-family="sans-serif" font-size="13" lengthAdjust="spacing" textLength="7.23" x="623.4567" y="677.0748">1</text></g><!--link Product to ProductFamily--><g id="link_Product_ProductFamily"><path codeLine="137" d="M852.12,917.6911 C852.12,942.2611 852.12,974.2311 852.12,996.5011 " fill="none" id="Product-ProductFamily" style="stroke:#181818;stroke-width:1.0;"/><polygon fill="#000000" points="857.12,962.2666,860.0589,953.2215,854.1811,953.2215,857.12,962.2666" style="stroke:#000000;stroke-width:1.0;"/><text fill="#000000" font-family="sans-serif" font-size="13" lengthAdjust="spacing" textLength="49.8545" x="866.12" y="962.6494">is part of</text><text fill="#000000" font-family="sans-serif" font-size="13" lengthAdjust="spacing" textLength="19.5127" x="831.5568" y="939.5885">1..*</text><text fill="#000000" font-family="sans-serif" font-size="13" lengthAdjust="spacing" textLength="7.23" x="844.283" y="985.1823">1</text></g><!--link ProductionLine to Operation--><g id="link_ProductionLine_Operation"><path codeLine="138" d="M233.27,547.2211 C221.99,569.7811 206.48,609.8711 218.12,642.6211 C221.83,653.0611 227.68,663.1011 234.32,672.2511 " fill="none" id="ProductionLine-Operation" style="stroke:#181818;stroke-width:1.0;"/><polygon fill="#000000" points="223.162,638.2664,226.0249,629.197,220.1472,629.2463,223.162,638.2664" style="stroke:#000000;stroke-width:1.0;"/><text fill="#000000" font-family="sans-serif" font-size="13" lengthAdjust="spacing" textLength="61.4136" x="232.12" y="638.6494">consists of</text><text fill="#000000" font-family="sans-serif" font-size="13" lengthAdjust="spacing" textLength="7.23" x="222.6594" y="568.6226">1</text><text fill="#000000" font-family="sans-serif" font-size="13" lengthAdjust="spacing" textLength="19.5127" x="207.4016" y="661.2062">1..*</text></g><!--SRC=[XLPDRzim3BthLmZPOHz0Y_Oo3C4m86jQeC3I5akBdHMBYRdAaY79xToW_tsq_2MxRj9BfV2HV7oacBX7rBcm8kE94ixz5CdZpff2omkZZEKV5ilbjyklp7Mmd11Y1sjVAk0M4Y_qJa44SAcGvXdrZc-5Sh4bP5XuRt5JUBXEZ5xZ2_0pbg84dg1DA50uP-1J8ntxg63hkJVSuYxrN6AL48rcZ7dqHE3Ech_q4L-QJA3cAoD1CHOILJPP1FWlrB1dxBMrB6I66fstmXiR6zQbyv0zEB1kppZzKLGL3ZcPdusLuQ951k5mStrLMrEZuQR8Dc3xO7TAQ7-bZB4heKcoEjEOMsnhZB_5yqfui2WKt_S9NqU5nRRg8C4b5lEWJuUzC5bEtBIVZBGIIKhQD3QiguD_a1HLb7ji8ZlmHHvkdUTbbYjJ0en9J2bItJTeVIgfgbxMBjPj3jG9IZZaGVNWJWT3mokdLeDS5ZMw3_37s4Vdun0TdqJGmA8lwpe8KxXmz6KULNDh9TZ6DQ_L_UG-XwkfJCkME8qNFe4jmmUzo0f72X-IObZyGaeBz7_VCBG0lcRUidx1FA6vVjF_Av6XAYVxkYxod3ZP4QCZJ6WUdz0Zk3TzwEOgt5lzuyk3neQsSVqXV4e9MZvyTdvw-cN6JqxQKpphyqhx9th_ZlyuuDAFzC21iNwE8f-pYJGQG5Ok1npY92sS3VR6xBmXDOlNnfoZuuB0RrxuCVnuMnp1ZxYCD1fuP26WcquoSXmkpJbtzEPmYy4xVcOjkrgjPe_CUIhSLEtylJmnkSbk3D0yL9y9-eOmM_wTrS-s4of0-oWjc-PrZc31bGP8YIHaRrTXd7iOZMQDe2wWk_NN2D1B4OiqvoRulwlUbEPL9c5zLM74FIRLheosm4Q6isaCVNjke5rS80Va3uQDPkW8ictF43LSKw5rVM6Zcj_l8VrAS3JcBhZz1m00]--></g></svg>