<svg id="Camada_1" data-name="Camada 1" xmlns="http://www.w3.org/2000/svg" xmlns:xlink="http://www.w3.org/1999/xlink" viewBox="0 0 1304.4 337.06"><defs><style>.cls-1{fill:#fff;}.cls-2{fill:url(#Gradiente_sem_nome_125);}.cls-3{fill:url(#Gradiente_sem_nome_125-2);}.cls-4{fill:url(#Gradiente_sem_nome_125-3);}.cls-5{fill:url(#Gradiente_sem_nome_125-4);}.cls-6{fill:url(#Gradiente_sem_nome_125-5);}.cls-7{fill:url(#Gradiente_sem_nome_125-6);}.cls-8{fill:url(#Gradiente_sem_nome_125-7);}.cls-9{fill:url(#Gradiente_sem_nome_125-8);}.cls-10{fill:url(#Gradiente_sem_nome_125-9);}.cls-11{fill:url(#Gradiente_sem_nome_125-10);}</style><linearGradient id="Gradiente_sem_nome_125" x1="412.01" y1="277.36" x2="412.01" y2="59.69" gradientUnits="userSpaceOnUse"><stop offset="0" stop-color="#226076"/><stop offset="1" stop-color="#067eab"/></linearGradient><linearGradient id="Gradiente_sem_nome_125-2" x1="577.21" y1="198.84" x2="577.21" y2="138.13" xlink:href="#Gradiente_sem_nome_125"/><linearGradient id="Gradiente_sem_nome_125-3" x1="631.72" y1="198.84" x2="631.72" y2="138.21" xlink:href="#Gradiente_sem_nome_125"/><linearGradient id="Gradiente_sem_nome_125-4" x1="667.74" y1="198.84" x2="667.74" y2="138.21" xlink:href="#Gradiente_sem_nome_125"/><linearGradient id="Gradiente_sem_nome_125-5" x1="699.94" y1="198.84" x2="699.94" y2="138.21" xlink:href="#Gradiente_sem_nome_125"/><linearGradient id="Gradiente_sem_nome_125-6" x1="751.41" y1="198.84" x2="751.41" y2="138.13" xlink:href="#Gradiente_sem_nome_125"/><linearGradient id="Gradiente_sem_nome_125-7" x1="802.88" y1="198.84" x2="802.88" y2="138.21" xlink:href="#Gradiente_sem_nome_125"/><linearGradient id="Gradiente_sem_nome_125-8" x1="848.72" y1="198.84" x2="848.72" y2="138.21" xlink:href="#Gradiente_sem_nome_125"/><linearGradient id="Gradiente_sem_nome_125-9" x1="902.65" y1="198.84" x2="902.65" y2="138.13" xlink:href="#Gradiente_sem_nome_125"/><linearGradient id="Gradiente_sem_nome_125-10" x1="969.35" y1="198.92" x2="969.35" y2="138.21" xlink:href="#Gradiente_sem_nome_125"/></defs><rect class="cls-1" width="1304.4" height="337.06" rx="20.92"/><circle class="cls-2" cx="412.01" cy="168.53" r="108.83"/><polygon class="cls-1" points="398.86 211.81 398.58 211.98 387.41 218.44 412.01 232.69 423.46 226.05 399.28 212.06 398.86 211.81 398.86 211.81"/><polygon class="cls-1" points="436.64 147.18 405.86 165.01 405.86 200.65 436.6 218.46 436.64 218.48 467.42 200.65 467.42 165.02 436.64 147.18 436.64 147.18"/><polygon class="cls-1" points="374.31 169.82 356.6 180.08 356.6 200.57 374.31 210.83 392.01 200.57 392.01 180.08 374.31 169.81 374.31 169.82"/><polygon class="cls-1" points="412.01 104.37 356.6 136.45 356.6 164.85 367.74 158.41 374.3 154.6 380.87 158.41 392.72 165.27 392.72 157.41 399.28 153.6 430.07 135.78 436.64 131.98 443.2 135.78 467.42 149.8 467.42 136.44 412.01 104.37"/><path class="cls-3" d="M601.9,180.85a18.78,18.78,0,0,1-.78,5.18,18,18,0,0,1-2.43,5.13,18.37,18.37,0,0,1-4.2,4.35,15.91,15.91,0,0,1-6,2.76c-.44.1-1,.23-1.77.37s-1.17.2-1.28.2H552.53V138.13h33.32a5.25,5.25,0,0,1,1.12.17c.46.11.94.24,1.44.41l1.31.45a3.53,3.53,0,0,0,.66.2c.27.11.63.28,1.07.5l1.32.65a16,16,0,0,1,3.45,2.43,17.05,17.05,0,0,1,2.68,3.12,19,19,0,0,1,1.81,3.45,13,13,0,0,1,.86,3.33,14.23,14.23,0,0,1,.25,2c0,.82.08,1.29.08,1.4a19.7,19.7,0,0,1-1.11,6.2,17.1,17.1,0,0,1-3.65,6.12c.1.11.23.24.36.41s.26.3.37.41a13.56,13.56,0,0,1,3.09,5.5A21.66,21.66,0,0,1,601.9,180.85Zm-12.4-24.73a5.31,5.31,0,0,0-.21-1.35,7.24,7.24,0,0,0-.62-1.56,5.35,5.35,0,0,0-1.11-1.44,3.61,3.61,0,0,0-1.68-.9,6.47,6.47,0,0,1-.74-.25,1.88,1.88,0,0,0-.57-.17H564.93v11.42h19.39a2.79,2.79,0,0,0,.74-.2l1-.37.49-.21a4.08,4.08,0,0,0,.49-.28,3.52,3.52,0,0,0,1-.91,6.75,6.75,0,0,0,.78-1.27,7.47,7.47,0,0,0,.49-1.36A4.77,4.77,0,0,0,589.5,156.12Zm0,24.69a4.92,4.92,0,0,0-.17-1.16,7.47,7.47,0,0,0-.49-1.36A5.76,5.76,0,0,0,588,177a3.86,3.86,0,0,0-1.15-.91,1,1,0,0,0-.41-.24,3.69,3.69,0,0,1-.41-.17c-.28-.11-.62-.24-1-.37a4.91,4.91,0,0,0-.7-.21H564.93v11.42h19.39a1.19,1.19,0,0,0,.7-.08c.35-.11.64-.2.86-.25a4.35,4.35,0,0,0,2.67-2.24A6.67,6.67,0,0,0,589.5,180.81Z"/><path class="cls-4" d="M657.1,174.85c0,.11,0,.41-.08.91s-.11.9-.16,1.23a25.42,25.42,0,0,1-1.4,5.46,30.42,30.42,0,0,1-2.63,5.22,21,21,0,0,1-4,4.6,24,24,0,0,1-4.73,3.37c-.44.22-.89.45-1.35.7s-1,.47-1.44.69a23.68,23.68,0,0,1-4.65,1.36,26.83,26.83,0,0,1-4.9.45,28.05,28.05,0,0,1-2.84-.16c-1.07-.11-2-.25-2.92-.41a29.92,29.92,0,0,1-5.55-2,22,22,0,0,1-5.56-3.77,26,26,0,0,1-3.91-4.36,22.43,22.43,0,0,1-2.59-4.68c-.27-.66-.57-1.53-.9-2.63-.11-.27-.22-.59-.33-.94a8.5,8.5,0,0,1-.25-.95c0-.33-.12-.71-.2-1.15s-.16-.86-.21-1.27-.1-.76-.12-1,0-.44,0-.49V138.21h12.4v36.48a.57.57,0,0,0,0,.25.49.49,0,0,1,0,.24,11.47,11.47,0,0,0,.29,1.44q.21.78.45,1.44a13.17,13.17,0,0,0,5.34,6.53A12.78,12.78,0,0,0,635.33,186a12.12,12.12,0,0,0,3.62-1.72,13,13,0,0,0,3.08-3,13.5,13.5,0,0,0,2.09-4.27,8.37,8.37,0,0,0,.37-1.32,8.11,8.11,0,0,0,.21-1.06v-36.4h12.4Z"/><path class="cls-5" d="M673.94,198.84h-12.4V138.21h12.4Z"/><path class="cls-6" d="M721.43,198.84h-43V138.21h12.41v48.31h30.56Z"/><path class="cls-7" d="M776.88,168.69a30.77,30.77,0,0,1-5.18,16.76,30.34,30.34,0,0,1-16.43,12.16c-.27,0-.7.15-1.27.29l-1.85.41c-.66.13-1.32.26-2,.37a9.72,9.72,0,0,1-1.48.16H725.94V138.13H748.7a10.39,10.39,0,0,1,2,.29c.88.19,1.75.4,2.63.62s1.67.43,2.38.65,1.18.36,1.4.41a28.21,28.21,0,0,1,4.07,1.85,31.63,31.63,0,0,1,4.27,2.84,30,30,0,0,1,3.94,3.73A24.89,24.89,0,0,1,772.6,153l.7,1.23c.25.44.48.91.7,1.4a42.29,42.29,0,0,1,2.18,6.49A28.91,28.91,0,0,1,776.88,168.69Zm-12.41-.49a16.55,16.55,0,0,0-.7-4.64,18.79,18.79,0,0,0-2.13-4.73,18.22,18.22,0,0,0-3.66-4.19,18,18,0,0,0-5.17-3c-.22,0-.54-.15-.95-.28a13,13,0,0,0-1.35-.37l-1.44-.33a5.37,5.37,0,0,0-1.19-.17h-9.53v36.07H748a8,8,0,0,0,1.81-.25c.71-.16,1.23-.3,1.56-.41a17.36,17.36,0,0,0,10.19-7.35,16.69,16.69,0,0,0,2.21-5A21.6,21.6,0,0,0,764.47,168.2Z"/><path class="cls-8" d="M824.36,150.54H793.8v11.83H809v12.32H793.8v24.15H781.39V138.21h43Z"/><path class="cls-9" d="M870.2,198.84h-43V138.21h12.41v48.31H870.2Z"/><path class="cls-10" d="M933,168.61a29.42,29.42,0,0,1-2.38,11.83,30.37,30.37,0,0,1-6.5,9.57,31.19,31.19,0,0,1-9.63,6.45,30.67,30.67,0,0,1-23.69,0,31.27,31.27,0,0,1-9.66-6.49,30.33,30.33,0,0,1-6.54-9.61,30.37,30.37,0,0,1,0-23.62,30.57,30.57,0,0,1,6.54-9.69,30.89,30.89,0,0,1,9.66-6.54,29.65,29.65,0,0,1,11.85-2.38,29.21,29.21,0,0,1,11.92,2.43,30.52,30.52,0,0,1,16.09,16.26A30,30,0,0,1,933,168.61Zm-12.4,0a19.63,19.63,0,0,0-.66-4.93,16.6,16.6,0,0,0-2.14-4.85,18.67,18.67,0,0,0-3.78-4.23,19,19,0,0,0-5.58-3.16,7.46,7.46,0,0,0-1.56-.37,13.37,13.37,0,0,1-1.56-.29,12.45,12.45,0,0,0-1.73-.24l-1.15-.09a16.82,16.82,0,0,0-3.94.5,18.19,18.19,0,0,0-4.11,1.56,18.86,18.86,0,0,0-3.9,2.71,17.3,17.3,0,0,0-3.25,3.94,16.53,16.53,0,0,0-2.21,5.67c-.11.6-.21,1.21-.29,1.81a15,15,0,0,0-.12,2,17.17,17.17,0,0,0,1.39,6.86,18.17,18.17,0,0,0,3.86,5.71,18.74,18.74,0,0,0,5.75,3.9,17.22,17.22,0,0,0,7,1.44,17.48,17.48,0,0,0,6.9-1.4,18.35,18.35,0,0,0,5.75-3.82,18.15,18.15,0,0,0,3.9-5.67A17.09,17.09,0,0,0,920.64,168.61Z"/><path class="cls-11" d="M1001.22,138.21l-8.46,60.71H979.62L969.35,178.3l-10.27,20.62H945.94l-8.46-60.71h12.4l5.67,39.93,13.8-27.52,13.8,27.52,5.67-39.93Z"/></svg>