<svg xmlns="http://www.w3.org/2000/svg" xmlns:xlink="http://www.w3.org/1999/xlink" contentStyleType="text/css" height="966px" preserveAspectRatio="none" style="width:1165px;height:966px;background:#FFFFFF;" version="1.1" viewBox="0 0 1165 966" width="1165px" zoomAndPan="magnify"><defs/><g><rect fill="#FFFFFF" height="771.4023" style="stroke:#181818;stroke-width:1.0;" width="10" x="19.3379" y="93.6211"/><rect fill="#FFFFFF" height="62.582" style="stroke:#181818;stroke-width:1.0;" width="10" x="225.6968" y="116.9121"/><rect fill="#FFFFFF" height="31.291" style="stroke:#181818;stroke-width:1.0;" width="10" x="225.6968" y="210.7852"/><rect fill="#FFFFFF" height="31.291" style="stroke:#181818;stroke-width:1.0;" width="10" x="225.6968" y="833.7324"/><rect fill="#FFFFFF" height="156.4551" style="stroke:#181818;stroke-width:1.0;" width="10" x="365.6421" y="242.0762"/><rect fill="#FFFFFF" height="31.291" style="stroke:#181818;stroke-width:1.0;" width="10" x="365.6421" y="802.4414"/><rect fill="#FFFFFF" height="31.291" style="stroke:#181818;stroke-width:1.0;" width="10" x="514.9292" y="273.3672"/><rect fill="#FFFFFF" height="31.291" style="stroke:#181818;stroke-width:1.0;" width="10" x="658.7632" y="335.9492"/><rect fill="#FFFFFF" height="31.291" style="stroke:#181818;stroke-width:1.0;" width="10" x="793.6421" y="398.5313"/><rect fill="#FFFFFF" height="125.873" style="stroke:#181818;stroke-width:1.0;" width="10" x="793.6421" y="638.2773"/><rect fill="#FFFFFF" height="42.291" style="stroke:#181818;stroke-width:1.0;" width="10" x="798.6421" y="677.5684"/><rect fill="#FFFFFF" height="208.4551" style="stroke:#181818;stroke-width:1.0;" width="10" x="968.9165" y="429.8223"/><rect fill="#FFFFFF" height="130.873" style="stroke:#181818;stroke-width:1.0;" width="10" x="973.9165" y="469.1133"/><rect fill="#FFFFFF" height="42.291" style="stroke:#181818;stroke-width:1.0;" width="10" x="978.9165" y="513.4043"/><line style="stroke:#181818;stroke-width:0.5;stroke-dasharray:5.0,5.0;" x1="24" x2="24" y1="83.6211" y2="883.0234"/><line style="stroke:#181818;stroke-width:0.5;stroke-dasharray:5.0,5.0;" x1="229.7349" x2="229.7349" y1="83.6211" y2="883.0234"/><line style="stroke:#181818;stroke-width:0.5;stroke-dasharray:5.0,5.0;" x1="370.3525" x2="370.3525" y1="83.6211" y2="883.0234"/><line style="stroke:#181818;stroke-width:0.5;stroke-dasharray:5.0,5.0;" x1="519.0122" x2="519.0122" y1="83.6211" y2="883.0234"/><line style="stroke:#181818;stroke-width:0.5;stroke-dasharray:5.0,5.0;" x1="662.8462" x2="662.8462" y1="83.6211" y2="883.0234"/><line style="stroke:#181818;stroke-width:0.5;stroke-dasharray:5.0,5.0;" x1="797.6802" x2="797.6802" y1="83.6211" y2="883.0234"/><line style="stroke:#181818;stroke-width:0.5;stroke-dasharray:5.0,5.0;" x1="973.8545" x2="973.8545" y1="83.6211" y2="883.0234"/><text fill="#000000" font-family="sans-serif" font-size="14" lengthAdjust="spacing" textLength="32.6758" x="5" y="80.1074">Actor</text><ellipse cx="24.3379" cy="13.5" fill="#E3E3E3" rx="8" ry="8" style="stroke:#181818;stroke-width:0.5;"/><path d="M24.3379,21.5 L24.3379,48.5 M11.3379,29.5 L37.3379,29.5 M24.3379,48.5 L11.3379,63.5 M24.3379,48.5 L37.3379,63.5 " fill="none" style="stroke:#181818;stroke-width:0.5;"/><text fill="#000000" font-family="sans-serif" font-size="14" lengthAdjust="spacing" textLength="32.6758" x="5" y="897.1309">Actor</text><ellipse cx="24.3379" cy="909.1445" fill="#E3E3E3" rx="8" ry="8" style="stroke:#181818;stroke-width:0.5;"/><path d="M24.3379,917.1445 L24.3379,944.1445 M11.3379,925.1445 L37.3379,925.1445 M24.3379,944.1445 L11.3379,959.1445 M24.3379,944.1445 L37.3379,959.1445 " fill="none" style="stroke:#181818;stroke-width:0.5;"/><rect fill="#E3E3E3" height="32.6211" rx="2.5" ry="2.5" style="stroke:#181818;stroke-width:0.5;" width="101.9238" x="179.7349" y="50"/><text fill="#000000" font-family="sans-serif" font-size="14" lengthAdjust="spacing" textLength="87.9238" x="186.7349" y="72.1074">:UserInterface</text><rect fill="#E3E3E3" height="32.6211" rx="2.5" ry="2.5" style="stroke:#181818;stroke-width:0.5;" width="101.9238" x="179.7349" y="882.0234"/><text fill="#000000" font-family="sans-serif" font-size="14" lengthAdjust="spacing" textLength="87.9238" x="186.7349" y="904.1309">:UserInterface</text><rect fill="#E3E3E3" height="32.6211" rx="2.5" ry="2.5" style="stroke:#181818;stroke-width:0.5;" width="78.5791" x="331.3525" y="50"/><text fill="#000000" font-family="sans-serif" font-size="14" lengthAdjust="spacing" textLength="64.5791" x="338.3525" y="72.1074">:Controller</text><rect fill="#E3E3E3" height="32.6211" rx="2.5" ry="2.5" style="stroke:#181818;stroke-width:0.5;" width="78.5791" x="331.3525" y="882.0234"/><text fill="#000000" font-family="sans-serif" font-size="14" lengthAdjust="spacing" textLength="64.5791" x="338.3525" y="904.1309">:Controller</text><rect fill="#E3E3E3" height="32.6211" rx="2.5" ry="2.5" style="stroke:#181818;stroke-width:0.5;" width="133.834" x="453.0122" y="50"/><text fill="#000000" font-family="sans-serif" font-size="14" lengthAdjust="spacing" textLength="119.834" x="460.0122" y="72.1074">:RepositoryHandler</text><rect fill="#E3E3E3" height="32.6211" rx="2.5" ry="2.5" style="stroke:#181818;stroke-width:0.5;" width="133.834" x="453.0122" y="882.0234"/><text fill="#000000" font-family="sans-serif" font-size="14" lengthAdjust="spacing" textLength="119.834" x="460.0122" y="904.1309">:RepositoryHandler</text><rect fill="#E3E3E3" height="51.2422" rx="2.5" ry="2.5" style="stroke:#181818;stroke-width:0.5;" width="133.834" x="596.8462" y="31.3789"/><text fill="#000000" font-family="sans-serif" font-size="14" lengthAdjust="spacing" textLength="72.3652" x="627.5806" y="53.4863">repositories</text><text fill="#000000" font-family="sans-serif" font-size="14" lengthAdjust="spacing" textLength="119.834" x="603.8462" y="72.1074">:RepositoryHandler</text><rect fill="#E3E3E3" height="51.2422" rx="2.5" ry="2.5" style="stroke:#181818;stroke-width:0.5;" width="133.834" x="596.8462" y="882.0234"/><text fill="#000000" font-family="sans-serif" font-size="14" lengthAdjust="spacing" textLength="72.3652" x="627.5806" y="904.1309">repositories</text><text fill="#000000" font-family="sans-serif" font-size="14" lengthAdjust="spacing" textLength="119.834" x="603.8462" y="922.752">:RepositoryHandler</text><rect fill="#E3E3E3" height="51.2422" rx="2.5" ry="2.5" style="stroke:#181818;stroke-width:0.5;" width="115.9238" x="740.6802" y="31.3789"/><text fill="#000000" font-family="sans-serif" font-size="14" lengthAdjust="spacing" textLength="65.3584" x="765.9629" y="53.4863">repository:</text><text fill="#000000" font-family="sans-serif" font-size="14" lengthAdjust="spacing" textLength="101.9238" x="747.6802" y="72.1074">RepositoryClass</text><rect fill="#E3E3E3" height="51.2422" rx="2.5" ry="2.5" style="stroke:#181818;stroke-width:0.5;" width="115.9238" x="740.6802" y="882.0234"/><text fill="#000000" font-family="sans-serif" font-size="14" lengthAdjust="spacing" textLength="65.3584" x="765.9629" y="904.1309">repository:</text><text fill="#000000" font-family="sans-serif" font-size="14" lengthAdjust="spacing" textLength="101.9238" x="747.6802" y="922.752">RepositoryClass</text><rect fill="#E3E3E3" height="32.6211" rx="2.5" ry="2.5" style="stroke:#181818;stroke-width:0.5;" width="80.124" x="933.8545" y="50"/><text fill="#000000" font-family="sans-serif" font-size="14" lengthAdjust="spacing" textLength="66.124" x="940.8545" y="72.1074">:ItemClass</text><rect fill="#E3E3E3" height="32.6211" rx="2.5" ry="2.5" style="stroke:#181818;stroke-width:0.5;" width="80.124" x="933.8545" y="882.0234"/><text fill="#000000" font-family="sans-serif" font-size="14" lengthAdjust="spacing" textLength="66.124" x="940.8545" y="904.1309">:ItemClass</text><rect fill="#FFFFFF" height="771.4023" style="stroke:#181818;stroke-width:1.0;" width="10" x="19.3379" y="93.6211"/><rect fill="#FFFFFF" height="62.582" style="stroke:#181818;stroke-width:1.0;" width="10" x="225.6968" y="116.9121"/><rect fill="#FFFFFF" height="31.291" style="stroke:#181818;stroke-width:1.0;" width="10" x="225.6968" y="210.7852"/><rect fill="#FFFFFF" height="31.291" style="stroke:#181818;stroke-width:1.0;" width="10" x="225.6968" y="833.7324"/><rect fill="#FFFFFF" height="156.4551" style="stroke:#181818;stroke-width:1.0;" width="10" x="365.6421" y="242.0762"/><rect fill="#FFFFFF" height="31.291" style="stroke:#181818;stroke-width:1.0;" width="10" x="365.6421" y="802.4414"/><rect fill="#FFFFFF" height="31.291" style="stroke:#181818;stroke-width:1.0;" width="10" x="514.9292" y="273.3672"/><rect fill="#FFFFFF" height="31.291" style="stroke:#181818;stroke-width:1.0;" width="10" x="658.7632" y="335.9492"/><rect fill="#FFFFFF" height="31.291" style="stroke:#181818;stroke-width:1.0;" width="10" x="793.6421" y="398.5313"/><rect fill="#FFFFFF" height="125.873" style="stroke:#181818;stroke-width:1.0;" width="10" x="793.6421" y="638.2773"/><rect fill="#FFFFFF" height="42.291" style="stroke:#181818;stroke-width:1.0;" width="10" x="798.6421" y="677.5684"/><rect fill="#FFFFFF" height="208.4551" style="stroke:#181818;stroke-width:1.0;" width="10" x="968.9165" y="429.8223"/><rect fill="#FFFFFF" height="130.873" style="stroke:#181818;stroke-width:1.0;" width="10" x="973.9165" y="469.1133"/><rect fill="#FFFFFF" height="42.291" style="stroke:#181818;stroke-width:1.0;" width="10" x="978.9165" y="513.4043"/><polygon fill="#181818" points="213.6968,112.9121,223.6968,116.9121,213.6968,120.9121,217.6968,116.9121" style="stroke:#181818;stroke-width:1.0;"/><line style="stroke:#181818;stroke-width:1.0;" x1="29.3379" x2="219.6968" y1="116.9121" y2="116.9121"/><text fill="#000000" font-family="sans-serif" font-size="13" font-weight="bold" lengthAdjust="spacing" textLength="7.23" x="36.3379" y="111.6494">1</text><text fill="#000000" font-family="sans-serif" font-size="13" lengthAdjust="spacing" textLength="81.6626" x="47.5679" y="111.6494">action request</text><polygon fill="#181818" points="358.6421,144.2031,368.6421,148.2031,358.6421,152.2031,362.6421,148.2031" style="stroke:#181818;stroke-width:1.0;"/><line style="stroke:#181818;stroke-width:1.0;" x1="235.6968" x2="364.6421" y1="148.2031" y2="148.2031"/><text fill="#000000" font-family="sans-serif" font-size="13" font-weight="bold" lengthAdjust="spacing" textLength="7.23" x="242.6968" y="142.9404">2</text><text fill="#000000" font-family="sans-serif" font-size="13" lengthAdjust="spacing" textLength="93.9517" x="253.9268" y="142.9404">create operation</text><polygon fill="#181818" points="40.3379,175.4941,30.3379,179.4941,40.3379,183.4941,36.3379,179.4941" style="stroke:#181818;stroke-width:1.0;"/><line style="stroke:#181818;stroke-width:1.0;stroke-dasharray:2.0,2.0;" x1="34.3379" x2="229.6968" y1="179.4941" y2="179.4941"/><text fill="#000000" font-family="sans-serif" font-size="13" font-weight="bold" lengthAdjust="spacing" textLength="7.23" x="46.3379" y="174.2314">3</text><text fill="#000000" font-family="sans-serif" font-size="13" lengthAdjust="spacing" textLength="77.3145" x="57.5679" y="174.2314">asks for input</text><polygon fill="#181818" points="213.6968,206.7852,223.6968,210.7852,213.6968,214.7852,217.6968,210.7852" style="stroke:#181818;stroke-width:1.0;"/><line style="stroke:#181818;stroke-width:1.0;" x1="29.3379" x2="219.6968" y1="210.7852" y2="210.7852"/><text fill="#000000" font-family="sans-serif" font-size="13" font-weight="bold" lengthAdjust="spacing" textLength="7.23" x="36.3379" y="205.5225">4</text><text fill="#000000" font-family="sans-serif" font-size="13" lengthAdjust="spacing" textLength="67.9326" x="47.5679" y="205.5225">enters input</text><polygon fill="#181818" points="353.6421,238.0762,363.6421,242.0762,353.6421,246.0762,357.6421,242.0762" style="stroke:#181818;stroke-width:1.0;"/><line style="stroke:#181818;stroke-width:1.0;" x1="230.6968" x2="359.6421" y1="242.0762" y2="242.0762"/><text fill="#000000" font-family="sans-serif" font-size="13" font-weight="bold" lengthAdjust="spacing" textLength="7.23" x="237.6968" y="236.8135">5</text><text fill="#000000" font-family="sans-serif" font-size="13" lengthAdjust="spacing" textLength="99.7153" x="248.9268" y="236.8135">operation(param)</text><polygon fill="#181818" points="502.9292,269.3672,512.9292,273.3672,502.9292,277.3672,506.9292,273.3672" style="stroke:#181818;stroke-width:1.0;"/><line style="stroke:#181818;stroke-width:1.0;" x1="375.6421" x2="508.9292" y1="273.3672" y2="273.3672"/><text fill="#000000" font-family="sans-serif" font-size="13" font-weight="bold" lengthAdjust="spacing" textLength="7.23" x="382.6421" y="268.1045">6</text><text fill="#000000" font-family="sans-serif" font-size="13" lengthAdjust="spacing" textLength="75.8735" x="393.8721" y="268.1045">getInstance()</text><polygon fill="#181818" points="386.6421,300.6582,376.6421,304.6582,386.6421,308.6582,382.6421,304.6582" style="stroke:#181818;stroke-width:1.0;"/><line style="stroke:#181818;stroke-width:1.0;stroke-dasharray:2.0,2.0;" x1="380.6421" x2="518.9292" y1="304.6582" y2="304.6582"/><text fill="#000000" font-family="sans-serif" font-size="13" font-weight="bold" lengthAdjust="spacing" textLength="7.23" x="392.6421" y="299.3955">7</text><text fill="#000000" font-family="sans-serif" font-size="13" lengthAdjust="spacing" textLength="104.0571" x="403.8721" y="299.3955">repository handler</text><polygon fill="#181818" points="646.7632,331.9492,656.7632,335.9492,646.7632,339.9492,650.7632,335.9492" style="stroke:#181818;stroke-width:1.0;"/><line style="stroke:#181818;stroke-width:1.0;" x1="375.6421" x2="652.7632" y1="335.9492" y2="335.9492"/><text fill="#000000" font-family="sans-serif" font-size="13" font-weight="bold" lengthAdjust="spacing" textLength="7.23" x="382.6421" y="330.6865">8</text><text fill="#000000" font-family="sans-serif" font-size="13" lengthAdjust="spacing" textLength="88.8672" x="393.8721" y="330.6865">getRepository()</text><polygon fill="#181818" points="386.6421,363.2402,376.6421,367.2402,386.6421,371.2402,382.6421,367.2402" style="stroke:#181818;stroke-width:1.0;"/><line style="stroke:#181818;stroke-width:1.0;stroke-dasharray:2.0,2.0;" x1="380.6421" x2="662.7632" y1="367.2402" y2="367.2402"/><text fill="#000000" font-family="sans-serif" font-size="13" font-weight="bold" lengthAdjust="spacing" textLength="7.23" x="392.6421" y="361.9775">9</text><text fill="#000000" font-family="sans-serif" font-size="13" lengthAdjust="spacing" textLength="57.0781" x="403.8721" y="361.9775">repository</text><polygon fill="#181818" points="781.6421,394.5313,791.6421,398.5313,781.6421,402.5313,785.6421,398.5313" style="stroke:#181818;stroke-width:1.0;"/><line style="stroke:#181818;stroke-width:1.0;" x1="370.6421" x2="787.6421" y1="398.5313" y2="398.5313"/><text fill="#000000" font-family="sans-serif" font-size="13" font-weight="bold" lengthAdjust="spacing" textLength="14.46" x="377.6421" y="393.2686">10</text><text fill="#000000" font-family="sans-serif" font-size="13" lengthAdjust="spacing" textLength="106.9199" x="396.1021" y="393.2686">createItem(param)</text><polygon fill="#181818" points="956.9165,425.8223,966.9165,429.8223,956.9165,433.8223,960.9165,429.8223" style="stroke:#181818;stroke-width:1.0;"/><line style="stroke:#181818;stroke-width:1.0;" x1="798.6421" x2="962.9165" y1="429.8223" y2="429.8223"/><text fill="#000000" font-family="sans-serif" font-size="13" font-weight="bold" lengthAdjust="spacing" textLength="14.46" x="805.6421" y="424.5596">11</text><text fill="#000000" font-family="sans-serif" font-size="13" lengthAdjust="spacing" textLength="81.6372" x="824.1021" y="424.5596">create(param)</text><line style="stroke:#181818;stroke-width:1.0;" x1="978.9165" x2="1025.9165" y1="456.1133" y2="456.1133"/><line style="stroke:#181818;stroke-width:1.0;" x1="1025.9165" x2="1025.9165" y1="456.1133" y2="469.1133"/><line style="stroke:#181818;stroke-width:1.0;" x1="984.9165" x2="1025.9165" y1="469.1133" y2="469.1133"/><polygon fill="#181818" points="994.9165,465.1133,984.9165,469.1133,994.9165,473.1133,990.9165,469.1133" style="stroke:#181818;stroke-width:1.0;"/><text fill="#000000" font-family="sans-serif" font-size="13" font-weight="bold" lengthAdjust="spacing" textLength="14.46" x="990.9165" y="450.8506">12</text><text fill="#000000" font-family="sans-serif" font-size="13" lengthAdjust="spacing" textLength="126.439" x="1009.3765" y="450.8506">validateAttribute(item)</text><line style="stroke:#181818;stroke-width:1.0;" x1="983.9165" x2="1030.9165" y1="500.4043" y2="500.4043"/><line style="stroke:#181818;stroke-width:1.0;" x1="1030.9165" x2="1030.9165" y1="500.4043" y2="513.4043"/><line style="stroke:#181818;stroke-width:1.0;" x1="989.9165" x2="1030.9165" y1="513.4043" y2="513.4043"/><polygon fill="#181818" points="999.9165,509.4043,989.9165,513.4043,999.9165,517.4043,995.9165,513.4043" style="stroke:#181818;stroke-width:1.0;"/><text fill="#000000" font-family="sans-serif" font-size="13" font-weight="bold" lengthAdjust="spacing" textLength="14.46" x="995.9165" y="495.1416">13</text><text fill="#000000" font-family="sans-serif" font-size="13" lengthAdjust="spacing" textLength="143.7744" x="1014.3765" y="495.1416">validateOtherRules(item)</text><line style="stroke:#181818;stroke-width:1.0;stroke-dasharray:2.0,2.0;" x1="988.9165" x2="1030.9165" y1="554.6953" y2="554.6953"/><line style="stroke:#181818;stroke-width:1.0;stroke-dasharray:2.0,2.0;" x1="1030.9165" x2="1030.9165" y1="554.6953" y2="567.6953"/><line style="stroke:#181818;stroke-width:1.0;stroke-dasharray:2.0,2.0;" x1="983.9165" x2="1030.9165" y1="567.6953" y2="567.6953"/><polygon fill="#181818" points="993.9165,563.6953,983.9165,567.6953,993.9165,571.6953,989.9165,567.6953" style="stroke:#181818;stroke-width:1.0;"/><text fill="#000000" font-family="sans-serif" font-size="13" font-weight="bold" lengthAdjust="spacing" textLength="14.46" x="995.9165" y="549.4326">14</text><text fill="#000000" font-family="sans-serif" font-size="13" lengthAdjust="spacing" textLength="3.6118" x="1014.3765" y="549.4326">&#160;</text><line style="stroke:#181818;stroke-width:1.0;stroke-dasharray:2.0,2.0;" x1="983.9165" x2="1025.9165" y1="598.9863" y2="598.9863"/><line style="stroke:#181818;stroke-width:1.0;stroke-dasharray:2.0,2.0;" x1="1025.9165" x2="1025.9165" y1="598.9863" y2="611.9863"/><line style="stroke:#181818;stroke-width:1.0;stroke-dasharray:2.0,2.0;" x1="978.9165" x2="1025.9165" y1="611.9863" y2="611.9863"/><polygon fill="#181818" points="988.9165,607.9863,978.9165,611.9863,988.9165,615.9863,984.9165,611.9863" style="stroke:#181818;stroke-width:1.0;"/><text fill="#000000" font-family="sans-serif" font-size="13" font-weight="bold" lengthAdjust="spacing" textLength="14.46" x="990.9165" y="593.7236">15</text><text fill="#000000" font-family="sans-serif" font-size="13" lengthAdjust="spacing" textLength="3.6118" x="1009.3765" y="593.7236">&#160;</text><polygon fill="#181818" points="814.6421,634.2773,804.6421,638.2773,814.6421,642.2773,810.6421,638.2773" style="stroke:#181818;stroke-width:1.0;"/><line style="stroke:#181818;stroke-width:1.0;stroke-dasharray:2.0,2.0;" x1="808.6421" x2="972.9165" y1="638.2773" y2="638.2773"/><text fill="#000000" font-family="sans-serif" font-size="13" font-weight="bold" lengthAdjust="spacing" textLength="14.46" x="820.6421" y="633.0146">16</text><text fill="#000000" font-family="sans-serif" font-size="13" lengthAdjust="spacing" textLength="24.5591" x="839.1021" y="633.0146">item</text><line style="stroke:#181818;stroke-width:1.0;" x1="803.6421" x2="850.6421" y1="664.5684" y2="664.5684"/><line style="stroke:#181818;stroke-width:1.0;" x1="850.6421" x2="850.6421" y1="664.5684" y2="677.5684"/><line style="stroke:#181818;stroke-width:1.0;" x1="809.6421" x2="850.6421" y1="677.5684" y2="677.5684"/><polygon fill="#181818" points="819.6421,673.5684,809.6421,677.5684,819.6421,681.5684,815.6421,677.5684" style="stroke:#181818;stroke-width:1.0;"/><text fill="#000000" font-family="sans-serif" font-size="13" font-weight="bold" lengthAdjust="spacing" textLength="14.46" x="815.6421" y="659.3057">17</text><text fill="#000000" font-family="sans-serif" font-size="13" lengthAdjust="spacing" textLength="122.8145" x="834.1021" y="659.3057">checkForDuplicates()</text><line style="stroke:#181818;stroke-width:1.0;stroke-dasharray:2.0,2.0;" x1="808.6421" x2="850.6421" y1="718.8594" y2="718.8594"/><line style="stroke:#181818;stroke-width:1.0;stroke-dasharray:2.0,2.0;" x1="850.6421" x2="850.6421" y1="718.8594" y2="731.8594"/><line style="stroke:#181818;stroke-width:1.0;stroke-dasharray:2.0,2.0;" x1="803.6421" x2="850.6421" y1="731.8594" y2="731.8594"/><polygon fill="#181818" points="813.6421,727.8594,803.6421,731.8594,813.6421,735.8594,809.6421,731.8594" style="stroke:#181818;stroke-width:1.0;"/><text fill="#000000" font-family="sans-serif" font-size="13" font-weight="bold" lengthAdjust="spacing" textLength="14.46" x="815.6421" y="713.5967">18</text><text fill="#000000" font-family="sans-serif" font-size="13" lengthAdjust="spacing" textLength="3.6118" x="834.1021" y="713.5967">&#160;</text><line style="stroke:#181818;stroke-width:1.0;" x1="803.6421" x2="845.6421" y1="763.1504" y2="763.1504"/><line style="stroke:#181818;stroke-width:1.0;" x1="845.6421" x2="845.6421" y1="763.1504" y2="776.1504"/><line style="stroke:#181818;stroke-width:1.0;" x1="798.6421" x2="845.6421" y1="776.1504" y2="776.1504"/><polygon fill="#181818" points="808.6421,772.1504,798.6421,776.1504,808.6421,780.1504,804.6421,776.1504" style="stroke:#181818;stroke-width:1.0;"/><text fill="#000000" font-family="sans-serif" font-size="13" font-weight="bold" lengthAdjust="spacing" textLength="14.46" x="810.6421" y="757.8877">19</text><text fill="#000000" font-family="sans-serif" font-size="13" lengthAdjust="spacing" textLength="80.1899" x="829.1021" y="757.8877">addItem(item)</text><polygon fill="#181818" points="386.6421,798.4414,376.6421,802.4414,386.6421,806.4414,382.6421,802.4414" style="stroke:#181818;stroke-width:1.0;"/><line style="stroke:#181818;stroke-width:1.0;stroke-dasharray:2.0,2.0;" x1="380.6421" x2="797.6421" y1="802.4414" y2="802.4414"/><text fill="#000000" font-family="sans-serif" font-size="13" font-weight="bold" lengthAdjust="spacing" textLength="14.46" x="392.6421" y="797.1787">20</text><text fill="#000000" font-family="sans-serif" font-size="13" lengthAdjust="spacing" textLength="24.5591" x="411.1021" y="797.1787">item</text><polygon fill="#181818" points="246.6968,829.7324,236.6968,833.7324,246.6968,837.7324,242.6968,833.7324" style="stroke:#181818;stroke-width:1.0;"/><line style="stroke:#181818;stroke-width:1.0;stroke-dasharray:2.0,2.0;" x1="240.6968" x2="369.6421" y1="833.7324" y2="833.7324"/><text fill="#000000" font-family="sans-serif" font-size="13" font-weight="bold" lengthAdjust="spacing" textLength="14.46" x="252.6968" y="828.4697">21</text><text fill="#000000" font-family="sans-serif" font-size="13" lengthAdjust="spacing" textLength="24.5591" x="271.1567" y="828.4697">item</text><polygon fill="#181818" points="35.3379,861.0234,25.3379,865.0234,35.3379,869.0234,31.3379,865.0234" style="stroke:#181818;stroke-width:1.0;"/><line style="stroke:#181818;stroke-width:1.0;stroke-dasharray:2.0,2.0;" x1="29.3379" x2="229.6968" y1="865.0234" y2="865.0234"/><text fill="#000000" font-family="sans-serif" font-size="13" font-weight="bold" lengthAdjust="spacing" textLength="14.46" x="41.3379" y="859.7607">22</text><text fill="#000000" font-family="sans-serif" font-size="13" lengthAdjust="spacing" textLength="153.8989" x="59.7979" y="859.7607">displays success message</text><!--SRC=[dLNBRk8m5DtdAonMPS4Fe6gaYceqI2ErOgQxRcwT2x5mxDJNwOY_xur37CUaYEc6F7mUpZr7XexADE2W5hKrLbRErYYyQx6WkDA0FC81__YJHk5GUZ07dGAeWjB-K-OWzg09Ym9QRqrRlw7ZU-cj4uk7xh8GG2BS5SpqIge6Z1UBzGkXsngFRWyI0-fbcq4srdXdjSPUPVDtzpj3xB2nf5Zyz0jCEG2xj-VdATuDS8NqQgwmdpNulNNr5_JJ-jMCv8q6eaXDtcMRtNgiHsny2lDI7-3nFASYNCJg1qz4h4MtQWsdyDuY-H7CuoeOmB1kC0oK3hltja477QLVvlLUZvNeI88_It2AhIzAd6XDNR6BXix8hpsZsLtenJ8JZVSXkoAGc9m4n1e7z5j3N369TykHagQO4bQZ-nY8gCx8n3yLc5WFwVRUOsYvUsp1X3Jhd_j6wiGuwKRCg-l1pF32m2QIQR6AN8qDOg6Yz8piXL1S6Viu2cMg7w1LoTW7xvrwQzb0yUhoMnfFlaAtQpNIJIAfIleztmHdwCjikZtDK_yhavdGAvJ7dzOzjerMadKeRrsgUI5vgNajtPjs16KPEjZ7SAqheShtgzKDyygvimV1SDRav6dtXpCdESXAHOs64mbgfKJUGCq__7-LdJx9Ks1-0W00]--></g></svg>