<svg xmlns="http://www.w3.org/2000/svg" xmlns:xlink="http://www.w3.org/1999/xlink" contentStyleType="text/css" height="721px" preserveAspectRatio="none" style="width:765px;height:721px;background:#FFFFFF;" version="1.1" viewBox="0 0 765 721" width="765px" zoomAndPan="magnify"><defs/><g><!--class Reader--><g id="elem_Reader"><rect codeLine="5" fill="#F1F1F1" height="196.9688" id="Reader" rx="2.5" ry="2.5" style="stroke:#181818;stroke-width:0.5;" width="367.5439" x="199" y="7"/><ellipse cx="355.5635" cy="23" fill="#ADD1B2" rx="11" ry="11" style="stroke:#181818;stroke-width:1.0;"/><path d="M358.3291,18.875 Q358.4854,18.6563 358.6729,18.5469 Q358.8604,18.4375 359.0791,18.4375 Q359.4541,18.4375 359.6885,18.7031 Q359.9229,18.9531 359.9229,19.5625 L359.9229,21.0156 Q359.9229,21.625 359.6885,21.8906 Q359.4541,22.1563 359.0791,22.1563 Q358.7354,22.1563 358.5322,21.9531 Q358.3291,21.7656 358.2197,21.25 Q358.1729,20.8906 357.9854,20.7031 Q357.6572,20.3281 357.0479,20.1094 Q356.4385,19.8906 355.8135,19.8906 Q355.0479,19.8906 354.4072,20.2188 Q353.7822,20.5469 353.2822,21.2969 Q352.7979,22.0469 352.7979,23.0781 L352.7979,24.1719 Q352.7979,25.4063 353.6885,26.2344 Q354.5791,27.0469 356.1729,27.0469 Q357.1104,27.0469 357.7666,26.7969 Q358.1572,26.6406 358.5791,26.2031 Q358.8447,25.9375 358.9854,25.8594 Q359.1416,25.7813 359.3447,25.7813 Q359.6729,25.7813 359.9229,26.0469 Q360.1885,26.2969 360.1885,26.6406 Q360.1885,26.9844 359.8447,27.3906 Q359.3447,27.9688 358.5479,28.2969 Q357.4697,28.75 356.1729,28.75 Q354.6572,28.75 353.4541,28.125 Q352.4697,27.625 351.7822,26.5625 Q351.0947,25.4844 351.0947,24.2031 L351.0947,23.0469 Q351.0947,21.7188 351.7041,20.5781 Q352.3291,19.4219 353.4229,18.8125 Q354.5166,18.1875 355.751,18.1875 Q356.4854,18.1875 357.126,18.3594 Q357.7822,18.5156 358.3291,18.875 Z " fill="#000000"/><text fill="#000000" font-family="sans-serif" font-size="14" lengthAdjust="spacing" textLength="45.917" x="376.0635" y="28.7969">Reader</text><line style="stroke:#181818;stroke-width:0.5;" x1="200" x2="565.5439" y1="39" y2="39"/><ellipse cx="210" cy="53.8105" fill="none" rx="3" ry="3" style="stroke:#038048;stroke-width:1.0;"/><text fill="#000000" font-family="sans-serif" font-size="14" lengthAdjust="spacing" textLength="133.8408" x="219" y="58.1074">p: ProductPriorityLine</text><ellipse cx="210" cy="72.4316" fill="none" rx="3" ry="3" style="stroke:#038048;stroke-width:1.0;"/><text fill="#000000" font-family="sans-serif" font-size="14" lengthAdjust="spacing" textLength="182.0684" x="219" y="76.7285">w: WorkstationsPerOperation</text><ellipse cx="210" cy="91.0527" fill="none" rx="3" ry="3" style="stroke:#038048;stroke-width:1.0;"/><text fill="#000000" font-family="sans-serif" font-size="14" lengthAdjust="spacing" textLength="115.1719" x="219" y="95.3496">pt: ProductionTree</text><line style="stroke:#181818;stroke-width:0.5;" x1="200" x2="565.5439" y1="102.8633" y2="102.8633"/><ellipse cx="210" cy="117.6738" fill="#84BE84" rx="3" ry="3" style="stroke:#038048;stroke-width:1.0;"/><text fill="#000000" font-family="sans-serif" font-size="14" lengthAdjust="spacing" textLength="228.7852" x="219" y="121.9707">loadOperations(filePath: String): void</text><ellipse cx="210" cy="136.2949" fill="#84BE84" rx="3" ry="3" style="stroke:#038048;stroke-width:1.0;"/><text fill="#000000" font-family="sans-serif" font-size="14" lengthAdjust="spacing" textLength="220.2197" x="219" y="140.5918">loadMachines(filePath: String): void</text><ellipse cx="210" cy="154.916" fill="#84BE84" rx="3" ry="3" style="stroke:#038048;stroke-width:1.0;"/><text fill="#000000" font-family="sans-serif" font-size="14" lengthAdjust="spacing" textLength="191.4199" x="219" y="159.2129">loadBOO(filePath: String): void</text><ellipse cx="210" cy="173.5371" fill="#84BE84" rx="3" ry="3" style="stroke:#038048;stroke-width:1.0;"/><text fill="#000000" font-family="sans-serif" font-size="14" lengthAdjust="spacing" textLength="192.1924" x="219" y="177.834">loadBOM(filePath: String): void</text><rect fill="#F24D5C" height="6" style="stroke:#C82930;stroke-width:1.0;" width="6" x="207" y="189.1582"/><text fill="#000000" font-family="sans-serif" font-size="14" lengthAdjust="spacing" textLength="341.5439" x="219" y="196.4551">getPriorityOrderFromValue(value: String): PriorityOrder</text></g><!--class ProductionTree--><g id="elem_ProductionTree"><rect codeLine="17" fill="#F1F1F1" height="85.2422" id="ProductionTree" rx="2.5" ry="2.5" style="stroke:#181818;stroke-width:0.5;" width="751.9902" x="7" y="484"/><ellipse cx="330.8867" cy="500" fill="#ADD1B2" rx="11" ry="11" style="stroke:#181818;stroke-width:1.0;"/><path d="M333.6523,495.875 Q333.8086,495.6563 333.9961,495.5469 Q334.1836,495.4375 334.4023,495.4375 Q334.7773,495.4375 335.0117,495.7031 Q335.2461,495.9531 335.2461,496.5625 L335.2461,498.0156 Q335.2461,498.625 335.0117,498.8906 Q334.7773,499.1563 334.4023,499.1563 Q334.0586,499.1563 333.8555,498.9531 Q333.6523,498.7656 333.543,498.25 Q333.4961,497.8906 333.3086,497.7031 Q332.9805,497.3281 332.3711,497.1094 Q331.7617,496.8906 331.1367,496.8906 Q330.3711,496.8906 329.7305,497.2188 Q329.1055,497.5469 328.6055,498.2969 Q328.1211,499.0469 328.1211,500.0781 L328.1211,501.1719 Q328.1211,502.4063 329.0117,503.2344 Q329.9023,504.0469 331.4961,504.0469 Q332.4336,504.0469 333.0898,503.7969 Q333.4805,503.6406 333.9023,503.2031 Q334.168,502.9375 334.3086,502.8594 Q334.4648,502.7813 334.668,502.7813 Q334.9961,502.7813 335.2461,503.0469 Q335.5117,503.2969 335.5117,503.6406 Q335.5117,503.9844 335.168,504.3906 Q334.668,504.9688 333.8711,505.2969 Q332.793,505.75 331.4961,505.75 Q329.9805,505.75 328.7773,505.125 Q327.793,504.625 327.1055,503.5625 Q326.418,502.4844 326.418,501.2031 L326.418,500.0469 Q326.418,498.7188 327.0273,497.5781 Q327.6523,496.4219 328.7461,495.8125 Q329.8398,495.1875 331.0742,495.1875 Q331.8086,495.1875 332.4492,495.3594 Q333.1055,495.5156 333.6523,495.875 Z " fill="#000000"/><text fill="#000000" font-family="sans-serif" font-size="14" lengthAdjust="spacing" textLength="95.7168" x="351.3867" y="505.7969">ProductionTree</text><line style="stroke:#181818;stroke-width:0.5;" x1="8" x2="757.9902" y1="516" y2="516"/><line style="stroke:#181818;stroke-width:0.5;" x1="8" x2="757.9902" y1="524" y2="524"/><ellipse cx="18" cy="538.8105" fill="#84BE84" rx="3" ry="3" style="stroke:#038048;stroke-width:1.0;"/><text fill="#000000" font-family="sans-serif" font-size="14" lengthAdjust="spacing" textLength="536.1494" x="27" y="543.1074">insertNewOperationNode(id: String, name: String, price: Double, parentId: String): void</text><ellipse cx="18" cy="557.4316" fill="#84BE84" rx="3" ry="3" style="stroke:#038048;stroke-width:1.0;"/><text fill="#000000" font-family="sans-serif" font-size="14" lengthAdjust="spacing" textLength="725.9902" x="27" y="561.7285">insertNewMaterialNode(materialId: String, materialName: String, quantity: Int, price: Double, operationId: String): void</text></g><!--class Repositories--><g id="elem_Repositories"><rect codeLine="22" fill="#F1F1F1" height="122.4844" id="Repositories" rx="2.5" ry="2.5" style="stroke:#181818;stroke-width:0.5;" width="390.9229" x="187.5" y="283"/><ellipse cx="339.8047" cy="299" fill="#ADD1B2" rx="11" ry="11" style="stroke:#181818;stroke-width:1.0;"/><path d="M342.5703,294.875 Q342.7266,294.6563 342.9141,294.5469 Q343.1016,294.4375 343.3203,294.4375 Q343.6953,294.4375 343.9297,294.7031 Q344.1641,294.9531 344.1641,295.5625 L344.1641,297.0156 Q344.1641,297.625 343.9297,297.8906 Q343.6953,298.1563 343.3203,298.1563 Q342.9766,298.1563 342.7734,297.9531 Q342.5703,297.7656 342.4609,297.25 Q342.4141,296.8906 342.2266,296.7031 Q341.8984,296.3281 341.2891,296.1094 Q340.6797,295.8906 340.0547,295.8906 Q339.2891,295.8906 338.6484,296.2188 Q338.0234,296.5469 337.5234,297.2969 Q337.0391,298.0469 337.0391,299.0781 L337.0391,300.1719 Q337.0391,301.4063 337.9297,302.2344 Q338.8203,303.0469 340.4141,303.0469 Q341.3516,303.0469 342.0078,302.7969 Q342.3984,302.6406 342.8203,302.2031 Q343.0859,301.9375 343.2266,301.8594 Q343.3828,301.7813 343.5859,301.7813 Q343.9141,301.7813 344.1641,302.0469 Q344.4297,302.2969 344.4297,302.6406 Q344.4297,302.9844 344.0859,303.3906 Q343.5859,303.9688 342.7891,304.2969 Q341.7109,304.75 340.4141,304.75 Q338.8984,304.75 337.6953,304.125 Q336.7109,303.625 336.0234,302.5625 Q335.3359,301.4844 335.3359,300.2031 L335.3359,299.0469 Q335.3359,297.7188 335.9453,296.5781 Q336.5703,295.4219 337.6641,294.8125 Q338.7578,294.1875 339.9922,294.1875 Q340.7266,294.1875 341.3672,294.3594 Q342.0234,294.5156 342.5703,294.875 Z " fill="#000000"/><text fill="#000000" font-family="sans-serif" font-size="14" lengthAdjust="spacing" textLength="77.8135" x="360.3047" y="304.7969">Repositories</text><line style="stroke:#181818;stroke-width:0.5;" x1="188.5" x2="577.4229" y1="315" y2="315"/><line style="stroke:#181818;stroke-width:0.5;" x1="188.5" x2="577.4229" y1="323" y2="323"/><ellipse cx="198.5" cy="337.8105" fill="#84BE84" rx="3" ry="3" style="stroke:#038048;stroke-width:1.0;"/><text fill="#000000" font-family="sans-serif" font-size="14" lengthAdjust="spacing" textLength="167.3027" x="207.5" y="342.1074">getInstance(): Repositories</text><ellipse cx="198.5" cy="356.4316" fill="#84BE84" rx="3" ry="3" style="stroke:#038048;stroke-width:1.0;"/><text fill="#000000" font-family="sans-serif" font-size="14" lengthAdjust="spacing" textLength="313.5645" x="207.5" y="360.7285">getProductPriorityRepository(): ProductPriorityLine</text><ellipse cx="198.5" cy="375.0527" fill="#84BE84" rx="3" ry="3" style="stroke:#038048;stroke-width:1.0;"/><text fill="#000000" font-family="sans-serif" font-size="14" lengthAdjust="spacing" textLength="364.9229" x="207.5" y="379.3496">getWorkstationsPerOperation(): WorkstationsPerOperation</text><ellipse cx="198.5" cy="393.6738" fill="#84BE84" rx="3" ry="3" style="stroke:#038048;stroke-width:1.0;"/><text fill="#000000" font-family="sans-serif" font-size="14" lengthAdjust="spacing" textLength="227.999" x="207.5" y="397.9707">getProductionTree(): ProductionTree</text></g><!--class Operation--><g id="elem_Operation"><rect codeLine="29" fill="#F1F1F1" height="66.6211" id="Operation" rx="2.5" ry="2.5" style="stroke:#181818;stroke-width:0.5;" width="176.1787" x="295" y="648"/><ellipse cx="348.0981" cy="664" fill="#ADD1B2" rx="11" ry="11" style="stroke:#181818;stroke-width:1.0;"/><path d="M350.8638,659.875 Q351.02,659.6563 351.2075,659.5469 Q351.395,659.4375 351.6138,659.4375 Q351.9888,659.4375 352.2231,659.7031 Q352.4575,659.9531 352.4575,660.5625 L352.4575,662.0156 Q352.4575,662.625 352.2231,662.8906 Q351.9888,663.1563 351.6138,663.1563 Q351.27,663.1563 351.0669,662.9531 Q350.8638,662.7656 350.7544,662.25 Q350.7075,661.8906 350.52,661.7031 Q350.1919,661.3281 349.5825,661.1094 Q348.9731,660.8906 348.3481,660.8906 Q347.5825,660.8906 346.9419,661.2188 Q346.3169,661.5469 345.8169,662.2969 Q345.3325,663.0469 345.3325,664.0781 L345.3325,665.1719 Q345.3325,666.4063 346.2231,667.2344 Q347.1138,668.0469 348.7075,668.0469 Q349.645,668.0469 350.3013,667.7969 Q350.6919,667.6406 351.1138,667.2031 Q351.3794,666.9375 351.52,666.8594 Q351.6763,666.7813 351.8794,666.7813 Q352.2075,666.7813 352.4575,667.0469 Q352.7231,667.2969 352.7231,667.6406 Q352.7231,667.9844 352.3794,668.3906 Q351.8794,668.9688 351.0825,669.2969 Q350.0044,669.75 348.7075,669.75 Q347.1919,669.75 345.9888,669.125 Q345.0044,668.625 344.3169,667.5625 Q343.6294,666.4844 343.6294,665.2031 L343.6294,664.0469 Q343.6294,662.7188 344.2388,661.5781 Q344.8638,660.4219 345.9575,659.8125 Q347.0513,659.1875 348.2856,659.1875 Q349.02,659.1875 349.6606,659.3594 Q350.3169,659.5156 350.8638,659.875 Z " fill="#000000"/><text fill="#000000" font-family="sans-serif" font-size="14" lengthAdjust="spacing" textLength="61.4824" x="368.5981" y="669.7969">Operation</text><line style="stroke:#181818;stroke-width:0.5;" x1="296" x2="470.1787" y1="680" y2="680"/><line style="stroke:#181818;stroke-width:0.5;" x1="296" x2="470.1787" y1="688" y2="688"/><ellipse cx="306" cy="702.8105" fill="#84BE84" rx="3" ry="3" style="stroke:#038048;stroke-width:1.0;"/><text fill="#000000" font-family="sans-serif" font-size="14" lengthAdjust="spacing" textLength="150.1787" x="315" y="707.1074">Operation(name: String)</text></g><!--link Reader to Repositories--><g id="link_Reader_Repositories"><path codeLine="33" d="M383,204.06 C383,230.78 383,252.95 383,276.9 " fill="none" id="Reader-to-Repositories" style="stroke:#181818;stroke-width:1.0;"/><polygon fill="#181818" points="383,282.9,387,273.9,383,277.9,379,273.9,383,282.9" style="stroke:#181818;stroke-width:1.0;"/><text fill="#000000" font-family="sans-serif" font-size="13" lengthAdjust="spacing" textLength="75.8735" x="384" y="249.0283">getInstance()</text></g><!--link Repositories to ProductionTree--><g id="link_Repositories_ProductionTree"><path codeLine="34" d="M383,405.1 C383,430.95 383,454.52 383,477.88 " fill="none" id="Repositories-to-ProductionTree" style="stroke:#181818;stroke-width:1.0;"/><polygon fill="#181818" points="383,483.88,387,474.88,383,478.88,379,474.88,383,483.88" style="stroke:#181818;stroke-width:1.0;"/><text fill="#000000" font-family="sans-serif" font-size="13" lengthAdjust="spacing" textLength="115.6099" x="384" y="450.0283">getProductionTree()</text></g><!--link ProductionTree to Operation--><g id="link_ProductionTree_Operation"><path codeLine="36" d="M383,569.31 C383,594.08 383,619.01 383,641.96 " fill="none" id="ProductionTree-to-Operation" style="stroke:#181818;stroke-width:1.0;"/><polygon fill="#181818" points="383,647.96,387,638.96,383,642.96,379,638.96,383,647.96" style="stroke:#181818;stroke-width:1.0;"/><text fill="#000000" font-family="sans-serif" font-size="13" lengthAdjust="spacing" textLength="305.6143" x="384" y="614.0283">insertNewOperationNode(), insertNewMaterialNode()</text></g><!--SRC=[ZLFBRi8m4BpxAtnCLFY177gegagH2a6bQi_RP0aMZktQ3YYg-FVQa3WF7e93f5tFxAndZDaneK13HHNaEoXnRHkEL6DkGPGSYGa0iuL27fWewGQu6Pvm9j0s2gcIlF458Ja7O-W7Ge6Q_X7gVazSGf4fr62P52RQC8uhiDk4hgrsO-E4xYKhUkm2ygqRzW3o9SiU0ItkWkObsfLcKZFRPDhj_QPbzGMyncZllmFE24RE4igtPL7dOSYxT-9qTaZejzGxOyzNNw4EFhHa6zYkzwaHoR4pSTplp6J2eBPBF8H9IrbWn8fkpHaLK65VASroLxxA-eUZAq6Zi6bnrQumV04MDGD-cbsrHJhGw7hBaTPl3S8w1nAQ2diXBRkDBzMF_SjHqZ3hV4JJNTdbamhdeSWnSeGX900c4GHC4yLtyd74M_butltiUjKsee7KHPY1srsg5nh65Nj6- - -Ppv_7TYHqv0GP7NhqvCMSyDCL2PcWFB7VBg4t7bWyezTVHqp-0G00]--></g></svg>