<svg xmlns="http://www.w3.org/2000/svg" xmlns:xlink="http://www.w3.org/1999/xlink" contentStyleType="text/css" height="814px" preserveAspectRatio="none" style="width:1228px;height:814px;background:#FFFFFF;" version="1.1" viewBox="0 0 1228 814" width="1228px" zoomAndPan="magnify"><defs/><g><!--class Reader--><g id="elem_Reader"><rect codeLine="5" fill="#F1F1F1" height="196.9688" id="Reader" rx="2.5" ry="2.5" style="stroke:#181818;stroke-width:0.5;" width="367.5439" x="7" y="7"/><ellipse cx="163.5635" cy="23" fill="#ADD1B2" rx="11" ry="11" style="stroke:#181818;stroke-width:1.0;"/><path d="M166.3291,18.875 Q166.4854,18.6563 166.6729,18.5469 Q166.8604,18.4375 167.0791,18.4375 Q167.4541,18.4375 167.6885,18.7031 Q167.9229,18.9531 167.9229,19.5625 L167.9229,21.0156 Q167.9229,21.625 167.6885,21.8906 Q167.4541,22.1563 167.0791,22.1563 Q166.7354,22.1563 166.5322,21.9531 Q166.3291,21.7656 166.2197,21.25 Q166.1729,20.8906 165.9854,20.7031 Q165.6572,20.3281 165.0479,20.1094 Q164.4385,19.8906 163.8135,19.8906 Q163.0479,19.8906 162.4072,20.2188 Q161.7822,20.5469 161.2822,21.2969 Q160.7979,22.0469 160.7979,23.0781 L160.7979,24.1719 Q160.7979,25.4063 161.6885,26.2344 Q162.5791,27.0469 164.1729,27.0469 Q165.1104,27.0469 165.7666,26.7969 Q166.1572,26.6406 166.5791,26.2031 Q166.8447,25.9375 166.9854,25.8594 Q167.1416,25.7813 167.3447,25.7813 Q167.6729,25.7813 167.9229,26.0469 Q168.1885,26.2969 168.1885,26.6406 Q168.1885,26.9844 167.8447,27.3906 Q167.3447,27.9688 166.5479,28.2969 Q165.4697,28.75 164.1729,28.75 Q162.6572,28.75 161.4541,28.125 Q160.4697,27.625 159.7822,26.5625 Q159.0947,25.4844 159.0947,24.2031 L159.0947,23.0469 Q159.0947,21.7188 159.7041,20.5781 Q160.3291,19.4219 161.4229,18.8125 Q162.5166,18.1875 163.751,18.1875 Q164.4854,18.1875 165.126,18.3594 Q165.7822,18.5156 166.3291,18.875 Z " fill="#000000"/><text fill="#000000" font-family="sans-serif" font-size="14" lengthAdjust="spacing" textLength="45.917" x="184.0635" y="28.7969">Reader</text><line style="stroke:#181818;stroke-width:0.5;" x1="8" x2="373.5439" y1="39" y2="39"/><ellipse cx="18" cy="53.8105" fill="none" rx="3" ry="3" style="stroke:#038048;stroke-width:1.0;"/><text fill="#000000" font-family="sans-serif" font-size="14" lengthAdjust="spacing" textLength="133.8408" x="27" y="58.1074">p: ProductPriorityLine</text><ellipse cx="18" cy="72.4316" fill="none" rx="3" ry="3" style="stroke:#038048;stroke-width:1.0;"/><text fill="#000000" font-family="sans-serif" font-size="14" lengthAdjust="spacing" textLength="182.0684" x="27" y="76.7285">w: WorkstationsPerOperation</text><ellipse cx="18" cy="91.0527" fill="none" rx="3" ry="3" style="stroke:#038048;stroke-width:1.0;"/><text fill="#000000" font-family="sans-serif" font-size="14" lengthAdjust="spacing" textLength="115.1719" x="27" y="95.3496">pt: ProductionTree</text><line style="stroke:#181818;stroke-width:0.5;" x1="8" x2="373.5439" y1="102.8633" y2="102.8633"/><ellipse cx="18" cy="117.6738" fill="#84BE84" rx="3" ry="3" style="stroke:#038048;stroke-width:1.0;"/><text fill="#000000" font-family="sans-serif" font-size="14" lengthAdjust="spacing" textLength="228.7852" x="27" y="121.9707">loadOperations(filePath: String): void</text><ellipse cx="18" cy="136.2949" fill="#84BE84" rx="3" ry="3" style="stroke:#038048;stroke-width:1.0;"/><text fill="#000000" font-family="sans-serif" font-size="14" lengthAdjust="spacing" textLength="220.2197" x="27" y="140.5918">loadMachines(filePath: String): void</text><ellipse cx="18" cy="154.916" fill="#84BE84" rx="3" ry="3" style="stroke:#038048;stroke-width:1.0;"/><text fill="#000000" font-family="sans-serif" font-size="14" lengthAdjust="spacing" textLength="191.4199" x="27" y="159.2129">loadBOO(filePath: String): void</text><ellipse cx="18" cy="173.5371" fill="#84BE84" rx="3" ry="3" style="stroke:#038048;stroke-width:1.0;"/><text fill="#000000" font-family="sans-serif" font-size="14" lengthAdjust="spacing" textLength="192.1924" x="27" y="177.834">loadBOM(filePath: String): void</text><rect fill="#F24D5C" height="6" style="stroke:#C82930;stroke-width:1.0;" width="6" x="15" y="189.1582"/><text fill="#000000" font-family="sans-serif" font-size="14" lengthAdjust="spacing" textLength="341.5439" x="27" y="196.4551">getPriorityOrderFromValue(value: String): PriorityOrder</text></g><!--class ProductionTree--><g id="elem_ProductionTree"><rect codeLine="17" fill="#F1F1F1" height="122.4844" id="ProductionTree" rx="2.5" ry="2.5" style="stroke:#181818;stroke-width:0.5;" width="751.9902" x="94" y="484"/><ellipse cx="417.8867" cy="500" fill="#ADD1B2" rx="11" ry="11" style="stroke:#181818;stroke-width:1.0;"/><path d="M420.6523,495.875 Q420.8086,495.6563 420.9961,495.5469 Q421.1836,495.4375 421.4023,495.4375 Q421.7773,495.4375 422.0117,495.7031 Q422.2461,495.9531 422.2461,496.5625 L422.2461,498.0156 Q422.2461,498.625 422.0117,498.8906 Q421.7773,499.1563 421.4023,499.1563 Q421.0586,499.1563 420.8555,498.9531 Q420.6523,498.7656 420.543,498.25 Q420.4961,497.8906 420.3086,497.7031 Q419.9805,497.3281 419.3711,497.1094 Q418.7617,496.8906 418.1367,496.8906 Q417.3711,496.8906 416.7305,497.2188 Q416.1055,497.5469 415.6055,498.2969 Q415.1211,499.0469 415.1211,500.0781 L415.1211,501.1719 Q415.1211,502.4063 416.0117,503.2344 Q416.9023,504.0469 418.4961,504.0469 Q419.4336,504.0469 420.0898,503.7969 Q420.4805,503.6406 420.9023,503.2031 Q421.168,502.9375 421.3086,502.8594 Q421.4648,502.7813 421.668,502.7813 Q421.9961,502.7813 422.2461,503.0469 Q422.5117,503.2969 422.5117,503.6406 Q422.5117,503.9844 422.168,504.3906 Q421.668,504.9688 420.8711,505.2969 Q419.793,505.75 418.4961,505.75 Q416.9805,505.75 415.7773,505.125 Q414.793,504.625 414.1055,503.5625 Q413.418,502.4844 413.418,501.2031 L413.418,500.0469 Q413.418,498.7188 414.0273,497.5781 Q414.6523,496.4219 415.7461,495.8125 Q416.8398,495.1875 418.0742,495.1875 Q418.8086,495.1875 419.4492,495.3594 Q420.1055,495.5156 420.6523,495.875 Z " fill="#000000"/><text fill="#000000" font-family="sans-serif" font-size="14" lengthAdjust="spacing" textLength="95.7168" x="438.3867" y="505.7969">ProductionTree</text><line style="stroke:#181818;stroke-width:0.5;" x1="95" x2="844.9902" y1="516" y2="516"/><line style="stroke:#181818;stroke-width:0.5;" x1="95" x2="844.9902" y1="524" y2="524"/><ellipse cx="105" cy="538.8105" fill="#84BE84" rx="3" ry="3" style="stroke:#038048;stroke-width:1.0;"/><text fill="#000000" font-family="sans-serif" font-size="14" lengthAdjust="spacing" textLength="536.1494" x="114" y="543.1074">insertNewOperationNode(id: String, name: String, price: Double, parentId: String): void</text><ellipse cx="105" cy="557.4316" fill="#84BE84" rx="3" ry="3" style="stroke:#038048;stroke-width:1.0;"/><text fill="#000000" font-family="sans-serif" font-size="14" lengthAdjust="spacing" textLength="725.9902" x="114" y="561.7285">insertNewMaterialNode(materialId: String, materialName: String, quantity: Int, price: Double, operationId: String): void</text><ellipse cx="105" cy="576.0527" fill="#84BE84" rx="3" ry="3" style="stroke:#038048;stroke-width:1.0;"/><text fill="#000000" font-family="sans-serif" font-size="14" lengthAdjust="spacing" textLength="230.3574" x="114" y="580.3496">getAllNodes(): Set&lt;ProductionNode&gt;</text><ellipse cx="105" cy="594.6738" fill="#84BE84" rx="3" ry="3" style="stroke:#038048;stroke-width:1.0;"/><text fill="#000000" font-family="sans-serif" font-size="14" lengthAdjust="spacing" textLength="437.3975" x="114" y="598.9707">getSubNodes(node: ProductionNode): Map&lt;ProductionNode, Double&gt;</text></g><!--class Repositories--><g id="elem_Repositories"><rect codeLine="24" fill="#F1F1F1" height="122.4844" id="Repositories" rx="2.5" ry="2.5" style="stroke:#181818;stroke-width:0.5;" width="390.9229" x="269.5" y="283"/><ellipse cx="421.8047" cy="299" fill="#ADD1B2" rx="11" ry="11" style="stroke:#181818;stroke-width:1.0;"/><path d="M424.5703,294.875 Q424.7266,294.6563 424.9141,294.5469 Q425.1016,294.4375 425.3203,294.4375 Q425.6953,294.4375 425.9297,294.7031 Q426.1641,294.9531 426.1641,295.5625 L426.1641,297.0156 Q426.1641,297.625 425.9297,297.8906 Q425.6953,298.1563 425.3203,298.1563 Q424.9766,298.1563 424.7734,297.9531 Q424.5703,297.7656 424.4609,297.25 Q424.4141,296.8906 424.2266,296.7031 Q423.8984,296.3281 423.2891,296.1094 Q422.6797,295.8906 422.0547,295.8906 Q421.2891,295.8906 420.6484,296.2188 Q420.0234,296.5469 419.5234,297.2969 Q419.0391,298.0469 419.0391,299.0781 L419.0391,300.1719 Q419.0391,301.4063 419.9297,302.2344 Q420.8203,303.0469 422.4141,303.0469 Q423.3516,303.0469 424.0078,302.7969 Q424.3984,302.6406 424.8203,302.2031 Q425.0859,301.9375 425.2266,301.8594 Q425.3828,301.7813 425.5859,301.7813 Q425.9141,301.7813 426.1641,302.0469 Q426.4297,302.2969 426.4297,302.6406 Q426.4297,302.9844 426.0859,303.3906 Q425.5859,303.9688 424.7891,304.2969 Q423.7109,304.75 422.4141,304.75 Q420.8984,304.75 419.6953,304.125 Q418.7109,303.625 418.0234,302.5625 Q417.3359,301.4844 417.3359,300.2031 L417.3359,299.0469 Q417.3359,297.7188 417.9453,296.5781 Q418.5703,295.4219 419.6641,294.8125 Q420.7578,294.1875 421.9922,294.1875 Q422.7266,294.1875 423.3672,294.3594 Q424.0234,294.5156 424.5703,294.875 Z " fill="#000000"/><text fill="#000000" font-family="sans-serif" font-size="14" lengthAdjust="spacing" textLength="77.8135" x="442.3047" y="304.7969">Repositories</text><line style="stroke:#181818;stroke-width:0.5;" x1="270.5" x2="659.4229" y1="315" y2="315"/><line style="stroke:#181818;stroke-width:0.5;" x1="270.5" x2="659.4229" y1="323" y2="323"/><ellipse cx="280.5" cy="337.8105" fill="#84BE84" rx="3" ry="3" style="stroke:#038048;stroke-width:1.0;"/><text fill="#000000" font-family="sans-serif" font-size="14" lengthAdjust="spacing" textLength="167.3027" x="289.5" y="342.1074">getInstance(): Repositories</text><ellipse cx="280.5" cy="356.4316" fill="#84BE84" rx="3" ry="3" style="stroke:#038048;stroke-width:1.0;"/><text fill="#000000" font-family="sans-serif" font-size="14" lengthAdjust="spacing" textLength="313.5645" x="289.5" y="360.7285">getProductPriorityRepository(): ProductPriorityLine</text><ellipse cx="280.5" cy="375.0527" fill="#84BE84" rx="3" ry="3" style="stroke:#038048;stroke-width:1.0;"/><text fill="#000000" font-family="sans-serif" font-size="14" lengthAdjust="spacing" textLength="364.9229" x="289.5" y="379.3496">getWorkstationsPerOperation(): WorkstationsPerOperation</text><ellipse cx="280.5" cy="393.6738" fill="#84BE84" rx="3" ry="3" style="stroke:#038048;stroke-width:1.0;"/><text fill="#000000" font-family="sans-serif" font-size="14" lengthAdjust="spacing" textLength="227.999" x="289.5" y="397.9707">getProductionTree(): ProductionTree</text></g><!--class Operation--><g id="elem_Operation"><rect codeLine="31" fill="#F1F1F1" height="66.6211" id="Operation" rx="2.5" ry="2.5" style="stroke:#181818;stroke-width:0.5;" width="176.1787" x="268" y="712.5"/><ellipse cx="321.0981" cy="728.5" fill="#ADD1B2" rx="11" ry="11" style="stroke:#181818;stroke-width:1.0;"/><path d="M323.8638,724.375 Q324.02,724.1563 324.2075,724.0469 Q324.395,723.9375 324.6138,723.9375 Q324.9888,723.9375 325.2231,724.2031 Q325.4575,724.4531 325.4575,725.0625 L325.4575,726.5156 Q325.4575,727.125 325.2231,727.3906 Q324.9888,727.6563 324.6138,727.6563 Q324.27,727.6563 324.0669,727.4531 Q323.8638,727.2656 323.7544,726.75 Q323.7075,726.3906 323.52,726.2031 Q323.1919,725.8281 322.5825,725.6094 Q321.9731,725.3906 321.3481,725.3906 Q320.5825,725.3906 319.9419,725.7188 Q319.3169,726.0469 318.8169,726.7969 Q318.3325,727.5469 318.3325,728.5781 L318.3325,729.6719 Q318.3325,730.9063 319.2231,731.7344 Q320.1138,732.5469 321.7075,732.5469 Q322.645,732.5469 323.3013,732.2969 Q323.6919,732.1406 324.1138,731.7031 Q324.3794,731.4375 324.52,731.3594 Q324.6763,731.2813 324.8794,731.2813 Q325.2075,731.2813 325.4575,731.5469 Q325.7231,731.7969 325.7231,732.1406 Q325.7231,732.4844 325.3794,732.8906 Q324.8794,733.4688 324.0825,733.7969 Q323.0044,734.25 321.7075,734.25 Q320.1919,734.25 318.9888,733.625 Q318.0044,733.125 317.3169,732.0625 Q316.6294,730.9844 316.6294,729.7031 L316.6294,728.5469 Q316.6294,727.2188 317.2388,726.0781 Q317.8638,724.9219 318.9575,724.3125 Q320.0513,723.6875 321.2856,723.6875 Q322.02,723.6875 322.6606,723.8594 Q323.3169,724.0156 323.8638,724.375 Z " fill="#000000"/><text fill="#000000" font-family="sans-serif" font-size="14" lengthAdjust="spacing" textLength="61.4824" x="341.5981" y="734.2969">Operation</text><line style="stroke:#181818;stroke-width:0.5;" x1="269" x2="443.1787" y1="744.5" y2="744.5"/><line style="stroke:#181818;stroke-width:0.5;" x1="269" x2="443.1787" y1="752.5" y2="752.5"/><ellipse cx="279" cy="767.3105" fill="#84BE84" rx="3" ry="3" style="stroke:#038048;stroke-width:1.0;"/><text fill="#000000" font-family="sans-serif" font-size="14" lengthAdjust="spacing" textLength="150.1787" x="288" y="771.6074">Operation(name: String)</text></g><!--class ProductionNode--><g id="elem_ProductionNode"><rect codeLine="35" fill="#F1F1F1" height="122.4844" id="ProductionNode" rx="2.5" ry="2.5" style="stroke:#181818;stroke-width:0.5;" width="166.0752" x="719" y="685"/><ellipse cx="749.1541" cy="701" fill="#ADD1B2" rx="11" ry="11" style="stroke:#181818;stroke-width:1.0;"/><path d="M751.9197,696.875 Q752.076,696.6563 752.2635,696.5469 Q752.451,696.4375 752.6697,696.4375 Q753.0447,696.4375 753.2791,696.7031 Q753.5135,696.9531 753.5135,697.5625 L753.5135,699.0156 Q753.5135,699.625 753.2791,699.8906 Q753.0447,700.1563 752.6697,700.1563 Q752.326,700.1563 752.1229,699.9531 Q751.9197,699.7656 751.8104,699.25 Q751.7635,698.8906 751.576,698.7031 Q751.2479,698.3281 750.6385,698.1094 Q750.0291,697.8906 749.4041,697.8906 Q748.6385,697.8906 747.9979,698.2188 Q747.3729,698.5469 746.8729,699.2969 Q746.3885,700.0469 746.3885,701.0781 L746.3885,702.1719 Q746.3885,703.4063 747.2791,704.2344 Q748.1697,705.0469 749.7635,705.0469 Q750.701,705.0469 751.3572,704.7969 Q751.7479,704.6406 752.1697,704.2031 Q752.4354,703.9375 752.576,703.8594 Q752.7322,703.7813 752.9354,703.7813 Q753.2635,703.7813 753.5135,704.0469 Q753.7791,704.2969 753.7791,704.6406 Q753.7791,704.9844 753.4354,705.3906 Q752.9354,705.9688 752.1385,706.2969 Q751.0604,706.75 749.7635,706.75 Q748.2479,706.75 747.0447,706.125 Q746.0604,705.625 745.3729,704.5625 Q744.6854,703.4844 744.6854,702.2031 L744.6854,701.0469 Q744.6854,699.7188 745.2947,698.5781 Q745.9197,697.4219 747.0135,696.8125 Q748.1072,696.1875 749.3416,696.1875 Q750.076,696.1875 750.7166,696.3594 Q751.3729,696.5156 751.9197,696.875 Z " fill="#000000"/><text fill="#000000" font-family="sans-serif" font-size="14" lengthAdjust="spacing" textLength="100.3994" x="766.5217" y="706.7969">ProductionNode</text><line style="stroke:#181818;stroke-width:0.5;" x1="720" x2="884.0752" y1="717" y2="717"/><line style="stroke:#181818;stroke-width:0.5;" x1="720" x2="884.0752" y1="725" y2="725"/><ellipse cx="730" cy="739.8105" fill="#84BE84" rx="3" ry="3" style="stroke:#038048;stroke-width:1.0;"/><text fill="#000000" font-family="sans-serif" font-size="14" lengthAdjust="spacing" textLength="84.8135" x="739" y="744.1074">getId(): String</text><ellipse cx="730" cy="758.4316" fill="#84BE84" rx="3" ry="3" style="stroke:#038048;stroke-width:1.0;"/><text fill="#000000" font-family="sans-serif" font-size="14" lengthAdjust="spacing" textLength="110.4824" x="739" y="762.7285">getName(): String</text><ellipse cx="730" cy="777.0527" fill="#84BE84" rx="3" ry="3" style="stroke:#038048;stroke-width:1.0;"/><text fill="#000000" font-family="sans-serif" font-size="14" lengthAdjust="spacing" textLength="126.8408" x="739" y="781.3496">isProduct(): Boolean</text><ellipse cx="730" cy="795.6738" fill="#84BE84" rx="3" ry="3" style="stroke:#038048;stroke-width:1.0;"/><text fill="#000000" font-family="sans-serif" font-size="14" lengthAdjust="spacing" textLength="140.0752" x="739" y="799.9707">isOperation(): Boolean</text></g><!--class DisplayProductionTree--><g id="elem_DisplayProductionTree"><rect codeLine="42" fill="#F1F1F1" height="178.3477" id="DisplayProductionTree" rx="2.5" ry="2.5" style="stroke:#181818;stroke-width:0.5;" width="811.2646" x="410.5" y="16.5"/><ellipse cx="741.0723" cy="32.5" fill="#ADD1B2" rx="11" ry="11" style="stroke:#181818;stroke-width:1.0;"/><path d="M743.8379,28.375 Q743.9941,28.1563 744.1816,28.0469 Q744.3691,27.9375 744.5879,27.9375 Q744.9629,27.9375 745.1973,28.2031 Q745.4316,28.4531 745.4316,29.0625 L745.4316,30.5156 Q745.4316,31.125 745.1973,31.3906 Q744.9629,31.6563 744.5879,31.6563 Q744.2441,31.6563 744.041,31.4531 Q743.8379,31.2656 743.7285,30.75 Q743.6816,30.3906 743.4941,30.2031 Q743.166,29.8281 742.5566,29.6094 Q741.9473,29.3906 741.3223,29.3906 Q740.5566,29.3906 739.916,29.7188 Q739.291,30.0469 738.791,30.7969 Q738.3066,31.5469 738.3066,32.5781 L738.3066,33.6719 Q738.3066,34.9063 739.1973,35.7344 Q740.0879,36.5469 741.6816,36.5469 Q742.6191,36.5469 743.2754,36.2969 Q743.666,36.1406 744.0879,35.7031 Q744.3535,35.4375 744.4941,35.3594 Q744.6504,35.2813 744.8535,35.2813 Q745.1816,35.2813 745.4316,35.5469 Q745.6973,35.7969 745.6973,36.1406 Q745.6973,36.4844 745.3535,36.8906 Q744.8535,37.4688 744.0566,37.7969 Q742.9785,38.25 741.6816,38.25 Q740.166,38.25 738.9629,37.625 Q737.9785,37.125 737.291,36.0625 Q736.6035,34.9844 736.6035,33.7031 L736.6035,32.5469 Q736.6035,31.2188 737.2129,30.0781 Q737.8379,28.9219 738.9316,28.3125 Q740.0254,27.6875 741.2598,27.6875 Q741.9941,27.6875 742.6348,27.8594 Q743.291,28.0156 743.8379,28.375 Z " fill="#000000"/><text fill="#000000" font-family="sans-serif" font-size="14" lengthAdjust="spacing" textLength="141.6201" x="761.5723" y="38.2969">DisplayProductionTree</text><line style="stroke:#181818;stroke-width:0.5;" x1="411.5" x2="1220.7646" y1="48.5" y2="48.5"/><rect fill="none" height="6" style="stroke:#C82930;stroke-width:1.0;" width="6" x="418.5" y="60.3105"/><text fill="#000000" font-family="sans-serif" font-size="14" lengthAdjust="spacing" textLength="197.6611" x="430.5" y="67.6074">productionTree: ProductionTree</text><line style="stroke:#181818;stroke-width:0.5;" x1="411.5" x2="1220.7646" y1="75.1211" y2="75.1211"/><ellipse cx="421.5" cy="89.9316" fill="#84BE84" rx="3" ry="3" style="stroke:#038048;stroke-width:1.0;"/><text fill="#000000" font-family="sans-serif" font-size="14" lengthAdjust="spacing" textLength="115.1514" x="430.5" y="94.2285">displayTree(): void</text><ellipse cx="421.5" cy="108.5527" fill="#84BE84" rx="3" ry="3" style="stroke:#038048;stroke-width:1.0;"/><text fill="#000000" font-family="sans-serif" font-size="14" lengthAdjust="spacing" textLength="136.9648" x="430.5" y="112.8496">generateGraph(): void</text><rect fill="#F24D5C" height="6" style="stroke:#C82930;stroke-width:1.0;" width="6" x="418.5" y="124.1738"/><text fill="#000000" font-family="sans-serif" font-size="14" lengthAdjust="spacing" textLength="536.2041" x="430.5" y="131.4707">printNode(node: ProductionNode, level: Int, visitedNodes: Set&lt;ProductionNode&gt;): void</text><rect fill="#F24D5C" height="6" style="stroke:#C82930;stroke-width:1.0;" width="6" x="418.5" y="142.7949"/><text fill="#000000" font-family="sans-serif" font-size="14" lengthAdjust="spacing" textLength="785.2646" x="430.5" y="150.0918">generateNodeDotRepresentation(node: ProductionNode, dotContent: StringBuilder, visitedNodes: Set&lt;ProductionNode&gt;): void</text><rect fill="#F24D5C" height="6" style="stroke:#C82930;stroke-width:1.0;" width="6" x="418.5" y="161.416"/><text fill="#000000" font-family="sans-serif" font-size="14" lengthAdjust="spacing" textLength="216.3164" x="430.5" y="168.7129">escapeForDot(input: String): String</text><rect fill="#F24D5C" height="6" style="stroke:#C82930;stroke-width:1.0;" width="6" x="418.5" y="180.0371"/><text fill="#000000" font-family="sans-serif" font-size="14" lengthAdjust="spacing" textLength="185.9785" x="430.5" y="187.334">generateGraphVizSVG(): void</text></g><!--link Reader to Repositories--><g id="link_Reader_Repositories"><path codeLine="53" d="M304.03,204.06 C334.99,230.78 363.0885,255.029 390.8285,278.979 " fill="none" id="Reader-to-Repositories" style="stroke:#181818;stroke-width:1.0;"/><polygon fill="#181818" points="395.37,282.9,391.1717,273.9908,391.5854,279.6325,385.9437,280.0461,395.37,282.9" style="stroke:#181818;stroke-width:1.0;"/><text fill="#000000" font-family="sans-serif" font-size="13" lengthAdjust="spacing" textLength="75.8735" x="362" y="249.0283">getInstance()</text></g><!--link Repositories to ProductionTree--><g id="link_Repositories_ProductionTree"><path codeLine="54" d="M466.51,405.25 C467.14,430.18 467.7208,453.0419 468.3408,477.9619 " fill="none" id="Repositories-to-ProductionTree" style="stroke:#181818;stroke-width:1.0;"/><polygon fill="#181818" points="468.49,483.96,472.2649,474.8633,468.3656,478.9615,464.2674,475.0623,468.49,483.96" style="stroke:#181818;stroke-width:1.0;"/><text fill="#000000" font-family="sans-serif" font-size="13" lengthAdjust="spacing" textLength="115.6099" x="469" y="450.0283">getProductionTree()</text></g><!--link ProductionTree to Operation--><g id="link_ProductionTree_Operation"><path codeLine="56" d="M391.96,606.03 C370.5,622.54 353,636 353,636 C353,636 353,655 353,655 C353,655 353.8496,680.5233 354.7096,706.2533 " fill="none" id="ProductionTree-to-Operation" style="stroke:#181818;stroke-width:1.0;"/><polygon fill="#181818" points="354.91,712.25,358.6071,703.1214,354.743,707.2528,350.6116,703.3886,354.91,712.25" style="stroke:#181818;stroke-width:1.0;"/><text fill="#000000" font-family="sans-serif" font-size="13" lengthAdjust="spacing" textLength="305.6143" x="354" y="651.0283">insertNewOperationNode(), insertNewMaterialNode()</text></g><!--link ProductionTree to ProductionNode--><g id="link_ProductionTree_ProductionNode"><path codeLine="57" d="M599.4,606.03 C634.99,622.54 664,636 664,636 C664,636 689.112,655.8305 721.022,681.0405 " fill="none" id="ProductionTree-to-ProductionNode" style="stroke:#181818;stroke-width:1.0;"/><polygon fill="#181818" points="725.73,684.76,721.1476,676.0421,721.8067,681.6604,716.1883,682.3194,725.73,684.76" style="stroke:#181818;stroke-width:1.0;"/><text fill="#000000" font-family="sans-serif" font-size="13" lengthAdjust="spacing" textLength="173.418" x="688" y="651.0283">getAllNodes(), getSubNodes()</text></g><!--link DisplayProductionTree to Repositories--><g id="link_DisplayProductionTree_Repositories"><path codeLine="59" d="M685.3,194.56 C641.64,223.98 598.9963,252.7179 559.2263,279.5079 " fill="none" id="DisplayProductionTree-to-Repositories" style="stroke:#181818;stroke-width:1.0;"/><polygon fill="#181818" points="554.25,282.86,563.9492,281.1493,558.3969,280.0666,559.4796,274.5143,554.25,282.86" style="stroke:#181818;stroke-width:1.0;"/><text fill="#000000" font-family="sans-serif" font-size="13" lengthAdjust="spacing" textLength="75.8735" x="620" y="249.0283">getInstance()</text></g><!--link DisplayProductionTree to ProductionTree--><g id="link_DisplayProductionTree_ProductionTree"><path codeLine="60" d="M775.16,194.85 C734.46,282.87 678,405 678,405 C678,405 621.2286,442.9363 565.0086,480.5063 " fill="none" id="DisplayProductionTree-to-ProductionTree" style="stroke:#181818;stroke-width:1.0;"/><polygon fill="#181818" points="560.02,483.84,569.7254,482.1651,564.1772,481.0619,565.2804,475.5137,560.02,483.84" style="stroke:#181818;stroke-width:1.0;"/><text fill="#000000" font-family="sans-serif" font-size="13" lengthAdjust="spacing" textLength="115.6099" x="734" y="349.5283">getProductionTree()</text></g><!--link DisplayProductionTree to ProductionNode--><g id="link_DisplayProductionTree_ProductionNode"><path codeLine="61" d="M837,194.75 C847.5,238.88 858,283 858,283 C858,283 870,636 870,636 C870,636 870,655 870,655 C870,655 863.4462,663.6722 850.9762,680.1822 " fill="none" id="DisplayProductionTree-to-ProductionNode" style="stroke:#181818;stroke-width:1.0;"/><polygon fill="#181818" points="847.36,684.97,855.9762,680.1991,850.3735,680.9802,849.5925,675.3775,847.36,684.97" style="stroke:#181818;stroke-width:1.0;"/><text fill="#000000" font-family="sans-serif" font-size="13" lengthAdjust="spacing" textLength="271.7051" x="864" y="450.0283">printNode(), generateNodeDotRepresentation()</text></g><!--SRC=[bLJRZjem47tFL_WnKU47eWgfTBKhf7BHKj5dRpmB5iPERGUKLlttZaFiEDb0QHuYUURCnMUEnnovBAcc9rBIuaZtiBMr0AAXi5Jk1IGc0Co1CdNXSa_UgJ2nHt09jYw1b4hKxf0aXQ36a5UW33JvdH3yFWb5sRe4JIrNqgJlNC26saDEjbPZsYmdPyLPXrtIue397a3Er-j7GCkxeEaUx4PpfRcjrnhxVjRgjAEYWlJi_b5C3vPSIvJEh5XLX2JV71EDxvAJ7qeVZRrUVGCwyD06sn2DjkyQ8FdZIUpRFPbS6j1s1PUGQQKOf9pvDYT4qXDqfrBp0ezFgdeJW4UgGTe56wKh95zI2vfJqUG-jOT5LCFRLhrQFoigBJAGauMq7qeht_6DwZY7Bw8fQL9qRC5-xZXmvbd0RQktAqxYFwRGMJ5sISj1xAHjOzOH_0gbCjpYpC1uUZ7tGkAyP06kXnWI08Dn1qoTPdUqW86tjE3YxkkagzhA8IhrGJWXrb-gAnHB8nkJcgCgve8rasZmmUXcFZHpq-PmZhbI0gZqdjuzlI_KVkAc5BGULpkxElsDOwr8bnHUD2qFFTSKLITj8zmnSKo8W3E8Lg5dZfC3rcXfL763HN4jwZnFokBWDHXyJIstezMOib-Lj8ZoXCqhBd1z_6znC0KjuLbfh9pY1gviz8YYKKnxrEpuh-tk9H3a6Ogv7XDIky2dqrd_bUIazq2IdjEX1sDiy4Fb9ia0vG8xqURanexB9cHyGMLZ2GUQRZhfrik4n5i4MngNuJy9k1ts41EFXBVjTx9kch-dn2pv2m00]--></g></svg>