<svg xmlns="http://www.w3.org/2000/svg" xmlns:xlink="http://www.w3.org/1999/xlink" contentStyleType="text/css" height="1067.4px" preserveAspectRatio="none" style="width:1303px;height:1067px;background:#FFFFFF;" version="1.1" viewBox="0 0 1303 1067" width="1303.2px" zoomAndPan="magnify"><defs/><g><rect fill="#FFFFFF" height="900.9193" style="stroke:#181818;stroke-width:0.9;" width="9" x="16.0014" y="84.259"/><rect fill="#FFFFFF" height="84.4857" style="stroke:#181818;stroke-width:0.9;" width="9" x="262.1285" y="105.2209"/><rect fill="#FFFFFF" height="112.6477" style="stroke:#181818;stroke-width:0.9;" width="9" x="262.1285" y="217.8686"/><rect fill="#FFFFFF" height="112.6477" style="stroke:#181818;stroke-width:0.9;" width="9" x="262.1285" y="358.6781"/><rect fill="#FFFFFF" height="84.4857" style="stroke:#181818;stroke-width:0.9;" width="9" x="406.8844" y="105.2209"/><rect fill="#FFFFFF" height="28.1619" style="stroke:#181818;stroke-width:0.9;" width="9" x="406.8844" y="527.6496"/><rect fill="#FFFFFF" height="84.4857" style="stroke:#181818;stroke-width:0.9;" width="9" x="709.3151" y="246.0305"/><rect fill="#FFFFFF" height="84.4857" style="stroke:#181818;stroke-width:0.9;" width="9" x="709.3151" y="386.84"/><rect fill="#FFFFFF" height="28.1619" style="stroke:#181818;stroke-width:0.9;" width="9" x="709.3151" y="583.9734"/><rect fill="#FFFFFF" height="28.1619" style="stroke:#181818;stroke-width:0.9;" width="9" x="709.3151" y="640.2973"/><rect fill="#FFFFFF" height="28.1619" style="stroke:#181818;stroke-width:0.9;" width="9" x="709.3151" y="892.5926"/><rect fill="#FFFFFF" height="28.1619" style="stroke:#181818;stroke-width:0.9;" width="9" x="709.3151" y="948.9164"/><rect fill="#FFFFFF" height="364.943" style="stroke:#181818;stroke-width:0.9;" width="9" x="883.3496" y="499.4877"/><rect fill="#FFFFFF" height="28.1619" style="stroke:#181818;stroke-width:0.9;" width="9" x="1138.5831" y="274.1924"/><rect fill="#FFFFFF" height="28.1619" style="stroke:#181818;stroke-width:0.9;" width="9" x="1138.5831" y="415.002"/><rect fill="#FFFFFF" height="116.8857" style="stroke:#181818;stroke-width:0.9;" width="9" x="1138.5831" y="720.283"/><rect fill="#FFFFFF" height="38.0619" style="stroke:#181818;stroke-width:0.9;" width="9" x="1143.0831" y="779.3068"/><rect fill="none" height="155.2096" style="stroke:#000000;stroke-width:1.35;" width="489.226" x="808.8205" y="681.9592"/><rect fill="none" height="97.0857" style="stroke:#000000;stroke-width:1.35;" width="208.1936" x="1080.853" y="733.783"/><line style="stroke:#181818;stroke-width:0.45;stroke-dasharray:5.0,5.0;" x1="19.8" x2="19.8" y1="75.259" y2="993.2783"/><line style="stroke:#181818;stroke-width:0.45;stroke-dasharray:5.0,5.0;" x1="265.7659" x2="265.7659" y1="75.259" y2="993.2783"/><line style="stroke:#181818;stroke-width:0.45;stroke-dasharray:5.0,5.0;" x1="410.618" x2="410.618" y1="75.259" y2="993.2783"/><line style="stroke:#181818;stroke-width:0.45;stroke-dasharray:5.0,5.0;" x1="713.0922" x2="713.0922" y1="75.259" y2="993.2783"/><line style="stroke:#181818;stroke-width:0.45;stroke-dasharray:5.0,5.0;" x1="887.1205" x2="887.1205" y1="75.259" y2="993.2783"/><line style="stroke:#181818;stroke-width:0.45;stroke-dasharray:5.0,5.0;" x1="1142.953" x2="1142.953" y1="75.259" y2="993.2783"/><text fill="#000000" font-family="sans-serif" font-size="12.6" lengthAdjust="spacing" textLength="26.6027" x="4.5" y="72.0967">User</text><ellipse cx="20.5014" cy="12.15" fill="#E3E3E3" rx="7.2" ry="7.2" style="stroke:#181818;stroke-width:0.45;"/><path d="M20.5014,19.35 L20.5014,43.65 M8.8014,26.55 L32.2014,26.55 M20.5014,43.65 L8.8014,57.15 M20.5014,43.65 L32.2014,57.15 " fill="none" style="stroke:#181818;stroke-width:0.45;"/><text fill="#000000" font-family="sans-serif" font-size="12.6" lengthAdjust="spacing" textLength="26.6027" x="4.5" y="1005.975">User</text><ellipse cx="20.5014" cy="1016.7873" fill="#E3E3E3" rx="7.2" ry="7.2" style="stroke:#181818;stroke-width:0.45;"/><path d="M20.5014,1023.9873 L20.5014,1048.2873 M8.8014,1031.1873 L32.2014,1031.1873 M20.5014,1048.2873 L8.8014,1061.7873 M20.5014,1048.2873 L32.2014,1061.7873 " fill="none" style="stroke:#181818;stroke-width:0.45;"/><rect fill="#E3E3E3" height="29.359" rx="2.25" ry="2.25" style="stroke:#181818;stroke-width:0.45;" width="53.9253" x="239.6659" y="45"/><text fill="#000000" font-family="sans-serif" font-size="12.6" lengthAdjust="spacing" textLength="41.3253" x="245.9659" y="64.8967">Reader</text><rect fill="#E3E3E3" height="29.359" rx="2.25" ry="2.25" style="stroke:#181818;stroke-width:0.45;" width="53.9253" x="239.6659" y="992.3783"/><text fill="#000000" font-family="sans-serif" font-size="12.6" lengthAdjust="spacing" textLength="41.3253" x="245.9659" y="1012.275">Reader</text><rect fill="#E3E3E3" height="46.118" rx="2.25" ry="2.25" style="stroke:#181818;stroke-width:0.45;" width="86.1328" x="368.318" y="28.241"/><text fill="#000000" font-family="sans-serif" font-size="12.6" lengthAdjust="spacing" textLength="70.0321" x="376.3683" y="48.1377">Repositories</text><text fill="#000000" font-family="sans-serif" font-size="12.6" lengthAdjust="spacing" textLength="73.5328" x="374.618" y="64.8967">:Repositories</text><rect fill="#E3E3E3" height="46.118" rx="2.25" ry="2.25" style="stroke:#181818;stroke-width:0.45;" width="86.1328" x="368.318" y="992.3783"/><text fill="#000000" font-family="sans-serif" font-size="12.6" lengthAdjust="spacing" textLength="70.0321" x="376.3683" y="1012.275">Repositories</text><text fill="#000000" font-family="sans-serif" font-size="12.6" lengthAdjust="spacing" textLength="73.5328" x="374.618" y="1029.034">:Repositories</text><rect fill="#E3E3E3" height="46.118" rx="2.25" ry="2.25" style="stroke:#181818;stroke-width:0.45;" width="102.2458" x="662.6922" y="28.241"/><text fill="#000000" font-family="sans-serif" font-size="12.6" lengthAdjust="spacing" textLength="86.1451" x="670.7426" y="48.1377">ProductionTree</text><text fill="#000000" font-family="sans-serif" font-size="12.6" lengthAdjust="spacing" textLength="89.6458" x="668.9922" y="64.8967">:ProductionTree</text><rect fill="#E3E3E3" height="46.118" rx="2.25" ry="2.25" style="stroke:#181818;stroke-width:0.45;" width="102.2458" x="662.6922" y="992.3783"/><text fill="#000000" font-family="sans-serif" font-size="12.6" lengthAdjust="spacing" textLength="86.1451" x="670.7426" y="1012.275">ProductionTree</text><text fill="#000000" font-family="sans-serif" font-size="12.6" lengthAdjust="spacing" textLength="89.6458" x="668.9922" y="1029.034">:ProductionTree</text><rect fill="#E3E3E3" height="29.359" rx="2.25" ry="2.25" style="stroke:#181818;stroke-width:0.45;" width="140.0581" x="817.8205" y="45"/><text fill="#000000" font-family="sans-serif" font-size="12.6" lengthAdjust="spacing" textLength="127.4581" x="824.1205" y="64.8967">DisplayProductionTree</text><rect fill="#E3E3E3" height="29.359" rx="2.25" ry="2.25" style="stroke:#181818;stroke-width:0.45;" width="140.0581" x="817.8205" y="992.3783"/><text fill="#000000" font-family="sans-serif" font-size="12.6" lengthAdjust="spacing" textLength="127.4581" x="824.1205" y="1012.275">DisplayProductionTree</text><rect fill="#E3E3E3" height="46.118" rx="2.25" ry="2.25" style="stroke:#181818;stroke-width:0.45;" width="106.4602" x="1089.853" y="28.241"/><text fill="#000000" font-family="sans-serif" font-size="12.6" lengthAdjust="spacing" textLength="90.3595" x="1097.9033" y="48.1377">ProductionNode</text><text fill="#000000" font-family="sans-serif" font-size="12.6" lengthAdjust="spacing" textLength="93.8602" x="1096.153" y="64.8967">:ProductionNode</text><rect fill="#E3E3E3" height="46.118" rx="2.25" ry="2.25" style="stroke:#181818;stroke-width:0.45;" width="106.4602" x="1089.853" y="992.3783"/><text fill="#000000" font-family="sans-serif" font-size="12.6" lengthAdjust="spacing" textLength="90.3595" x="1097.9033" y="1012.275">ProductionNode</text><text fill="#000000" font-family="sans-serif" font-size="12.6" lengthAdjust="spacing" textLength="93.8602" x="1096.153" y="1029.034">:ProductionNode</text><rect fill="#FFFFFF" height="900.9193" style="stroke:#181818;stroke-width:0.9;" width="9" x="16.0014" y="84.259"/><rect fill="#FFFFFF" height="84.4857" style="stroke:#181818;stroke-width:0.9;" width="9" x="262.1285" y="105.2209"/><rect fill="#FFFFFF" height="112.6477" style="stroke:#181818;stroke-width:0.9;" width="9" x="262.1285" y="217.8686"/><rect fill="#FFFFFF" height="112.6477" style="stroke:#181818;stroke-width:0.9;" width="9" x="262.1285" y="358.6781"/><rect fill="#FFFFFF" height="84.4857" style="stroke:#181818;stroke-width:0.9;" width="9" x="406.8844" y="105.2209"/><rect fill="#FFFFFF" height="28.1619" style="stroke:#181818;stroke-width:0.9;" width="9" x="406.8844" y="527.6496"/><rect fill="#FFFFFF" height="84.4857" style="stroke:#181818;stroke-width:0.9;" width="9" x="709.3151" y="246.0305"/><rect fill="#FFFFFF" height="84.4857" style="stroke:#181818;stroke-width:0.9;" width="9" x="709.3151" y="386.84"/><rect fill="#FFFFFF" height="28.1619" style="stroke:#181818;stroke-width:0.9;" width="9" x="709.3151" y="583.9734"/><rect fill="#FFFFFF" height="28.1619" style="stroke:#181818;stroke-width:0.9;" width="9" x="709.3151" y="640.2973"/><rect fill="#FFFFFF" height="28.1619" style="stroke:#181818;stroke-width:0.9;" width="9" x="709.3151" y="892.5926"/><rect fill="#FFFFFF" height="28.1619" style="stroke:#181818;stroke-width:0.9;" width="9" x="709.3151" y="948.9164"/><rect fill="#FFFFFF" height="364.943" style="stroke:#181818;stroke-width:0.9;" width="9" x="883.3496" y="499.4877"/><rect fill="#FFFFFF" height="28.1619" style="stroke:#181818;stroke-width:0.9;" width="9" x="1138.5831" y="274.1924"/><rect fill="#FFFFFF" height="28.1619" style="stroke:#181818;stroke-width:0.9;" width="9" x="1138.5831" y="415.002"/><rect fill="#FFFFFF" height="116.8857" style="stroke:#181818;stroke-width:0.9;" width="9" x="1138.5831" y="720.283"/><rect fill="#FFFFFF" height="38.0619" style="stroke:#181818;stroke-width:0.9;" width="9" x="1143.0831" y="779.3068"/><polygon fill="#181818" points="396.0844,101.6209,405.0844,105.2209,396.0844,108.8209,399.6844,105.2209" style="stroke:#181818;stroke-width:0.9;"/><line style="stroke:#181818;stroke-width:0.9;" x1="271.1285" x2="401.4844" y1="105.2209" y2="105.2209"/><text fill="#000000" font-family="sans-serif" font-size="11.7" font-weight="bold" lengthAdjust="spacing" textLength="6.507" x="277.4285" y="100.4845">1</text><text fill="#000000" font-family="sans-serif" font-size="11.7" lengthAdjust="spacing" textLength="68.2862" x="287.5355" y="100.4845">getInstance()</text><polygon fill="#181818" points="281.0285,129.7828,272.0285,133.3828,281.0285,136.9828,277.4285,133.3828" style="stroke:#181818;stroke-width:0.9;"/><line style="stroke:#181818;stroke-width:0.9;stroke-dasharray:2.0,2.0;" x1="275.6285" x2="405.9844" y1="133.3828" y2="133.3828"/><text fill="#000000" font-family="sans-serif" font-size="11.7" font-weight="bold" lengthAdjust="spacing" textLength="6.507" x="286.4285" y="128.6464">2</text><text fill="#000000" font-family="sans-serif" font-size="11.7" lengthAdjust="spacing" textLength="98.1989" x="296.5355" y="128.6464">repository instance</text><polygon fill="#181818" points="396.0844,157.9447,405.0844,161.5447,396.0844,165.1447,399.6844,161.5447" style="stroke:#181818;stroke-width:0.9;"/><line style="stroke:#181818;stroke-width:0.9;" x1="271.1285" x2="401.4844" y1="161.5447" y2="161.5447"/><text fill="#000000" font-family="sans-serif" font-size="11.7" font-weight="bold" lengthAdjust="spacing" textLength="6.507" x="277.4285" y="156.8083">3</text><text fill="#000000" font-family="sans-serif" font-size="11.7" lengthAdjust="spacing" textLength="104.0489" x="287.5355" y="156.8083">getProductionTree()</text><polygon fill="#181818" points="276.5285,186.1066,267.5285,189.7066,276.5285,193.3066,272.9285,189.7066" style="stroke:#181818;stroke-width:0.9;"/><line style="stroke:#181818;stroke-width:0.9;stroke-dasharray:2.0,2.0;" x1="271.1285" x2="410.4844" y1="189.7066" y2="189.7066"/><text fill="#000000" font-family="sans-serif" font-size="11.7" font-weight="bold" lengthAdjust="spacing" textLength="6.507" x="281.9285" y="184.9702">4</text><text fill="#000000" font-family="sans-serif" font-size="11.7" lengthAdjust="spacing" textLength="78.6951" x="292.0355" y="184.9702">productionTree</text><polygon fill="#181818" points="251.3285,214.2686,260.3285,217.8686,251.3285,221.4686,254.9285,217.8686" style="stroke:#181818;stroke-width:0.9;"/><line style="stroke:#181818;stroke-width:0.9;" x1="25.0014" x2="256.7285" y1="217.8686" y2="217.8686"/><text fill="#000000" font-family="sans-serif" font-size="11.7" font-weight="bold" lengthAdjust="spacing" textLength="6.507" x="31.3014" y="213.1321">5</text><text fill="#000000" font-family="sans-serif" font-size="11.7" lengthAdjust="spacing" textLength="209.9202" x="41.4083" y="213.1321">loadOperations("path/to/operations.csv")</text><polygon fill="#181818" points="698.5151,242.4305,707.5151,246.0305,698.5151,249.6305,702.1151,246.0305" style="stroke:#181818;stroke-width:0.9;"/><line style="stroke:#181818;stroke-width:0.9;" x1="271.1285" x2="703.9151" y1="246.0305" y2="246.0305"/><text fill="#000000" font-family="sans-serif" font-size="11.7" font-weight="bold" lengthAdjust="spacing" textLength="6.507" x="277.4285" y="241.294">6</text><text fill="#000000" font-family="sans-serif" font-size="11.7" lengthAdjust="spacing" textLength="265.3295" x="287.5355" y="241.294">insertNewOperationNode(id, name, price, parentId)</text><polygon fill="#181818" points="1127.7831,270.5924,1136.7831,274.1924,1127.7831,277.7924,1131.3831,274.1924" style="stroke:#181818;stroke-width:0.9;"/><line style="stroke:#181818;stroke-width:0.9;stroke-dasharray:2.0,2.0;" x1="718.3151" x2="1133.1831" y1="274.1924" y2="274.1924"/><text fill="#000000" font-family="sans-serif" font-size="11.7" font-weight="bold" lengthAdjust="spacing" textLength="6.507" x="724.6151" y="269.456">7</text><text fill="#000000" font-family="sans-serif" font-size="11.7" lengthAdjust="spacing" textLength="32.5178" x="734.7221" y="269.456">create</text><polygon fill="#181818" points="728.2151,298.7543,719.2151,302.3543,728.2151,305.9543,724.6151,302.3543" style="stroke:#181818;stroke-width:0.9;"/><line style="stroke:#181818;stroke-width:0.9;stroke-dasharray:2.0,2.0;" x1="722.8151" x2="1142.1831" y1="302.3543" y2="302.3543"/><text fill="#000000" font-family="sans-serif" font-size="11.7" font-weight="bold" lengthAdjust="spacing" textLength="6.507" x="733.6151" y="297.6179">8</text><text fill="#000000" font-family="sans-serif" font-size="11.7" lengthAdjust="spacing" textLength="19.5209" x="743.7221" y="297.6179">add</text><polygon fill="#181818" points="276.5285,326.9162,267.5285,330.5162,276.5285,334.1162,272.9285,330.5162" style="stroke:#181818;stroke-width:0.9;"/><line style="stroke:#181818;stroke-width:0.9;stroke-dasharray:2.0,2.0;" x1="271.1285" x2="712.9151" y1="330.5162" y2="330.5162"/><text fill="#000000" font-family="sans-serif" font-size="11.7" font-weight="bold" lengthAdjust="spacing" textLength="6.507" x="281.9285" y="325.7798">9</text><text fill="#000000" font-family="sans-serif" font-size="11.7" lengthAdjust="spacing" textLength="70.9027" x="292.0355" y="325.7798">node inserted</text><polygon fill="#181818" points="251.3285,355.0781,260.3285,358.6781,251.3285,362.2781,254.9285,358.6781" style="stroke:#181818;stroke-width:0.9;"/><line style="stroke:#181818;stroke-width:0.9;" x1="25.0014" x2="256.7285" y1="358.6781" y2="358.6781"/><text fill="#000000" font-family="sans-serif" font-size="11.7" font-weight="bold" lengthAdjust="spacing" textLength="13.014" x="31.3014" y="353.9417">10</text><text fill="#000000" font-family="sans-serif" font-size="11.7" lengthAdjust="spacing" textLength="147.4611" x="47.9153" y="353.9417">loadBOM("path/to/bom.csv")</text><polygon fill="#181818" points="698.5151,383.24,707.5151,386.84,698.5151,390.44,702.1151,386.84" style="stroke:#181818;stroke-width:0.9;"/><line style="stroke:#181818;stroke-width:0.9;" x1="271.1285" x2="703.9151" y1="386.84" y2="386.84"/><text fill="#000000" font-family="sans-serif" font-size="11.7" font-weight="bold" lengthAdjust="spacing" textLength="13.014" x="277.4285" y="382.1036">11</text><text fill="#000000" font-family="sans-serif" font-size="11.7" lengthAdjust="spacing" textLength="404.4727" x="294.0425" y="382.1036">insertNewMaterialNode(materialId, materialName, quantity, price, operationId)</text><polygon fill="#181818" points="1127.7831,411.402,1136.7831,415.002,1127.7831,418.602,1131.3831,415.002" style="stroke:#181818;stroke-width:0.9;"/><line style="stroke:#181818;stroke-width:0.9;stroke-dasharray:2.0,2.0;" x1="718.3151" x2="1133.1831" y1="415.002" y2="415.002"/><text fill="#000000" font-family="sans-serif" font-size="11.7" font-weight="bold" lengthAdjust="spacing" textLength="13.014" x="724.6151" y="410.2655">12</text><text fill="#000000" font-family="sans-serif" font-size="11.7" lengthAdjust="spacing" textLength="32.5178" x="741.2291" y="410.2655">create</text><polygon fill="#181818" points="728.2151,439.5639,719.2151,443.1639,728.2151,446.7639,724.6151,443.1639" style="stroke:#181818;stroke-width:0.9;"/><line style="stroke:#181818;stroke-width:0.9;stroke-dasharray:2.0,2.0;" x1="722.8151" x2="1142.1831" y1="443.1639" y2="443.1639"/><text fill="#000000" font-family="sans-serif" font-size="11.7" font-weight="bold" lengthAdjust="spacing" textLength="13.014" x="733.6151" y="438.4274">13</text><text fill="#000000" font-family="sans-serif" font-size="11.7" lengthAdjust="spacing" textLength="19.5209" x="750.2291" y="438.4274">add</text><polygon fill="#181818" points="276.5285,467.7258,267.5285,471.3258,276.5285,474.9258,272.9285,471.3258" style="stroke:#181818;stroke-width:0.9;"/><line style="stroke:#181818;stroke-width:0.9;stroke-dasharray:2.0,2.0;" x1="271.1285" x2="712.9151" y1="471.3258" y2="471.3258"/><text fill="#000000" font-family="sans-serif" font-size="11.7" font-weight="bold" lengthAdjust="spacing" textLength="13.014" x="281.9285" y="466.5894">14</text><text fill="#000000" font-family="sans-serif" font-size="11.7" lengthAdjust="spacing" textLength="115.766" x="298.5425" y="466.5894">material node inserted</text><polygon fill="#181818" points="872.5496,495.8877,881.5496,499.4877,872.5496,503.0877,876.1496,499.4877" style="stroke:#181818;stroke-width:0.9;"/><line style="stroke:#181818;stroke-width:0.9;" x1="25.0014" x2="877.9496" y1="499.4877" y2="499.4877"/><text fill="#000000" font-family="sans-serif" font-size="11.7" font-weight="bold" lengthAdjust="spacing" textLength="13.014" x="31.3014" y="494.7513">15</text><text fill="#000000" font-family="sans-serif" font-size="11.7" lengthAdjust="spacing" textLength="130.054" x="47.9153" y="494.7513">displayProductionTrees()</text><polygon fill="#181818" points="425.7844,524.0496,416.7844,527.6496,425.7844,531.2496,422.1844,527.6496" style="stroke:#181818;stroke-width:0.9;"/><line style="stroke:#181818;stroke-width:0.9;" x1="420.3844" x2="882.4496" y1="527.6496" y2="527.6496"/><text fill="#000000" font-family="sans-serif" font-size="11.7" font-weight="bold" lengthAdjust="spacing" textLength="13.014" x="431.1844" y="522.9132">16</text><text fill="#000000" font-family="sans-serif" font-size="11.7" lengthAdjust="spacing" textLength="68.2862" x="447.7983" y="522.9132">getInstance()</text><polygon fill="#181818" points="872.5496,552.2115,881.5496,555.8115,872.5496,559.4115,876.1496,555.8115" style="stroke:#181818;stroke-width:0.9;"/><line style="stroke:#181818;stroke-width:0.9;stroke-dasharray:2.0,2.0;" x1="411.3844" x2="877.9496" y1="555.8115" y2="555.8115"/><text fill="#000000" font-family="sans-serif" font-size="11.7" font-weight="bold" lengthAdjust="spacing" textLength="13.014" x="417.6844" y="551.0751">17</text><text fill="#000000" font-family="sans-serif" font-size="11.7" lengthAdjust="spacing" textLength="98.1989" x="434.2983" y="551.0751">repository instance</text><polygon fill="#181818" points="728.2151,580.3734,719.2151,583.9734,728.2151,587.5734,724.6151,583.9734" style="stroke:#181818;stroke-width:0.9;"/><line style="stroke:#181818;stroke-width:0.9;" x1="722.8151" x2="882.4496" y1="583.9734" y2="583.9734"/><text fill="#000000" font-family="sans-serif" font-size="11.7" font-weight="bold" lengthAdjust="spacing" textLength="13.014" x="733.6151" y="579.237">18</text><text fill="#000000" font-family="sans-serif" font-size="11.7" lengthAdjust="spacing" textLength="104.0489" x="750.2291" y="579.237">getProductionTree()</text><polygon fill="#181818" points="872.5496,608.5354,881.5496,612.1354,872.5496,615.7354,876.1496,612.1354" style="stroke:#181818;stroke-width:0.9;"/><line style="stroke:#181818;stroke-width:0.9;stroke-dasharray:2.0,2.0;" x1="713.8151" x2="877.9496" y1="612.1354" y2="612.1354"/><text fill="#000000" font-family="sans-serif" font-size="11.7" font-weight="bold" lengthAdjust="spacing" textLength="13.014" x="720.1151" y="607.3989">19</text><text fill="#000000" font-family="sans-serif" font-size="11.7" lengthAdjust="spacing" textLength="126.8205" x="736.7291" y="607.3989">ProductionTree instance</text><polygon fill="#181818" points="728.2151,636.6973,719.2151,640.2973,728.2151,643.8973,724.6151,640.2973" style="stroke:#181818;stroke-width:0.9;"/><line style="stroke:#181818;stroke-width:0.9;" x1="722.8151" x2="882.4496" y1="640.2973" y2="640.2973"/><text fill="#000000" font-family="sans-serif" font-size="11.7" font-weight="bold" lengthAdjust="spacing" textLength="13.014" x="733.6151" y="635.5608">20</text><text fill="#000000" font-family="sans-serif" font-size="11.7" lengthAdjust="spacing" textLength="82.5913" x="750.2291" y="635.5608">getRootNodes()</text><polygon fill="#181818" points="872.5496,664.8592,881.5496,668.4592,872.5496,672.0592,876.1496,668.4592" style="stroke:#181818;stroke-width:0.9;"/><line style="stroke:#181818;stroke-width:0.9;stroke-dasharray:2.0,2.0;" x1="713.8151" x2="877.9496" y1="668.4592" y2="668.4592"/><text fill="#000000" font-family="sans-serif" font-size="11.7" font-weight="bold" lengthAdjust="spacing" textLength="13.014" x="720.1151" y="663.7228">21</text><text fill="#000000" font-family="sans-serif" font-size="11.7" lengthAdjust="spacing" textLength="85.8476" x="736.7291" y="663.7228">list of root nodes</text><path d="M808.8205,681.9592 L862.9743,681.9592 L862.9743,690.3211 L853.9743,699.3211 L808.8205,699.3211 L808.8205,681.9592 " fill="#EEEEEE" style="stroke:#000000;stroke-width:1.35;"/><rect fill="none" height="155.2096" style="stroke:#000000;stroke-width:1.35;" width="489.226" x="808.8205" y="681.9592"/><text fill="#000000" font-family="sans-serif" font-size="11.7" font-weight="bold" lengthAdjust="spacing" textLength="13.6538" x="822.3205" y="695.4847">alt</text><text fill="#000000" font-family="sans-serif" font-size="9.9" font-weight="bold" lengthAdjust="spacing" textLength="96.2495" x="876.4743" y="694.4423">[For each root node]</text><polygon fill="#181818" points="1127.7831,716.683,1136.7831,720.283,1127.7831,723.883,1131.3831,720.283" style="stroke:#181818;stroke-width:0.9;"/><line style="stroke:#181818;stroke-width:0.9;" x1="892.3496" x2="1133.1831" y1="720.283" y2="720.283"/><text fill="#000000" font-family="sans-serif" font-size="11.7" font-weight="bold" lengthAdjust="spacing" textLength="13.014" x="898.6496" y="715.5466">22</text><text fill="#000000" font-family="sans-serif" font-size="11.7" lengthAdjust="spacing" textLength="212.5195" x="915.2635" y="715.5466">displayProductionTree(node, "", quantity)</text><path d="M1080.853,733.783 L1146.0441,733.783 L1146.0441,742.1449 L1137.0441,751.1449 L1080.853,751.1449 L1080.853,733.783 " fill="#EEEEEE" style="stroke:#000000;stroke-width:1.35;"/><rect fill="none" height="97.0857" style="stroke:#000000;stroke-width:1.35;" width="208.1936" x="1080.853" y="733.783"/><text fill="#000000" font-family="sans-serif" font-size="11.7" font-weight="bold" lengthAdjust="spacing" textLength="24.6911" x="1094.353" y="747.3085">loop</text><text fill="#000000" font-family="sans-serif" font-size="9.9" font-weight="bold" lengthAdjust="spacing" textLength="105.6322" x="1159.5441" y="746.2661">[Traverse child nodes]</text><line style="stroke:#181818;stroke-width:0.9;" x1="1147.5831" x2="1189.8831" y1="767.6068" y2="767.6068"/><line style="stroke:#181818;stroke-width:0.9;" x1="1189.8831" x2="1189.8831" y1="767.6068" y2="779.3068"/><line style="stroke:#181818;stroke-width:0.9;" x1="1152.9831" x2="1189.8831" y1="779.3068" y2="779.3068"/><polygon fill="#181818" points="1161.9831,775.7068,1152.9831,779.3068,1161.9831,782.9068,1158.3831,779.3068" style="stroke:#181818;stroke-width:0.9;"/><text fill="#000000" font-family="sans-serif" font-size="11.7" font-weight="bold" lengthAdjust="spacing" textLength="13.014" x="1158.3831" y="762.8704">23</text><text fill="#000000" font-family="sans-serif" font-size="11.7" lengthAdjust="spacing" textLength="67.6292" x="1174.997" y="762.8704">getChildren()</text><line style="stroke:#181818;stroke-width:0.9;stroke-dasharray:2.0,2.0;" x1="1152.0831" x2="1189.8831" y1="816.4688" y2="816.4688"/><line style="stroke:#181818;stroke-width:0.9;stroke-dasharray:2.0,2.0;" x1="1189.8831" x2="1189.8831" y1="816.4688" y2="828.1688"/><line style="stroke:#181818;stroke-width:0.9;stroke-dasharray:2.0,2.0;" x1="1147.5831" x2="1189.8831" y1="828.1688" y2="828.1688"/><polygon fill="#181818" points="1156.5831,824.5688,1147.5831,828.1688,1156.5831,831.7688,1152.9831,828.1688" style="stroke:#181818;stroke-width:0.9;"/><text fill="#000000" font-family="sans-serif" font-size="11.7" font-weight="bold" lengthAdjust="spacing" textLength="13.014" x="1158.3831" y="811.7323">24</text><text fill="#000000" font-family="sans-serif" font-size="11.7" lengthAdjust="spacing" textLength="89.7495" x="1174.997" y="811.7323">list of child nodes</text><polygon fill="#181818" points="34.9014,860.8307,25.9014,864.4307,34.9014,868.0307,31.3014,864.4307" style="stroke:#181818;stroke-width:0.9;"/><line style="stroke:#181818;stroke-width:0.9;stroke-dasharray:2.0,2.0;" x1="29.5014" x2="886.9496" y1="864.4307" y2="864.4307"/><text fill="#000000" font-family="sans-serif" font-size="11.7" font-weight="bold" lengthAdjust="spacing" textLength="13.014" x="40.3014" y="859.6942">25</text><text fill="#000000" font-family="sans-serif" font-size="11.7" lengthAdjust="spacing" textLength="132.659" x="56.9153" y="859.6942">display success message</text><polygon fill="#181818" points="698.5151,888.9926,707.5151,892.5926,698.5151,896.1926,702.1151,892.5926" style="stroke:#181818;stroke-width:0.9;"/><line style="stroke:#181818;stroke-width:0.9;" x1="25.0014" x2="703.9151" y1="892.5926" y2="892.5926"/><text fill="#000000" font-family="sans-serif" font-size="11.7" font-weight="bold" lengthAdjust="spacing" textLength="13.014" x="31.3014" y="887.8562">26</text><text fill="#000000" font-family="sans-serif" font-size="11.7" lengthAdjust="spacing" textLength="251.67" x="47.9153" y="887.8562">updateMaterialQuantity(materialId, newQuantity)</text><polygon fill="#181818" points="34.9014,917.1545,25.9014,920.7545,34.9014,924.3545,31.3014,920.7545" style="stroke:#181818;stroke-width:0.9;"/><line style="stroke:#181818;stroke-width:0.9;stroke-dasharray:2.0,2.0;" x1="29.5014" x2="712.9151" y1="920.7545" y2="920.7545"/><text fill="#000000" font-family="sans-serif" font-size="11.7" font-weight="bold" lengthAdjust="spacing" textLength="13.014" x="40.3014" y="916.0181">27</text><text fill="#000000" font-family="sans-serif" font-size="11.7" lengthAdjust="spacing" textLength="86.5217" x="56.9153" y="916.0181">quantity updated</text><polygon fill="#181818" points="698.5151,945.3164,707.5151,948.9164,698.5151,952.5164,702.1151,948.9164" style="stroke:#181818;stroke-width:0.9;"/><line style="stroke:#181818;stroke-width:0.9;" x1="25.0014" x2="703.9151" y1="948.9164" y2="948.9164"/><text fill="#000000" font-family="sans-serif" font-size="11.7" font-weight="bold" lengthAdjust="spacing" textLength="13.014" x="31.3014" y="944.18">28</text><text fill="#000000" font-family="sans-serif" font-size="11.7" lengthAdjust="spacing" textLength="182.7211" x="47.9153" y="944.18">searchNodeByNameOrId(identifier)</text><polygon fill="#181818" points="34.9014,973.4783,25.9014,977.0783,34.9014,980.6783,31.3014,977.0783" style="stroke:#181818;stroke-width:0.9;"/><line style="stroke:#181818;stroke-width:0.9;stroke-dasharray:2.0,2.0;" x1="29.5014" x2="712.9151" y1="977.0783" y2="977.0783"/><text fill="#000000" font-family="sans-serif" font-size="11.7" font-weight="bold" lengthAdjust="spacing" textLength="13.014" x="40.3014" y="972.3419">29</text><text fill="#000000" font-family="sans-serif" font-size="11.7" lengthAdjust="spacing" textLength="136.5895" x="56.9153" y="972.3419">node details (or not found)</text><!--SRC=[rLQnSjim3Dtr5JXDpftTx1uwfBtUUKZSfEdMXI5XcnU9L4agFlzzGLgIHPdqEKsNUh0ba7XuU210srUf6cPO3RLMck-ChX6SQR6mmqh3-2lRuWztg10CSiVKjXfli3icz5wgBMnOPR4eMEkqQkiNDFJCdJPG_hHeIc0M_4D1VavosJ3be7n29hh5u-DqkT5M4eX4-qijnw-TpyaGUtutMhJSIQsU3IBvneRW7PjY_w_IDXKx9BoIAxdW3rh4mRrX4joRWbRoZJayYbGSrO35voX7MC8MtKfPgWF7sSt9grDlz3vI9e9O1Co0lgIITYi7a1tgnT1nraGW3zt40XK21t9zsSUsY73XHO0nMgMPM3Tec0Uqix9XRdVhzAqUR9-uVIlF5Hcb4vCdK4ePZNl0_O3iQp6JOWwArJYd72JtFyoWSYinGf-KVmAzYA9vK8h63P9d2YASWCd-HOem4sAiMHPX837efppcCL_CO8H4eeeS1KpMucvzVoh2Ywu_eluzEHZ9gY1-tRsig0ZzyqCenk-Mcakwmr2MeVR_TMNw9FCbIhNB9CkXICdfH554ocx74oGzruequ3lcqgKvb6ER6alPMP5bU0QR6c3lE3SvjXD3Yl7LggOuFsdj_36o_uPk9Qq3lG53iE7GsKjCMUNW6ztYj6DtSYc0FbSaqJLOylJDFD0SolBKsZS1DzT5OR7Ike5dmzxGM0I-avNeae3kCstN11yIzOltfB4-knaSSt5pm2daNjmKiVnyyAken373_BQm9QCwaGapO10RRCivMWirVT5_k76HCxtU3v6p8zCsWjpwEVtOLIkQrGhtZqCLtt5AEzBz2UX2YMjctHbDYypmdPVgxk3lZBLP2RhDwUwM6udcRtY5eIpGCLbPc54VAEg0ZMuLNJbvYdy0]--></g></svg>