<svg xmlns="http://www.w3.org/2000/svg" xmlns:xlink="http://www.w3.org/1999/xlink" contentStyleType="text/css" height="2013px" preserveAspectRatio="none" style="width:1623px;height:2013px;background:#FFFFFF;" version="1.1" viewBox="0 0 1623 2013" width="1623px" zoomAndPan="magnify"><defs/><g><rect fill="#FFFFFF" height="1827.2969" style="stroke:#181818;stroke-width:1.0;" width="10" x="17.7793" y="93.6211"/><rect fill="#FFFFFF" height="31.291" style="stroke:#181818;stroke-width:1.0;" width="10" x="330.9902" y="116.9121"/><rect fill="#FFFFFF" height="125.1641" style="stroke:#181818;stroke-width:1.0;" width="10" x="330.9902" y="179.4941"/><rect fill="#FFFFFF" height="62.582" style="stroke:#181818;stroke-width:1.0;" width="10" x="330.9902" y="335.9492"/><rect fill="#FFFFFF" height="479.3652" style="stroke:#181818;stroke-width:1.0;" width="10" x="330.9902" y="429.8223"/><rect fill="#FFFFFF" height="31.291" style="stroke:#181818;stroke-width:1.0;" width="10" x="485.3301" y="116.9121"/><rect fill="#FFFFFF" height="31.291" style="stroke:#181818;stroke-width:1.0;" width="10" x="704.3135" y="210.7852"/><rect fill="#FFFFFF" height="31.291" style="stroke:#181818;stroke-width:1.0;" width="10" x="704.3135" y="367.2402"/><rect fill="#FFFFFF" height="31.291" style="stroke:#181818;stroke-width:1.0;" width="10" x="704.3135" y="963.7695"/><rect fill="#FFFFFF" height="31.291" style="stroke:#181818;stroke-width:1.0;" width="10" x="704.3135" y="1199.0977"/><rect fill="#FFFFFF" height="31.291" style="stroke:#181818;stroke-width:1.0;" width="10" x="704.3135" y="1406.5527"/><rect fill="#FFFFFF" height="31.291" style="stroke:#181818;stroke-width:1.0;" width="10" x="704.3135" y="1641.8809"/><rect fill="#FFFFFF" height="31.291" style="stroke:#181818;stroke-width:1.0;" width="10" x="899.875" y="1052.6426"/><rect fill="#FFFFFF" height="165.1641" style="stroke:#181818;stroke-width:1.0;" width="10" x="899.875" y="1141.5156"/><rect fill="#FFFFFF" height="31.291" style="stroke:#181818;stroke-width:1.0;" width="10" x="899.875" y="1495.4258"/><rect fill="#FFFFFF" height="165.1641" style="stroke:#181818;stroke-width:1.0;" width="10" x="899.875" y="1584.2988"/><rect fill="#FFFFFF" height="31.291" style="stroke:#181818;stroke-width:1.0;" width="10" x="1042.5435" y="273.3672"/><rect fill="#FFFFFF" height="411.4922" style="stroke:#181818;stroke-width:1.0;" width="10" x="1356.3062" y="932.4785"/><rect fill="#FFFFFF" height="30" style="stroke:#181818;stroke-width:1.0;" width="10" x="1361.3062" y="1261.6797"/><rect fill="#FFFFFF" height="536.6563" style="stroke:#181818;stroke-width:1.0;" width="10" x="1356.3062" y="1375.2617"/><rect fill="#FFFFFF" height="30" style="stroke:#181818;stroke-width:1.0;" width="10" x="1361.3062" y="1704.4629"/><rect fill="#FFFFFF" height="31.291" style="stroke:#181818;stroke-width:1.0;" width="10" x="1494.7451" y="1786.7539"/><rect fill="#FFFFFF" height="31.291" style="stroke:#181818;stroke-width:1.0;" width="10" x="1579.4277" y="1849.3359"/><rect fill="none" height="207.0371" style="stroke:#000000;stroke-width:1.5;" width="835.0356" x="296.0317" y="695.1504"/><rect fill="none" height="303.6191" style="stroke:#000000;stroke-width:1.5;" width="846.606" x="622.5103" y="1010.0605"/><rect fill="none" height="207.7461" style="stroke:#000000;stroke-width:1.5;" width="826.606" x="632.5103" y="1098.9336"/><rect fill="none" height="143.1641" style="stroke:#000000;stroke-width:1.5;" width="806.606" x="642.5103" y="1156.5156"/><rect fill="none" height="303.6191" style="stroke:#000000;stroke-width:1.5;" width="846.606" x="622.5103" y="1452.8438"/><rect fill="none" height="207.7461" style="stroke:#000000;stroke-width:1.5;" width="826.606" x="632.5103" y="1541.7168"/><rect fill="none" height="143.1641" style="stroke:#000000;stroke-width:1.5;" width="806.606" x="642.5103" y="1599.2988"/><line style="stroke:#181818;stroke-width:0.5;stroke-dasharray:5.0,5.0;" x1="22" x2="22" y1="83.6211" y2="1929.918"/><line style="stroke:#181818;stroke-width:0.5;stroke-dasharray:5.0,5.0;" x1="335.0317" x2="335.0317" y1="83.6211" y2="1929.918"/><line style="stroke:#181818;stroke-width:0.5;stroke-dasharray:5.0,5.0;" x1="489.4785" x2="489.4785" y1="83.6211" y2="1929.918"/><line style="stroke:#181818;stroke-width:0.5;stroke-dasharray:5.0,5.0;" x1="708.5103" x2="708.5103" y1="83.6211" y2="1929.918"/><line style="stroke:#181818;stroke-width:0.5;stroke-dasharray:5.0,5.0;" x1="904.7305" x2="904.7305" y1="83.6211" y2="1929.918"/><line style="stroke:#181818;stroke-width:0.5;stroke-dasharray:5.0,5.0;" x1="1047.0195" x2="1047.0195" y1="83.6211" y2="1929.918"/><line style="stroke:#181818;stroke-width:0.5;stroke-dasharray:5.0,5.0;" x1="1360.4961" x2="1360.4961" y1="83.6211" y2="1929.918"/><line style="stroke:#181818;stroke-width:0.5;stroke-dasharray:5.0,5.0;" x1="1499.1279" x2="1499.1279" y1="83.6211" y2="1929.918"/><line style="stroke:#181818;stroke-width:0.5;stroke-dasharray:5.0,5.0;" x1="1584.3623" x2="1584.3623" y1="83.6211" y2="1929.918"/><text fill="#000000" font-family="sans-serif" font-size="14" lengthAdjust="spacing" textLength="29.5586" x="5" y="80.1074">User</text><ellipse cx="22.7793" cy="13.5" fill="#E3E3E3" rx="8" ry="8" style="stroke:#181818;stroke-width:0.5;"/><path d="M22.7793,21.5 L22.7793,48.5 M9.7793,29.5 L35.7793,29.5 M22.7793,48.5 L9.7793,63.5 M22.7793,48.5 L35.7793,63.5 " fill="none" style="stroke:#181818;stroke-width:0.5;"/><text fill="#000000" font-family="sans-serif" font-size="14" lengthAdjust="spacing" textLength="29.5586" x="5" y="1944.0254">User</text><ellipse cx="22.7793" cy="1956.0391" fill="#E3E3E3" rx="8" ry="8" style="stroke:#181818;stroke-width:0.5;"/><path d="M22.7793,1964.0391 L22.7793,1991.0391 M9.7793,1972.0391 L35.7793,1972.0391 M22.7793,1991.0391 L9.7793,2006.0391 M22.7793,1991.0391 L35.7793,2006.0391 " fill="none" style="stroke:#181818;stroke-width:0.5;"/><rect fill="#E3E3E3" height="32.6211" rx="2.5" ry="2.5" style="stroke:#181818;stroke-width:0.5;" width="59.917" x="306.0317" y="50"/><text fill="#000000" font-family="sans-serif" font-size="14" lengthAdjust="spacing" textLength="45.917" x="313.0317" y="72.1074">Reader</text><rect fill="#E3E3E3" height="32.6211" rx="2.5" ry="2.5" style="stroke:#181818;stroke-width:0.5;" width="59.917" x="306.0317" y="1928.918"/><text fill="#000000" font-family="sans-serif" font-size="14" lengthAdjust="spacing" textLength="45.917" x="313.0317" y="1951.0254">Reader</text><rect fill="#E3E3E3" height="51.2422" rx="2.5" ry="2.5" style="stroke:#181818;stroke-width:0.5;" width="95.7031" x="442.4785" y="31.3789"/><text fill="#000000" font-family="sans-serif" font-size="14" lengthAdjust="spacing" textLength="77.8135" x="451.4233" y="53.4863">Repositories</text><text fill="#000000" font-family="sans-serif" font-size="14" lengthAdjust="spacing" textLength="81.7031" x="449.4785" y="72.1074">:Repositories</text><rect fill="#E3E3E3" height="51.2422" rx="2.5" ry="2.5" style="stroke:#181818;stroke-width:0.5;" width="95.7031" x="442.4785" y="1928.918"/><text fill="#000000" font-family="sans-serif" font-size="14" lengthAdjust="spacing" textLength="77.8135" x="451.4233" y="1951.0254">Repositories</text><text fill="#000000" font-family="sans-serif" font-size="14" lengthAdjust="spacing" textLength="81.7031" x="449.4785" y="1969.6465">:Repositories</text><rect fill="#E3E3E3" height="51.2422" rx="2.5" ry="2.5" style="stroke:#181818;stroke-width:0.5;" width="113.6064" x="652.5103" y="31.3789"/><text fill="#000000" font-family="sans-serif" font-size="14" lengthAdjust="spacing" textLength="95.7168" x="661.4551" y="53.4863">ProductionTree</text><text fill="#000000" font-family="sans-serif" font-size="14" lengthAdjust="spacing" textLength="99.6064" x="659.5103" y="72.1074">:ProductionTree</text><rect fill="#E3E3E3" height="51.2422" rx="2.5" ry="2.5" style="stroke:#181818;stroke-width:0.5;" width="113.6064" x="652.5103" y="1928.918"/><text fill="#000000" font-family="sans-serif" font-size="14" lengthAdjust="spacing" textLength="95.7168" x="661.4551" y="1951.0254">ProductionTree</text><text fill="#000000" font-family="sans-serif" font-size="14" lengthAdjust="spacing" textLength="99.6064" x="659.5103" y="1969.6465">:ProductionTree</text><rect fill="#E3E3E3" height="51.2422" rx="2.5" ry="2.5" style="stroke:#181818;stroke-width:0.5;" width="118.2891" x="845.7305" y="31.3789"/><text fill="#000000" font-family="sans-serif" font-size="14" lengthAdjust="spacing" textLength="100.3994" x="854.6753" y="53.4863">ProductionNode</text><text fill="#000000" font-family="sans-serif" font-size="14" lengthAdjust="spacing" textLength="104.2891" x="852.7305" y="72.1074">:ProductionNode</text><rect fill="#E3E3E3" height="51.2422" rx="2.5" ry="2.5" style="stroke:#181818;stroke-width:0.5;" width="118.2891" x="845.7305" y="1928.918"/><text fill="#000000" font-family="sans-serif" font-size="14" lengthAdjust="spacing" textLength="100.3994" x="854.6753" y="1951.0254">ProductionNode</text><text fill="#000000" font-family="sans-serif" font-size="14" lengthAdjust="spacing" textLength="104.2891" x="852.7305" y="1969.6465">:ProductionNode</text><rect fill="#E3E3E3" height="51.2422" rx="2.5" ry="2.5" style="stroke:#181818;stroke-width:0.5;" width="147.0479" x="974.0195" y="31.3789"/><text fill="#000000" font-family="sans-serif" font-size="14" lengthAdjust="spacing" textLength="129.1582" x="982.9644" y="53.4863">MaterialQuantityBST</text><text fill="#000000" font-family="sans-serif" font-size="14" lengthAdjust="spacing" textLength="133.0479" x="981.0195" y="72.1074">:MaterialQuantityBST</text><rect fill="#E3E3E3" height="51.2422" rx="2.5" ry="2.5" style="stroke:#181818;stroke-width:0.5;" width="147.0479" x="974.0195" y="1928.918"/><text fill="#000000" font-family="sans-serif" font-size="14" lengthAdjust="spacing" textLength="129.1582" x="982.9644" y="1951.0254">MaterialQuantityBST</text><text fill="#000000" font-family="sans-serif" font-size="14" lengthAdjust="spacing" textLength="133.0479" x="981.0195" y="1969.6465">:MaterialQuantityBST</text><rect fill="#E3E3E3" height="32.6211" rx="2.5" ry="2.5" style="stroke:#181818;stroke-width:0.5;" width="155.6201" x="1283.4961" y="50"/><text fill="#000000" font-family="sans-serif" font-size="14" lengthAdjust="spacing" textLength="141.6201" x="1290.4961" y="72.1074">DisplayProductionTree</text><rect fill="#E3E3E3" height="32.6211" rx="2.5" ry="2.5" style="stroke:#181818;stroke-width:0.5;" width="155.6201" x="1283.4961" y="1928.918"/><text fill="#000000" font-family="sans-serif" font-size="14" lengthAdjust="spacing" textLength="141.6201" x="1290.4961" y="1951.0254">DisplayProductionTree</text><rect fill="#E3E3E3" height="32.6211" rx="2.5" ry="2.5" style="stroke:#181818;stroke-width:0.5;" width="83.2344" x="1458.1279" y="50"/><text fill="#000000" font-family="sans-serif" font-size="14" lengthAdjust="spacing" textLength="69.2344" x="1465.1279" y="72.1074">FileSystem</text><rect fill="#E3E3E3" height="32.6211" rx="2.5" ry="2.5" style="stroke:#181818;stroke-width:0.5;" width="83.2344" x="1458.1279" y="1928.918"/><text fill="#000000" font-family="sans-serif" font-size="14" lengthAdjust="spacing" textLength="69.2344" x="1465.1279" y="1951.0254">FileSystem</text><rect fill="#E3E3E3" height="32.6211" rx="2.5" ry="2.5" style="stroke:#181818;stroke-width:0.5;" width="66.1309" x="1551.3623" y="50"/><text fill="#000000" font-family="sans-serif" font-size="14" lengthAdjust="spacing" textLength="52.1309" x="1558.3623" y="72.1074">Runtime</text><rect fill="#E3E3E3" height="32.6211" rx="2.5" ry="2.5" style="stroke:#181818;stroke-width:0.5;" width="66.1309" x="1551.3623" y="1928.918"/><text fill="#000000" font-family="sans-serif" font-size="14" lengthAdjust="spacing" textLength="52.1309" x="1558.3623" y="1951.0254">Runtime</text><rect fill="#FFFFFF" height="1827.2969" style="stroke:#181818;stroke-width:1.0;" width="10" x="17.7793" y="93.6211"/><rect fill="#FFFFFF" height="31.291" style="stroke:#181818;stroke-width:1.0;" width="10" x="330.9902" y="116.9121"/><rect fill="#FFFFFF" height="125.1641" style="stroke:#181818;stroke-width:1.0;" width="10" x="330.9902" y="179.4941"/><rect fill="#FFFFFF" height="62.582" style="stroke:#181818;stroke-width:1.0;" width="10" x="330.9902" y="335.9492"/><rect fill="#FFFFFF" height="479.3652" style="stroke:#181818;stroke-width:1.0;" width="10" x="330.9902" y="429.8223"/><rect fill="#FFFFFF" height="31.291" style="stroke:#181818;stroke-width:1.0;" width="10" x="485.3301" y="116.9121"/><rect fill="#FFFFFF" height="31.291" style="stroke:#181818;stroke-width:1.0;" width="10" x="704.3135" y="210.7852"/><rect fill="#FFFFFF" height="31.291" style="stroke:#181818;stroke-width:1.0;" width="10" x="704.3135" y="367.2402"/><rect fill="#FFFFFF" height="31.291" style="stroke:#181818;stroke-width:1.0;" width="10" x="704.3135" y="963.7695"/><rect fill="#FFFFFF" height="31.291" style="stroke:#181818;stroke-width:1.0;" width="10" x="704.3135" y="1199.0977"/><rect fill="#FFFFFF" height="31.291" style="stroke:#181818;stroke-width:1.0;" width="10" x="704.3135" y="1406.5527"/><rect fill="#FFFFFF" height="31.291" style="stroke:#181818;stroke-width:1.0;" width="10" x="704.3135" y="1641.8809"/><rect fill="#FFFFFF" height="31.291" style="stroke:#181818;stroke-width:1.0;" width="10" x="899.875" y="1052.6426"/><rect fill="#FFFFFF" height="165.1641" style="stroke:#181818;stroke-width:1.0;" width="10" x="899.875" y="1141.5156"/><rect fill="#FFFFFF" height="31.291" style="stroke:#181818;stroke-width:1.0;" width="10" x="899.875" y="1495.4258"/><rect fill="#FFFFFF" height="165.1641" style="stroke:#181818;stroke-width:1.0;" width="10" x="899.875" y="1584.2988"/><rect fill="#FFFFFF" height="31.291" style="stroke:#181818;stroke-width:1.0;" width="10" x="1042.5435" y="273.3672"/><rect fill="#FFFFFF" height="411.4922" style="stroke:#181818;stroke-width:1.0;" width="10" x="1356.3062" y="932.4785"/><rect fill="#FFFFFF" height="30" style="stroke:#181818;stroke-width:1.0;" width="10" x="1361.3062" y="1261.6797"/><rect fill="#FFFFFF" height="536.6563" style="stroke:#181818;stroke-width:1.0;" width="10" x="1356.3062" y="1375.2617"/><rect fill="#FFFFFF" height="30" style="stroke:#181818;stroke-width:1.0;" width="10" x="1361.3062" y="1704.4629"/><rect fill="#FFFFFF" height="31.291" style="stroke:#181818;stroke-width:1.0;" width="10" x="1494.7451" y="1786.7539"/><rect fill="#FFFFFF" height="31.291" style="stroke:#181818;stroke-width:1.0;" width="10" x="1579.4277" y="1849.3359"/><polygon fill="#181818" points="473.3301,112.9121,483.3301,116.9121,473.3301,120.9121,477.3301,116.9121" style="stroke:#181818;stroke-width:1.0;"/><line style="stroke:#181818;stroke-width:1.0;" x1="340.9902" x2="479.3301" y1="116.9121" y2="116.9121"/><text fill="#000000" font-family="sans-serif" font-size="13" font-weight="bold" lengthAdjust="spacing" textLength="7.23" x="347.9902" y="111.6494">1</text><text fill="#000000" font-family="sans-serif" font-size="13" lengthAdjust="spacing" textLength="75.8735" x="359.2202" y="111.6494">getInstance()</text><polygon fill="#181818" points="346.9902,144.2031,336.9902,148.2031,346.9902,152.2031,342.9902,148.2031" style="stroke:#181818;stroke-width:1.0;"/><line style="stroke:#181818;stroke-width:1.0;stroke-dasharray:2.0,2.0;" x1="340.9902" x2="489.3301" y1="148.2031" y2="148.2031"/><text fill="#000000" font-family="sans-serif" font-size="13" font-weight="bold" lengthAdjust="spacing" textLength="7.23" x="352.9902" y="142.9404">2</text><text fill="#000000" font-family="sans-serif" font-size="13" lengthAdjust="spacing" textLength="109.1099" x="364.2202" y="142.9404">repository instance</text><polygon fill="#181818" points="318.9902,175.4941,328.9902,179.4941,318.9902,183.4941,322.9902,179.4941" style="stroke:#181818;stroke-width:1.0;"/><line style="stroke:#181818;stroke-width:1.0;" x1="27.7793" x2="324.9902" y1="179.4941" y2="179.4941"/><text fill="#000000" font-family="sans-serif" font-size="13" font-weight="bold" lengthAdjust="spacing" textLength="7.23" x="34.7793" y="174.2314">3</text><text fill="#000000" font-family="sans-serif" font-size="13" lengthAdjust="spacing" textLength="171.7866" x="46.0093" y="174.2314">loadItems("path/to/items.csv")</text><polygon fill="#181818" points="692.3135,206.7852,702.3135,210.7852,692.3135,214.7852,696.3135,210.7852" style="stroke:#181818;stroke-width:1.0;"/><line style="stroke:#181818;stroke-width:1.0;" x1="340.9902" x2="698.3135" y1="210.7852" y2="210.7852"/><text fill="#000000" font-family="sans-serif" font-size="13" font-weight="bold" lengthAdjust="spacing" textLength="7.23" x="347.9902" y="205.5225">4</text><text fill="#000000" font-family="sans-serif" font-size="13" lengthAdjust="spacing" textLength="213.1606" x="359.2202" y="205.5225">insertProductionNode(id, name, true)</text><polygon fill="#181818" points="351.9902,238.0762,341.9902,242.0762,351.9902,246.0762,347.9902,242.0762" style="stroke:#181818;stroke-width:1.0;"/><line style="stroke:#181818;stroke-width:1.0;stroke-dasharray:2.0,2.0;" x1="345.9902" x2="708.3135" y1="242.0762" y2="242.0762"/><text fill="#000000" font-family="sans-serif" font-size="13" font-weight="bold" lengthAdjust="spacing" textLength="7.23" x="357.9902" y="236.8135">5</text><text fill="#000000" font-family="sans-serif" font-size="13" lengthAdjust="spacing" textLength="78.7808" x="369.2202" y="236.8135">node inserted</text><polygon fill="#181818" points="1030.5435,269.3672,1040.5435,273.3672,1030.5435,277.3672,1034.5435,273.3672" style="stroke:#181818;stroke-width:1.0;"/><line style="stroke:#181818;stroke-width:1.0;" x1="340.9902" x2="1036.5435" y1="273.3672" y2="273.3672"/><text fill="#000000" font-family="sans-serif" font-size="13" font-weight="bold" lengthAdjust="spacing" textLength="7.23" x="347.9902" y="268.1045">6</text><text fill="#000000" font-family="sans-serif" font-size="13" lengthAdjust="spacing" textLength="148.1289" x="359.2202" y="268.1045">insert(ProductionNode, 0)</text><polygon fill="#181818" points="346.9902,300.6582,336.9902,304.6582,346.9902,308.6582,342.9902,304.6582" style="stroke:#181818;stroke-width:1.0;"/><line style="stroke:#181818;stroke-width:1.0;stroke-dasharray:2.0,2.0;" x1="340.9902" x2="1046.5435" y1="304.6582" y2="304.6582"/><text fill="#000000" font-family="sans-serif" font-size="13" font-weight="bold" lengthAdjust="spacing" textLength="7.23" x="352.9902" y="299.3955">7</text><text fill="#000000" font-family="sans-serif" font-size="13" lengthAdjust="spacing" textLength="46.96" x="364.2202" y="299.3955">success</text><polygon fill="#181818" points="318.9902,331.9492,328.9902,335.9492,318.9902,339.9492,322.9902,335.9492" style="stroke:#181818;stroke-width:1.0;"/><line style="stroke:#181818;stroke-width:1.0;" x1="27.7793" x2="324.9902" y1="335.9492" y2="335.9492"/><text fill="#000000" font-family="sans-serif" font-size="13" font-weight="bold" lengthAdjust="spacing" textLength="7.23" x="34.7793" y="330.6865">8</text><text fill="#000000" font-family="sans-serif" font-size="13" lengthAdjust="spacing" textLength="272.981" x="46.0093" y="330.6865">loadSimpleOperations("path/to/operations.csv")</text><polygon fill="#181818" points="692.3135,363.2402,702.3135,367.2402,692.3135,371.2402,696.3135,367.2402" style="stroke:#181818;stroke-width:1.0;"/><line style="stroke:#181818;stroke-width:1.0;" x1="340.9902" x2="698.3135" y1="367.2402" y2="367.2402"/><text fill="#000000" font-family="sans-serif" font-size="13" font-weight="bold" lengthAdjust="spacing" textLength="7.23" x="347.9902" y="361.9775">9</text><text fill="#000000" font-family="sans-serif" font-size="13" lengthAdjust="spacing" textLength="218.2197" x="359.2202" y="361.9775">insertProductionNode(id, name, false)</text><polygon fill="#181818" points="346.9902,394.5313,336.9902,398.5313,346.9902,402.5313,342.9902,398.5313" style="stroke:#181818;stroke-width:1.0;"/><line style="stroke:#181818;stroke-width:1.0;stroke-dasharray:2.0,2.0;" x1="340.9902" x2="708.3135" y1="398.5313" y2="398.5313"/><text fill="#000000" font-family="sans-serif" font-size="13" font-weight="bold" lengthAdjust="spacing" textLength="14.46" x="352.9902" y="393.2686">10</text><text fill="#000000" font-family="sans-serif" font-size="13" lengthAdjust="spacing" textLength="78.7808" x="371.4502" y="393.2686">node inserted</text><polygon fill="#181818" points="318.9902,425.8223,328.9902,429.8223,318.9902,433.8223,322.9902,429.8223" style="stroke:#181818;stroke-width:1.0;"/><line style="stroke:#181818;stroke-width:1.0;" x1="27.7793" x2="324.9902" y1="429.8223" y2="429.8223"/><text fill="#000000" font-family="sans-serif" font-size="13" font-weight="bold" lengthAdjust="spacing" textLength="14.46" x="34.7793" y="424.5596">11</text><text fill="#000000" font-family="sans-serif" font-size="13" lengthAdjust="spacing" textLength="159.5293" x="53.2393" y="424.5596">loadBOO("path/to/boo.csv")</text><polygon fill="#181818" points="697.3135,457.1133,707.3135,461.1133,697.3135,465.1133,701.3135,461.1133" style="stroke:#181818;stroke-width:1.0;"/><line style="stroke:#181818;stroke-width:1.0;" x1="340.9902" x2="703.3135" y1="461.1133" y2="461.1133"/><text fill="#000000" font-family="sans-serif" font-size="13" font-weight="bold" lengthAdjust="spacing" textLength="14.46" x="347.9902" y="455.8506">12</text><text fill="#000000" font-family="sans-serif" font-size="13" lengthAdjust="spacing" textLength="119.2217" x="366.4502" y="455.8506">getNodeById(itemId)</text><polygon fill="#181818" points="351.9902,488.4043,341.9902,492.4043,351.9902,496.4043,347.9902,492.4043" style="stroke:#181818;stroke-width:1.0;"/><line style="stroke:#181818;stroke-width:1.0;stroke-dasharray:2.0,2.0;" x1="345.9902" x2="708.3135" y1="492.4043" y2="492.4043"/><text fill="#000000" font-family="sans-serif" font-size="13" font-weight="bold" lengthAdjust="spacing" textLength="14.46" x="357.9902" y="487.1416">13</text><text fill="#000000" font-family="sans-serif" font-size="13" lengthAdjust="spacing" textLength="128.6289" x="376.4502" y="487.1416">node instance (or null)</text><polygon fill="#181818" points="697.3135,519.6953,707.3135,523.6953,697.3135,527.6953,701.3135,523.6953" style="stroke:#181818;stroke-width:1.0;"/><line style="stroke:#181818;stroke-width:1.0;" x1="340.9902" x2="703.3135" y1="523.6953" y2="523.6953"/><text fill="#000000" font-family="sans-serif" font-size="13" font-weight="bold" lengthAdjust="spacing" textLength="14.46" x="347.9902" y="518.4326">14</text><text fill="#000000" font-family="sans-serif" font-size="13" lengthAdjust="spacing" textLength="283.9434" x="366.4502" y="518.4326">insertProductionNode(itemId, itemId, true) (if null)</text><polygon fill="#181818" points="697.3135,550.9863,707.3135,554.9863,697.3135,558.9863,701.3135,554.9863" style="stroke:#181818;stroke-width:1.0;"/><line style="stroke:#181818;stroke-width:1.0;" x1="340.9902" x2="703.3135" y1="554.9863" y2="554.9863"/><text fill="#000000" font-family="sans-serif" font-size="13" font-weight="bold" lengthAdjust="spacing" textLength="14.46" x="347.9902" y="549.7236">15</text><text fill="#000000" font-family="sans-serif" font-size="13" lengthAdjust="spacing" textLength="109.1226" x="366.4502" y="549.7236">getNodeById(opId)</text><polygon fill="#181818" points="351.9902,582.2773,341.9902,586.2773,351.9902,590.2773,347.9902,586.2773" style="stroke:#181818;stroke-width:1.0;"/><line style="stroke:#181818;stroke-width:1.0;stroke-dasharray:2.0,2.0;" x1="345.9902" x2="708.3135" y1="586.2773" y2="586.2773"/><text fill="#000000" font-family="sans-serif" font-size="13" font-weight="bold" lengthAdjust="spacing" textLength="14.46" x="357.9902" y="581.0146">16</text><text fill="#000000" font-family="sans-serif" font-size="13" lengthAdjust="spacing" textLength="128.6289" x="376.4502" y="581.0146">node instance (or null)</text><polygon fill="#181818" points="697.3135,613.5684,707.3135,617.5684,697.3135,621.5684,701.3135,617.5684" style="stroke:#181818;stroke-width:1.0;"/><line style="stroke:#181818;stroke-width:1.0;" x1="340.9902" x2="703.3135" y1="617.5684" y2="617.5684"/><text fill="#000000" font-family="sans-serif" font-size="13" font-weight="bold" lengthAdjust="spacing" textLength="14.46" x="347.9902" y="612.3057">17</text><text fill="#000000" font-family="sans-serif" font-size="13" lengthAdjust="spacing" textLength="268.8042" x="366.4502" y="612.3057">insertProductionNode(opId, opId, false) (if null)</text><polygon fill="#181818" points="697.3135,644.8594,707.3135,648.8594,697.3135,652.8594,701.3135,648.8594" style="stroke:#181818;stroke-width:1.0;"/><line style="stroke:#181818;stroke-width:1.0;" x1="340.9902" x2="703.3135" y1="648.8594" y2="648.8594"/><text fill="#000000" font-family="sans-serif" font-size="13" font-weight="bold" lengthAdjust="spacing" textLength="14.46" x="347.9902" y="643.5967">18</text><text fill="#000000" font-family="sans-serif" font-size="13" lengthAdjust="spacing" textLength="252.9033" x="366.4502" y="643.5967">insertNewConnection(itemId, opId, quantity)</text><polygon fill="#181818" points="351.9902,676.1504,341.9902,680.1504,351.9902,684.1504,347.9902,680.1504" style="stroke:#181818;stroke-width:1.0;"/><line style="stroke:#181818;stroke-width:1.0;stroke-dasharray:2.0,2.0;" x1="345.9902" x2="708.3135" y1="680.1504" y2="680.1504"/><text fill="#000000" font-family="sans-serif" font-size="13" font-weight="bold" lengthAdjust="spacing" textLength="14.46" x="357.9902" y="674.8877">19</text><text fill="#000000" font-family="sans-serif" font-size="13" lengthAdjust="spacing" textLength="102.6416" x="376.4502" y="674.8877">connection added</text><path d="M296.0317,695.1504 L368.4663,695.1504 L368.4663,704.4414 L358.4663,714.4414 L296.0317,714.4414 L296.0317,695.1504 " fill="#EEEEEE" style="stroke:#000000;stroke-width:1.5;"/><rect fill="none" height="207.0371" style="stroke:#000000;stroke-width:1.5;" width="835.0356" x="296.0317" y="695.1504"/><text fill="#000000" font-family="sans-serif" font-size="13" font-weight="bold" lengthAdjust="spacing" textLength="27.4346" x="311.0317" y="710.1787">loop</text><text fill="#000000" font-family="sans-serif" font-size="11" font-weight="bold" lengthAdjust="spacing" textLength="98.4038" x="383.4663" y="709.0205">[For each subitem]</text><polygon fill="#181818" points="697.3135,733.7324,707.3135,737.7324,697.3135,741.7324,701.3135,737.7324" style="stroke:#181818;stroke-width:1.0;"/><line style="stroke:#181818;stroke-width:1.0;" x1="340.9902" x2="703.3135" y1="737.7324" y2="737.7324"/><text fill="#000000" font-family="sans-serif" font-size="13" font-weight="bold" lengthAdjust="spacing" textLength="14.46" x="347.9902" y="732.4697">20</text><text fill="#000000" font-family="sans-serif" font-size="13" lengthAdjust="spacing" textLength="140.1816" x="366.4502" y="732.4697">getNodeById(subitemId)</text><polygon fill="#181818" points="351.9902,765.0234,341.9902,769.0234,351.9902,773.0234,347.9902,769.0234" style="stroke:#181818;stroke-width:1.0;"/><line style="stroke:#181818;stroke-width:1.0;stroke-dasharray:2.0,2.0;" x1="345.9902" x2="708.3135" y1="769.0234" y2="769.0234"/><text fill="#000000" font-family="sans-serif" font-size="13" font-weight="bold" lengthAdjust="spacing" textLength="14.46" x="357.9902" y="763.7607">21</text><text fill="#000000" font-family="sans-serif" font-size="13" lengthAdjust="spacing" textLength="128.6289" x="376.4502" y="763.7607">node instance (or null)</text><polygon fill="#181818" points="697.3135,796.3145,707.3135,800.3145,697.3135,804.3145,701.3135,800.3145" style="stroke:#181818;stroke-width:1.0;"/><line style="stroke:#181818;stroke-width:1.0;" x1="340.9902" x2="703.3135" y1="800.3145" y2="800.3145"/><text fill="#000000" font-family="sans-serif" font-size="13" font-weight="bold" lengthAdjust="spacing" textLength="14.46" x="347.9902" y="795.0518">22</text><text fill="#000000" font-family="sans-serif" font-size="13" lengthAdjust="spacing" textLength="325.8633" x="366.4502" y="795.0518">insertProductionNode(subitemId, subitemId, true) (if null)</text><polygon fill="#181818" points="697.3135,827.6055,707.3135,831.6055,697.3135,835.6055,701.3135,831.6055" style="stroke:#181818;stroke-width:1.0;"/><line style="stroke:#181818;stroke-width:1.0;" x1="340.9902" x2="703.3135" y1="831.6055" y2="831.6055"/><text fill="#000000" font-family="sans-serif" font-size="13" font-weight="bold" lengthAdjust="spacing" textLength="14.46" x="347.9902" y="826.3428">23</text><text fill="#000000" font-family="sans-serif" font-size="13" lengthAdjust="spacing" textLength="273.8633" x="366.4502" y="826.3428">insertNewConnection(opId, subitemId, quantity)</text><polygon fill="#181818" points="1035.5435,858.8965,1045.5435,862.8965,1035.5435,866.8965,1039.5435,862.8965" style="stroke:#181818;stroke-width:1.0;"/><line style="stroke:#181818;stroke-width:1.0;" x1="340.9902" x2="1041.5435" y1="862.8965" y2="862.8965"/><text fill="#000000" font-family="sans-serif" font-size="13" font-weight="bold" lengthAdjust="spacing" textLength="14.46" x="347.9902" y="857.6338">24</text><text fill="#000000" font-family="sans-serif" font-size="13" lengthAdjust="spacing" textLength="169.7998" x="366.4502" y="857.6338">insert(subitemNode, quantity)</text><polygon fill="#181818" points="351.9902,890.1875,341.9902,894.1875,351.9902,898.1875,347.9902,894.1875" style="stroke:#181818;stroke-width:1.0;"/><line style="stroke:#181818;stroke-width:1.0;stroke-dasharray:2.0,2.0;" x1="345.9902" x2="1046.5435" y1="894.1875" y2="894.1875"/><text fill="#000000" font-family="sans-serif" font-size="13" font-weight="bold" lengthAdjust="spacing" textLength="14.46" x="357.9902" y="888.9248">25</text><text fill="#000000" font-family="sans-serif" font-size="13" lengthAdjust="spacing" textLength="46.96" x="376.4502" y="888.9248">success</text><polygon fill="#181818" points="1344.3062,928.4785,1354.3062,932.4785,1344.3062,936.4785,1348.3062,932.4785" style="stroke:#181818;stroke-width:1.0;"/><line style="stroke:#181818;stroke-width:1.0;" x1="27.7793" x2="1350.3062" y1="932.4785" y2="932.4785"/><text fill="#000000" font-family="sans-serif" font-size="13" font-weight="bold" lengthAdjust="spacing" textLength="14.46" x="34.7793" y="927.2158">26</text><text fill="#000000" font-family="sans-serif" font-size="13" lengthAdjust="spacing" textLength="75.8545" x="53.2393" y="927.2158">displayTree()</text><polygon fill="#181818" points="725.3135,959.7695,715.3135,963.7695,725.3135,967.7695,721.3135,963.7695" style="stroke:#181818;stroke-width:1.0;"/><line style="stroke:#181818;stroke-width:1.0;" x1="719.3135" x2="1355.3062" y1="963.7695" y2="963.7695"/><text fill="#000000" font-family="sans-serif" font-size="13" font-weight="bold" lengthAdjust="spacing" textLength="14.46" x="731.3135" y="958.5068">27</text><text fill="#000000" font-family="sans-serif" font-size="13" lengthAdjust="spacing" textLength="78.7554" x="749.7734" y="958.5068">getAllNodes()</text><polygon fill="#181818" points="1344.3062,991.0605,1354.3062,995.0605,1344.3062,999.0605,1348.3062,995.0605" style="stroke:#181818;stroke-width:1.0;"/><line style="stroke:#181818;stroke-width:1.0;stroke-dasharray:2.0,2.0;" x1="709.3135" x2="1350.3062" y1="995.0605" y2="995.0605"/><text fill="#000000" font-family="sans-serif" font-size="13" font-weight="bold" lengthAdjust="spacing" textLength="14.46" x="716.3135" y="989.7979">28</text><text fill="#000000" font-family="sans-serif" font-size="13" lengthAdjust="spacing" textLength="85.9917" x="734.7734" y="989.7979">list of all nodes</text><path d="M622.5103,1010.0605 L682.6812,1010.0605 L682.6812,1019.3516 L672.6812,1029.3516 L622.5103,1029.3516 L622.5103,1010.0605 " fill="#EEEEEE" style="stroke:#000000;stroke-width:1.5;"/><rect fill="none" height="303.6191" style="stroke:#000000;stroke-width:1.5;" width="846.606" x="622.5103" y="1010.0605"/><text fill="#000000" font-family="sans-serif" font-size="13" font-weight="bold" lengthAdjust="spacing" textLength="15.1709" x="637.5103" y="1025.0889">alt</text><text fill="#000000" font-family="sans-serif" font-size="11" font-weight="bold" lengthAdjust="spacing" textLength="82.5054" x="697.6812" y="1023.9307">[For each node]</text><polygon fill="#181818" points="920.875,1048.6426,910.875,1052.6426,920.875,1056.6426,916.875,1052.6426" style="stroke:#181818;stroke-width:1.0;"/><line style="stroke:#181818;stroke-width:1.0;" x1="914.875" x2="1355.3062" y1="1052.6426" y2="1052.6426"/><text fill="#000000" font-family="sans-serif" font-size="13" font-weight="bold" lengthAdjust="spacing" textLength="14.46" x="926.875" y="1047.3799">29</text><text fill="#000000" font-family="sans-serif" font-size="13" lengthAdjust="spacing" textLength="62.8481" x="945.335" y="1047.3799">isProduct()</text><polygon fill="#181818" points="1344.3062,1079.9336,1354.3062,1083.9336,1344.3062,1087.9336,1348.3062,1083.9336" style="stroke:#181818;stroke-width:1.0;"/><line style="stroke:#181818;stroke-width:1.0;stroke-dasharray:2.0,2.0;" x1="904.875" x2="1350.3062" y1="1083.9336" y2="1083.9336"/><text fill="#000000" font-family="sans-serif" font-size="13" font-weight="bold" lengthAdjust="spacing" textLength="14.46" x="911.875" y="1078.6709">30</text><text fill="#000000" font-family="sans-serif" font-size="13" lengthAdjust="spacing" textLength="53.4727" x="930.335" y="1078.6709">true/false</text><path d="M632.5103,1098.9336 L697.7212,1098.9336 L697.7212,1108.2246 L687.7212,1118.2246 L632.5103,1118.2246 L632.5103,1098.9336 " fill="#EEEEEE" style="stroke:#000000;stroke-width:1.5;"/><rect fill="none" height="207.7461" style="stroke:#000000;stroke-width:1.5;" width="826.606" x="632.5103" y="1098.9336"/><text fill="#000000" font-family="sans-serif" font-size="13" font-weight="bold" lengthAdjust="spacing" textLength="20.2109" x="647.5103" y="1113.9619">opt</text><text fill="#000000" font-family="sans-serif" font-size="11" font-weight="bold" lengthAdjust="spacing" textLength="87.3716" x="712.7212" y="1112.8037">[If product node]</text><polygon fill="#181818" points="920.875,1137.5156,910.875,1141.5156,920.875,1145.5156,916.875,1141.5156" style="stroke:#181818;stroke-width:1.0;"/><line style="stroke:#181818;stroke-width:1.0;" x1="914.875" x2="1355.3062" y1="1141.5156" y2="1141.5156"/><text fill="#000000" font-family="sans-serif" font-size="13" font-weight="bold" lengthAdjust="spacing" textLength="14.46" x="926.875" y="1136.2529">31</text><text fill="#000000" font-family="sans-serif" font-size="13" lengthAdjust="spacing" textLength="209.5552" x="945.335" y="1136.2529">printNode(node, level, visitedNodes)</text><path d="M642.5103,1156.5156 L714.9448,1156.5156 L714.9448,1165.8066 L704.9448,1175.8066 L642.5103,1175.8066 L642.5103,1156.5156 " fill="#EEEEEE" style="stroke:#000000;stroke-width:1.5;"/><rect fill="none" height="143.1641" style="stroke:#000000;stroke-width:1.5;" width="806.606" x="642.5103" y="1156.5156"/><text fill="#000000" font-family="sans-serif" font-size="13" font-weight="bold" lengthAdjust="spacing" textLength="27.4346" x="657.5103" y="1171.5439">loop</text><text fill="#000000" font-family="sans-serif" font-size="11" font-weight="bold" lengthAdjust="spacing" textLength="117.3691" x="729.9448" y="1170.3857">[Traverse child nodes]</text><polygon fill="#181818" points="725.3135,1195.0977,715.3135,1199.0977,725.3135,1203.0977,721.3135,1199.0977" style="stroke:#181818;stroke-width:1.0;"/><line style="stroke:#181818;stroke-width:1.0;" x1="719.3135" x2="898.875" y1="1199.0977" y2="1199.0977"/><text fill="#000000" font-family="sans-serif" font-size="13" font-weight="bold" lengthAdjust="spacing" textLength="14.46" x="731.3135" y="1193.835">32</text><text fill="#000000" font-family="sans-serif" font-size="13" lengthAdjust="spacing" textLength="116.3589" x="749.7734" y="1193.835">getSubNodes(node)</text><polygon fill="#181818" points="887.875,1226.3887,897.875,1230.3887,887.875,1234.3887,891.875,1230.3887" style="stroke:#181818;stroke-width:1.0;"/><line style="stroke:#181818;stroke-width:1.0;stroke-dasharray:2.0,2.0;" x1="709.3135" x2="893.875" y1="1230.3887" y2="1230.3887"/><text fill="#000000" font-family="sans-serif" font-size="13" font-weight="bold" lengthAdjust="spacing" textLength="14.46" x="716.3135" y="1225.126">33</text><text fill="#000000" font-family="sans-serif" font-size="13" lengthAdjust="spacing" textLength="143.1016" x="734.7734" y="1225.126">subNodes and quantities</text><polygon fill="#181818" points="1349.3062,1257.6797,1359.3062,1261.6797,1349.3062,1265.6797,1353.3062,1261.6797" style="stroke:#181818;stroke-width:1.0;"/><line style="stroke:#181818;stroke-width:1.0;" x1="909.875" x2="1355.3062" y1="1261.6797" y2="1261.6797"/><text fill="#000000" font-family="sans-serif" font-size="13" font-weight="bold" lengthAdjust="spacing" textLength="14.46" x="916.875" y="1256.417">34</text><text fill="#000000" font-family="sans-serif" font-size="13" lengthAdjust="spacing" textLength="247.4951" x="935.335" y="1256.417">printNode(subNode, level+1, visitedNodes)</text><polygon fill="#181818" points="38.7793,1339.9707,28.7793,1343.9707,38.7793,1347.9707,34.7793,1343.9707" style="stroke:#181818;stroke-width:1.0;"/><line style="stroke:#181818;stroke-width:1.0;stroke-dasharray:2.0,2.0;" x1="32.7793" x2="1360.3062" y1="1343.9707" y2="1343.9707"/><text fill="#000000" font-family="sans-serif" font-size="13" font-weight="bold" lengthAdjust="spacing" textLength="14.46" x="44.7793" y="1338.708">35</text><text fill="#000000" font-family="sans-serif" font-size="13" lengthAdjust="spacing" textLength="147.3989" x="63.2393" y="1338.708">display success message</text><polygon fill="#181818" points="1344.3062,1371.2617,1354.3062,1375.2617,1344.3062,1379.2617,1348.3062,1375.2617" style="stroke:#181818;stroke-width:1.0;"/><line style="stroke:#181818;stroke-width:1.0;" x1="27.7793" x2="1350.3062" y1="1375.2617" y2="1375.2617"/><text fill="#000000" font-family="sans-serif" font-size="13" font-weight="bold" lengthAdjust="spacing" textLength="14.46" x="34.7793" y="1369.999">36</text><text fill="#000000" font-family="sans-serif" font-size="13" lengthAdjust="spacing" textLength="96.1099" x="53.2393" y="1369.999">generateGraph()</text><polygon fill="#181818" points="725.3135,1402.5527,715.3135,1406.5527,725.3135,1410.5527,721.3135,1406.5527" style="stroke:#181818;stroke-width:1.0;"/><line style="stroke:#181818;stroke-width:1.0;" x1="719.3135" x2="1355.3062" y1="1406.5527" y2="1406.5527"/><text fill="#000000" font-family="sans-serif" font-size="13" font-weight="bold" lengthAdjust="spacing" textLength="14.46" x="731.3135" y="1401.29">37</text><text fill="#000000" font-family="sans-serif" font-size="13" lengthAdjust="spacing" textLength="78.7554" x="749.7734" y="1401.29">getAllNodes()</text><polygon fill="#181818" points="1344.3062,1433.8438,1354.3062,1437.8438,1344.3062,1441.8438,1348.3062,1437.8438" style="stroke:#181818;stroke-width:1.0;"/><line style="stroke:#181818;stroke-width:1.0;stroke-dasharray:2.0,2.0;" x1="709.3135" x2="1350.3062" y1="1437.8438" y2="1437.8438"/><text fill="#000000" font-family="sans-serif" font-size="13" font-weight="bold" lengthAdjust="spacing" textLength="14.46" x="716.3135" y="1432.5811">38</text><text fill="#000000" font-family="sans-serif" font-size="13" lengthAdjust="spacing" textLength="85.9917" x="734.7734" y="1432.5811">list of all nodes</text><path d="M622.5103,1452.8438 L682.6812,1452.8438 L682.6812,1462.1348 L672.6812,1472.1348 L622.5103,1472.1348 L622.5103,1452.8438 " fill="#EEEEEE" style="stroke:#000000;stroke-width:1.5;"/><rect fill="none" height="303.6191" style="stroke:#000000;stroke-width:1.5;" width="846.606" x="622.5103" y="1452.8438"/><text fill="#000000" font-family="sans-serif" font-size="13" font-weight="bold" lengthAdjust="spacing" textLength="15.1709" x="637.5103" y="1467.8721">alt</text><text fill="#000000" font-family="sans-serif" font-size="11" font-weight="bold" lengthAdjust="spacing" textLength="82.5054" x="697.6812" y="1466.7139">[For each node]</text><polygon fill="#181818" points="920.875,1491.4258,910.875,1495.4258,920.875,1499.4258,916.875,1495.4258" style="stroke:#181818;stroke-width:1.0;"/><line style="stroke:#181818;stroke-width:1.0;" x1="914.875" x2="1355.3062" y1="1495.4258" y2="1495.4258"/><text fill="#000000" font-family="sans-serif" font-size="13" font-weight="bold" lengthAdjust="spacing" textLength="14.46" x="926.875" y="1490.1631">39</text><text fill="#000000" font-family="sans-serif" font-size="13" lengthAdjust="spacing" textLength="62.8481" x="945.335" y="1490.1631">isProduct()</text><polygon fill="#181818" points="1344.3062,1522.7168,1354.3062,1526.7168,1344.3062,1530.7168,1348.3062,1526.7168" style="stroke:#181818;stroke-width:1.0;"/><line style="stroke:#181818;stroke-width:1.0;stroke-dasharray:2.0,2.0;" x1="904.875" x2="1350.3062" y1="1526.7168" y2="1526.7168"/><text fill="#000000" font-family="sans-serif" font-size="13" font-weight="bold" lengthAdjust="spacing" textLength="14.46" x="911.875" y="1521.4541">40</text><text fill="#000000" font-family="sans-serif" font-size="13" lengthAdjust="spacing" textLength="53.4727" x="930.335" y="1521.4541">true/false</text><path d="M632.5103,1541.7168 L697.7212,1541.7168 L697.7212,1551.0078 L687.7212,1561.0078 L632.5103,1561.0078 L632.5103,1541.7168 " fill="#EEEEEE" style="stroke:#000000;stroke-width:1.5;"/><rect fill="none" height="207.7461" style="stroke:#000000;stroke-width:1.5;" width="826.606" x="632.5103" y="1541.7168"/><text fill="#000000" font-family="sans-serif" font-size="13" font-weight="bold" lengthAdjust="spacing" textLength="20.2109" x="647.5103" y="1556.7451">opt</text><text fill="#000000" font-family="sans-serif" font-size="11" font-weight="bold" lengthAdjust="spacing" textLength="87.3716" x="712.7212" y="1555.5869">[If product node]</text><polygon fill="#181818" points="920.875,1580.2988,910.875,1584.2988,920.875,1588.2988,916.875,1584.2988" style="stroke:#181818;stroke-width:1.0;"/><line style="stroke:#181818;stroke-width:1.0;" x1="914.875" x2="1355.3062" y1="1584.2988" y2="1584.2988"/><text fill="#000000" font-family="sans-serif" font-size="13" font-weight="bold" lengthAdjust="spacing" textLength="14.46" x="926.875" y="1579.0361">41</text><text fill="#000000" font-family="sans-serif" font-size="13" lengthAdjust="spacing" textLength="380.853" x="945.335" y="1579.0361">generateNodeDotRepresentation(node, dotContent, visitedNodes)</text><path d="M642.5103,1599.2988 L714.9448,1599.2988 L714.9448,1608.5898 L704.9448,1618.5898 L642.5103,1618.5898 L642.5103,1599.2988 " fill="#EEEEEE" style="stroke:#000000;stroke-width:1.5;"/><rect fill="none" height="143.1641" style="stroke:#000000;stroke-width:1.5;" width="806.606" x="642.5103" y="1599.2988"/><text fill="#000000" font-family="sans-serif" font-size="13" font-weight="bold" lengthAdjust="spacing" textLength="27.4346" x="657.5103" y="1614.3271">loop</text><text fill="#000000" font-family="sans-serif" font-size="11" font-weight="bold" lengthAdjust="spacing" textLength="117.3691" x="729.9448" y="1613.1689">[Traverse child nodes]</text><polygon fill="#181818" points="725.3135,1637.8809,715.3135,1641.8809,725.3135,1645.8809,721.3135,1641.8809" style="stroke:#181818;stroke-width:1.0;"/><line style="stroke:#181818;stroke-width:1.0;" x1="719.3135" x2="898.875" y1="1641.8809" y2="1641.8809"/><text fill="#000000" font-family="sans-serif" font-size="13" font-weight="bold" lengthAdjust="spacing" textLength="14.46" x="731.3135" y="1636.6182">42</text><text fill="#000000" font-family="sans-serif" font-size="13" lengthAdjust="spacing" textLength="116.3589" x="749.7734" y="1636.6182">getSubNodes(node)</text><polygon fill="#181818" points="887.875,1669.1719,897.875,1673.1719,887.875,1677.1719,891.875,1673.1719" style="stroke:#181818;stroke-width:1.0;"/><line style="stroke:#181818;stroke-width:1.0;stroke-dasharray:2.0,2.0;" x1="709.3135" x2="893.875" y1="1673.1719" y2="1673.1719"/><text fill="#000000" font-family="sans-serif" font-size="13" font-weight="bold" lengthAdjust="spacing" textLength="14.46" x="716.3135" y="1667.9092">43</text><text fill="#000000" font-family="sans-serif" font-size="13" lengthAdjust="spacing" textLength="143.1016" x="734.7734" y="1667.9092">subNodes and quantities</text><polygon fill="#181818" points="1349.3062,1700.4629,1359.3062,1704.4629,1349.3062,1708.4629,1353.3062,1704.4629" style="stroke:#181818;stroke-width:1.0;"/><line style="stroke:#181818;stroke-width:1.0;" x1="909.875" x2="1355.3062" y1="1704.4629" y2="1704.4629"/><text fill="#000000" font-family="sans-serif" font-size="13" font-weight="bold" lengthAdjust="spacing" textLength="14.46" x="916.875" y="1699.2002">44</text><text fill="#000000" font-family="sans-serif" font-size="13" lengthAdjust="spacing" textLength="403.9712" x="935.335" y="1699.2002">generateNodeDotRepresentation(subNode, dotContent, visitedNodes)</text><polygon fill="#181818" points="1482.7451,1782.7539,1492.7451,1786.7539,1482.7451,1790.7539,1486.7451,1786.7539" style="stroke:#181818;stroke-width:1.0;"/><line style="stroke:#181818;stroke-width:1.0;" x1="1366.3062" x2="1488.7451" y1="1786.7539" y2="1786.7539"/><text fill="#000000" font-family="sans-serif" font-size="13" font-weight="bold" lengthAdjust="spacing" textLength="14.46" x="1373.3062" y="1781.4912">45</text><text fill="#000000" font-family="sans-serif" font-size="13" lengthAdjust="spacing" textLength="72.9727" x="1391.7661" y="1781.4912">write .dot file</text><polygon fill="#181818" points="1377.3062,1814.0449,1367.3062,1818.0449,1377.3062,1822.0449,1373.3062,1818.0449" style="stroke:#181818;stroke-width:1.0;"/><line style="stroke:#181818;stroke-width:1.0;stroke-dasharray:2.0,2.0;" x1="1371.3062" x2="1498.7451" y1="1818.0449" y2="1818.0449"/><text fill="#000000" font-family="sans-serif" font-size="13" font-weight="bold" lengthAdjust="spacing" textLength="14.46" x="1383.3062" y="1812.7822">46</text><text fill="#000000" font-family="sans-serif" font-size="13" lengthAdjust="spacing" textLength="85.979" x="1401.7661" y="1812.7822">success/failure</text><polygon fill="#181818" points="1567.4277,1845.3359,1577.4277,1849.3359,1567.4277,1853.3359,1571.4277,1849.3359" style="stroke:#181818;stroke-width:1.0;"/><line style="stroke:#181818;stroke-width:1.0;" x1="1366.3062" x2="1573.4277" y1="1849.3359" y2="1849.3359"/><text fill="#000000" font-family="sans-serif" font-size="13" font-weight="bold" lengthAdjust="spacing" textLength="14.46" x="1373.3062" y="1844.0732">47</text><text fill="#000000" font-family="sans-serif" font-size="13" lengthAdjust="spacing" textLength="164.0234" x="1391.7661" y="1844.0732">execute GraphViz command</text><polygon fill="#181818" points="1377.3062,1876.627,1367.3062,1880.627,1377.3062,1884.627,1373.3062,1880.627" style="stroke:#181818;stroke-width:1.0;"/><line style="stroke:#181818;stroke-width:1.0;stroke-dasharray:2.0,2.0;" x1="1371.3062" x2="1583.4277" y1="1880.627" y2="1880.627"/><text fill="#000000" font-family="sans-serif" font-size="13" font-weight="bold" lengthAdjust="spacing" textLength="14.46" x="1383.3062" y="1875.3643">48</text><text fill="#000000" font-family="sans-serif" font-size="13" lengthAdjust="spacing" textLength="85.979" x="1401.7661" y="1875.3643">success/failure</text><polygon fill="#181818" points="38.7793,1907.918,28.7793,1911.918,38.7793,1915.918,34.7793,1911.918" style="stroke:#181818;stroke-width:1.0;"/><line style="stroke:#181818;stroke-width:1.0;stroke-dasharray:2.0,2.0;" x1="32.7793" x2="1360.3062" y1="1911.918" y2="1911.918"/><text fill="#000000" font-family="sans-serif" font-size="13" font-weight="bold" lengthAdjust="spacing" textLength="14.46" x="44.7793" y="1906.6553">49</text><text fill="#000000" font-family="sans-serif" font-size="13" lengthAdjust="spacing" textLength="194.3843" x="63.2393" y="1906.6553">generateGraph success message</text><!--SRC=[xLTDZzis4BthLmnygOmwsQPV1ny2T1iaCD3kjl6sfrwuqjWcGf4gINdh_FeEAUg3YYJRGLCKHNomfI7dSURDp9Ditd5PCiqAA9HKsK6h0i7g2XFJhfGiUyVskBKdWQ0niqpkHN-3ER1SFN6vXnqJ1fE4LLR9gdX4JTUPLHeMlndK2s06t4L2VfPdl6JImk8jiZmirfV3vL8PJY0SpHzotRyDFfqXzln5gxpAB5VoGIEIRspmth5folzEvR6_CmpydIds_vbPr9o9NokwvVPqktqWa16hHngnnt2lk2a5EuqaCRhYgUT7GgqvJxw0hSKINgnX8xcba_XxZDchwOTdBoCph66FTYCD5Jx3TDdXXdBrxYEm7iGpZ-dHrzH3OUK4FA0cEOwZH7P_MfF7rsluIR4SDXOBaxWKeN-8e3M_b2vAPWytLjrmT_iyCyV5XpbqgSSi4XB5YDh6XKvvlWB92bpvQUdX3OemG8jua0GKq37lPph0w68RwP4sm3IES0LVzQ8QQwuni2W-KsKPcgW6OpZJ9Vecb6ZBYvAquxv4pLny4-MgjtMxkigfrlQFbyzBrgUjtpH1tmQ2RhaGe7OzXY2zlRzVZlD4AnqrZqfTpmdDiwFXzhJ9KpSLctnvKQP-LY4bGPUL4ClhQVTdhQ3vzRC3AT-Tn-k7hCf_As1tqWhgxxfJBeks1hl3fn-LbEXNskHhj3_31CtdaRNkmFASkYmHIfNmcXAYfZhGY3uws0JeSo5vmSKnwBm-XiKpfuqosHwxWjxbi04kGevfhUdiONRCncYpuXdyQ-MC4IxMIPHKd-bX_sxTFAXxYO5NY6RCHn_aT49UszrT__axyTmVHvdeYn-4S4cRz2eDd0fKS6ETa37ICzSzPaOM4oPirybkjwVxWkXTmAvq9fZIkb0Z1zqrg0FdkHnSJzxKRxBESpG1Z-kNLMbXiuEoNkhIk2wLKdFfHpILlWC57b6iuCZfHGXpNw1b2pkNf_juYNZGx8ZQ86G7Bl9G3EXzXeoCjyUsUgpRmm4i8u2fkeuVqhRE1xcRS0GmcJUZnmV1pdJHV4vJHUu83yS7phzyCSLwbFBuv4r4FB_PgSPiccrjtKwlCHDzHUbw8Mdreb4cAEYB_i8bPuDgjEhxDRn1wLv64DveLXxEIjG-RFUxFulK_r6acXAxsrVAqlyqZGQbzM-iGRXoPUdPRCdwMRq-dNhDLw9LjFF5-E-BsajupGLkJuRUpYZp9qrPm7FA37Pax-IWsvNq7EP6A8WZJH4NbOx4iGSs7TVRYcfTE2Jy2xEgKShV-NjwRIyAweVUNx9wRzBuV6HS3Spv9q0anrS_1_u6]--></g></svg>