<svg xmlns="http://www.w3.org/2000/svg" xmlns:xlink="http://www.w3.org/1999/xlink" contentStyleType="text/css" height="356px" preserveAspectRatio="none" style="width:245px;height:356px;background:#FFFFFF;" version="1.1" viewBox="0 0 245 356" width="245px" zoomAndPan="magnify"><defs/><g><!--class MapLinked--><g id="elem_MapLinked"><rect codeLine="4" fill="#F1F1F1" height="196.9688" id="MapLinked" rx="2.5" ry="2.5" style="stroke:#181818;stroke-width:0.5;" width="231.4268" x="7" y="7"/><ellipse cx="84.2188" cy="23" fill="#ADD1B2" rx="11" ry="11" style="stroke:#181818;stroke-width:1.0;"/><path d="M86.9844,18.875 Q87.1406,18.6563 87.3281,18.5469 Q87.5156,18.4375 87.7344,18.4375 Q88.1094,18.4375 88.3438,18.7031 Q88.5781,18.9531 88.5781,19.5625 L88.5781,21.0156 Q88.5781,21.625 88.3438,21.8906 Q88.1094,22.1563 87.7344,22.1563 Q87.3906,22.1563 87.1875,21.9531 Q86.9844,21.7656 86.875,21.25 Q86.8281,20.8906 86.6406,20.7031 Q86.3125,20.3281 85.7031,20.1094 Q85.0938,19.8906 84.4688,19.8906 Q83.7031,19.8906 83.0625,20.2188 Q82.4375,20.5469 81.9375,21.2969 Q81.4531,22.0469 81.4531,23.0781 L81.4531,24.1719 Q81.4531,25.4063 82.3438,26.2344 Q83.2344,27.0469 84.8281,27.0469 Q85.7656,27.0469 86.4219,26.7969 Q86.8125,26.6406 87.2344,26.2031 Q87.5,25.9375 87.6406,25.8594 Q87.7969,25.7813 88,25.7813 Q88.3281,25.7813 88.5781,26.0469 Q88.8438,26.2969 88.8438,26.6406 Q88.8438,26.9844 88.5,27.3906 Q88,27.9688 87.2031,28.2969 Q86.125,28.75 84.8281,28.75 Q83.3125,28.75 82.1094,28.125 Q81.125,27.625 80.4375,26.5625 Q79.75,25.4844 79.75,24.2031 L79.75,23.0469 Q79.75,21.7188 80.3594,20.5781 Q80.9844,19.4219 82.0781,18.8125 Q83.1719,18.1875 84.4063,18.1875 Q85.1406,18.1875 85.7813,18.3594 Q86.4375,18.5156 86.9844,18.875 Z " fill="#000000"/><text fill="#000000" font-family="sans-serif" font-size="14" lengthAdjust="spacing" textLength="68.4893" x="104.7188" y="28.7969">MapLinked</text><line style="stroke:#181818;stroke-width:0.5;" x1="8" x2="237.4268" y1="39" y2="39"/><rect fill="none" height="6" style="stroke:#C82930;stroke-width:1.0;" width="6" x="15" y="50.8105"/><text fill="#000000" font-family="sans-serif" font-size="14" lengthAdjust="spacing" textLength="175.8818" x="27" y="58.1074">Map&lt;Q, LinkedList&lt;T&gt;&gt; line</text><line style="stroke:#181818;stroke-width:0.5;" x1="8" x2="237.4268" y1="65.6211" y2="65.6211"/><ellipse cx="18" cy="80.4316" fill="#84BE84" rx="3" ry="3" style="stroke:#038048;stroke-width:1.0;"/><text fill="#000000" font-family="sans-serif" font-size="14" lengthAdjust="spacing" textLength="189.8408" x="27" y="84.7285">newItem(T value, Q key) : void</text><ellipse cx="18" cy="99.0527" fill="#84BE84" rx="3" ry="3" style="stroke:#038048;stroke-width:1.0;"/><text fill="#000000" font-family="sans-serif" font-size="14" lengthAdjust="spacing" textLength="205.4268" x="27" y="103.3496">getByKey(Q key) : LinkedList&lt;T&gt;</text><ellipse cx="18" cy="117.6738" fill="#84BE84" rx="3" ry="3" style="stroke:#038048;stroke-width:1.0;"/><text fill="#000000" font-family="sans-serif" font-size="14" lengthAdjust="spacing" textLength="183.6133" x="27" y="121.9707">remove(T value, Q key) : void</text><ellipse cx="18" cy="136.2949" fill="#84BE84" rx="3" ry="3" style="stroke:#038048;stroke-width:1.0;"/><text fill="#000000" font-family="sans-serif" font-size="14" lengthAdjust="spacing" textLength="128.3652" x="27" y="140.5918">searchById(ID id) : T</text><ellipse cx="18" cy="154.916" fill="#84BE84" rx="3" ry="3" style="stroke:#038048;stroke-width:1.0;"/><text fill="#000000" font-family="sans-serif" font-size="14" lengthAdjust="spacing" textLength="108.917" x="27" y="159.2129">removeAll() : void</text><ellipse cx="18" cy="173.5371" fill="#84BE84" rx="3" ry="3" style="stroke:#038048;stroke-width:1.0;"/><text fill="#000000" font-family="sans-serif" font-size="14" lengthAdjust="spacing" textLength="120.6064" x="27" y="177.834">getKeys() : List&lt;Q&gt;</text><ellipse cx="18" cy="192.1582" fill="#84BE84" rx="3" ry="3" style="stroke:#038048;stroke-width:1.0;"/><text fill="#000000" font-family="sans-serif" font-size="14" lengthAdjust="spacing" textLength="120.6064" x="27" y="196.4551">isEmpty() : boolean</text></g><!--class Identifiable--><g id="elem_Identifiable"><rect codeLine="15" fill="#F1F1F1" height="66.6211" id="Identifiable" rx="2.5" ry="2.5" style="stroke:#181818;stroke-width:0.5;" width="115.7168" x="64.5" y="283"/><ellipse cx="79.5" cy="299" fill="#B4A7E5" rx="11" ry="11" style="stroke:#181818;stroke-width:1.0;"/><path d="M80.4531,295.6406 L80.4531,302.2969 L82.1719,302.2969 Q82.7813,302.2969 83.0469,302.5313 Q83.3125,302.7656 83.3125,303.1563 Q83.3125,303.5313 83.0469,303.7656 Q82.7813,304 82.1719,304 L77.0313,304 Q76.4219,304 76.1563,303.7656 Q75.8906,303.5313 75.8906,303.1406 Q75.8906,302.7656 76.1563,302.5313 Q76.4219,302.2969 77.0313,302.2969 L78.75,302.2969 L78.75,295.6406 L77.0313,295.6406 Q76.4219,295.6406 76.1563,295.4063 Q75.8906,295.1719 75.8906,294.7813 Q75.8906,294.4063 76.1563,294.1719 Q76.4219,293.9375 77.0313,293.9375 L82.1719,293.9375 Q82.7813,293.9375 83.0469,294.1719 Q83.3125,294.4063 83.3125,294.7813 Q83.3125,295.1719 83.0469,295.4063 Q82.7813,295.6406 82.1719,295.6406 L80.4531,295.6406 Z " fill="#000000"/><text fill="#000000" font-family="sans-serif" font-size="14" font-style="italic" lengthAdjust="spacing" textLength="67.7168" x="93.5" y="304.7969">Identifiable</text><rect fill="#FFFFFF" height="17.9609" style="stroke:#181818;stroke-width:1.0;stroke-dasharray:2.0,2.0;" width="14" x="169.2168" y="280"/><text fill="#000000" font-family="sans-serif" font-size="12" font-style="italic" lengthAdjust="spacing" textLength="12" x="170.2168" y="293.9492">ID</text><line style="stroke:#181818;stroke-width:0.5;" x1="65.5" x2="179.2168" y1="315" y2="315"/><line style="stroke:#181818;stroke-width:0.5;" x1="65.5" x2="179.2168" y1="323" y2="323"/><ellipse cx="75.5" cy="337.8105" fill="#84BE84" rx="3" ry="3" style="stroke:#038048;stroke-width:1.0;"/><text fill="#000000" font-family="sans-serif" font-size="14" lengthAdjust="spacing" textLength="66.1309" x="84.5" y="342.1074">getId() : ID</text></g><!--link MapLinked to Identifiable--><g id="link_MapLinked_Identifiable"><path codeLine="19" d="M122.5,204.27 C122.5,232.53 122.5,255.45 122.5,276.71 " fill="none" id="MapLinked-to-Identifiable" style="stroke:#181818;stroke-width:1.0;stroke-dasharray:7.0,7.0;"/><polygon fill="#181818" points="122.5,282.71,126.5,273.71,122.5,277.71,118.5,273.71,122.5,282.71" style="stroke:#181818;stroke-width:1.0;"/><text fill="#000000" font-family="sans-serif" font-size="13" lengthAdjust="spacing" textLength="27.46" x="123.5" y="249.0283">uses</text></g><!--SRC=[VP11ReD034NtSmelgPhc01L2QaGNewOBL2xWC8PO33C8JuX6LUzU83GLgbGl_T__txAqx7eSi8CUgnOR-WZH4WnK1NID9ILtGCve_9LT0pLQ8QKgYoBmZlsHNKi6FXLCypHlqc87j-sH9QHbbe5bHmlm28wkEb2Nb32YlT0E2cWfFi0pZ9xD2ZKK3l6DOd8NDu4hDL3dH_e_IGY7wdo8sYGw1pQpN6xyBzOcV-kdSabknLDbyLF9yjhr8IxAoNjBwDINKkm23JLM1DgG2rmpdYobEi_MnooPqmspJ-UpvVTr-tssiKt8HKY-0G00]--></g></svg>