<svg xmlns="http://www.w3.org/2000/svg" xmlns:xlink="http://www.w3.org/1999/xlink" contentStyleType="text/css" height="811px" preserveAspectRatio="none" style="width:403px;height:811px;background:#FFFFFF;" version="1.1" viewBox="0 0 403 811" width="403px" zoomAndPan="magnify"><defs/><g><!--class UserInterfaceClass--><g id="elem_UserInterfaceClass"><rect codeLine="7" fill="#F1F1F1" height="48" id="UserInterfaceClass" rx="2.5" ry="2.5" style="stroke:#181818;stroke-width:0.5;" width="151.041" x="182" y="7"/><ellipse cx="197" cy="23" fill="#ADD1B2" rx="11" ry="11" style="stroke:#181818;stroke-width:1.0;"/><path d="M199.7656,18.875 Q199.9219,18.6563 200.1094,18.5469 Q200.2969,18.4375 200.5156,18.4375 Q200.8906,18.4375 201.125,18.7031 Q201.3594,18.9531 201.3594,19.5625 L201.3594,21.0156 Q201.3594,21.625 201.125,21.8906 Q200.8906,22.1563 200.5156,22.1563 Q200.1719,22.1563 199.9688,21.9531 Q199.7656,21.7656 199.6563,21.25 Q199.6094,20.8906 199.4219,20.7031 Q199.0938,20.3281 198.4844,20.1094 Q197.875,19.8906 197.25,19.8906 Q196.4844,19.8906 195.8438,20.2188 Q195.2188,20.5469 194.7188,21.2969 Q194.2344,22.0469 194.2344,23.0781 L194.2344,24.1719 Q194.2344,25.4063 195.125,26.2344 Q196.0156,27.0469 197.6094,27.0469 Q198.5469,27.0469 199.2031,26.7969 Q199.5938,26.6406 200.0156,26.2031 Q200.2813,25.9375 200.4219,25.8594 Q200.5781,25.7813 200.7813,25.7813 Q201.1094,25.7813 201.3594,26.0469 Q201.625,26.2969 201.625,26.6406 Q201.625,26.9844 201.2813,27.3906 Q200.7813,27.9688 199.9844,28.2969 Q198.9063,28.75 197.6094,28.75 Q196.0938,28.75 194.8906,28.125 Q193.9063,27.625 193.2188,26.5625 Q192.5313,25.4844 192.5313,24.2031 L192.5313,23.0469 Q192.5313,21.7188 193.1406,20.5781 Q193.7656,19.4219 194.8594,18.8125 Q195.9531,18.1875 197.1875,18.1875 Q197.9219,18.1875 198.5625,18.3594 Q199.2188,18.5156 199.7656,18.875 Z " fill="#000000"/><text fill="#000000" font-family="sans-serif" font-size="14" lengthAdjust="spacing" textLength="119.041" x="211" y="28.7969">UserInterfaceClass</text><line style="stroke:#181818;stroke-width:0.5;" x1="183" x2="332.041" y1="39" y2="39"/><line style="stroke:#181818;stroke-width:0.5;" x1="183" x2="332.041" y1="47" y2="47"/></g><!--class ControllerClass--><g id="elem_ControllerClass"><rect codeLine="10" fill="#F1F1F1" height="85.2422" id="ControllerClass" rx="2.5" ry="2.5" style="stroke:#181818;stroke-width:0.5;" width="276.5645" x="119" y="116"/><ellipse cx="205.1841" cy="132" fill="#ADD1B2" rx="11" ry="11" style="stroke:#181818;stroke-width:1.0;"/><path d="M207.9497,127.875 Q208.106,127.6563 208.2935,127.5469 Q208.481,127.4375 208.6997,127.4375 Q209.0747,127.4375 209.3091,127.7031 Q209.5435,127.9531 209.5435,128.5625 L209.5435,130.0156 Q209.5435,130.625 209.3091,130.8906 Q209.0747,131.1563 208.6997,131.1563 Q208.356,131.1563 208.1528,130.9531 Q207.9497,130.7656 207.8403,130.25 Q207.7935,129.8906 207.606,129.7031 Q207.2778,129.3281 206.6685,129.1094 Q206.0591,128.8906 205.4341,128.8906 Q204.6685,128.8906 204.0278,129.2188 Q203.4028,129.5469 202.9028,130.2969 Q202.4185,131.0469 202.4185,132.0781 L202.4185,133.1719 Q202.4185,134.4063 203.3091,135.2344 Q204.1997,136.0469 205.7935,136.0469 Q206.731,136.0469 207.3872,135.7969 Q207.7778,135.6406 208.1997,135.2031 Q208.4653,134.9375 208.606,134.8594 Q208.7622,134.7813 208.9653,134.7813 Q209.2935,134.7813 209.5435,135.0469 Q209.8091,135.2969 209.8091,135.6406 Q209.8091,135.9844 209.4653,136.3906 Q208.9653,136.9688 208.1685,137.2969 Q207.0903,137.75 205.7935,137.75 Q204.2778,137.75 203.0747,137.125 Q202.0903,136.625 201.4028,135.5625 Q200.7153,134.4844 200.7153,133.2031 L200.7153,132.0469 Q200.7153,130.7188 201.3247,129.5781 Q201.9497,128.4219 203.0435,127.8125 Q204.1372,127.1875 205.3716,127.1875 Q206.106,127.1875 206.7466,127.3594 Q207.4028,127.5156 207.9497,127.875 Z " fill="#000000"/><text fill="#000000" font-family="sans-serif" font-size="14" lengthAdjust="spacing" textLength="95.6963" x="225.6841" y="137.7969">ControllerClass</text><line style="stroke:#181818;stroke-width:0.5;" x1="120" x2="394.5645" y1="148" y2="148"/><line style="stroke:#181818;stroke-width:0.5;" x1="120" x2="394.5645" y1="156" y2="156"/><ellipse cx="130" cy="170.8105" fill="#84BE84" rx="3" ry="3" style="stroke:#038048;stroke-width:1.0;"/><text fill="#000000" font-family="sans-serif" font-size="14" lengthAdjust="spacing" textLength="250.5645" x="139" y="175.1074">operation1(param1 : Type) : ReturnType</text><ellipse cx="130" cy="189.4316" fill="#84BE84" rx="3" ry="3" style="stroke:#038048;stroke-width:1.0;"/><text fill="#000000" font-family="sans-serif" font-size="14" lengthAdjust="spacing" textLength="160.3027" x="139" y="193.7285">operation2() : ReturnType</text></g><!--class RepositoryHandler--><g id="elem_RepositoryHandler"><rect codeLine="15" fill="#F1F1F1" height="122.4844" id="RepositoryHandler" rx="2.5" ry="2.5" style="stroke:#181818;stroke-width:0.5;" width="235.2959" x="7" y="280"/><ellipse cx="62.4258" cy="296" fill="#ADD1B2" rx="11" ry="11" style="stroke:#181818;stroke-width:1.0;"/><path d="M65.1914,291.875 Q65.3477,291.6563 65.5352,291.5469 Q65.7227,291.4375 65.9414,291.4375 Q66.3164,291.4375 66.5508,291.7031 Q66.7852,291.9531 66.7852,292.5625 L66.7852,294.0156 Q66.7852,294.625 66.5508,294.8906 Q66.3164,295.1563 65.9414,295.1563 Q65.5977,295.1563 65.3945,294.9531 Q65.1914,294.7656 65.082,294.25 Q65.0352,293.8906 64.8477,293.7031 Q64.5195,293.3281 63.9102,293.1094 Q63.3008,292.8906 62.6758,292.8906 Q61.9102,292.8906 61.2695,293.2188 Q60.6445,293.5469 60.1445,294.2969 Q59.6602,295.0469 59.6602,296.0781 L59.6602,297.1719 Q59.6602,298.4063 60.5508,299.2344 Q61.4414,300.0469 63.0352,300.0469 Q63.9727,300.0469 64.6289,299.7969 Q65.0195,299.6406 65.4414,299.2031 Q65.707,298.9375 65.8477,298.8594 Q66.0039,298.7813 66.207,298.7813 Q66.5352,298.7813 66.7852,299.0469 Q67.0508,299.2969 67.0508,299.6406 Q67.0508,299.9844 66.707,300.3906 Q66.207,300.9688 65.4102,301.2969 Q64.332,301.75 63.0352,301.75 Q61.5195,301.75 60.3164,301.125 Q59.332,300.625 58.6445,299.5625 Q57.957,298.4844 57.957,297.2031 L57.957,296.0469 Q57.957,294.7188 58.5664,293.5781 Q59.1914,292.4219 60.2852,291.8125 Q61.3789,291.1875 62.6133,291.1875 Q63.3477,291.1875 63.9883,291.3594 Q64.6445,291.5156 65.1914,291.875 Z " fill="#000000"/><text fill="#000000" font-family="sans-serif" font-size="14" lengthAdjust="spacing" textLength="115.9443" x="82.9258" y="301.7969">RepositoryHandler</text><line style="stroke:#181818;stroke-width:0.5;" x1="8" x2="241.2959" y1="312" y2="312"/><rect fill="none" height="6" style="stroke:#C82930;stroke-width:1.0;" width="6" x="15" y="323.8105"/><text fill="#000000" font-family="sans-serif" font-size="14" lengthAdjust="spacing" textLength="175.0615" x="27" y="331.1074">repository : RepositoryClass</text><rect fill="none" height="6" style="stroke:#C82930;stroke-width:1.0;" width="6" x="15" y="342.4316"/><text fill="#000000" font-family="sans-serif" font-size="14" lengthAdjust="spacing" textLength="179.7578" x="27" y="349.7285">instance : RepositoryHandler</text><line style="stroke:#181818;stroke-width:0.5;" x1="8" x2="241.2959" y1="357.2422" y2="357.2422"/><ellipse cx="18" cy="372.0527" fill="#84BE84" rx="3" ry="3" style="stroke:#038048;stroke-width:1.0;"/><text fill="#000000" font-family="sans-serif" font-size="14" lengthAdjust="spacing" textLength="209.2959" x="27" y="376.3496">getRepository() : RepositoryClass</text><rect fill="#F24D5C" height="6" style="stroke:#C82930;stroke-width:1.0;" width="6" x="15" y="387.6738"/><text fill="#000000" font-family="sans-serif" font-size="14" lengthAdjust="spacing" textLength="125.2686" x="27" y="394.9707">RepositoryHandler()</text></g><!--class RepositoryClass--><g id="elem_RepositoryClass"><rect codeLine="22" fill="#F1F1F1" height="122.4844" id="RepositoryClass" rx="2.5" ry="2.5" style="stroke:#181818;stroke-width:0.5;" width="268.7783" x="123" y="481"/><ellipse cx="202.1772" cy="497" fill="#ADD1B2" rx="11" ry="11" style="stroke:#181818;stroke-width:1.0;"/><path d="M204.9429,492.875 Q205.0991,492.6563 205.2866,492.5469 Q205.4741,492.4375 205.6929,492.4375 Q206.0679,492.4375 206.3022,492.7031 Q206.5366,492.9531 206.5366,493.5625 L206.5366,495.0156 Q206.5366,495.625 206.3022,495.8906 Q206.0679,496.1563 205.6929,496.1563 Q205.3491,496.1563 205.146,495.9531 Q204.9429,495.7656 204.8335,495.25 Q204.7866,494.8906 204.5991,494.7031 Q204.271,494.3281 203.6616,494.1094 Q203.0522,493.8906 202.4272,493.8906 Q201.6616,493.8906 201.021,494.2188 Q200.396,494.5469 199.896,495.2969 Q199.4116,496.0469 199.4116,497.0781 L199.4116,498.1719 Q199.4116,499.4063 200.3022,500.2344 Q201.1929,501.0469 202.7866,501.0469 Q203.7241,501.0469 204.3804,500.7969 Q204.771,500.6406 205.1929,500.2031 Q205.4585,499.9375 205.5991,499.8594 Q205.7554,499.7813 205.9585,499.7813 Q206.2866,499.7813 206.5366,500.0469 Q206.8022,500.2969 206.8022,500.6406 Q206.8022,500.9844 206.4585,501.3906 Q205.9585,501.9688 205.1616,502.2969 Q204.0835,502.75 202.7866,502.75 Q201.271,502.75 200.0679,502.125 Q199.0835,501.625 198.396,500.5625 Q197.7085,499.4844 197.7085,498.2031 L197.7085,497.0469 Q197.7085,495.7188 198.3179,494.5781 Q198.9429,493.4219 200.0366,492.8125 Q201.1304,492.1875 202.3647,492.1875 Q203.0991,492.1875 203.7397,492.3594 Q204.396,492.5156 204.9429,492.875 Z " fill="#000000"/><text fill="#000000" font-family="sans-serif" font-size="14" lengthAdjust="spacing" textLength="101.9238" x="222.6772" y="502.7969">RepositoryClass</text><line style="stroke:#181818;stroke-width:0.5;" x1="124" x2="390.7783" y1="513" y2="513"/><rect fill="none" height="6" style="stroke:#C82930;stroke-width:1.0;" width="6" x="131" y="524.8105"/><text fill="#000000" font-family="sans-serif" font-size="14" lengthAdjust="spacing" textLength="160.2754" x="143" y="532.1074">itemList : List&lt;ItemClass&gt;</text><line style="stroke:#181818;stroke-width:0.5;" x1="124" x2="390.7783" y1="539.6211" y2="539.6211"/><ellipse cx="134" cy="554.4316" fill="#84BE84" rx="3" ry="3" style="stroke:#038048;stroke-width:1.0;"/><text fill="#000000" font-family="sans-serif" font-size="14" lengthAdjust="spacing" textLength="242.7783" x="143" y="558.7285">operation1(param : Type) : ReturnType</text><ellipse cx="134" cy="573.0527" fill="#84BE84" rx="3" ry="3" style="stroke:#038048;stroke-width:1.0;"/><text fill="#000000" font-family="sans-serif" font-size="14" lengthAdjust="spacing" textLength="112.8408" x="143" y="577.3496">operation2() : void</text><ellipse cx="134" cy="591.6738" fill="#84BE84" rx="3" ry="3" style="stroke:#038048;stroke-width:1.0;"/><text fill="#000000" font-family="sans-serif" font-size="14" lengthAdjust="spacing" textLength="135.3994" x="143" y="595.9707">operation3(item): void</text></g><!--class ItemClass--><g id="elem_ItemClass"><rect codeLine="29" fill="#F1F1F1" height="122.4844" id="ItemClass" rx="2.5" ry="2.5" style="stroke:#181818;stroke-width:0.5;" width="239.1924" x="138" y="682"/><ellipse cx="222.229" cy="698" fill="#ADD1B2" rx="11" ry="11" style="stroke:#181818;stroke-width:1.0;"/><path d="M224.9946,693.875 Q225.1509,693.6563 225.3384,693.5469 Q225.5259,693.4375 225.7446,693.4375 Q226.1196,693.4375 226.354,693.7031 Q226.5884,693.9531 226.5884,694.5625 L226.5884,696.0156 Q226.5884,696.625 226.354,696.8906 Q226.1196,697.1563 225.7446,697.1563 Q225.4009,697.1563 225.1978,696.9531 Q224.9946,696.7656 224.8853,696.25 Q224.8384,695.8906 224.6509,695.7031 Q224.3228,695.3281 223.7134,695.1094 Q223.104,694.8906 222.479,694.8906 Q221.7134,694.8906 221.0728,695.2188 Q220.4478,695.5469 219.9478,696.2969 Q219.4634,697.0469 219.4634,698.0781 L219.4634,699.1719 Q219.4634,700.4063 220.354,701.2344 Q221.2446,702.0469 222.8384,702.0469 Q223.7759,702.0469 224.4321,701.7969 Q224.8228,701.6406 225.2446,701.2031 Q225.5103,700.9375 225.6509,700.8594 Q225.8071,700.7813 226.0103,700.7813 Q226.3384,700.7813 226.5884,701.0469 Q226.854,701.2969 226.854,701.6406 Q226.854,701.9844 226.5103,702.3906 Q226.0103,702.9688 225.2134,703.2969 Q224.1353,703.75 222.8384,703.75 Q221.3228,703.75 220.1196,703.125 Q219.1353,702.625 218.4478,701.5625 Q217.7603,700.4844 217.7603,699.2031 L217.7603,698.0469 Q217.7603,696.7188 218.3696,695.5781 Q218.9946,694.4219 220.0884,693.8125 Q221.1821,693.1875 222.4165,693.1875 Q223.1509,693.1875 223.7915,693.3594 Q224.4478,693.5156 224.9946,693.875 Z " fill="#000000"/><text fill="#000000" font-family="sans-serif" font-size="14" lengthAdjust="spacing" textLength="62.2344" x="242.729" y="703.7969">ItemClass</text><line style="stroke:#181818;stroke-width:0.5;" x1="139" x2="376.1924" y1="714" y2="714"/><rect fill="none" height="6" style="stroke:#C82930;stroke-width:1.0;" width="6" x="146" y="725.8105"/><text fill="#000000" font-family="sans-serif" font-size="14" lengthAdjust="spacing" textLength="93.3789" x="158" y="733.1074">attribute : Type</text><line style="stroke:#181818;stroke-width:0.5;" x1="139" x2="376.1924" y1="740.6211" y2="740.6211"/><ellipse cx="149" cy="755.4316" fill="#84BE84" rx="3" ry="3" style="stroke:#038048;stroke-width:1.0;"/><text fill="#000000" font-family="sans-serif" font-size="14" lengthAdjust="spacing" textLength="154.0342" x="158" y="759.7285">ItemClass(param : Type)</text><ellipse cx="149" cy="774.0527" fill="#84BE84" rx="3" ry="3" style="stroke:#038048;stroke-width:1.0;"/><text fill="#000000" font-family="sans-serif" font-size="14" lengthAdjust="spacing" textLength="213.1924" x="158" y="778.3496">operation1(item : ItemClass) : void</text><ellipse cx="149" cy="792.6738" fill="#84BE84" rx="3" ry="3" style="stroke:#038048;stroke-width:1.0;"/><text fill="#000000" font-family="sans-serif" font-size="14" lengthAdjust="spacing" textLength="213.1924" x="158" y="796.9707">operation2(item : ItemClass) : void</text></g><!--link UserInterfaceClass to ControllerClass--><g id="link_UserInterfaceClass_ControllerClass"><path codeLine="36" d="M257.5,55.02 C257.5,72 257.5,89.58 257.5,109.84 " fill="none" id="UserInterfaceClass-to-ControllerClass" style="stroke:#181818;stroke-width:1.0;stroke-dasharray:7.0,7.0;"/><polygon fill="#181818" points="257.5,115.84,261.5,106.84,257.5,110.84,253.5,106.84,257.5,115.84" style="stroke:#181818;stroke-width:1.0;"/></g><!--link RepositoryHandler to RepositoryClass--><g id="link_RepositoryHandler_RepositoryClass"><path codeLine="37" d="M164.77,402.25 C181.43,427.18 197.3867,451.0511 214.0367,475.9711 " fill="none" id="RepositoryHandler-to-RepositoryClass" style="stroke:#181818;stroke-width:1.0;"/><polygon fill="#181818" points="217.37,480.96,215.696,471.2544,214.5923,476.8026,209.0441,475.6988,217.37,480.96" style="stroke:#181818;stroke-width:1.0;"/><text fill="#000000" font-family="sans-serif" font-size="13" lengthAdjust="spacing" textLength="57.0781" x="196.5" y="447.0283">repository</text><text fill="#000000" font-family="sans-serif" font-size="13" lengthAdjust="spacing" textLength="7.23" x="205.3514" y="469.9366">1</text></g><!--link RepositoryHandler to RepositoryHandler--><g id="link_RepositoryHandler_RepositoryHandler"><path codeLine="38" d="M242.15,323.42 C262.7,325.77 277,331.62 277,341 C277,350.38 268.6611,355.5483 248.1111,357.8983 " fill="none" id="RepositoryHandler-to-RepositoryHandler" style="stroke:#181818;stroke-width:1.0;"/><polygon fill="#181818" points="242.15,358.58,251.5462,361.5316,247.1176,358.0119,250.6373,353.5834,242.15,358.58" style="stroke:#181818;stroke-width:1.0;"/><text fill="#000000" font-family="sans-serif" font-size="13" lengthAdjust="spacing" textLength="48.4199" x="283" y="346.5283">instance</text></g><!--link RepositoryClass to ItemClass--><g id="link_RepositoryClass_ItemClass"><path codeLine="39" d="M257.5,603.25 C257.5,628.18 257.5,651.04 257.5,675.96 " fill="none" id="RepositoryClass-to-ItemClass" style="stroke:#181818;stroke-width:1.0;"/><polygon fill="#181818" points="257.5,681.96,261.5,672.96,257.5,676.96,253.5,672.96,257.5,681.96" style="stroke:#181818;stroke-width:1.0;"/><text fill="#000000" font-family="sans-serif" font-size="13" lengthAdjust="spacing" textLength="31.0591" x="258.5" y="648.0283">items</text><text fill="#000000" font-family="sans-serif" font-size="13" lengthAdjust="spacing" textLength="5.0591" x="252.2032" y="670.9366">*</text></g><!--link ControllerClass to RepositoryHandler--><g id="link_ControllerClass_RepositoryHandler"><path codeLine="40" d="M226.65,201.36 C209.46,224.69 191.3179,249.3087 172.3479,275.0687 " fill="none" id="ControllerClass-to-RepositoryHandler" style="stroke:#181818;stroke-width:1.0;stroke-dasharray:7.0,7.0;"/><polygon fill="#181818" points="168.79,279.9,177.3477,275.0249,171.7549,275.8739,170.9059,270.2811,168.79,279.9" style="stroke:#181818;stroke-width:1.0;"/><text fill="#000000" font-family="sans-serif" font-size="13" lengthAdjust="spacing" textLength="102.6035" x="204.5" y="246.0283">repositoryHandler</text></g><!--link ControllerClass to RepositoryClass--><g id="link_ControllerClass_RepositoryClass"><path codeLine="41" d="M291.24,201.09 C304,216.82 315.5,231 315.5,231 C315.5,231 337.5,280 337.5,280 C337.5,280 337.5,402 337.5,402 C337.5,402 316.7326,438.0696 295.1126,475.6396 " fill="none" id="ControllerClass-to-RepositoryClass" style="stroke:#181818;stroke-width:1.0;stroke-dasharray:7.0,7.0;"/><polygon fill="#181818" points="292.12,480.84,300.0759,475.0345,294.6139,476.5063,293.142,471.0443,292.12,480.84" style="stroke:#181818;stroke-width:1.0;"/><text fill="#000000" font-family="sans-serif" font-size="13" lengthAdjust="spacing" textLength="57.0781" x="338.5" y="346.5283">repository</text></g><!--SRC=[ZLD1JiCm4Bpx5QjUI46fr7ABK2-zK8bJWGUOP9jQTUt8te8YnD-nJU8M9q7uOgrdF3DPR-nHg8ORVeA6bqTUupEr4i5WILpL4fcD17lWbVuGgeOzb_OQaK8XjGr2esNh2yPk9Eu9I8CHzO6W4bvHQCLOARcry6hHR1MXsVCID-7eattrw4OhCbfAD3q4Rjtf1WttAiii62-XW1VdEtVx3kbibAyIxYfBuEYomqPRGTgqZrnLpgptgP4kM7UzBqEWGCjDF9nWz2i7eQphPuc_Y9rhGXtWsNmiydLZd3xXwKbOSlf-UzYwEZ3MuvtxV-FUjQWIu3xpTlCEYzcYPqp5YOnuEnDsTZyw5-BlB8EatiM1aJuHPpLDTDb61csnMASJneQpaEThc2rdWvONS7dtYMl3qo9E04lrWi_jxAfzHNXEozA_mESUapQ3YVhxviXtV0C0]--></g></svg>