<svg xmlns="http://www.w3.org/2000/svg" xmlns:xlink="http://www.w3.org/1999/xlink" contentStyleType="text/css" height="412px" preserveAspectRatio="none" style="width:387px;height:412px;background:#FFFFFF;" version="1.1" viewBox="0 0 387 412" width="387px" zoomAndPan="magnify"><defs/><g><!--class ProductionLine--><g id="elem_ProductionLine"><rect codeLine="5" fill="#F1F1F1" height="159.7266" id="ProductionLine" rx="2.5" ry="2.5" style="stroke:#181818;stroke-width:0.5;" width="373.7988" x="7" y="7"/><ellipse cx="142.9497" cy="23" fill="#ADD1B2" rx="11" ry="11" style="stroke:#181818;stroke-width:1.0;"/><path d="M145.7153,18.875 Q145.8716,18.6563 146.0591,18.5469 Q146.2466,18.4375 146.4653,18.4375 Q146.8403,18.4375 147.0747,18.7031 Q147.3091,18.9531 147.3091,19.5625 L147.3091,21.0156 Q147.3091,21.625 147.0747,21.8906 Q146.8403,22.1563 146.4653,22.1563 Q146.1216,22.1563 145.9185,21.9531 Q145.7153,21.7656 145.606,21.25 Q145.5591,20.8906 145.3716,20.7031 Q145.0435,20.3281 144.4341,20.1094 Q143.8247,19.8906 143.1997,19.8906 Q142.4341,19.8906 141.7935,20.2188 Q141.1685,20.5469 140.6685,21.2969 Q140.1841,22.0469 140.1841,23.0781 L140.1841,24.1719 Q140.1841,25.4063 141.0747,26.2344 Q141.9653,27.0469 143.5591,27.0469 Q144.4966,27.0469 145.1528,26.7969 Q145.5435,26.6406 145.9653,26.2031 Q146.231,25.9375 146.3716,25.8594 Q146.5278,25.7813 146.731,25.7813 Q147.0591,25.7813 147.3091,26.0469 Q147.5747,26.2969 147.5747,26.6406 Q147.5747,26.9844 147.231,27.3906 Q146.731,27.9688 145.9341,28.2969 Q144.856,28.75 143.5591,28.75 Q142.0435,28.75 140.8403,28.125 Q139.856,27.625 139.1685,26.5625 Q138.481,25.4844 138.481,24.2031 L138.481,23.0469 Q138.481,21.7188 139.0903,20.5781 Q139.7153,19.4219 140.8091,18.8125 Q141.9028,18.1875 143.1372,18.1875 Q143.8716,18.1875 144.5122,18.3594 Q145.1685,18.5156 145.7153,18.875 Z " fill="#000000"/><text fill="#000000" font-family="sans-serif" font-size="14" lengthAdjust="spacing" textLength="93.3994" x="163.4497" y="28.7969">ProductionLine</text><line style="stroke:#181818;stroke-width:0.5;" x1="8" x2="379.7988" y1="39" y2="39"/><rect fill="none" height="6" style="stroke:#C82930;stroke-width:1.0;" width="6" x="15" y="50.8105"/><text fill="#000000" font-family="sans-serif" font-size="14" lengthAdjust="spacing" textLength="305.8672" x="27" y="58.1074">Map&lt;Integer, LinkedList&lt;Order&gt;&gt; productionLine</text><line style="stroke:#181818;stroke-width:0.5;" x1="8" x2="379.7988" y1="65.6211" y2="65.6211"/><ellipse cx="18" cy="80.4316" fill="#84BE84" rx="3" ry="3" style="stroke:#038048;stroke-width:1.0;"/><text fill="#000000" font-family="sans-serif" font-size="14" lengthAdjust="spacing" textLength="277.7646" x="27" y="84.7285">newOrder(Order order, Integer priority) : void</text><ellipse cx="18" cy="99.0527" fill="#84BE84" rx="3" ry="3" style="stroke:#038048;stroke-width:1.0;"/><text fill="#000000" font-family="sans-serif" font-size="14" lengthAdjust="spacing" textLength="263.751" x="27" y="103.3496">removeOrderFromPL(String orderId) : void</text><ellipse cx="18" cy="117.6738" fill="#84BE84" rx="3" ry="3" style="stroke:#038048;stroke-width:1.0;"/><text fill="#000000" font-family="sans-serif" font-size="14" lengthAdjust="spacing" textLength="185.9443" x="27" y="121.9707">searchOrder(String id) : Order</text><ellipse cx="18" cy="136.2949" fill="#84BE84" rx="3" ry="3" style="stroke:#038048;stroke-width:1.0;"/><text fill="#000000" font-family="sans-serif" font-size="14" lengthAdjust="spacing" textLength="347.7988" x="27" y="140.5918">getOrdersByPriority(Integer priority) : LinkedList&lt;Order&gt;</text><ellipse cx="18" cy="154.916" fill="#84BE84" rx="3" ry="3" style="stroke:#038048;stroke-width:1.0;"/><text fill="#000000" font-family="sans-serif" font-size="14" lengthAdjust="spacing" textLength="282.4336" x="27" y="159.2129">markOrderAsCompleted(String orderId) : void</text></g><!--class Order--><g id="elem_Order"><rect codeLine="14" fill="#F1F1F1" height="159.7266" id="Order" rx="2.5" ry="2.5" style="stroke:#181818;stroke-width:0.5;" width="265.668" x="61" y="246"/><ellipse cx="171.6909" cy="262" fill="#ADD1B2" rx="11" ry="11" style="stroke:#181818;stroke-width:1.0;"/><path d="M174.4565,257.875 Q174.6128,257.6563 174.8003,257.5469 Q174.9878,257.4375 175.2065,257.4375 Q175.5815,257.4375 175.8159,257.7031 Q176.0503,257.9531 176.0503,258.5625 L176.0503,260.0156 Q176.0503,260.625 175.8159,260.8906 Q175.5815,261.1563 175.2065,261.1563 Q174.8628,261.1563 174.6597,260.9531 Q174.4565,260.7656 174.3472,260.25 Q174.3003,259.8906 174.1128,259.7031 Q173.7847,259.3281 173.1753,259.1094 Q172.5659,258.8906 171.9409,258.8906 Q171.1753,258.8906 170.5347,259.2188 Q169.9097,259.5469 169.4097,260.2969 Q168.9253,261.0469 168.9253,262.0781 L168.9253,263.1719 Q168.9253,264.4063 169.8159,265.2344 Q170.7065,266.0469 172.3003,266.0469 Q173.2378,266.0469 173.894,265.7969 Q174.2847,265.6406 174.7065,265.2031 Q174.9722,264.9375 175.1128,264.8594 Q175.269,264.7813 175.4722,264.7813 Q175.8003,264.7813 176.0503,265.0469 Q176.3159,265.2969 176.3159,265.6406 Q176.3159,265.9844 175.9722,266.3906 Q175.4722,266.9688 174.6753,267.2969 Q173.5972,267.75 172.3003,267.75 Q170.7847,267.75 169.5815,267.125 Q168.5972,266.625 167.9097,265.5625 Q167.2222,264.4844 167.2222,263.2031 L167.2222,262.0469 Q167.2222,260.7188 167.8315,259.5781 Q168.4565,258.4219 169.5503,257.8125 Q170.644,257.1875 171.8784,257.1875 Q172.6128,257.1875 173.2534,257.3594 Q173.9097,257.5156 174.4565,257.875 Z " fill="#000000"/><text fill="#000000" font-family="sans-serif" font-size="14" lengthAdjust="spacing" textLength="35.7861" x="192.1909" y="267.7969">Order</text><line style="stroke:#181818;stroke-width:0.5;" x1="62" x2="325.668" y1="278" y2="278"/><rect fill="none" height="6" style="stroke:#C82930;stroke-width:1.0;" width="6" x="69" y="289.8105"/><text fill="#000000" font-family="sans-serif" font-size="14" lengthAdjust="spacing" textLength="51.3584" x="81" y="297.1074">String id</text><rect fill="none" height="6" style="stroke:#C82930;stroke-width:1.0;" width="6" x="69" y="308.4316"/><text fill="#000000" font-family="sans-serif" font-size="14" lengthAdjust="spacing" textLength="88.7373" x="81" y="315.7285">boolean ready</text><rect fill="none" height="6" style="stroke:#C82930;stroke-width:1.0;" width="6" x="69" y="327.0527"/><text fill="#000000" font-family="sans-serif" font-size="14" lengthAdjust="spacing" textLength="144.7441" x="81" y="334.3496">LocalDate deliveryDate</text><line style="stroke:#181818;stroke-width:0.5;" x1="62" x2="325.668" y1="341.8633" y2="341.8633"/><ellipse cx="72" cy="356.6738" fill="#84BE84" rx="3" ry="3" style="stroke:#038048;stroke-width:1.0;"/><text fill="#000000" font-family="sans-serif" font-size="14" lengthAdjust="spacing" textLength="88.7031" x="81" y="360.9707">getId() : String</text><ellipse cx="72" cy="375.2949" fill="#84BE84" rx="3" ry="3" style="stroke:#038048;stroke-width:1.0;"/><text fill="#000000" font-family="sans-serif" font-size="14" lengthAdjust="spacing" textLength="194.5576" x="81" y="379.5918">setReady(boolean ready) : void</text><ellipse cx="72" cy="393.916" fill="#84BE84" rx="3" ry="3" style="stroke:#038048;stroke-width:1.0;"/><text fill="#000000" font-family="sans-serif" font-size="14" lengthAdjust="spacing" textLength="239.668" x="81" y="398.2129">setDeliveryDate(LocalDate date) : void</text></g><!--link ProductionLine to Order--><g id="link_ProductionLine_Order"><path codeLine="23" d="M194,167.25 C194,192.55 194,214.53 194,239.83 " fill="none" id="ProductionLine-to-Order" style="stroke:#181818;stroke-width:1.0;"/><polygon fill="#181818" points="194,245.83,198,236.83,194,240.83,190,236.83,194,245.83" style="stroke:#181818;stroke-width:1.0;"/><text fill="#000000" font-family="sans-serif" font-size="13" lengthAdjust="spacing" textLength="48.4199" x="195" y="212.0283">contains</text><text fill="#000000" font-family="sans-serif" font-size="13" lengthAdjust="spacing" textLength="5.0591" x="188.7876" y="234.7101">*</text></g><!--SRC=[TL5HJiCm3FtlAIo-2cmNcAP9m8GqgOY9dS0afekQnb5YDbM8kzDcsUWso8Sbs-yz-pcnCSvZm1OygWPhsaXd2G8fGLTRAk894BUeUMzS3HzeuxXZZIFfF85dsmr9KIYBCS8wiFvKOjXLVHM-2kZV55xGprTEgAOmWRxJaAvCbFbhq1GM2_1dj4Iw1qVxr2zJ11xY1B9CJp4SZ7ItC8CT6vr9WLhUKM8y1sxNLRcHC5X8z9M-W4V2eBQ7CHbe4YQLCgWcIMbyxDPvQldN6bV6Ch_5qAJ2GtpYrbiIql-jzNsyvC7qyO2dtNB-pcm9NMyNTPTh5IkqInG2JTRiA7H3ykjXfSjXp47gv5_U1edoJF3gIB8SAPQZGNqOhtxn_TFf0cxkRhAN6IXsWiR57m00]--></g></svg>