<svg xmlns="http://www.w3.org/2000/svg" xmlns:xlink="http://www.w3.org/1999/xlink" contentStyleType="text/css" height="989px" preserveAspectRatio="none" style="width:1014px;height:989px;background:#FFFFFF;" version="1.1" viewBox="0 0 1014 989" width="1014px" zoomAndPan="magnify"><defs/><g><rect fill="#FFFFFF" height="156.4551" style="stroke:#181818;stroke-width:1.0;" width="10" x="253.3608" y="116.9121"/><rect fill="#FFFFFF" height="232.0371" style="stroke:#181818;stroke-width:1.0;" width="10" x="253.3608" y="304.6582"/><rect fill="#FFFFFF" height="161.4551" style="stroke:#181818;stroke-width:1.0;" width="10" x="258.3608" y="343.9492"/><rect fill="#FFFFFF" height="320.6191" style="stroke:#181818;stroke-width:1.0;" width="10" x="253.3608" y="567.9863"/><rect fill="#FFFFFF" height="243.0371" style="stroke:#181818;stroke-width:1.0;" width="10" x="258.3608" y="607.2773"/><rect fill="#FFFFFF" height="31.291" style="stroke:#181818;stroke-width:1.0;" width="10" x="488.4771" y="442.8223"/><rect fill="#FFFFFF" height="31.291" style="stroke:#181818;stroke-width:1.0;" width="10" x="488.4771" y="706.1504"/><rect fill="#FFFFFF" height="37.291" style="stroke:#181818;stroke-width:1.0;" width="10" x="488.4771" y="768.7324"/><rect fill="#FFFFFF" height="31.291" style="stroke:#181818;stroke-width:1.0;" width="10" x="736.0068" y="148.2031"/><rect fill="#FFFFFF" height="31.291" style="stroke:#181818;stroke-width:1.0;" width="10" x="736.0068" y="380.2402"/><rect fill="#FFFFFF" height="31.291" style="stroke:#181818;stroke-width:1.0;" width="10" x="736.0068" y="643.5684"/><rect fill="#FFFFFF" height="31.291" style="stroke:#181818;stroke-width:1.0;" width="10" x="959.7856" y="179.4941"/><rect fill="#FFFFFF" height="93.873" style="stroke:#181818;stroke-width:1.0;" width="10" x="959.7856" y="411.5313"/><line style="stroke:#181818;stroke-width:0.5;stroke-dasharray:5.0,5.0;" x1="25" x2="25" y1="83.6211" y2="906.6055"/><line style="stroke:#181818;stroke-width:0.5;stroke-dasharray:5.0,5.0;" x1="257.6611" x2="257.6611" y1="83.6211" y2="906.6055"/><line style="stroke:#181818;stroke-width:0.5;stroke-dasharray:5.0,5.0;" x1="492.584" x2="492.584" y1="83.6211" y2="906.6055"/><line style="stroke:#181818;stroke-width:0.5;stroke-dasharray:5.0,5.0;" x1="740.3896" x2="740.3896" y1="83.6211" y2="906.6055"/><line style="stroke:#181818;stroke-width:0.5;stroke-dasharray:5.0,5.0;" x1="963.8237" x2="963.8237" y1="83.6211" y2="906.6055"/><text fill="#000000" font-family="sans-serif" font-size="14" lengthAdjust="spacing" textLength="35.793" x="5" y="80.1074">Client</text><ellipse cx="25.8965" cy="13.5" fill="#E3E3E3" rx="8" ry="8" style="stroke:#181818;stroke-width:0.5;"/><path d="M25.8965,21.5 L25.8965,48.5 M12.8965,29.5 L38.8965,29.5 M25.8965,48.5 L12.8965,63.5 M25.8965,48.5 L38.8965,63.5 " fill="none" style="stroke:#181818;stroke-width:0.5;"/><text fill="#000000" font-family="sans-serif" font-size="14" lengthAdjust="spacing" textLength="35.793" x="5" y="920.7129">Client</text><ellipse cx="25.8965" cy="932.7266" fill="#E3E3E3" rx="8" ry="8" style="stroke:#181818;stroke-width:0.5;"/><path d="M25.8965,940.7266 L25.8965,967.7266 M12.8965,948.7266 L38.8965,948.7266 M25.8965,967.7266 L12.8965,982.7266 M25.8965,967.7266 L38.8965,982.7266 " fill="none" style="stroke:#181818;stroke-width:0.5;"/><rect fill="#E3E3E3" height="32.6211" rx="2.5" ry="2.5" style="stroke:#181818;stroke-width:0.5;" width="107.3994" x="204.6611" y="50"/><text fill="#000000" font-family="sans-serif" font-size="14" lengthAdjust="spacing" textLength="93.3994" x="211.6611" y="72.1074">ProductionLine</text><rect fill="#E3E3E3" height="32.6211" rx="2.5" ry="2.5" style="stroke:#181818;stroke-width:0.5;" width="107.3994" x="204.6611" y="905.6055"/><text fill="#000000" font-family="sans-serif" font-size="14" lengthAdjust="spacing" textLength="93.3994" x="211.6611" y="927.7129">ProductionLine</text><rect fill="#E3E3E3" height="32.6211" rx="2.5" ry="2.5" style="stroke:#181818;stroke-width:0.5;" width="49.7861" x="468.584" y="50"/><text fill="#000000" font-family="sans-serif" font-size="14" lengthAdjust="spacing" textLength="35.7861" x="475.584" y="72.1074">Order</text><rect fill="#E3E3E3" height="32.6211" rx="2.5" ry="2.5" style="stroke:#181818;stroke-width:0.5;" width="49.7861" x="468.584" y="905.6055"/><text fill="#000000" font-family="sans-serif" font-size="14" lengthAdjust="spacing" textLength="35.7861" x="475.584" y="927.7129">Order</text><rect fill="#E3E3E3" height="32.6211" rx="2.5" ry="2.5" style="stroke:#181818;stroke-width:0.5;" width="41.2344" x="720.3896" y="50"/><text fill="#000000" font-family="sans-serif" font-size="14" lengthAdjust="spacing" textLength="27.2344" x="727.3896" y="72.1074">Map</text><rect fill="#E3E3E3" height="32.6211" rx="2.5" ry="2.5" style="stroke:#181818;stroke-width:0.5;" width="41.2344" x="720.3896" y="905.6055"/><text fill="#000000" font-family="sans-serif" font-size="14" lengthAdjust="spacing" textLength="27.2344" x="727.3896" y="927.7129">Map</text><rect fill="#E3E3E3" height="32.6211" rx="2.5" ry="2.5" style="stroke:#181818;stroke-width:0.5;" width="87.9238" x="920.8237" y="50"/><text fill="#000000" font-family="sans-serif" font-size="14" lengthAdjust="spacing" textLength="73.9238" x="927.8237" y="72.1074">List&lt;Order&gt;</text><rect fill="#E3E3E3" height="32.6211" rx="2.5" ry="2.5" style="stroke:#181818;stroke-width:0.5;" width="87.9238" x="920.8237" y="905.6055"/><text fill="#000000" font-family="sans-serif" font-size="14" lengthAdjust="spacing" textLength="73.9238" x="927.8237" y="927.7129">List&lt;Order&gt;</text><rect fill="#FFFFFF" height="156.4551" style="stroke:#181818;stroke-width:1.0;" width="10" x="253.3608" y="116.9121"/><rect fill="#FFFFFF" height="232.0371" style="stroke:#181818;stroke-width:1.0;" width="10" x="253.3608" y="304.6582"/><rect fill="#FFFFFF" height="161.4551" style="stroke:#181818;stroke-width:1.0;" width="10" x="258.3608" y="343.9492"/><rect fill="#FFFFFF" height="320.6191" style="stroke:#181818;stroke-width:1.0;" width="10" x="253.3608" y="567.9863"/><rect fill="#FFFFFF" height="243.0371" style="stroke:#181818;stroke-width:1.0;" width="10" x="258.3608" y="607.2773"/><rect fill="#FFFFFF" height="31.291" style="stroke:#181818;stroke-width:1.0;" width="10" x="488.4771" y="442.8223"/><rect fill="#FFFFFF" height="31.291" style="stroke:#181818;stroke-width:1.0;" width="10" x="488.4771" y="706.1504"/><rect fill="#FFFFFF" height="37.291" style="stroke:#181818;stroke-width:1.0;" width="10" x="488.4771" y="768.7324"/><rect fill="#FFFFFF" height="31.291" style="stroke:#181818;stroke-width:1.0;" width="10" x="736.0068" y="148.2031"/><rect fill="#FFFFFF" height="31.291" style="stroke:#181818;stroke-width:1.0;" width="10" x="736.0068" y="380.2402"/><rect fill="#FFFFFF" height="31.291" style="stroke:#181818;stroke-width:1.0;" width="10" x="736.0068" y="643.5684"/><rect fill="#FFFFFF" height="31.291" style="stroke:#181818;stroke-width:1.0;" width="10" x="959.7856" y="179.4941"/><rect fill="#FFFFFF" height="93.873" style="stroke:#181818;stroke-width:1.0;" width="10" x="959.7856" y="411.5313"/><polygon fill="#181818" points="241.3608,112.9121,251.3608,116.9121,241.3608,120.9121,245.3608,116.9121" style="stroke:#181818;stroke-width:1.0;"/><line style="stroke:#181818;stroke-width:1.0;" x1="25.8965" x2="247.3608" y1="116.9121" y2="116.9121"/><text fill="#000000" font-family="sans-serif" font-size="13" font-weight="bold" lengthAdjust="spacing" textLength="7.23" x="32.8965" y="111.6494">1</text><text fill="#000000" font-family="sans-serif" font-size="13" lengthAdjust="spacing" textLength="142.3145" x="44.1265" y="111.6494">newOrder(order, priority)</text><polygon fill="#181818" points="724.0068,144.2031,734.0068,148.2031,724.0068,152.2031,728.0068,148.2031" style="stroke:#181818;stroke-width:1.0;"/><line style="stroke:#181818;stroke-width:1.0;" x1="263.3608" x2="730.0068" y1="148.2031" y2="148.2031"/><text fill="#000000" font-family="sans-serif" font-size="13" font-weight="bold" lengthAdjust="spacing" textLength="7.23" x="270.3608" y="142.9404">2</text><text fill="#000000" font-family="sans-serif" font-size="13" lengthAdjust="spacing" textLength="145.2217" x="281.5908" y="142.9404">computeIfAbsent(priority)</text><polygon fill="#181818" points="947.7856,175.4941,957.7856,179.4941,947.7856,183.4941,951.7856,179.4941" style="stroke:#181818;stroke-width:1.0;"/><line style="stroke:#181818;stroke-width:1.0;" x1="741.0068" x2="953.7856" y1="179.4941" y2="179.4941"/><text fill="#000000" font-family="sans-serif" font-size="13" font-weight="bold" lengthAdjust="spacing" textLength="7.23" x="748.0068" y="174.2314">3</text><text fill="#000000" font-family="sans-serif" font-size="13" lengthAdjust="spacing" textLength="183.5488" x="759.2368" y="174.2314">get or create LinkedList&lt;Order&gt;</text><polygon fill="#181818" points="274.3608,206.7852,264.3608,210.7852,274.3608,214.7852,270.3608,210.7852" style="stroke:#181818;stroke-width:1.0;"/><line style="stroke:#181818;stroke-width:1.0;stroke-dasharray:2.0,2.0;" x1="268.3608" x2="963.7856" y1="210.7852" y2="210.7852"/><text fill="#000000" font-family="sans-serif" font-size="13" font-weight="bold" lengthAdjust="spacing" textLength="7.23" x="280.3608" y="205.5225">4</text><text fill="#000000" font-family="sans-serif" font-size="13" lengthAdjust="spacing" textLength="106.9517" x="291.5908" y="205.5225">LinkedList&lt;Order&gt;</text><polygon fill="#181818" points="952.7856,238.0762,962.7856,242.0762,952.7856,246.0762,956.7856,242.0762" style="stroke:#181818;stroke-width:1.0;"/><line style="stroke:#181818;stroke-width:1.0;" x1="263.3608" x2="958.7856" y1="242.0762" y2="242.0762"/><text fill="#000000" font-family="sans-serif" font-size="13" font-weight="bold" lengthAdjust="spacing" textLength="7.23" x="270.3608" y="236.8135">5</text><text fill="#000000" font-family="sans-serif" font-size="13" lengthAdjust="spacing" textLength="60.6963" x="281.5908" y="236.8135">add(order)</text><polygon fill="#181818" points="36.8965,269.3672,26.8965,273.3672,36.8965,277.3672,32.8965,273.3672" style="stroke:#181818;stroke-width:1.0;"/><line style="stroke:#181818;stroke-width:1.0;" x1="30.8965" x2="257.3608" y1="273.3672" y2="273.3672"/><text fill="#000000" font-family="sans-serif" font-size="13" font-weight="bold" lengthAdjust="spacing" textLength="7.23" x="42.8965" y="268.1045">6</text><text fill="#000000" font-family="sans-serif" font-size="13" lengthAdjust="spacing" textLength="156.7998" x="54.1265" y="268.1045">new order added (success)</text><polygon fill="#181818" points="241.3608,300.6582,251.3608,304.6582,241.3608,308.6582,245.3608,304.6582" style="stroke:#181818;stroke-width:1.0;"/><line style="stroke:#181818;stroke-width:1.0;" x1="25.8965" x2="247.3608" y1="304.6582" y2="304.6582"/><text fill="#000000" font-family="sans-serif" font-size="13" font-weight="bold" lengthAdjust="spacing" textLength="7.23" x="32.8965" y="299.3955">7</text><text fill="#000000" font-family="sans-serif" font-size="13" lengthAdjust="spacing" textLength="172.6563" x="44.1265" y="299.3955">removeOrderFromPL(orderId)</text><line style="stroke:#181818;stroke-width:1.0;" x1="263.3608" x2="310.3608" y1="330.9492" y2="330.9492"/><line style="stroke:#181818;stroke-width:1.0;" x1="310.3608" x2="310.3608" y1="330.9492" y2="343.9492"/><line style="stroke:#181818;stroke-width:1.0;" x1="269.3608" x2="310.3608" y1="343.9492" y2="343.9492"/><polygon fill="#181818" points="279.3608,339.9492,269.3608,343.9492,279.3608,347.9492,275.3608,343.9492" style="stroke:#181818;stroke-width:1.0;"/><text fill="#000000" font-family="sans-serif" font-size="13" font-weight="bold" lengthAdjust="spacing" textLength="7.23" x="275.3608" y="325.6865">8</text><text fill="#000000" font-family="sans-serif" font-size="13" lengthAdjust="spacing" textLength="122.0972" x="286.5908" y="325.6865">searchOrder(orderId)</text><polygon fill="#181818" points="724.0068,376.2402,734.0068,380.2402,724.0068,384.2402,728.0068,380.2402" style="stroke:#181818;stroke-width:1.0;"/><line style="stroke:#181818;stroke-width:1.0;" x1="268.3608" x2="730.0068" y1="380.2402" y2="380.2402"/><text fill="#000000" font-family="sans-serif" font-size="13" font-weight="bold" lengthAdjust="spacing" textLength="7.23" x="275.3608" y="374.9775">9</text><text fill="#000000" font-family="sans-serif" font-size="13" lengthAdjust="spacing" textLength="88.8672" x="286.5908" y="374.9775">iterate priorities</text><polygon fill="#181818" points="947.7856,407.5313,957.7856,411.5313,947.7856,415.5313,951.7856,411.5313" style="stroke:#181818;stroke-width:1.0;"/><line style="stroke:#181818;stroke-width:1.0;" x1="741.0068" x2="953.7856" y1="411.5313" y2="411.5313"/><text fill="#000000" font-family="sans-serif" font-size="13" font-weight="bold" lengthAdjust="spacing" textLength="14.46" x="748.0068" y="406.2686">10</text><text fill="#000000" font-family="sans-serif" font-size="13" lengthAdjust="spacing" textLength="90.3271" x="766.4668" y="406.2686">get List&lt;Order&gt;</text><polygon fill="#181818" points="476.4771,438.8223,486.4771,442.8223,476.4771,446.8223,480.4771,442.8223" style="stroke:#181818;stroke-width:1.0;"/><line style="stroke:#181818;stroke-width:1.0;" x1="268.3608" x2="482.4771" y1="442.8223" y2="442.8223"/><text fill="#000000" font-family="sans-serif" font-size="13" font-weight="bold" lengthAdjust="spacing" textLength="14.46" x="275.3608" y="437.5596">11</text><text fill="#000000" font-family="sans-serif" font-size="13" lengthAdjust="spacing" textLength="37.5718" x="293.8208" y="437.5596">getId()</text><polygon fill="#181818" points="279.3608,470.1133,269.3608,474.1133,279.3608,478.1133,275.3608,474.1133" style="stroke:#181818;stroke-width:1.0;"/><line style="stroke:#181818;stroke-width:1.0;stroke-dasharray:2.0,2.0;" x1="273.3608" x2="492.4771" y1="474.1133" y2="474.1133"/><text fill="#000000" font-family="sans-serif" font-size="13" font-weight="bold" lengthAdjust="spacing" textLength="14.46" x="285.3608" y="468.8506">12</text><text fill="#000000" font-family="sans-serif" font-size="13" lengthAdjust="spacing" textLength="62.8608" x="303.8208" y="468.8506">id matches</text><polygon fill="#181818" points="952.7856,501.4043,962.7856,505.4043,952.7856,509.4043,956.7856,505.4043" style="stroke:#181818;stroke-width:1.0;"/><line style="stroke:#181818;stroke-width:1.0;" x1="263.3608" x2="958.7856" y1="505.4043" y2="505.4043"/><text fill="#000000" font-family="sans-serif" font-size="13" font-weight="bold" lengthAdjust="spacing" textLength="14.46" x="270.3608" y="500.1416">13</text><text fill="#000000" font-family="sans-serif" font-size="13" lengthAdjust="spacing" textLength="82.3545" x="288.8208" y="500.1416">remove(order)</text><polygon fill="#181818" points="36.8965,532.6953,26.8965,536.6953,36.8965,540.6953,32.8965,536.6953" style="stroke:#181818;stroke-width:1.0;"/><line style="stroke:#181818;stroke-width:1.0;" x1="30.8965" x2="257.3608" y1="536.6953" y2="536.6953"/><text fill="#000000" font-family="sans-serif" font-size="13" font-weight="bold" lengthAdjust="spacing" textLength="14.46" x="42.8965" y="531.4326">14</text><text fill="#000000" font-family="sans-serif" font-size="13" lengthAdjust="spacing" textLength="143.7681" x="61.3564" y="531.4326">order removed (success)</text><polygon fill="#181818" points="241.3608,563.9863,251.3608,567.9863,241.3608,571.9863,245.3608,567.9863" style="stroke:#181818;stroke-width:1.0;"/><line style="stroke:#181818;stroke-width:1.0;" x1="25.8965" x2="247.3608" y1="567.9863" y2="567.9863"/><text fill="#000000" font-family="sans-serif" font-size="13" font-weight="bold" lengthAdjust="spacing" textLength="14.46" x="32.8965" y="562.7236">15</text><text fill="#000000" font-family="sans-serif" font-size="13" lengthAdjust="spacing" textLength="190.0044" x="51.3564" y="562.7236">markOrderAsCompleted(orderId)</text><line style="stroke:#181818;stroke-width:1.0;" x1="263.3608" x2="310.3608" y1="594.2773" y2="594.2773"/><line style="stroke:#181818;stroke-width:1.0;" x1="310.3608" x2="310.3608" y1="594.2773" y2="607.2773"/><line style="stroke:#181818;stroke-width:1.0;" x1="269.3608" x2="310.3608" y1="607.2773" y2="607.2773"/><polygon fill="#181818" points="279.3608,603.2773,269.3608,607.2773,279.3608,611.2773,275.3608,607.2773" style="stroke:#181818;stroke-width:1.0;"/><text fill="#000000" font-family="sans-serif" font-size="13" font-weight="bold" lengthAdjust="spacing" textLength="14.46" x="275.3608" y="589.0146">16</text><text fill="#000000" font-family="sans-serif" font-size="13" lengthAdjust="spacing" textLength="122.0972" x="293.8208" y="589.0146">searchOrder(orderId)</text><polygon fill="#181818" points="724.0068,639.5684,734.0068,643.5684,724.0068,647.5684,728.0068,643.5684" style="stroke:#181818;stroke-width:1.0;"/><line style="stroke:#181818;stroke-width:1.0;" x1="268.3608" x2="730.0068" y1="643.5684" y2="643.5684"/><text fill="#000000" font-family="sans-serif" font-size="13" font-weight="bold" lengthAdjust="spacing" textLength="14.46" x="275.3608" y="638.3057">17</text><text fill="#000000" font-family="sans-serif" font-size="13" lengthAdjust="spacing" textLength="88.8672" x="293.8208" y="638.3057">iterate priorities</text><polygon fill="#181818" points="952.7856,670.8594,962.7856,674.8594,952.7856,678.8594,956.7856,674.8594" style="stroke:#181818;stroke-width:1.0;"/><line style="stroke:#181818;stroke-width:1.0;" x1="741.0068" x2="958.7856" y1="674.8594" y2="674.8594"/><text fill="#000000" font-family="sans-serif" font-size="13" font-weight="bold" lengthAdjust="spacing" textLength="14.46" x="748.0068" y="669.5967">18</text><text fill="#000000" font-family="sans-serif" font-size="13" lengthAdjust="spacing" textLength="90.3271" x="766.4668" y="669.5967">get List&lt;Order&gt;</text><polygon fill="#181818" points="476.4771,702.1504,486.4771,706.1504,476.4771,710.1504,480.4771,706.1504" style="stroke:#181818;stroke-width:1.0;"/><line style="stroke:#181818;stroke-width:1.0;" x1="268.3608" x2="482.4771" y1="706.1504" y2="706.1504"/><text fill="#000000" font-family="sans-serif" font-size="13" font-weight="bold" lengthAdjust="spacing" textLength="14.46" x="275.3608" y="700.8877">19</text><text fill="#000000" font-family="sans-serif" font-size="13" lengthAdjust="spacing" textLength="37.5718" x="293.8208" y="700.8877">getId()</text><polygon fill="#181818" points="279.3608,733.4414,269.3608,737.4414,279.3608,741.4414,275.3608,737.4414" style="stroke:#181818;stroke-width:1.0;"/><line style="stroke:#181818;stroke-width:1.0;stroke-dasharray:2.0,2.0;" x1="273.3608" x2="492.4771" y1="737.4414" y2="737.4414"/><text fill="#000000" font-family="sans-serif" font-size="13" font-weight="bold" lengthAdjust="spacing" textLength="14.46" x="285.3608" y="732.1787">20</text><text fill="#000000" font-family="sans-serif" font-size="13" lengthAdjust="spacing" textLength="62.8608" x="303.8208" y="732.1787">id matches</text><polygon fill="#181818" points="476.4771,764.7324,486.4771,768.7324,476.4771,772.7324,480.4771,768.7324" style="stroke:#181818;stroke-width:1.0;"/><line style="stroke:#181818;stroke-width:1.0;" x1="268.3608" x2="482.4771" y1="768.7324" y2="768.7324"/><text fill="#000000" font-family="sans-serif" font-size="13" font-weight="bold" lengthAdjust="spacing" textLength="14.46" x="275.3608" y="763.4697">21</text><text fill="#000000" font-family="sans-serif" font-size="13" lengthAdjust="spacing" textLength="85.979" x="293.8208" y="763.4697">setReady(true)</text><line style="stroke:#181818;stroke-width:1.0;" x1="498.4771" x2="540.4771" y1="805.0234" y2="805.0234"/><line style="stroke:#181818;stroke-width:1.0;" x1="540.4771" x2="540.4771" y1="805.0234" y2="818.0234"/><line style="stroke:#181818;stroke-width:1.0;" x1="493.4771" x2="540.4771" y1="818.0234" y2="818.0234"/><polygon fill="#181818" points="503.4771,814.0234,493.4771,818.0234,503.4771,822.0234,499.4771,818.0234" style="stroke:#181818;stroke-width:1.0;"/><text fill="#000000" font-family="sans-serif" font-size="13" font-weight="bold" lengthAdjust="spacing" textLength="14.46" x="505.4771" y="799.7607">22</text><text fill="#000000" font-family="sans-serif" font-size="13" lengthAdjust="spacing" textLength="195.0698" x="523.937" y="799.7607">setDeliveryDate(LocalDate.now())</text><line style="stroke:#181818;stroke-width:1.0;" x1="268.3608" x2="310.3608" y1="849.3145" y2="849.3145"/><line style="stroke:#181818;stroke-width:1.0;" x1="310.3608" x2="310.3608" y1="849.3145" y2="862.3145"/><line style="stroke:#181818;stroke-width:1.0;" x1="263.3608" x2="310.3608" y1="862.3145" y2="862.3145"/><polygon fill="#181818" points="273.3608,858.3145,263.3608,862.3145,273.3608,866.3145,269.3608,862.3145" style="stroke:#181818;stroke-width:1.0;"/><text fill="#000000" font-family="sans-serif" font-size="13" font-weight="bold" lengthAdjust="spacing" textLength="14.46" x="275.3608" y="844.0518">23</text><text fill="#000000" font-family="sans-serif" font-size="13" lengthAdjust="spacing" textLength="172.6563" x="293.8208" y="844.0518">removeOrderFromPL(orderId)</text><polygon fill="#181818" points="36.8965,884.6055,26.8965,888.6055,36.8965,892.6055,32.8965,888.6055" style="stroke:#181818;stroke-width:1.0;"/><line style="stroke:#181818;stroke-width:1.0;" x1="30.8965" x2="257.3608" y1="888.6055" y2="888.6055"/><text fill="#000000" font-family="sans-serif" font-size="13" font-weight="bold" lengthAdjust="spacing" textLength="14.46" x="42.8965" y="883.3428">24</text><text fill="#000000" font-family="sans-serif" font-size="13" lengthAdjust="spacing" textLength="158.2407" x="61.3564" y="883.3428">order marked as completed</text><!--SRC=[tLN1JiCm3BttAwATEWdu08IG40XfqX0JV859p1QjJIh7tRI_nqbWQqTNCN50uj8cpVFpi_tQXhLr3H3KglREwnNv6XLJYqNOdpIWrx34LzvLg0WrWrjMNK1OWV5RwvRg7Qg0HG4jUzVMRqYorkn9JUuhYuud2eBAoq9YsMhRW6CrMP0thMRhtTmwJB3-epxycGnIGgLL__09cdGaz_x1t0Q-IG6t2H3tERx8cjJbxL5QTQqSRXEezF5weHgodYplfh4qkm76Owd54OUmYXQXqhvkMiRP-zrRa7Jb05KK7S4IivSdaKja9MtKX14ah6iqdN8AWps6_UPGue7jSgZAKSe3o_VAkYh1cDobwN3qGFXdurERLOgDB6XK6LgjCOGUrN6ZHyP6MFiDfhoFukh5F2kRcRFczeqs891UTGnn9c4sWcMaYFyqWCNm8mUSD_61x1socIaxmdF4Y3-iKJMmNedIJkQJYRhAyoH6ZJ4ouX7BPBja-jyRfWPQ9pLtuLxUqmePpV_sp5yQv2jHG7v1CBio_dHEvUl17x2o6wJTWy3AkTTGnTMLyzjoElrHxdE-5RznPdIK65F-DFhBKAVvFW00]--></g></svg>