<svg xmlns="http://www.w3.org/2000/svg" xmlns:xlink="http://www.w3.org/1999/xlink" contentStyleType="text/css" height="958px" preserveAspectRatio="none" style="width:809px;height:958px;background:#FFFFFF;" version="1.1" viewBox="0 0 809 958" width="809px" zoomAndPan="magnify"><defs/><g><rect fill="#FFFFFF" height="200.7461" style="stroke:#181818;stroke-width:1.0;" width="10" x="239.6245" y="116.9121"/><rect fill="#FFFFFF" height="156.4551" style="stroke:#181818;stroke-width:1.0;" width="10" x="239.6245" y="348.9492"/><rect fill="#FFFFFF" height="320.6191" style="stroke:#181818;stroke-width:1.0;" width="10" x="239.6245" y="536.6953"/><rect fill="#FFFFFF" height="36.291" style="stroke:#181818;stroke-width:1.0;" width="10" x="244.6245" y="575.9863"/><rect fill="#FFFFFF" height="31.291" style="stroke:#181818;stroke-width:1.0;" width="10" x="438.1143" y="192.4941"/><rect fill="#FFFFFF" height="31.291" style="stroke:#181818;stroke-width:1.0;" width="10" x="438.1143" y="255.0762"/><rect fill="#FFFFFF" height="93.873" style="stroke:#181818;stroke-width:1.0;" width="10" x="438.1143" y="380.2402"/><rect fill="#FFFFFF" height="213.7461" style="stroke:#181818;stroke-width:1.0;" width="10" x="438.1143" y="612.2773"/><rect fill="#FFFFFF" height="31.291" style="stroke:#181818;stroke-width:1.0;" width="10" x="553.4351" y="411.5313"/><rect fill="#FFFFFF" height="151.1641" style="stroke:#181818;stroke-width:1.0;" width="10" x="553.4351" y="643.5684"/><line style="stroke:#181818;stroke-width:0.5;stroke-dasharray:5.0,5.0;" x1="25" x2="25" y1="83.6211" y2="875.3145"/><line style="stroke:#181818;stroke-width:0.5;stroke-dasharray:5.0,5.0;" x1="243.7041" x2="243.7041" y1="83.6211" y2="875.3145"/><line style="stroke:#181818;stroke-width:0.5;stroke-dasharray:5.0,5.0;" x1="442.1421" x2="442.1421" y1="83.6211" y2="875.3145"/><line style="stroke:#181818;stroke-width:0.5;stroke-dasharray:5.0,5.0;" x1="557.9385" x2="557.9385" y1="83.6211" y2="875.3145"/><text fill="#000000" font-family="sans-serif" font-size="14" lengthAdjust="spacing" textLength="35.793" x="5" y="80.1074">Client</text><ellipse cx="25.8965" cy="13.5" fill="#E3E3E3" rx="8" ry="8" style="stroke:#181818;stroke-width:0.5;"/><path d="M25.8965,21.5 L25.8965,48.5 M12.8965,29.5 L38.8965,29.5 M25.8965,48.5 L12.8965,63.5 M25.8965,48.5 L38.8965,63.5 " fill="none" style="stroke:#181818;stroke-width:0.5;"/><text fill="#000000" font-family="sans-serif" font-size="14" lengthAdjust="spacing" textLength="35.793" x="5" y="889.4219">Client</text><ellipse cx="25.8965" cy="901.4355" fill="#E3E3E3" rx="8" ry="8" style="stroke:#181818;stroke-width:0.5;"/><path d="M25.8965,909.4355 L25.8965,936.4355 M12.8965,917.4355 L38.8965,917.4355 M25.8965,936.4355 L12.8965,951.4355 M25.8965,936.4355 L38.8965,951.4355 " fill="none" style="stroke:#181818;stroke-width:0.5;"/><rect fill="#E3E3E3" height="32.6211" rx="2.5" ry="2.5" style="stroke:#181818;stroke-width:0.5;" width="147.8408" x="170.7041" y="50"/><text fill="#000000" font-family="sans-serif" font-size="14" lengthAdjust="spacing" textLength="133.8408" x="177.7041" y="72.1074">MapLinked&lt;T, Q, ID&gt;</text><rect fill="#E3E3E3" height="32.6211" rx="2.5" ry="2.5" style="stroke:#181818;stroke-width:0.5;" width="147.8408" x="170.7041" y="874.3145"/><text fill="#000000" font-family="sans-serif" font-size="14" lengthAdjust="spacing" textLength="133.8408" x="177.7041" y="896.4219">MapLinked&lt;T, Q, ID&gt;</text><rect fill="#E3E3E3" height="32.6211" rx="2.5" ry="2.5" style="stroke:#181818;stroke-width:0.5;" width="101.9443" x="392.1421" y="50"/><text fill="#000000" font-family="sans-serif" font-size="14" lengthAdjust="spacing" textLength="87.9443" x="399.1421" y="72.1074">LinkedList&lt;T&gt;</text><rect fill="#E3E3E3" height="32.6211" rx="2.5" ry="2.5" style="stroke:#181818;stroke-width:0.5;" width="101.9443" x="392.1421" y="874.3145"/><text fill="#000000" font-family="sans-serif" font-size="14" lengthAdjust="spacing" textLength="87.9443" x="399.1421" y="896.4219">LinkedList&lt;T&gt;</text><rect fill="#E3E3E3" height="32.6211" rx="2.5" ry="2.5" style="stroke:#181818;stroke-width:0.5;" width="62.9932" x="526.9385" y="50"/><text fill="#000000" font-family="sans-serif" font-size="14" lengthAdjust="spacing" textLength="48.9932" x="533.9385" y="72.1074">T (Item)</text><rect fill="#E3E3E3" height="32.6211" rx="2.5" ry="2.5" style="stroke:#181818;stroke-width:0.5;" width="62.9932" x="526.9385" y="874.3145"/><text fill="#000000" font-family="sans-serif" font-size="14" lengthAdjust="spacing" textLength="48.9932" x="533.9385" y="896.4219">T (Item)</text><rect fill="#FFFFFF" height="200.7461" style="stroke:#181818;stroke-width:1.0;" width="10" x="239.6245" y="116.9121"/><rect fill="#FFFFFF" height="156.4551" style="stroke:#181818;stroke-width:1.0;" width="10" x="239.6245" y="348.9492"/><rect fill="#FFFFFF" height="320.6191" style="stroke:#181818;stroke-width:1.0;" width="10" x="239.6245" y="536.6953"/><rect fill="#FFFFFF" height="36.291" style="stroke:#181818;stroke-width:1.0;" width="10" x="244.6245" y="575.9863"/><rect fill="#FFFFFF" height="31.291" style="stroke:#181818;stroke-width:1.0;" width="10" x="438.1143" y="192.4941"/><rect fill="#FFFFFF" height="31.291" style="stroke:#181818;stroke-width:1.0;" width="10" x="438.1143" y="255.0762"/><rect fill="#FFFFFF" height="93.873" style="stroke:#181818;stroke-width:1.0;" width="10" x="438.1143" y="380.2402"/><rect fill="#FFFFFF" height="213.7461" style="stroke:#181818;stroke-width:1.0;" width="10" x="438.1143" y="612.2773"/><rect fill="#FFFFFF" height="31.291" style="stroke:#181818;stroke-width:1.0;" width="10" x="553.4351" y="411.5313"/><rect fill="#FFFFFF" height="151.1641" style="stroke:#181818;stroke-width:1.0;" width="10" x="553.4351" y="643.5684"/><polygon fill="#181818" points="227.6245,112.9121,237.6245,116.9121,227.6245,120.9121,231.6245,116.9121" style="stroke:#181818;stroke-width:1.0;"/><line style="stroke:#181818;stroke-width:1.0;" x1="25.8965" x2="233.6245" y1="116.9121" y2="116.9121"/><text fill="#000000" font-family="sans-serif" font-size="13" font-weight="bold" lengthAdjust="spacing" textLength="7.23" x="32.8965" y="111.6494">1</text><text fill="#000000" font-family="sans-serif" font-size="13" lengthAdjust="spacing" textLength="109.8018" x="44.1265" y="111.6494">newItem(item, key)</text><line style="stroke:#181818;stroke-width:1.0;" x1="249.6245" x2="291.6245" y1="148.2031" y2="148.2031"/><line style="stroke:#181818;stroke-width:1.0;" x1="291.6245" x2="291.6245" y1="148.2031" y2="161.2031"/><line style="stroke:#181818;stroke-width:1.0;" x1="250.6245" x2="291.6245" y1="161.2031" y2="161.2031"/><polygon fill="#181818" points="260.6245,157.2031,250.6245,161.2031,260.6245,165.2031,256.6245,161.2031" style="stroke:#181818;stroke-width:1.0;"/><text fill="#000000" font-family="sans-serif" font-size="13" font-weight="bold" lengthAdjust="spacing" textLength="7.23" x="256.6245" y="142.9404">2</text><text fill="#000000" font-family="sans-serif" font-size="13" lengthAdjust="spacing" textLength="126.4453" x="267.8545" y="142.9404">computeIfAbsent(key)</text><polygon fill="#181818" points="426.1143,188.4941,436.1143,192.4941,426.1143,196.4941,430.1143,192.4941" style="stroke:#181818;stroke-width:1.0;"/><line style="stroke:#181818;stroke-width:1.0;" x1="249.6245" x2="432.1143" y1="192.4941" y2="192.4941"/><text fill="#000000" font-family="sans-serif" font-size="13" font-weight="bold" lengthAdjust="spacing" textLength="7.23" x="256.6245" y="187.2314">3</text><text fill="#000000" font-family="sans-serif" font-size="13" lengthAdjust="spacing" textLength="158.2598" x="267.8545" y="187.2314">get or create LinkedList&lt;T&gt;</text><polygon fill="#181818" points="260.6245,219.7852,250.6245,223.7852,260.6245,227.7852,256.6245,223.7852" style="stroke:#181818;stroke-width:1.0;"/><line style="stroke:#181818;stroke-width:1.0;stroke-dasharray:2.0,2.0;" x1="254.6245" x2="442.1143" y1="223.7852" y2="223.7852"/><text fill="#000000" font-family="sans-serif" font-size="13" font-weight="bold" lengthAdjust="spacing" textLength="7.23" x="266.6245" y="218.5225">4</text><text fill="#000000" font-family="sans-serif" font-size="13" lengthAdjust="spacing" textLength="81.6626" x="277.8545" y="218.5225">LinkedList&lt;T&gt;</text><polygon fill="#181818" points="426.1143,251.0762,436.1143,255.0762,426.1143,259.0762,430.1143,255.0762" style="stroke:#181818;stroke-width:1.0;"/><line style="stroke:#181818;stroke-width:1.0;" x1="249.6245" x2="432.1143" y1="255.0762" y2="255.0762"/><text fill="#000000" font-family="sans-serif" font-size="13" font-weight="bold" lengthAdjust="spacing" textLength="7.23" x="256.6245" y="249.8135">5</text><text fill="#000000" font-family="sans-serif" font-size="13" lengthAdjust="spacing" textLength="54.9072" x="267.8545" y="249.8135">add(item)</text><polygon fill="#181818" points="260.6245,282.3672,250.6245,286.3672,260.6245,290.3672,256.6245,286.3672" style="stroke:#181818;stroke-width:1.0;"/><line style="stroke:#181818;stroke-width:1.0;" x1="254.6245" x2="442.1143" y1="286.3672" y2="286.3672"/><text fill="#000000" font-family="sans-serif" font-size="13" font-weight="bold" lengthAdjust="spacing" textLength="7.23" x="266.6245" y="281.1045">6</text><text fill="#000000" font-family="sans-serif" font-size="13" lengthAdjust="spacing" textLength="55.6182" x="277.8545" y="281.1045">(success)</text><polygon fill="#181818" points="36.8965,313.6582,26.8965,317.6582,36.8965,321.6582,32.8965,317.6582" style="stroke:#181818;stroke-width:1.0;"/><line style="stroke:#181818;stroke-width:1.0;" x1="30.8965" x2="243.6245" y1="317.6582" y2="317.6582"/><text fill="#000000" font-family="sans-serif" font-size="13" font-weight="bold" lengthAdjust="spacing" textLength="7.23" x="42.8965" y="312.3955">7</text><text fill="#000000" font-family="sans-serif" font-size="13" lengthAdjust="spacing" textLength="123.5508" x="54.1265" y="312.3955">item added (success)</text><polygon fill="#181818" points="227.6245,344.9492,237.6245,348.9492,227.6245,352.9492,231.6245,348.9492" style="stroke:#181818;stroke-width:1.0;"/><line style="stroke:#181818;stroke-width:1.0;" x1="25.8965" x2="233.6245" y1="348.9492" y2="348.9492"/><text fill="#000000" font-family="sans-serif" font-size="13" font-weight="bold" lengthAdjust="spacing" textLength="7.23" x="32.8965" y="343.6865">8</text><text fill="#000000" font-family="sans-serif" font-size="13" lengthAdjust="spacing" textLength="104.019" x="44.1265" y="343.6865">remove(item, key)</text><polygon fill="#181818" points="426.1143,376.2402,436.1143,380.2402,426.1143,384.2402,430.1143,380.2402" style="stroke:#181818;stroke-width:1.0;"/><line style="stroke:#181818;stroke-width:1.0;" x1="249.6245" x2="432.1143" y1="380.2402" y2="380.2402"/><text fill="#000000" font-family="sans-serif" font-size="13" font-weight="bold" lengthAdjust="spacing" textLength="7.23" x="256.6245" y="374.9775">9</text><text fill="#000000" font-family="sans-serif" font-size="13" lengthAdjust="spacing" textLength="46.96" x="267.8545" y="374.9775">get(key)</text><polygon fill="#181818" points="541.4351,407.5313,551.4351,411.5313,541.4351,415.5313,545.4351,411.5313" style="stroke:#181818;stroke-width:1.0;"/><line style="stroke:#181818;stroke-width:1.0;" x1="448.1143" x2="547.4351" y1="411.5313" y2="411.5313"/><text fill="#000000" font-family="sans-serif" font-size="13" font-weight="bold" lengthAdjust="spacing" textLength="14.46" x="455.1143" y="406.2686">10</text><text fill="#000000" font-family="sans-serif" font-size="13" lengthAdjust="spacing" textLength="37.5718" x="473.5742" y="406.2686">getId()</text><polygon fill="#181818" points="459.1143,438.8223,449.1143,442.8223,459.1143,446.8223,455.1143,442.8223" style="stroke:#181818;stroke-width:1.0;"/><line style="stroke:#181818;stroke-width:1.0;stroke-dasharray:2.0,2.0;" x1="453.1143" x2="557.4351" y1="442.8223" y2="442.8223"/><text fill="#000000" font-family="sans-serif" font-size="13" font-weight="bold" lengthAdjust="spacing" textLength="14.46" x="465.1143" y="437.5596">11</text><text fill="#000000" font-family="sans-serif" font-size="13" lengthAdjust="spacing" textLength="62.8608" x="483.5742" y="437.5596">id matches</text><polygon fill="#181818" points="260.6245,470.1133,250.6245,474.1133,260.6245,478.1133,256.6245,474.1133" style="stroke:#181818;stroke-width:1.0;"/><line style="stroke:#181818;stroke-width:1.0;" x1="254.6245" x2="442.1143" y1="474.1133" y2="474.1133"/><text fill="#000000" font-family="sans-serif" font-size="13" font-weight="bold" lengthAdjust="spacing" textLength="14.46" x="266.6245" y="468.8506">12</text><text fill="#000000" font-family="sans-serif" font-size="13" lengthAdjust="spacing" textLength="76.5654" x="285.0845" y="468.8506">remove(item)</text><polygon fill="#181818" points="36.8965,501.4043,26.8965,505.4043,36.8965,509.4043,32.8965,505.4043" style="stroke:#181818;stroke-width:1.0;"/><line style="stroke:#181818;stroke-width:1.0;" x1="30.8965" x2="243.6245" y1="505.4043" y2="505.4043"/><text fill="#000000" font-family="sans-serif" font-size="13" font-weight="bold" lengthAdjust="spacing" textLength="14.46" x="42.8965" y="500.1416">13</text><text fill="#000000" font-family="sans-serif" font-size="13" lengthAdjust="spacing" textLength="137.979" x="61.3564" y="500.1416">item removed (success)</text><polygon fill="#181818" points="227.6245,532.6953,237.6245,536.6953,227.6245,540.6953,231.6245,536.6953" style="stroke:#181818;stroke-width:1.0;"/><line style="stroke:#181818;stroke-width:1.0;" x1="25.8965" x2="233.6245" y1="536.6953" y2="536.6953"/><text fill="#000000" font-family="sans-serif" font-size="13" font-weight="bold" lengthAdjust="spacing" textLength="14.46" x="32.8965" y="531.4326">14</text><text fill="#000000" font-family="sans-serif" font-size="13" lengthAdjust="spacing" textLength="176.2681" x="51.3564" y="531.4326">markItemAsCompleted(itemId)</text><line style="stroke:#181818;stroke-width:1.0;" x1="249.6245" x2="296.6245" y1="562.9863" y2="562.9863"/><line style="stroke:#181818;stroke-width:1.0;" x1="296.6245" x2="296.6245" y1="562.9863" y2="575.9863"/><line style="stroke:#181818;stroke-width:1.0;" x1="255.6245" x2="296.6245" y1="575.9863" y2="575.9863"/><polygon fill="#181818" points="265.6245,571.9863,255.6245,575.9863,265.6245,579.9863,261.6245,575.9863" style="stroke:#181818;stroke-width:1.0;"/><text fill="#000000" font-family="sans-serif" font-size="13" font-weight="bold" lengthAdjust="spacing" textLength="14.46" x="261.6245" y="557.7236">15</text><text fill="#000000" font-family="sans-serif" font-size="13" lengthAdjust="spacing" textLength="109.0908" x="280.0845" y="557.7236">searchById(itemId)</text><polygon fill="#181818" points="426.1143,608.2773,436.1143,612.2773,426.1143,616.2773,430.1143,612.2773" style="stroke:#181818;stroke-width:1.0;"/><line style="stroke:#181818;stroke-width:1.0;" x1="249.6245" x2="432.1143" y1="612.2773" y2="612.2773"/><text fill="#000000" font-family="sans-serif" font-size="13" font-weight="bold" lengthAdjust="spacing" textLength="14.46" x="256.6245" y="607.0146">16</text><text fill="#000000" font-family="sans-serif" font-size="13" lengthAdjust="spacing" textLength="126.4517" x="275.0845" y="607.0146">iterate through all lists</text><polygon fill="#181818" points="541.4351,639.5684,551.4351,643.5684,541.4351,647.5684,545.4351,643.5684" style="stroke:#181818;stroke-width:1.0;"/><line style="stroke:#181818;stroke-width:1.0;" x1="448.1143" x2="547.4351" y1="643.5684" y2="643.5684"/><text fill="#000000" font-family="sans-serif" font-size="13" font-weight="bold" lengthAdjust="spacing" textLength="14.46" x="455.1143" y="638.3057">17</text><text fill="#000000" font-family="sans-serif" font-size="13" lengthAdjust="spacing" textLength="37.5718" x="473.5742" y="638.3057">getId()</text><polygon fill="#181818" points="459.1143,670.8594,449.1143,674.8594,459.1143,678.8594,455.1143,674.8594" style="stroke:#181818;stroke-width:1.0;"/><line style="stroke:#181818;stroke-width:1.0;stroke-dasharray:2.0,2.0;" x1="453.1143" x2="552.4351" y1="674.8594" y2="674.8594"/><text fill="#000000" font-family="sans-serif" font-size="13" font-weight="bold" lengthAdjust="spacing" textLength="14.46" x="465.1143" y="669.5967">18</text><text fill="#000000" font-family="sans-serif" font-size="13" lengthAdjust="spacing" textLength="62.8608" x="483.5742" y="669.5967">id matches</text><line style="stroke:#181818;stroke-width:1.0;" x1="563.4351" x2="605.4351" y1="706.1504" y2="706.1504"/><line style="stroke:#181818;stroke-width:1.0;" x1="605.4351" x2="605.4351" y1="706.1504" y2="719.1504"/><line style="stroke:#181818;stroke-width:1.0;" x1="564.4351" x2="605.4351" y1="719.1504" y2="719.1504"/><polygon fill="#181818" points="574.4351,715.1504,564.4351,719.1504,574.4351,723.1504,570.4351,719.1504" style="stroke:#181818;stroke-width:1.0;"/><text fill="#000000" font-family="sans-serif" font-size="13" font-weight="bold" lengthAdjust="spacing" textLength="14.46" x="570.4351" y="700.8877">19</text><text fill="#000000" font-family="sans-serif" font-size="13" lengthAdjust="spacing" textLength="85.979" x="588.895" y="700.8877">setReady(true)</text><line style="stroke:#181818;stroke-width:1.0;" x1="563.4351" x2="605.4351" y1="750.4414" y2="750.4414"/><line style="stroke:#181818;stroke-width:1.0;" x1="605.4351" x2="605.4351" y1="750.4414" y2="763.4414"/><line style="stroke:#181818;stroke-width:1.0;" x1="564.4351" x2="605.4351" y1="763.4414" y2="763.4414"/><polygon fill="#181818" points="574.4351,759.4414,564.4351,763.4414,574.4351,767.4414,570.4351,763.4414" style="stroke:#181818;stroke-width:1.0;"/><text fill="#000000" font-family="sans-serif" font-size="13" font-weight="bold" lengthAdjust="spacing" textLength="14.46" x="570.4351" y="745.1787">20</text><text fill="#000000" font-family="sans-serif" font-size="13" lengthAdjust="spacing" textLength="213.8716" x="588.895" y="745.1787">setCompletionDate(LocalDate.now())</text><polygon fill="#181818" points="459.1143,790.7324,449.1143,794.7324,459.1143,798.7324,455.1143,794.7324" style="stroke:#181818;stroke-width:1.0;"/><line style="stroke:#181818;stroke-width:1.0;" x1="453.1143" x2="557.4351" y1="794.7324" y2="794.7324"/><text fill="#000000" font-family="sans-serif" font-size="13" font-weight="bold" lengthAdjust="spacing" textLength="14.46" x="465.1143" y="789.4697">21</text><text fill="#000000" font-family="sans-serif" font-size="13" lengthAdjust="spacing" textLength="55.6182" x="483.5742" y="789.4697">(success)</text><polygon fill="#181818" points="260.6245,822.0234,250.6245,826.0234,260.6245,830.0234,256.6245,826.0234" style="stroke:#181818;stroke-width:1.0;"/><line style="stroke:#181818;stroke-width:1.0;" x1="254.6245" x2="442.1143" y1="826.0234" y2="826.0234"/><text fill="#000000" font-family="sans-serif" font-size="13" font-weight="bold" lengthAdjust="spacing" textLength="14.46" x="266.6245" y="820.7607">22</text><text fill="#000000" font-family="sans-serif" font-size="13" lengthAdjust="spacing" textLength="55.6182" x="285.0845" y="820.7607">(success)</text><polygon fill="#181818" points="36.8965,853.3145,26.8965,857.3145,36.8965,861.3145,32.8965,857.3145" style="stroke:#181818;stroke-width:1.0;"/><line style="stroke:#181818;stroke-width:1.0;" x1="30.8965" x2="243.6245" y1="857.3145" y2="857.3145"/><text fill="#000000" font-family="sans-serif" font-size="13" font-weight="bold" lengthAdjust="spacing" textLength="14.46" x="42.8965" y="852.0518">23</text><text fill="#000000" font-family="sans-serif" font-size="13" lengthAdjust="spacing" textLength="152.4517" x="61.3564" y="852.0518">item marked as completed</text><!--SRC=[jLJBQkim4DtxAuQiP4Zw0Q4K-jWOqiMzDpymbQQsi1v6aXlozrUosjWEJaeAtPXXvfmvyx9yAqs73ZLeQonldDK4mVLK-5EaGzvYJV_2KH4uuW5DhQO0tw2m1sbgU4VbgIYm3zRq-erSj7cm3bRFIf89Aq0FsImYDqWkEpG1Lg_OxQHfITplr_1d3TNBmu0z-UVmxDj97-xt6PZiAf3sS-0UMFAM0oPPHP7bOVCm9eSj63gaC9FniuQMZcMgN7vWe4aHnKWvutEhkpvGzVxuvcDwDcIOeKyLHdHD0U9KkAEKVzRDA3ksD58tPx9pgg05ykKgK8YXt_8RpRaayptdv7svB3TJ-vpr5f9CqelkHVvanClxSQJj1zsqdhE1ipdhGgV9oFXAi0aytyuGtPpbbW8q1jwGdtOq42uESTBExNFCv9zEKgDhayIZVuutgoXGle9At7Zodj3nvkbONULVN4dak0GDyT7fwmPGAL0nxfUx-Tt5vVWfYwVmbr0SMNeAouNev-YaDIzHXEqiHvMiEsCFh1mPKxd5TLq_as_-jMj7ajOS_V7PurzhNXpiVm00]--></g></svg>