<svg xmlns="http://www.w3.org/2000/svg" xmlns:xlink="http://www.w3.org/1999/xlink" contentStyleType="text/css" height="639.2px" preserveAspectRatio="none" style="width:1543px;height:639px;background:#FFFFFF;" version="1.1" viewBox="0 0 1543 639" width="1543.2px" zoomAndPan="magnify"><defs/><g><!--class Simulator--><g id="elem_Simulator"><rect codeLine="5" fill="#F1F1F1" height="321.4406" id="Simulator" rx="2" ry="2" style="stroke:#181818;stroke-width:0.4000000000000001;" width="338.9391" x="729.6" y="5.6"/><ellipse cx="872.0172" cy="18.4" fill="#ADD1B2" rx="8.8" ry="8.8" style="stroke:#181818;stroke-width:0.8000000000000002;"/><path d="M874.2297,15.1 Q874.3547,14.925 874.5047,14.8375 Q874.6547,14.75 874.8297,14.75 Q875.1297,14.75 875.3172,14.9625 Q875.5047,15.1625 875.5047,15.65 L875.5047,16.8125 Q875.5047,17.3 875.3172,17.5125 Q875.1297,17.725 874.8297,17.725 Q874.5547,17.725 874.3922,17.5625 Q874.2297,17.4125 874.1422,17 Q874.1047,16.7125 873.9547,16.5625 Q873.6922,16.2625 873.2047,16.0875 Q872.7172,15.9125 872.2172,15.9125 Q871.6047,15.9125 871.0922,16.175 Q870.5922,16.4375 870.1922,17.0375 Q869.8047,17.6375 869.8047,18.4625 L869.8047,19.3375 Q869.8047,20.325 870.5172,20.9875 Q871.2297,21.6375 872.5047,21.6375 Q873.2547,21.6375 873.7797,21.4375 Q874.0922,21.3125 874.4297,20.9625 Q874.6422,20.75 874.7547,20.6875 Q874.8797,20.625 875.0422,20.625 Q875.3047,20.625 875.5047,20.8375 Q875.7172,21.0375 875.7172,21.3125 Q875.7172,21.5875 875.4422,21.9125 Q875.0422,22.375 874.4047,22.6375 Q873.5422,23 872.5047,23 Q871.2922,23 870.3297,22.5 Q869.5422,22.1 868.9922,21.25 Q868.4422,20.3875 868.4422,19.3625 L868.4422,18.4375 Q868.4422,17.375 868.9297,16.4625 Q869.4297,15.5375 870.3047,15.05 Q871.1797,14.55 872.1672,14.55 Q872.7547,14.55 873.2672,14.6875 Q873.7922,14.8125 874.2297,15.1 Z " fill="#000000"/><text fill="#000000" font-family="sans-serif" font-size="11.2" lengthAdjust="spacing" textLength="47.3047" x="888.4172" y="23.0375">Simulator</text><line style="stroke:#181818;stroke-width:0.4000000000000001;" x1="730.4" x2="1067.7391" y1="31.2" y2="31.2"/><rect fill="none" height="4.8" style="stroke:#C82930;stroke-width:0.8000000000000002;" width="4.8" x="736" y="40.6484"/><text fill="#000000" font-family="sans-serif" font-size="11.2" lengthAdjust="spacing" textLength="292.6273" x="745.6" y="46.4859">operationQueues : MapLinked&lt;Operation, Product, String&gt;</text><rect fill="none" height="4.8" style="stroke:#C82930;stroke-width:0.8000000000000002;" width="4.8" x="736" y="55.5453"/><text fill="#000000" font-family="sans-serif" font-size="11.2" lengthAdjust="spacing" textLength="121.4008" x="745.6" y="61.3828">products : List&lt;Product&gt;</text><rect fill="none" height="4.8" style="stroke:#C82930;stroke-width:0.8000000000000002;" width="4.8" x="736" y="70.4422"/><text fill="#000000" font-family="sans-serif" font-size="11.2" lengthAdjust="spacing" textLength="148.7664" x="745.6" y="76.2797">w : WorkstationsPerOperation</text><rect fill="none" height="4.8" style="stroke:#C82930;stroke-width:0.8000000000000002;" width="4.8" x="736" y="85.3391"/><text fill="#000000" font-family="sans-serif" font-size="11.2" lengthAdjust="spacing" textLength="110.1844" x="745.6" y="91.1766">p : ProductPriorityLine</text><rect fill="none" height="4.8" style="stroke:#C82930;stroke-width:0.8000000000000002;" width="4.8" x="736" y="100.2359"/><text fill="#000000" font-family="sans-serif" font-size="11.2" lengthAdjust="spacing" textLength="248.3906" x="745.6" y="106.0734">productMachineFlows : Map&lt;String, List&lt;String&gt;&gt;</text><rect fill="none" height="4.8" style="stroke:#C82930;stroke-width:0.8000000000000002;" width="4.8" x="736" y="115.1328"/><text fill="#000000" font-family="sans-serif" font-size="11.2" lengthAdjust="spacing" textLength="142.5703" x="745.6" y="120.9703">totalProductionTime : double</text><rect fill="none" height="4.8" style="stroke:#C82930;stroke-width:0.8000000000000002;" width="4.8" x="736" y="130.0297"/><text fill="#000000" font-family="sans-serif" font-size="11.2" lengthAdjust="spacing" textLength="183.0227" x="745.6" y="135.8672">productTimes : Map&lt;String, Double&gt;</text><line style="stroke:#181818;stroke-width:0.4000000000000001;" x1="730.4" x2="1067.7391" y1="141.8781" y2="141.8781"/><ellipse cx="738.4" cy="153.7266" fill="#84BE84" rx="2.4" ry="2.4" style="stroke:#038048;stroke-width:0.8000000000000002;"/><text fill="#000000" font-family="sans-serif" font-size="11.2" lengthAdjust="spacing" textLength="126.3445" x="745.6" y="157.1641">runWithoutPriority() : void</text><ellipse cx="738.4" cy="168.6234" fill="#84BE84" rx="2.4" ry="2.4" style="stroke:#038048;stroke-width:0.8000000000000002;"/><text fill="#000000" font-family="sans-serif" font-size="11.2" lengthAdjust="spacing" textLength="110.775" x="745.6" y="172.0609">runWithPriority() : void</text><ellipse cx="738.4" cy="183.5203" fill="#84BE84" rx="2.4" ry="2.4" style="stroke:#038048;stroke-width:0.8000000000000002;"/><text fill="#000000" font-family="sans-serif" font-size="11.2" lengthAdjust="spacing" textLength="278.2828" x="745.6" y="186.9578">createOperationQueues(products : List&lt;Product&gt;) : void</text><ellipse cx="738.4" cy="198.4172" fill="#84BE84" rx="2.4" ry="2.4" style="stroke:#038048;stroke-width:0.8000000000000002;"/><text fill="#000000" font-family="sans-serif" font-size="11.2" lengthAdjust="spacing" textLength="103.9391" x="745.6" y="201.8547">processItems() : void</text><ellipse cx="738.4" cy="213.3141" fill="#84BE84" rx="2.4" ry="2.4" style="stroke:#038048;stroke-width:0.8000000000000002;"/><text fill="#000000" font-family="sans-serif" font-size="11.2" lengthAdjust="spacing" textLength="162.4602" x="745.6" y="216.7516">printTotalProductionTime() : void</text><ellipse cx="738.4" cy="228.2109" fill="#84BE84" rx="2.4" ry="2.4" style="stroke:#038048;stroke-width:0.8000000000000002;"/><text fill="#000000" font-family="sans-serif" font-size="11.2" lengthAdjust="spacing" textLength="193.5883" x="745.6" y="231.6484">printProductionTimePerProduct() : void</text><ellipse cx="738.4" cy="243.1078" fill="#84BE84" rx="2.4" ry="2.4" style="stroke:#038048;stroke-width:0.8000000000000002;"/><text fill="#000000" font-family="sans-serif" font-size="11.2" lengthAdjust="spacing" textLength="173.0695" x="745.6" y="246.5453">printMachineDependencies() : void</text><ellipse cx="738.4" cy="258.0047" fill="#84BE84" rx="2.4" ry="2.4" style="stroke:#038048;stroke-width:0.8000000000000002;"/><text fill="#000000" font-family="sans-serif" font-size="11.2" lengthAdjust="spacing" textLength="100.8328" x="745.6" y="261.4422">printAnalysis() : void</text><ellipse cx="738.4" cy="272.9016" fill="#84BE84" rx="2.4" ry="2.4" style="stroke:#038048;stroke-width:0.8000000000000002;"/><text fill="#000000" font-family="sans-serif" font-size="11.2" lengthAdjust="spacing" textLength="318.1391" x="745.6" y="276.3391">getOperationQueues() : MapLinked&lt;Operation, Product, String&gt;</text><ellipse cx="738.4" cy="287.7984" fill="#84BE84" rx="2.4" ry="2.4" style="stroke:#038048;stroke-width:0.8000000000000002;"/><text fill="#000000" font-family="sans-serif" font-size="11.2" lengthAdjust="spacing" textLength="145.6711" x="745.6" y="291.2359">getProducts() : List&lt;Product&gt;</text><ellipse cx="738.4" cy="302.6953" fill="#84BE84" rx="2.4" ry="2.4" style="stroke:#038048;stroke-width:0.8000000000000002;"/><text fill="#000000" font-family="sans-serif" font-size="11.2" lengthAdjust="spacing" textLength="232.8266" x="745.6" y="306.1328">getProductionTimePerProduct() : List&lt;Double&gt;</text><ellipse cx="738.4" cy="317.5922" fill="#84BE84" rx="2.4" ry="2.4" style="stroke:#038048;stroke-width:0.8000000000000002;"/><text fill="#000000" font-family="sans-serif" font-size="11.2" lengthAdjust="spacing" textLength="169.3289" x="745.6" y="321.0297">getTotalProductionTime() : double</text></g><!--class MapLinked--><g id="elem_MapLinked"><rect codeLine="27" fill="#F1F1F1" height="83.0906" id="MapLinked" rx="2" ry="2" style="stroke:#181818;stroke-width:0.4000000000000001;" width="190.7523" x="5.6" y="375.2"/><ellipse cx="53.6414" cy="388" fill="#ADD1B2" rx="8.8" ry="8.8" style="stroke:#181818;stroke-width:0.8000000000000002;"/><path d="M55.8539,384.7 Q55.9789,384.525 56.1289,384.4375 Q56.2789,384.35 56.4539,384.35 Q56.7539,384.35 56.9414,384.5625 Q57.1289,384.7625 57.1289,385.25 L57.1289,386.4125 Q57.1289,386.9 56.9414,387.1125 Q56.7539,387.325 56.4539,387.325 Q56.1789,387.325 56.0164,387.1625 Q55.8539,387.0125 55.7664,386.6 Q55.7289,386.3125 55.5789,386.1625 Q55.3164,385.8625 54.8289,385.6875 Q54.3414,385.5125 53.8414,385.5125 Q53.2289,385.5125 52.7164,385.775 Q52.2164,386.0375 51.8164,386.6375 Q51.4289,387.2375 51.4289,388.0625 L51.4289,388.9375 Q51.4289,389.925 52.1414,390.5875 Q52.8539,391.2375 54.1289,391.2375 Q54.8789,391.2375 55.4039,391.0375 Q55.7164,390.9125 56.0539,390.5625 Q56.2664,390.35 56.3789,390.2875 Q56.5039,390.225 56.6664,390.225 Q56.9289,390.225 57.1289,390.4375 Q57.3414,390.6375 57.3414,390.9125 Q57.3414,391.1875 57.0664,391.5125 Q56.6664,391.975 56.0289,392.2375 Q55.1664,392.6 54.1289,392.6 Q52.9164,392.6 51.9539,392.1 Q51.1664,391.7 50.6164,390.85 Q50.0664,389.9875 50.0664,388.9625 L50.0664,388.0375 Q50.0664,386.975 50.5539,386.0625 Q51.0539,385.1375 51.9289,384.65 Q52.8039,384.15 53.7914,384.15 Q54.3789,384.15 54.8914,384.2875 Q55.4164,384.4125 55.8539,384.7 Z " fill="#000000"/><text fill="#000000" font-family="sans-serif" font-size="11.2" lengthAdjust="spacing" textLength="54.7914" x="70.0414" y="392.6375">MapLinked</text><rect fill="#FFFFFF" height="14.3688" style="stroke:#181818;stroke-width:0.8000000000000002;stroke-dasharray:2.0,2.0;" width="31.4781" x="167.2742" y="372.8"/><text fill="#000000" font-family="sans-serif" font-size="9.6" font-style="italic" lengthAdjust="spacing" textLength="29.8781" x="168.0742" y="383.9594">K, V, S</text><line style="stroke:#181818;stroke-width:0.4000000000000001;" x1="6.4" x2="195.5523" y1="400.8" y2="400.8"/><line style="stroke:#181818;stroke-width:0.4000000000000001;" x1="6.4" x2="195.5523" y1="407.2" y2="407.2"/><ellipse cx="14.4" cy="419.0484" fill="#84BE84" rx="2.4" ry="2.4" style="stroke:#038048;stroke-width:0.8000000000000002;"/><text fill="#000000" font-family="sans-serif" font-size="11.2" lengthAdjust="spacing" textLength="163.707" x="21.6" y="422.4859">newItem(key : K, value : V) : void</text><ellipse cx="14.4" cy="433.9453" fill="#84BE84" rx="2.4" ry="2.4" style="stroke:#038048;stroke-width:0.8000000000000002;"/><text fill="#000000" font-family="sans-serif" font-size="11.2" lengthAdjust="spacing" textLength="87.1336" x="21.6" y="437.3828">removeAll() : void</text><ellipse cx="14.4" cy="448.8422" fill="#84BE84" rx="2.4" ry="2.4" style="stroke:#038048;stroke-width:0.8000000000000002;"/><text fill="#000000" font-family="sans-serif" font-size="11.2" lengthAdjust="spacing" textLength="169.9523" x="21.6" y="452.2797">getByKey(key : K) : LinkedList&lt;V&gt;</text></g><!--class WorkstationsPerOperation--><g id="elem_WorkstationsPerOperation"><rect codeLine="33" fill="#F1F1F1" height="68.1938" id="WorkstationsPerOperation" rx="2" ry="2" style="stroke:#181818;stroke-width:0.4000000000000001;" width="350.7352" x="224" y="382.8"/><ellipse cx="330.2961" cy="395.6" fill="#ADD1B2" rx="8.8" ry="8.8" style="stroke:#181818;stroke-width:0.8000000000000002;"/><path d="M332.5086,392.3 Q332.6336,392.125 332.7836,392.0375 Q332.9336,391.95 333.1086,391.95 Q333.4086,391.95 333.5961,392.1625 Q333.7836,392.3625 333.7836,392.85 L333.7836,394.0125 Q333.7836,394.5 333.5961,394.7125 Q333.4086,394.925 333.1086,394.925 Q332.8336,394.925 332.6711,394.7625 Q332.5086,394.6125 332.4211,394.2 Q332.3836,393.9125 332.2336,393.7625 Q331.9711,393.4625 331.4836,393.2875 Q330.9961,393.1125 330.4961,393.1125 Q329.8836,393.1125 329.3711,393.375 Q328.8711,393.6375 328.4711,394.2375 Q328.0836,394.8375 328.0836,395.6625 L328.0836,396.5375 Q328.0836,397.525 328.7961,398.1875 Q329.5086,398.8375 330.7836,398.8375 Q331.5336,398.8375 332.0586,398.6375 Q332.3711,398.5125 332.7086,398.1625 Q332.9211,397.95 333.0336,397.8875 Q333.1586,397.825 333.3211,397.825 Q333.5836,397.825 333.7836,398.0375 Q333.9961,398.2375 333.9961,398.5125 Q333.9961,398.7875 333.7211,399.1125 Q333.3211,399.575 332.6836,399.8375 Q331.8211,400.2 330.7836,400.2 Q329.5711,400.2 328.6086,399.7 Q327.8211,399.3 327.2711,398.45 Q326.7211,397.5875 326.7211,396.5625 L326.7211,395.6375 Q326.7211,394.575 327.2086,393.6625 Q327.7086,392.7375 328.5836,392.25 Q329.4586,391.75 330.4461,391.75 Q331.0336,391.75 331.5461,391.8875 Q332.0711,392.0125 332.5086,392.3 Z " fill="#000000"/><text fill="#000000" font-family="sans-serif" font-size="11.2" lengthAdjust="spacing" textLength="131.343" x="346.6961" y="400.2375">WorkstationsPerOperation</text><line style="stroke:#181818;stroke-width:0.4000000000000001;" x1="224.8" x2="573.9352" y1="408.4" y2="408.4"/><line style="stroke:#181818;stroke-width:0.4000000000000001;" x1="224.8" x2="573.9352" y1="414.8" y2="414.8"/><ellipse cx="232.8" cy="426.6484" fill="#84BE84" rx="2.4" ry="2.4" style="stroke:#038048;stroke-width:0.8000000000000002;"/><text fill="#000000" font-family="sans-serif" font-size="11.2" lengthAdjust="spacing" textLength="329.9352" x="240" y="430.0859">findBestMachineForOperation(operation : Operation) : Workstation</text><ellipse cx="232.8" cy="441.5453" fill="#84BE84" rx="2.4" ry="2.4" style="stroke:#038048;stroke-width:0.8000000000000002;"/><text fill="#000000" font-family="sans-serif" font-size="11.2" lengthAdjust="spacing" textLength="309.3891" x="240" y="444.9828">getWorkstationsAscendingByPercentage() : List&lt;Workstation&gt;</text></g><!--class ProductPriorityLine--><g id="elem_ProductPriorityLine"><rect codeLine="38" fill="#F1F1F1" height="68.1938" id="ProductPriorityLine" rx="2" ry="2" style="stroke:#181818;stroke-width:0.4000000000000001;" width="320.8047" x="1217.2" y="382.8"/><ellipse cx="1326.8922" cy="395.6" fill="#ADD1B2" rx="8.8" ry="8.8" style="stroke:#181818;stroke-width:0.8000000000000002;"/><path d="M1329.1047,392.3 Q1329.2297,392.125 1329.3797,392.0375 Q1329.5297,391.95 1329.7047,391.95 Q1330.0047,391.95 1330.1922,392.1625 Q1330.3797,392.3625 1330.3797,392.85 L1330.3797,394.0125 Q1330.3797,394.5 1330.1922,394.7125 Q1330.0047,394.925 1329.7047,394.925 Q1329.4297,394.925 1329.2672,394.7625 Q1329.1047,394.6125 1329.0172,394.2 Q1328.9797,393.9125 1328.8297,393.7625 Q1328.5672,393.4625 1328.0797,393.2875 Q1327.5922,393.1125 1327.0922,393.1125 Q1326.4797,393.1125 1325.9672,393.375 Q1325.4672,393.6375 1325.0672,394.2375 Q1324.6797,394.8375 1324.6797,395.6625 L1324.6797,396.5375 Q1324.6797,397.525 1325.3922,398.1875 Q1326.1047,398.8375 1327.3797,398.8375 Q1328.1297,398.8375 1328.6547,398.6375 Q1328.9672,398.5125 1329.3047,398.1625 Q1329.5172,397.95 1329.6297,397.8875 Q1329.7547,397.825 1329.9172,397.825 Q1330.1797,397.825 1330.3797,398.0375 Q1330.5922,398.2375 1330.5922,398.5125 Q1330.5922,398.7875 1330.3172,399.1125 Q1329.9172,399.575 1329.2797,399.8375 Q1328.4172,400.2 1327.3797,400.2 Q1326.1672,400.2 1325.2047,399.7 Q1324.4172,399.3 1323.8672,398.45 Q1323.3172,397.5875 1323.3172,396.5625 L1323.3172,395.6375 Q1323.3172,394.575 1323.8047,393.6625 Q1324.3047,392.7375 1325.1797,392.25 Q1326.0547,391.75 1327.0422,391.75 Q1327.6297,391.75 1328.1422,391.8875 Q1328.6672,392.0125 1329.1047,392.3 Z " fill="#000000"/><text fill="#000000" font-family="sans-serif" font-size="11.2" lengthAdjust="spacing" textLength="94.6203" x="1343.2922" y="400.2375">ProductPriorityLine</text><line style="stroke:#181818;stroke-width:0.4000000000000001;" x1="1218" x2="1537.2047" y1="408.4" y2="408.4"/><line style="stroke:#181818;stroke-width:0.4000000000000001;" x1="1218" x2="1537.2047" y1="414.8" y2="414.8"/><ellipse cx="1226" cy="426.6484" fill="#84BE84" rx="2.4" ry="2.4" style="stroke:#038048;stroke-width:0.8000000000000002;"/><text fill="#000000" font-family="sans-serif" font-size="11.2" lengthAdjust="spacing" textLength="158.118" x="1233.2" y="430.0859">getAllProducts() : List&lt;Product&gt;</text><ellipse cx="1226" cy="441.5453" fill="#84BE84" rx="2.4" ry="2.4" style="stroke:#038048;stroke-width:0.8000000000000002;"/><text fill="#000000" font-family="sans-serif" font-size="11.2" lengthAdjust="spacing" textLength="300.0047" x="1233.2" y="444.9828">getProductsByPriority(priority : PriorityOrder) : List&lt;Product&gt;</text></g><!--class MachineFlowAnalyzer--><g id="elem_MachineFlowAnalyzer"><rect codeLine="43" fill="#F1F1F1" height="68.1938" id="MachineFlowAnalyzer" rx="2" ry="2" style="stroke:#181818;stroke-width:0.4000000000000001;" width="351.9875" x="723.2" y="382.8"/><ellipse cx="841.016" cy="395.6" fill="#ADD1B2" rx="8.8" ry="8.8" style="stroke:#181818;stroke-width:0.8000000000000002;"/><path d="M843.2285,392.3 Q843.3535,392.125 843.5035,392.0375 Q843.6535,391.95 843.8285,391.95 Q844.1285,391.95 844.316,392.1625 Q844.5035,392.3625 844.5035,392.85 L844.5035,394.0125 Q844.5035,394.5 844.316,394.7125 Q844.1285,394.925 843.8285,394.925 Q843.5535,394.925 843.391,394.7625 Q843.2285,394.6125 843.141,394.2 Q843.1035,393.9125 842.9535,393.7625 Q842.691,393.4625 842.2035,393.2875 Q841.716,393.1125 841.216,393.1125 Q840.6035,393.1125 840.091,393.375 Q839.591,393.6375 839.191,394.2375 Q838.8035,394.8375 838.8035,395.6625 L838.8035,396.5375 Q838.8035,397.525 839.516,398.1875 Q840.2285,398.8375 841.5035,398.8375 Q842.2535,398.8375 842.7785,398.6375 Q843.091,398.5125 843.4285,398.1625 Q843.641,397.95 843.7535,397.8875 Q843.8785,397.825 844.041,397.825 Q844.3035,397.825 844.5035,398.0375 Q844.716,398.2375 844.716,398.5125 Q844.716,398.7875 844.441,399.1125 Q844.041,399.575 843.4035,399.8375 Q842.541,400.2 841.5035,400.2 Q840.291,400.2 839.3285,399.7 Q838.541,399.3 837.991,398.45 Q837.441,397.5875 837.441,396.5625 L837.441,395.6375 Q837.441,394.575 837.9285,393.6625 Q838.4285,392.7375 839.3035,392.25 Q840.1785,391.75 841.166,391.75 Q841.7535,391.75 842.266,391.8875 Q842.791,392.0125 843.2285,392.3 Z " fill="#000000"/><text fill="#000000" font-family="sans-serif" font-size="11.2" lengthAdjust="spacing" textLength="109.5555" x="857.416" y="400.2375">MachineFlowAnalyzer</text><line style="stroke:#181818;stroke-width:0.4000000000000001;" x1="724" x2="1074.3875" y1="408.4" y2="408.4"/><line style="stroke:#181818;stroke-width:0.4000000000000001;" x1="724" x2="1074.3875" y1="414.8" y2="414.8"/><ellipse cx="732" cy="426.6484" fill="#84BE84" rx="2.4" ry="2.4" style="stroke:#038048;stroke-width:0.8000000000000002;"/><text fill="#000000" font-family="sans-serif" font-size="11.2" lengthAdjust="spacing" textLength="331.1875" x="739.2" y="430.0859">static addDependency(machineA : String, machineB : String) : void</text><ellipse cx="732" cy="441.5453" fill="#84BE84" rx="2.4" ry="2.4" style="stroke:#038048;stroke-width:0.8000000000000002;"/><text fill="#000000" font-family="sans-serif" font-size="11.2" lengthAdjust="spacing" textLength="202.3219" x="739.2" y="444.9828">static printMachineDependencies() : void</text></g><!--class Product--><g id="elem_Product"><rect codeLine="48" fill="#F1F1F1" height="68.1938" id="Product" rx="2" ry="2" style="stroke:#181818;stroke-width:0.4000000000000001;" width="187.6461" x="1182" y="536.4"/><ellipse cx="1253.1238" cy="549.2" fill="#ADD1B2" rx="8.8" ry="8.8" style="stroke:#181818;stroke-width:0.8000000000000002;"/><path d="M1255.3363,545.9 Q1255.4613,545.725 1255.6113,545.6375 Q1255.7613,545.55 1255.9363,545.55 Q1256.2363,545.55 1256.4238,545.7625 Q1256.6113,545.9625 1256.6113,546.45 L1256.6113,547.6125 Q1256.6113,548.1 1256.4238,548.3125 Q1256.2363,548.525 1255.9363,548.525 Q1255.6613,548.525 1255.4988,548.3625 Q1255.3363,548.2125 1255.2488,547.8 Q1255.2113,547.5125 1255.0613,547.3625 Q1254.7988,547.0625 1254.3113,546.8875 Q1253.8238,546.7125 1253.3238,546.7125 Q1252.7113,546.7125 1252.1988,546.975 Q1251.6988,547.2375 1251.2988,547.8375 Q1250.9113,548.4375 1250.9113,549.2625 L1250.9113,550.1375 Q1250.9113,551.125 1251.6238,551.7875 Q1252.3363,552.4375 1253.6113,552.4375 Q1254.3613,552.4375 1254.8863,552.2375 Q1255.1988,552.1125 1255.5363,551.7625 Q1255.7488,551.55 1255.8613,551.4875 Q1255.9863,551.425 1256.1488,551.425 Q1256.4113,551.425 1256.6113,551.6375 Q1256.8238,551.8375 1256.8238,552.1125 Q1256.8238,552.3875 1256.5488,552.7125 Q1256.1488,553.175 1255.5113,553.4375 Q1254.6488,553.8 1253.6113,553.8 Q1252.3988,553.8 1251.4363,553.3 Q1250.6488,552.9 1250.0988,552.05 Q1249.5488,551.1875 1249.5488,550.1625 L1249.5488,549.2375 Q1249.5488,548.175 1250.0363,547.2625 Q1250.5363,546.3375 1251.4113,545.85 Q1252.2863,545.35 1253.2738,545.35 Q1253.8613,545.35 1254.3738,545.4875 Q1254.8988,545.6125 1255.3363,545.9 Z " fill="#000000"/><text fill="#000000" font-family="sans-serif" font-size="11.2" lengthAdjust="spacing" textLength="38.5984" x="1269.5238" y="553.8375">Product</text><line style="stroke:#181818;stroke-width:0.4000000000000001;" x1="1182.8" x2="1368.8461" y1="562" y2="562"/><line style="stroke:#181818;stroke-width:0.4000000000000001;" x1="1182.8" x2="1368.8461" y1="568.4" y2="568.4"/><ellipse cx="1190.8" cy="580.2484" fill="#84BE84" rx="2.4" ry="2.4" style="stroke:#038048;stroke-width:0.8000000000000002;"/><text fill="#000000" font-family="sans-serif" font-size="11.2" lengthAdjust="spacing" textLength="70.9625" x="1198" y="583.6859">getId() : String</text><ellipse cx="1190.8" cy="595.1453" fill="#84BE84" rx="2.4" ry="2.4" style="stroke:#038048;stroke-width:0.8000000000000002;"/><text fill="#000000" font-family="sans-serif" font-size="11.2" lengthAdjust="spacing" textLength="166.8461" x="1198" y="598.5828">getOperations() : List&lt;Operation&gt;</text></g><!--class Operation--><g id="elem_Operation"><rect codeLine="53" fill="#F1F1F1" height="53.2969" id="Operation" rx="2" ry="2" style="stroke:#181818;stroke-width:0.4000000000000001;" width="91.7625" x="602.8" y="390"/><ellipse cx="622.4395" cy="402.8" fill="#ADD1B2" rx="8.8" ry="8.8" style="stroke:#181818;stroke-width:0.8000000000000002;"/><path d="M624.652,399.5 Q624.777,399.325 624.927,399.2375 Q625.077,399.15 625.252,399.15 Q625.552,399.15 625.7395,399.3625 Q625.927,399.5625 625.927,400.05 L625.927,401.2125 Q625.927,401.7 625.7395,401.9125 Q625.552,402.125 625.252,402.125 Q624.977,402.125 624.8145,401.9625 Q624.652,401.8125 624.5645,401.4 Q624.527,401.1125 624.377,400.9625 Q624.1145,400.6625 623.627,400.4875 Q623.1395,400.3125 622.6395,400.3125 Q622.027,400.3125 621.5145,400.575 Q621.0145,400.8375 620.6145,401.4375 Q620.227,402.0375 620.227,402.8625 L620.227,403.7375 Q620.227,404.725 620.9395,405.3875 Q621.652,406.0375 622.927,406.0375 Q623.677,406.0375 624.202,405.8375 Q624.5145,405.7125 624.852,405.3625 Q625.0645,405.15 625.177,405.0875 Q625.302,405.025 625.4645,405.025 Q625.727,405.025 625.927,405.2375 Q626.1395,405.4375 626.1395,405.7125 Q626.1395,405.9875 625.8645,406.3125 Q625.4645,406.775 624.827,407.0375 Q623.9645,407.4 622.927,407.4 Q621.7145,407.4 620.752,406.9 Q619.9645,406.5 619.4145,405.65 Q618.8645,404.7875 618.8645,403.7625 L618.8645,402.8375 Q618.8645,401.775 619.352,400.8625 Q619.852,399.9375 620.727,399.45 Q621.602,398.95 622.5895,398.95 Q623.177,398.95 623.6895,399.0875 Q624.2145,399.2125 624.652,399.5 Z " fill="#000000"/><text fill="#000000" font-family="sans-serif" font-size="11.2" lengthAdjust="spacing" textLength="49.1859" x="635.3371" y="407.4375">Operation</text><line style="stroke:#181818;stroke-width:0.4000000000000001;" x1="603.6" x2="693.7625" y1="415.6" y2="415.6"/><line style="stroke:#181818;stroke-width:0.4000000000000001;" x1="603.6" x2="693.7625" y1="422" y2="422"/><ellipse cx="611.6" cy="433.8484" fill="#84BE84" rx="2.4" ry="2.4" style="stroke:#038048;stroke-width:0.8000000000000002;"/><text fill="#000000" font-family="sans-serif" font-size="11.2" lengthAdjust="spacing" textLength="70.9625" x="618.8" y="437.2859">getId() : String</text></g><!--class Workstation--><g id="elem_Workstation"><rect codeLine="57" fill="#F1F1F1" height="127.7813" id="Workstation" rx="2" ry="2" style="stroke:#181818;stroke-width:0.4000000000000001;" width="221.2461" x="538" y="506.4"/><ellipse cx="615.659" cy="519.2" fill="#ADD1B2" rx="8.8" ry="8.8" style="stroke:#181818;stroke-width:0.8000000000000002;"/><path d="M617.8715,515.9 Q617.9965,515.725 618.1465,515.6375 Q618.2965,515.55 618.4715,515.55 Q618.7715,515.55 618.959,515.7625 Q619.1465,515.9625 619.1465,516.45 L619.1465,517.6125 Q619.1465,518.1 618.959,518.3125 Q618.7715,518.525 618.4715,518.525 Q618.1965,518.525 618.034,518.3625 Q617.8715,518.2125 617.784,517.8 Q617.7465,517.5125 617.5965,517.3625 Q617.334,517.0625 616.8465,516.8875 Q616.359,516.7125 615.859,516.7125 Q615.2465,516.7125 614.734,516.975 Q614.234,517.2375 613.834,517.8375 Q613.4465,518.4375 613.4465,519.2625 L613.4465,520.1375 Q613.4465,521.125 614.159,521.7875 Q614.8715,522.4375 616.1465,522.4375 Q616.8965,522.4375 617.4215,522.2375 Q617.734,522.1125 618.0715,521.7625 Q618.284,521.55 618.3965,521.4875 Q618.5215,521.425 618.684,521.425 Q618.9465,521.425 619.1465,521.6375 Q619.359,521.8375 619.359,522.1125 Q619.359,522.3875 619.084,522.7125 Q618.684,523.175 618.0465,523.4375 Q617.184,523.8 616.1465,523.8 Q614.934,523.8 613.9715,523.3 Q613.184,522.9 612.634,522.05 Q612.084,521.1875 612.084,520.1625 L612.084,519.2375 Q612.084,518.175 612.5715,517.2625 Q613.0715,516.3375 613.9465,515.85 Q614.8215,515.35 615.809,515.35 Q616.3965,515.35 616.909,515.4875 Q617.434,515.6125 617.8715,515.9 Z " fill="#000000"/><text fill="#000000" font-family="sans-serif" font-size="11.2" lengthAdjust="spacing" textLength="59.1281" x="632.059" y="523.8375">Workstation</text><line style="stroke:#181818;stroke-width:0.4000000000000001;" x1="538.8" x2="758.4461" y1="532" y2="532"/><line style="stroke:#181818;stroke-width:0.4000000000000001;" x1="538.8" x2="758.4461" y1="538.4" y2="538.4"/><ellipse cx="546.8" cy="550.2484" fill="#84BE84" rx="2.4" ry="2.4" style="stroke:#038048;stroke-width:0.8000000000000002;"/><text fill="#000000" font-family="sans-serif" font-size="11.2" lengthAdjust="spacing" textLength="70.9625" x="554" y="553.6859">getId() : String</text><ellipse cx="546.8" cy="565.1453" fill="#84BE84" rx="2.4" ry="2.4" style="stroke:#038048;stroke-width:0.8000000000000002;"/><text fill="#000000" font-family="sans-serif" font-size="11.2" lengthAdjust="spacing" textLength="161.2406" x="554" y="568.5828">getExecutiontimeTotal() : double</text><ellipse cx="546.8" cy="580.0422" fill="#84BE84" rx="2.4" ry="2.4" style="stroke:#038048;stroke-width:0.8000000000000002;"/><text fill="#000000" font-family="sans-serif" font-size="11.2" lengthAdjust="spacing" textLength="164.9703" x="554" y="583.4797">getOperationTimeTotal() : double</text><ellipse cx="546.8" cy="594.9391" fill="#84BE84" rx="2.4" ry="2.4" style="stroke:#038048;stroke-width:0.8000000000000002;"/><text fill="#000000" font-family="sans-serif" font-size="11.2" lengthAdjust="spacing" textLength="110.1953" x="554" y="598.3766">isAvailable() : boolean</text><ellipse cx="546.8" cy="609.8359" fill="#84BE84" rx="2.4" ry="2.4" style="stroke:#038048;stroke-width:0.8000000000000002;"/><text fill="#000000" font-family="sans-serif" font-size="11.2" lengthAdjust="spacing" textLength="200.4461" x="554" y="613.2734">processProduct(product : Product) : void</text><ellipse cx="546.8" cy="624.7328" fill="#84BE84" rx="2.4" ry="2.4" style="stroke:#038048;stroke-width:0.8000000000000002;"/><text fill="#000000" font-family="sans-serif" font-size="11.2" lengthAdjust="spacing" textLength="90.8852" x="554" y="628.1703">getTime() : double</text></g><!--link Simulator to MapLinked--><g id="link_Simulator_MapLinked"><path codeLine="66" d="M729.4,218.416 C525.208,280.008 209.6,375.2 209.6,375.2 C209.6,375.2 208.7975,375.4962 200.5335,378.6002 " fill="none" id="Simulator-to-MapLinked" style="stroke:#181818;stroke-width:0.8000000000000002;"/><polygon fill="#181818" points="196.04,380.288,203.9054,380.752,199.7846,378.8815,201.655,374.7607,196.04,380.288" style="stroke:#181818;stroke-width:0.8000000000000002;"/></g><!--link Simulator to WorkstationsPerOperation--><g id="link_Simulator_WorkstationsPerOperation"><path codeLine="67" d="M729.576,251.608 C639.232,296.56 537.5133,347.1736 470.4253,380.5576 " fill="none" id="Simulator-to-WorkstationsPerOperation" style="stroke:#181818;stroke-width:0.8000000000000002;"/><polygon fill="#181818" points="466.128,382.696,473.9996,382.3533,469.7091,380.914,471.1484,376.6235,466.128,382.696" style="stroke:#181818;stroke-width:0.8000000000000002;"/></g><!--link Simulator to ProductPriorityLine--><g id="link_Simulator_ProductPriorityLine"><path codeLine="68" d="M1068.88,255.44 C1153.648,299.528 1246.9095,348.0333 1309.2855,380.4733 " fill="none" id="Simulator-to-ProductPriorityLine" style="stroke:#181818;stroke-width:0.8000000000000002;"/><polygon fill="#181818" points="1313.544,382.688,1308.6327,376.5269,1309.9952,380.8424,1305.6797,382.2049,1313.544,382.688" style="stroke:#181818;stroke-width:0.8000000000000002;"/></g><!--link Simulator to MachineFlowAnalyzer--><g id="link_Simulator_MachineFlowAnalyzer"><path codeLine="69" d="M899.2,327.232 C899.2,348.08 899.2,362.664 899.2,377.976 " fill="none" id="Simulator-to-MachineFlowAnalyzer" style="stroke:#181818;stroke-width:0.8000000000000002;stroke-dasharray:7.0,7.0;"/><polygon fill="#181818" points="899.2,382.776,902.4,375.576,899.2,378.776,896,375.576,899.2,382.776" style="stroke:#181818;stroke-width:0.8000000000000002;"/></g><!--link Simulator to Product--><g id="link_Simulator_Product"><path codeLine="70" d="M1061.064,327.216 C1089.184,355.016 1109.6,375.2 1109.6,375.2 C1109.6,375.2 1196.6948,476.9534 1244.2708,532.5374 " fill="none" id="Simulator-to-Product" style="stroke:#181818;stroke-width:0.8000000000000002;"/><polygon fill="#181818" points="1247.392,536.184,1245.1412,528.6332,1244.791,533.1452,1240.2791,532.7949,1247.392,536.184" style="stroke:#181818;stroke-width:0.8000000000000002;"/></g><!--link Simulator to Operation--><g id="link_Simulator_Operation"><path codeLine="71" d="M738.136,327.232 C713.832,351.376 694.909,370.1848 678.645,386.3448 " fill="none" id="Simulator-to-Operation" style="stroke:#181818;stroke-width:0.8000000000000002;"/><polygon fill="#181818" points="675.24,389.728,682.6029,386.9232,678.0775,386.9087,678.092,382.3832,675.24,389.728" style="stroke:#181818;stroke-width:0.8000000000000002;"/></g><!--link Simulator to Workstation--><g id="link_Simulator_Workstation"><path codeLine="72" d="M1045.064,327.216 C1070.4,355.016 1088.8,375.2 1088.8,375.2 C1088.8,375.2 1088.8,458.4 1088.8,458.4 C1088.8,458.4 894.8297,507.4241 764.4857,540.3601 " fill="none" id="Simulator-to-Workstation" style="stroke:#181818;stroke-width:0.8000000000000002;"/><polygon fill="#181818" points="759.832,541.536,767.5965,542.8746,763.7101,540.5561,766.0286,536.6696,759.832,541.536" style="stroke:#181818;stroke-width:0.8000000000000002;"/></g><!--link ProductPriorityLine to Product--><g id="link_ProductPriorityLine_Product"><path codeLine="73" d="M1355.304,450.96 C1338.36,476.304 1317.8349,507.0091 1300.9149,532.3291 " fill="none" id="ProductPriorityLine-to-Product" style="stroke:#181818;stroke-width:0.8000000000000002;"/><polygon fill="#181818" points="1298.248,536.32,1304.909,532.1116,1300.4704,532.9942,1299.5878,528.5557,1298.248,536.32" style="stroke:#181818;stroke-width:0.8000000000000002;"/></g><!--link WorkstationsPerOperation to Workstation--><g id="link_WorkstationsPerOperation_Workstation"><path codeLine="74" d="M453.976,450.96 C480.664,467.208 509.5803,484.8156 540.7963,503.8236 " fill="none" id="WorkstationsPerOperation-to-Workstation" style="stroke:#181818;stroke-width:0.8000000000000002;"/><polygon fill="#181818" points="544.896,506.32,540.4107,499.8422,541.4795,504.2397,537.0821,505.3085,544.896,506.32" style="stroke:#181818;stroke-width:0.8000000000000002;"/></g><!--link Operation to Workstation--><g id="link_Operation_Workstation"><path codeLine="75" d="M648.8,443.728 C648.8,460.96 648.8,479.512 648.8,501.424 " fill="none" id="Operation-to-Workstation" style="stroke:#181818;stroke-width:0.8000000000000002;"/><polygon fill="#181818" points="648.8,506.224,652,499.024,648.8,502.224,645.6,499.024,648.8,506.224" style="stroke:#181818;stroke-width:0.8000000000000002;"/></g><!--SRC=[bLN1RgCm4BtdAtmaQj8FM4MH4dKhLKsLh1AbPnUcYOMnaMsIPLVxxpk0CGQCTfiJcNdpvZ6UPtJAH4uLpKXEuvHUu6XA3aH1RAYuS9Xf1z1NciWx4nVoIRdsCvm9C6KE99UyhFxCPZ6dMfCZomfEZLJazupWRqba3eeQ9iMF0WhGv1jve_cEYHIIrRxDBSX1oQI8pO8SZSAEQrkTD-6gRCUqMLbOcxvZ_5sgL9kQHXz0ESwM0I6swg2OLCoKkqfmZ_-DnbSCFdDvjmfNZOv5qzQAQjiQQIYtfDZfn3B0gaGM7tn0NAM6Z4yrhk5w8AeGxynSPU7aHNCik4cMz15JwLW1DR3lZpcQ6joW664nQFrY8DFHACU4EOrVDOZhG_0SR208jkD-WXn40Y9c46w-4PINcesI5p33zvr_QR5g2fjfQiVRvMF2hrNNz4yJIwOcPjVZJskLJkthWfnHtzfwve48k5Sd4gLGOY6cRvGNrOgTXwi1cRp1XlF0XBRbAvGjHIEtwbQBFgyx7LF-SMe-cKYse9r9P8U9dBkHtqNdVLTsalnM6ntZuUE9R4liYiy6xw9kh1xKqnemifE9_3Y8BnogniwjftBxK5yMpUDU9Q36BDxvkJkZtjDVe9oMMdbCQ9Au7I-Zh2dO86Lx5TZGreK6nsXv_csQuOJygRmaDQvf472GDoiNyzvpl10Zpj0k_OU2xpyXBYgiGO_Kjl6DCXPwceOnlRbHnYb6wkI7b1oewDzohNVjtTXz6CRc2RYs-xGjb-lElOFuvDUe3mjzaJh4u-Cwj5vXZa5qggDlo92DVCR9As58D9tv2m00]--></g></svg>