<svg xmlns="http://www.w3.org/2000/svg" xmlns:xlink="http://www.w3.org/1999/xlink" contentStyleType="text/css" height="439px" preserveAspectRatio="none" style="width:1120px;height:439px;background:#FFFFFF;" version="1.1" viewBox="0 0 1120 439" width="1120px" zoomAndPan="magnify"><defs/><g><rect fill="#FFFFFF" height="214.0371" style="stroke:#181818;stroke-width:1.0;" width="10" x="425.1016" y="116.9121"/><rect fill="#FFFFFF" height="31.291" style="stroke:#181818;stroke-width:1.0;" width="10" x="709.564" y="148.2031"/><rect fill="#FFFFFF" height="31.291" style="stroke:#181818;stroke-width:1.0;" width="10" x="938.3701" y="179.4941"/><rect fill="#FFFFFF" height="31.291" style="stroke:#181818;stroke-width:1.0;" width="10" x="1055.3491" y="268.3672"/><rect fill="none" height="113.1641" style="stroke:#000000;stroke-width:1.5;" width="1104.3042" x="10" y="225.7852"/><line style="stroke:#181818;stroke-width:0.5;stroke-dasharray:5.0,5.0;" x1="40" x2="40" y1="83.6211" y2="355.9492"/><line style="stroke:#181818;stroke-width:0.5;stroke-dasharray:5.0,5.0;" x1="429.5913" x2="429.5913" y1="83.6211" y2="355.9492"/><line style="stroke:#181818;stroke-width:0.5;stroke-dasharray:5.0,5.0;" x1="714.4746" x2="714.4746" y1="83.6211" y2="355.9492"/><line style="stroke:#181818;stroke-width:0.5;stroke-dasharray:5.0,5.0;" x1="943.3462" x2="943.3462" y1="83.6211" y2="355.9492"/><line style="stroke:#181818;stroke-width:0.5;stroke-dasharray:5.0,5.0;" x1="1059.394" x2="1059.394" y1="83.6211" y2="355.9492"/><text fill="#000000" font-family="sans-serif" font-size="14" lengthAdjust="spacing" textLength="35.793" x="20" y="80.1074">Client</text><ellipse cx="40.8965" cy="13.5" fill="#E3E3E3" rx="8" ry="8" style="stroke:#181818;stroke-width:0.5;"/><path d="M40.8965,21.5 L40.8965,48.5 M27.8965,29.5 L53.8965,29.5 M40.8965,48.5 L27.8965,63.5 M40.8965,48.5 L53.8965,63.5 " fill="none" style="stroke:#181818;stroke-width:0.5;"/><text fill="#000000" font-family="sans-serif" font-size="14" lengthAdjust="spacing" textLength="35.793" x="20" y="370.0566">Client</text><ellipse cx="40.8965" cy="382.0703" fill="#E3E3E3" rx="8" ry="8" style="stroke:#181818;stroke-width:0.5;"/><path d="M40.8965,390.0703 L40.8965,417.0703 M27.8965,398.0703 L53.8965,398.0703 M40.8965,417.0703 L27.8965,432.0703 M40.8965,417.0703 L53.8965,432.0703 " fill="none" style="stroke:#181818;stroke-width:0.5;"/><rect fill="#E3E3E3" height="32.6211" rx="2.5" ry="2.5" style="stroke:#181818;stroke-width:0.5;" width="77.0205" x="391.5913" y="50"/><text fill="#000000" font-family="sans-serif" font-size="14" lengthAdjust="spacing" textLength="63.0205" x="398.5913" y="72.1074">:Simulator</text><rect fill="#E3E3E3" height="32.6211" rx="2.5" ry="2.5" style="stroke:#181818;stroke-width:0.5;" width="77.0205" x="391.5913" y="354.9492"/><text fill="#000000" font-family="sans-serif" font-size="14" lengthAdjust="spacing" textLength="63.0205" x="398.5913" y="377.0566">:Simulator</text><rect fill="#E3E3E3" height="32.6211" rx="2.5" ry="2.5" style="stroke:#181818;stroke-width:0.5;" width="178.1787" x="625.4746" y="50"/><text fill="#000000" font-family="sans-serif" font-size="14" lengthAdjust="spacing" textLength="164.1787" x="632.4746" y="72.1074">WorkstationsPerOperation</text><rect fill="#E3E3E3" height="32.6211" rx="2.5" ry="2.5" style="stroke:#181818;stroke-width:0.5;" width="178.1787" x="625.4746" y="354.9492"/><text fill="#000000" font-family="sans-serif" font-size="14" lengthAdjust="spacing" textLength="164.1787" x="632.4746" y="377.0566">WorkstationsPerOperation</text><rect fill="#E3E3E3" height="32.6211" rx="2.5" ry="2.5" style="stroke:#181818;stroke-width:0.5;" width="126.0479" x="880.3462" y="50"/><text fill="#000000" font-family="sans-serif" font-size="14" lengthAdjust="spacing" textLength="112.0479" x="887.3462" y="72.1074">List&lt;Workstation&gt;</text><rect fill="#E3E3E3" height="32.6211" rx="2.5" ry="2.5" style="stroke:#181818;stroke-width:0.5;" width="126.0479" x="880.3462" y="354.9492"/><text fill="#000000" font-family="sans-serif" font-size="14" lengthAdjust="spacing" textLength="112.0479" x="887.3462" y="377.0566">List&lt;Workstation&gt;</text><rect fill="#E3E3E3" height="32.6211" rx="2.5" ry="2.5" style="stroke:#181818;stroke-width:0.5;" width="87.9102" x="1016.394" y="50"/><text fill="#000000" font-family="sans-serif" font-size="14" lengthAdjust="spacing" textLength="73.9102" x="1023.394" y="72.1074">Workstation</text><rect fill="#E3E3E3" height="32.6211" rx="2.5" ry="2.5" style="stroke:#181818;stroke-width:0.5;" width="87.9102" x="1016.394" y="354.9492"/><text fill="#000000" font-family="sans-serif" font-size="14" lengthAdjust="spacing" textLength="73.9102" x="1023.394" y="377.0566">Workstation</text><rect fill="#FFFFFF" height="214.0371" style="stroke:#181818;stroke-width:1.0;" width="10" x="425.1016" y="116.9121"/><rect fill="#FFFFFF" height="31.291" style="stroke:#181818;stroke-width:1.0;" width="10" x="709.564" y="148.2031"/><rect fill="#FFFFFF" height="31.291" style="stroke:#181818;stroke-width:1.0;" width="10" x="938.3701" y="179.4941"/><rect fill="#FFFFFF" height="31.291" style="stroke:#181818;stroke-width:1.0;" width="10" x="1055.3491" y="268.3672"/><polygon fill="#181818" points="413.1016,112.9121,423.1016,116.9121,413.1016,120.9121,417.1016,116.9121" style="stroke:#181818;stroke-width:1.0;"/><line style="stroke:#181818;stroke-width:1.0;" x1="40.8965" x2="419.1016" y1="116.9121" y2="116.9121"/><text fill="#000000" font-family="sans-serif" font-size="13" font-weight="bold" lengthAdjust="spacing" textLength="7.23" x="47.8965" y="111.6494">1</text><text fill="#000000" font-family="sans-serif" font-size="13" lengthAdjust="spacing" textLength="168.3589" x="59.1265" y="111.6494">Request workstation analysis</text><polygon fill="#181818" points="697.564,144.2031,707.564,148.2031,697.564,152.2031,701.564,148.2031" style="stroke:#181818;stroke-width:1.0;"/><line style="stroke:#181818;stroke-width:1.0;" x1="435.1016" x2="703.564" y1="148.2031" y2="148.2031"/><text fill="#000000" font-family="sans-serif" font-size="13" font-weight="bold" lengthAdjust="spacing" textLength="7.23" x="442.1016" y="142.9404">2</text><text fill="#000000" font-family="sans-serif" font-size="13" lengthAdjust="spacing" textLength="244.2324" x="453.3315" y="142.9404">getWorkstationsAscendingByPercentage()</text><polygon fill="#181818" points="926.3701,175.4941,936.3701,179.4941,926.3701,183.4941,930.3701,179.4941" style="stroke:#181818;stroke-width:1.0;"/><line style="stroke:#181818;stroke-width:1.0;" x1="714.564" x2="932.3701" y1="179.4941" y2="179.4941"/><text fill="#000000" font-family="sans-serif" font-size="13" font-weight="bold" lengthAdjust="spacing" textLength="7.23" x="721.564" y="174.2314">3</text><text fill="#000000" font-family="sans-serif" font-size="13" lengthAdjust="spacing" textLength="188.5762" x="732.7939" y="174.2314">Return sorted list of workstations</text><polygon fill="#181818" points="446.1016,206.7852,436.1016,210.7852,446.1016,214.7852,442.1016,210.7852" style="stroke:#181818;stroke-width:1.0;"/><line style="stroke:#181818;stroke-width:1.0;" x1="440.1016" x2="942.3701" y1="210.7852" y2="210.7852"/><text fill="#000000" font-family="sans-serif" font-size="13" font-weight="bold" lengthAdjust="spacing" textLength="7.23" x="452.1016" y="205.5225">4</text><text fill="#000000" font-family="sans-serif" font-size="13" lengthAdjust="spacing" textLength="221.1143" x="463.3315" y="205.5225">List of workstations in ascending order</text><path d="M10,225.7852 L82.4346,225.7852 L82.4346,235.0762 L72.4346,245.0762 L10,245.0762 L10,225.7852 " fill="#EEEEEE" style="stroke:#000000;stroke-width:1.5;"/><rect fill="none" height="113.1641" style="stroke:#000000;stroke-width:1.5;" width="1104.3042" x="10" y="225.7852"/><text fill="#000000" font-family="sans-serif" font-size="13" font-weight="bold" lengthAdjust="spacing" textLength="27.4346" x="25" y="240.8135">loop</text><text fill="#000000" font-family="sans-serif" font-size="11" font-weight="bold" lengthAdjust="spacing" textLength="114.9038" x="97.4346" y="239.6553">[for each workstation]</text><polygon fill="#181818" points="1043.3491,264.3672,1053.3491,268.3672,1043.3491,272.3672,1047.3491,268.3672" style="stroke:#181818;stroke-width:1.0;"/><line style="stroke:#181818;stroke-width:1.0;" x1="435.1016" x2="1049.3491" y1="268.3672" y2="268.3672"/><text fill="#000000" font-family="sans-serif" font-size="13" font-weight="bold" lengthAdjust="spacing" textLength="7.23" x="442.1016" y="263.1045">5</text><text fill="#000000" font-family="sans-serif" font-size="13" lengthAdjust="spacing" textLength="330.9097" x="453.3315" y="263.1045">getId(), getExecutiontimeTotal(), getOperationTimeTotal()</text><polygon fill="#181818" points="446.1016,295.6582,436.1016,299.6582,446.1016,303.6582,442.1016,299.6582" style="stroke:#181818;stroke-width:1.0;"/><line style="stroke:#181818;stroke-width:1.0;" x1="440.1016" x2="1059.3491" y1="299.6582" y2="299.6582"/><text fill="#000000" font-family="sans-serif" font-size="13" font-weight="bold" lengthAdjust="spacing" textLength="7.23" x="452.1016" y="294.3955">6</text><text fill="#000000" font-family="sans-serif" font-size="13" lengthAdjust="spacing" textLength="206.6289" x="463.3315" y="294.3955">ID, Execution Time, Operation Time</text><polygon fill="#181818" points="51.8965,326.9492,41.8965,330.9492,51.8965,334.9492,47.8965,330.9492" style="stroke:#181818;stroke-width:1.0;"/><line style="stroke:#181818;stroke-width:1.0;" x1="45.8965" x2="429.1016" y1="330.9492" y2="330.9492"/><text fill="#000000" font-family="sans-serif" font-size="13" font-weight="bold" lengthAdjust="spacing" textLength="7.23" x="57.8965" y="325.6865">7</text><text fill="#000000" font-family="sans-serif" font-size="13" lengthAdjust="spacing" textLength="348.9751" x="69.1265" y="325.6865">Display workstation details (ID, Execution Time, Percentage)</text><!--SRC=[VL9DJyCm3BtdLrWxRTBu0nD20iPXqYGG6-9iMc-BbYObTe7zUzm0_LWxUahiv_VoNir7wqkCM40HVCWECHG44Yiot7HAp8wufusS746aJD3lNHV01yp3f_LxsA5ZCWOh2RugtYZgEPCGONBlB7cP03AyiDPrKcncI_G2ayN65fL31IP0S-kZNaCyig3OuFc9ucD9CLtIpA3PdrrRbkiEvkPyg0PSb3i76rDxWAkRzgcmW6TwhuW5FbiWe4TtOijr3FO3XJhcJ3kiJ0C3ohWdwPPlEIEVQyvt9qNeMVItJ6Sjzp04CwJjQzM-qzkbYXuuHA4SN5qCkwuJDZdzepFMIf5sJ5vVZGYlHwJ0Qd1_NY74NFTbNFr7meLGmauL57FeCXdGxrBAF_ckykbiNXyUlYYhwhhOWhP1qFqscZtRjer4FFQWCyM-PLLSBUVGA47DE8T68DqJmxZRr1fwIhkuWANbqk6fjtuv2Lh7C1tJRNTerestNL3z0SPy0m00]--></g></svg>