<svg xmlns="http://www.w3.org/2000/svg" xmlns:xlink="http://www.w3.org/1999/xlink" contentStyleType="text/css" height="624.4px" preserveAspectRatio="none" style="width:1405px;height:624px;background:#FFFFFF;" version="1.1" viewBox="0 0 1405 624" width="1405.6px" zoomAndPan="magnify"><defs/><g><!--class Simulator--><g id="elem_Simulator"><rect codeLine="5" fill="#F1F1F1" height="294.2953" id="Simulator" rx="1.75" ry="1.75" style="stroke:#181818;stroke-width:0.3499999999999999;" width="269.2819" x="386.75" y="4.9"/><ellipse cx="497.7202" cy="16.1" fill="#ADD1B2" rx="7.7" ry="7.7" style="stroke:#181818;stroke-width:0.6999999999999998;"/><path d="M499.6561,13.2125 Q499.7655,13.0594 499.8967,12.9828 Q500.028,12.9062 500.1811,12.9062 Q500.4436,12.9062 500.6077,13.0922 Q500.7717,13.2672 500.7717,13.6937 L500.7717,14.7109 Q500.7717,15.1375 500.6077,15.3234 Q500.4436,15.5094 500.1811,15.5094 Q499.9405,15.5094 499.7983,15.3672 Q499.6561,15.2359 499.5795,14.875 Q499.5467,14.6234 499.4155,14.4922 Q499.1858,14.2297 498.7592,14.0766 Q498.3327,13.9234 497.8952,13.9234 Q497.3592,13.9234 496.9108,14.1531 Q496.4733,14.3828 496.1233,14.9078 Q495.7842,15.4328 495.7842,16.1547 L495.7842,16.9203 Q495.7842,17.7844 496.4077,18.3641 Q497.0311,18.9328 498.1467,18.9328 Q498.803,18.9328 499.2624,18.7578 Q499.5358,18.6484 499.8311,18.3422 Q500.017,18.1562 500.1155,18.1016 Q500.2249,18.0469 500.367,18.0469 Q500.5967,18.0469 500.7717,18.2328 Q500.9577,18.4078 500.9577,18.6484 Q500.9577,18.8891 500.717,19.1734 Q500.367,19.5781 499.8092,19.8078 Q499.0545,20.125 498.1467,20.125 Q497.0858,20.125 496.2436,19.6875 Q495.5545,19.3375 495.0733,18.5937 Q494.592,17.8391 494.592,16.9422 L494.592,16.1328 Q494.592,15.2031 495.0186,14.4047 Q495.4561,13.5953 496.2217,13.1687 Q496.9874,12.7312 497.8514,12.7312 Q498.3655,12.7312 498.8139,12.8516 Q499.2733,12.9609 499.6561,13.2125 Z " fill="#000000"/><text fill="#000000" font-family="sans-serif" font-size="9.8" lengthAdjust="spacing" textLength="41.3916" x="512.0702" y="20.1578">Simulator</text><line style="stroke:#181818;stroke-width:0.3499999999999999;" x1="387.45" x2="655.3319" y1="27.3" y2="27.3"/><rect fill="none" height="4.2" style="stroke:#C82930;stroke-width:0.6999999999999998;" width="4.2" x="392.35" y="35.5674"/><text fill="#000000" font-family="sans-serif" font-size="9.8" lengthAdjust="spacing" textLength="142.1766" x="400.75" y="40.6752">productLine : ProductPriorityLine</text><rect fill="none" height="4.2" style="stroke:#C82930;stroke-width:0.6999999999999998;" width="4.2" x="392.35" y="48.6021"/><text fill="#000000" font-family="sans-serif" font-size="9.8" lengthAdjust="spacing" textLength="235.846" x="400.75" y="53.71">workstationsPerOperation : WorkstationsPerOperation</text><rect fill="none" height="4.2" style="stroke:#C82930;stroke-width:0.6999999999999998;" width="4.2" x="392.35" y="61.6369"/><text fill="#000000" font-family="sans-serif" font-size="9.8" lengthAdjust="spacing" textLength="152.5269" x="400.75" y="66.7447">processedProducts : List&lt;Product&gt;</text><rect fill="none" height="4.2" style="stroke:#C82930;stroke-width:0.6999999999999998;" width="4.2" x="392.35" y="74.6717"/><text fill="#000000" font-family="sans-serif" font-size="9.8" lengthAdjust="spacing" textLength="168.3179" x="400.75" y="79.7795">productTimes : Map&lt;Product, Double&gt;</text><rect fill="none" height="4.2" style="stroke:#C82930;stroke-width:0.6999999999999998;" width="4.2" x="392.35" y="87.7064"/><text fill="#000000" font-family="sans-serif" font-size="9.8" lengthAdjust="spacing" textLength="124.749" x="400.75" y="92.8143">totalProductionTime : double</text><rect fill="none" height="4.2" style="stroke:#C82930;stroke-width:0.6999999999999998;" width="4.2" x="392.35" y="100.7412"/><text fill="#000000" font-family="sans-serif" font-size="9.8" lengthAdjust="spacing" textLength="168.3227" x="400.75" y="105.849">operationTimes : Map&lt;String, Double&gt;</text><rect fill="none" height="4.2" style="stroke:#C82930;stroke-width:0.6999999999999998;" width="4.2" x="392.35" y="113.776"/><text fill="#000000" font-family="sans-serif" font-size="9.8" lengthAdjust="spacing" textLength="177.0221" x="400.75" y="118.8838">workstationTimes : Map&lt;String, Double&gt;</text><rect fill="none" height="4.2" style="stroke:#C82930;stroke-width:0.6999999999999998;" width="4.2" x="392.35" y="126.8107"/><text fill="#000000" font-family="sans-serif" font-size="9.8" lengthAdjust="spacing" textLength="217.3418" x="400.75" y="131.9186">productMachineFlows : Map&lt;String, List&lt;String&gt;&gt;</text><rect fill="none" height="4.2" style="stroke:#C82930;stroke-width:0.6999999999999998;" width="4.2" x="392.35" y="139.8455"/><text fill="#000000" font-family="sans-serif" font-size="9.8" lengthAdjust="spacing" textLength="199.8903" x="400.75" y="144.9533">machineFlowAnalyzer : MachineFlowAnalyzer</text><rect fill="none" height="4.2" style="stroke:#C82930;stroke-width:0.6999999999999998;" width="4.2" x="392.35" y="152.8803"/><text fill="#000000" font-family="sans-serif" font-size="9.8" lengthAdjust="spacing" textLength="204.2975" x="400.75" y="157.9881">waitingQueue : Map&lt;String, Queue&lt;Product&gt;&gt;</text><rect fill="none" height="4.2" style="stroke:#C82930;stroke-width:0.6999999999999998;" width="4.2" x="392.35" y="165.915"/><text fill="#000000" font-family="sans-serif" font-size="9.8" lengthAdjust="spacing" textLength="166.1358" x="400.75" y="171.0229">waitingTimes : Map&lt;Product, Double&gt;</text><line style="stroke:#181818;stroke-width:0.3499999999999999;" x1="387.45" x2="655.3319" y1="176.2824" y2="176.2824"/><ellipse cx="394.45" cy="186.6498" fill="#84BE84" rx="2.1" ry="2.1" style="stroke:#038048;stroke-width:0.6999999999999998;"/><text fill="#000000" font-family="sans-serif" font-size="9.8" lengthAdjust="spacing" textLength="47.9186" x="400.75" y="189.6576">Simulator()</text><ellipse cx="394.45" cy="199.6846" fill="#84BE84" rx="2.1" ry="2.1" style="stroke:#038048;stroke-width:0.6999999999999998;"/><text fill="#000000" font-family="sans-serif" font-size="9.8" lengthAdjust="spacing" textLength="251.0819" x="400.75" y="202.6924">Simulator(WorkstationsPerOperation, ProductPriorityLine)</text><ellipse cx="394.45" cy="212.7193" fill="#84BE84" rx="2.1" ry="2.1" style="stroke:#038048;stroke-width:0.6999999999999998;"/><text fill="#000000" font-family="sans-serif" font-size="9.8" lengthAdjust="spacing" textLength="136.7263" x="400.75" y="215.7271">areAllQueuesEmpty() : boolean</text><ellipse cx="394.45" cy="225.7541" fill="#84BE84" rx="2.1" ry="2.1" style="stroke:#038048;stroke-width:0.6999999999999998;"/><text fill="#000000" font-family="sans-serif" font-size="9.8" lengthAdjust="spacing" textLength="145.4257" x="400.75" y="228.7619">runWithPriority(b : boolean) : void</text><ellipse cx="394.45" cy="238.7889" fill="#84BE84" rx="2.1" ry="2.1" style="stroke:#038048;stroke-width:0.6999999999999998;"/><text fill="#000000" font-family="sans-serif" font-size="9.8" lengthAdjust="spacing" textLength="159.049" x="400.75" y="241.7967">runWithoutPriority(b : boolean) : void</text><ellipse cx="394.45" cy="251.8236" fill="#84BE84" rx="2.1" ry="2.1" style="stroke:#038048;stroke-width:0.6999999999999998;"/><text fill="#000000" font-family="sans-serif" font-size="9.8" lengthAdjust="spacing" textLength="137.7981" x="400.75" y="254.8314">printProductionStatistics() : void</text><ellipse cx="394.45" cy="264.8584" fill="#84BE84" rx="2.1" ry="2.1" style="stroke:#038048;stroke-width:0.6999999999999998;"/><text fill="#000000" font-family="sans-serif" font-size="9.8" lengthAdjust="spacing" textLength="88.2287" x="400.75" y="267.8662">printAnalysis() : void</text><ellipse cx="394.45" cy="277.8932" fill="#84BE84" rx="2.1" ry="2.1" style="stroke:#038048;stroke-width:0.6999999999999998;"/><text fill="#000000" font-family="sans-serif" font-size="9.8" lengthAdjust="spacing" textLength="148.1628" x="400.75" y="280.901">getTotalProductionTime() : double</text><ellipse cx="394.45" cy="290.9279" fill="#84BE84" rx="2.1" ry="2.1" style="stroke:#038048;stroke-width:0.6999999999999998;"/><text fill="#000000" font-family="sans-serif" font-size="9.8" lengthAdjust="spacing" textLength="203.7232" x="400.75" y="293.9357">getProductionTimePerProduct() : List&lt;Double&gt;</text></g><!--class ProductPriorityLine--><g id="elem_ProductPriorityLine"><rect codeLine="30" fill="#F1F1F1" height="33.6" id="ProductPriorityLine" rx="1.75" ry="1.75" style="stroke:#181818;stroke-width:0.3499999999999999;" width="105.1928" x="4.9" y="380.1"/><ellipse cx="15.4" cy="391.3" fill="#ADD1B2" rx="7.7" ry="7.7" style="stroke:#181818;stroke-width:0.6999999999999998;"/><path d="M17.3359,388.4125 Q17.4453,388.2594 17.5766,388.1828 Q17.7078,388.1062 17.8609,388.1062 Q18.1234,388.1062 18.2875,388.2922 Q18.4516,388.4672 18.4516,388.8937 L18.4516,389.9109 Q18.4516,390.3375 18.2875,390.5234 Q18.1234,390.7094 17.8609,390.7094 Q17.6203,390.7094 17.4781,390.5672 Q17.3359,390.4359 17.2594,390.075 Q17.2266,389.8234 17.0953,389.6922 Q16.8656,389.4297 16.4391,389.2766 Q16.0125,389.1234 15.575,389.1234 Q15.0391,389.1234 14.5906,389.3531 Q14.1531,389.5828 13.8031,390.1078 Q13.4641,390.6328 13.4641,391.3547 L13.4641,392.1203 Q13.4641,392.9844 14.0875,393.5641 Q14.7109,394.1328 15.8266,394.1328 Q16.4828,394.1328 16.9422,393.9578 Q17.2156,393.8484 17.5109,393.5422 Q17.6969,393.3562 17.7953,393.3016 Q17.9047,393.2469 18.0469,393.2469 Q18.2766,393.2469 18.4516,393.4328 Q18.6375,393.6078 18.6375,393.8484 Q18.6375,394.0891 18.3969,394.3734 Q18.0469,394.7781 17.4891,395.0078 Q16.7344,395.325 15.8266,395.325 Q14.7656,395.325 13.9234,394.8875 Q13.2344,394.5375 12.7531,393.7937 Q12.2719,393.0391 12.2719,392.1422 L12.2719,391.3328 Q12.2719,390.4031 12.6984,389.6047 Q13.1359,388.7953 13.9016,388.3687 Q14.6672,387.9312 15.5312,387.9312 Q16.0453,387.9312 16.4937,388.0516 Q16.9531,388.1609 17.3359,388.4125 Z " fill="#000000"/><text fill="#000000" font-family="sans-serif" font-size="9.8" lengthAdjust="spacing" textLength="82.7928" x="25.2" y="395.3578">ProductPriorityLine</text><line style="stroke:#181818;stroke-width:0.3499999999999999;" x1="5.6" x2="109.3928" y1="402.5" y2="402.5"/><line style="stroke:#181818;stroke-width:0.3499999999999999;" x1="5.6" x2="109.3928" y1="408.1" y2="408.1"/></g><!--class WorkstationsPerOperation--><g id="elem_WorkstationsPerOperation"><rect codeLine="33" fill="#F1F1F1" height="33.6" id="WorkstationsPerOperation" rx="1.75" ry="1.75" style="stroke:#181818;stroke-width:0.3499999999999999;" width="137.3251" x="627.2" y="380.1"/><ellipse cx="637.7" cy="391.3" fill="#ADD1B2" rx="7.7" ry="7.7" style="stroke:#181818;stroke-width:0.6999999999999998;"/><path d="M639.6359,388.4125 Q639.7453,388.2594 639.8766,388.1828 Q640.0078,388.1062 640.1609,388.1062 Q640.4234,388.1062 640.5875,388.2922 Q640.7516,388.4672 640.7516,388.8937 L640.7516,389.9109 Q640.7516,390.3375 640.5875,390.5234 Q640.4234,390.7094 640.1609,390.7094 Q639.9203,390.7094 639.7781,390.5672 Q639.6359,390.4359 639.5594,390.075 Q639.5266,389.8234 639.3953,389.6922 Q639.1656,389.4297 638.7391,389.2766 Q638.3125,389.1234 637.875,389.1234 Q637.3391,389.1234 636.8906,389.3531 Q636.4531,389.5828 636.1031,390.1078 Q635.7641,390.6328 635.7641,391.3547 L635.7641,392.1203 Q635.7641,392.9844 636.3875,393.5641 Q637.0109,394.1328 638.1266,394.1328 Q638.7828,394.1328 639.2422,393.9578 Q639.5156,393.8484 639.8109,393.5422 Q639.9969,393.3562 640.0953,393.3016 Q640.2047,393.2469 640.3469,393.2469 Q640.5766,393.2469 640.7516,393.4328 Q640.9375,393.6078 640.9375,393.8484 Q640.9375,394.0891 640.6969,394.3734 Q640.3469,394.7781 639.7891,395.0078 Q639.0344,395.325 638.1266,395.325 Q637.0656,395.325 636.2234,394.8875 Q635.5344,394.5375 635.0531,393.7937 Q634.5719,393.0391 634.5719,392.1422 L634.5719,391.3328 Q634.5719,390.4031 634.9984,389.6047 Q635.4359,388.7953 636.2016,388.3687 Q636.9672,387.9312 637.8312,387.9312 Q638.3453,387.9312 638.7937,388.0516 Q639.2531,388.1609 639.6359,388.4125 Z " fill="#000000"/><text fill="#000000" font-family="sans-serif" font-size="9.8" lengthAdjust="spacing" textLength="114.9251" x="647.5" y="395.3578">WorkstationsPerOperation</text><line style="stroke:#181818;stroke-width:0.3499999999999999;" x1="627.9" x2="763.8251" y1="402.5" y2="402.5"/><line style="stroke:#181818;stroke-width:0.3499999999999999;" x1="627.9" x2="763.8251" y1="408.1" y2="408.1"/></g><!--class Product--><g id="elem_Product"><rect codeLine="37" fill="#F1F1F1" height="85.7391" id="Product" rx="1.75" ry="1.75" style="stroke:#181818;stroke-width:0.3499999999999999;" width="205.5819" x="266.7" y="354.2"/><ellipse cx="349.6292" cy="365.4" fill="#ADD1B2" rx="7.7" ry="7.7" style="stroke:#181818;stroke-width:0.6999999999999998;"/><path d="M351.5651,362.5125 Q351.6745,362.3594 351.8057,362.2828 Q351.937,362.2062 352.0901,362.2062 Q352.3526,362.2062 352.5167,362.3922 Q352.6807,362.5672 352.6807,362.9937 L352.6807,364.0109 Q352.6807,364.4375 352.5167,364.6234 Q352.3526,364.8094 352.0901,364.8094 Q351.8495,364.8094 351.7073,364.6672 Q351.5651,364.5359 351.4885,364.175 Q351.4557,363.9234 351.3245,363.7922 Q351.0948,363.5297 350.6682,363.3766 Q350.2417,363.2234 349.8042,363.2234 Q349.2682,363.2234 348.8198,363.4531 Q348.3823,363.6828 348.0323,364.2078 Q347.6932,364.7328 347.6932,365.4547 L347.6932,366.2203 Q347.6932,367.0844 348.3167,367.6641 Q348.9401,368.2328 350.0557,368.2328 Q350.712,368.2328 351.1713,368.0578 Q351.4448,367.9484 351.7401,367.6422 Q351.926,367.4562 352.0245,367.4016 Q352.1338,367.3469 352.276,367.3469 Q352.5057,367.3469 352.6807,367.5328 Q352.8667,367.7078 352.8667,367.9484 Q352.8667,368.1891 352.626,368.4734 Q352.276,368.8781 351.7182,369.1078 Q350.9635,369.425 350.0557,369.425 Q348.9948,369.425 348.1526,368.9875 Q347.4635,368.6375 346.9823,367.8937 Q346.501,367.1391 346.501,366.2422 L346.501,365.4328 Q346.501,364.5031 346.9276,363.7047 Q347.3651,362.8953 348.1307,362.4687 Q348.8963,362.0312 349.7604,362.0312 Q350.2745,362.0312 350.7229,362.1516 Q351.1823,362.2609 351.5651,362.5125 Z " fill="#000000"/><text fill="#000000" font-family="sans-serif" font-size="9.8" lengthAdjust="spacing" textLength="33.7736" x="363.9792" y="369.4578">Product</text><line style="stroke:#181818;stroke-width:0.3499999999999999;" x1="267.4" x2="471.5819" y1="376.6" y2="376.6"/><line style="stroke:#181818;stroke-width:0.3499999999999999;" x1="267.4" x2="471.5819" y1="382.2" y2="382.2"/><ellipse cx="274.4" cy="392.5674" fill="#84BE84" rx="2.1" ry="2.1" style="stroke:#038048;stroke-width:0.6999999999999998;"/><text fill="#000000" font-family="sans-serif" font-size="9.8" lengthAdjust="spacing" textLength="81.1515" x="280.7" y="395.5752">getIdItem() : String</text><ellipse cx="274.4" cy="405.6021" fill="#84BE84" rx="2.1" ry="2.1" style="stroke:#038048;stroke-width:0.6999999999999998;"/><text fill="#000000" font-family="sans-serif" font-size="9.8" lengthAdjust="spacing" textLength="147.0718" x="280.7" y="408.61">getCurrentOperation() : Operation</text><ellipse cx="274.4" cy="418.6369" fill="#84BE84" rx="2.1" ry="2.1" style="stroke:#038048;stroke-width:0.6999999999999998;"/><text fill="#000000" font-family="sans-serif" font-size="9.8" lengthAdjust="spacing" textLength="148.1628" x="280.7" y="421.6447">moveToNextOperation() : boolean</text><ellipse cx="274.4" cy="431.6717" fill="#84BE84" rx="2.1" ry="2.1" style="stroke:#038048;stroke-width:0.6999999999999998;"/><text fill="#000000" font-family="sans-serif" font-size="9.8" lengthAdjust="spacing" textLength="187.3819" x="280.7" y="434.6795">setCurrentOperationIndex(index : int) : void</text></g><!--class Operation--><g id="elem_Operation"><rect codeLine="44" fill="#F1F1F1" height="46.6348" id="Operation" rx="1.75" ry="1.75" style="stroke:#181818;stroke-width:0.3499999999999999;" width="80.2922" x="329.35" y="533.75"/><ellipse cx="346.5345" cy="544.95" fill="#ADD1B2" rx="7.7" ry="7.7" style="stroke:#181818;stroke-width:0.6999999999999998;"/><path d="M348.4705,542.0625 Q348.5798,541.9094 348.7111,541.8328 Q348.8423,541.7562 348.9955,541.7562 Q349.258,541.7562 349.422,541.9422 Q349.5861,542.1172 349.5861,542.5437 L349.5861,543.5609 Q349.5861,543.9875 349.422,544.1734 Q349.258,544.3594 348.9955,544.3594 Q348.7548,544.3594 348.6126,544.2172 Q348.4705,544.0859 348.3939,543.725 Q348.3611,543.4734 348.2298,543.3422 Q348.0001,543.0797 347.5736,542.9266 Q347.147,542.7734 346.7095,542.7734 Q346.1736,542.7734 345.7251,543.0031 Q345.2876,543.2328 344.9376,543.7578 Q344.5986,544.2828 344.5986,545.0047 L344.5986,545.7703 Q344.5986,546.6344 345.222,547.2141 Q345.8455,547.7828 346.9611,547.7828 Q347.6173,547.7828 348.0767,547.6078 Q348.3501,547.4984 348.6455,547.1922 Q348.8314,547.0062 348.9298,546.9516 Q349.0392,546.8969 349.1814,546.8969 Q349.4111,546.8969 349.5861,547.0828 Q349.772,547.2578 349.772,547.4984 Q349.772,547.7391 349.5314,548.0234 Q349.1814,548.4281 348.6236,548.6578 Q347.8689,548.975 346.9611,548.975 Q345.9001,548.975 345.058,548.5375 Q344.3689,548.1875 343.8876,547.4437 Q343.4064,546.6891 343.4064,545.7922 L343.4064,544.9828 Q343.4064,544.0531 343.833,543.2547 Q344.2705,542.4453 345.0361,542.0187 Q345.8017,541.5812 346.6658,541.5812 Q347.1798,541.5812 347.6283,541.7016 Q348.0876,541.8109 348.4705,542.0625 Z " fill="#000000"/><text fill="#000000" font-family="sans-serif" font-size="9.8" lengthAdjust="spacing" textLength="43.0377" x="357.82" y="549.0078">Operation</text><line style="stroke:#181818;stroke-width:0.3499999999999999;" x1="330.05" x2="408.9422" y1="556.15" y2="556.15"/><line style="stroke:#181818;stroke-width:0.3499999999999999;" x1="330.05" x2="408.9422" y1="561.75" y2="561.75"/><ellipse cx="337.05" cy="572.1174" fill="#84BE84" rx="2.1" ry="2.1" style="stroke:#038048;stroke-width:0.6999999999999998;"/><text fill="#000000" font-family="sans-serif" font-size="9.8" lengthAdjust="spacing" textLength="62.0922" x="343.35" y="575.1252">getId() : String</text></g><!--class Workstation--><g id="elem_Workstation"><rect codeLine="48" fill="#F1F1F1" height="124.8434" id="Workstation" rx="1.75" ry="1.75" style="stroke:#181818;stroke-width:0.3499999999999999;" width="193.5903" x="718.55" y="494.9"/><ellipse cx="786.5016" cy="506.1" fill="#ADD1B2" rx="7.7" ry="7.7" style="stroke:#181818;stroke-width:0.6999999999999998;"/><path d="M788.4375,503.2125 Q788.5469,503.0594 788.6782,502.9828 Q788.8094,502.9062 788.9625,502.9062 Q789.225,502.9062 789.3891,503.0922 Q789.5532,503.2672 789.5532,503.6937 L789.5532,504.7109 Q789.5532,505.1375 789.3891,505.3234 Q789.225,505.5094 788.9625,505.5094 Q788.7219,505.5094 788.5797,505.3672 Q788.4375,505.2359 788.361,504.875 Q788.3282,504.6234 788.1969,504.4922 Q787.9672,504.2297 787.5407,504.0766 Q787.1141,503.9234 786.6766,503.9234 Q786.1407,503.9234 785.6922,504.1531 Q785.2547,504.3828 784.9047,504.9078 Q784.5657,505.4328 784.5657,506.1547 L784.5657,506.9203 Q784.5657,507.7844 785.1891,508.3641 Q785.8125,508.9328 786.9282,508.9328 Q787.5844,508.9328 788.0438,508.7578 Q788.3172,508.6484 788.6125,508.3422 Q788.7985,508.1562 788.8969,508.1016 Q789.0063,508.0469 789.1485,508.0469 Q789.3782,508.0469 789.5532,508.2328 Q789.7391,508.4078 789.7391,508.6484 Q789.7391,508.8891 789.4985,509.1734 Q789.1485,509.5781 788.5907,509.8078 Q787.836,510.125 786.9282,510.125 Q785.8672,510.125 785.025,509.6875 Q784.336,509.3375 783.8547,508.5937 Q783.3735,507.8391 783.3735,506.9422 L783.3735,506.1328 Q783.3735,505.2031 783.8,504.4047 Q784.2375,503.5953 785.0032,503.1687 Q785.7688,502.7312 786.6329,502.7312 Q787.1469,502.7312 787.5954,502.8516 Q788.0547,502.9609 788.4375,503.2125 Z " fill="#000000"/><text fill="#000000" font-family="sans-serif" font-size="9.8" lengthAdjust="spacing" textLength="51.7371" x="800.8516" y="510.1578">Workstation</text><line style="stroke:#181818;stroke-width:0.3499999999999999;" x1="719.25" x2="911.4403" y1="517.3" y2="517.3"/><line style="stroke:#181818;stroke-width:0.3499999999999999;" x1="719.25" x2="911.4403" y1="522.9" y2="522.9"/><ellipse cx="726.25" cy="533.2674" fill="#84BE84" rx="2.1" ry="2.1" style="stroke:#038048;stroke-width:0.6999999999999998;"/><text fill="#000000" font-family="sans-serif" font-size="9.8" lengthAdjust="spacing" textLength="62.0922" x="732.55" y="536.2752">getId() : String</text><ellipse cx="726.25" cy="546.3021" fill="#84BE84" rx="2.1" ry="2.1" style="stroke:#038048;stroke-width:0.6999999999999998;"/><text fill="#000000" font-family="sans-serif" font-size="9.8" lengthAdjust="spacing" textLength="96.4209" x="732.55" y="549.31">isAvailable() : boolean</text><ellipse cx="726.25" cy="559.3369" fill="#84BE84" rx="2.1" ry="2.1" style="stroke:#038048;stroke-width:0.6999999999999998;"/><text fill="#000000" font-family="sans-serif" font-size="9.8" lengthAdjust="spacing" textLength="175.3903" x="732.55" y="562.3447">processProduct(product : Product) : void</text><ellipse cx="726.25" cy="572.3717" fill="#84BE84" rx="2.1" ry="2.1" style="stroke:#038048;stroke-width:0.6999999999999998;"/><text fill="#000000" font-family="sans-serif" font-size="9.8" lengthAdjust="spacing" textLength="167.246" x="732.55" y="575.3795">setAvailable(available : boolean) : void</text><ellipse cx="726.25" cy="585.4064" fill="#84BE84" rx="2.1" ry="2.1" style="stroke:#038048;stroke-width:0.6999999999999998;"/><text fill="#000000" font-family="sans-serif" font-size="9.8" lengthAdjust="spacing" textLength="79.5245" x="732.55" y="588.4143">getTime() : double</text><ellipse cx="726.25" cy="598.4412" fill="#84BE84" rx="2.1" ry="2.1" style="stroke:#038048;stroke-width:0.6999999999999998;"/><text fill="#000000" font-family="sans-serif" font-size="9.8" lengthAdjust="spacing" textLength="144.349" x="732.55" y="601.449">getTotalExecutionTime() : double</text><ellipse cx="726.25" cy="611.476" fill="#84BE84" rx="2.1" ry="2.1" style="stroke:#038048;stroke-width:0.6999999999999998;"/><text fill="#000000" font-family="sans-serif" font-size="9.8" lengthAdjust="spacing" textLength="144.349" x="732.55" y="614.4838">getTotalOperationTime() : double</text></g><!--class MachineFlowAnalyzer--><g id="elem_MachineFlowAnalyzer"><rect codeLine="59" fill="#F1F1F1" height="46.6348" id="MachineFlowAnalyzer" rx="1.75" ry="1.75" style="stroke:#181818;stroke-width:0.3499999999999999;" width="333.5992" x="1067.15" y="373.45"/><ellipse cx="1183.0441" cy="384.65" fill="#ADD1B2" rx="7.7" ry="7.7" style="stroke:#181818;stroke-width:0.6999999999999998;"/><path d="M1184.98,381.7625 Q1185.0894,381.6094 1185.2207,381.5328 Q1185.3519,381.4562 1185.505,381.4562 Q1185.7675,381.4562 1185.9316,381.6422 Q1186.0957,381.8172 1186.0957,382.2437 L1186.0957,383.2609 Q1186.0957,383.6875 1185.9316,383.8734 Q1185.7675,384.0594 1185.505,384.0594 Q1185.2644,384.0594 1185.1222,383.9172 Q1184.98,383.7859 1184.9035,383.425 Q1184.8707,383.1734 1184.7394,383.0422 Q1184.5097,382.7797 1184.0832,382.6266 Q1183.6566,382.4734 1183.2191,382.4734 Q1182.6832,382.4734 1182.2347,382.7031 Q1181.7972,382.9328 1181.4472,383.4578 Q1181.1082,383.9828 1181.1082,384.7047 L1181.1082,385.4703 Q1181.1082,386.3344 1181.7316,386.9141 Q1182.355,387.4828 1183.4707,387.4828 Q1184.1269,387.4828 1184.5863,387.3078 Q1184.8597,387.1984 1185.155,386.8922 Q1185.341,386.7062 1185.4394,386.6516 Q1185.5488,386.5969 1185.691,386.5969 Q1185.9207,386.5969 1186.0957,386.7828 Q1186.2816,386.9578 1186.2816,387.1984 Q1186.2816,387.4391 1186.041,387.7234 Q1185.691,388.1281 1185.1332,388.3578 Q1184.3785,388.675 1183.4707,388.675 Q1182.4097,388.675 1181.5675,388.2375 Q1180.8785,387.8875 1180.3972,387.1437 Q1179.916,386.3891 1179.916,385.4922 L1179.916,384.6828 Q1179.916,383.7531 1180.3425,382.9547 Q1180.78,382.1453 1181.5457,381.7187 Q1182.3113,381.2812 1183.1753,381.2812 Q1183.6894,381.2812 1184.1378,381.4016 Q1184.5972,381.5109 1184.98,381.7625 Z " fill="#000000"/><text fill="#000000" font-family="sans-serif" font-size="9.8" lengthAdjust="spacing" textLength="95.861" x="1197.3941" y="388.7078">MachineFlowAnalyzer</text><line style="stroke:#181818;stroke-width:0.3499999999999999;" x1="1067.85" x2="1400.0492" y1="395.85" y2="395.85"/><line style="stroke:#181818;stroke-width:0.3499999999999999;" x1="1067.85" x2="1400.0492" y1="401.45" y2="401.45"/><ellipse cx="1074.85" cy="411.8174" fill="#84BE84" rx="2.1" ry="2.1" style="stroke:#038048;stroke-width:0.6999999999999998;"/><text fill="#000000" font-family="sans-serif" font-size="9.8" lengthAdjust="spacing" textLength="315.3992" x="1081.15" y="414.8252">calculateMachineDependencies(flows : Map&lt;String, List&lt;String&gt;&gt;) : void</text></g><!--link Simulator to ProductPriorityLine--><g id="link_Simulator_ProductPriorityLine"><path codeLine="63" d="M386.561,207.725 C267.246,256.473 112,319.9 112,319.9 C112,319.9 87.4527,354.2078 71.4227,376.6008 " fill="none" id="Simulator-to-ProductPriorityLine" style="stroke:#181818;stroke-width:0.6999999999999998;"/><polygon fill="#181818" points="68.978,380.016,74.9219,376.5231,71.0153,377.17,70.3683,373.2634,68.978,380.016" style="stroke:#181818;stroke-width:0.6999999999999998;"/><text fill="#000000" font-family="sans-serif" font-size="9.1" lengthAdjust="spacing" textLength="47.5573" x="112.7" y="330.4198">productLine</text></g><!--reverse link ProductPriorityLine to Simulator--><g id="link_ProductPriorityLine_Simulator"><path codeLine="70" d="M54.6811,375.811 C52.1891,357.149 49,333.2 49,333.2 C49,333.2 49,319.9 49,319.9 C49,319.9 247.072,249.767 386.736,200.319 " fill="none" id="ProductPriorityLine-backto-Simulator" style="stroke:#181818;stroke-width:0.6999999999999998;stroke-dasharray:7.0,7.0;"/><polygon fill="#181818" points="55.237,379.974,57.1785,373.3588,54.7737,376.5048,51.6278,374.1,55.237,379.974" style="stroke:#181818;stroke-width:0.6999999999999998;"/><text fill="#000000" font-family="sans-serif" font-size="9.1" lengthAdjust="spacing" textLength="47.5573" x="49.7" y="330.4198">productLine</text></g><!--link Simulator to WorkstationsPerOperation--><g id="link_Simulator_WorkstationsPerOperation"><path codeLine="64" d="M650.181,299.047 C661.339,311.752 668.5,319.9 668.5,319.9 C668.5,319.9 680.5806,353.6687 688.5956,376.0617 " fill="none" id="Simulator-to-WorkstationsPerOperation" style="stroke:#181818;stroke-width:0.6999999999999998;"/><polygon fill="#181818" points="690.011,380.016,690.5242,373.1409,688.8315,376.7207,685.2517,375.0281,690.011,380.016" style="stroke:#181818;stroke-width:0.6999999999999998;"/><text fill="#000000" font-family="sans-serif" font-size="9.1" lengthAdjust="spacing" textLength="104.6989" x="674.1" y="330.4198">workstationsPerOperation</text></g><!--reverse link WorkstationsPerOperation to Simulator--><g id="link_WorkstationsPerOperation_Simulator"><path codeLine="71" d="M656.4655,378.3199 C615.3965,359.6509 557.2,333.2 557.2,333.2 C557.2,333.2 554.435,319.207 550.445,299.019 " fill="none" id="WorkstationsPerOperation-backto-Simulator" style="stroke:#181818;stroke-width:0.6999999999999998;stroke-dasharray:7.0,7.0;"/><polygon fill="#181818" points="660.289,380.058,655.7125,374.9019,657.1028,378.6096,653.395,379.9999,660.289,380.058" style="stroke:#181818;stroke-width:0.6999999999999998;"/><text fill="#000000" font-family="sans-serif" font-size="9.1" lengthAdjust="spacing" textLength="104.6989" x="557.9" y="330.4198">workstationsPerOperation</text></g><!--link Simulator to MachineFlowAnalyzer--><g id="link_Simulator_MachineFlowAnalyzer"><path codeLine="65" d="M656.348,187.978 C843.493,237.076 1159.2,319.9 1159.2,319.9 C1159.2,319.9 1186.6238,347.8357 1208.6878,370.3127 " fill="none" id="Simulator-to-MachineFlowAnalyzer" style="stroke:#181818;stroke-width:0.6999999999999998;"/><polygon fill="#181818" points="1211.63,373.31,1209.2149,366.8527,1209.1782,370.8123,1205.2186,370.7756,1211.63,373.31" style="stroke:#181818;stroke-width:0.6999999999999998;"/><text fill="#000000" font-family="sans-serif" font-size="9.1" lengthAdjust="spacing" textLength="89.0138" x="1172.5" y="330.4198">machineFlowAnalyzer</text></g><!--reverse link MachineFlowAnalyzer to Simulator--><g id="link_MachineFlowAnalyzer_Simulator"><path codeLine="72" d="M1163.4649,372.0562 C1047.1319,332.2822 808.892,250.845 656.369,198.709 " fill="none" id="MachineFlowAnalyzer-backto-Simulator" style="stroke:#181818;stroke-width:0.6999999999999998;stroke-dasharray:7.0,7.0;"/><polygon fill="#181818" points="1167.439,373.415,1162.3836,368.7274,1164.1272,372.2827,1160.572,374.0263,1167.439,373.415" style="stroke:#181818;stroke-width:0.6999999999999998;"/><text fill="#000000" font-family="sans-serif" font-size="9.1" lengthAdjust="spacing" textLength="89.0138" x="1043.7" y="330.4198">machineFlowAnalyzer</text></g><!--link Simulator to Product--><g id="link_Simulator_Product"><path codeLine="66" d="M386.652,277.032 C360.073,301.567 340.2,319.9 340.2,319.9 C340.2,319.9 340.2,333.2 340.2,333.2 C340.2,333.2 342.8189,338.8165 348.2159,350.3735 " fill="none" id="Simulator-to-Product" style="stroke:#181818;stroke-width:0.6999999999999998;"/><polygon fill="#181818" points="349.993,354.179,349.8643,347.286,348.5121,351.0078,344.7903,349.6555,349.993,354.179" style="stroke:#181818;stroke-width:0.6999999999999998;"/><text fill="#000000" font-family="sans-serif" font-size="9.1" lengthAdjust="spacing" textLength="77.8965" x="340.9" y="330.4198">processedProducts</text></g><!--link Simulator to Product--><g id="link_Simulator_Product"><path codeLine="74" d="M440.916,299.019 C429.8,319.207 422.1,333.2 422.1,333.2 C422.1,333.2 416.9338,339.3947 407.3088,350.9517 " fill="none" id="Simulator-to-Product-1" style="stroke:#181818;stroke-width:0.6999999999999998;stroke-dasharray:7.0,7.0;"/><polygon fill="#181818" points="404.621,354.179,410.8043,351.1299,406.8608,351.4896,406.5012,347.5461,404.621,354.179" style="stroke:#181818;stroke-width:0.6999999999999998;"/><text fill="#000000" font-family="sans-serif" font-size="9.1" lengthAdjust="spacing" textLength="55.1243" x="429.8" y="330.4198">productTimes</text></g><!--link Simulator to Product--><g id="link_Simulator_Product"><path codeLine="77" d="M386.666,246.274 C331.646,284.508 280.7,319.9 280.7,319.9 C280.7,319.9 280.7,333.2 280.7,333.2 C280.7,333.2 290.5661,340.1938 306.8761,351.7508 " fill="none" id="Simulator-to-Product-2" style="stroke:#181818;stroke-width:0.6999999999999998;stroke-dasharray:7.0,7.0;"/><polygon fill="#181818" points="310.303,354.179,306.7815,348.252,307.4473,352.1555,303.5438,352.8212,310.303,354.179" style="stroke:#181818;stroke-width:0.6999999999999998;"/><text fill="#000000" font-family="sans-serif" font-size="9.1" lengthAdjust="spacing" textLength="53.0981" x="281.4" y="330.4198">waitingTimes</text></g><!--link Simulator to Workstation--><g id="link_Simulator_Workstation"><path codeLine="67" d="M656.376,238.336 C721.07,279.454 784.7,319.9 784.7,319.9 C784.7,319.9 797.7797,420.3782 806.9077,490.4832 " fill="none" id="Simulator-to-Workstation" style="stroke:#181818;stroke-width:0.6999999999999998;"/><polygon fill="#181818" points="807.45,494.648,809.4131,488.0392,806.9981,491.1773,803.86,488.7623,807.45,494.648" style="stroke:#181818;stroke-width:0.6999999999999998;"/><text fill="#000000" font-family="sans-serif" font-size="9.1" lengthAdjust="spacing" textLength="104.6989" x="800.8" y="400.7698">workstationsPerOperation</text><text fill="#000000" font-family="sans-serif" font-size="9.1" lengthAdjust="spacing" textLength="13.6589" x="793.0052" y="487.1075">0..*</text></g><!--link Simulator to Workstation--><g id="link_Simulator_Workstation"><path codeLine="76" d="M656.502,222.404 C769.153,280.651 911.4,354.2 911.4,354.2 C911.4,354.2 911.4,439.6 911.4,439.6 C911.4,439.6 891.9227,463.3377 868.9207,491.3797 " fill="none" id="Simulator-to-Workstation-1" style="stroke:#181818;stroke-width:0.6999999999999998;stroke-dasharray:7.0,7.0;"/><polygon fill="#181818" points="866.257,494.627,872.4174,491.5318,868.4767,491.9209,868.0876,487.9803,866.257,494.627" style="stroke:#181818;stroke-width:0.6999999999999998;"/><text fill="#000000" font-family="sans-serif" font-size="9.1" lengthAdjust="spacing" textLength="70.796" x="912.1" y="400.7698">workstationTimes</text></g><!--link Simulator to Operation--><g id="link_Simulator_Operation"><path codeLine="68" d="M502.572,299.04 C493.423,369.796 484.4,439.6 484.4,439.6 C484.4,439.6 428.3609,496.6635 394.9499,530.6835 " fill="none" id="Simulator-to-Operation" style="stroke:#181818;stroke-width:0.6999999999999998;"/><polygon fill="#181818" points="392.007,533.68,398.4191,531.1471,394.4594,531.1829,394.4237,527.2232,392.007,533.68" style="stroke:#181818;stroke-width:0.6999999999999998;"/><text fill="#000000" font-family="sans-serif" font-size="9.1" lengthAdjust="spacing" textLength="55.6486" x="496.3" y="400.7698">waitingQueue</text><text fill="#000000" font-family="sans-serif" font-size="9.1" lengthAdjust="spacing" textLength="13.6589" x="381.8649" y="525.8441">0..*</text></g><!--link Simulator to Operation--><g id="link_Simulator_Operation"><path codeLine="75" d="M386.589,234.745 C294.98,290.521 190.4,354.2 190.4,354.2 C190.4,354.2 190.4,439.6 190.4,439.6 C190.4,439.6 278.9533,497.3652 331.1033,531.3852 " fill="none" id="Simulator-to-Operation-1" style="stroke:#181818;stroke-width:0.6999999999999998;stroke-dasharray:7.0,7.0;"/><polygon fill="#181818" points="334.621,533.68,330.8743,527.8927,331.6896,531.7677,327.8146,532.583,334.621,533.68" style="stroke:#181818;stroke-width:0.6999999999999998;"/><text fill="#000000" font-family="sans-serif" font-size="9.1" lengthAdjust="spacing" textLength="62.718" x="191.1" y="400.7698">operationTimes</text></g><!--link Product to Operation--><g id="link_Product_Operation"><path codeLine="79" d="M369.6,439.768 C369.6,469.833 369.6,504.91 369.6,529.368 " fill="none" id="Product-to-Operation" style="stroke:#181818;stroke-width:0.6999999999999998;"/><polygon fill="#181818" points="369.6,533.568,372.4,527.268,369.6,530.068,366.8,527.268,369.6,533.568" style="stroke:#181818;stroke-width:0.6999999999999998;"/><text fill="#000000" font-family="sans-serif" font-size="9.1" lengthAdjust="spacing" textLength="68.2855" x="370.3" y="471.1198">currentOperation</text></g><!--link WorkstationsPerOperation to Workstation--><g id="link_WorkstationsPerOperation_Workstation"><path codeLine="80" d="M706.342,413.784 C720.93,436.177 745.5,473.9 745.5,473.9 C745.5,473.9 750.3252,479.5845 760.4472,491.5405 " fill="none" id="WorkstationsPerOperation-to-Workstation" style="stroke:#181818;stroke-width:0.6999999999999998;"/><polygon fill="#181818" points="763.161,494.746,761.2273,488.1285,760.8995,492.0747,756.9533,491.7469,763.161,494.746" style="stroke:#181818;stroke-width:0.6999999999999998;"/><text fill="#000000" font-family="sans-serif" font-size="9.1" lengthAdjust="spacing" textLength="50.5743" x="746.2" y="471.1198">workstations</text></g><!--SRC=[ZLR1Rk8m4BtdAwoUqgL4Uwug9DHs9QIoPGKIP-DCmSA98zi1igl- -pec98vZ0paWRBytddb-6KVkQLvWWJDKOBB7MrYgYW4IG1JEjmmYsGBa3gVyIFCj-i9CsYkCvg2g0b31MLKFeWZfXp0i9LhIh6HOSO7-cTdw6QD2yBGawaE3qJDQd4SBGRcWggfdBUoHYxrKM56UomM8pmA46MZYEh3Ktuc0b90scqXD-w1IlJJZoJ2h5SsWXirnSK4zeJTURXZOQCKLPiswthDcQL9gS1QCNvAomowLq4hwebhLtaTeafvZijEw_MByw79CkUV1n6Pc7MMQOrRz1M6OWraxFKoLZlEdX1ASRSnSA-jaIBggQmiVTPQ97xspeLD_yXd93e45J1apUShth51L_AZJsN3E0ESMJfJvcghT9KoywL0ruS1fEaJpKjr9ABHUgZFEiYv5Aafa70ARWv3K2zY2MWsTQ92E5mss3zFoDHE6O9nYM-mxijzbZxpDM_rjmqBdqs67CQtkODASfJC5cKdgxA_-ycif1EIg3Ms0mzT_X39-W1N_3IS7EpnqEOmworCunRJ-rHHz3ZtvUpMxHLg5k4M4jBhDF2zHEJrWoh0-f40fJS-xd6pJ8Rf6wt6HhhwBYY__hjguDjurfnbNlf-0b3TDQQ2VTgDqeRLfpefv-bEZt0WHp4ZT9A01lK41-lHoGa76NxTQOrkZtgoxjiRZYTVup_Obvk3NuIihT9iv4URUtkpfsFvCpzdrBpu7-V0pINuyz0nuTtODjrUNTJ54aK-mboInlWRwyWK5Sqd117s2kMIVV5PbIUBertuCE22xxlxrxW23ulh0tTRsVTbgQOItToPEjmgBw5ZIaV4_]--></g></svg>