<svg xmlns="http://www.w3.org/2000/svg" xmlns:xlink="http://www.w3.org/1999/xlink" contentStyleType="text/css" height="1121px" preserveAspectRatio="none" style="width:1309px;height:1121px;background:#FFFFFF;" version="1.1" viewBox="0 0 1309 1121" width="1309px" zoomAndPan="magnify"><defs/><g><rect fill="#FFFFFF" height="926.4883" style="stroke:#181818;stroke-width:1.0;" width="10" x="17.7793" y="93.6211"/><rect fill="#FFFFFF" height="903.1973" style="stroke:#181818;stroke-width:1.0;" width="10" x="198.1719" y="116.9121"/><rect fill="#FFFFFF" height="31.291" style="stroke:#181818;stroke-width:1.0;" width="10" x="487.647" y="148.2031"/><rect fill="#FFFFFF" height="31.291" style="stroke:#181818;stroke-width:1.0;" width="10" x="487.647" y="210.7852"/><rect fill="#FFFFFF" height="31.291" style="stroke:#181818;stroke-width:1.0;" width="10" x="611.6362" y="273.3672"/><rect fill="#FFFFFF" height="31.291" style="stroke:#181818;stroke-width:1.0;" width="10" x="776.8633" y="495.4043"/><rect fill="#FFFFFF" height="31.291" style="stroke:#181818;stroke-width:1.0;" width="10" x="909.0215" y="432.8223"/><rect fill="#FFFFFF" height="31.291" style="stroke:#181818;stroke-width:1.0;" width="10" x="909.0215" y="691.1504"/><rect fill="#FFFFFF" height="31.291" style="stroke:#181818;stroke-width:1.0;" width="10" x="1087.3623" y="584.2773"/><rect fill="#FFFFFF" height="31.291" style="stroke:#181818;stroke-width:1.0;" width="10" x="1220.6792" y="957.5273"/><rect fill="none" height="607.5781" style="stroke:#000000;stroke-width:1.5;" width="1043.6006" x="124.6616" y="319.6582"/><rect fill="none" height="485.7051" style="stroke:#000000;stroke-width:1.5;" width="1023.6006" x="134.6616" y="390.2402"/><rect fill="none" height="327.25" style="stroke:#000000;stroke-width:1.5;" width="1003.6006" x="144.6616" y="541.6953"/><rect fill="none" height="63.582" style="stroke:#000000;stroke-width:1.5;" width="252.0063" x="154.6616" y="737.4414"/><line style="stroke:#181818;stroke-width:0.5;stroke-dasharray:5.0,5.0;" x1="22" x2="22" y1="83.6211" y2="1038.1094"/><line style="stroke:#181818;stroke-width:0.5;stroke-dasharray:5.0,5.0;" x1="202.6616" x2="202.6616" y1="83.6211" y2="1038.1094"/><line style="stroke:#181818;stroke-width:0.5;stroke-dasharray:5.0,5.0;" x1="491.7954" x2="491.7954" y1="83.6211" y2="1038.1094"/><line style="stroke:#181818;stroke-width:0.5;stroke-dasharray:5.0,5.0;" x1="616.4985" x2="616.4985" y1="83.6211" y2="1038.1094"/><line style="stroke:#181818;stroke-width:0.5;stroke-dasharray:5.0,5.0;" x1="781.7739" x2="781.7739" y1="83.6211" y2="1038.1094"/><line style="stroke:#181818;stroke-width:0.5;stroke-dasharray:5.0,5.0;" x1="913.9526" x2="913.9526" y1="83.6211" y2="1038.1094"/><line style="stroke:#181818;stroke-width:0.5;stroke-dasharray:5.0,5.0;" x1="996.0903" x2="996.0903" y1="83.6211" y2="1038.1094"/><line style="stroke:#181818;stroke-width:0.5;stroke-dasharray:5.0,5.0;" x1="1091.4624" x2="1091.4624" y1="83.6211" y2="1038.1094"/><line style="stroke:#181818;stroke-width:0.5;stroke-dasharray:5.0,5.0;" x1="1225.2622" x2="1225.2622" y1="83.6211" y2="1038.1094"/><text fill="#000000" font-family="sans-serif" font-size="14" lengthAdjust="spacing" textLength="29.5586" x="5" y="80.1074">User</text><ellipse cx="22.7793" cy="13.5" fill="#E3E3E3" rx="8" ry="8" style="stroke:#181818;stroke-width:0.5;"/><path d="M22.7793,21.5 L22.7793,48.5 M9.7793,29.5 L35.7793,29.5 M22.7793,48.5 L9.7793,63.5 M22.7793,48.5 L35.7793,63.5 " fill="none" style="stroke:#181818;stroke-width:0.5;"/><text fill="#000000" font-family="sans-serif" font-size="14" lengthAdjust="spacing" textLength="29.5586" x="5" y="1052.2168">User</text><ellipse cx="22.7793" cy="1064.2305" fill="#E3E3E3" rx="8" ry="8" style="stroke:#181818;stroke-width:0.5;"/><path d="M22.7793,1072.2305 L22.7793,1099.2305 M9.7793,1080.2305 L35.7793,1080.2305 M22.7793,1099.2305 L9.7793,1114.2305 M22.7793,1099.2305 L35.7793,1114.2305 " fill="none" style="stroke:#181818;stroke-width:0.5;"/><rect fill="#E3E3E3" height="32.6211" rx="2.5" ry="2.5" style="stroke:#181818;stroke-width:0.5;" width="77.0205" x="164.6616" y="50"/><text fill="#000000" font-family="sans-serif" font-size="14" lengthAdjust="spacing" textLength="63.0205" x="171.6616" y="72.1074">:Simulator</text><rect fill="#E3E3E3" height="32.6211" rx="2.5" ry="2.5" style="stroke:#181818;stroke-width:0.5;" width="77.0205" x="164.6616" y="1037.1094"/><text fill="#000000" font-family="sans-serif" font-size="14" lengthAdjust="spacing" textLength="63.0205" x="171.6616" y="1059.2168">:Simulator</text><rect fill="#E3E3E3" height="51.2422" rx="2.5" ry="2.5" style="stroke:#181818;stroke-width:0.5;" width="95.7031" x="444.7954" y="31.3789"/><text fill="#000000" font-family="sans-serif" font-size="14" lengthAdjust="spacing" textLength="72.3652" x="456.4644" y="53.4863">repositories</text><text fill="#000000" font-family="sans-serif" font-size="14" lengthAdjust="spacing" textLength="81.7031" x="451.7954" y="72.1074">:Repositories</text><rect fill="#E3E3E3" height="51.2422" rx="2.5" ry="2.5" style="stroke:#181818;stroke-width:0.5;" width="95.7031" x="444.7954" y="1037.1094"/><text fill="#000000" font-family="sans-serif" font-size="14" lengthAdjust="spacing" textLength="72.3652" x="456.4644" y="1059.2168">repositories</text><text fill="#000000" font-family="sans-serif" font-size="14" lengthAdjust="spacing" textLength="81.7031" x="451.7954" y="1077.8379">:Repositories</text><rect fill="#E3E3E3" height="51.2422" rx="2.5" ry="2.5" style="stroke:#181818;stroke-width:0.5;" width="132.2754" x="550.4985" y="31.3789"/><text fill="#000000" font-family="sans-serif" font-size="14" lengthAdjust="spacing" textLength="65.3584" x="583.957" y="53.4863">repository:</text><text fill="#000000" font-family="sans-serif" font-size="14" lengthAdjust="spacing" textLength="118.2754" x="557.4985" y="72.1074">ProductPriorityLine</text><rect fill="#E3E3E3" height="51.2422" rx="2.5" ry="2.5" style="stroke:#181818;stroke-width:0.5;" width="132.2754" x="550.4985" y="1037.1094"/><text fill="#000000" font-family="sans-serif" font-size="14" lengthAdjust="spacing" textLength="65.3584" x="583.957" y="1059.2168">repository:</text><text fill="#000000" font-family="sans-serif" font-size="14" lengthAdjust="spacing" textLength="118.2754" x="557.4985" y="1077.8379">ProductPriorityLine</text><rect fill="#E3E3E3" height="51.2422" rx="2.5" ry="2.5" style="stroke:#181818;stroke-width:0.5;" width="178.1787" x="692.7739" y="31.3789"/><text fill="#000000" font-family="sans-serif" font-size="14" lengthAdjust="spacing" textLength="65.3584" x="749.1841" y="53.4863">repository:</text><text fill="#000000" font-family="sans-serif" font-size="14" lengthAdjust="spacing" textLength="164.1787" x="699.7739" y="72.1074">WorkstationsPerOperation</text><rect fill="#E3E3E3" height="51.2422" rx="2.5" ry="2.5" style="stroke:#181818;stroke-width:0.5;" width="178.1787" x="692.7739" y="1037.1094"/><text fill="#000000" font-family="sans-serif" font-size="14" lengthAdjust="spacing" textLength="65.3584" x="749.1841" y="1059.2168">repository:</text><text fill="#000000" font-family="sans-serif" font-size="14" lengthAdjust="spacing" textLength="164.1787" x="699.7739" y="1077.8379">WorkstationsPerOperation</text><rect fill="#E3E3E3" height="32.6211" rx="2.5" ry="2.5" style="stroke:#181818;stroke-width:0.5;" width="66.1377" x="880.9526" y="50"/><text fill="#000000" font-family="sans-serif" font-size="14" lengthAdjust="spacing" textLength="52.1377" x="887.9526" y="72.1074">:Product</text><rect fill="#E3E3E3" height="32.6211" rx="2.5" ry="2.5" style="stroke:#181818;stroke-width:0.5;" width="66.1377" x="880.9526" y="1037.1094"/><text fill="#000000" font-family="sans-serif" font-size="14" lengthAdjust="spacing" textLength="52.1377" x="887.9526" y="1059.2168">:Product</text><rect fill="#E3E3E3" height="32.6211" rx="2.5" ry="2.5" style="stroke:#181818;stroke-width:0.5;" width="79.3721" x="957.0903" y="50"/><text fill="#000000" font-family="sans-serif" font-size="14" lengthAdjust="spacing" textLength="65.3721" x="964.0903" y="72.1074">:Operation</text><rect fill="#E3E3E3" height="32.6211" rx="2.5" ry="2.5" style="stroke:#181818;stroke-width:0.5;" width="79.3721" x="957.0903" y="1037.1094"/><text fill="#000000" font-family="sans-serif" font-size="14" lengthAdjust="spacing" textLength="65.3721" x="964.0903" y="1059.2168">:Operation</text><rect fill="#E3E3E3" height="32.6211" rx="2.5" ry="2.5" style="stroke:#181818;stroke-width:0.5;" width="91.7998" x="1046.4624" y="50"/><text fill="#000000" font-family="sans-serif" font-size="14" lengthAdjust="spacing" textLength="77.7998" x="1053.4624" y="72.1074">:Workstation</text><rect fill="#E3E3E3" height="32.6211" rx="2.5" ry="2.5" style="stroke:#181818;stroke-width:0.5;" width="91.7998" x="1046.4624" y="1037.1094"/><text fill="#000000" font-family="sans-serif" font-size="14" lengthAdjust="spacing" textLength="77.7998" x="1053.4624" y="1059.2168">:Workstation</text><rect fill="#E3E3E3" height="32.6211" rx="2.5" ry="2.5" style="stroke:#181818;stroke-width:0.5;" width="154.834" x="1148.2622" y="50"/><text fill="#000000" font-family="sans-serif" font-size="14" lengthAdjust="spacing" textLength="140.834" x="1155.2622" y="72.1074">:MachineFlowAnalyzer</text><rect fill="#E3E3E3" height="32.6211" rx="2.5" ry="2.5" style="stroke:#181818;stroke-width:0.5;" width="154.834" x="1148.2622" y="1037.1094"/><text fill="#000000" font-family="sans-serif" font-size="14" lengthAdjust="spacing" textLength="140.834" x="1155.2622" y="1059.2168">:MachineFlowAnalyzer</text><rect fill="#FFFFFF" height="926.4883" style="stroke:#181818;stroke-width:1.0;" width="10" x="17.7793" y="93.6211"/><rect fill="#FFFFFF" height="903.1973" style="stroke:#181818;stroke-width:1.0;" width="10" x="198.1719" y="116.9121"/><rect fill="#FFFFFF" height="31.291" style="stroke:#181818;stroke-width:1.0;" width="10" x="487.647" y="148.2031"/><rect fill="#FFFFFF" height="31.291" style="stroke:#181818;stroke-width:1.0;" width="10" x="487.647" y="210.7852"/><rect fill="#FFFFFF" height="31.291" style="stroke:#181818;stroke-width:1.0;" width="10" x="611.6362" y="273.3672"/><rect fill="#FFFFFF" height="31.291" style="stroke:#181818;stroke-width:1.0;" width="10" x="776.8633" y="495.4043"/><rect fill="#FFFFFF" height="31.291" style="stroke:#181818;stroke-width:1.0;" width="10" x="909.0215" y="432.8223"/><rect fill="#FFFFFF" height="31.291" style="stroke:#181818;stroke-width:1.0;" width="10" x="909.0215" y="691.1504"/><rect fill="#FFFFFF" height="31.291" style="stroke:#181818;stroke-width:1.0;" width="10" x="1087.3623" y="584.2773"/><rect fill="#FFFFFF" height="31.291" style="stroke:#181818;stroke-width:1.0;" width="10" x="1220.6792" y="957.5273"/><polygon fill="#181818" points="186.1719,112.9121,196.1719,116.9121,186.1719,120.9121,190.1719,116.9121" style="stroke:#181818;stroke-width:1.0;"/><line style="stroke:#181818;stroke-width:1.0;" x1="27.7793" x2="192.1719" y1="116.9121" y2="116.9121"/><text fill="#000000" font-family="sans-serif" font-size="13" font-weight="bold" lengthAdjust="spacing" textLength="7.23" x="34.7793" y="111.6494">1</text><text fill="#000000" font-family="sans-serif" font-size="13" lengthAdjust="spacing" textLength="140.1626" x="46.0093" y="111.6494">runWithPriority(boolean)</text><polygon fill="#181818" points="475.647,144.2031,485.647,148.2031,475.647,152.2031,479.647,148.2031" style="stroke:#181818;stroke-width:1.0;"/><line style="stroke:#181818;stroke-width:1.0;" x1="208.1719" x2="481.647" y1="148.2031" y2="148.2031"/><text fill="#000000" font-family="sans-serif" font-size="13" font-weight="bold" lengthAdjust="spacing" textLength="7.23" x="215.1719" y="142.9404">2</text><text fill="#000000" font-family="sans-serif" font-size="13" lengthAdjust="spacing" textLength="174.1162" x="226.4019" y="142.9404">getProductPriorityRepository()</text><polygon fill="#181818" points="219.1719,175.4941,209.1719,179.4941,219.1719,183.4941,215.1719,179.4941" style="stroke:#181818;stroke-width:1.0;"/><line style="stroke:#181818;stroke-width:1.0;stroke-dasharray:2.0,2.0;" x1="213.1719" x2="491.647" y1="179.4941" y2="179.4941"/><text fill="#000000" font-family="sans-serif" font-size="13" font-weight="bold" lengthAdjust="spacing" textLength="7.23" x="225.1719" y="174.2314">3</text><text fill="#000000" font-family="sans-serif" font-size="13" lengthAdjust="spacing" textLength="109.8271" x="236.4019" y="174.2314">ProductPriorityLine</text><polygon fill="#181818" points="475.647,206.7852,485.647,210.7852,475.647,214.7852,479.647,210.7852" style="stroke:#181818;stroke-width:1.0;"/><line style="stroke:#181818;stroke-width:1.0;" x1="208.1719" x2="481.647" y1="210.7852" y2="210.7852"/><text fill="#000000" font-family="sans-serif" font-size="13" font-weight="bold" lengthAdjust="spacing" textLength="7.23" x="215.1719" y="205.5225">4</text><text fill="#000000" font-family="sans-serif" font-size="13" lengthAdjust="spacing" textLength="179.1816" x="226.4019" y="205.5225">getWorkstationsPerOperation()</text><polygon fill="#181818" points="219.1719,238.0762,209.1719,242.0762,219.1719,246.0762,215.1719,242.0762" style="stroke:#181818;stroke-width:1.0;"/><line style="stroke:#181818;stroke-width:1.0;stroke-dasharray:2.0,2.0;" x1="213.1719" x2="491.647" y1="242.0762" y2="242.0762"/><text fill="#000000" font-family="sans-serif" font-size="13" font-weight="bold" lengthAdjust="spacing" textLength="7.23" x="225.1719" y="236.8135">5</text><text fill="#000000" font-family="sans-serif" font-size="13" lengthAdjust="spacing" textLength="152.4517" x="236.4019" y="236.8135">WorkstationsPerOperation</text><polygon fill="#181818" points="599.6362,269.3672,609.6362,273.3672,599.6362,277.3672,603.6362,273.3672" style="stroke:#181818;stroke-width:1.0;"/><line style="stroke:#181818;stroke-width:1.0;" x1="208.1719" x2="605.6362" y1="273.3672" y2="273.3672"/><text fill="#000000" font-family="sans-serif" font-size="13" font-weight="bold" lengthAdjust="spacing" textLength="7.23" x="215.1719" y="268.1045">6</text><text fill="#000000" font-family="sans-serif" font-size="13" lengthAdjust="spacing" textLength="207.3271" x="226.4019" y="268.1045">getProductsByPriority(PriorityOrder)</text><polygon fill="#181818" points="219.1719,300.6582,209.1719,304.6582,219.1719,308.6582,215.1719,304.6582" style="stroke:#181818;stroke-width:1.0;"/><line style="stroke:#181818;stroke-width:1.0;stroke-dasharray:2.0,2.0;" x1="213.1719" x2="615.6362" y1="304.6582" y2="304.6582"/><text fill="#000000" font-family="sans-serif" font-size="13" font-weight="bold" lengthAdjust="spacing" textLength="7.23" x="225.1719" y="299.3955">7</text><text fill="#000000" font-family="sans-serif" font-size="13" lengthAdjust="spacing" textLength="80.2153" x="236.4019" y="299.3955">List&lt;Product&gt;</text><path d="M124.6616,319.6582 L197.0962,319.6582 L197.0962,328.9492 L187.0962,338.9492 L124.6616,338.9492 L124.6616,319.6582 " fill="#EEEEEE" style="stroke:#000000;stroke-width:1.5;"/><rect fill="none" height="607.5781" style="stroke:#000000;stroke-width:1.5;" width="1043.6006" x="124.6616" y="319.6582"/><text fill="#000000" font-family="sans-serif" font-size="13" font-weight="bold" lengthAdjust="spacing" textLength="27.4346" x="139.6616" y="334.6865">loop</text><text fill="#000000" font-family="sans-serif" font-size="11" font-weight="bold" lengthAdjust="spacing" textLength="146.7329" x="212.0962" y="333.5283">[Process each priority level]</text><line style="stroke:#181818;stroke-width:1.0;" x1="208.1719" x2="250.1719" y1="362.2402" y2="362.2402"/><line style="stroke:#181818;stroke-width:1.0;" x1="250.1719" x2="250.1719" y1="362.2402" y2="375.2402"/><line style="stroke:#181818;stroke-width:1.0;" x1="209.1719" x2="250.1719" y1="375.2402" y2="375.2402"/><polygon fill="#181818" points="219.1719,371.2402,209.1719,375.2402,219.1719,379.2402,215.1719,375.2402" style="stroke:#181818;stroke-width:1.0;"/><text fill="#000000" font-family="sans-serif" font-size="13" font-weight="bold" lengthAdjust="spacing" textLength="7.23" x="215.1719" y="356.9775">8</text><text fill="#000000" font-family="sans-serif" font-size="13" lengthAdjust="spacing" textLength="180.6162" x="226.4019" y="356.9775">returnToFirstOp(List&lt;Product&gt;)</text><path d="M134.6616,390.2402 L207.0962,390.2402 L207.0962,399.5313 L197.0962,409.5313 L134.6616,409.5313 L134.6616,390.2402 " fill="#EEEEEE" style="stroke:#000000;stroke-width:1.5;"/><rect fill="none" height="485.7051" style="stroke:#000000;stroke-width:1.5;" width="1023.6006" x="134.6616" y="390.2402"/><text fill="#000000" font-family="sans-serif" font-size="13" font-weight="bold" lengthAdjust="spacing" textLength="27.4346" x="149.6616" y="405.2686">loop</text><text fill="#000000" font-family="sans-serif" font-size="11" font-weight="bold" lengthAdjust="spacing" textLength="122.2568" x="222.0962" y="404.1104">[Process each product]</text><polygon fill="#181818" points="897.0215,428.8223,907.0215,432.8223,897.0215,436.8223,901.0215,432.8223" style="stroke:#181818;stroke-width:1.0;"/><line style="stroke:#181818;stroke-width:1.0;" x1="208.1719" x2="903.0215" y1="432.8223" y2="432.8223"/><text fill="#000000" font-family="sans-serif" font-size="13" font-weight="bold" lengthAdjust="spacing" textLength="7.23" x="215.1719" y="427.5596">9</text><text fill="#000000" font-family="sans-serif" font-size="13" lengthAdjust="spacing" textLength="127.1689" x="226.4019" y="427.5596">getCurrentOperation()</text><polygon fill="#181818" points="219.1719,460.1133,209.1719,464.1133,219.1719,468.1133,215.1719,464.1133" style="stroke:#181818;stroke-width:1.0;"/><line style="stroke:#181818;stroke-width:1.0;stroke-dasharray:2.0,2.0;" x1="213.1719" x2="913.0215" y1="464.1133" y2="464.1133"/><text fill="#000000" font-family="sans-serif" font-size="13" font-weight="bold" lengthAdjust="spacing" textLength="14.46" x="225.1719" y="458.8506">10</text><text fill="#000000" font-family="sans-serif" font-size="13" lengthAdjust="spacing" textLength="57.0908" x="243.6318" y="458.8506">Operation</text><polygon fill="#181818" points="764.8633,491.4043,774.8633,495.4043,764.8633,499.4043,768.8633,495.4043" style="stroke:#181818;stroke-width:1.0;"/><line style="stroke:#181818;stroke-width:1.0;" x1="208.1719" x2="770.8633" y1="495.4043" y2="495.4043"/><text fill="#000000" font-family="sans-serif" font-size="13" font-weight="bold" lengthAdjust="spacing" textLength="14.46" x="215.1719" y="490.1416">11</text><text fill="#000000" font-family="sans-serif" font-size="13" lengthAdjust="spacing" textLength="284.7051" x="233.6318" y="490.1416">getWorkstationsByOperation(Operation, boolean)</text><polygon fill="#181818" points="219.1719,522.6953,209.1719,526.6953,219.1719,530.6953,215.1719,526.6953" style="stroke:#181818;stroke-width:1.0;"/><line style="stroke:#181818;stroke-width:1.0;stroke-dasharray:2.0,2.0;" x1="213.1719" x2="780.8633" y1="526.6953" y2="526.6953"/><text fill="#000000" font-family="sans-serif" font-size="13" font-weight="bold" lengthAdjust="spacing" textLength="14.46" x="225.1719" y="521.4326">12</text><text fill="#000000" font-family="sans-serif" font-size="13" lengthAdjust="spacing" textLength="104.0444" x="243.6318" y="521.4326">List&lt;Workstation&gt;</text><path d="M144.6616,541.6953 L204.8325,541.6953 L204.8325,550.9863 L194.8325,560.9863 L144.6616,560.9863 L144.6616,541.6953 " fill="#EEEEEE" style="stroke:#000000;stroke-width:1.5;"/><rect fill="none" height="327.25" style="stroke:#000000;stroke-width:1.5;" width="1003.6006" x="144.6616" y="541.6953"/><text fill="#000000" font-family="sans-serif" font-size="13" font-weight="bold" lengthAdjust="spacing" textLength="15.1709" x="159.6616" y="556.7236">alt</text><text fill="#000000" font-family="sans-serif" font-size="11" font-weight="bold" lengthAdjust="spacing" textLength="120.4146" x="219.8325" y="555.5654">[Workstation available]</text><polygon fill="#181818" points="1075.3623,580.2773,1085.3623,584.2773,1075.3623,588.2773,1079.3623,584.2773" style="stroke:#181818;stroke-width:1.0;"/><line style="stroke:#181818;stroke-width:1.0;" x1="208.1719" x2="1081.3623" y1="584.2773" y2="584.2773"/><text fill="#000000" font-family="sans-serif" font-size="13" font-weight="bold" lengthAdjust="spacing" textLength="14.46" x="215.1719" y="579.0146">13</text><text fill="#000000" font-family="sans-serif" font-size="13" lengthAdjust="spacing" textLength="143.7808" x="233.6318" y="579.0146">processProduct(Product)</text><polygon fill="#181818" points="219.1719,611.5684,209.1719,615.5684,219.1719,619.5684,215.1719,615.5684" style="stroke:#181818;stroke-width:1.0;"/><line style="stroke:#181818;stroke-width:1.0;stroke-dasharray:2.0,2.0;" x1="213.1719" x2="1091.3623" y1="615.5684" y2="615.5684"/><text fill="#000000" font-family="sans-serif" font-size="13" font-weight="bold" lengthAdjust="spacing" textLength="14.46" x="225.1719" y="610.3057">14</text><text fill="#000000" font-family="sans-serif" font-size="13" lengthAdjust="spacing" textLength="83.0972" x="243.6318" y="610.3057">operationTime</text><line style="stroke:#181818;stroke-width:1.0;" x1="208.1719" x2="250.1719" y1="646.8594" y2="646.8594"/><line style="stroke:#181818;stroke-width:1.0;" x1="250.1719" x2="250.1719" y1="646.8594" y2="659.8594"/><line style="stroke:#181818;stroke-width:1.0;" x1="209.1719" x2="250.1719" y1="659.8594" y2="659.8594"/><polygon fill="#181818" points="219.1719,655.8594,209.1719,659.8594,219.1719,663.8594,215.1719,659.8594" style="stroke:#181818;stroke-width:1.0;"/><text fill="#000000" font-family="sans-serif" font-size="13" font-weight="bold" lengthAdjust="spacing" textLength="14.46" x="215.1719" y="641.5967">15</text><text fill="#000000" font-family="sans-serif" font-size="13" lengthAdjust="spacing" textLength="208.8315" x="233.6318" y="641.5967">updateProductAndOperationTimes()</text><polygon fill="#181818" points="897.0215,687.1504,907.0215,691.1504,897.0215,695.1504,901.0215,691.1504" style="stroke:#181818;stroke-width:1.0;"/><line style="stroke:#181818;stroke-width:1.0;" x1="208.1719" x2="903.0215" y1="691.1504" y2="691.1504"/><text fill="#000000" font-family="sans-serif" font-size="13" font-weight="bold" lengthAdjust="spacing" textLength="14.46" x="215.1719" y="685.8877">16</text><text fill="#000000" font-family="sans-serif" font-size="13" lengthAdjust="spacing" textLength="139.439" x="233.6318" y="685.8877">moveToNextOperation()</text><polygon fill="#181818" points="219.1719,718.4414,209.1719,722.4414,219.1719,726.4414,215.1719,722.4414" style="stroke:#181818;stroke-width:1.0;"/><line style="stroke:#181818;stroke-width:1.0;stroke-dasharray:2.0,2.0;" x1="213.1719" x2="913.0215" y1="722.4414" y2="722.4414"/><text fill="#000000" font-family="sans-serif" font-size="13" font-weight="bold" lengthAdjust="spacing" textLength="14.46" x="225.1719" y="717.1787">17</text><text fill="#000000" font-family="sans-serif" font-size="13" lengthAdjust="spacing" textLength="46.2681" x="243.6318" y="717.1787">boolean</text><path d="M154.6616,737.4414 L214.8325,737.4414 L214.8325,746.7324 L204.8325,756.7324 L154.6616,756.7324 L154.6616,737.4414 " fill="#EEEEEE" style="stroke:#000000;stroke-width:1.5;"/><rect fill="none" height="63.582" style="stroke:#000000;stroke-width:1.5;" width="252.0063" x="154.6616" y="737.4414"/><text fill="#000000" font-family="sans-serif" font-size="13" font-weight="bold" lengthAdjust="spacing" textLength="15.1709" x="169.6616" y="752.4697">alt</text><text fill="#000000" font-family="sans-serif" font-size="11" font-weight="bold" lengthAdjust="spacing" textLength="138.7354" x="229.8325" y="751.3115">[All operations completed]</text><line style="stroke:#181818;stroke-width:1.0;" x1="208.1719" x2="250.1719" y1="780.0234" y2="780.0234"/><line style="stroke:#181818;stroke-width:1.0;" x1="250.1719" x2="250.1719" y1="780.0234" y2="793.0234"/><line style="stroke:#181818;stroke-width:1.0;" x1="209.1719" x2="250.1719" y1="793.0234" y2="793.0234"/><polygon fill="#181818" points="219.1719,789.0234,209.1719,793.0234,219.1719,797.0234,215.1719,793.0234" style="stroke:#181818;stroke-width:1.0;"/><text fill="#000000" font-family="sans-serif" font-size="13" font-weight="bold" lengthAdjust="spacing" textLength="14.46" x="215.1719" y="774.7607">18</text><text fill="#000000" font-family="sans-serif" font-size="13" lengthAdjust="spacing" textLength="151.0361" x="233.6318" y="774.7607">add to processedProducts</text><line style="stroke:#000000;stroke-width:1.0;stroke-dasharray:2.0,2.0;" x1="144.6616" x2="1148.2622" y1="809.0234" y2="809.0234"/><text fill="#000000" font-family="sans-serif" font-size="11" font-weight="bold" lengthAdjust="spacing" textLength="136.3076" x="149.6616" y="820.8936">[No available workstation]</text><line style="stroke:#181818;stroke-width:1.0;" x1="208.1719" x2="250.1719" y1="847.9453" y2="847.9453"/><line style="stroke:#181818;stroke-width:1.0;" x1="250.1719" x2="250.1719" y1="847.9453" y2="860.9453"/><line style="stroke:#181818;stroke-width:1.0;" x1="209.1719" x2="250.1719" y1="860.9453" y2="860.9453"/><polygon fill="#181818" points="219.1719,856.9453,209.1719,860.9453,219.1719,864.9453,215.1719,860.9453" style="stroke:#181818;stroke-width:1.0;"/><text fill="#000000" font-family="sans-serif" font-size="13" font-weight="bold" lengthAdjust="spacing" textLength="14.46" x="215.1719" y="842.6826">19</text><text fill="#000000" font-family="sans-serif" font-size="13" lengthAdjust="spacing" textLength="237.0151" x="233.6318" y="842.6826">addToWaitingQueue(Product, Operation)</text><line style="stroke:#181818;stroke-width:1.0;" x1="208.1719" x2="250.1719" y1="906.2363" y2="906.2363"/><line style="stroke:#181818;stroke-width:1.0;" x1="250.1719" x2="250.1719" y1="906.2363" y2="919.2363"/><line style="stroke:#181818;stroke-width:1.0;" x1="209.1719" x2="250.1719" y1="919.2363" y2="919.2363"/><polygon fill="#181818" points="219.1719,915.2363,209.1719,919.2363,219.1719,923.2363,215.1719,919.2363" style="stroke:#181818;stroke-width:1.0;"/><text fill="#000000" font-family="sans-serif" font-size="13" font-weight="bold" lengthAdjust="spacing" textLength="14.46" x="215.1719" y="900.9736">20</text><text fill="#000000" font-family="sans-serif" font-size="13" lengthAdjust="spacing" textLength="136.5571" x="233.6318" y="900.9736">processWaitingQueue()</text><polygon fill="#181818" points="1208.6792,953.5273,1218.6792,957.5273,1208.6792,961.5273,1212.6792,957.5273" style="stroke:#181818;stroke-width:1.0;"/><line style="stroke:#181818;stroke-width:1.0;" x1="208.1719" x2="1214.6792" y1="957.5273" y2="957.5273"/><text fill="#000000" font-family="sans-serif" font-size="13" font-weight="bold" lengthAdjust="spacing" textLength="14.46" x="215.1719" y="952.2646">21</text><text fill="#000000" font-family="sans-serif" font-size="13" lengthAdjust="spacing" textLength="192.2197" x="233.6318" y="952.2646">calculateMachineDependencies()</text><polygon fill="#181818" points="219.1719,984.8184,209.1719,988.8184,219.1719,992.8184,215.1719,988.8184" style="stroke:#181818;stroke-width:1.0;"/><line style="stroke:#181818;stroke-width:1.0;stroke-dasharray:2.0,2.0;" x1="213.1719" x2="1224.6792" y1="988.8184" y2="988.8184"/><text fill="#000000" font-family="sans-serif" font-size="13" font-weight="bold" lengthAdjust="spacing" textLength="14.46" x="225.1719" y="983.5557">22</text><text fill="#000000" font-family="sans-serif" font-size="13" lengthAdjust="spacing" textLength="143.1079" x="243.6318" y="983.5557">dependencies calculated</text><polygon fill="#181818" points="33.7793,1016.1094,23.7793,1020.1094,33.7793,1024.1094,29.7793,1020.1094" style="stroke:#181818;stroke-width:1.0;"/><line style="stroke:#181818;stroke-width:1.0;stroke-dasharray:2.0,2.0;" x1="27.7793" x2="202.1719" y1="1020.1094" y2="1020.1094"/><text fill="#000000" font-family="sans-serif" font-size="13" font-weight="bold" lengthAdjust="spacing" textLength="14.46" x="39.7793" y="1014.8467">23</text><text fill="#000000" font-family="sans-serif" font-size="13" lengthAdjust="spacing" textLength="106.209" x="58.2393" y="1014.8467">Processing results</text><!--SRC=[dLPDZziW4BtxLw0z9TBk7uYgIDbMUzfkqcwgNFP2p3H1mO3uIEh- -cB7670WhUf3Wc7cpPjvOq2VA9TOuGOrWelwg4G3o2WBbHvN9AvF-03lfcM05DG6ymEB3VGH4t6X_81-OgQXgh0rWjjc3ygDQoCKUlYXGJqWh54tg9oVeJMLc1lqi7YdZMNOcVK6urjgfK0AJTqq1Vt15z-ZrzujdYXujeiFlb62sDfi57MMfdsb77htpFmTb9rG9ssmeOBh3QYr1DM_z52bnKdMGyGu-iGYXItXHE6cuIUMNt5zT7czC75PSSpQtuCacVbUDth61gw2LTqlUbe6TT02ASjtr1nzpMPx8HXWFW- -GSigE3gKM2m7T00pgVzeqCuYk4JZ1EDfGYqd9u4yqD-ebVJyFsR5xlWtUfd4aWBgvtRKmm_MYe2AoEQAayETKd-bsdmQ39SntnnWnOIGtKeDMYDdUqHoM4SCpi0gv9uajwItm5Z5j-A5ActMSfR4dbUzSox2zJj2mvChtRLSdwrIm4qifdUQfZKkU81fNOA6tlAsDbMUKwaRRZllkGrSnz4Z6h-v6_R5HlEMnTXPtIFhPIxFOhZ0Z9dO2k4pfWpltL62egTK7iT3NgKUAZeR_kU9UuvFOX13JXCLdlIMDYchVA9LcNaCQoLnZWFT5IVhE8oUpSieeMKRSOQjU8DVsPQzsxRtMdTedrAkDythTLmn5ggbKIqQoS00IGpl5WKJWepmcWBn-rU209o4sE3k5kXDXBv1buB6zu9knGvJuouhtonOy4tq63xYKDKkUiAYY3jaaI2xJQftJ9moHwrphp6hEniObh-0TAx0QzgtnoX7xg3E8KvL9X5U24RYBJnx1uYeEyJ-2h3m6svttLEWBNEIHJZXn8yc-ol47m00]--></g></svg>