<svg xmlns="http://www.w3.org/2000/svg" xmlns:xlink="http://www.w3.org/1999/xlink" contentStyleType="text/css" height="757px" preserveAspectRatio="none" style="width:938px;height:757px;background:#FFFFFF;" version="1.1" viewBox="0 0 938 757" width="938px" zoomAndPan="magnify"><defs/><g><rect fill="#FFFFFF" height="562.9473" style="stroke:#181818;stroke-width:1.0;" width="10" x="17.7793" y="93.6211"/><rect fill="#FFFFFF" height="93.873" style="stroke:#181818;stroke-width:1.0;" width="10" x="344.8726" y="116.9121"/><rect fill="#FFFFFF" height="213.7461" style="stroke:#181818;stroke-width:1.0;" width="10" x="344.8726" y="242.0762"/><rect fill="#FFFFFF" height="169.4551" style="stroke:#181818;stroke-width:1.0;" width="10" x="344.8726" y="487.1133"/><rect fill="#FFFFFF" height="392.2012" style="stroke:#181818;stroke-width:1.0;" width="10" x="507.9233" y="273.3672"/><rect fill="#FFFFFF" height="42.291" style="stroke:#181818;stroke-width:1.0;" width="10" x="512.9233" y="312.6582"/><rect fill="#FFFFFF" height="37.291" style="stroke:#181818;stroke-width:1.0;" width="10" x="512.9233" y="549.6953"/><rect fill="#FFFFFF" height="31.291" style="stroke:#181818;stroke-width:1.0;" width="10" x="790.7676" y="148.2031"/><rect fill="#FFFFFF" height="31.291" style="stroke:#181818;stroke-width:1.0;" width="10" x="790.7676" y="393.2402"/><rect fill="#FFFFFF" height="106.873" style="stroke:#181818;stroke-width:1.0;" width="10" x="790.7676" y="518.4043"/><line style="stroke:#181818;stroke-width:0.5;stroke-dasharray:5.0,5.0;" x1="22" x2="22" y1="83.6211" y2="674.5684"/><line style="stroke:#181818;stroke-width:0.5;stroke-dasharray:5.0,5.0;" x1="349.0693" x2="349.0693" y1="83.6211" y2="674.5684"/><line style="stroke:#181818;stroke-width:0.5;stroke-dasharray:5.0,5.0;" x1="512.3994" x2="512.3994" y1="83.6211" y2="674.5684"/><line style="stroke:#181818;stroke-width:0.5;stroke-dasharray:5.0,5.0;" x1="795.623" x2="795.623" y1="83.6211" y2="674.5684"/><line style="stroke:#181818;stroke-width:0.5;stroke-dasharray:5.0,5.0;" x1="897.9121" x2="897.9121" y1="83.6211" y2="674.5684"/><text fill="#000000" font-family="sans-serif" font-size="14" lengthAdjust="spacing" textLength="29.5586" x="5" y="80.1074">User</text><ellipse cx="22.7793" cy="13.5" fill="#E3E3E3" rx="8" ry="8" style="stroke:#181818;stroke-width:0.5;"/><path d="M22.7793,21.5 L22.7793,48.5 M9.7793,29.5 L35.7793,29.5 M22.7793,48.5 L9.7793,63.5 M22.7793,48.5 L35.7793,63.5 " fill="none" style="stroke:#181818;stroke-width:0.5;"/><text fill="#000000" font-family="sans-serif" font-size="14" lengthAdjust="spacing" textLength="29.5586" x="5" y="688.6758">User</text><ellipse cx="22.7793" cy="700.6895" fill="#E3E3E3" rx="8" ry="8" style="stroke:#181818;stroke-width:0.5;"/><path d="M22.7793,708.6895 L22.7793,735.6895 M9.7793,716.6895 L35.7793,716.6895 M22.7793,735.6895 L9.7793,750.6895 M22.7793,735.6895 L35.7793,750.6895 " fill="none" style="stroke:#181818;stroke-width:0.5;"/><rect fill="#E3E3E3" height="32.6211" rx="2.5" ry="2.5" style="stroke:#181818;stroke-width:0.5;" width="113.6064" x="293.0693" y="50"/><text fill="#000000" font-family="sans-serif" font-size="14" lengthAdjust="spacing" textLength="99.6064" x="300.0693" y="72.1074">:ProductionTree</text><rect fill="#E3E3E3" height="32.6211" rx="2.5" ry="2.5" style="stroke:#181818;stroke-width:0.5;" width="113.6064" x="293.0693" y="673.5684"/><text fill="#000000" font-family="sans-serif" font-size="14" lengthAdjust="spacing" textLength="99.6064" x="300.0693" y="695.6758">:ProductionTree</text><rect fill="#E3E3E3" height="32.6211" rx="2.5" ry="2.5" style="stroke:#181818;stroke-width:0.5;" width="147.0479" x="439.3994" y="50"/><text fill="#000000" font-family="sans-serif" font-size="14" lengthAdjust="spacing" textLength="133.0479" x="446.3994" y="72.1074">:MaterialQuantityBST</text><rect fill="#E3E3E3" height="32.6211" rx="2.5" ry="2.5" style="stroke:#181818;stroke-width:0.5;" width="147.0479" x="439.3994" y="673.5684"/><text fill="#000000" font-family="sans-serif" font-size="14" lengthAdjust="spacing" textLength="133.0479" x="446.3994" y="695.6758">:MaterialQuantityBST</text><rect fill="#E3E3E3" height="32.6211" rx="2.5" ry="2.5" style="stroke:#181818;stroke-width:0.5;" width="118.2891" x="736.623" y="50"/><text fill="#000000" font-family="sans-serif" font-size="14" lengthAdjust="spacing" textLength="104.2891" x="743.623" y="72.1074">:ProductionNode</text><rect fill="#E3E3E3" height="32.6211" rx="2.5" ry="2.5" style="stroke:#181818;stroke-width:0.5;" width="118.2891" x="736.623" y="673.5684"/><text fill="#000000" font-family="sans-serif" font-size="14" lengthAdjust="spacing" textLength="104.2891" x="743.623" y="695.6758">:ProductionNode</text><rect fill="#E3E3E3" height="32.6211" rx="2.5" ry="2.5" style="stroke:#181818;stroke-width:0.5;" width="67.6826" x="864.9121" y="50"/><text fill="#000000" font-family="sans-serif" font-size="14" lengthAdjust="spacing" textLength="53.6826" x="871.9121" y="72.1074">:Material</text><rect fill="#E3E3E3" height="32.6211" rx="2.5" ry="2.5" style="stroke:#181818;stroke-width:0.5;" width="67.6826" x="864.9121" y="673.5684"/><text fill="#000000" font-family="sans-serif" font-size="14" lengthAdjust="spacing" textLength="53.6826" x="871.9121" y="695.6758">:Material</text><rect fill="#FFFFFF" height="562.9473" style="stroke:#181818;stroke-width:1.0;" width="10" x="17.7793" y="93.6211"/><rect fill="#FFFFFF" height="93.873" style="stroke:#181818;stroke-width:1.0;" width="10" x="344.8726" y="116.9121"/><rect fill="#FFFFFF" height="213.7461" style="stroke:#181818;stroke-width:1.0;" width="10" x="344.8726" y="242.0762"/><rect fill="#FFFFFF" height="169.4551" style="stroke:#181818;stroke-width:1.0;" width="10" x="344.8726" y="487.1133"/><rect fill="#FFFFFF" height="392.2012" style="stroke:#181818;stroke-width:1.0;" width="10" x="507.9233" y="273.3672"/><rect fill="#FFFFFF" height="42.291" style="stroke:#181818;stroke-width:1.0;" width="10" x="512.9233" y="312.6582"/><rect fill="#FFFFFF" height="37.291" style="stroke:#181818;stroke-width:1.0;" width="10" x="512.9233" y="549.6953"/><rect fill="#FFFFFF" height="31.291" style="stroke:#181818;stroke-width:1.0;" width="10" x="790.7676" y="148.2031"/><rect fill="#FFFFFF" height="31.291" style="stroke:#181818;stroke-width:1.0;" width="10" x="790.7676" y="393.2402"/><rect fill="#FFFFFF" height="106.873" style="stroke:#181818;stroke-width:1.0;" width="10" x="790.7676" y="518.4043"/><polygon fill="#181818" points="332.8726,112.9121,342.8726,116.9121,332.8726,120.9121,336.8726,116.9121" style="stroke:#181818;stroke-width:1.0;"/><line style="stroke:#181818;stroke-width:1.0;" x1="27.7793" x2="338.8726" y1="116.9121" y2="116.9121"/><text fill="#000000" font-family="sans-serif" font-size="13" font-weight="bold" lengthAdjust="spacing" textLength="7.23" x="34.7793" y="111.6494">1</text><text fill="#000000" font-family="sans-serif" font-size="13" lengthAdjust="spacing" textLength="93.9517" x="46.0093" y="111.6494">create operation</text><polygon fill="#181818" points="778.7676,144.2031,788.7676,148.2031,778.7676,152.2031,782.7676,148.2031" style="stroke:#181818;stroke-width:1.0;"/><line style="stroke:#181818;stroke-width:1.0;" x1="354.8726" x2="784.7676" y1="148.2031" y2="148.2031"/><text fill="#000000" font-family="sans-serif" font-size="13" font-weight="bold" lengthAdjust="spacing" textLength="7.23" x="361.8726" y="142.9404">2</text><text fill="#000000" font-family="sans-serif" font-size="13" lengthAdjust="spacing" textLength="130.0508" x="373.1025" y="142.9404">create(id, name, price)</text><polygon fill="#181818" points="365.8726,175.4941,355.8726,179.4941,365.8726,183.4941,361.8726,179.4941" style="stroke:#181818;stroke-width:1.0;"/><line style="stroke:#181818;stroke-width:1.0;stroke-dasharray:2.0,2.0;" x1="359.8726" x2="794.7676" y1="179.4941" y2="179.4941"/><text fill="#000000" font-family="sans-serif" font-size="13" font-weight="bold" lengthAdjust="spacing" textLength="7.23" x="371.8726" y="174.2314">3</text><text fill="#000000" font-family="sans-serif" font-size="13" lengthAdjust="spacing" textLength="75.8926" x="383.1025" y="174.2314">node created</text><polygon fill="#181818" points="38.7793,206.7852,28.7793,210.7852,38.7793,214.7852,34.7793,210.7852" style="stroke:#181818;stroke-width:1.0;"/><line style="stroke:#181818;stroke-width:1.0;stroke-dasharray:2.0,2.0;" x1="32.7793" x2="348.8726" y1="210.7852" y2="210.7852"/><text fill="#000000" font-family="sans-serif" font-size="13" font-weight="bold" lengthAdjust="spacing" textLength="7.23" x="44.7793" y="205.5225">4</text><text fill="#000000" font-family="sans-serif" font-size="13" lengthAdjust="spacing" textLength="78.7808" x="56.0093" y="205.5225">node inserted</text><polygon fill="#181818" points="332.8726,238.0762,342.8726,242.0762,332.8726,246.0762,336.8726,242.0762" style="stroke:#181818;stroke-width:1.0;"/><line style="stroke:#181818;stroke-width:1.0;" x1="27.7793" x2="338.8726" y1="242.0762" y2="242.0762"/><text fill="#000000" font-family="sans-serif" font-size="13" font-weight="bold" lengthAdjust="spacing" textLength="7.23" x="34.7793" y="236.8135">5</text><text fill="#000000" font-family="sans-serif" font-size="13" lengthAdjust="spacing" textLength="131.4854" x="46.0093" y="236.8135">create material(param)</text><polygon fill="#181818" points="495.9233,269.3672,505.9233,273.3672,495.9233,277.3672,499.9233,273.3672" style="stroke:#181818;stroke-width:1.0;"/><line style="stroke:#181818;stroke-width:1.0;" x1="354.8726" x2="501.9233" y1="273.3672" y2="273.3672"/><text fill="#000000" font-family="sans-serif" font-size="13" font-weight="bold" lengthAdjust="spacing" textLength="7.23" x="361.8726" y="268.1045">6</text><text fill="#000000" font-family="sans-serif" font-size="13" lengthAdjust="spacing" textLength="122.8208" x="373.1025" y="268.1045">addMaterial(material)</text><line style="stroke:#181818;stroke-width:1.0;" x1="517.9233" x2="564.9233" y1="299.6582" y2="299.6582"/><line style="stroke:#181818;stroke-width:1.0;" x1="564.9233" x2="564.9233" y1="299.6582" y2="312.6582"/><line style="stroke:#181818;stroke-width:1.0;" x1="523.9233" x2="564.9233" y1="312.6582" y2="312.6582"/><polygon fill="#181818" points="533.9233,308.6582,523.9233,312.6582,533.9233,316.6582,529.9233,312.6582" style="stroke:#181818;stroke-width:1.0;"/><text fill="#000000" font-family="sans-serif" font-size="13" font-weight="bold" lengthAdjust="spacing" textLength="7.23" x="529.9233" y="294.3955">7</text><text fill="#000000" font-family="sans-serif" font-size="13" lengthAdjust="spacing" textLength="180.6162" x="541.1533" y="294.3955">addMaterialRecursive(material)</text><line style="stroke:#181818;stroke-width:1.0;stroke-dasharray:2.0,2.0;" x1="522.9233" x2="564.9233" y1="353.9492" y2="353.9492"/><line style="stroke:#181818;stroke-width:1.0;stroke-dasharray:2.0,2.0;" x1="564.9233" x2="564.9233" y1="353.9492" y2="366.9492"/><line style="stroke:#181818;stroke-width:1.0;stroke-dasharray:2.0,2.0;" x1="517.9233" x2="564.9233" y1="366.9492" y2="366.9492"/><polygon fill="#181818" points="527.9233,362.9492,517.9233,366.9492,527.9233,370.9492,523.9233,366.9492" style="stroke:#181818;stroke-width:1.0;"/><text fill="#000000" font-family="sans-serif" font-size="13" font-weight="bold" lengthAdjust="spacing" textLength="7.23" x="529.9233" y="348.6865">8</text><text fill="#000000" font-family="sans-serif" font-size="13" lengthAdjust="spacing" textLength="85.998" x="541.1533" y="348.6865">material added</text><polygon fill="#181818" points="778.7676,389.2402,788.7676,393.2402,778.7676,397.2402,782.7676,393.2402" style="stroke:#181818;stroke-width:1.0;"/><line style="stroke:#181818;stroke-width:1.0;" x1="354.8726" x2="784.7676" y1="393.2402" y2="393.2402"/><text fill="#000000" font-family="sans-serif" font-size="13" font-weight="bold" lengthAdjust="spacing" textLength="7.23" x="361.8726" y="387.9775">9</text><text fill="#000000" font-family="sans-serif" font-size="13" lengthAdjust="spacing" textLength="260.1206" x="373.1025" y="387.9775">createMaterialNode(id, name, quantity, price)</text><polygon fill="#181818" points="365.8726,420.5313,355.8726,424.5313,365.8726,428.5313,361.8726,424.5313" style="stroke:#181818;stroke-width:1.0;"/><line style="stroke:#181818;stroke-width:1.0;stroke-dasharray:2.0,2.0;" x1="359.8726" x2="794.7676" y1="424.5313" y2="424.5313"/><text fill="#000000" font-family="sans-serif" font-size="13" font-weight="bold" lengthAdjust="spacing" textLength="14.46" x="371.8726" y="419.2686">10</text><text fill="#000000" font-family="sans-serif" font-size="13" lengthAdjust="spacing" textLength="125.7407" x="390.3325" y="419.2686">material node created</text><polygon fill="#181818" points="38.7793,451.8223,28.7793,455.8223,38.7793,459.8223,34.7793,455.8223" style="stroke:#181818;stroke-width:1.0;"/><line style="stroke:#181818;stroke-width:1.0;stroke-dasharray:2.0,2.0;" x1="32.7793" x2="348.8726" y1="455.8223" y2="455.8223"/><text fill="#000000" font-family="sans-serif" font-size="13" font-weight="bold" lengthAdjust="spacing" textLength="14.46" x="44.7793" y="450.5596">11</text><text fill="#000000" font-family="sans-serif" font-size="13" lengthAdjust="spacing" textLength="128.6289" x="63.2393" y="450.5596">material node inserted</text><polygon fill="#181818" points="332.8726,483.1133,342.8726,487.1133,332.8726,491.1133,336.8726,487.1133" style="stroke:#181818;stroke-width:1.0;"/><line style="stroke:#181818;stroke-width:1.0;" x1="27.7793" x2="338.8726" y1="487.1133" y2="487.1133"/><text fill="#000000" font-family="sans-serif" font-size="13" font-weight="bold" lengthAdjust="spacing" textLength="14.46" x="34.7793" y="481.8506">12</text><text fill="#000000" font-family="sans-serif" font-size="13" lengthAdjust="spacing" textLength="279.6333" x="53.2393" y="481.8506">updateMaterialQuantity(materialId, newQuantity)</text><polygon fill="#181818" points="778.7676,514.4043,788.7676,518.4043,778.7676,522.4043,782.7676,518.4043" style="stroke:#181818;stroke-width:1.0;"/><line style="stroke:#181818;stroke-width:1.0;" x1="354.8726" x2="784.7676" y1="518.4043" y2="518.4043"/><text fill="#000000" font-family="sans-serif" font-size="13" font-weight="bold" lengthAdjust="spacing" textLength="14.46" x="361.8726" y="513.1416">13</text><text fill="#000000" font-family="sans-serif" font-size="13" lengthAdjust="spacing" textLength="233.397" x="380.3325" y="513.1416">updateQuantity(materialId, newQuantity)</text><polygon fill="#181818" points="533.9233,545.6953,523.9233,549.6953,533.9233,553.6953,529.9233,549.6953" style="stroke:#181818;stroke-width:1.0;"/><line style="stroke:#181818;stroke-width:1.0;" x1="527.9233" x2="789.7676" y1="549.6953" y2="549.6953"/><text fill="#000000" font-family="sans-serif" font-size="13" font-weight="bold" lengthAdjust="spacing" textLength="14.46" x="539.9233" y="544.4326">14</text><text fill="#000000" font-family="sans-serif" font-size="13" lengthAdjust="spacing" textLength="220.3843" x="558.3833" y="544.4326">updateMaterialQuantity(materialNode)</text><line style="stroke:#181818;stroke-width:1.0;" x1="522.9233" x2="564.9233" y1="585.9863" y2="585.9863"/><line style="stroke:#181818;stroke-width:1.0;" x1="564.9233" x2="564.9233" y1="585.9863" y2="598.9863"/><line style="stroke:#181818;stroke-width:1.0;" x1="517.9233" x2="564.9233" y1="598.9863" y2="598.9863"/><polygon fill="#181818" points="527.9233,594.9863,517.9233,598.9863,527.9233,602.9863,523.9233,598.9863" style="stroke:#181818;stroke-width:1.0;"/><text fill="#000000" font-family="sans-serif" font-size="13" font-weight="bold" lengthAdjust="spacing" textLength="14.46" x="529.9233" y="580.7236">15</text><text fill="#000000" font-family="sans-serif" font-size="13" lengthAdjust="spacing" textLength="220.3843" x="548.3833" y="580.7236">updateMaterialQuantity(materialNode)</text><polygon fill="#181818" points="365.8726,621.2773,355.8726,625.2773,365.8726,629.2773,361.8726,625.2773" style="stroke:#181818;stroke-width:1.0;"/><line style="stroke:#181818;stroke-width:1.0;stroke-dasharray:2.0,2.0;" x1="359.8726" x2="794.7676" y1="625.2773" y2="625.2773"/><text fill="#000000" font-family="sans-serif" font-size="13" font-weight="bold" lengthAdjust="spacing" textLength="14.46" x="371.8726" y="620.0146">16</text><text fill="#000000" font-family="sans-serif" font-size="13" lengthAdjust="spacing" textLength="96.1353" x="390.3325" y="620.0146">quantity updated</text><polygon fill="#181818" points="33.7793,652.5684,23.7793,656.5684,33.7793,660.5684,29.7793,656.5684" style="stroke:#181818;stroke-width:1.0;"/><line style="stroke:#181818;stroke-width:1.0;stroke-dasharray:2.0,2.0;" x1="27.7793" x2="348.8726" y1="656.5684" y2="656.5684"/><text fill="#000000" font-family="sans-serif" font-size="13" font-weight="bold" lengthAdjust="spacing" textLength="14.46" x="39.7793" y="651.3057">17</text><text fill="#000000" font-family="sans-serif" font-size="13" lengthAdjust="spacing" textLength="96.1353" x="58.2393" y="651.3057">quantity updated</text><!--SRC=[dPHDRi8m48NtFeN52YIu08jAxQwBLcsX1vZQKx18xDG_86vVEuwDGmaqhC8CypxF-4rYTa8seA6cjPAARRMgaLhja9ZyJmDi1njSsME5L2Ep83TLMM2smDL1o0tzXieW8U2iagx-Gkr_CwiqdNmQr1CAXZw6c7YX5Kmq82sTBD-quevPeUHQ8xPb8HM2iyeNiAW5LE_Eny8UdrRhjZpbVJp8VbNyn0x10Bi7R0SGUnzrdPFsGHSFkKMwf4nZg50DQWX7dKHv3fBBEsde84kdWi-fX1hdjD62uQnFQBlDeaN_S1bo4SC9nyl2UB8NnlOxbP3UbWkosF6LIUlkUgRj1inkpLlOund0UKfC4wX0b5wMmckS3sHE6x77KS0_n2GEwFwjb8phLgRAa2ni_UaszWw3SrVtETsNZxVSDRmOAxrv-QAVmuXuIFdPYDsFv974iwiwj_16jq5qpwxz2pkmBqE-ffNeu2CilQMCjruauxVh5m00]--></g></svg>