<svg xmlns="http://www.w3.org/2000/svg" xmlns:xlink="http://www.w3.org/1999/xlink" contentStyleType="text/css" height="1538px" preserveAspectRatio="none" style="width:939px;height:1538px;background:#FFFFFF;" version="1.1" viewBox="0 0 939 1538" width="939px" zoomAndPan="magnify"><defs/><g><!--class ProductionTree--><g id="elem_ProductionTree"><rect codeLine="7" fill="#F1F1F1" height="252.832" id="ProductionTree" rx="2.5" ry="2.5" style="stroke:#181818;stroke-width:0.5;" width="669.5352" x="263" y="7"/><ellipse cx="545.6592" cy="23" fill="#ADD1B2" rx="11" ry="11" style="stroke:#181818;stroke-width:1.0;"/><path d="M548.4248,18.875 Q548.5811,18.6563 548.7686,18.5469 Q548.9561,18.4375 549.1748,18.4375 Q549.5498,18.4375 549.7842,18.7031 Q550.0186,18.9531 550.0186,19.5625 L550.0186,21.0156 Q550.0186,21.625 549.7842,21.8906 Q549.5498,22.1563 549.1748,22.1563 Q548.8311,22.1563 548.6279,21.9531 Q548.4248,21.7656 548.3154,21.25 Q548.2686,20.8906 548.0811,20.7031 Q547.7529,20.3281 547.1436,20.1094 Q546.5342,19.8906 545.9092,19.8906 Q545.1436,19.8906 544.5029,20.2188 Q543.8779,20.5469 543.3779,21.2969 Q542.8936,22.0469 542.8936,23.0781 L542.8936,24.1719 Q542.8936,25.4063 543.7842,26.2344 Q544.6748,27.0469 546.2686,27.0469 Q547.2061,27.0469 547.8623,26.7969 Q548.2529,26.6406 548.6748,26.2031 Q548.9404,25.9375 549.0811,25.8594 Q549.2373,25.7813 549.4404,25.7813 Q549.7686,25.7813 550.0186,26.0469 Q550.2842,26.2969 550.2842,26.6406 Q550.2842,26.9844 549.9404,27.3906 Q549.4404,27.9688 548.6436,28.2969 Q547.5654,28.75 546.2686,28.75 Q544.7529,28.75 543.5498,28.125 Q542.5654,27.625 541.8779,26.5625 Q541.1904,25.4844 541.1904,24.2031 L541.1904,23.0469 Q541.1904,21.7188 541.7998,20.5781 Q542.4248,19.4219 543.5186,18.8125 Q544.6123,18.1875 545.8467,18.1875 Q546.5811,18.1875 547.2217,18.3594 Q547.8779,18.5156 548.4248,18.875 Z " fill="#000000"/><text fill="#000000" font-family="sans-serif" font-size="14" lengthAdjust="spacing" textLength="95.7168" x="566.1592" y="28.7969">ProductionTree</text><line style="stroke:#181818;stroke-width:0.5;" x1="264" x2="931.5352" y1="39" y2="39"/><rect fill="none" height="6" style="stroke:#C82930;stroke-width:1.0;" width="6" x="271" y="50.8105"/><text fill="#000000" font-family="sans-serif" font-size="14" lengthAdjust="spacing" textLength="265.3848" x="283" y="58.1074">nodesMap : Map&lt;String, ProductionNode&gt;</text><rect fill="none" height="6" style="stroke:#C82930;stroke-width:1.0;" width="6" x="271" y="69.4316"/><text fill="#000000" font-family="sans-serif" font-size="14" lengthAdjust="spacing" textLength="214.7988" x="283" y="76.7285">rootNodes : List&lt;ProductionNode&gt;</text><rect fill="none" height="6" style="stroke:#C82930;stroke-width:1.0;" width="6" x="271" y="88.0527"/><text fill="#000000" font-family="sans-serif" font-size="14" lengthAdjust="spacing" textLength="217.8477" x="283" y="95.3496">materialBST : MaterialQuantityBST</text><line style="stroke:#181818;stroke-width:0.5;" x1="264" x2="931.5352" y1="102.8633" y2="102.8633"/><ellipse cx="274" cy="117.6738" fill="#84BE84" rx="3" ry="3" style="stroke:#038048;stroke-width:1.0;"/><text fill="#000000" font-family="sans-serif" font-size="14" lengthAdjust="spacing" textLength="553.2734" x="283" y="121.9707">insertNewOperationNode(id : String, name : String, price : double, parentId : String) : void</text><ellipse cx="274" cy="136.2949" fill="#84BE84" rx="3" ry="3" style="stroke:#038048;stroke-width:1.0;"/><text fill="#000000" font-family="sans-serif" font-size="14" lengthAdjust="spacing" textLength="643.5352" x="283" y="140.5918">insertNewMaterialNode(id : String, name : String, quantity : int, price : double, operationId : String) : void</text><ellipse cx="274" cy="154.916" fill="#84BE84" rx="3" ry="3" style="stroke:#038048;stroke-width:1.0;"/><text fill="#000000" font-family="sans-serif" font-size="14" lengthAdjust="spacing" textLength="413.1914" x="283" y="159.2129">updateMaterialQuantity(materialId : String, newQuantity : int) : void</text><ellipse cx="274" cy="173.5371" fill="#84BE84" rx="3" ry="3" style="stroke:#038048;stroke-width:1.0;"/><text fill="#000000" font-family="sans-serif" font-size="14" lengthAdjust="spacing" textLength="249.0332" x="283" y="177.834">getRootNodes() : List&lt;ProductionNode&gt;</text><ellipse cx="274" cy="192.1582" fill="#84BE84" rx="3" ry="3" style="stroke:#038048;stroke-width:1.0;"/><text fill="#000000" font-family="sans-serif" font-size="14" lengthAdjust="spacing" textLength="246.6338" x="283" y="196.4551">getMaterialBST() : MaterialQuantityBST</text><ellipse cx="274" cy="210.7793" fill="#84BE84" rx="3" ry="3" style="stroke:#038048;stroke-width:1.0;"/><text fill="#000000" font-family="sans-serif" font-size="14" lengthAdjust="spacing" textLength="327.626" x="283" y="215.0762">getMaterialListInAscending() : List&lt;ProductionNode&gt;</text><ellipse cx="274" cy="229.4004" fill="#84BE84" rx="3" ry="3" style="stroke:#038048;stroke-width:1.0;"/><text fill="#000000" font-family="sans-serif" font-size="14" lengthAdjust="spacing" textLength="336.1846" x="283" y="233.6973">getMaterialListInDescending() : List&lt;ProductionNode&gt;</text><ellipse cx="274" cy="248.0215" fill="#84BE84" rx="3" ry="3" style="stroke:#038048;stroke-width:1.0;"/><text fill="#000000" font-family="sans-serif" font-size="14" lengthAdjust="spacing" textLength="315.123" x="283" y="252.3184">searchNodeByNameOrId(identifier : String) : String</text></g><!--class MaterialQuantityBST--><g id="elem_MaterialQuantityBST"><rect codeLine="21" fill="#F1F1F1" height="178.3477" id="MaterialQuantityBST" rx="2.5" ry="2.5" style="stroke:#181818;stroke-width:0.5;" width="629.8594" x="7" y="339"/><ellipse cx="253.1006" cy="355" fill="#ADD1B2" rx="11" ry="11" style="stroke:#181818;stroke-width:1.0;"/><path d="M255.8662,350.875 Q256.0225,350.6563 256.21,350.5469 Q256.3975,350.4375 256.6162,350.4375 Q256.9912,350.4375 257.2256,350.7031 Q257.46,350.9531 257.46,351.5625 L257.46,353.0156 Q257.46,353.625 257.2256,353.8906 Q256.9912,354.1563 256.6162,354.1563 Q256.2725,354.1563 256.0693,353.9531 Q255.8662,353.7656 255.7568,353.25 Q255.71,352.8906 255.5225,352.7031 Q255.1943,352.3281 254.585,352.1094 Q253.9756,351.8906 253.3506,351.8906 Q252.585,351.8906 251.9443,352.2188 Q251.3193,352.5469 250.8193,353.2969 Q250.335,354.0469 250.335,355.0781 L250.335,356.1719 Q250.335,357.4063 251.2256,358.2344 Q252.1162,359.0469 253.71,359.0469 Q254.6475,359.0469 255.3037,358.7969 Q255.6943,358.6406 256.1162,358.2031 Q256.3818,357.9375 256.5225,357.8594 Q256.6787,357.7813 256.8818,357.7813 Q257.21,357.7813 257.46,358.0469 Q257.7256,358.2969 257.7256,358.6406 Q257.7256,358.9844 257.3818,359.3906 Q256.8818,359.9688 256.085,360.2969 Q255.0068,360.75 253.71,360.75 Q252.1943,360.75 250.9912,360.125 Q250.0068,359.625 249.3193,358.5625 Q248.6318,357.4844 248.6318,356.2031 L248.6318,355.0469 Q248.6318,353.7188 249.2412,352.5781 Q249.8662,351.4219 250.96,350.8125 Q252.0537,350.1875 253.2881,350.1875 Q254.0225,350.1875 254.6631,350.3594 Q255.3193,350.5156 255.8662,350.875 Z " fill="#000000"/><text fill="#000000" font-family="sans-serif" font-size="14" lengthAdjust="spacing" textLength="129.1582" x="273.6006" y="360.7969">MaterialQuantityBST</text><line style="stroke:#181818;stroke-width:0.5;" x1="8" x2="635.8594" y1="371" y2="371"/><rect fill="none" height="6" style="stroke:#C82930;stroke-width:1.0;" width="6" x="15" y="382.8105"/><text fill="#000000" font-family="sans-serif" font-size="14" lengthAdjust="spacing" textLength="69.2617" x="27" y="390.1074">root : Node</text><line style="stroke:#181818;stroke-width:0.5;" x1="8" x2="635.8594" y1="397.6211" y2="397.6211"/><ellipse cx="18" cy="412.4316" fill="#84BE84" rx="3" ry="3" style="stroke:#038048;stroke-width:1.0;"/><text fill="#000000" font-family="sans-serif" font-size="14" lengthAdjust="spacing" textLength="326.04" x="27" y="416.7285">insert(material : ProductionNode, quantity : int) : void</text><ellipse cx="18" cy="431.0527" fill="#84BE84" rx="3" ry="3" style="stroke:#038048;stroke-width:1.0;"/><text fill="#000000" font-family="sans-serif" font-size="14" lengthAdjust="spacing" textLength="277.833" x="27" y="435.3496">getListInAscending() : List&lt;ProductionNode&gt;</text><ellipse cx="18" cy="449.6738" fill="#84BE84" rx="3" ry="3" style="stroke:#038048;stroke-width:1.0;"/><text fill="#000000" font-family="sans-serif" font-size="14" lengthAdjust="spacing" textLength="286.3916" x="27" y="453.9707">getListInDescending() : List&lt;ProductionNode&gt;</text><ellipse cx="18" cy="468.2949" fill="#84BE84" rx="3" ry="3" style="stroke:#038048;stroke-width:1.0;"/><text fill="#000000" font-family="sans-serif" font-size="14" lengthAdjust="spacing" textLength="287.1504" x="27" y="472.5918">consolidateMaterials() : List&lt;ProductionNode&gt;</text><ellipse cx="18" cy="486.916" fill="#84BE84" rx="3" ry="3" style="stroke:#038048;stroke-width:1.0;"/><text fill="#000000" font-family="sans-serif" font-size="14" lengthAdjust="spacing" textLength="386.7568" x="27" y="491.2129">updateMaterialQuantity(materialNode : ProductionNode) : void</text><ellipse cx="18" cy="505.5371" fill="#84BE84" rx="3" ry="3" style="stroke:#038048;stroke-width:1.0;"/><text fill="#000000" font-family="sans-serif" font-size="14" lengthAdjust="spacing" textLength="603.8594" x="27" y="509.834">removeMaterialByQuantity(node : Node, oldQuantity : int, materialNode : ProductionNode) : Node</text></g><!--class Node--><g id="elem_Node"><rect codeLine="31" fill="#F1F1F1" height="159.7266" id="Node" rx="2.5" ry="2.5" style="stroke:#181818;stroke-width:0.5;" width="261.7852" x="329" y="596"/><ellipse cx="438.9082" cy="612" fill="#ADD1B2" rx="11" ry="11" style="stroke:#181818;stroke-width:1.0;"/><path d="M441.6738,607.875 Q441.8301,607.6563 442.0176,607.5469 Q442.2051,607.4375 442.4238,607.4375 Q442.7988,607.4375 443.0332,607.7031 Q443.2676,607.9531 443.2676,608.5625 L443.2676,610.0156 Q443.2676,610.625 443.0332,610.8906 Q442.7988,611.1563 442.4238,611.1563 Q442.0801,611.1563 441.877,610.9531 Q441.6738,610.7656 441.5645,610.25 Q441.5176,609.8906 441.3301,609.7031 Q441.002,609.3281 440.3926,609.1094 Q439.7832,608.8906 439.1582,608.8906 Q438.3926,608.8906 437.752,609.2188 Q437.127,609.5469 436.627,610.2969 Q436.1426,611.0469 436.1426,612.0781 L436.1426,613.1719 Q436.1426,614.4063 437.0332,615.2344 Q437.9238,616.0469 439.5176,616.0469 Q440.4551,616.0469 441.1113,615.7969 Q441.502,615.6406 441.9238,615.2031 Q442.1895,614.9375 442.3301,614.8594 Q442.4863,614.7813 442.6895,614.7813 Q443.0176,614.7813 443.2676,615.0469 Q443.5332,615.2969 443.5332,615.6406 Q443.5332,615.9844 443.1895,616.3906 Q442.6895,616.9688 441.8926,617.2969 Q440.8145,617.75 439.5176,617.75 Q438.002,617.75 436.7988,617.125 Q435.8145,616.625 435.127,615.5625 Q434.4395,614.4844 434.4395,613.2031 L434.4395,612.0469 Q434.4395,610.7188 435.0488,609.5781 Q435.6738,608.4219 436.7676,607.8125 Q437.8613,607.1875 439.0957,607.1875 Q439.8301,607.1875 440.4707,607.3594 Q441.127,607.5156 441.6738,607.875 Z " fill="#000000"/><text fill="#000000" font-family="sans-serif" font-size="14" lengthAdjust="spacing" textLength="33.4688" x="459.4082" y="617.7969">Node</text><line style="stroke:#181818;stroke-width:0.5;" x1="330" x2="589.7852" y1="628" y2="628"/><rect fill="none" height="6" style="stroke:#C82930;stroke-width:1.0;" width="6" x="337" y="639.8105"/><text fill="#000000" font-family="sans-serif" font-size="14" lengthAdjust="spacing" textLength="75.4893" x="349" y="647.1074">quantity : int</text><rect fill="none" height="6" style="stroke:#C82930;stroke-width:1.0;" width="6" x="337" y="658.4316"/><text fill="#000000" font-family="sans-serif" font-size="14" lengthAdjust="spacing" textLength="206.999" x="349" y="665.7285">materials : List&lt;ProductionNode&gt;</text><rect fill="none" height="6" style="stroke:#C82930;stroke-width:1.0;" width="6" x="337" y="677.0527"/><text fill="#000000" font-family="sans-serif" font-size="14" lengthAdjust="spacing" textLength="63.8135" x="349" y="684.3496">left : Node</text><rect fill="none" height="6" style="stroke:#C82930;stroke-width:1.0;" width="6" x="337" y="695.6738"/><text fill="#000000" font-family="sans-serif" font-size="14" lengthAdjust="spacing" textLength="72.3721" x="349" y="702.9707">right : Node</text><line style="stroke:#181818;stroke-width:0.5;" x1="330" x2="589.7852" y1="710.4844" y2="710.4844"/><ellipse cx="340" cy="725.2949" fill="#84BE84" rx="3" ry="3" style="stroke:#038048;stroke-width:1.0;"/><text fill="#000000" font-family="sans-serif" font-size="14" lengthAdjust="spacing" textLength="107.3789" x="349" y="729.5918">getQuantity() : int</text><ellipse cx="340" cy="743.916" fill="#84BE84" rx="3" ry="3" style="stroke:#038048;stroke-width:1.0;"/><text fill="#000000" font-family="sans-serif" font-size="14" lengthAdjust="spacing" textLength="235.7852" x="349" y="748.2129">getMaterials() : List&lt;ProductionNode&gt;</text></g><!--class Material--><g id="elem_Material"><rect codeLine="40" fill="#F1F1F1" height="215.5898" id="Material" rx="2.5" ry="2.5" style="stroke:#181818;stroke-width:0.5;" width="410.3984" x="393" y="1316"/><ellipse cx="569.0527" cy="1332" fill="#ADD1B2" rx="11" ry="11" style="stroke:#181818;stroke-width:1.0;"/><path d="M571.8184,1327.875 Q571.9746,1327.6563 572.1621,1327.5469 Q572.3496,1327.4375 572.5684,1327.4375 Q572.9434,1327.4375 573.1777,1327.7031 Q573.4121,1327.9531 573.4121,1328.5625 L573.4121,1330.0156 Q573.4121,1330.625 573.1777,1330.8906 Q572.9434,1331.1563 572.5684,1331.1563 Q572.2246,1331.1563 572.0215,1330.9531 Q571.8184,1330.7656 571.709,1330.25 Q571.6621,1329.8906 571.4746,1329.7031 Q571.1465,1329.3281 570.5371,1329.1094 Q569.9277,1328.8906 569.3027,1328.8906 Q568.5371,1328.8906 567.8965,1329.2188 Q567.2715,1329.5469 566.7715,1330.2969 Q566.2871,1331.0469 566.2871,1332.0781 L566.2871,1333.1719 Q566.2871,1334.4063 567.1777,1335.2344 Q568.0684,1336.0469 569.6621,1336.0469 Q570.5996,1336.0469 571.2559,1335.7969 Q571.6465,1335.6406 572.0684,1335.2031 Q572.334,1334.9375 572.4746,1334.8594 Q572.6309,1334.7813 572.834,1334.7813 Q573.1621,1334.7813 573.4121,1335.0469 Q573.6777,1335.2969 573.6777,1335.6406 Q573.6777,1335.9844 573.334,1336.3906 Q572.834,1336.9688 572.0371,1337.2969 Q570.959,1337.75 569.6621,1337.75 Q568.1465,1337.75 566.9434,1337.125 Q565.959,1336.625 565.2715,1335.5625 Q564.584,1334.4844 564.584,1333.2031 L564.584,1332.0469 Q564.584,1330.7188 565.1934,1329.5781 Q565.8184,1328.4219 566.9121,1327.8125 Q568.0059,1327.1875 569.2402,1327.1875 Q569.9746,1327.1875 570.6152,1327.3594 Q571.2715,1327.5156 571.8184,1327.875 Z " fill="#000000"/><text fill="#000000" font-family="sans-serif" font-size="14" lengthAdjust="spacing" textLength="49.793" x="589.5527" y="1337.7969">Material</text><line style="stroke:#181818;stroke-width:0.5;" x1="394" x2="802.3984" y1="1348" y2="1348"/><rect fill="none" height="6" style="stroke:#C82930;stroke-width:1.0;" width="6" x="401" y="1359.8105"/><text fill="#000000" font-family="sans-serif" font-size="14" lengthAdjust="spacing" textLength="59.1377" x="413" y="1367.1074">id : String</text><rect fill="none" height="6" style="stroke:#C82930;stroke-width:1.0;" width="6" x="401" y="1378.4316"/><text fill="#000000" font-family="sans-serif" font-size="14" lengthAdjust="spacing" textLength="83.2617" x="413" y="1385.7285">name : String</text><rect fill="none" height="6" style="stroke:#C82930;stroke-width:1.0;" width="6" x="401" y="1397.0527"/><text fill="#000000" font-family="sans-serif" font-size="14" lengthAdjust="spacing" textLength="75.4893" x="413" y="1404.3496">quantity : int</text><rect fill="none" height="6" style="stroke:#C82930;stroke-width:1.0;" width="6" x="401" y="1415.6738"/><text fill="#000000" font-family="sans-serif" font-size="14" lengthAdjust="spacing" textLength="84.0547" x="413" y="1422.9707">price : double</text><line style="stroke:#181818;stroke-width:0.5;" x1="394" x2="802.3984" y1="1430.4844" y2="1430.4844"/><ellipse cx="404" cy="1445.2949" fill="#84BE84" rx="3" ry="3" style="stroke:#038048;stroke-width:1.0;"/><text fill="#000000" font-family="sans-serif" font-size="14" lengthAdjust="spacing" textLength="384.3984" x="413" y="1449.5918">Material(id : String, name : String, quantity : int, price : double)</text><ellipse cx="404" cy="1463.916" fill="#84BE84" rx="3" ry="3" style="stroke:#038048;stroke-width:1.0;"/><text fill="#000000" font-family="sans-serif" font-size="14" lengthAdjust="spacing" textLength="88.7031" x="413" y="1468.2129">getId() : String</text><ellipse cx="404" cy="1482.5371" fill="#84BE84" rx="3" ry="3" style="stroke:#038048;stroke-width:1.0;"/><text fill="#000000" font-family="sans-serif" font-size="14" lengthAdjust="spacing" textLength="114.3721" x="413" y="1486.834">getName() : String</text><ellipse cx="404" cy="1501.1582" fill="#84BE84" rx="3" ry="3" style="stroke:#038048;stroke-width:1.0;"/><text fill="#000000" font-family="sans-serif" font-size="14" lengthAdjust="spacing" textLength="107.3789" x="413" y="1505.4551">getQuantity() : int</text><ellipse cx="404" cy="1519.7793" fill="#84BE84" rx="3" ry="3" style="stroke:#038048;stroke-width:1.0;"/><text fill="#000000" font-family="sans-serif" font-size="14" lengthAdjust="spacing" textLength="114.3926" x="413" y="1524.0762">getPrice() : double</text></g><!--class ProductionNode--><g id="elem_ProductionNode"><rect codeLine="52" fill="#F1F1F1" height="401.8008" id="ProductionNode" rx="2.5" ry="2.5" style="stroke:#181818;stroke-width:0.5;" width="271.1504" x="462.5" y="835"/><ellipse cx="543.6255" cy="851" fill="#ADD1B2" rx="11" ry="11" style="stroke:#181818;stroke-width:1.0;"/><path d="M546.3911,846.875 Q546.5474,846.6563 546.7349,846.5469 Q546.9224,846.4375 547.1411,846.4375 Q547.5161,846.4375 547.7505,846.7031 Q547.9849,846.9531 547.9849,847.5625 L547.9849,849.0156 Q547.9849,849.625 547.7505,849.8906 Q547.5161,850.1563 547.1411,850.1563 Q546.7974,850.1563 546.5942,849.9531 Q546.3911,849.7656 546.2817,849.25 Q546.2349,848.8906 546.0474,848.7031 Q545.7192,848.3281 545.1099,848.1094 Q544.5005,847.8906 543.8755,847.8906 Q543.1099,847.8906 542.4692,848.2188 Q541.8442,848.5469 541.3442,849.2969 Q540.8599,850.0469 540.8599,851.0781 L540.8599,852.1719 Q540.8599,853.4063 541.7505,854.2344 Q542.6411,855.0469 544.2349,855.0469 Q545.1724,855.0469 545.8286,854.7969 Q546.2192,854.6406 546.6411,854.2031 Q546.9067,853.9375 547.0474,853.8594 Q547.2036,853.7813 547.4067,853.7813 Q547.7349,853.7813 547.9849,854.0469 Q548.2505,854.2969 548.2505,854.6406 Q548.2505,854.9844 547.9067,855.3906 Q547.4067,855.9688 546.6099,856.2969 Q545.5317,856.75 544.2349,856.75 Q542.7192,856.75 541.5161,856.125 Q540.5317,855.625 539.8442,854.5625 Q539.1567,853.4844 539.1567,852.2031 L539.1567,851.0469 Q539.1567,849.7188 539.7661,848.5781 Q540.3911,847.4219 541.4849,846.8125 Q542.5786,846.1875 543.813,846.1875 Q544.5474,846.1875 545.188,846.3594 Q545.8442,846.5156 546.3911,846.875 Z " fill="#000000"/><text fill="#000000" font-family="sans-serif" font-size="14" lengthAdjust="spacing" textLength="100.3994" x="564.1255" y="856.7969">ProductionNode</text><line style="stroke:#181818;stroke-width:0.5;" x1="463.5" x2="732.6504" y1="867" y2="867"/><rect fill="none" height="6" style="stroke:#C82930;stroke-width:1.0;" width="6" x="470.5" y="878.8105"/><text fill="#000000" font-family="sans-serif" font-size="14" lengthAdjust="spacing" textLength="59.1377" x="482.5" y="886.1074">id : String</text><rect fill="none" height="6" style="stroke:#C82930;stroke-width:1.0;" width="6" x="470.5" y="897.4316"/><text fill="#000000" font-family="sans-serif" font-size="14" lengthAdjust="spacing" textLength="83.2617" x="482.5" y="904.7285">name : String</text><rect fill="none" height="6" style="stroke:#C82930;stroke-width:1.0;" width="6" x="470.5" y="916.0527"/><text fill="#000000" font-family="sans-serif" font-size="14" lengthAdjust="spacing" textLength="75.4893" x="482.5" y="923.3496">quantity : int</text><rect fill="none" height="6" style="stroke:#C82930;stroke-width:1.0;" width="6" x="470.5" y="934.6738"/><text fill="#000000" font-family="sans-serif" font-size="14" lengthAdjust="spacing" textLength="84.0547" x="482.5" y="941.9707">price : double</text><rect fill="none" height="6" style="stroke:#C82930;stroke-width:1.0;" width="6" x="470.5" y="953.2949"/><text fill="#000000" font-family="sans-serif" font-size="14" lengthAdjust="spacing" textLength="79.3857" x="482.5" y="960.5918">cost : double</text><rect fill="none" height="6" style="stroke:#C82930;stroke-width:1.0;" width="6" x="470.5" y="971.916"/><text fill="#000000" font-family="sans-serif" font-size="14" lengthAdjust="spacing" textLength="121.3994" x="482.5" y="979.2129">isMaterial : boolean</text><rect fill="none" height="6" style="stroke:#C82930;stroke-width:1.0;" width="6" x="470.5" y="990.5371"/><text fill="#000000" font-family="sans-serif" font-size="14" lengthAdjust="spacing" textLength="151.7646" x="482.5" y="997.834">parent : ProductionNode</text><rect fill="none" height="6" style="stroke:#C82930;stroke-width:1.0;" width="6" x="470.5" y="1009.1582"/><text fill="#000000" font-family="sans-serif" font-size="14" lengthAdjust="spacing" textLength="199.2334" x="482.5" y="1016.4551">children : List&lt;ProductionNode&gt;</text><line style="stroke:#181818;stroke-width:0.5;" x1="463.5" x2="732.6504" y1="1023.9688" y2="1023.9688"/><ellipse cx="473.5" cy="1038.7793" fill="#84BE84" rx="3" ry="3" style="stroke:#038048;stroke-width:1.0;"/><text fill="#000000" font-family="sans-serif" font-size="14" lengthAdjust="spacing" textLength="245.1504" x="482.5" y="1043.0762">addChild(node : ProductionNode) : void</text><ellipse cx="473.5" cy="1057.4004" fill="#84BE84" rx="3" ry="3" style="stroke:#038048;stroke-width:1.0;"/><text fill="#000000" font-family="sans-serif" font-size="14" lengthAdjust="spacing" textLength="236.5439" x="482.5" y="1061.6973">setMaterial(isMaterial : boolean) : void</text><ellipse cx="473.5" cy="1076.0215" fill="#84BE84" rx="3" ry="3" style="stroke:#038048;stroke-width:1.0;"/><text fill="#000000" font-family="sans-serif" font-size="14" lengthAdjust="spacing" textLength="192.9785" x="482.5" y="1080.3184">setQuantity(quantity : int) : void</text><ellipse cx="473.5" cy="1094.6426" fill="#84BE84" rx="3" ry="3" style="stroke:#038048;stroke-width:1.0;"/><text fill="#000000" font-family="sans-serif" font-size="14" lengthAdjust="spacing" textLength="173.5234" x="482.5" y="1098.9395">setCost(cost : double) : void</text><ellipse cx="473.5" cy="1113.2637" fill="#84BE84" rx="3" ry="3" style="stroke:#038048;stroke-width:1.0;"/><text fill="#000000" font-family="sans-serif" font-size="14" lengthAdjust="spacing" textLength="182.1025" x="482.5" y="1117.5605">getParent() : ProductionNode</text><ellipse cx="473.5" cy="1131.8848" fill="#84BE84" rx="3" ry="3" style="stroke:#038048;stroke-width:1.0;"/><text fill="#000000" font-family="sans-serif" font-size="14" lengthAdjust="spacing" textLength="231.1299" x="482.5" y="1136.1816">getChildren() : List&lt;ProductionNode&gt;</text><ellipse cx="473.5" cy="1150.5059" fill="#84BE84" rx="3" ry="3" style="stroke:#038048;stroke-width:1.0;"/><text fill="#000000" font-family="sans-serif" font-size="14" lengthAdjust="spacing" textLength="88.7031" x="482.5" y="1154.8027">getId() : String</text><ellipse cx="473.5" cy="1169.127" fill="#84BE84" rx="3" ry="3" style="stroke:#038048;stroke-width:1.0;"/><text fill="#000000" font-family="sans-serif" font-size="14" lengthAdjust="spacing" textLength="114.3721" x="482.5" y="1173.4238">getName() : String</text><ellipse cx="473.5" cy="1187.748" fill="#84BE84" rx="3" ry="3" style="stroke:#038048;stroke-width:1.0;"/><text fill="#000000" font-family="sans-serif" font-size="14" lengthAdjust="spacing" textLength="130.7236" x="482.5" y="1192.0449">isMaterial() : boolean</text><ellipse cx="473.5" cy="1206.3691" fill="#84BE84" rx="3" ry="3" style="stroke:#038048;stroke-width:1.0;"/><text fill="#000000" font-family="sans-serif" font-size="14" lengthAdjust="spacing" textLength="107.3789" x="482.5" y="1210.666">getQuantity() : int</text><ellipse cx="473.5" cy="1224.9902" fill="#84BE84" rx="3" ry="3" style="stroke:#038048;stroke-width:1.0;"/><text fill="#000000" font-family="sans-serif" font-size="14" lengthAdjust="spacing" textLength="111.2822" x="482.5" y="1229.2871">getCost() : double</text></g><!--link ProductionTree to ProductionNode--><g id="link_ProductionTree_ProductionNode"><path codeLine="74" d="M633.04,260.23 C644.81,302.43 655,339 655,339 C655,339 655,517 655,517 C655,517 636.7363,682.996 620.6963,828.766 " fill="none" id="ProductionTree-to-ProductionNode" style="stroke:#181818;stroke-width:1.0;"/><polygon fill="#181818" points="620.04,834.73,625.0004,826.2215,620.5869,829.76,617.0484,825.3465,620.04,834.73" style="stroke:#181818;stroke-width:1.0;"/><text fill="#000000" font-family="sans-serif" font-size="13" lengthAdjust="spacing" textLength="35.4199" x="652" y="562.0283">nodes</text><text fill="#000000" font-family="sans-serif" font-size="13" lengthAdjust="spacing" textLength="5.0591" x="615.8015" y="823.5738">*</text></g><!--link ProductionTree to MaterialQuantityBST--><g id="link_ProductionTree_MaterialQuantityBST"><path codeLine="75" d="M479.35,260.24 C454.37,286.72 432.6374,309.7457 409.2874,334.4957 " fill="none" id="ProductionTree-to-MaterialQuantityBST" style="stroke:#181818;stroke-width:1.0;"/><polygon fill="#181818" points="405.17,338.86,414.2556,335.0585,408.6012,335.2231,408.4366,329.5686,405.17,338.86" style="stroke:#181818;stroke-width:1.0;"/><text fill="#000000" font-family="sans-serif" font-size="13" lengthAdjust="spacing" textLength="71.519" x="445" y="305.0283">materialBST</text><text fill="#000000" font-family="sans-serif" font-size="13" lengthAdjust="spacing" textLength="7.23" x="404.783" y="327.8002">1</text></g><!--link MaterialQuantityBST to Node--><g id="link_MaterialQuantityBST_Node"><path codeLine="76" d="M371.43,517.12 C385.82,542.76 398.5042,565.3773 412.5642,590.4373 " fill="none" id="MaterialQuantityBST-to-Node" style="stroke:#181818;stroke-width:1.0;"/><polygon fill="#181818" points="415.5,595.67,414.5847,585.8638,413.0535,591.3094,407.6078,589.7782,415.5,595.67" style="stroke:#181818;stroke-width:1.0;"/><text fill="#000000" font-family="sans-serif" font-size="13" lengthAdjust="spacing" textLength="35.4199" x="397" y="562.0283">nodes</text><text fill="#000000" font-family="sans-serif" font-size="13" lengthAdjust="spacing" textLength="5.0591" x="406.3263" y="584.812">*</text></g><!--link Node to ProductionNode--><g id="link_Node_ProductionNode"><path codeLine="77" d="M490.46,756.01 C499.62,779.79 507.972,801.4415 518.742,829.3815 " fill="none" id="Node-to-ProductionNode" style="stroke:#181818;stroke-width:1.0;"/><polygon fill="#181818" points="520.9,834.98,521.3953,825.1436,519.1016,830.3146,513.9306,828.021,520.9,834.98" style="stroke:#181818;stroke-width:1.0;"/><text fill="#000000" font-family="sans-serif" font-size="13" lengthAdjust="spacing" textLength="52.7363" x="510" y="801.0283">materials</text><text fill="#000000" font-family="sans-serif" font-size="13" lengthAdjust="spacing" textLength="5.0591" x="512.7888" y="823.8335">*</text></g><!--link ProductionNode to ProductionNode--><g id="link_ProductionNode_ProductionNode"><path codeLine="78" d="M733.76,1015.48 C754.45,1018.61 768.5,1025.45 768.5,1036 C768.5,1046.55 760.3825,1052.4925 739.6925,1055.6225 " fill="none" id="ProductionNode-to-ProductionNode" style="stroke:#181818;stroke-width:1.0;"/><polygon fill="#181818" points="733.76,1056.52,743.2571,1059.1288,738.7037,1055.7721,742.0604,1051.2188,733.76,1056.52" style="stroke:#181818;stroke-width:1.0;"/><text fill="#000000" font-family="sans-serif" font-size="13" lengthAdjust="spacing" textLength="45.5254" x="774.5" y="1041.5283">children</text><text fill="#000000" font-family="sans-serif" font-size="13" lengthAdjust="spacing" textLength="5.0591" x="741.7505" y="1054.2574">*</text></g><!--link ProductionNode to ProductionNode--><g id="link_ProductionNode_ProductionNode"><path codeLine="79" d="M733.74,991.03 C783.71,990.25 825.5,1005.24 825.5,1036 C825.5,1066.76 789.7093,1081.8436 739.7393,1081.0636 " fill="none" id="ProductionNode-to-ProductionNode-1" style="stroke:#181818;stroke-width:1.0;"/><polygon fill="#181818" points="733.74,1080.97,742.6765,1085.11,738.7394,1081.048,742.8013,1077.111,733.74,1080.97" style="stroke:#181818;stroke-width:1.0;"/><text fill="#000000" font-family="sans-serif" font-size="13" lengthAdjust="spacing" textLength="36.8608" x="831.5" y="1041.5283">parent</text><text fill="#000000" font-family="sans-serif" font-size="13" lengthAdjust="spacing" textLength="7.23" x="741.7921" y="1080.1209">1</text></g><!--link ProductionNode to Material--><g id="link_ProductionNode_Material"><path codeLine="80" d="M598,1237.07 C598,1264.26 598,1285.27 598,1309.93 " fill="none" id="ProductionNode-to-Material" style="stroke:#181818;stroke-width:1.0;stroke-dasharray:7.0,7.0;"/><polygon fill="#181818" points="598,1315.93,602,1306.93,598,1310.93,594,1306.93,598,1315.93" style="stroke:#181818;stroke-width:1.0;"/><text fill="#000000" font-family="sans-serif" font-size="13" lengthAdjust="spacing" textLength="46.2363" x="599" y="1282.0283">material</text></g><!--SRC=[hLPTRzem57tFhx3wCjX6fRwY2gcm5wH1OVGFkF45h1exiqrHDFM_pt7Yn7P2KhJnW6BxtAzpZs-YtYZFiCGdbE7q3HzWftC6I4AgCJymI5GDK4TCn8No0zfZflmJHZdeF0EK2PONYoJvmc2laHP8qiDH8q8BZrJm94aPLWfjf21dk_CY0T2V19dV1751GArmXgR8_3_kj3JnldlejG7CAh0KGXThPT0_gTAFtR0JrY0fPlFTYtLRhhPdp3NLkTcrk6-8SWLIh-7od874pik84cFb4k7u1DuoapGjraISNncODPR0zRAn69kdTq597C9bCHZXTvMcsQ9SjoCAb-lreEUCc6XntID7opA83fTj437oTG3zox4-6lVnRh6hXdgBlaw-1ovSBlcJIe4JazGDOKhB7_1PKmLOfiTYPvwl3U_FSabCDqmBwPw230Wjdv8F9-2EKceL5y8q9eNZeF4rv-Omp2XkT9lssrcvbOrKS2KOzSKosEC1RHNGLgrHRH9EuhrsCSzh9xmqBkaHZ6oZgp0OnF9VDyp2N8T2jgD1CJ1Fx6JpkZkfPbpGSCD_NSZOYnBejOVUbixgrBrfuOQcFpBw2Wo7HvMF2_0FOsZSb6Okq3ZCnMuNjwlpu3f9coA4tQxI_MY_EuAU_bzY9kO-A1tlKRLghl2h40mmTpxix6y9qJaxKaOCeFywOK8M1T1fl_VYg4P8ewwysl2QxDvXOu0BK_eegByza3QsNjkWZeejP54L_ObXTPDkcchjcT-70L7Pma9DHLyYayaCtNszYqKsBJzDEj4FTvrlWwd_vP5q8Loi889TNCsYdb59T7JLmYclq-2Xmw0KSWo_lvyXJsCkZ-Gl]--></g></svg>