<svg xmlns="http://www.w3.org/2000/svg" xmlns:xlink="http://www.w3.org/1999/xlink" contentStyleType="text/css" height="1185px" preserveAspectRatio="none" style="width:991px;height:1185px;background:#FFFFFF;" version="1.1" viewBox="0 0 991 1185" width="991px" zoomAndPan="magnify"><defs/><g><rect fill="#FFFFFF" height="990.4395" style="stroke:#181818;stroke-width:1.0;" width="10" x="17.7793" y="93.6211"/><rect fill="#FFFFFF" height="93.873" style="stroke:#181818;stroke-width:1.0;" width="10" x="344.8726" y="116.9121"/><rect fill="#FFFFFF" height="213.7461" style="stroke:#181818;stroke-width:1.0;" width="10" x="344.8726" y="242.0762"/><rect fill="#FFFFFF" height="169.4551" style="stroke:#181818;stroke-width:1.0;" width="10" x="344.8726" y="487.1133"/><rect fill="#FFFFFF" height="182.4551" style="stroke:#181818;stroke-width:1.0;" width="10" x="344.8726" y="687.8594"/><rect fill="#FFFFFF" height="182.4551" style="stroke:#181818;stroke-width:1.0;" width="10" x="344.8726" y="901.6055"/><rect fill="#FFFFFF" height="819.6934" style="stroke:#181818;stroke-width:1.0;" width="10" x="560.6787" y="273.3672"/><rect fill="#FFFFFF" height="42.291" style="stroke:#181818;stroke-width:1.0;" width="10" x="565.6787" y="312.6582"/><rect fill="#FFFFFF" height="37.291" style="stroke:#181818;stroke-width:1.0;" width="10" x="565.6787" y="549.6953"/><rect fill="#FFFFFF" height="119.873" style="stroke:#181818;stroke-width:1.0;" width="10" x="565.6787" y="719.1504"/><rect fill="#FFFFFF" height="42.291" style="stroke:#181818;stroke-width:1.0;" width="10" x="570.6787" y="758.4414"/><rect fill="#FFFFFF" height="119.873" style="stroke:#181818;stroke-width:1.0;" width="10" x="565.6787" y="932.8965"/><rect fill="#FFFFFF" height="42.291" style="stroke:#181818;stroke-width:1.0;" width="10" x="570.6787" y="972.1875"/><rect fill="#FFFFFF" height="31.291" style="stroke:#181818;stroke-width:1.0;" width="10" x="843.5229" y="148.2031"/><rect fill="#FFFFFF" height="31.291" style="stroke:#181818;stroke-width:1.0;" width="10" x="843.5229" y="393.2402"/><rect fill="#FFFFFF" height="106.873" style="stroke:#181818;stroke-width:1.0;" width="10" x="843.5229" y="518.4043"/><line style="stroke:#181818;stroke-width:0.5;stroke-dasharray:5.0,5.0;" x1="22" x2="22" y1="83.6211" y2="1102.0605"/><line style="stroke:#181818;stroke-width:0.5;stroke-dasharray:5.0,5.0;" x1="349.0693" x2="349.0693" y1="83.6211" y2="1102.0605"/><line style="stroke:#181818;stroke-width:0.5;stroke-dasharray:5.0,5.0;" x1="565.1548" x2="565.1548" y1="83.6211" y2="1102.0605"/><line style="stroke:#181818;stroke-width:0.5;stroke-dasharray:5.0,5.0;" x1="848.3784" x2="848.3784" y1="83.6211" y2="1102.0605"/><line style="stroke:#181818;stroke-width:0.5;stroke-dasharray:5.0,5.0;" x1="950.6675" x2="950.6675" y1="83.6211" y2="1102.0605"/><text fill="#000000" font-family="sans-serif" font-size="14" lengthAdjust="spacing" textLength="29.5586" x="5" y="80.1074">User</text><ellipse cx="22.7793" cy="13.5" fill="#E3E3E3" rx="8" ry="8" style="stroke:#181818;stroke-width:0.5;"/><path d="M22.7793,21.5 L22.7793,48.5 M9.7793,29.5 L35.7793,29.5 M22.7793,48.5 L9.7793,63.5 M22.7793,48.5 L35.7793,63.5 " fill="none" style="stroke:#181818;stroke-width:0.5;"/><text fill="#000000" font-family="sans-serif" font-size="14" lengthAdjust="spacing" textLength="29.5586" x="5" y="1116.168">User</text><ellipse cx="22.7793" cy="1128.1816" fill="#E3E3E3" rx="8" ry="8" style="stroke:#181818;stroke-width:0.5;"/><path d="M22.7793,1136.1816 L22.7793,1163.1816 M9.7793,1144.1816 L35.7793,1144.1816 M22.7793,1163.1816 L9.7793,1178.1816 M22.7793,1163.1816 L35.7793,1178.1816 " fill="none" style="stroke:#181818;stroke-width:0.5;"/><rect fill="#E3E3E3" height="32.6211" rx="2.5" ry="2.5" style="stroke:#181818;stroke-width:0.5;" width="113.6064" x="293.0693" y="50"/><text fill="#000000" font-family="sans-serif" font-size="14" lengthAdjust="spacing" textLength="99.6064" x="300.0693" y="72.1074">:ProductionTree</text><rect fill="#E3E3E3" height="32.6211" rx="2.5" ry="2.5" style="stroke:#181818;stroke-width:0.5;" width="113.6064" x="293.0693" y="1101.0605"/><text fill="#000000" font-family="sans-serif" font-size="14" lengthAdjust="spacing" textLength="99.6064" x="300.0693" y="1123.168">:ProductionTree</text><rect fill="#E3E3E3" height="32.6211" rx="2.5" ry="2.5" style="stroke:#181818;stroke-width:0.5;" width="147.0479" x="492.1548" y="50"/><text fill="#000000" font-family="sans-serif" font-size="14" lengthAdjust="spacing" textLength="133.0479" x="499.1548" y="72.1074">:MaterialQuantityBST</text><rect fill="#E3E3E3" height="32.6211" rx="2.5" ry="2.5" style="stroke:#181818;stroke-width:0.5;" width="147.0479" x="492.1548" y="1101.0605"/><text fill="#000000" font-family="sans-serif" font-size="14" lengthAdjust="spacing" textLength="133.0479" x="499.1548" y="1123.168">:MaterialQuantityBST</text><rect fill="#E3E3E3" height="32.6211" rx="2.5" ry="2.5" style="stroke:#181818;stroke-width:0.5;" width="118.2891" x="789.3784" y="50"/><text fill="#000000" font-family="sans-serif" font-size="14" lengthAdjust="spacing" textLength="104.2891" x="796.3784" y="72.1074">:ProductionNode</text><rect fill="#E3E3E3" height="32.6211" rx="2.5" ry="2.5" style="stroke:#181818;stroke-width:0.5;" width="118.2891" x="789.3784" y="1101.0605"/><text fill="#000000" font-family="sans-serif" font-size="14" lengthAdjust="spacing" textLength="104.2891" x="796.3784" y="1123.168">:ProductionNode</text><rect fill="#E3E3E3" height="32.6211" rx="2.5" ry="2.5" style="stroke:#181818;stroke-width:0.5;" width="67.6826" x="917.6675" y="50"/><text fill="#000000" font-family="sans-serif" font-size="14" lengthAdjust="spacing" textLength="53.6826" x="924.6675" y="72.1074">:Material</text><rect fill="#E3E3E3" height="32.6211" rx="2.5" ry="2.5" style="stroke:#181818;stroke-width:0.5;" width="67.6826" x="917.6675" y="1101.0605"/><text fill="#000000" font-family="sans-serif" font-size="14" lengthAdjust="spacing" textLength="53.6826" x="924.6675" y="1123.168">:Material</text><rect fill="#FFFFFF" height="990.4395" style="stroke:#181818;stroke-width:1.0;" width="10" x="17.7793" y="93.6211"/><rect fill="#FFFFFF" height="93.873" style="stroke:#181818;stroke-width:1.0;" width="10" x="344.8726" y="116.9121"/><rect fill="#FFFFFF" height="213.7461" style="stroke:#181818;stroke-width:1.0;" width="10" x="344.8726" y="242.0762"/><rect fill="#FFFFFF" height="169.4551" style="stroke:#181818;stroke-width:1.0;" width="10" x="344.8726" y="487.1133"/><rect fill="#FFFFFF" height="182.4551" style="stroke:#181818;stroke-width:1.0;" width="10" x="344.8726" y="687.8594"/><rect fill="#FFFFFF" height="182.4551" style="stroke:#181818;stroke-width:1.0;" width="10" x="344.8726" y="901.6055"/><rect fill="#FFFFFF" height="819.6934" style="stroke:#181818;stroke-width:1.0;" width="10" x="560.6787" y="273.3672"/><rect fill="#FFFFFF" height="42.291" style="stroke:#181818;stroke-width:1.0;" width="10" x="565.6787" y="312.6582"/><rect fill="#FFFFFF" height="37.291" style="stroke:#181818;stroke-width:1.0;" width="10" x="565.6787" y="549.6953"/><rect fill="#FFFFFF" height="119.873" style="stroke:#181818;stroke-width:1.0;" width="10" x="565.6787" y="719.1504"/><rect fill="#FFFFFF" height="42.291" style="stroke:#181818;stroke-width:1.0;" width="10" x="570.6787" y="758.4414"/><rect fill="#FFFFFF" height="119.873" style="stroke:#181818;stroke-width:1.0;" width="10" x="565.6787" y="932.8965"/><rect fill="#FFFFFF" height="42.291" style="stroke:#181818;stroke-width:1.0;" width="10" x="570.6787" y="972.1875"/><rect fill="#FFFFFF" height="31.291" style="stroke:#181818;stroke-width:1.0;" width="10" x="843.5229" y="148.2031"/><rect fill="#FFFFFF" height="31.291" style="stroke:#181818;stroke-width:1.0;" width="10" x="843.5229" y="393.2402"/><rect fill="#FFFFFF" height="106.873" style="stroke:#181818;stroke-width:1.0;" width="10" x="843.5229" y="518.4043"/><polygon fill="#181818" points="332.8726,112.9121,342.8726,116.9121,332.8726,120.9121,336.8726,116.9121" style="stroke:#181818;stroke-width:1.0;"/><line style="stroke:#181818;stroke-width:1.0;" x1="27.7793" x2="338.8726" y1="116.9121" y2="116.9121"/><text fill="#000000" font-family="sans-serif" font-size="13" font-weight="bold" lengthAdjust="spacing" textLength="7.23" x="34.7793" y="111.6494">1</text><text fill="#000000" font-family="sans-serif" font-size="13" lengthAdjust="spacing" textLength="93.9517" x="46.0093" y="111.6494">create operation</text><polygon fill="#181818" points="831.5229,144.2031,841.5229,148.2031,831.5229,152.2031,835.5229,148.2031" style="stroke:#181818;stroke-width:1.0;"/><line style="stroke:#181818;stroke-width:1.0;" x1="354.8726" x2="837.5229" y1="148.2031" y2="148.2031"/><text fill="#000000" font-family="sans-serif" font-size="13" font-weight="bold" lengthAdjust="spacing" textLength="7.23" x="361.8726" y="142.9404">2</text><text fill="#000000" font-family="sans-serif" font-size="13" lengthAdjust="spacing" textLength="130.0508" x="373.1025" y="142.9404">create(id, name, price)</text><polygon fill="#181818" points="365.8726,175.4941,355.8726,179.4941,365.8726,183.4941,361.8726,179.4941" style="stroke:#181818;stroke-width:1.0;"/><line style="stroke:#181818;stroke-width:1.0;stroke-dasharray:2.0,2.0;" x1="359.8726" x2="847.5229" y1="179.4941" y2="179.4941"/><text fill="#000000" font-family="sans-serif" font-size="13" font-weight="bold" lengthAdjust="spacing" textLength="7.23" x="371.8726" y="174.2314">3</text><text fill="#000000" font-family="sans-serif" font-size="13" lengthAdjust="spacing" textLength="75.8926" x="383.1025" y="174.2314">node created</text><polygon fill="#181818" points="38.7793,206.7852,28.7793,210.7852,38.7793,214.7852,34.7793,210.7852" style="stroke:#181818;stroke-width:1.0;"/><line style="stroke:#181818;stroke-width:1.0;stroke-dasharray:2.0,2.0;" x1="32.7793" x2="348.8726" y1="210.7852" y2="210.7852"/><text fill="#000000" font-family="sans-serif" font-size="13" font-weight="bold" lengthAdjust="spacing" textLength="7.23" x="44.7793" y="205.5225">4</text><text fill="#000000" font-family="sans-serif" font-size="13" lengthAdjust="spacing" textLength="78.7808" x="56.0093" y="205.5225">node inserted</text><polygon fill="#181818" points="332.8726,238.0762,342.8726,242.0762,332.8726,246.0762,336.8726,242.0762" style="stroke:#181818;stroke-width:1.0;"/><line style="stroke:#181818;stroke-width:1.0;" x1="27.7793" x2="338.8726" y1="242.0762" y2="242.0762"/><text fill="#000000" font-family="sans-serif" font-size="13" font-weight="bold" lengthAdjust="spacing" textLength="7.23" x="34.7793" y="236.8135">5</text><text fill="#000000" font-family="sans-serif" font-size="13" lengthAdjust="spacing" textLength="131.4854" x="46.0093" y="236.8135">create material(param)</text><polygon fill="#181818" points="548.6787,269.3672,558.6787,273.3672,548.6787,277.3672,552.6787,273.3672" style="stroke:#181818;stroke-width:1.0;"/><line style="stroke:#181818;stroke-width:1.0;" x1="354.8726" x2="554.6787" y1="273.3672" y2="273.3672"/><text fill="#000000" font-family="sans-serif" font-size="13" font-weight="bold" lengthAdjust="spacing" textLength="7.23" x="361.8726" y="268.1045">6</text><text fill="#000000" font-family="sans-serif" font-size="13" lengthAdjust="spacing" textLength="175.5762" x="373.1025" y="268.1045">addMaterial(material, quantity)</text><line style="stroke:#181818;stroke-width:1.0;" x1="570.6787" x2="617.6787" y1="299.6582" y2="299.6582"/><line style="stroke:#181818;stroke-width:1.0;" x1="617.6787" x2="617.6787" y1="299.6582" y2="312.6582"/><line style="stroke:#181818;stroke-width:1.0;" x1="576.6787" x2="617.6787" y1="312.6582" y2="312.6582"/><polygon fill="#181818" points="586.6787,308.6582,576.6787,312.6582,586.6787,316.6582,582.6787,312.6582" style="stroke:#181818;stroke-width:1.0;"/><text fill="#000000" font-family="sans-serif" font-size="13" font-weight="bold" lengthAdjust="spacing" textLength="7.23" x="582.6787" y="294.3955">7</text><text fill="#000000" font-family="sans-serif" font-size="13" lengthAdjust="spacing" textLength="233.3716" x="593.9087" y="294.3955">addMaterialRecursive(material, quantity)</text><line style="stroke:#181818;stroke-width:1.0;stroke-dasharray:2.0,2.0;" x1="575.6787" x2="617.6787" y1="353.9492" y2="353.9492"/><line style="stroke:#181818;stroke-width:1.0;stroke-dasharray:2.0,2.0;" x1="617.6787" x2="617.6787" y1="353.9492" y2="366.9492"/><line style="stroke:#181818;stroke-width:1.0;stroke-dasharray:2.0,2.0;" x1="570.6787" x2="617.6787" y1="366.9492" y2="366.9492"/><polygon fill="#181818" points="580.6787,362.9492,570.6787,366.9492,580.6787,370.9492,576.6787,366.9492" style="stroke:#181818;stroke-width:1.0;"/><text fill="#000000" font-family="sans-serif" font-size="13" font-weight="bold" lengthAdjust="spacing" textLength="7.23" x="582.6787" y="348.6865">8</text><text fill="#000000" font-family="sans-serif" font-size="13" lengthAdjust="spacing" textLength="85.998" x="593.9087" y="348.6865">material added</text><polygon fill="#181818" points="831.5229,389.2402,841.5229,393.2402,831.5229,397.2402,835.5229,393.2402" style="stroke:#181818;stroke-width:1.0;"/><line style="stroke:#181818;stroke-width:1.0;" x1="354.8726" x2="837.5229" y1="393.2402" y2="393.2402"/><text fill="#000000" font-family="sans-serif" font-size="13" font-weight="bold" lengthAdjust="spacing" textLength="7.23" x="361.8726" y="387.9775">9</text><text fill="#000000" font-family="sans-serif" font-size="13" lengthAdjust="spacing" textLength="260.1206" x="373.1025" y="387.9775">createMaterialNode(id, name, quantity, price)</text><polygon fill="#181818" points="365.8726,420.5313,355.8726,424.5313,365.8726,428.5313,361.8726,424.5313" style="stroke:#181818;stroke-width:1.0;"/><line style="stroke:#181818;stroke-width:1.0;stroke-dasharray:2.0,2.0;" x1="359.8726" x2="847.5229" y1="424.5313" y2="424.5313"/><text fill="#000000" font-family="sans-serif" font-size="13" font-weight="bold" lengthAdjust="spacing" textLength="14.46" x="371.8726" y="419.2686">10</text><text fill="#000000" font-family="sans-serif" font-size="13" lengthAdjust="spacing" textLength="125.7407" x="390.3325" y="419.2686">material node created</text><polygon fill="#181818" points="38.7793,451.8223,28.7793,455.8223,38.7793,459.8223,34.7793,455.8223" style="stroke:#181818;stroke-width:1.0;"/><line style="stroke:#181818;stroke-width:1.0;stroke-dasharray:2.0,2.0;" x1="32.7793" x2="348.8726" y1="455.8223" y2="455.8223"/><text fill="#000000" font-family="sans-serif" font-size="13" font-weight="bold" lengthAdjust="spacing" textLength="14.46" x="44.7793" y="450.5596">11</text><text fill="#000000" font-family="sans-serif" font-size="13" lengthAdjust="spacing" textLength="128.6289" x="63.2393" y="450.5596">material node inserted</text><polygon fill="#181818" points="332.8726,483.1133,342.8726,487.1133,332.8726,491.1133,336.8726,487.1133" style="stroke:#181818;stroke-width:1.0;"/><line style="stroke:#181818;stroke-width:1.0;" x1="27.7793" x2="338.8726" y1="487.1133" y2="487.1133"/><text fill="#000000" font-family="sans-serif" font-size="13" font-weight="bold" lengthAdjust="spacing" textLength="14.46" x="34.7793" y="481.8506">12</text><text fill="#000000" font-family="sans-serif" font-size="13" lengthAdjust="spacing" textLength="279.6333" x="53.2393" y="481.8506">updateMaterialQuantity(materialId, newQuantity)</text><polygon fill="#181818" points="831.5229,514.4043,841.5229,518.4043,831.5229,522.4043,835.5229,518.4043" style="stroke:#181818;stroke-width:1.0;"/><line style="stroke:#181818;stroke-width:1.0;" x1="354.8726" x2="837.5229" y1="518.4043" y2="518.4043"/><text fill="#000000" font-family="sans-serif" font-size="13" font-weight="bold" lengthAdjust="spacing" textLength="14.46" x="361.8726" y="513.1416">13</text><text fill="#000000" font-family="sans-serif" font-size="13" lengthAdjust="spacing" textLength="233.397" x="380.3325" y="513.1416">updateQuantity(materialId, newQuantity)</text><polygon fill="#181818" points="586.6787,545.6953,576.6787,549.6953,586.6787,553.6953,582.6787,549.6953" style="stroke:#181818;stroke-width:1.0;"/><line style="stroke:#181818;stroke-width:1.0;" x1="580.6787" x2="842.5229" y1="549.6953" y2="549.6953"/><text fill="#000000" font-family="sans-serif" font-size="13" font-weight="bold" lengthAdjust="spacing" textLength="14.46" x="592.6787" y="544.4326">14</text><text fill="#000000" font-family="sans-serif" font-size="13" lengthAdjust="spacing" textLength="220.3843" x="611.1387" y="544.4326">updateMaterialQuantity(materialNode)</text><line style="stroke:#181818;stroke-width:1.0;" x1="575.6787" x2="617.6787" y1="585.9863" y2="585.9863"/><line style="stroke:#181818;stroke-width:1.0;" x1="617.6787" x2="617.6787" y1="585.9863" y2="598.9863"/><line style="stroke:#181818;stroke-width:1.0;" x1="570.6787" x2="617.6787" y1="598.9863" y2="598.9863"/><polygon fill="#181818" points="580.6787,594.9863,570.6787,598.9863,580.6787,602.9863,576.6787,598.9863" style="stroke:#181818;stroke-width:1.0;"/><text fill="#000000" font-family="sans-serif" font-size="13" font-weight="bold" lengthAdjust="spacing" textLength="14.46" x="582.6787" y="580.7236">15</text><text fill="#000000" font-family="sans-serif" font-size="13" lengthAdjust="spacing" textLength="220.3843" x="601.1387" y="580.7236">updateMaterialQuantity(materialNode)</text><polygon fill="#181818" points="365.8726,621.2773,355.8726,625.2773,365.8726,629.2773,361.8726,625.2773" style="stroke:#181818;stroke-width:1.0;"/><line style="stroke:#181818;stroke-width:1.0;stroke-dasharray:2.0,2.0;" x1="359.8726" x2="847.5229" y1="625.2773" y2="625.2773"/><text fill="#000000" font-family="sans-serif" font-size="13" font-weight="bold" lengthAdjust="spacing" textLength="14.46" x="371.8726" y="620.0146">16</text><text fill="#000000" font-family="sans-serif" font-size="13" lengthAdjust="spacing" textLength="96.1353" x="390.3325" y="620.0146">quantity updated</text><polygon fill="#181818" points="38.7793,652.5684,28.7793,656.5684,38.7793,660.5684,34.7793,656.5684" style="stroke:#181818;stroke-width:1.0;"/><line style="stroke:#181818;stroke-width:1.0;stroke-dasharray:2.0,2.0;" x1="32.7793" x2="348.8726" y1="656.5684" y2="656.5684"/><text fill="#000000" font-family="sans-serif" font-size="13" font-weight="bold" lengthAdjust="spacing" textLength="14.46" x="44.7793" y="651.3057">17</text><text fill="#000000" font-family="sans-serif" font-size="13" lengthAdjust="spacing" textLength="96.1353" x="63.2393" y="651.3057">quantity updated</text><polygon fill="#181818" points="332.8726,683.8594,342.8726,687.8594,332.8726,691.8594,336.8726,687.8594" style="stroke:#181818;stroke-width:1.0;"/><line style="stroke:#181818;stroke-width:1.0;" x1="27.7793" x2="338.8726" y1="687.8594" y2="687.8594"/><text fill="#000000" font-family="sans-serif" font-size="13" font-weight="bold" lengthAdjust="spacing" textLength="14.46" x="34.7793" y="682.5967">18</text><text fill="#000000" font-family="sans-serif" font-size="13" lengthAdjust="spacing" textLength="153.9053" x="53.2393" y="682.5967">getMaterialListAscending()</text><polygon fill="#181818" points="553.6787,715.1504,563.6787,719.1504,553.6787,723.1504,557.6787,719.1504" style="stroke:#181818;stroke-width:1.0;"/><line style="stroke:#181818;stroke-width:1.0;" x1="354.8726" x2="559.6787" y1="719.1504" y2="719.1504"/><text fill="#000000" font-family="sans-serif" font-size="13" font-weight="bold" lengthAdjust="spacing" textLength="14.46" x="361.8726" y="713.8877">19</text><text fill="#000000" font-family="sans-serif" font-size="13" lengthAdjust="spacing" textLength="118.5107" x="380.3325" y="713.8877">getListInAscending()</text><line style="stroke:#181818;stroke-width:1.0;" x1="575.6787" x2="622.6787" y1="745.4414" y2="745.4414"/><line style="stroke:#181818;stroke-width:1.0;" x1="622.6787" x2="622.6787" y1="745.4414" y2="758.4414"/><line style="stroke:#181818;stroke-width:1.0;" x1="581.6787" x2="622.6787" y1="758.4414" y2="758.4414"/><polygon fill="#181818" points="591.6787,754.4414,581.6787,758.4414,591.6787,762.4414,587.6787,758.4414" style="stroke:#181818;stroke-width:1.0;"/><text fill="#000000" font-family="sans-serif" font-size="13" font-weight="bold" lengthAdjust="spacing" textLength="14.46" x="587.6787" y="740.1787">20</text><text fill="#000000" font-family="sans-serif" font-size="13" lengthAdjust="spacing" textLength="127.1626" x="606.1387" y="740.1787">consolidateMaterials()</text><line style="stroke:#181818;stroke-width:1.0;stroke-dasharray:2.0,2.0;" x1="580.6787" x2="622.6787" y1="799.7324" y2="799.7324"/><line style="stroke:#181818;stroke-width:1.0;stroke-dasharray:2.0,2.0;" x1="622.6787" x2="622.6787" y1="799.7324" y2="812.7324"/><line style="stroke:#181818;stroke-width:1.0;stroke-dasharray:2.0,2.0;" x1="575.6787" x2="622.6787" y1="812.7324" y2="812.7324"/><polygon fill="#181818" points="585.6787,808.7324,575.6787,812.7324,585.6787,816.7324,581.6787,812.7324" style="stroke:#181818;stroke-width:1.0;"/><text fill="#000000" font-family="sans-serif" font-size="13" font-weight="bold" lengthAdjust="spacing" textLength="14.46" x="587.6787" y="794.4697">21</text><text fill="#000000" font-family="sans-serif" font-size="13" lengthAdjust="spacing" textLength="157.5425" x="606.1387" y="794.4697">list consolidated and sorted</text><polygon fill="#181818" points="365.8726,835.0234,355.8726,839.0234,365.8726,843.0234,361.8726,839.0234" style="stroke:#181818;stroke-width:1.0;"/><line style="stroke:#181818;stroke-width:1.0;stroke-dasharray:2.0,2.0;" x1="359.8726" x2="559.6787" y1="839.0234" y2="839.0234"/><text fill="#000000" font-family="sans-serif" font-size="13" font-weight="bold" lengthAdjust="spacing" textLength="14.46" x="371.8726" y="833.7607">22</text><text fill="#000000" font-family="sans-serif" font-size="13" lengthAdjust="spacing" textLength="105.479" x="390.3325" y="833.7607">sorted material list</text><polygon fill="#181818" points="38.7793,866.3145,28.7793,870.3145,38.7793,874.3145,34.7793,870.3145" style="stroke:#181818;stroke-width:1.0;"/><line style="stroke:#181818;stroke-width:1.0;stroke-dasharray:2.0,2.0;" x1="32.7793" x2="348.8726" y1="870.3145" y2="870.3145"/><text fill="#000000" font-family="sans-serif" font-size="13" font-weight="bold" lengthAdjust="spacing" textLength="14.46" x="44.7793" y="865.0518">23</text><text fill="#000000" font-family="sans-serif" font-size="13" lengthAdjust="spacing" textLength="93.2026" x="63.2393" y="865.0518">return sorted list</text><polygon fill="#181818" points="332.8726,897.6055,342.8726,901.6055,332.8726,905.6055,336.8726,901.6055" style="stroke:#181818;stroke-width:1.0;"/><line style="stroke:#181818;stroke-width:1.0;" x1="27.7793" x2="338.8726" y1="901.6055" y2="901.6055"/><text fill="#000000" font-family="sans-serif" font-size="13" font-weight="bold" lengthAdjust="spacing" textLength="14.46" x="34.7793" y="896.3428">24</text><text fill="#000000" font-family="sans-serif" font-size="13" lengthAdjust="spacing" textLength="161.8525" x="53.2393" y="896.3428">getMaterialListDescending()</text><polygon fill="#181818" points="553.6787,928.8965,563.6787,932.8965,553.6787,936.8965,557.6787,932.8965" style="stroke:#181818;stroke-width:1.0;"/><line style="stroke:#181818;stroke-width:1.0;" x1="354.8726" x2="559.6787" y1="932.8965" y2="932.8965"/><text fill="#000000" font-family="sans-serif" font-size="13" font-weight="bold" lengthAdjust="spacing" textLength="14.46" x="361.8726" y="927.6338">25</text><text fill="#000000" font-family="sans-serif" font-size="13" lengthAdjust="spacing" textLength="126.458" x="380.3325" y="927.6338">getListInDescending()</text><line style="stroke:#181818;stroke-width:1.0;" x1="575.6787" x2="622.6787" y1="959.1875" y2="959.1875"/><line style="stroke:#181818;stroke-width:1.0;" x1="622.6787" x2="622.6787" y1="959.1875" y2="972.1875"/><line style="stroke:#181818;stroke-width:1.0;" x1="581.6787" x2="622.6787" y1="972.1875" y2="972.1875"/><polygon fill="#181818" points="591.6787,968.1875,581.6787,972.1875,591.6787,976.1875,587.6787,972.1875" style="stroke:#181818;stroke-width:1.0;"/><text fill="#000000" font-family="sans-serif" font-size="13" font-weight="bold" lengthAdjust="spacing" textLength="14.46" x="587.6787" y="953.9248">26</text><text fill="#000000" font-family="sans-serif" font-size="13" lengthAdjust="spacing" textLength="127.1626" x="606.1387" y="953.9248">consolidateMaterials()</text><line style="stroke:#181818;stroke-width:1.0;stroke-dasharray:2.0,2.0;" x1="580.6787" x2="622.6787" y1="1013.4785" y2="1013.4785"/><line style="stroke:#181818;stroke-width:1.0;stroke-dasharray:2.0,2.0;" x1="622.6787" x2="622.6787" y1="1013.4785" y2="1026.4785"/><line style="stroke:#181818;stroke-width:1.0;stroke-dasharray:2.0,2.0;" x1="575.6787" x2="622.6787" y1="1026.4785" y2="1026.4785"/><polygon fill="#181818" points="585.6787,1022.4785,575.6787,1026.4785,585.6787,1030.4785,581.6787,1026.4785" style="stroke:#181818;stroke-width:1.0;"/><text fill="#000000" font-family="sans-serif" font-size="13" font-weight="bold" lengthAdjust="spacing" textLength="14.46" x="587.6787" y="1008.2158">27</text><text fill="#000000" font-family="sans-serif" font-size="13" lengthAdjust="spacing" textLength="157.5425" x="606.1387" y="1008.2158">list consolidated and sorted</text><polygon fill="#181818" points="365.8726,1048.7695,355.8726,1052.7695,365.8726,1056.7695,361.8726,1052.7695" style="stroke:#181818;stroke-width:1.0;"/><line style="stroke:#181818;stroke-width:1.0;stroke-dasharray:2.0,2.0;" x1="359.8726" x2="559.6787" y1="1052.7695" y2="1052.7695"/><text fill="#000000" font-family="sans-serif" font-size="13" font-weight="bold" lengthAdjust="spacing" textLength="14.46" x="371.8726" y="1047.5068">28</text><text fill="#000000" font-family="sans-serif" font-size="13" lengthAdjust="spacing" textLength="105.479" x="390.3325" y="1047.5068">sorted material list</text><polygon fill="#181818" points="33.7793,1080.0605,23.7793,1084.0605,33.7793,1088.0605,29.7793,1084.0605" style="stroke:#181818;stroke-width:1.0;"/><line style="stroke:#181818;stroke-width:1.0;stroke-dasharray:2.0,2.0;" x1="27.7793" x2="348.8726" y1="1084.0605" y2="1084.0605"/><text fill="#000000" font-family="sans-serif" font-size="13" font-weight="bold" lengthAdjust="spacing" textLength="14.46" x="39.7793" y="1078.7979">29</text><text fill="#000000" font-family="sans-serif" font-size="13" lengthAdjust="spacing" textLength="93.2026" x="58.2393" y="1078.7979">return sorted list</text><!--SRC=[xPPDRi8m48NtEON5AaZq0YmgKNM3r5Qbq0EuzZHO97Rg7n2thvt4mGb98EcsA_1qtkUPUMDKTM0ynn9dA1DSaBqK6I0j3KIg_akEoG4diDNd5904eZ5FqZ11xJ4L9yOJz8rJ1L64ZHRSP5yWxNUYXKIpJmLoXh12AtUEh50pmdBCDPejtwMWXcWc-4u256akv0wjp5UiGJASRemzCtr-skwAT1-tvrxscw0NjZlqi1l0eW5sjAUgygZuG0-FTObeYOW4bo5oaDXTTH7LVKHrUYLr5TJIcD45uZY31Seb8p1l4efgQz53ytBkOYM6HXIwXUNDLbYMNwaOjxPqoCgA1phDgl74nGRCR_KRs6CPc58VY3reWNugImDOw6g8629-035IiIDCH5-nFSPTqfnKo1YsrsUwO62rhsk2wNLLqznloiUlWSbfq9P_ZVN8rwv5E6skvtxpFPJaaSJMgDeMtgZMYQPitLtOddtfyzMlH0KVOUajPR-P2MXVsWjJUgK8S6f_pkCkt_gVjSKu-Pft0kwUAX5SYPI5erNnf9URscf274MOKwH4UzM7YC6OIk7bwJZyaBrN3adGHdBFQSj7UVGCVpMfc_3lqjqk1S7oFuDV]--></g></svg>