<?xml version="1.0" encoding="UTF-8" standalone="no"?>
<!DOCTYPE svg PUBLIC "-//W3C//DTD SVG 1.1//EN"
 "http://www.w3.org/Graphics/SVG/1.1/DTD/svg11.dtd">
<!-- Generated by graphviz version 12.2.0 (20241103.1931)
 -->
<!-- Title: PERT_CPM Pages: 1 -->
<svg width="2752pt" height="564pt"
 viewBox="0.00 0.00 2752.25 564.40" xmlns="http://www.w3.org/2000/svg" xmlns:xlink="http://www.w3.org/1999/xlink">
<g id="graph0" class="graph" transform="scale(1 1) rotate(0) translate(4 560.4)">
<title>PERT_CPM</title>
<polygon fill="white" stroke="none" points="-4,4 -4,-560.4 2748.25,-560.4 2748.25,4 -4,4"/>
<!-- F -->
<g id="node1" class="node">
<title>F</title>
<path fill="lightcoral" stroke="black" d="M1147.09,-466.51C1147.09,-466.51 1119.41,-493.09 1119.41,-493.09 1115.08,-497.24 1104.75,-501.4 1098.75,-501.4 1098.75,-501.4 1032.75,-501.4 1032.75,-501.4 1026.75,-501.4 1016.42,-497.24 1012.09,-493.09 1012.09,-493.09 984.41,-466.51 984.41,-466.51 980.08,-462.36 980.08,-454.04 984.41,-449.89 984.41,-449.89 1012.09,-423.31 1012.09,-423.31 1016.42,-419.16 1026.75,-415 1032.75,-415 1032.75,-415 1098.75,-415 1098.75,-415 1104.75,-415 1115.08,-419.16 1119.41,-423.31 1119.41,-423.31 1147.09,-449.89 1147.09,-449.89 1151.42,-454.04 1151.42,-462.36 1147.09,-466.51"/>
<text text-anchor="middle" x="1065.75" y="-452.77" font-family="Arial" font-size="14.00">F</text>
</g>
<!-- H -->
<g id="node7" class="node">
<title>H</title>
<ellipse fill="lightblue" stroke="black" cx="1626" cy="-513.2" rx="90" ry="43.2"/>
<text text-anchor="middle" x="1626" y="-507.78" font-family="Arial" font-size="14.00" fill="darkblue">H</text>
</g>
<!-- F&#45;&gt;H -->
<g id="edge2" class="edge">
<title>F&#45;&gt;H</title>
<path fill="none" stroke="gray" stroke-width="2" d="M1147.92,-466.2C1247.74,-476.03 1417.14,-492.72 1524.92,-503.34"/>
<polygon fill="gray" stroke="gray" stroke-width="2" points="1524.44,-506.81 1534.74,-504.31 1525.13,-499.84 1524.44,-506.81"/>
<text text-anchor="middle" x="1228.88" y="-478.18" font-family="Arial" font-size="12.00">4 week</text>
</g>
<!-- G -->
<g id="node8" class="node">
<title>G</title>
<path fill="lightcoral" stroke="black" d="M1473.34,-242.51C1473.34,-242.51 1445.66,-269.09 1445.66,-269.09 1441.33,-273.24 1431,-277.4 1425,-277.4 1425,-277.4 1359,-277.4 1359,-277.4 1353,-277.4 1342.67,-273.24 1338.34,-269.09 1338.34,-269.09 1310.66,-242.51 1310.66,-242.51 1306.33,-238.36 1306.33,-230.04 1310.66,-225.89 1310.66,-225.89 1338.34,-199.31 1338.34,-199.31 1342.67,-195.16 1353,-191 1359,-191 1359,-191 1425,-191 1425,-191 1431,-191 1441.33,-195.16 1445.66,-199.31 1445.66,-199.31 1473.34,-225.89 1473.34,-225.89 1477.67,-230.04 1477.67,-238.36 1473.34,-242.51"/>
<text text-anchor="middle" x="1392" y="-228.77" font-family="Arial" font-size="14.00">G</text>
</g>
<!-- F&#45;&gt;G -->
<g id="edge1" class="edge">
<title>F&#45;&gt;G</title>
<path fill="none" stroke="gray" stroke-width="2" d="M1118.85,-422.21C1175.93,-382.78 1267.46,-319.54 1328.4,-277.44"/>
<polygon fill="gray" stroke="gray" stroke-width="2" points="1330.3,-280.38 1336.54,-271.82 1326.33,-274.62 1330.3,-280.38"/>
<text text-anchor="middle" x="1228.88" y="-355.77" font-family="Arial" font-size="12.00">4 week</text>
</g>
<!-- B -->
<g id="node2" class="node">
<title>B</title>
<path fill="lightcoral" stroke="black" d="M494.59,-496.51C494.59,-496.51 466.91,-523.09 466.91,-523.09 462.58,-527.24 452.25,-531.4 446.25,-531.4 446.25,-531.4 380.25,-531.4 380.25,-531.4 374.25,-531.4 363.92,-527.24 359.59,-523.09 359.59,-523.09 331.91,-496.51 331.91,-496.51 327.58,-492.36 327.58,-484.04 331.91,-479.89 331.91,-479.89 359.59,-453.31 359.59,-453.31 363.92,-449.16 374.25,-445 380.25,-445 380.25,-445 446.25,-445 446.25,-445 452.25,-445 462.58,-449.16 466.91,-453.31 466.91,-453.31 494.59,-479.89 494.59,-479.89 498.92,-484.04 498.92,-492.36 494.59,-496.51"/>
<text text-anchor="middle" x="413.25" y="-482.77" font-family="Arial" font-size="14.00">B</text>
</g>
<!-- C -->
<g id="node10" class="node">
<title>C</title>
<path fill="lightcoral" stroke="black" d="M820.84,-496.51C820.84,-496.51 793.16,-523.09 793.16,-523.09 788.83,-527.24 778.5,-531.4 772.5,-531.4 772.5,-531.4 706.5,-531.4 706.5,-531.4 700.5,-531.4 690.17,-527.24 685.84,-523.09 685.84,-523.09 658.16,-496.51 658.16,-496.51 653.83,-492.36 653.83,-484.04 658.16,-479.89 658.16,-479.89 685.84,-453.31 685.84,-453.31 690.17,-449.16 700.5,-445 706.5,-445 706.5,-445 772.5,-445 772.5,-445 778.5,-445 788.83,-449.16 793.16,-453.31 793.16,-453.31 820.84,-479.89 820.84,-479.89 825.17,-484.04 825.17,-492.36 820.84,-496.51"/>
<text text-anchor="middle" x="739.5" y="-482.77" font-family="Arial" font-size="14.00">C</text>
</g>
<!-- B&#45;&gt;C -->
<g id="edge3" class="edge">
<title>B&#45;&gt;C</title>
<path fill="none" stroke="gray" stroke-width="2" d="M503.71,-488.2C544.74,-488.2 593.59,-488.2 636.08,-488.2"/>
<polygon fill="gray" stroke="gray" stroke-width="2" points="636.02,-491.7 646.02,-488.2 636.02,-484.7 636.02,-491.7"/>
<text text-anchor="middle" x="576.38" y="-491.05" font-family="Arial" font-size="12.00">4 week</text>
</g>
<!-- K -->
<g id="node3" class="node">
<title>K</title>
<path fill="lightcoral" stroke="black" d="M1941.34,-435.51C1941.34,-435.51 1913.66,-462.09 1913.66,-462.09 1909.33,-466.24 1899,-470.4 1893,-470.4 1893,-470.4 1827,-470.4 1827,-470.4 1821,-470.4 1810.67,-466.24 1806.34,-462.09 1806.34,-462.09 1778.66,-435.51 1778.66,-435.51 1774.33,-431.36 1774.33,-423.04 1778.66,-418.89 1778.66,-418.89 1806.34,-392.31 1806.34,-392.31 1810.67,-388.16 1821,-384 1827,-384 1827,-384 1893,-384 1893,-384 1899,-384 1909.33,-388.16 1913.66,-392.31 1913.66,-392.31 1941.34,-418.89 1941.34,-418.89 1945.67,-423.04 1945.67,-431.36 1941.34,-435.51"/>
<text text-anchor="middle" x="1860" y="-421.77" font-family="Arial" font-size="14.00">K</text>
</g>
<!-- L -->
<g id="node9" class="node">
<title>L</title>
<path fill="lightcoral" stroke="black" d="M2409.34,-319.51C2409.34,-319.51 2381.66,-346.09 2381.66,-346.09 2377.33,-350.24 2367,-354.4 2361,-354.4 2361,-354.4 2295,-354.4 2295,-354.4 2289,-354.4 2278.67,-350.24 2274.34,-346.09 2274.34,-346.09 2246.66,-319.51 2246.66,-319.51 2242.33,-315.36 2242.33,-307.04 2246.66,-302.89 2246.66,-302.89 2274.34,-276.31 2274.34,-276.31 2278.67,-272.16 2289,-268 2295,-268 2295,-268 2361,-268 2361,-268 2367,-268 2377.33,-272.16 2381.66,-276.31 2381.66,-276.31 2409.34,-302.89 2409.34,-302.89 2413.67,-307.04 2413.67,-315.36 2409.34,-319.51"/>
<text text-anchor="middle" x="2328" y="-305.77" font-family="Arial" font-size="14.00">L</text>
</g>
<!-- K&#45;&gt;L -->
<g id="edge4" class="edge">
<title>K&#45;&gt;L</title>
<path fill="none" stroke="gray" stroke-width="2" d="M1932.03,-409.52C2015.77,-388.67 2154.77,-354.07 2243.57,-331.97"/>
<polygon fill="gray" stroke="gray" stroke-width="2" points="2244.23,-335.41 2253.09,-329.6 2242.54,-328.62 2244.23,-335.41"/>
<text text-anchor="middle" x="2094" y="-392.53" font-family="Arial" font-size="12.00">1 week</text>
</g>
<!-- START -->
<g id="node4" class="node">
<title>START</title>
<path fill="lightcoral" stroke="black" d="M171.34,-398.51C171.34,-398.51 143.66,-425.09 143.66,-425.09 139.33,-429.24 129,-433.4 123,-433.4 123,-433.4 57,-433.4 57,-433.4 51,-433.4 40.67,-429.24 36.34,-425.09 36.34,-425.09 8.66,-398.51 8.66,-398.51 4.33,-394.36 4.33,-386.04 8.66,-381.89 8.66,-381.89 36.34,-355.31 36.34,-355.31 40.67,-351.16 51,-347 57,-347 57,-347 123,-347 123,-347 129,-347 139.33,-351.16 143.66,-355.31 143.66,-355.31 171.34,-381.89 171.34,-381.89 175.67,-386.04 175.67,-394.36 171.34,-398.51"/>
<text text-anchor="middle" x="90" y="-384.77" font-family="Arial" font-size="14.00">START</text>
</g>
<!-- START&#45;&gt;B -->
<g id="edge5" class="edge">
<title>START&#45;&gt;B</title>
<path fill="none" stroke="gray" stroke-width="2" d="M158.74,-410.86C209.37,-426.31 278.77,-447.48 332.16,-463.77"/>
<polygon fill="gray" stroke="gray" stroke-width="2" points="330.85,-467.03 341.43,-466.6 332.89,-460.33 330.85,-467.03"/>
<text text-anchor="middle" x="251.62" y="-444.99" font-family="Arial" font-size="12.00">0 days</text>
</g>
<!-- A -->
<g id="node6" class="node">
<title>A</title>
<ellipse fill="lightblue" stroke="black" cx="413.25" cy="-294.2" rx="90" ry="43.2"/>
<text text-anchor="middle" x="413.25" y="-288.77" font-family="Arial" font-size="14.00" fill="darkblue">A</text>
</g>
<!-- START&#45;&gt;A -->
<g id="edge6" class="edge">
<title>START&#45;&gt;A</title>
<path fill="none" stroke="gray" stroke-width="2" d="M147.97,-358.92C173.6,-346.03 204.64,-332.02 234,-322.95 258.96,-315.23 286.57,-309.5 312.45,-305.26"/>
<polygon fill="gray" stroke="gray" stroke-width="2" points="312.67,-308.77 322.01,-303.77 311.59,-301.86 312.67,-308.77"/>
<text text-anchor="middle" x="251.62" y="-325.8" font-family="Arial" font-size="12.00">0 days</text>
</g>
<!-- D -->
<g id="node5" class="node">
<title>D</title>
<ellipse fill="lightblue" stroke="black" cx="739.5" cy="-294.2" rx="90" ry="43.2"/>
<text text-anchor="middle" x="739.5" y="-288.77" font-family="Arial" font-size="14.00" fill="darkblue">D</text>
</g>
<!-- D&#45;&gt;F -->
<g id="edge8" class="edge">
<title>D&#45;&gt;F</title>
<path fill="none" stroke="gray" stroke-width="2" d="M802.25,-325.43C857.18,-353.21 937.44,-393.81 994.73,-422.79"/>
<polygon fill="gray" stroke="gray" stroke-width="2" points="993.03,-425.84 1003.53,-427.24 996.18,-419.6 993.03,-425.84"/>
<text text-anchor="middle" x="902.62" y="-383.97" font-family="Arial" font-size="12.00">3 week</text>
</g>
<!-- E -->
<g id="node11" class="node">
<title>E</title>
<ellipse fill="lightblue" stroke="black" cx="1065.75" cy="-234.2" rx="90" ry="43.2"/>
<text text-anchor="middle" x="1065.75" y="-228.77" font-family="Arial" font-size="14.00" fill="darkblue">E</text>
</g>
<!-- D&#45;&gt;E -->
<g id="edge7" class="edge">
<title>D&#45;&gt;E</title>
<path fill="none" stroke="gray" stroke-width="2" d="M798.76,-261.3C823.98,-248.85 854.36,-236.2 883.5,-229.95 909.55,-224.37 938.19,-222.94 964.86,-223.53"/>
<polygon fill="gray" stroke="gray" stroke-width="2" points="964.63,-227.03 974.75,-223.87 964.88,-220.03 964.63,-227.03"/>
<text text-anchor="middle" x="902.62" y="-232.8" font-family="Arial" font-size="12.00">3 week</text>
</g>
<!-- A&#45;&gt;D -->
<g id="edge9" class="edge">
<title>A&#45;&gt;D</title>
<path fill="none" stroke="gray" stroke-width="2" d="M503.71,-294.2C544.74,-294.2 593.59,-294.2 636.08,-294.2"/>
<polygon fill="gray" stroke="gray" stroke-width="2" points="636.02,-297.7 646.02,-294.2 636.02,-290.7 636.02,-297.7"/>
<text text-anchor="middle" x="576.38" y="-297.05" font-family="Arial" font-size="12.00">1 week</text>
</g>
<!-- H&#45;&gt;L -->
<g id="edge10" class="edge">
<title>H&#45;&gt;L</title>
<path fill="none" stroke="gray" stroke-width="2" d="M1712.13,-526.32C1777.72,-533.97 1870.37,-539.44 1950,-524.2 2059.92,-503.16 2087.91,-488.57 2184,-431.2 2215.83,-412.2 2247.77,-386.22 2273.36,-363.29"/>
<polygon fill="gray" stroke="gray" stroke-width="2" points="2275.55,-366.02 2280.6,-356.71 2270.85,-360.84 2275.55,-366.02"/>
<text text-anchor="middle" x="1860" y="-536.74" font-family="Arial" font-size="12.00">2 week</text>
</g>
<!-- G&#45;&gt;K -->
<g id="edge13" class="edge">
<title>G&#45;&gt;K</title>
<path fill="none" stroke="gray" stroke-width="2" d="M1455.36,-260.03C1540.69,-295.37 1693.61,-358.7 1784.74,-396.45"/>
<polygon fill="gray" stroke="gray" stroke-width="2" points="1783.26,-399.62 1793.84,-400.21 1785.94,-393.15 1783.26,-399.62"/>
<text text-anchor="middle" x="1626" y="-367.62" font-family="Arial" font-size="12.00">3 week</text>
</g>
<!-- I -->
<g id="node12" class="node">
<title>I</title>
<path fill="lightcoral" stroke="black" d="M1941.34,-241.51C1941.34,-241.51 1913.66,-268.09 1913.66,-268.09 1909.33,-272.24 1899,-276.4 1893,-276.4 1893,-276.4 1827,-276.4 1827,-276.4 1821,-276.4 1810.67,-272.24 1806.34,-268.09 1806.34,-268.09 1778.66,-241.51 1778.66,-241.51 1774.33,-237.36 1774.33,-229.04 1778.66,-224.89 1778.66,-224.89 1806.34,-198.31 1806.34,-198.31 1810.67,-194.16 1821,-190 1827,-190 1827,-190 1893,-190 1893,-190 1899,-190 1909.33,-194.16 1913.66,-198.31 1913.66,-198.31 1941.34,-224.89 1941.34,-224.89 1945.67,-229.04 1945.67,-237.36 1941.34,-241.51"/>
<text text-anchor="middle" x="1860" y="-227.77" font-family="Arial" font-size="14.00">I</text>
</g>
<!-- G&#45;&gt;I -->
<g id="edge11" class="edge">
<title>G&#45;&gt;I</title>
<path fill="none" stroke="gray" stroke-width="2" d="M1482.3,-234.01C1560.69,-233.84 1674.69,-233.6 1756.73,-233.42"/>
<polygon fill="gray" stroke="gray" stroke-width="2" points="1756.59,-236.92 1766.58,-233.4 1756.57,-229.92 1756.59,-236.92"/>
<text text-anchor="middle" x="1626" y="-236.73" font-family="Arial" font-size="12.00">3 week</text>
</g>
<!-- J -->
<g id="node13" class="node">
<title>J</title>
<ellipse fill="lightblue" stroke="black" cx="2094" cy="-43.2" rx="90" ry="43.2"/>
<text text-anchor="middle" x="2094" y="-37.77" font-family="Arial" font-size="14.00" fill="darkblue">J</text>
</g>
<!-- G&#45;&gt;J -->
<g id="edge12" class="edge">
<title>G&#45;&gt;J</title>
<path fill="none" stroke="gray" stroke-width="2" d="M1461.27,-213.63C1484.9,-206.62 1511.58,-198.82 1536,-191.95 1699.75,-145.9 1891.57,-95.44 2002.01,-66.71"/>
<polygon fill="gray" stroke="gray" stroke-width="2" points="2002.69,-70.15 2011.49,-64.25 2000.93,-63.38 2002.69,-70.15"/>
<text text-anchor="middle" x="1626" y="-194.8" font-family="Arial" font-size="12.00">3 week</text>
</g>
<!-- END -->
<g id="node14" class="node">
<title>END</title>
<path fill="lightcoral" stroke="black" d="M2735.59,-192.51C2735.59,-192.51 2707.91,-219.09 2707.91,-219.09 2703.58,-223.24 2693.25,-227.4 2687.25,-227.4 2687.25,-227.4 2621.25,-227.4 2621.25,-227.4 2615.25,-227.4 2604.92,-223.24 2600.59,-219.09 2600.59,-219.09 2572.91,-192.51 2572.91,-192.51 2568.58,-188.36 2568.58,-180.04 2572.91,-175.89 2572.91,-175.89 2600.59,-149.31 2600.59,-149.31 2604.92,-145.16 2615.25,-141 2621.25,-141 2621.25,-141 2687.25,-141 2687.25,-141 2693.25,-141 2703.58,-145.16 2707.91,-149.31 2707.91,-149.31 2735.59,-175.89 2735.59,-175.89 2739.92,-180.04 2739.92,-188.36 2735.59,-192.51"/>
<text text-anchor="middle" x="2654.25" y="-178.77" font-family="Arial" font-size="14.00">END</text>
</g>
<!-- L&#45;&gt;END -->
<g id="edge14" class="edge">
<title>L&#45;&gt;END</title>
<path fill="none" stroke="gray" stroke-width="2" d="M2392.67,-286.26C2445.77,-265.46 2521.53,-235.79 2577.69,-213.79"/>
<polygon fill="gray" stroke="gray" stroke-width="2" points="2578.87,-217.09 2586.9,-210.19 2576.31,-210.57 2578.87,-217.09"/>
<text text-anchor="middle" x="2491.12" y="-254.36" font-family="Arial" font-size="12.00">2 week</text>
</g>
<!-- C&#45;&gt;F -->
<g id="edge15" class="edge">
<title>C&#45;&gt;F</title>
<path fill="none" stroke="gray" stroke-width="2" d="M822.32,-480.63C867.25,-476.47 923.19,-471.3 970.01,-466.97"/>
<polygon fill="gray" stroke="gray" stroke-width="2" points="970.3,-470.45 979.94,-466.05 969.66,-463.48 970.3,-470.45"/>
<text text-anchor="middle" x="902.62" y="-476.95" font-family="Arial" font-size="12.00">2 week</text>
</g>
<!-- E&#45;&gt;G -->
<g id="edge16" class="edge">
<title>E&#45;&gt;G</title>
<path fill="none" stroke="gray" stroke-width="2" d="M1155.71,-230.76C1185.09,-229.98 1217.94,-229.5 1248,-229.95 1262.12,-230.16 1277.02,-230.49 1291.65,-230.87"/>
<polygon fill="gray" stroke="gray" stroke-width="2" points="1291.31,-234.36 1301.4,-231.13 1291.5,-227.36 1291.31,-234.36"/>
<text text-anchor="middle" x="1228.88" y="-232.8" font-family="Arial" font-size="12.00">2 week</text>
</g>
<!-- I&#45;&gt;L -->
<g id="edge17" class="edge">
<title>I&#45;&gt;L</title>
<path fill="none" stroke="gray" stroke-width="2" d="M1947.13,-229.98C2012.85,-229.42 2105.2,-232.76 2184,-250.95 2208.59,-256.63 2234.33,-266.21 2257.09,-276.09"/>
<polygon fill="gray" stroke="gray" stroke-width="2" points="2255.37,-279.16 2265.93,-280.03 2258.22,-272.77 2255.37,-279.16"/>
<text text-anchor="middle" x="2094" y="-253.8" font-family="Arial" font-size="12.00">1 week</text>
</g>
<!-- J&#45;&gt;END -->
<g id="edge18" class="edge">
<title>J&#45;&gt;END</title>
<path fill="none" stroke="gray" stroke-width="2" d="M2174.39,-63.25C2279.36,-89.76 2463.45,-136.26 2570.21,-163.23"/>
<polygon fill="gray" stroke="gray" stroke-width="2" points="2569.03,-166.54 2579.59,-165.59 2570.75,-159.75 2569.03,-166.54"/>
<text text-anchor="middle" x="2328" y="-125.59" font-family="Arial" font-size="12.00">1 week</text>
</g>
</g>
</svg>
