<?xml version="1.0" encoding="UTF-8" standalone="no"?>
<!DOCTYPE svg PUBLIC "-//W3C//DTD SVG 1.1//EN"
 "http://www.w3.org/Graphics/SVG/1.1/DTD/svg11.dtd">
<!-- Generated by graphviz version 12.2.0 (20241103.1931)
 -->
<!-- Title: PERT_CPM Pages: 1 -->
<svg width="3218pt" height="494pt"
 viewBox="0.00 0.00 3218.00 494.40" xmlns="http://www.w3.org/2000/svg" xmlns:xlink="http://www.w3.org/1999/xlink">
<g id="graph0" class="graph" transform="scale(1 1) rotate(0) translate(4 490.4)">
<title>PERT_CPM</title>
<polygon fill="white" stroke="none" points="-4,4 -4,-490.4 3214,-490.4 3214,4 -4,4"/>
<!-- A9 -->
<g id="node1" class="node">
<title>A9</title>
<ellipse fill="lightblue" stroke="black" cx="1605" cy="-443.2" rx="90" ry="43.2"/>
<text text-anchor="middle" x="1605" y="-437.77" font-family="Arial" font-size="14.00" fill="darkblue">A9</text>
</g>
<!-- A13 -->
<g id="node14" class="node">
<title>A13</title>
<ellipse fill="lightblue" stroke="black" cx="2479.5" cy="-340.2" rx="90" ry="43.2"/>
<text text-anchor="middle" x="2479.5" y="-334.77" font-family="Arial" font-size="14.00" fill="darkblue">A13</text>
</g>
<!-- A9&#45;&gt;A13 -->
<g id="edge1" class="edge">
<title>A9&#45;&gt;A13</title>
<path fill="none" stroke="gray" stroke-width="2" d="M1692.85,-432.95C1855.82,-413.71 2206.53,-372.31 2378.83,-351.97"/>
<polygon fill="gray" stroke="gray" stroke-width="2" points="2379.15,-355.45 2388.67,-350.8 2378.33,-348.5 2379.15,-355.45"/>
<text text-anchor="middle" x="1999.12" y="-400.16" font-family="Arial" font-size="12.00">6 dias</text>
</g>
<!-- A7 -->
<g id="node2" class="node">
<title>A7</title>
<ellipse fill="lightblue" stroke="black" cx="1371" cy="-43.2" rx="90" ry="43.2"/>
<text text-anchor="middle" x="1371" y="-37.77" font-family="Arial" font-size="14.00" fill="darkblue">A7</text>
</g>
<!-- A10 -->
<g id="node6" class="node">
<title>A10</title>
<ellipse fill="lightblue" stroke="black" cx="1839" cy="-43.2" rx="90" ry="43.2"/>
<text text-anchor="middle" x="1839" y="-37.77" font-family="Arial" font-size="14.00" fill="darkblue">A10</text>
</g>
<!-- A7&#45;&gt;A10 -->
<g id="edge2" class="edge">
<title>A7&#45;&gt;A10</title>
<path fill="none" stroke="gray" stroke-width="2" d="M1461.3,-43.2C1539.69,-43.2 1653.69,-43.2 1735.73,-43.2"/>
<polygon fill="gray" stroke="gray" stroke-width="2" points="1735.58,-46.7 1745.58,-43.2 1735.58,-39.7 1735.58,-46.7"/>
<text text-anchor="middle" x="1605" y="-46.05" font-family="Arial" font-size="12.00">10 dias</text>
</g>
<!-- A8 -->
<g id="node3" class="node">
<title>A8</title>
<ellipse fill="lightblue" stroke="black" cx="1371" cy="-237.2" rx="90" ry="43.2"/>
<text text-anchor="middle" x="1371" y="-231.77" font-family="Arial" font-size="14.00" fill="darkblue">A8</text>
</g>
<!-- A11 -->
<g id="node11" class="node">
<title>A11</title>
<ellipse fill="lightblue" stroke="black" cx="1839" cy="-237.2" rx="90" ry="43.2"/>
<text text-anchor="middle" x="1839" y="-231.77" font-family="Arial" font-size="14.00" fill="darkblue">A11</text>
</g>
<!-- A8&#45;&gt;A11 -->
<g id="edge3" class="edge">
<title>A8&#45;&gt;A11</title>
<path fill="none" stroke="gray" stroke-width="2" d="M1461.3,-237.2C1539.69,-237.2 1653.69,-237.2 1735.73,-237.2"/>
<polygon fill="gray" stroke="gray" stroke-width="2" points="1735.58,-240.7 1745.58,-237.2 1735.58,-233.7 1735.58,-240.7"/>
<text text-anchor="middle" x="1605" y="-240.05" font-family="Arial" font-size="12.00">7 dias</text>
</g>
<!-- A6 -->
<g id="node4" class="node">
<title>A6</title>
<ellipse fill="lightblue" stroke="black" cx="1050.75" cy="-345.2" rx="90" ry="43.2"/>
<text text-anchor="middle" x="1050.75" y="-339.77" font-family="Arial" font-size="14.00" fill="darkblue">A6</text>
</g>
<!-- A6&#45;&gt;A9 -->
<g id="edge5" class="edge">
<title>A6&#45;&gt;A9</title>
<path fill="none" stroke="gray" stroke-width="2" d="M1135.62,-360.08C1235.66,-377.84 1402.52,-407.45 1507.73,-426.12"/>
<polygon fill="gray" stroke="gray" stroke-width="2" points="1506.8,-429.51 1517.26,-427.81 1508.03,-422.61 1506.8,-429.51"/>
<text text-anchor="middle" x="1210.88" y="-378.57" font-family="Arial" font-size="12.00">5 dias</text>
</g>
<!-- A6&#45;&gt;A8 -->
<g id="edge4" class="edge">
<title>A6&#45;&gt;A8</title>
<path fill="none" stroke="gray" stroke-width="2" d="M1124.76,-320.42C1172.4,-304.26 1234.78,-283.09 1284.7,-266.15"/>
<polygon fill="gray" stroke="gray" stroke-width="2" points="1285.57,-269.55 1293.91,-263.02 1283.32,-262.92 1285.57,-269.55"/>
<text text-anchor="middle" x="1210.88" y="-297.29" font-family="Arial" font-size="12.00">5 dias</text>
</g>
<!-- A5 -->
<g id="node5" class="node">
<title>A5</title>
<ellipse fill="lightblue" stroke="black" cx="1050.75" cy="-151.2" rx="90" ry="43.2"/>
<text text-anchor="middle" x="1050.75" y="-145.77" font-family="Arial" font-size="14.00" fill="darkblue">A5</text>
</g>
<!-- A5&#45;&gt;A7 -->
<g id="edge6" class="edge">
<title>A5&#45;&gt;A7</title>
<path fill="none" stroke="gray" stroke-width="2" d="M1124.76,-126.42C1172.4,-110.26 1234.78,-89.09 1284.7,-72.15"/>
<polygon fill="gray" stroke="gray" stroke-width="2" points="1285.57,-75.55 1293.91,-69.02 1283.32,-68.92 1285.57,-75.55"/>
<text text-anchor="middle" x="1210.88" y="-103.29" font-family="Arial" font-size="12.00">8 dias</text>
</g>
<!-- A5&#45;&gt;A8 -->
<g id="edge7" class="edge">
<title>A5&#45;&gt;A8</title>
<path fill="none" stroke="gray" stroke-width="2" d="M1139.09,-160.31C1167.44,-164.38 1198.84,-170.09 1227,-177.95 1249.28,-184.17 1272.75,-192.9 1294.08,-201.76"/>
<polygon fill="gray" stroke="gray" stroke-width="2" points="1292.67,-204.96 1303.25,-205.64 1295.4,-198.52 1292.67,-204.96"/>
<text text-anchor="middle" x="1210.88" y="-180.8" font-family="Arial" font-size="12.00">8 dias</text>
</g>
<!-- A12 -->
<g id="node13" class="node">
<title>A12</title>
<ellipse fill="lightblue" stroke="black" cx="2159.25" cy="-237.2" rx="90" ry="43.2"/>
<text text-anchor="middle" x="2159.25" y="-231.77" font-family="Arial" font-size="14.00" fill="darkblue">A12</text>
</g>
<!-- A10&#45;&gt;A12 -->
<g id="edge8" class="edge">
<title>A10&#45;&gt;A12</title>
<path fill="none" stroke="gray" stroke-width="2" d="M1895.8,-77.21C1950.4,-110.5 2033.58,-161.2 2091.62,-196.58"/>
<polygon fill="gray" stroke="gray" stroke-width="2" points="2089.57,-199.43 2099.93,-201.65 2093.21,-193.46 2089.57,-199.43"/>
<text text-anchor="middle" x="1999.12" y="-148.87" font-family="Arial" font-size="12.00">5 dias</text>
</g>
<!-- A4 -->
<g id="node7" class="node">
<title>A4</title>
<ellipse fill="lightblue" stroke="black" cx="730.5" cy="-247.2" rx="90" ry="43.2"/>
<text text-anchor="middle" x="730.5" y="-241.77" font-family="Arial" font-size="14.00" fill="darkblue">A4</text>
</g>
<!-- A4&#45;&gt;A6 -->
<g id="edge10" class="edge">
<title>A4&#45;&gt;A6</title>
<path fill="none" stroke="gray" stroke-width="2" d="M806.92,-270.42C853.42,-284.74 913.25,-303.17 961.89,-318.14"/>
<polygon fill="gray" stroke="gray" stroke-width="2" points="960.84,-321.48 971.43,-321.08 962.9,-314.79 960.84,-321.48"/>
<text text-anchor="middle" x="890.62" y="-301.99" font-family="Arial" font-size="12.00">7 dias</text>
</g>
<!-- A4&#45;&gt;A5 -->
<g id="edge9" class="edge">
<title>A4&#45;&gt;A5</title>
<path fill="none" stroke="gray" stroke-width="2" d="M790.9,-214.74C816.05,-202.2 846.07,-188.78 874.5,-179.95 898.56,-172.48 925.11,-166.85 950.11,-162.65"/>
<polygon fill="gray" stroke="gray" stroke-width="2" points="950.32,-166.16 959.64,-161.11 949.21,-159.24 950.32,-166.16"/>
<text text-anchor="middle" x="890.62" y="-182.8" font-family="Arial" font-size="12.00">7 dias</text>
</g>
<!-- A16 -->
<g id="node8" class="node">
<title>A16</title>
<ellipse fill="lightblue" stroke="black" cx="3120" cy="-340.2" rx="90" ry="43.2"/>
<text text-anchor="middle" x="3120" y="-334.77" font-family="Arial" font-size="14.00" fill="darkblue">A16</text>
</g>
<!-- A14 -->
<g id="node9" class="node">
<title>A14</title>
<ellipse fill="lightblue" stroke="black" cx="2799.75" cy="-438.2" rx="90" ry="43.2"/>
<text text-anchor="middle" x="2799.75" y="-432.77" font-family="Arial" font-size="14.00" fill="darkblue">A14</text>
</g>
<!-- A14&#45;&gt;A16 -->
<g id="edge11" class="edge">
<title>A14&#45;&gt;A16</title>
<path fill="none" stroke="gray" stroke-width="2" d="M2876.17,-414.98C2922.67,-400.66 2982.5,-382.23 3031.14,-367.26"/>
<polygon fill="gray" stroke="gray" stroke-width="2" points="3032.15,-370.61 3040.68,-364.32 3030.09,-363.92 3032.15,-370.61"/>
<text text-anchor="middle" x="2959.88" y="-394.99" font-family="Arial" font-size="12.00">6 dias</text>
</g>
<!-- A15 -->
<g id="node10" class="node">
<title>A15</title>
<ellipse fill="lightblue" stroke="black" cx="2799.75" cy="-244.2" rx="90" ry="43.2"/>
<text text-anchor="middle" x="2799.75" y="-238.77" font-family="Arial" font-size="14.00" fill="darkblue">A15</text>
</g>
<!-- A15&#45;&gt;A16 -->
<g id="edge12" class="edge">
<title>A15&#45;&gt;A16</title>
<path fill="none" stroke="gray" stroke-width="2" d="M2887.87,-253.63C2916.35,-258 2947.88,-264.22 2976,-272.95 3000.21,-280.47 3025.57,-291.32 3048.1,-302.12"/>
<polygon fill="gray" stroke="gray" stroke-width="2" points="3046.36,-305.16 3056.88,-306.41 3049.43,-298.88 3046.36,-305.16"/>
<text text-anchor="middle" x="2959.88" y="-275.8" font-family="Arial" font-size="12.00">5 dias</text>
</g>
<!-- A11&#45;&gt;A12 -->
<g id="edge13" class="edge">
<title>A11&#45;&gt;A12</title>
<path fill="none" stroke="gray" stroke-width="2" d="M1929.5,-237.2C1968.81,-237.2 2015.2,-237.2 2055.88,-237.2"/>
<polygon fill="gray" stroke="gray" stroke-width="2" points="2055.85,-240.7 2065.85,-237.2 2055.85,-233.7 2055.85,-240.7"/>
<text text-anchor="middle" x="1999.12" y="-240.05" font-family="Arial" font-size="12.00">4 dias</text>
</g>
<!-- A3 -->
<g id="node12" class="node">
<title>A3</title>
<ellipse fill="lightblue" stroke="black" cx="410.25" cy="-336.2" rx="90" ry="43.2"/>
<text text-anchor="middle" x="410.25" y="-330.77" font-family="Arial" font-size="14.00" fill="darkblue">A3</text>
</g>
<!-- A3&#45;&gt;A4 -->
<g id="edge14" class="edge">
<title>A3&#45;&gt;A4</title>
<path fill="none" stroke="gray" stroke-width="2" d="M488.7,-314.54C534.21,-301.81 591.96,-285.66 639.5,-272.37"/>
<polygon fill="gray" stroke="gray" stroke-width="2" points="640.38,-275.76 649.07,-269.69 638.49,-269.02 640.38,-275.76"/>
<text text-anchor="middle" x="570.38" y="-297.22" font-family="Arial" font-size="12.00">4 dias</text>
</g>
<!-- A12&#45;&gt;A13 -->
<g id="edge15" class="edge">
<title>A12&#45;&gt;A13</title>
<path fill="none" stroke="gray" stroke-width="2" d="M2234.46,-261.22C2281.54,-276.45 2342.63,-296.23 2391.91,-312.18"/>
<polygon fill="gray" stroke="gray" stroke-width="2" points="2390.7,-315.46 2401.29,-315.21 2392.85,-308.8 2390.7,-315.46"/>
<text text-anchor="middle" x="2319.38" y="-294.64" font-family="Arial" font-size="12.00">8 dias</text>
</g>
<!-- A13&#45;&gt;A14 -->
<g id="edge16" class="edge">
<title>A13&#45;&gt;A14</title>
<path fill="none" stroke="gray" stroke-width="2" d="M2555.92,-363.42C2602.42,-377.74 2662.25,-396.17 2710.89,-411.14"/>
<polygon fill="gray" stroke="gray" stroke-width="2" points="2709.84,-414.48 2720.43,-414.08 2711.9,-407.79 2709.84,-414.48"/>
<text text-anchor="middle" x="2639.62" y="-394.99" font-family="Arial" font-size="12.00">9 dias</text>
</g>
<!-- A13&#45;&gt;A15 -->
<g id="edge17" class="edge">
<title>A13&#45;&gt;A15</title>
<path fill="none" stroke="gray" stroke-width="2" d="M2539.9,-307.74C2565.05,-295.2 2595.07,-281.78 2623.5,-272.95 2647.56,-265.48 2674.11,-259.85 2699.11,-255.65"/>
<polygon fill="gray" stroke="gray" stroke-width="2" points="2699.32,-259.16 2708.64,-254.11 2698.21,-252.24 2699.32,-259.16"/>
<text text-anchor="middle" x="2639.62" y="-275.8" font-family="Arial" font-size="12.00">9 dias</text>
</g>
<!-- A2 -->
<g id="node15" class="node">
<title>A2</title>
<ellipse fill="lightblue" stroke="black" cx="410.25" cy="-142.2" rx="90" ry="43.2"/>
<text text-anchor="middle" x="410.25" y="-136.77" font-family="Arial" font-size="14.00" fill="darkblue">A2</text>
</g>
<!-- A2&#45;&gt;A4 -->
<g id="edge18" class="edge">
<title>A2&#45;&gt;A4</title>
<path fill="none" stroke="gray" stroke-width="2" d="M485.06,-166.55C532.29,-182.13 593.75,-202.41 643.23,-218.74"/>
<polygon fill="gray" stroke="gray" stroke-width="2" points="642.07,-222.04 652.66,-221.85 644.26,-215.39 642.07,-222.04"/>
<text text-anchor="middle" x="570.38" y="-200.7" font-family="Arial" font-size="12.00">6 dias</text>
</g>
<!-- A1 -->
<g id="node16" class="node">
<title>A1</title>
<ellipse fill="lightblue" stroke="black" cx="90" cy="-238.2" rx="90" ry="43.2"/>
<text text-anchor="middle" x="90" y="-232.77" font-family="Arial" font-size="14.00" fill="darkblue">A1</text>
</g>
<!-- A1&#45;&gt;A3 -->
<g id="edge20" class="edge">
<title>A1&#45;&gt;A3</title>
<path fill="none" stroke="gray" stroke-width="2" d="M166.42,-261.42C212.92,-275.74 272.75,-294.17 321.39,-309.14"/>
<polygon fill="gray" stroke="gray" stroke-width="2" points="320.34,-312.48 330.93,-312.08 322.4,-305.79 320.34,-312.48"/>
<text text-anchor="middle" x="250.12" y="-292.99" font-family="Arial" font-size="12.00">5 dias</text>
</g>
<!-- A1&#45;&gt;A2 -->
<g id="edge19" class="edge">
<title>A1&#45;&gt;A2</title>
<path fill="none" stroke="gray" stroke-width="2" d="M150.4,-205.74C175.55,-193.2 205.57,-179.78 234,-170.95 258.06,-163.48 284.61,-157.85 309.61,-153.65"/>
<polygon fill="gray" stroke="gray" stroke-width="2" points="309.82,-157.16 319.14,-152.11 308.71,-150.24 309.82,-157.16"/>
<text text-anchor="middle" x="250.12" y="-173.8" font-family="Arial" font-size="12.00">5 dias</text>
</g>
</g>
</svg>
