<?xml version="1.0" encoding="UTF-8" standalone="no"?>
<!DOCTYPE svg PUBLIC "-//W3C//DTD SVG 1.1//EN"
 "http://www.w3.org/Graphics/SVG/1.1/DTD/svg11.dtd">
<!-- Generated by graphviz version 12.2.0 (20241103.1931)
 -->
<!-- Title: PERT_CPM Pages: 1 -->
<svg width="786pt" height="1131pt"
 viewBox="36.00 36.00 750.00 1094.75" xmlns="http://www.w3.org/2000/svg" xmlns:xlink="http://www.w3.org/1999/xlink">
<g id="graph0" class="graph" transform="scale(1 1) rotate(0) translate(40 1090.75)">
<title>PERT_CPM</title>
<polygon fill="white" stroke="none" points="-4,4 -4,-1054.75 710,-1054.75 710,4 -4,4"/>
<!-- I -->
<g id="node1" class="node">
<title>I</title>
<ellipse fill="lightblue" stroke="black" cx="634" cy="-231.75" rx="72" ry="36"/>
<text text-anchor="middle" x="634" y="-225.15" font-family="Arial Bold" font-size="18.00">I</text>
</g>
<!-- L -->
<g id="node5" class="node">
<title>L</title>
<ellipse fill="lightblue" stroke="black" cx="72" cy="-36" rx="72" ry="36"/>
<text text-anchor="middle" x="72" y="-29.4" font-family="Arial Bold" font-size="18.00">L</text>
</g>
<!-- I&#45;&gt;L -->
<g id="edge1" class="edge">
<title>I&#45;&gt;L</title>
<path fill="none" stroke="gray" stroke-width="2" d="M634,-195.56C634,-136.04 634,-24 634,-24 634,-24 634,-10.97 634,-10.97"/>
<polygon fill="gray" stroke="gray" stroke-width="2" points="153.28,-20.16 143.38,-23.92 153.47,-27.16 153.28,-20.16"/>
<text text-anchor="middle" x="534.38" y="-128.45" font-family="Arial" font-size="14.00">1 week</text>
</g>
<!-- G -->
<g id="node2" class="node">
<title>G</title>
<ellipse fill="lightblue" stroke="black" cx="418" cy="-427.5" rx="72" ry="36"/>
<text text-anchor="middle" x="418" y="-420.9" font-family="Arial Bold" font-size="18.00">G</text>
</g>
<!-- G&#45;&gt;I -->
<g id="edge2" class="edge">
<title>G&#45;&gt;I</title>
<path fill="none" stroke="gray" stroke-width="2" d="M490.23,-427.5C553.02,-427.5 634,-427.5 634,-427.5 634,-427.5 634,-281.14 634,-281.14"/>
<polygon fill="gray" stroke="gray" stroke-width="2" points="637.5,-281.14 634,-271.14 630.5,-281.14 637.5,-281.14"/>
<text text-anchor="middle" x="607.38" y="-324.2" font-family="Arial" font-size="14.00">3 week</text>
</g>
<!-- J -->
<g id="node4" class="node">
<title>J</title>
<ellipse fill="lightblue" stroke="black" cx="202" cy="-231.75" rx="72" ry="36"/>
<text text-anchor="middle" x="202" y="-225.15" font-family="Arial Bold" font-size="18.00">J</text>
</g>
<!-- G&#45;&gt;J -->
<g id="edge3" class="edge">
<title>G&#45;&gt;J</title>
<path fill="none" stroke="gray" stroke-width="2" d="M345.64,-427.5C307.28,-427.5 268,-427.5 268,-427.5 268,-427.5 268,-259.81 268,-259.81"/>
<polygon fill="gray" stroke="gray" stroke-width="2" points="271.5,-259.81 268,-249.81 264.5,-259.81 271.5,-259.81"/>
<text text-anchor="middle" x="223.38" y="-324.2" font-family="Arial" font-size="14.00">3 week</text>
</g>
<!-- K -->
<g id="node6" class="node">
<title>K</title>
<ellipse fill="lightblue" stroke="black" cx="418" cy="-231.75" rx="72" ry="36"/>
<text text-anchor="middle" x="418" y="-225.15" font-family="Arial Bold" font-size="18.00">K</text>
</g>
<!-- G&#45;&gt;K -->
<g id="edge4" class="edge">
<title>G&#45;&gt;K</title>
<path fill="none" stroke="gray" stroke-width="2" d="M418,-391.14C418,-391.14 418,-281.27 418,-281.27"/>
<polygon fill="gray" stroke="gray" stroke-width="2" points="421.5,-281.27 418,-271.27 414.5,-281.27 421.5,-281.27"/>
<text text-anchor="middle" x="439.38" y="-324.2" font-family="Arial" font-size="14.00">3 week</text>
</g>
<!-- D -->
<g id="node3" class="node">
<title>D</title>
<ellipse fill="lightblue" stroke="black" cx="418" cy="-819" rx="72" ry="36"/>
<text text-anchor="middle" x="418" y="-812.4" font-family="Arial Bold" font-size="18.00">D</text>
</g>
<!-- E -->
<g id="node9" class="node">
<title>E</title>
<ellipse fill="lightblue" stroke="black" cx="430" cy="-623.25" rx="72" ry="36"/>
<text text-anchor="middle" x="430" y="-616.65" font-family="Arial Bold" font-size="18.00">E</text>
</g>
<!-- D&#45;&gt;E -->
<g id="edge5" class="edge">
<title>D&#45;&gt;E</title>
<path fill="none" stroke="gray" stroke-width="2" d="M424,-782.64C424,-782.64 424,-672.44 424,-672.44"/>
<polygon fill="gray" stroke="gray" stroke-width="2" points="427.5,-672.44 424,-662.44 420.5,-672.44 427.5,-672.44"/>
<text text-anchor="middle" x="451.38" y="-715.7" font-family="Arial" font-size="14.00">3 week</text>
</g>
<!-- F -->
<g id="node10" class="node">
<title>F</title>
<ellipse fill="lightblue" stroke="black" cx="214" cy="-623.25" rx="72" ry="36"/>
<text text-anchor="middle" x="214" y="-616.65" font-family="Arial Bold" font-size="18.00">F</text>
</g>
<!-- D&#45;&gt;F -->
<g id="edge6" class="edge">
<title>D&#45;&gt;F</title>
<path fill="none" stroke="gray" stroke-width="2" d="M354,-802.04C354,-756.55 354,-635.25 354,-635.25 354,-635.25 295.39,-635.25 295.39,-635.25"/>
<polygon fill="gray" stroke="gray" stroke-width="2" points="295.39,-631.75 285.39,-635.25 295.39,-638.75 295.39,-631.75"/>
<text text-anchor="middle" x="331.38" y="-715.7" font-family="Arial" font-size="14.00">3 week</text>
</g>
<!-- K&#45;&gt;L -->
<g id="edge7" class="edge">
<title>K&#45;&gt;L</title>
<path fill="none" stroke="gray" stroke-width="2" d="M418,-195.45C418,-141.9 418,-48 418,-48 418,-48 418,-34.97 418,-34.97"/>
<polygon fill="gray" stroke="gray" stroke-width="2" points="153.21,-43.89 143.38,-47.86 153.54,-50.89 153.21,-43.89"/>
<text text-anchor="middle" x="294.38" y="-128.45" font-family="Arial" font-size="14.00">1 week</text>
</g>
<!-- A -->
<g id="node7" class="node">
<title>A</title>
<ellipse fill="lightblue" stroke="black" cx="418" cy="-1014.75" rx="72" ry="36"/>
<text text-anchor="middle" x="418" y="-1008.15" font-family="Arial Bold" font-size="18.00">A</text>
</g>
<!-- A&#45;&gt;D -->
<g id="edge8" class="edge">
<title>A&#45;&gt;D</title>
<path fill="none" stroke="gray" stroke-width="2" d="M418,-978.39C418,-978.39 418,-868.52 418,-868.52"/>
<polygon fill="gray" stroke="gray" stroke-width="2" points="421.5,-868.52 418,-858.52 414.5,-868.52 421.5,-868.52"/>
<text text-anchor="middle" x="439.38" y="-911.45" font-family="Arial" font-size="14.00">1 week</text>
</g>
<!-- B -->
<g id="node8" class="node">
<title>B</title>
<ellipse fill="lightblue" stroke="black" cx="190" cy="-1014.75" rx="72" ry="36"/>
<text text-anchor="middle" x="190" y="-1008.15" font-family="Arial Bold" font-size="18.00">B</text>
</g>
<!-- C -->
<g id="node11" class="node">
<title>C</title>
<ellipse fill="lightblue" stroke="black" cx="190" cy="-819" rx="72" ry="36"/>
<text text-anchor="middle" x="190" y="-812.4" font-family="Arial Bold" font-size="18.00">C</text>
</g>
<!-- B&#45;&gt;C -->
<g id="edge9" class="edge">
<title>B&#45;&gt;C</title>
<path fill="none" stroke="gray" stroke-width="2" d="M190,-978.39C190,-978.39 190,-868.52 190,-868.52"/>
<polygon fill="gray" stroke="gray" stroke-width="2" points="193.5,-868.52 190,-858.52 186.5,-868.52 193.5,-868.52"/>
<text text-anchor="middle" x="211.38" y="-911.45" font-family="Arial" font-size="14.00">4 week</text>
</g>
<!-- E&#45;&gt;G -->
<g id="edge10" class="edge">
<title>E&#45;&gt;G</title>
<path fill="none" stroke="gray" stroke-width="2" d="M424,-586.89C424,-586.89 424,-476.69 424,-476.69"/>
<polygon fill="gray" stroke="gray" stroke-width="2" points="427.5,-476.69 424,-466.69 420.5,-476.69 427.5,-476.69"/>
<text text-anchor="middle" x="451.38" y="-519.95" font-family="Arial" font-size="14.00">2 week</text>
</g>
<!-- F&#45;&gt;G -->
<g id="edge11" class="edge">
<title>F&#45;&gt;G</title>
<path fill="none" stroke="gray" stroke-width="2" d="M282.4,-611.25C316.27,-611.25 350,-611.25 350,-611.25 350,-611.25 350,-453.16 350,-453.16"/>
<polygon fill="gray" stroke="gray" stroke-width="2" points="353.5,-453.16 350,-443.16 346.5,-453.16 353.5,-453.16"/>
<text text-anchor="middle" x="331.38" y="-519.95" font-family="Arial" font-size="14.00">4 week</text>
</g>
<!-- H -->
<g id="node12" class="node">
<title>H</title>
<ellipse fill="lightblue" stroke="black" cx="190" cy="-427.5" rx="72" ry="36"/>
<text text-anchor="middle" x="190" y="-420.9" font-family="Arial Bold" font-size="18.00">H</text>
</g>
<!-- F&#45;&gt;H -->
<g id="edge12" class="edge">
<title>F&#45;&gt;H</title>
<path fill="none" stroke="gray" stroke-width="2" d="M202,-587.35C202,-587.35 202,-476.2 202,-476.2"/>
<polygon fill="gray" stroke="gray" stroke-width="2" points="205.5,-476.2 202,-466.2 198.5,-476.2 205.5,-476.2"/>
<text text-anchor="middle" x="211.38" y="-519.95" font-family="Arial" font-size="14.00">4 week</text>
</g>
<!-- C&#45;&gt;F -->
<g id="edge13" class="edge">
<title>C&#45;&gt;F</title>
<path fill="none" stroke="gray" stroke-width="2" d="M202,-783.1C202,-783.1 202,-671.95 202,-671.95"/>
<polygon fill="gray" stroke="gray" stroke-width="2" points="205.5,-671.95 202,-661.95 198.5,-671.95 205.5,-671.95"/>
<text text-anchor="middle" x="211.38" y="-715.7" font-family="Arial" font-size="14.00">2 week</text>
</g>
<!-- H&#45;&gt;L -->
<g id="edge14" class="edge">
<title>H&#45;&gt;L</title>
<path fill="none" stroke="gray" stroke-width="2" d="M124,-412.63C124,-412.63 124,-74.38 124,-74.38"/>
<polygon fill="gray" stroke="gray" stroke-width="2" points="127.5,-74.38 124,-64.38 120.5,-74.38 127.5,-74.38"/>
<text text-anchor="middle" x="36.38" y="-226.32" font-family="Arial" font-size="14.00">2 week</text>
</g>
</g>
</svg>
