<?xml version="1.0" encoding="UTF-8" standalone="no"?>
<!DOCTYPE svg PUBLIC "-//W3C//DTD SVG 1.1//EN"
 "http://www.w3.org/Graphics/SVG/1.1/DTD/svg11.dtd">
<!-- Generated by graphviz version 12.2.0 (20241103.1931)
 -->
<!-- Title: PERT_CPM Pages: 1 -->
<svg width="2752pt" height="564pt"
 viewBox="0.00 0.00 2752.25 564.40" xmlns="http://www.w3.org/2000/svg" xmlns:xlink="http://www.w3.org/1999/xlink">
<g id="graph0" class="graph" transform="scale(1 1) rotate(0) translate(4 560.4)">
<title>PERT_CPM</title>
<polygon fill="white" stroke="none" points="-4,4 -4,-560.4 2748.25,-560.4 2748.25,4 -4,4"/>
<!-- I -->
<g id="node1" class="node">
<title>I</title>
<ellipse fill="lightblue" stroke="black" cx="1860" cy="-233.2" rx="90" ry="43.2"/>
<text text-anchor="middle" x="1860" y="-227.77" font-family="Arial" font-size="14.00" fill="darkblue">I</text>
</g>
<!-- L -->
<g id="node3" class="node">
<title>L</title>
<ellipse fill="lightblue" stroke="black" cx="2328" cy="-311.2" rx="90" ry="43.2"/>
<text text-anchor="middle" x="2328" y="-305.77" font-family="Arial" font-size="14.00" fill="darkblue">L</text>
</g>
<!-- I&#45;&gt;L -->
<g id="edge1" class="edge">
<title>I&#45;&gt;L</title>
<path fill="none" stroke="gray" stroke-width="2" d="M1950.23,-229.95C2015.73,-229.53 2106.43,-233.05 2184,-250.95 2207.37,-256.34 2231.77,-265.27 2253.67,-274.62"/>
<polygon fill="gray" stroke="gray" stroke-width="2" points="2252.22,-277.81 2262.78,-278.62 2255.04,-271.4 2252.22,-277.81"/>
<text text-anchor="middle" x="2094" y="-253.8" font-family="Arial" font-size="12.00">1 week</text>
</g>
<!-- D -->
<g id="node2" class="node">
<title>D</title>
<ellipse fill="lightblue" stroke="black" cx="739.5" cy="-294.2" rx="90" ry="43.2"/>
<text text-anchor="middle" x="739.5" y="-288.77" font-family="Arial" font-size="14.00" fill="darkblue">D</text>
</g>
<!-- E -->
<g id="node11" class="node">
<title>E</title>
<ellipse fill="lightblue" stroke="black" cx="1065.75" cy="-234.2" rx="90" ry="43.2"/>
<text text-anchor="middle" x="1065.75" y="-228.77" font-family="Arial" font-size="14.00" fill="darkblue">E</text>
</g>
<!-- D&#45;&gt;E -->
<g id="edge2" class="edge">
<title>D&#45;&gt;E</title>
<path fill="none" stroke="gray" stroke-width="2" d="M798.76,-261.3C823.98,-248.85 854.36,-236.2 883.5,-229.95 909.55,-224.37 938.19,-222.94 964.86,-223.53"/>
<polygon fill="gray" stroke="gray" stroke-width="2" points="964.63,-227.03 974.75,-223.87 964.88,-220.03 964.63,-227.03"/>
<text text-anchor="middle" x="902.62" y="-232.8" font-family="Arial" font-size="12.00">3 week</text>
</g>
<!-- F -->
<g id="node12" class="node">
<title>F</title>
<ellipse fill="lightblue" stroke="black" cx="1065.75" cy="-458.2" rx="90" ry="43.2"/>
<text text-anchor="middle" x="1065.75" y="-452.77" font-family="Arial" font-size="14.00" fill="darkblue">F</text>
</g>
<!-- D&#45;&gt;F -->
<g id="edge3" class="edge">
<title>D&#45;&gt;F</title>
<path fill="none" stroke="gray" stroke-width="2" d="M802.25,-325.43C856.14,-352.69 934.43,-392.29 991.48,-421.14"/>
<polygon fill="gray" stroke="gray" stroke-width="2" points="989.75,-424.19 1000.25,-425.58 992.91,-417.94 989.75,-424.19"/>
<text text-anchor="middle" x="902.62" y="-383.97" font-family="Arial" font-size="12.00">3 week</text>
</g>
<!-- END -->
<g id="node10" class="node">
<title>END</title>
<ellipse fill="lightblue" stroke="black" cx="2654.25" cy="-184.2" rx="90" ry="43.2"/>
<text text-anchor="middle" x="2654.25" y="-178.77" font-family="Arial" font-size="14.00" fill="darkblue">END</text>
</g>
<!-- L&#45;&gt;END -->
<g id="edge4" class="edge">
<title>L&#45;&gt;END</title>
<path fill="none" stroke="gray" stroke-width="2" d="M2398.56,-283.96C2449.42,-264.03 2518.56,-236.95 2571.97,-216.03"/>
<polygon fill="gray" stroke="gray" stroke-width="2" points="2572.95,-219.41 2580.99,-212.5 2570.4,-212.89 2572.95,-219.41"/>
<text text-anchor="middle" x="2491.12" y="-254.36" font-family="Arial" font-size="12.00">2 week</text>
</g>
<!-- B -->
<g id="node4" class="node">
<title>B</title>
<ellipse fill="lightblue" stroke="black" cx="413.25" cy="-488.2" rx="90" ry="43.2"/>
<text text-anchor="middle" x="413.25" y="-482.77" font-family="Arial" font-size="14.00" fill="darkblue">B</text>
</g>
<!-- C -->
<g id="node13" class="node">
<title>C</title>
<ellipse fill="lightblue" stroke="black" cx="739.5" cy="-488.2" rx="90" ry="43.2"/>
<text text-anchor="middle" x="739.5" y="-482.77" font-family="Arial" font-size="14.00" fill="darkblue">C</text>
</g>
<!-- B&#45;&gt;C -->
<g id="edge5" class="edge">
<title>B&#45;&gt;C</title>
<path fill="none" stroke="gray" stroke-width="2" d="M503.71,-488.2C544.74,-488.2 593.59,-488.2 636.08,-488.2"/>
<polygon fill="gray" stroke="gray" stroke-width="2" points="636.02,-491.7 646.02,-488.2 636.02,-484.7 636.02,-491.7"/>
<text text-anchor="middle" x="576.38" y="-491.05" font-family="Arial" font-size="12.00">4 week</text>
</g>
<!-- START -->
<g id="node5" class="node">
<title>START</title>
<ellipse fill="lightblue" stroke="black" cx="90" cy="-390.2" rx="90" ry="43.2"/>
<text text-anchor="middle" x="90" y="-384.77" font-family="Arial" font-size="14.00" fill="darkblue">START</text>
</g>
<!-- START&#45;&gt;B -->
<g id="edge7" class="edge">
<title>START&#45;&gt;B</title>
<path fill="none" stroke="gray" stroke-width="2" d="M166.72,-413.3C213.92,-427.7 274.85,-446.28 324.2,-461.34"/>
<polygon fill="gray" stroke="gray" stroke-width="2" points="323,-464.63 333.58,-464.2 325.04,-457.94 323,-464.63"/>
<text text-anchor="middle" x="251.62" y="-444.99" font-family="Arial" font-size="12.00">0 days</text>
</g>
<!-- A -->
<g id="node9" class="node">
<title>A</title>
<ellipse fill="lightblue" stroke="black" cx="413.25" cy="-294.2" rx="90" ry="43.2"/>
<text text-anchor="middle" x="413.25" y="-288.77" font-family="Arial" font-size="14.00" fill="darkblue">A</text>
</g>
<!-- START&#45;&gt;A -->
<g id="edge6" class="edge">
<title>START&#45;&gt;A</title>
<path fill="none" stroke="gray" stroke-width="2" d="M150.39,-357.7C175.54,-345.16 205.56,-331.74 234,-322.95 258.96,-315.23 286.57,-309.5 312.45,-305.26"/>
<polygon fill="gray" stroke="gray" stroke-width="2" points="312.67,-308.77 322.01,-303.77 311.59,-301.86 312.67,-308.77"/>
<text text-anchor="middle" x="251.62" y="-325.8" font-family="Arial" font-size="12.00">0 days</text>
</g>
<!-- G -->
<g id="node6" class="node">
<title>G</title>
<ellipse fill="lightblue" stroke="black" cx="1392" cy="-234.2" rx="90" ry="43.2"/>
<text text-anchor="middle" x="1392" y="-228.77" font-family="Arial" font-size="14.00" fill="darkblue">G</text>
</g>
<!-- G&#45;&gt;I -->
<g id="edge8" class="edge">
<title>G&#45;&gt;I</title>
<path fill="none" stroke="gray" stroke-width="2" d="M1482.3,-234.01C1560.69,-233.84 1674.69,-233.6 1756.73,-233.42"/>
<polygon fill="gray" stroke="gray" stroke-width="2" points="1756.59,-236.92 1766.58,-233.4 1756.57,-229.92 1756.59,-236.92"/>
<text text-anchor="middle" x="1626" y="-236.73" font-family="Arial" font-size="12.00">3 week</text>
</g>
<!-- J -->
<g id="node7" class="node">
<title>J</title>
<ellipse fill="lightblue" stroke="black" cx="2094" cy="-43.2" rx="90" ry="43.2"/>
<text text-anchor="middle" x="2094" y="-37.77" font-family="Arial" font-size="14.00" fill="darkblue">J</text>
</g>
<!-- G&#45;&gt;J -->
<g id="edge9" class="edge">
<title>G&#45;&gt;J</title>
<path fill="none" stroke="gray" stroke-width="2" d="M1468.96,-211.35C1490.59,-204.96 1514.19,-198.08 1536,-191.95 1699.75,-145.9 1891.57,-95.44 2002.01,-66.71"/>
<polygon fill="gray" stroke="gray" stroke-width="2" points="2002.69,-70.15 2011.49,-64.25 2000.93,-63.38 2002.69,-70.15"/>
<text text-anchor="middle" x="1626" y="-194.8" font-family="Arial" font-size="12.00">3 week</text>
</g>
<!-- K -->
<g id="node8" class="node">
<title>K</title>
<ellipse fill="lightblue" stroke="black" cx="1860" cy="-427.2" rx="90" ry="43.2"/>
<text text-anchor="middle" x="1860" y="-421.77" font-family="Arial" font-size="14.00" fill="darkblue">K</text>
</g>
<!-- G&#45;&gt;K -->
<g id="edge10" class="edge">
<title>G&#45;&gt;K</title>
<path fill="none" stroke="gray" stroke-width="2" d="M1460.76,-262.26C1545.23,-297.25 1689.39,-356.95 1779.14,-394.12"/>
<polygon fill="gray" stroke="gray" stroke-width="2" points="1777.78,-397.35 1788.36,-397.94 1780.46,-390.88 1777.78,-397.35"/>
<text text-anchor="middle" x="1626" y="-367.62" font-family="Arial" font-size="12.00">3 week</text>
</g>
<!-- J&#45;&gt;END -->
<g id="edge11" class="edge">
<title>J&#45;&gt;END</title>
<path fill="none" stroke="gray" stroke-width="2" d="M2174.39,-63.25C2276.6,-89.07 2453.86,-133.84 2561.66,-161.07"/>
<polygon fill="gray" stroke="gray" stroke-width="2" points="2560.65,-164.42 2571.2,-163.48 2562.36,-157.63 2560.65,-164.42"/>
<text text-anchor="middle" x="2328" y="-125.59" font-family="Arial" font-size="12.00">1 week</text>
</g>
<!-- K&#45;&gt;L -->
<g id="edge12" class="edge">
<title>K&#45;&gt;L</title>
<path fill="none" stroke="gray" stroke-width="2" d="M1940.58,-407.39C2022.13,-387.09 2148.83,-355.55 2234.73,-334.17"/>
<polygon fill="gray" stroke="gray" stroke-width="2" points="2235.56,-337.57 2244.42,-331.76 2233.87,-330.78 2235.56,-337.57"/>
<text text-anchor="middle" x="2094" y="-392.53" font-family="Arial" font-size="12.00">1 week</text>
</g>
<!-- A&#45;&gt;D -->
<g id="edge13" class="edge">
<title>A&#45;&gt;D</title>
<path fill="none" stroke="gray" stroke-width="2" d="M503.71,-294.2C544.74,-294.2 593.59,-294.2 636.08,-294.2"/>
<polygon fill="gray" stroke="gray" stroke-width="2" points="636.02,-297.7 646.02,-294.2 636.02,-290.7 636.02,-297.7"/>
<text text-anchor="middle" x="576.38" y="-297.05" font-family="Arial" font-size="12.00">1 week</text>
</g>
<!-- E&#45;&gt;G -->
<g id="edge14" class="edge">
<title>E&#45;&gt;G</title>
<path fill="none" stroke="gray" stroke-width="2" d="M1155.71,-230.76C1185.09,-229.98 1217.94,-229.5 1248,-229.95 1261.31,-230.15 1275.31,-230.45 1289.14,-230.8"/>
<polygon fill="gray" stroke="gray" stroke-width="2" points="1288.64,-234.29 1298.73,-231.06 1288.83,-227.29 1288.64,-234.29"/>
<text text-anchor="middle" x="1228.88" y="-232.8" font-family="Arial" font-size="12.00">2 week</text>
</g>
<!-- F&#45;&gt;G -->
<g id="edge15" class="edge">
<title>F&#45;&gt;G</title>
<path fill="none" stroke="gray" stroke-width="2" d="M1118.13,-422.71C1175.32,-383.2 1267.73,-319.36 1328.92,-277.08"/>
<polygon fill="gray" stroke="gray" stroke-width="2" points="1330.87,-280 1337.1,-271.43 1326.89,-274.24 1330.87,-280"/>
<text text-anchor="middle" x="1228.88" y="-355.77" font-family="Arial" font-size="12.00">4 week</text>
</g>
<!-- H -->
<g id="node14" class="node">
<title>H</title>
<ellipse fill="lightblue" stroke="black" cx="1626" cy="-513.2" rx="90" ry="43.2"/>
<text text-anchor="middle" x="1626" y="-507.78" font-family="Arial" font-size="14.00" fill="darkblue">H</text>
</g>
<!-- F&#45;&gt;H -->
<g id="edge16" class="edge">
<title>F&#45;&gt;H</title>
<path fill="none" stroke="gray" stroke-width="2" d="M1154.28,-466.82C1254.73,-476.72 1419.15,-492.92 1524.68,-503.32"/>
<polygon fill="gray" stroke="gray" stroke-width="2" points="1524.26,-506.79 1534.56,-504.29 1524.95,-499.83 1524.26,-506.79"/>
<text text-anchor="middle" x="1228.88" y="-478.18" font-family="Arial" font-size="12.00">4 week</text>
</g>
<!-- C&#45;&gt;F -->
<g id="edge17" class="edge">
<title>C&#45;&gt;F</title>
<path fill="none" stroke="gray" stroke-width="2" d="M828.25,-480.08C870.15,-476.2 920.52,-471.54 963.98,-467.52"/>
<polygon fill="gray" stroke="gray" stroke-width="2" points="964.28,-471.01 973.92,-466.6 963.64,-464.04 964.28,-471.01"/>
<text text-anchor="middle" x="902.62" y="-476.95" font-family="Arial" font-size="12.00">2 week</text>
</g>
<!-- H&#45;&gt;L -->
<g id="edge18" class="edge">
<title>H&#45;&gt;L</title>
<path fill="none" stroke="gray" stroke-width="2" d="M1712.13,-526.32C1777.72,-533.97 1870.37,-539.44 1950,-524.2 2059.92,-503.16 2087.91,-488.57 2184,-431.2 2217.95,-410.93 2252.03,-382.72 2278.39,-358.75"/>
<polygon fill="gray" stroke="gray" stroke-width="2" points="2280.54,-361.53 2285.52,-352.18 2275.79,-356.38 2280.54,-361.53"/>
<text text-anchor="middle" x="1860" y="-536.74" font-family="Arial" font-size="12.00">2 week</text>
</g>
</g>
</svg>
