<?xml version="1.0" encoding="UTF-8" standalone="no"?>
<!DOCTYPE svg PUBLIC "-//W3C//DTD SVG 1.1//EN"
 "http://www.w3.org/Graphics/SVG/1.1/DTD/svg11.dtd">
<!-- Generated by graphviz version 10.0.1 (20240210.2158)
 -->
<!-- Title: G Pages: 1 -->
<svg width="1096pt" height="188pt"
 viewBox="0.00 0.00 1095.88 188.00" xmlns="http://www.w3.org/2000/svg" xmlns:xlink="http://www.w3.org/1999/xlink">
<g id="graph0" class="graph" transform="scale(1 1) rotate(0) translate(4 184)">
<title>G</title>
<polygon fill="white" stroke="none" points="-4,4 -4,-184 1091.88,-184 1091.88,4 -4,4"/>
<!-- Cross bar -->
<g id="node1" class="node">
<title>Cross bar</title>
<polygon fill="#b2dfee" stroke="#b2dfee" points="130,-36 0,-36 0,0 130,0 130,-36"/>
<text text-anchor="middle" x="65" y="-12.95" font-family="Helvetica,Arial,sans-serif" font-size="14.00">Cross bar (Qtd: 1)</text>
</g>
<!-- Side rails -->
<g id="node2" class="node">
<title>Side rails</title>
<polygon fill="#b2dfee" stroke="#b2dfee" points="274.12,-36 147.88,-36 147.88,0 274.12,0 274.12,-36"/>
<text text-anchor="middle" x="211" y="-12.95" font-family="Helvetica,Arial,sans-serif" font-size="14.00">Side rails (Qtd: 2)</text>
</g>
<!-- Back supports -->
<g id="node3" class="node">
<title>Back supports</title>
<polygon fill="#b2dfee" stroke="#b2dfee" points="450.25,-36 291.75,-36 291.75,0 450.25,0 450.25,-36"/>
<text text-anchor="middle" x="371" y="-12.95" font-family="Helvetica,Arial,sans-serif" font-size="14.00">Back supports (Qtd: 3)</text>
</g>
<!-- Foot caps -->
<g id="node4" class="node">
<title>Foot caps</title>
<polygon fill="#b2dfee" stroke="#b2dfee" points="911.75,-36 780.25,-36 780.25,0 911.75,0 911.75,-36"/>
<text text-anchor="middle" x="846" y="-12.95" font-family="Helvetica,Arial,sans-serif" font-size="14.00">Foot caps (Qtd: 4)</text>
</g>
<!-- Headrest -->
<g id="node5" class="node">
<title>Headrest</title>
<polygon fill="#b2dfee" stroke="#b2dfee" points="593.75,-36 468.25,-36 468.25,0 593.75,0 593.75,-36"/>
<text text-anchor="middle" x="531" y="-12.95" font-family="Helvetica,Arial,sans-serif" font-size="14.00">Headrest (Qtd: 1)</text>
</g>
<!-- Seat cushion -->
<g id="node6" class="node">
<title>Seat cushion</title>
<polygon fill="#b2dfee" stroke="#b2dfee" points="761.75,-36 612.25,-36 612.25,0 761.75,0 761.75,-36"/>
<text text-anchor="middle" x="687" y="-12.95" font-family="Helvetica,Arial,sans-serif" font-size="14.00">Seat cushion (Qtd: 1)</text>
</g>
<!-- Support brace -->
<g id="node7" class="node">
<title>Support brace</title>
<polygon fill="#b2dfee" stroke="#b2dfee" points="1087.88,-36 930.12,-36 930.12,0 1087.88,0 1087.88,-36"/>
<text text-anchor="middle" x="1009" y="-12.95" font-family="Helvetica,Arial,sans-serif" font-size="14.00">Support brace (Qtd: 1)</text>
</g>
<!-- Back Assembly -->
<g id="node8" class="node">
<title>Back Assembly</title>
<polygon fill="#9ac0cd" stroke="#9ac0cd" points="428.12,-108 313.88,-108 313.88,-72 428.12,-72 428.12,-108"/>
<text text-anchor="middle" x="371" y="-84.95" font-family="Helvetica,Arial,sans-serif" font-size="14.00">Back Assembly</text>
</g>
<!-- Back Assembly&#45;&gt;Cross bar -->
<g id="edge6" class="edge">
<title>Back Assembly&#45;&gt;Cross bar</title>
<path fill="none" stroke="black" d="M313.79,-75.95C269.4,-65.82 206,-51.34 141.56,-36.59"/>
<polygon fill="black" stroke="black" points="142.37,-33.18 131.84,-34.36 140.81,-40 142.37,-33.18"/>
</g>
<!-- Back Assembly&#45;&gt;Side rails -->
<g id="edge3" class="edge">
<title>Back Assembly&#45;&gt;Side rails</title>
<path fill="none" stroke="black" d="M331.04,-71.52C309.86,-62.25 283.65,-50.78 261.12,-40.93"/>
<polygon fill="black" stroke="black" points="262.68,-37.79 252.12,-36.99 259.87,-44.2 262.68,-37.79"/>
</g>
<!-- Back Assembly&#45;&gt;Back supports -->
<g id="edge9" class="edge">
<title>Back Assembly&#45;&gt;Back supports</title>
<path fill="none" stroke="black" d="M371,-71.7C371,-64.41 371,-55.73 371,-47.54"/>
<polygon fill="black" stroke="black" points="374.5,-47.62 371,-37.62 367.5,-47.62 374.5,-47.62"/>
</g>
<!-- Back Assembly&#45;&gt;Headrest -->
<g id="edge5" class="edge">
<title>Back Assembly&#45;&gt;Headrest</title>
<path fill="none" stroke="black" d="M410.96,-71.52C432.14,-62.25 458.35,-50.78 480.88,-40.93"/>
<polygon fill="black" stroke="black" points="482.13,-44.2 489.88,-36.99 479.32,-37.79 482.13,-44.2"/>
</g>
<!-- Seat -->
<g id="node9" class="node">
<title>Seat</title>
<polygon fill="#9ac0cd" stroke="#9ac0cd" points="714,-108 660,-108 660,-72 714,-72 714,-108"/>
<text text-anchor="middle" x="687" y="-84.95" font-family="Helvetica,Arial,sans-serif" font-size="14.00">Seat</text>
</g>
<!-- Seat&#45;&gt;Seat cushion -->
<g id="edge1" class="edge">
<title>Seat&#45;&gt;Seat cushion</title>
<path fill="none" stroke="black" d="M687,-71.7C687,-64.41 687,-55.73 687,-47.54"/>
<polygon fill="black" stroke="black" points="690.5,-47.62 687,-37.62 683.5,-47.62 690.5,-47.62"/>
</g>
<!-- Leg Assembly -->
<g id="node10" class="node">
<title>Leg Assembly</title>
<polygon fill="#9ac0cd" stroke="#9ac0cd" points="899.75,-108 792.25,-108 792.25,-72 899.75,-72 899.75,-108"/>
<text text-anchor="middle" x="846" y="-84.95" font-family="Helvetica,Arial,sans-serif" font-size="14.00">Leg Assembly</text>
</g>
<!-- Leg Assembly&#45;&gt;Foot caps -->
<g id="edge4" class="edge">
<title>Leg Assembly&#45;&gt;Foot caps</title>
<path fill="none" stroke="black" d="M846,-71.7C846,-64.41 846,-55.73 846,-47.54"/>
<polygon fill="black" stroke="black" points="849.5,-47.62 846,-37.62 842.5,-47.62 849.5,-47.62"/>
</g>
<!-- Leg Assembly&#45;&gt;Support brace -->
<g id="edge2" class="edge">
<title>Leg Assembly&#45;&gt;Support brace</title>
<path fill="none" stroke="black" d="M886.71,-71.52C908.38,-62.21 935.23,-50.68 958.25,-40.79"/>
<polygon fill="black" stroke="black" points="959.33,-44.14 967.13,-36.98 956.57,-37.71 959.33,-44.14"/>
</g>
<!-- Chair -->
<g id="node11" class="node">
<title>Chair</title>
<polygon fill="#9ac0cd" stroke="#9ac0cd" points="714,-180 660,-180 660,-144 714,-144 714,-180"/>
<text text-anchor="start" x="668.25" y="-157.95" font-family="Helvetica,Arial,sans-serif" font-weight="bold" font-size="14.00">Chair</text>
</g>
<!-- Chair&#45;&gt;Back Assembly -->
<g id="edge7" class="edge">
<title>Chair&#45;&gt;Back Assembly</title>
<path fill="none" stroke="black" d="M659.51,-154.91C610.94,-144.15 508.57,-121.47 439.78,-106.24"/>
<polygon fill="black" stroke="black" points="440.61,-102.84 430.09,-104.09 439.1,-109.67 440.61,-102.84"/>
</g>
<!-- Chair&#45;&gt;Seat -->
<g id="edge8" class="edge">
<title>Chair&#45;&gt;Seat</title>
<path fill="none" stroke="black" d="M687,-143.7C687,-136.41 687,-127.73 687,-119.54"/>
<polygon fill="black" stroke="black" points="690.5,-119.62 687,-109.62 683.5,-119.62 690.5,-119.62"/>
</g>
<!-- Chair&#45;&gt;Leg Assembly -->
<g id="edge10" class="edge">
<title>Chair&#45;&gt;Leg Assembly</title>
<path fill="none" stroke="black" d="M714.33,-148.97C736.75,-139.1 769.08,-124.87 796.09,-112.97"/>
<polygon fill="black" stroke="black" points="797.4,-116.22 805.14,-108.99 794.58,-109.81 797.4,-116.22"/>
</g>
</g>
</svg>
