<?xml version="1.0" encoding="UTF-8" standalone="no"?>
<!DOCTYPE svg PUBLIC "-//W3C//DTD SVG 1.1//EN"
 "http://www.w3.org/Graphics/SVG/1.1/DTD/svg11.dtd">
<!-- Generated by graphviz version 10.0.1 (20240210.2158)
 -->
<!-- Title: G Pages: 1 -->
<svg width="1147pt" height="658pt"
 viewBox="0.00 0.00 1146.51 658.25" xmlns="http://www.w3.org/2000/svg" xmlns:xlink="http://www.w3.org/1999/xlink">
<g id="graph0" class="graph" transform="scale(1 1) rotate(0) translate(4 654.25)">
<title>G</title>
<polygon fill="white" stroke="none" points="-4,4 -4,-654.25 1142.51,-654.25 1142.51,4 -4,4"/>
<!-- 1001 -->
<g id="node1" class="node">
<title>1001</title>
<ellipse fill="lightgreen" stroke="black" cx="493.5" cy="-369" rx="75.51" ry="18"/>
<text text-anchor="middle" x="493.5" y="-363.57" font-family="Times New Roman,serif" font-size="14.00">bench leg &#160;w/hole</text>
</g>
<!-- 14 -->
<g id="node2" class="node">
<title>14</title>
<polygon fill="lightblue" stroke="black" points="505.5,-299.25 411.5,-299.25 411.5,-263.25 505.5,-263.25 505.5,-299.25"/>
<text text-anchor="middle" x="458.5" y="-275.82" font-family="Times New Roman,serif" font-size="14.00">drill bench leg</text>
</g>
<!-- 1001&#45;&#45;14 -->
<g id="edge1" class="edge">
<title>1001&#45;&#45;14</title>
<path fill="none" stroke="black" d="M486.42,-350.65C480.35,-335.77 471.64,-314.45 465.57,-299.58"/>
<text text-anchor="middle" x="488.13" y="-319.7" font-family="Times New Roman,serif" font-size="14.00">1.0</text>
</g>
<!-- 18 -->
<g id="node3" class="node">
<title>18</title>
<polygon fill="lightblue" stroke="black" points="429.88,-211.5 323.13,-211.5 323.13,-175.5 429.88,-175.5 429.88,-211.5"/>
<text text-anchor="middle" x="376.5" y="-188.07" font-family="Times New Roman,serif" font-size="14.00">polish bench leg</text>
</g>
<!-- 14&#45;&#45;18 -->
<g id="edge2" class="edge">
<title>14&#45;&#45;18</title>
<path fill="none" stroke="black" d="M441.91,-262.9C427.68,-248.02 407.29,-226.7 393.07,-211.83"/>
<text text-anchor="middle" x="434.13" y="-231.95" font-family="Times New Roman,serif" font-size="14.00">1.0</text>
</g>
<!-- 12 -->
<g id="node4" class="node">
<title>12</title>
<polygon fill="lightblue" stroke="black" points="563.63,-123.75 473.38,-123.75 473.38,-87.75 563.63,-87.75 563.63,-123.75"/>
<text text-anchor="middle" x="518.5" y="-100.33" font-family="Times New Roman,serif" font-size="14.00">cut bench leg</text>
</g>
<!-- 18&#45;&#45;12 -->
<g id="edge3" class="edge">
<title>18&#45;&#45;12</title>
<path fill="none" stroke="black" d="M405.24,-175.15C429.87,-160.27 465.18,-138.95 489.81,-124.08"/>
<text text-anchor="middle" x="469.13" y="-144.2" font-family="Times New Roman,serif" font-size="14.00">1.0</text>
</g>
<!-- 1016 -->
<g id="node5" class="node">
<title>1016</title>
<polygon fill="orange" stroke="black" points="598.21,-18 558.35,-36 478.65,-36 438.8,-18 478.65,0 558.35,0 598.21,-18"/>
<text text-anchor="middle" x="518.5" y="-12.57" font-family="Times New Roman,serif" font-size="14.00">wood pole 4cm</text>
</g>
<!-- 12&#45;&#45;1016 -->
<g id="edge4" class="edge">
<title>12&#45;&#45;1016</title>
<path fill="none" stroke="black" d="M518.5,-87.4C518.5,-72.52 518.5,-51.2 518.5,-36.33"/>
<text text-anchor="middle" x="530.5" y="-56.45" font-family="Times New Roman,serif" font-size="14.00">0.28</text>
</g>
<!-- 1002 -->
<g id="node6" class="node">
<title>1002</title>
<ellipse fill="lightgreen" stroke="black" cx="330.5" cy="-456.75" rx="72.02" ry="18"/>
<text text-anchor="middle" x="330.5" y="-451.32" font-family="Times New Roman,serif" font-size="14.00">bench leg w/bolt</text>
</g>
<!-- 16 -->
<g id="node7" class="node">
<title>16</title>
<polygon fill="lightblue" stroke="black" points="381.63,-387 279.38,-387 279.38,-351 381.63,-351 381.63,-387"/>
<text text-anchor="middle" x="330.5" y="-363.57" font-family="Times New Roman,serif" font-size="14.00">fix bolt M16 22</text>
</g>
<!-- 1002&#45;&#45;16 -->
<g id="edge5" class="edge">
<title>1002&#45;&#45;16</title>
<path fill="none" stroke="black" d="M330.5,-438.4C330.5,-423.52 330.5,-402.2 330.5,-387.33"/>
<text text-anchor="middle" x="339.13" y="-407.45" font-family="Times New Roman,serif" font-size="14.00">1.0</text>
</g>
<!-- 16&#45;&#45;14 -->
<g id="edge7" class="edge">
<title>16&#45;&#45;14</title>
<path fill="none" stroke="black" d="M356.4,-350.65C378.61,-335.77 410.44,-314.45 432.64,-299.58"/>
<text text-anchor="middle" x="415.13" y="-319.7" font-family="Times New Roman,serif" font-size="14.00">1.0</text>
</g>
<!-- 1013 -->
<g id="node8" class="node">
<title>1013</title>
<polygon fill="orange" stroke="black" points="179,-281.25 134.25,-299.25 44.75,-299.25 0,-281.25 44.75,-263.25 134.25,-263.25 179,-281.25"/>
<text text-anchor="middle" x="89.5" y="-275.82" font-family="Times New Roman,serif" font-size="14.00">threaded rod M16</text>
</g>
<!-- 16&#45;&#45;1013 -->
<g id="edge6" class="edge">
<title>16&#45;&#45;1013</title>
<path fill="none" stroke="black" d="M281.44,-350.54C238.91,-335.41 177.81,-313.67 136.04,-298.81"/>
<text text-anchor="middle" x="241.13" y="-319.7" font-family="Times New Roman,serif" font-size="14.00">1.0</text>
</g>
<!-- 1003 -->
<g id="node9" class="node">
<title>1003</title>
<ellipse fill="lightgreen" stroke="black" cx="1057.5" cy="-369" rx="81" ry="18"/>
<text text-anchor="middle" x="1057.5" y="-363.57" font-family="Times New Roman,serif" font-size="14.00">bench seat w/holes</text>
</g>
<!-- 15 -->
<g id="node10" class="node">
<title>15</title>
<polygon fill="lightblue" stroke="black" points="1109.38,-299.25 1005.63,-299.25 1005.63,-263.25 1109.38,-263.25 1109.38,-299.25"/>
<text text-anchor="middle" x="1057.5" y="-275.82" font-family="Times New Roman,serif" font-size="14.00">drill bench seat </text>
</g>
<!-- 1003&#45;&#45;15 -->
<g id="edge8" class="edge">
<title>1003&#45;&#45;15</title>
<path fill="none" stroke="black" d="M1057.5,-350.65C1057.5,-335.77 1057.5,-314.45 1057.5,-299.58"/>
<text text-anchor="middle" x="1066.13" y="-319.7" font-family="Times New Roman,serif" font-size="14.00">1.0</text>
</g>
<!-- 19 -->
<g id="node11" class="node">
<title>19</title>
<polygon fill="lightblue" stroke="black" points="917.75,-211.5 801.25,-211.5 801.25,-175.5 917.75,-175.5 917.75,-211.5"/>
<text text-anchor="middle" x="859.5" y="-188.07" font-family="Times New Roman,serif" font-size="14.00">polish bench seat </text>
</g>
<!-- 15&#45;&#45;19 -->
<g id="edge9" class="edge">
<title>15&#45;&#45;19</title>
<path fill="none" stroke="black" d="M1017.43,-262.9C983.19,-248.07 934.17,-226.84 899.85,-211.97"/>
<text text-anchor="middle" x="984.13" y="-231.95" font-family="Times New Roman,serif" font-size="14.00">1.0</text>
</g>
<!-- 13 -->
<g id="node12" class="node">
<title>13</title>
<polygon fill="lightblue" stroke="black" points="764.63,-123.75 668.38,-123.75 668.38,-87.75 764.63,-87.75 764.63,-123.75"/>
<text text-anchor="middle" x="716.5" y="-100.33" font-family="Times New Roman,serif" font-size="14.00">cut bench seat</text>
</g>
<!-- 19&#45;&#45;13 -->
<g id="edge10" class="edge">
<title>19&#45;&#45;13</title>
<path fill="none" stroke="black" d="M830.56,-175.15C805.75,-160.27 770.19,-138.95 745.4,-124.08"/>
<text text-anchor="middle" x="809.13" y="-144.2" font-family="Times New Roman,serif" font-size="14.00">1.0</text>
</g>
<!-- 1015 -->
<g id="node13" class="node">
<title>1015</title>
<polygon fill="orange" stroke="black" points="774.89,-18 745.7,-36 687.31,-36 658.11,-18 687.31,0 745.7,0 774.89,-18"/>
<text text-anchor="middle" x="716.5" y="-12.57" font-family="Times New Roman,serif" font-size="14.00">wood 3cm</text>
</g>
<!-- 13&#45;&#45;1015 -->
<g id="edge11" class="edge">
<title>13&#45;&#45;1015</title>
<path fill="none" stroke="black" d="M716.5,-87.4C716.5,-72.52 716.5,-51.2 716.5,-36.33"/>
<text text-anchor="middle" x="735.25" y="-56.45" font-family="Times New Roman,serif" font-size="14.00">0.0576</text>
</g>
<!-- 1004 -->
<g id="node14" class="node">
<title>1004</title>
<ellipse fill="lightgreen" stroke="black" cx="845.5" cy="-456.75" rx="73.02" ry="18"/>
<text text-anchor="middle" x="845.5" y="-451.32" font-family="Times New Roman,serif" font-size="14.00">bench seat w/nut</text>
</g>
<!-- 17 -->
<g id="node15" class="node">
<title>17</title>
<polygon fill="lightblue" stroke="black" points="894.38,-387 796.63,-387 796.63,-351 894.38,-351 894.38,-387"/>
<text text-anchor="middle" x="845.5" y="-363.57" font-family="Times New Roman,serif" font-size="14.00">fix nut M16 21</text>
</g>
<!-- 1004&#45;&#45;17 -->
<g id="edge12" class="edge">
<title>1004&#45;&#45;17</title>
<path fill="none" stroke="black" d="M845.5,-438.4C845.5,-423.52 845.5,-402.2 845.5,-387.33"/>
<text text-anchor="middle" x="854.13" y="-407.45" font-family="Times New Roman,serif" font-size="14.00">1.0</text>
</g>
<!-- 17&#45;&#45;15 -->
<g id="edge15" class="edge">
<title>17&#45;&#45;15</title>
<path fill="none" stroke="black" d="M888.66,-350.54C925.34,-335.71 977.74,-314.51 1014.41,-299.68"/>
<text text-anchor="middle" x="978.13" y="-319.7" font-family="Times New Roman,serif" font-size="14.00">1.0</text>
</g>
<!-- 1005 -->
<g id="node16" class="node">
<title>1005</title>
<polygon fill="orange" stroke="black" points="837.79,-281.25 814.65,-299.25 768.36,-299.25 745.21,-281.25 768.36,-263.25 814.65,-263.25 837.79,-281.25"/>
<text text-anchor="middle" x="791.5" y="-275.82" font-family="Times New Roman,serif" font-size="14.00">bolt M6</text>
</g>
<!-- 17&#45;&#45;1005 -->
<g id="edge13" class="edge">
<title>17&#45;&#45;1005</title>
<path fill="none" stroke="black" d="M834.57,-350.65C825.21,-335.77 811.78,-314.45 802.41,-299.58"/>
<text text-anchor="middle" x="834.5" y="-319.7" font-family="Times New Roman,serif" font-size="14.00">12.0</text>
</g>
<!-- 1007 -->
<g id="node17" class="node">
<title>1007</title>
<polygon fill="orange" stroke="black" points="969.52,-281.25 945.51,-299.25 897.49,-299.25 873.49,-281.25 897.49,-263.25 945.51,-263.25 969.52,-281.25"/>
<text text-anchor="middle" x="921.5" y="-275.82" font-family="Times New Roman,serif" font-size="14.00">nut M16</text>
</g>
<!-- 17&#45;&#45;1007 -->
<g id="edge14" class="edge">
<title>17&#45;&#45;1007</title>
<path fill="none" stroke="black" d="M860.88,-350.65C874.07,-335.77 892.97,-314.45 906.14,-299.58"/>
<text text-anchor="middle" x="898.13" y="-319.7" font-family="Times New Roman,serif" font-size="14.00">4.0</text>
</g>
<!-- 1006 -->
<g id="node18" class="node">
<title>1006</title>
<ellipse fill="lightgreen" stroke="black" cx="671.5" cy="-632.25" rx="64.54" ry="18"/>
<text text-anchor="middle" x="671.5" y="-626.83" font-family="Times New Roman,serif" font-size="14.00">finished bench</text>
</g>
<!-- 20 -->
<g id="node19" class="node">
<title>20</title>
<polygon fill="lightblue" stroke="black" points="720,-562.5 623,-562.5 623,-526.5 720,-526.5 720,-562.5"/>
<text text-anchor="middle" x="671.5" y="-539.08" font-family="Times New Roman,serif" font-size="14.00">varnish bench </text>
</g>
<!-- 1006&#45;&#45;20 -->
<g id="edge16" class="edge">
<title>1006&#45;&#45;20</title>
<path fill="none" stroke="black" d="M671.5,-613.9C671.5,-599.02 671.5,-577.7 671.5,-562.83"/>
<text text-anchor="middle" x="680.13" y="-582.95" font-family="Times New Roman,serif" font-size="14.00">1.0</text>
</g>
<!-- 11 -->
<g id="node20" class="node">
<title>11</title>
<polygon fill="lightblue" stroke="black" points="591.63,-474.75 483.38,-474.75 483.38,-438.75 591.63,-438.75 591.63,-474.75"/>
<text text-anchor="middle" x="537.5" y="-451.32" font-family="Times New Roman,serif" font-size="14.00">assemble bench </text>
</g>
<!-- 20&#45;&#45;11 -->
<g id="edge17" class="edge">
<title>20&#45;&#45;11</title>
<path fill="none" stroke="black" d="M644.38,-526.15C621.14,-511.27 587.81,-489.95 564.58,-475.08"/>
<text text-anchor="middle" x="626.13" y="-495.2" font-family="Times New Roman,serif" font-size="14.00">1.0</text>
</g>
<!-- 1014 -->
<g id="node21" class="node">
<title>1014</title>
<polygon fill="orange" stroke="black" points="714.33,-456.75 692.92,-474.75 650.09,-474.75 628.67,-456.75 650.09,-438.75 692.92,-438.75 714.33,-456.75"/>
<text text-anchor="middle" x="671.5" y="-451.32" font-family="Times New Roman,serif" font-size="14.00">varnish</text>
</g>
<!-- 20&#45;&#45;1014 -->
<g id="edge20" class="edge">
<title>20&#45;&#45;1014</title>
<path fill="none" stroke="black" d="M671.5,-526.15C671.5,-511.27 671.5,-489.95 671.5,-475.08"/>
<text text-anchor="middle" x="686.88" y="-495.2" font-family="Times New Roman,serif" font-size="14.00">0.125</text>
</g>
<!-- 11&#45;&#45;16 -->
<g id="edge18" class="edge">
<title>11&#45;&#45;16</title>
<path fill="none" stroke="black" d="M495.36,-438.29C459.54,-423.46 408.38,-402.26 372.58,-387.43"/>
<text text-anchor="middle" x="462.13" y="-407.45" font-family="Times New Roman,serif" font-size="14.00">4.0</text>
</g>
<!-- 11&#45;&#45;17 -->
<g id="edge19" class="edge">
<title>11&#45;&#45;17</title>
<path fill="none" stroke="black" d="M591.86,-440.62C649.71,-424.51 740.44,-399.25 796.26,-383.71"/>
<text text-anchor="middle" x="727.13" y="-407.45" font-family="Times New Roman,serif" font-size="14.00">1.0</text>
</g>
<!-- 1008 -->
<g id="node22" class="node">
<title>1008</title>
<ellipse fill="lightgreen" stroke="black" cx="295.5" cy="-281.25" rx="80.01" ry="18"/>
<text text-anchor="middle" x="295.5" y="-275.82" font-family="Times New Roman,serif" font-size="14.00">polished bench leg</text>
</g>
<!-- 1008&#45;&#45;18 -->
<g id="edge21" class="edge">
<title>1008&#45;&#45;18</title>
<path fill="none" stroke="black" d="M311.5,-263.31C325.52,-248.47 345.81,-227 359.98,-211.99"/>
<text text-anchor="middle" x="352.13" y="-231.95" font-family="Times New Roman,serif" font-size="14.00">1.0</text>
</g>
<!-- 1009 -->
<g id="node23" class="node">
<title>1009</title>
<ellipse fill="lightgreen" stroke="black" cx="625.5" cy="-281.25" rx="84" ry="18"/>
<text text-anchor="middle" x="625.5" y="-275.82" font-family="Times New Roman,serif" font-size="14.00">polished bench seat</text>
</g>
<!-- 1009&#45;&#45;19 -->
<g id="edge22" class="edge">
<title>1009&#45;&#45;19</title>
<path fill="none" stroke="black" d="M666.8,-265.12C707.34,-250.26 769.14,-227.62 811.76,-211.99"/>
<text text-anchor="middle" x="771.13" y="-231.95" font-family="Times New Roman,serif" font-size="14.00">1.0</text>
</g>
<!-- 1010 -->
<g id="node24" class="node">
<title>1010</title>
<ellipse fill="lightgreen" stroke="black" cx="537.5" cy="-544.5" rx="49.07" ry="18"/>
<text text-anchor="middle" x="537.5" y="-539.08" font-family="Times New Roman,serif" font-size="14.00">raw bench</text>
</g>
<!-- 1010&#45;&#45;11 -->
<g id="edge23" class="edge">
<title>1010&#45;&#45;11</title>
<path fill="none" stroke="black" d="M537.5,-526.15C537.5,-511.27 537.5,-489.95 537.5,-475.08"/>
<text text-anchor="middle" x="546.13" y="-495.2" font-family="Times New Roman,serif" font-size="14.00">1.0</text>
</g>
<!-- 1011 -->
<g id="node25" class="node">
<title>1011</title>
<ellipse fill="lightgreen" stroke="black" cx="527.5" cy="-193.5" rx="62.04" ry="18"/>
<text text-anchor="middle" x="527.5" y="-188.07" font-family="Times New Roman,serif" font-size="14.00">raw bench leg</text>
</g>
<!-- 1011&#45;&#45;12 -->
<g id="edge24" class="edge">
<title>1011&#45;&#45;12</title>
<path fill="none" stroke="black" d="M525.68,-175.15C524.12,-160.27 521.88,-138.95 520.32,-124.08"/>
<text text-anchor="middle" x="533.13" y="-144.2" font-family="Times New Roman,serif" font-size="14.00">1.0</text>
</g>
<!-- 1012 -->
<g id="node26" class="node">
<title>1012</title>
<ellipse fill="lightgreen" stroke="black" cx="699.5" cy="-193.5" rx="66.03" ry="18"/>
<text text-anchor="middle" x="699.5" y="-188.07" font-family="Times New Roman,serif" font-size="14.00">raw bench seat</text>
</g>
<!-- 1012&#45;&#45;13 -->
<g id="edge25" class="edge">
<title>1012&#45;&#45;13</title>
<path fill="none" stroke="black" d="M702.94,-175.15C705.89,-160.27 710.12,-138.95 713.07,-124.08"/>
<text text-anchor="middle" x="718.13" y="-144.2" font-family="Times New Roman,serif" font-size="14.00">1.0</text>
</g>
</g>
</svg>
