<?xml version="1.0" encoding="UTF-8" standalone="no"?>
<!DOCTYPE svg PUBLIC "-//W3C//DTD SVG 1.1//EN"
 "http://www.w3.org/Graphics/SVG/1.1/DTD/svg11.dtd">
<!-- Generated by graphviz version 12.2.0 (20241103.1931)
 -->
<!-- Title: G Pages: 1 -->
<svg width="510pt" height="575pt"
 viewBox="0.00 0.00 510.31 575.00" xmlns="http://www.w3.org/2000/svg" xmlns:xlink="http://www.w3.org/1999/xlink">
<g id="graph0" class="graph" transform="scale(1 1) rotate(0) translate(4 571)">
<title>G</title>
<polygon fill="white" stroke="none" points="-4,4 -4,-571 506.31,-571 506.31,4 -4,4"/>
<!-- 2001 -->
<g id="node1" class="node">
<title>2001</title>
<polygon fill="orange" stroke="black" points="176.04,-18 132.8,-36 46.32,-36 3.08,-18 46.32,0 132.8,0 176.04,-18"/>
<text text-anchor="middle" x="89.56" y="-12.95" font-family="Times New Roman,serif" font-size="14.00">tábua de madeira</text>
</g>
<!-- 2002 -->
<g id="node2" class="node">
<title>2002</title>
<ellipse fill="lightgreen" stroke="black" cx="60.56" cy="-195" rx="60.56" ry="18"/>
<text text-anchor="middle" x="60.56" y="-189.95" font-family="Times New Roman,serif" font-size="14.00">tábua cortada</text>
</g>
<!-- 1 -->
<g id="node3" class="node">
<title>1</title>
<polygon fill="lightblue" stroke="black" points="162.06,-124.5 17.06,-124.5 17.06,-88.5 162.06,-88.5 162.06,-124.5"/>
<text text-anchor="middle" x="89.56" y="-101.45" font-family="Times New Roman,serif" font-size="14.00">cortar tábua de madeira</text>
</g>
<!-- 2002&#45;&#45;1 -->
<g id="edge1" class="edge">
<title>2002&#45;&#45;1</title>
<path fill="none" stroke="black" d="M66.29,-176.91C71.34,-161.84 78.67,-139.99 83.75,-124.85"/>
<text text-anchor="middle" x="86.29" y="-145.7" font-family="Times New Roman,serif" font-size="14.00">1.0</text>
</g>
<!-- 1&#45;&#45;2001 -->
<g id="edge2" class="edge">
<title>1&#45;&#45;2001</title>
<path fill="none" stroke="black" d="M89.56,-88.41C89.56,-73.34 89.56,-51.49 89.56,-36.35"/>
<text text-anchor="middle" x="98.19" y="-57.2" font-family="Times New Roman,serif" font-size="14.00">2.0</text>
</g>
<!-- 2003 -->
<g id="node4" class="node">
<title>2003</title>
<ellipse fill="lightgreen" stroke="black" cx="374.56" cy="-283.5" rx="76.43" ry="18"/>
<text text-anchor="middle" x="374.56" y="-278.45" font-family="Times New Roman,serif" font-size="14.00">estrutura da caixa</text>
</g>
<!-- 2 -->
<g id="node5" class="node">
<title>2</title>
<polygon fill="lightblue" stroke="black" points="353.19,-213 265.94,-213 265.94,-177 353.19,-177 353.19,-213"/>
<text text-anchor="middle" x="309.56" y="-189.95" font-family="Times New Roman,serif" font-size="14.00">montar caixa</text>
</g>
<!-- 2003&#45;&#45;2 -->
<g id="edge3" class="edge">
<title>2003&#45;&#45;2</title>
<path fill="none" stroke="black" d="M361.72,-265.41C350.4,-250.34 333.98,-228.49 322.6,-213.35"/>
<text text-anchor="middle" x="356.51" y="-234.2" font-family="Times New Roman,serif" font-size="14.00">1.0</text>
</g>
<!-- 2&#45;&#45;1 -->
<g id="edge4" class="edge">
<title>2&#45;&#45;1</title>
<path fill="none" stroke="black" d="M265.57,-176.7C227.33,-161.67 172.19,-139.99 133.86,-124.91"/>
<text text-anchor="middle" x="227.89" y="-145.7" font-family="Times New Roman,serif" font-size="14.00">4.0</text>
</g>
<!-- 2004 -->
<g id="node6" class="node">
<title>2004</title>
<polygon fill="orange" stroke="black" points="230.4,-195 211.98,-213 175.14,-213 156.73,-195 175.14,-177 211.98,-177 230.4,-195"/>
<text text-anchor="middle" x="193.56" y="-189.95" font-family="Times New Roman,serif" font-size="14.00">prego</text>
</g>
<!-- 2005 -->
<g id="node7" class="node">
<title>2005</title>
<ellipse fill="lightgreen" stroke="black" cx="164.56" cy="-372" rx="65.17" ry="18"/>
<text text-anchor="middle" x="164.56" y="-366.95" font-family="Times New Roman,serif" font-size="14.00">caixa montada</text>
</g>
<!-- 3 -->
<g id="node8" class="node">
<title>3</title>
<polygon fill="lightblue" stroke="black" points="262.31,-301.5 124.81,-301.5 124.81,-265.5 262.31,-265.5 262.31,-301.5"/>
<text text-anchor="middle" x="193.56" y="-278.45" font-family="Times New Roman,serif" font-size="14.00">pregar cantos da caixa</text>
</g>
<!-- 2005&#45;&#45;3 -->
<g id="edge5" class="edge">
<title>2005&#45;&#45;3</title>
<path fill="none" stroke="black" d="M170.29,-353.91C175.34,-338.84 182.67,-316.99 187.75,-301.85"/>
<text text-anchor="middle" x="190.29" y="-322.7" font-family="Times New Roman,serif" font-size="14.00">1.0</text>
</g>
<!-- 3&#45;&#45;2 -->
<g id="edge7" class="edge">
<title>3&#45;&#45;2</title>
<path fill="none" stroke="black" d="M216.76,-265.2C236.99,-250.12 266.19,-228.34 286.41,-213.27"/>
<text text-anchor="middle" x="270.58" y="-234.2" font-family="Times New Roman,serif" font-size="14.00">1.0</text>
</g>
<!-- 3&#45;&#45;2004 -->
<g id="edge6" class="edge">
<title>3&#45;&#45;2004</title>
<path fill="none" stroke="black" d="M193.56,-265.41C193.56,-250.34 193.56,-228.49 193.56,-213.35"/>
<text text-anchor="middle" x="205.56" y="-234.2" font-family="Times New Roman,serif" font-size="14.00">10.0</text>
</g>
<!-- 2006 -->
<g id="node9" class="node">
<title>2006</title>
<ellipse fill="lightgreen" stroke="black" cx="300.56" cy="-549" rx="60.05" ry="18"/>
<text text-anchor="middle" x="300.56" y="-543.95" font-family="Times New Roman,serif" font-size="14.00">caixa pintada</text>
</g>
<!-- 5 -->
<g id="node10" class="node">
<title>5</title>
<polygon fill="lightblue" stroke="black" points="340.44,-478.5 260.69,-478.5 260.69,-442.5 340.44,-442.5 340.44,-478.5"/>
<text text-anchor="middle" x="300.56" y="-455.45" font-family="Times New Roman,serif" font-size="14.00">pintar caixa</text>
</g>
<!-- 2006&#45;&#45;5 -->
<g id="edge8" class="edge">
<title>2006&#45;&#45;5</title>
<path fill="none" stroke="black" d="M300.56,-530.91C300.56,-515.84 300.56,-493.99 300.56,-478.85"/>
<text text-anchor="middle" x="309.19" y="-499.7" font-family="Times New Roman,serif" font-size="14.00">1.0</text>
</g>
<!-- 4 -->
<g id="node11" class="node">
<title>4</title>
<polygon fill="lightblue" stroke="black" points="502.31,-390 364.81,-390 364.81,-354 502.31,-354 502.31,-390"/>
<text text-anchor="middle" x="433.56" y="-366.95" font-family="Times New Roman,serif" font-size="14.00">lixar caixa de madeira</text>
</g>
<!-- 5&#45;&#45;4 -->
<g id="edge9" class="edge">
<title>5&#45;&#45;4</title>
<path fill="none" stroke="black" d="M327.16,-442.2C350.36,-427.12 383.83,-405.34 407.02,-390.27"/>
<text text-anchor="middle" x="387.6" y="-411.2" font-family="Times New Roman,serif" font-size="14.00">1.0</text>
</g>
<!-- 2008 -->
<g id="node12" class="node">
<title>2008</title>
<polygon fill="orange" stroke="black" points="329.08,-372 313.32,-390 281.8,-390 266.04,-372 281.8,-354 313.32,-354 329.08,-372"/>
<text text-anchor="middle" x="297.56" y="-366.95" font-family="Times New Roman,serif" font-size="14.00">tinta</text>
</g>
<!-- 5&#45;&#45;2008 -->
<g id="edge11" class="edge">
<title>5&#45;&#45;2008</title>
<path fill="none" stroke="black" d="M299.97,-442.41C299.45,-427.34 298.69,-405.49 298.17,-390.35"/>
<text text-anchor="middle" x="307.96" y="-411.2" font-family="Times New Roman,serif" font-size="14.00">0.5</text>
</g>
<!-- 4&#45;&#45;3 -->
<g id="edge10" class="edge">
<title>4&#45;&#45;3</title>
<path fill="none" stroke="black" d="M385.29,-353.6C343.54,-338.55 283.49,-316.91 241.77,-301.87"/>
<text text-anchor="middle" x="343.69" y="-322.7" font-family="Times New Roman,serif" font-size="14.00">1.0</text>
</g>
<!-- 2007 -->
<g id="node13" class="node">
<title>2007</title>
<ellipse fill="lightgreen" stroke="black" cx="433.56" cy="-460.5" rx="55.45" ry="18"/>
<text text-anchor="middle" x="433.56" y="-455.45" font-family="Times New Roman,serif" font-size="14.00">caixa lixada</text>
</g>
<!-- 2007&#45;&#45;4 -->
<g id="edge12" class="edge">
<title>2007&#45;&#45;4</title>
<path fill="none" stroke="black" d="M433.56,-442.41C433.56,-427.34 433.56,-405.49 433.56,-390.35"/>
<text text-anchor="middle" x="442.19" y="-411.2" font-family="Times New Roman,serif" font-size="14.00">1.0</text>
</g>
</g>
</svg>
