<?xml version="1.0" encoding="UTF-8" standalone="no"?>
<!DOCTYPE svg PUBLIC "-//W3C//DTD SVG 1.1//EN"
 "http://www.w3.org/Graphics/SVG/1.1/DTD/svg11.dtd">
<!-- Generated by graphviz version 10.0.1 (20240210.2158)
 -->
<!-- Title: G Pages: 1 -->
<svg width="555pt" height="571pt"
 viewBox="0.00 0.00 554.61 570.50" xmlns="http://www.w3.org/2000/svg" xmlns:xlink="http://www.w3.org/1999/xlink">
<g id="graph0" class="graph" transform="scale(1 1) rotate(0) translate(4 566.5)">
<title>G</title>
<polygon fill="white" stroke="none" points="-4,4 -4,-566.5 550.61,-566.5 550.61,4 -4,4"/>
<!-- 2001 -->
<g id="node1" class="node">
<title>2001</title>
<polygon fill="none" stroke="black" points="168.38,-36 57.88,-36 57.88,0 168.38,0 168.38,-36"/>
<text text-anchor="middle" x="113.13" y="-12.57" font-family="Times New Roman,serif" font-size="14.00">tábua de madeira</text>
</g>
<!-- 2002 -->
<g id="node2" class="node">
<title>2002</title>
<polygon fill="none" stroke="black" points="130,-211.5 38.25,-211.5 38.25,-175.5 130,-175.5 130,-211.5"/>
<text text-anchor="middle" x="84.13" y="-188.07" font-family="Times New Roman,serif" font-size="14.00">tábua cortada</text>
</g>
<!-- 1 -->
<g id="node3" class="node">
<title>1</title>
<polygon fill="none" stroke="black" points="226.25,-105.75 169.69,-123.75 56.56,-123.75 0,-105.75 56.56,-87.75 169.69,-87.75 226.25,-105.75"/>
<text text-anchor="middle" x="113.13" y="-100.33" font-family="Times New Roman,serif" font-size="14.00">cortar tábua de madeira</text>
</g>
<!-- 2002&#45;&#45;1 -->
<g id="edge1" class="edge">
<title>2002&#45;&#45;1</title>
<path fill="none" stroke="black" d="M89.99,-175.15C95.03,-160.27 102.24,-138.95 107.27,-124.08"/>
<text text-anchor="middle" x="110.75" y="-144.2" font-family="Times New Roman,serif" font-size="14.00">1.0</text>
</g>
<!-- 1&#45;&#45;2001 -->
<g id="edge2" class="edge">
<title>1&#45;&#45;2001</title>
<path fill="none" stroke="black" d="M113.13,-87.4C113.13,-72.52 113.13,-51.2 113.13,-36.33"/>
<text text-anchor="middle" x="121.75" y="-56.45" font-family="Times New Roman,serif" font-size="14.00">1.0</text>
</g>
<!-- 2003 -->
<g id="node4" class="node">
<title>2003</title>
<polygon fill="none" stroke="black" points="450.88,-299.25 337.38,-299.25 337.38,-263.25 450.88,-263.25 450.88,-299.25"/>
<text text-anchor="middle" x="394.13" y="-275.82" font-family="Times New Roman,serif" font-size="14.00">estrutura da caixa</text>
</g>
<!-- 2 -->
<g id="node5" class="node">
<title>2</title>
<polygon fill="none" stroke="black" points="390.16,-193.5 356.64,-211.5 289.61,-211.5 256.1,-193.5 289.61,-175.5 356.64,-175.5 390.16,-193.5"/>
<text text-anchor="middle" x="323.13" y="-188.07" font-family="Times New Roman,serif" font-size="14.00">montar caixa</text>
</g>
<!-- 2003&#45;&#45;2 -->
<g id="edge3" class="edge">
<title>2003&#45;&#45;2</title>
<path fill="none" stroke="black" d="M379.76,-262.9C367.44,-248.02 349.78,-226.7 337.47,-211.83"/>
<text text-anchor="middle" x="373.75" y="-231.95" font-family="Times New Roman,serif" font-size="14.00">1.0</text>
</g>
<!-- 2&#45;&#45;1 -->
<g id="edge4" class="edge">
<title>2&#45;&#45;1</title>
<path fill="none" stroke="black" d="M285.58,-177.17C249.13,-162.28 193.86,-139.72 155.77,-124.16"/>
<text text-anchor="middle" x="245.75" y="-144.2" font-family="Times New Roman,serif" font-size="14.00">1.0</text>
</g>
<!-- 2004 -->
<g id="node6" class="node">
<title>2004</title>
<polygon fill="none" stroke="black" points="220.13,-211.5 166.13,-211.5 166.13,-175.5 220.13,-175.5 220.13,-211.5"/>
<text text-anchor="middle" x="193.13" y="-188.07" font-family="Times New Roman,serif" font-size="14.00">prego</text>
</g>
<!-- 2005 -->
<g id="node7" class="node">
<title>2005</title>
<polygon fill="none" stroke="black" points="212.25,-387 116,-387 116,-351 212.25,-351 212.25,-387"/>
<text text-anchor="middle" x="164.13" y="-363.57" font-family="Times New Roman,serif" font-size="14.00">caixa montada</text>
</g>
<!-- 3 -->
<g id="node8" class="node">
<title>3</title>
<polygon fill="none" stroke="black" points="301.64,-281.25 247.38,-299.25 138.87,-299.25 84.61,-281.25 138.87,-263.25 247.38,-263.25 301.64,-281.25"/>
<text text-anchor="middle" x="193.13" y="-275.82" font-family="Times New Roman,serif" font-size="14.00">pregar cantos da caixa</text>
</g>
<!-- 2005&#45;&#45;3 -->
<g id="edge5" class="edge">
<title>2005&#45;&#45;3</title>
<path fill="none" stroke="black" d="M169.99,-350.65C175.03,-335.77 182.24,-314.45 187.27,-299.58"/>
<text text-anchor="middle" x="190.75" y="-319.7" font-family="Times New Roman,serif" font-size="14.00">1.0</text>
</g>
<!-- 3&#45;&#45;2 -->
<g id="edge7" class="edge">
<title>3&#45;&#45;2</title>
<path fill="none" stroke="black" d="M219.43,-262.9C241.99,-248.02 274.31,-226.7 296.86,-211.83"/>
<text text-anchor="middle" x="278.75" y="-231.95" font-family="Times New Roman,serif" font-size="14.00">1.0</text>
</g>
<!-- 3&#45;&#45;2004 -->
<g id="edge6" class="edge">
<title>3&#45;&#45;2004</title>
<path fill="none" stroke="black" d="M193.13,-262.9C193.13,-248.02 193.13,-226.7 193.13,-211.83"/>
<text text-anchor="middle" x="201.75" y="-231.95" font-family="Times New Roman,serif" font-size="14.00">1.0</text>
</g>
<!-- 2006 -->
<g id="node9" class="node">
<title>2006</title>
<polygon fill="none" stroke="black" points="334.5,-562.5 245.75,-562.5 245.75,-526.5 334.5,-526.5 334.5,-562.5"/>
<text text-anchor="middle" x="290.13" y="-539.08" font-family="Times New Roman,serif" font-size="14.00">caixa pintada</text>
</g>
<!-- 5 -->
<g id="node10" class="node">
<title>5</title>
<polygon fill="none" stroke="black" points="351.39,-456.75 320.76,-474.75 259.49,-474.75 228.86,-456.75 259.49,-438.75 320.76,-438.75 351.39,-456.75"/>
<text text-anchor="middle" x="290.13" y="-451.32" font-family="Times New Roman,serif" font-size="14.00">pintar caixa</text>
</g>
<!-- 2006&#45;&#45;5 -->
<g id="edge8" class="edge">
<title>2006&#45;&#45;5</title>
<path fill="none" stroke="black" d="M290.13,-526.15C290.13,-511.27 290.13,-489.95 290.13,-475.08"/>
<text text-anchor="middle" x="298.75" y="-495.2" font-family="Times New Roman,serif" font-size="14.00">1.0</text>
</g>
<!-- 4 -->
<g id="node11" class="node">
<title>4</title>
<polygon fill="none" stroke="black" points="546.61,-369 494.37,-387 389.88,-387 337.64,-369 389.88,-351 494.37,-351 546.61,-369"/>
<text text-anchor="middle" x="442.13" y="-363.57" font-family="Times New Roman,serif" font-size="14.00">lixar caixa de madeira</text>
</g>
<!-- 5&#45;&#45;4 -->
<g id="edge9" class="edge">
<title>5&#45;&#45;4</title>
<path fill="none" stroke="black" d="M320.88,-438.4C347.17,-423.57 384.81,-402.34 411.15,-387.47"/>
<text text-anchor="middle" x="388.75" y="-407.45" font-family="Times New Roman,serif" font-size="14.00">1.0</text>
</g>
<!-- 2008 -->
<g id="node12" class="node">
<title>2008</title>
<polygon fill="none" stroke="black" points="302.13,-387 248.13,-387 248.13,-351 302.13,-351 302.13,-387"/>
<text text-anchor="middle" x="275.13" y="-363.57" font-family="Times New Roman,serif" font-size="14.00">tinta</text>
</g>
<!-- 5&#45;&#45;2008 -->
<g id="edge11" class="edge">
<title>5&#45;&#45;2008</title>
<path fill="none" stroke="black" d="M287.09,-438.4C284.49,-423.52 280.76,-402.2 278.16,-387.33"/>
<text text-anchor="middle" x="292.75" y="-407.45" font-family="Times New Roman,serif" font-size="14.00">1.0</text>
</g>
<!-- 4&#45;&#45;3 -->
<g id="edge10" class="edge">
<title>4&#45;&#45;3</title>
<path fill="none" stroke="black" d="M391.44,-350.54C348.35,-335.71 286.81,-314.51 243.74,-299.68"/>
<text text-anchor="middle" x="348.75" y="-319.7" font-family="Times New Roman,serif" font-size="14.00">1.0</text>
</g>
<!-- 2007 -->
<g id="node13" class="node">
<title>2007</title>
<polygon fill="none" stroke="black" points="482.38,-474.75 401.88,-474.75 401.88,-438.75 482.38,-438.75 482.38,-474.75"/>
<text text-anchor="middle" x="442.13" y="-451.32" font-family="Times New Roman,serif" font-size="14.00">caixa lixada</text>
</g>
<!-- 2007&#45;&#45;4 -->
<g id="edge12" class="edge">
<title>2007&#45;&#45;4</title>
<path fill="none" stroke="black" d="M442.13,-438.4C442.13,-423.52 442.13,-402.2 442.13,-387.33"/>
<text text-anchor="middle" x="450.75" y="-407.45" font-family="Times New Roman,serif" font-size="14.00">1.0</text>
</g>
</g>
</svg>
