<?xml version="1.0" encoding="UTF-8" standalone="no"?>
<!DOCTYPE svg PUBLIC "-//W3C//DTD SVG 1.1//EN"
 "http://www.w3.org/Graphics/SVG/1.1/DTD/svg11.dtd">
<!-- Generated by graphviz version 10.0.1 (20240210.2158)
 -->
<!-- Title: G Pages: 1 -->
<svg width="1002pt" height="571pt"
 viewBox="0.00 0.00 1002.00 570.50" xmlns="http://www.w3.org/2000/svg" xmlns:xlink="http://www.w3.org/1999/xlink">
<g id="graph0" class="graph" transform="scale(1 1) rotate(0) translate(4 566.5)">
<title>G</title>
<polygon fill="white" stroke="none" points="-4,4 -4,-566.5 998,-566.5 998,4 -4,4"/>
<!-- PN52384R50 -->
<g id="node1" class="node">
<title>PN52384R50</title>
<polygon fill="none" stroke="black" points="234.25,-387 0,-387 0,-351 234.25,-351 234.25,-387"/>
<text text-anchor="middle" x="117.12" y="-363.57" font-family="Times New Roman,serif" font-size="14.00">300x300 mm 5 mm stainless steel sheet</text>
</g>
<!-- PN18544C21 -->
<g id="node2" class="node">
<title>PN18544C21</title>
<polygon fill="none" stroke="black" points="817.88,-36 626.38,-36 626.38,0 817.88,0 817.88,-36"/>
<text text-anchor="middle" x="722.12" y="-12.57" font-family="Times New Roman,serif" font-size="14.00">Stainless steel handle model U6</text>
</g>
<!-- IP12945A01 -->
<g id="node3" class="node">
<title>IP12945A01</title>
<polygon fill="none" stroke="black" points="422.12,-299.25 220.12,-299.25 220.12,-263.25 422.12,-263.25 422.12,-299.25"/>
<text text-anchor="middle" x="321.12" y="-275.82" font-family="Times New Roman,serif" font-size="14.00">250 mm 5 mm stainless steel disc</text>
</g>
<!-- IP12945A32 -->
<g id="node4" class="node">
<title>IP12945A32</title>
<polygon fill="none" stroke="black" points="555.75,-211.5 396.5,-211.5 396.5,-175.5 555.75,-175.5 555.75,-211.5"/>
<text text-anchor="middle" x="476.12" y="-188.07" font-family="Times New Roman,serif" font-size="14.00">200 mm pot base phase 1</text>
</g>
<!-- IP12945A33 -->
<g id="node5" class="node">
<title>IP12945A33</title>
<polygon fill="none" stroke="black" points="690.75,-123.75 531.5,-123.75 531.5,-87.75 690.75,-87.75 690.75,-123.75"/>
<text text-anchor="middle" x="611.12" y="-100.33" font-family="Times New Roman,serif" font-size="14.00">200 mm pot base phase 2</text>
</g>
<!-- IP12945A34 -->
<g id="node6" class="node">
<title>IP12945A34</title>
<polygon fill="none" stroke="black" points="994,-36 854.25,-36 854.25,0 994,0 994,-36"/>
<text text-anchor="middle" x="924.12" y="-12.57" font-family="Times New Roman,serif" font-size="14.00">200 mm pot base final</text>
</g>
<!-- PN94561L67 -->
<g id="node7" class="node">
<title>PN94561L67</title>
<polygon fill="none" stroke="black" points="291.5,-211.5 178.75,-211.5 178.75,-175.5 291.5,-175.5 291.5,-211.5"/>
<text text-anchor="middle" x="235.12" y="-188.07" font-family="Times New Roman,serif" font-size="14.00">Coolube 2210XP</text>
</g>
<!-- AS12946S20 -->
<g id="node8" class="node">
<title>AS12946S20</title>
<polygon fill="none" stroke="black" points="668.62,-562.5 481.62,-562.5 481.62,-526.5 668.62,-526.5 668.62,-562.5"/>
<text text-anchor="middle" x="575.12" y="-539.08" font-family="Times New Roman,serif" font-size="14.00">3l 22 cm stainless steel pot TT</text>
</g>
<!-- 152 -->
<g id="node9" class="node">
<title>152</title>
<polygon fill="none" stroke="black" points="680.52,-281.25 624.82,-299.25 513.43,-299.25 457.73,-281.25 513.43,-263.25 624.82,-263.25 680.52,-281.25"/>
<text text-anchor="middle" x="569.12" y="-275.82" font-family="Times New Roman,serif" font-size="14.00">Final pot base pressing</text>
</g>
<!-- AS12946S20&#45;&#45;152 -->
<g id="edge1" class="edge">
<title>AS12946S20&#45;&#45;152</title>
<path fill="none" stroke="black" d="M575.12,-526.24C575.12,-491.82 575.12,-420.75 575.12,-420.75 575.12,-420.75 571.54,-337.3 569.91,-299.49"/>
<text text-anchor="middle" x="583.75" y="-407.45" font-family="Times New Roman,serif" font-size="14.00">1.0</text>
</g>
<!-- 153 -->
<g id="node10" class="node">
<title>153</title>
<polygon fill="none" stroke="black" points="768.47,-193.5 724.3,-211.5 635.95,-211.5 591.78,-193.5 635.95,-175.5 724.3,-175.5 768.47,-193.5"/>
<text text-anchor="middle" x="680.12" y="-188.07" font-family="Times New Roman,serif" font-size="14.00">Pot base finishing</text>
</g>
<!-- AS12946S20&#45;&#45;153 -->
<g id="edge9" class="edge">
<title>AS12946S20&#45;&#45;153</title>
<path fill="none" stroke="black" d="M592.55,-526.24C634.02,-482.8 735.12,-376.88 735.12,-376.88 735.12,-376.88 699.51,-258.14 685.6,-211.75"/>
<text text-anchor="middle" x="743.75" y="-363.57" font-family="Times New Roman,serif" font-size="14.00">1.0</text>
</g>
<!-- 154 -->
<g id="node11" class="node">
<title>154</title>
<polygon fill="none" stroke="black" points="919.54,-105.75 871.33,-123.75 774.92,-123.75 726.71,-105.75 774.92,-87.75 871.33,-87.75 919.54,-105.75"/>
<text text-anchor="middle" x="823.12" y="-100.33" font-family="Times New Roman,serif" font-size="14.00">Pot handles riveting</text>
</g>
<!-- AS12946S20&#45;&#45;154 -->
<g id="edge10" class="edge">
<title>AS12946S20&#45;&#45;154</title>
<path fill="none" stroke="black" d="M596.7,-526.1C657.04,-474.64 823.12,-333 823.12,-333 823.12,-333 823.12,-177.89 823.12,-123.96"/>
<text text-anchor="middle" x="831.75" y="-319.7" font-family="Times New Roman,serif" font-size="14.00">1.0</text>
</g>
<!-- 151 -->
<g id="node12" class="node">
<title>151</title>
<polygon fill="none" stroke="black" points="497.83,-369 440.98,-387 327.27,-387 270.42,-369 327.27,-351 440.98,-351 497.83,-369"/>
<text text-anchor="middle" x="384.12" y="-363.57" font-family="Times New Roman,serif" font-size="14.00">Initial pot base pressing</text>
</g>
<!-- AS12946S20&#45;&#45;151 -->
<g id="edge11" class="edge">
<title>AS12946S20&#45;&#45;151</title>
<path fill="none" stroke="black" d="M558.79,-526.38C537.54,-502.81 503.12,-464.62 503.12,-464.62 503.12,-464.62 441.65,-415.22 407.07,-387.44"/>
<text text-anchor="middle" x="511.75" y="-451.32" font-family="Times New Roman,serif" font-size="14.00">1.0</text>
</g>
<!-- 150 -->
<g id="node13" class="node">
<title>150</title>
<polygon fill="none" stroke="black" points="430.7,-456.75 398.91,-474.75 335.34,-474.75 303.55,-456.75 335.34,-438.75 398.91,-438.75 430.7,-456.75"/>
<text text-anchor="middle" x="367.12" y="-451.32" font-family="Times New Roman,serif" font-size="14.00">Disc cutting</text>
</g>
<!-- AS12946S20&#45;&#45;150 -->
<g id="edge15" class="edge">
<title>AS12946S20&#45;&#45;150</title>
<path fill="none" stroke="black" d="M532.78,-526.04C494.65,-510.32 439.22,-487.47 403.17,-472.61"/>
<text text-anchor="middle" x="465.75" y="-495.2" font-family="Times New Roman,serif" font-size="14.00">1.0</text>
</g>
<!-- 152&#45;&#45;IP12945A32 -->
<g id="edge7" class="edge">
<title>152&#45;&#45;IP12945A32</title>
<path fill="none" stroke="black" d="M550.31,-262.9C534.17,-248.02 511.04,-226.7 494.92,-211.83"/>
<text text-anchor="middle" x="538.75" y="-231.95" font-family="Times New Roman,serif" font-size="14.00">1.0</text>
</g>
<!-- 152&#45;&#45;PN94561L67 -->
<g id="edge8" class="edge">
<title>152&#45;&#45;PN94561L67</title>
<path fill="none" stroke="black" d="M507.86,-264.52C446.19,-248.69 351.82,-224.46 291.82,-209.06"/>
<text text-anchor="middle" x="439.75" y="-231.95" font-family="Times New Roman,serif" font-size="14.00">5.0</text>
</g>
<!-- 152&#45;&#45;153 -->
<g id="edge2" class="edge">
<title>152&#45;&#45;153</title>
<path fill="none" stroke="black" d="M591.59,-262.9C610.85,-248.02 638.45,-226.7 657.7,-211.83"/>
<text text-anchor="middle" x="642.75" y="-231.95" font-family="Times New Roman,serif" font-size="14.00">1.0</text>
</g>
<!-- 153&#45;&#45;IP12945A33 -->
<g id="edge6" class="edge">
<title>153&#45;&#45;IP12945A33</title>
<path fill="none" stroke="black" d="M666.16,-175.15C654.19,-160.27 637.03,-138.95 625.07,-124.08"/>
<text text-anchor="middle" x="659.75" y="-144.2" font-family="Times New Roman,serif" font-size="14.00">1.0</text>
</g>
<!-- 153&#45;&#45;154 -->
<g id="edge3" class="edge">
<title>153&#45;&#45;154</title>
<path fill="none" stroke="black" d="M709.06,-175.15C733.87,-160.27 769.43,-138.95 794.23,-124.08"/>
<text text-anchor="middle" x="772.75" y="-144.2" font-family="Times New Roman,serif" font-size="14.00">1.0</text>
</g>
<!-- 154&#45;&#45;PN18544C21 -->
<g id="edge4" class="edge">
<title>154&#45;&#45;PN18544C21</title>
<path fill="none" stroke="black" d="M802.69,-87.4C785.16,-72.52 760.05,-51.2 742.53,-36.33"/>
<text text-anchor="middle" x="789.75" y="-56.45" font-family="Times New Roman,serif" font-size="14.00">2.0</text>
</g>
<!-- 154&#45;&#45;IP12945A34 -->
<g id="edge5" class="edge">
<title>154&#45;&#45;IP12945A34</title>
<path fill="none" stroke="black" d="M843.56,-87.4C861.09,-72.52 886.2,-51.2 903.72,-36.33"/>
<text text-anchor="middle" x="890.75" y="-56.45" font-family="Times New Roman,serif" font-size="14.00">1.0</text>
</g>
<!-- 151&#45;&#45;IP12945A01 -->
<g id="edge13" class="edge">
<title>151&#45;&#45;IP12945A01</title>
<path fill="none" stroke="black" d="M371.38,-350.65C360.45,-335.77 344.78,-314.45 333.86,-299.58"/>
<text text-anchor="middle" x="352.75" y="-319.7" font-family="Times New Roman,serif" font-size="14.00">1.0</text>
</g>
<!-- 151&#45;&#45;PN94561L67 -->
<g id="edge14" class="edge">
<title>151&#45;&#45;PN94561L67</title>
<path fill="none" stroke="black" d="M345.61,-350.56C287.57,-322.78 184.38,-273.38 184.38,-273.38 184.38,-273.38 208.64,-235.19 223.61,-211.62"/>
<text text-anchor="middle" x="175.75" y="-275.82" font-family="Times New Roman,serif" font-size="14.00">5.0</text>
</g>
<!-- 151&#45;&#45;152 -->
<g id="edge12" class="edge">
<title>151&#45;&#45;152</title>
<path fill="none" stroke="black" d="M421.56,-350.65C453.55,-335.82 499.36,-314.59 531.43,-299.72"/>
<text text-anchor="middle" x="501.75" y="-319.7" font-family="Times New Roman,serif" font-size="14.00">1.0</text>
</g>
<!-- 150&#45;&#45;PN52384R50 -->
<g id="edge17" class="edge">
<title>150&#45;&#45;PN52384R50</title>
<path fill="none" stroke="black" d="M328.06,-442.35C284.94,-427.56 215.37,-403.7 168.02,-387.46"/>
<text text-anchor="middle" x="272.75" y="-407.45" font-family="Times New Roman,serif" font-size="14.00">1.0</text>
</g>
<!-- 150&#45;&#45;151 -->
<g id="edge16" class="edge">
<title>150&#45;&#45;151</title>
<path fill="none" stroke="black" d="M370.57,-438.4C373.51,-423.52 377.74,-402.2 380.69,-387.33"/>
<text text-anchor="middle" x="385.75" y="-407.45" font-family="Times New Roman,serif" font-size="14.00">1.0</text>
</g>
</g>
</svg>
