<?xml version="1.0" encoding="UTF-8" standalone="no"?>
<!DOCTYPE svg PUBLIC "-//W3C//DTD SVG 1.1//EN"
 "http://www.w3.org/Graphics/SVG/1.1/DTD/svg11.dtd">
<!-- Generated by graphviz version 10.0.1 (20240210.2158)
 -->
<!-- Title: G Pages: 1 -->
<svg width="526pt" height="614pt"
 viewBox="0.00 0.00 526.38 614.00" xmlns="http://www.w3.org/2000/svg" xmlns:xlink="http://www.w3.org/1999/xlink">
<g id="graph0" class="graph" transform="scale(1 1) rotate(0) translate(4 610)">
<title>G</title>
<polygon fill="white" stroke="none" points="-4,4 -4,-610 522.38,-610 522.38,4 -4,4"/>
<!-- M1 -->
<g id="node1" class="node">
<title>M1</title>
<polygon fill="none" stroke="black" points="284.75,-606 50.5,-606 50.5,-570 284.75,-570 284.75,-606"/>
<text text-anchor="middle" x="167.62" y="-582.58" font-family="Times New Roman,serif" font-size="14.00">Chair Leg (Oak 18&quot; length 2&quot; diameter)</text>
</g>
<!-- O3 -->
<g id="node2" class="node">
<title>O3</title>
<polygon fill="none" stroke="black" points="246.1,-515 220.36,-533 168.89,-533 143.15,-515 168.89,-497 220.36,-497 246.1,-515"/>
<text text-anchor="middle" x="194.62" y="-509.57" font-family="Times New Roman,serif" font-size="14.00">Cut Legs</text>
</g>
<!-- M1&#45;&gt;O3 -->
<g id="edge1" class="edge">
<title>M1&#45;&gt;O3</title>
<path fill="none" stroke="black" d="M174.16,-569.81C177.15,-561.96 180.76,-552.47 184.11,-543.66"/>
<polygon fill="black" stroke="black" points="187.33,-545.03 187.61,-534.44 180.79,-542.55 187.33,-545.03"/>
</g>
<!-- M2 -->
<g id="node3" class="node">
<title>M2</title>
<polygon fill="none" stroke="black" points="373.38,-445.25 151.88,-445.25 151.88,-409.25 373.38,-409.25 373.38,-445.25"/>
<text text-anchor="middle" x="262.62" y="-421.82" font-family="Times New Roman,serif" font-size="14.00">Seat Base (Oak 18&quot; x 18&quot; x 1&quot; thick)</text>
</g>
<!-- O3&#45;&gt;M2 -->
<g id="edge2" class="edge">
<title>O3&#45;&gt;M2</title>
<path fill="none" stroke="black" d="M208.39,-496.65C217.97,-484.56 230.93,-468.22 241.78,-454.54"/>
<polygon fill="black" stroke="black" points="244.47,-456.77 247.94,-446.76 238.99,-452.42 244.47,-456.77"/>
<text text-anchor="middle" x="247.62" y="-465.7" font-family="Times New Roman,serif" font-size="14.00">Q: 8</text>
</g>
<!-- O4 -->
<g id="node4" class="node">
<title>O4</title>
<polygon fill="none" stroke="black" points="335.42,-354.25 299.02,-372.25 226.23,-372.25 189.83,-354.25 226.23,-336.25 299.02,-336.25 335.42,-354.25"/>
<text text-anchor="middle" x="262.62" y="-348.82" font-family="Times New Roman,serif" font-size="14.00">Cut Seat Base</text>
</g>
<!-- M2&#45;&gt;O4 -->
<g id="edge3" class="edge">
<title>M2&#45;&gt;O4</title>
<path fill="none" stroke="black" d="M250.87,-409.06C249.26,-401.39 248.77,-392.14 249.38,-383.49"/>
<polygon fill="black" stroke="black" points="252.82,-384.16 250.7,-373.78 245.88,-383.22 252.82,-384.16"/>
</g>
<!-- M2&#45;&gt;O4 -->
<g id="edge10" class="edge">
<title>M2&#45;&gt;O4</title>
<path fill="none" stroke="black" d="M262.62,-409.06C262.62,-401.48 262.62,-392.35 262.62,-383.79"/>
<polygon fill="black" stroke="black" points="266.13,-383.79 262.63,-373.79 259.13,-383.79 266.13,-383.79"/>
</g>
<!-- M2&#45;&gt;O4 -->
<g id="edge19" class="edge">
<title>M2&#45;&gt;O4</title>
<path fill="none" stroke="black" d="M274.38,-409.06C275.99,-401.39 276.48,-392.14 275.87,-383.49"/>
<polygon fill="black" stroke="black" points="279.37,-383.22 274.55,-373.78 272.43,-384.16 279.37,-383.22"/>
</g>
<!-- M4 -->
<g id="node5" class="node">
<title>M4</title>
<polygon fill="none" stroke="black" points="255.25,-284.5 0,-284.5 0,-248.5 255.25,-248.5 255.25,-284.5"/>
<text text-anchor="middle" x="127.62" y="-261.07" font-family="Times New Roman,serif" font-size="14.00">Support Bar (Oak 14&quot; length 1&quot; x 1&quot; thick)</text>
</g>
<!-- O4&#45;&gt;M4 -->
<g id="edge4" class="edge">
<title>O4&#45;&gt;M4</title>
<path fill="none" stroke="black" d="M235.31,-335.9C214.9,-322.94 186.8,-305.09 164.42,-290.87"/>
<polygon fill="black" stroke="black" points="166.5,-288.05 156.18,-285.64 162.75,-293.95 166.5,-288.05"/>
<text text-anchor="middle" x="154.62" y="-304.95" font-family="Times New Roman,serif" font-size="14.00">Q: 4</text>
</g>
<!-- O4&#45;&gt;M4 -->
<g id="edge11" class="edge">
<title>O4&#45;&gt;M4</title>
<path fill="none" stroke="black" d="M235.31,-335.9C214.9,-322.94 186.8,-305.09 164.42,-290.87"/>
<polygon fill="black" stroke="black" points="166.5,-288.05 156.18,-285.64 162.75,-293.95 166.5,-288.05"/>
<text text-anchor="middle" x="207.62" y="-304.95" font-family="Times New Roman,serif" font-size="14.00">Q: 4</text>
</g>
<!-- O4&#45;&gt;M4 -->
<g id="edge20" class="edge">
<title>O4&#45;&gt;M4</title>
<path fill="none" stroke="black" d="M235.31,-335.9C214.9,-322.94 186.8,-305.09 164.42,-290.87"/>
<polygon fill="black" stroke="black" points="166.5,-288.05 156.18,-285.64 162.75,-293.95 166.5,-288.05"/>
<text text-anchor="middle" x="244.62" y="-304.95" font-family="Times New Roman,serif" font-size="14.00">Q: 4</text>
</g>
<!-- M5 -->
<g id="node7" class="node">
<title>M5</title>
<polygon fill="none" stroke="black" points="380.38,-109 98.88,-109 98.88,-73 380.38,-73 380.38,-109"/>
<text text-anchor="middle" x="239.62" y="-85.58" font-family="Times New Roman,serif" font-size="14.00">Frame Tube (Aluminum 1&quot; diameter 20&quot; length)</text>
</g>
<!-- O4&#45;&gt;M5 -->
<g id="edge8" class="edge">
<title>O4&#45;&gt;M5</title>
<path fill="none" stroke="black" d="M264.99,-335.99C269.44,-301.57 278.62,-230.5 278.62,-230.5 278.62,-230.5 259.22,-161.07 247.78,-120.18"/>
<polygon fill="black" stroke="black" points="251.19,-119.38 245.13,-110.69 244.45,-121.27 251.19,-119.38"/>
<text text-anchor="middle" x="290.62" y="-217.2" font-family="Times New Roman,serif" font-size="14.00">Q: 1</text>
</g>
<!-- O4&#45;&gt;M5 -->
<g id="edge15" class="edge">
<title>O4&#45;&gt;M5</title>
<path fill="none" stroke="black" d="M271.92,-335.99C289.45,-301.57 325.62,-230.5 325.62,-230.5 325.62,-230.5 281.9,-159.58 256.81,-118.87"/>
<polygon fill="black" stroke="black" points="259.89,-117.2 251.66,-110.53 253.93,-120.87 259.89,-117.2"/>
<text text-anchor="middle" x="337.62" y="-217.2" font-family="Times New Roman,serif" font-size="14.00">Q: 1</text>
</g>
<!-- O4&#45;&gt;M5 -->
<g id="edge24" class="edge">
<title>O4&#45;&gt;M5</title>
<path fill="none" stroke="black" d="M278.86,-335.99C309.45,-301.57 372.62,-230.5 372.62,-230.5 372.62,-230.5 303.28,-157.77 264.73,-117.34"/>
<polygon fill="black" stroke="black" points="267.49,-115.16 258.06,-110.33 262.42,-119.99 267.49,-115.16"/>
<text text-anchor="middle" x="384.62" y="-217.2" font-family="Times New Roman,serif" font-size="14.00">Q: 1</text>
</g>
<!-- O6 -->
<g id="node6" class="node">
<title>O6</title>
<polygon fill="none" stroke="black" points="215.97,-178.75 171.8,-196.75 83.45,-196.75 39.28,-178.75 83.45,-160.75 171.8,-160.75 215.97,-178.75"/>
<text text-anchor="middle" x="127.62" y="-173.32" font-family="Times New Roman,serif" font-size="14.00">Cut Support Bars</text>
</g>
<!-- M4&#45;&gt;O6 -->
<g id="edge5" class="edge">
<title>M4&#45;&gt;O6</title>
<path fill="none" stroke="black" d="M110.98,-248.15C107.26,-236.64 106.42,-221.28 108.46,-208.03"/>
<polygon fill="black" stroke="black" points="111.8,-209.08 110.65,-198.55 104.98,-207.51 111.8,-209.08"/>
</g>
<!-- M4&#45;&gt;O6 -->
<g id="edge12" class="edge">
<title>M4&#45;&gt;O6</title>
<path fill="none" stroke="black" d="M122.08,-248.15C120.85,-236.76 120.56,-221.59 121.22,-208.43"/>
<polygon fill="black" stroke="black" points="124.7,-208.82 121.96,-198.59 117.72,-208.29 124.7,-208.82"/>
</g>
<!-- M4&#45;&gt;O6 -->
<g id="edge21" class="edge">
<title>M4&#45;&gt;O6</title>
<path fill="none" stroke="black" d="M133.17,-248.15C134.4,-236.76 134.69,-221.59 134.03,-208.43"/>
<polygon fill="black" stroke="black" points="137.53,-208.29 133.29,-198.59 130.55,-208.82 137.53,-208.29"/>
</g>
<!-- M4&#45;&gt;O6 -->
<g id="edge26" class="edge">
<title>M4&#45;&gt;O6</title>
<path fill="none" stroke="black" d="M144.27,-248.15C147.99,-236.64 148.83,-221.28 146.79,-208.03"/>
<polygon fill="black" stroke="black" points="150.27,-207.51 144.6,-198.55 143.45,-209.08 150.27,-207.51"/>
</g>
<!-- O6&#45;&gt;M5 -->
<g id="edge6" class="edge">
<title>O6&#45;&gt;M5</title>
<path fill="none" stroke="black" d="M150.29,-160.4C166.91,-147.67 189.7,-130.23 208.1,-116.14"/>
<polygon fill="black" stroke="black" points="209.98,-119.11 215.79,-110.25 205.72,-113.55 209.98,-119.11"/>
<text text-anchor="middle" x="111.62" y="-129.45" font-family="Times New Roman,serif" font-size="14.00">Q: 1</text>
</g>
<!-- O6&#45;&gt;M5 -->
<g id="edge13" class="edge">
<title>O6&#45;&gt;M5</title>
<path fill="none" stroke="black" d="M150.29,-160.4C166.91,-147.67 189.7,-130.23 208.1,-116.14"/>
<polygon fill="black" stroke="black" points="209.98,-119.11 215.79,-110.25 205.72,-113.55 209.98,-119.11"/>
<text text-anchor="middle" x="158.62" y="-129.45" font-family="Times New Roman,serif" font-size="14.00">Q: 1</text>
</g>
<!-- O6&#45;&gt;M5 -->
<g id="edge22" class="edge">
<title>O6&#45;&gt;M5</title>
<path fill="none" stroke="black" d="M150.29,-160.4C166.91,-147.67 189.7,-130.23 208.1,-116.14"/>
<polygon fill="black" stroke="black" points="209.98,-119.11 215.79,-110.25 205.72,-113.55 209.98,-119.11"/>
<text text-anchor="middle" x="205.62" y="-129.45" font-family="Times New Roman,serif" font-size="14.00">Q: 1</text>
</g>
<!-- O6&#45;&gt;M5 -->
<g id="edge27" class="edge">
<title>O6&#45;&gt;M5</title>
<path fill="none" stroke="black" d="M150.29,-160.4C166.91,-147.67 189.7,-130.23 208.1,-116.14"/>
<polygon fill="black" stroke="black" points="209.98,-119.11 215.79,-110.25 205.72,-113.55 209.98,-119.11"/>
<text text-anchor="middle" x="236.62" y="-129.45" font-family="Times New Roman,serif" font-size="14.00">Q: 1</text>
</g>
<!-- O10 -->
<g id="node8" class="node">
<title>O10</title>
<polygon fill="none" stroke="black" points="303.77,-18 271.7,-36 207.55,-36 175.48,-18 207.55,0 271.7,0 303.77,-18"/>
<text text-anchor="middle" x="239.62" y="-12.57" font-family="Times New Roman,serif" font-size="14.00">Attach Legs</text>
</g>
<!-- M5&#45;&gt;O10 -->
<g id="edge7" class="edge">
<title>M5&#45;&gt;O10</title>
<path fill="none" stroke="black" d="M198.48,-72.81C191.71,-63.58 190.57,-52.07 195.05,-42.07"/>
<polygon fill="black" stroke="black" points="197.83,-44.2 200.55,-33.96 192.04,-40.27 197.83,-44.2"/>
</g>
<!-- M5&#45;&gt;O10 -->
<g id="edge9" class="edge">
<title>M5&#45;&gt;O10</title>
<path fill="none" stroke="black" d="M210.23,-72.81C206.13,-64.96 204.92,-55.47 206.62,-46.66"/>
<polygon fill="black" stroke="black" points="209.84,-48.05 209.82,-37.46 203.23,-45.75 209.84,-48.05"/>
</g>
<!-- M5&#45;&gt;O10 -->
<g id="edge14" class="edge">
<title>M5&#45;&gt;O10</title>
<path fill="none" stroke="black" d="M221.99,-72.81C219.58,-65.14 218.84,-55.89 219.76,-47.24"/>
<polygon fill="black" stroke="black" points="223.17,-48.01 221.74,-37.51 216.31,-46.61 223.17,-48.01"/>
</g>
<!-- M5&#45;&gt;O10 -->
<g id="edge16" class="edge">
<title>M5&#45;&gt;O10</title>
<path fill="none" stroke="black" d="M233.75,-72.81C232.94,-65.14 232.7,-55.89 233,-47.24"/>
<polygon fill="black" stroke="black" points="236.48,-47.75 233.66,-37.54 229.49,-47.28 236.48,-47.75"/>
</g>
<!-- M5&#45;&gt;O10 -->
<g id="edge23" class="edge">
<title>M5&#45;&gt;O10</title>
<path fill="none" stroke="black" d="M245.5,-72.81C246.31,-65.14 246.55,-55.89 246.25,-47.24"/>
<polygon fill="black" stroke="black" points="249.76,-47.28 245.59,-37.54 242.77,-47.75 249.76,-47.28"/>
</g>
<!-- M5&#45;&gt;O10 -->
<g id="edge25" class="edge">
<title>M5&#45;&gt;O10</title>
<path fill="none" stroke="black" d="M257.26,-72.81C259.67,-65.14 260.41,-55.89 259.49,-47.24"/>
<polygon fill="black" stroke="black" points="262.94,-46.61 257.51,-37.51 256.08,-48.01 262.94,-46.61"/>
</g>
<!-- M5&#45;&gt;O10 -->
<g id="edge28" class="edge">
<title>M5&#45;&gt;O10</title>
<path fill="none" stroke="black" d="M269.02,-72.81C273.12,-64.96 274.33,-55.47 272.63,-46.66"/>
<polygon fill="black" stroke="black" points="276.02,-45.75 269.43,-37.46 269.41,-48.05 276.02,-45.75"/>
</g>
<!-- M5&#45;&gt;O10 -->
<g id="edge29" class="edge">
<title>M5&#45;&gt;O10</title>
<path fill="none" stroke="black" d="M280.77,-72.81C287.54,-63.58 288.68,-52.07 284.2,-42.07"/>
<polygon fill="black" stroke="black" points="287.21,-40.27 278.7,-33.96 281.42,-44.2 287.21,-40.27"/>
</g>
<!-- M3 -->
<g id="node9" class="node">
<title>M3</title>
<polygon fill="none" stroke="black" points="518.38,-606 302.88,-606 302.88,-570 518.38,-570 518.38,-606"/>
<text text-anchor="middle" x="410.62" y="-582.58" font-family="Times New Roman,serif" font-size="14.00">Backrest (Oak 18&quot; x 12&quot; x 1&quot; thick)</text>
</g>
<!-- O5 -->
<g id="node10" class="node">
<title>O5</title>
<polygon fill="none" stroke="black" points="452.81,-515 418.72,-533 350.53,-533 316.44,-515 350.53,-497 418.72,-497 452.81,-515"/>
<text text-anchor="middle" x="384.62" y="-509.57" font-family="Times New Roman,serif" font-size="14.00">Cut Backrest</text>
</g>
<!-- M3&#45;&gt;O5 -->
<g id="edge17" class="edge">
<title>M3&#45;&gt;O5</title>
<path fill="none" stroke="black" d="M404.33,-569.81C401.46,-561.96 397.98,-552.47 394.75,-543.66"/>
<polygon fill="black" stroke="black" points="398.11,-542.64 391.38,-534.45 391.53,-545.04 398.11,-542.64"/>
</g>
<!-- O5&#45;&gt;M2 -->
<g id="edge18" class="edge">
<title>O5&#45;&gt;M2</title>
<path fill="none" stroke="black" d="M359.94,-496.65C341.75,-483.86 316.78,-466.32 296.7,-452.2"/>
<polygon fill="black" stroke="black" points="298.71,-449.33 288.52,-446.45 294.68,-455.06 298.71,-449.33"/>
<text text-anchor="middle" x="346.62" y="-465.7" font-family="Times New Roman,serif" font-size="14.00">Q: 4</text>
</g>
</g>
</svg>
