<?xml version="1.0" encoding="UTF-8" standalone="no"?>
<!DOCTYPE svg PUBLIC "-//W3C//DTD SVG 1.1//EN"
 "http://www.w3.org/Graphics/SVG/1.1/DTD/svg11.dtd">
<!-- Generated by graphviz version 10.0.1 (20240210.2158)
 -->
<!-- Title: G Pages: 1 -->
<svg width="487pt" height="614pt"
 viewBox="0.00 0.00 486.75 614.00" xmlns="http://www.w3.org/2000/svg" xmlns:xlink="http://www.w3.org/1999/xlink">
<g id="graph0" class="graph" transform="scale(1 1) rotate(0) translate(4 610)">
<title>G</title>
<polygon fill="white" stroke="none" points="-4,4 -4,-610 482.75,-610 482.75,4 -4,4"/>
<!-- M1 -->
<g id="node1" class="node">
<title>M1</title>
<polygon fill="none" stroke="black" points="234.25,-606 0,-606 0,-570 234.25,-570 234.25,-606"/>
<text text-anchor="middle" x="117.12" y="-582.58" font-family="Times New Roman,serif" font-size="14.00">Chair Leg (Oak 18&quot; length 2&quot; diameter)</text>
</g>
<!-- O3 -->
<g id="node2" class="node">
<title>O3</title>
<polygon fill="none" stroke="black" points="195.6,-515 169.86,-533 118.39,-533 92.65,-515 118.39,-497 169.86,-497 195.6,-515"/>
<text text-anchor="middle" x="144.12" y="-509.57" font-family="Times New Roman,serif" font-size="14.00">Cut Legs</text>
</g>
<!-- M1&#45;&gt;O3 -->
<g id="edge1" class="edge">
<title>M1&#45;&gt;O3</title>
<path fill="none" stroke="black" d="M123.66,-569.81C126.65,-561.96 130.26,-552.47 133.61,-543.66"/>
<polygon fill="black" stroke="black" points="136.83,-545.03 137.11,-534.44 130.29,-542.55 136.83,-545.03"/>
</g>
<!-- M2 -->
<g id="node3" class="node">
<title>M2</title>
<polygon fill="none" stroke="black" points="323.88,-445.25 102.38,-445.25 102.38,-409.25 323.88,-409.25 323.88,-445.25"/>
<text text-anchor="middle" x="213.12" y="-421.82" font-family="Times New Roman,serif" font-size="14.00">Seat Base (Oak 18&quot; x 18&quot; x 1&quot; thick)</text>
</g>
<!-- O3&#45;&gt;M2 -->
<g id="edge2" class="edge">
<title>O3&#45;&gt;M2</title>
<path fill="none" stroke="black" d="M158.09,-496.65C167.81,-484.56 180.97,-468.22 191.97,-454.54"/>
<polygon fill="black" stroke="black" points="194.69,-456.74 198.23,-446.76 189.24,-452.35 194.69,-456.74"/>
<text text-anchor="middle" x="202.38" y="-465.7" font-family="Times New Roman,serif" font-size="14.00">Q: 8.0</text>
</g>
<!-- O4 -->
<g id="node4" class="node">
<title>O4</title>
<polygon fill="none" stroke="black" points="285.92,-354.25 249.52,-372.25 176.73,-372.25 140.33,-354.25 176.73,-336.25 249.52,-336.25 285.92,-354.25"/>
<text text-anchor="middle" x="213.12" y="-348.82" font-family="Times New Roman,serif" font-size="14.00">Cut Seat Base</text>
</g>
<!-- M2&#45;&gt;O4 -->
<g id="edge3" class="edge">
<title>M2&#45;&gt;O4</title>
<path fill="none" stroke="black" d="M201.37,-409.06C199.76,-401.39 199.27,-392.14 199.88,-383.49"/>
<polygon fill="black" stroke="black" points="203.32,-384.16 201.2,-373.78 196.38,-383.22 203.32,-384.16"/>
</g>
<!-- M2&#45;&gt;O4 -->
<g id="edge10" class="edge">
<title>M2&#45;&gt;O4</title>
<path fill="none" stroke="black" d="M213.12,-409.06C213.12,-401.48 213.12,-392.35 213.12,-383.79"/>
<polygon fill="black" stroke="black" points="216.63,-383.79 213.13,-373.79 209.63,-383.79 216.63,-383.79"/>
</g>
<!-- M2&#45;&gt;O4 -->
<g id="edge19" class="edge">
<title>M2&#45;&gt;O4</title>
<path fill="none" stroke="black" d="M224.88,-409.06C226.49,-401.39 226.98,-392.14 226.37,-383.49"/>
<polygon fill="black" stroke="black" points="229.87,-383.22 225.05,-373.78 222.93,-384.16 229.87,-383.22"/>
</g>
<!-- M5 -->
<g id="node5" class="node">
<title>M5</title>
<polygon fill="none" stroke="black" points="372.88,-109 91.38,-109 91.38,-73 372.88,-73 372.88,-109"/>
<text text-anchor="middle" x="232.12" y="-85.58" font-family="Times New Roman,serif" font-size="14.00">Frame Tube (Aluminum 1&quot; diameter 20&quot; length)</text>
</g>
<!-- O4&#45;&gt;M5 -->
<g id="edge4" class="edge">
<title>O4&#45;&gt;M5</title>
<path fill="none" stroke="black" d="M200.64,-336.01C174.75,-298.2 117.62,-214.75 117.62,-214.75 117.62,-214.75 173.98,-153.84 207.62,-117.49"/>
<polygon fill="black" stroke="black" points="209.98,-120.09 214.2,-110.37 204.84,-115.33 209.98,-120.09"/>
<text text-anchor="middle" x="100.38" y="-217.2" font-family="Times New Roman,serif" font-size="14.00">Q: 1.0</text>
</g>
<!-- O4&#45;&gt;M5 -->
<g id="edge11" class="edge">
<title>O4&#45;&gt;M5</title>
<path fill="none" stroke="black" d="M208.22,-336.01C198.06,-298.2 175.62,-214.75 175.62,-214.75 175.62,-214.75 202.5,-155.88 219.18,-119.35"/>
<polygon fill="black" stroke="black" points="222.19,-121.19 223.16,-110.64 215.82,-118.28 222.19,-121.19"/>
<text text-anchor="middle" x="158.38" y="-217.2" font-family="Times New Roman,serif" font-size="14.00">Q: 1.0</text>
</g>
<!-- O4&#45;&gt;M5 -->
<g id="edge20" class="edge">
<title>O4&#45;&gt;M5</title>
<path fill="none" stroke="black" d="M215.81,-336.01C221.36,-298.2 233.62,-214.75 233.62,-214.75 233.62,-214.75 232.93,-157.39 232.49,-120.77"/>
<polygon fill="black" stroke="black" points="235.99,-120.73 232.36,-110.77 228.99,-120.81 235.99,-120.73"/>
<text text-anchor="middle" x="216.38" y="-217.2" font-family="Times New Roman,serif" font-size="14.00">Q: 1.0</text>
</g>
<!-- M4 -->
<g id="node7" class="node">
<title>M4</title>
<polygon fill="none" stroke="black" points="478.75,-284.5 223.5,-284.5 223.5,-248.5 478.75,-248.5 478.75,-284.5"/>
<text text-anchor="middle" x="351.12" y="-261.07" font-family="Times New Roman,serif" font-size="14.00">Support Bar (Oak 14&quot; length 1&quot; x 1&quot; thick)</text>
</g>
<!-- O4&#45;&gt;M4 -->
<g id="edge6" class="edge">
<title>O4&#45;&gt;M4</title>
<path fill="none" stroke="black" d="M241.05,-335.9C261.91,-322.94 290.64,-305.09 313.51,-290.87"/>
<polygon fill="black" stroke="black" points="315.31,-293.88 321.95,-285.63 311.61,-287.93 315.31,-293.88"/>
<text text-anchor="middle" x="252.38" y="-304.95" font-family="Times New Roman,serif" font-size="14.00">Q: 4.0</text>
</g>
<!-- O4&#45;&gt;M4 -->
<g id="edge13" class="edge">
<title>O4&#45;&gt;M4</title>
<path fill="none" stroke="black" d="M241.05,-335.9C261.91,-322.94 290.64,-305.09 313.51,-290.87"/>
<polygon fill="black" stroke="black" points="315.31,-293.88 321.95,-285.63 311.61,-287.93 315.31,-293.88"/>
<text text-anchor="middle" x="311.38" y="-304.95" font-family="Times New Roman,serif" font-size="14.00">Q: 4.0</text>
</g>
<!-- O4&#45;&gt;M4 -->
<g id="edge22" class="edge">
<title>O4&#45;&gt;M4</title>
<path fill="none" stroke="black" d="M241.05,-335.9C261.91,-322.94 290.64,-305.09 313.51,-290.87"/>
<polygon fill="black" stroke="black" points="315.31,-293.88 321.95,-285.63 311.61,-287.93 315.31,-293.88"/>
<text text-anchor="middle" x="352.38" y="-304.95" font-family="Times New Roman,serif" font-size="14.00">Q: 4.0</text>
</g>
<!-- O10 -->
<g id="node6" class="node">
<title>O10</title>
<polygon fill="none" stroke="black" points="296.27,-18 264.2,-36 200.05,-36 167.98,-18 200.05,0 264.2,0 296.27,-18"/>
<text text-anchor="middle" x="232.12" y="-12.57" font-family="Times New Roman,serif" font-size="14.00">Attach Legs</text>
</g>
<!-- M5&#45;&gt;O10 -->
<g id="edge5" class="edge">
<title>M5&#45;&gt;O10</title>
<path fill="none" stroke="black" d="M190.98,-72.81C184.21,-63.58 183.07,-52.07 187.55,-42.07"/>
<polygon fill="black" stroke="black" points="190.33,-44.2 193.05,-33.96 184.54,-40.27 190.33,-44.2"/>
</g>
<!-- M5&#45;&gt;O10 -->
<g id="edge9" class="edge">
<title>M5&#45;&gt;O10</title>
<path fill="none" stroke="black" d="M202.73,-72.81C198.63,-64.96 197.42,-55.47 199.12,-46.66"/>
<polygon fill="black" stroke="black" points="202.34,-48.05 202.32,-37.46 195.73,-45.75 202.34,-48.05"/>
</g>
<!-- M5&#45;&gt;O10 -->
<g id="edge12" class="edge">
<title>M5&#45;&gt;O10</title>
<path fill="none" stroke="black" d="M214.49,-72.81C212.08,-65.14 211.34,-55.89 212.26,-47.24"/>
<polygon fill="black" stroke="black" points="215.67,-48.01 214.24,-37.51 208.81,-46.61 215.67,-48.01"/>
</g>
<!-- M5&#45;&gt;O10 -->
<g id="edge16" class="edge">
<title>M5&#45;&gt;O10</title>
<path fill="none" stroke="black" d="M226.25,-72.81C225.44,-65.14 225.2,-55.89 225.5,-47.24"/>
<polygon fill="black" stroke="black" points="228.98,-47.75 226.16,-37.54 221.99,-47.28 228.98,-47.75"/>
</g>
<!-- M5&#45;&gt;O10 -->
<g id="edge21" class="edge">
<title>M5&#45;&gt;O10</title>
<path fill="none" stroke="black" d="M238,-72.81C238.81,-65.14 239.05,-55.89 238.75,-47.24"/>
<polygon fill="black" stroke="black" points="242.26,-47.28 238.09,-37.54 235.27,-47.75 242.26,-47.28"/>
</g>
<!-- M5&#45;&gt;O10 -->
<g id="edge25" class="edge">
<title>M5&#45;&gt;O10</title>
<path fill="none" stroke="black" d="M249.76,-72.81C252.17,-65.14 252.91,-55.89 251.99,-47.24"/>
<polygon fill="black" stroke="black" points="255.44,-46.61 250.01,-37.51 248.58,-48.01 255.44,-46.61"/>
</g>
<!-- M5&#45;&gt;O10 -->
<g id="edge28" class="edge">
<title>M5&#45;&gt;O10</title>
<path fill="none" stroke="black" d="M261.52,-72.81C265.62,-64.96 266.83,-55.47 265.13,-46.66"/>
<polygon fill="black" stroke="black" points="268.52,-45.75 261.93,-37.46 261.91,-48.05 268.52,-45.75"/>
</g>
<!-- M5&#45;&gt;O10 -->
<g id="edge29" class="edge">
<title>M5&#45;&gt;O10</title>
<path fill="none" stroke="black" d="M273.27,-72.81C280.04,-63.58 281.18,-52.07 276.7,-42.07"/>
<polygon fill="black" stroke="black" points="279.71,-40.27 271.2,-33.96 273.92,-44.2 279.71,-40.27"/>
</g>
<!-- O6 -->
<g id="node8" class="node">
<title>O6</title>
<polygon fill="none" stroke="black" points="439.47,-178.75 395.3,-196.75 306.95,-196.75 262.78,-178.75 306.95,-160.75 395.3,-160.75 439.47,-178.75"/>
<text text-anchor="middle" x="351.12" y="-173.32" font-family="Times New Roman,serif" font-size="14.00">Cut Support Bars</text>
</g>
<!-- M4&#45;&gt;O6 -->
<g id="edge7" class="edge">
<title>M4&#45;&gt;O6</title>
<path fill="none" stroke="black" d="M334.48,-248.15C330.76,-236.64 329.92,-221.28 331.96,-208.03"/>
<polygon fill="black" stroke="black" points="335.3,-209.08 334.15,-198.55 328.48,-207.51 335.3,-209.08"/>
</g>
<!-- M4&#45;&gt;O6 -->
<g id="edge14" class="edge">
<title>M4&#45;&gt;O6</title>
<path fill="none" stroke="black" d="M345.58,-248.15C344.35,-236.76 344.06,-221.59 344.72,-208.43"/>
<polygon fill="black" stroke="black" points="348.2,-208.82 345.46,-198.59 341.22,-208.29 348.2,-208.82"/>
</g>
<!-- M4&#45;&gt;O6 -->
<g id="edge23" class="edge">
<title>M4&#45;&gt;O6</title>
<path fill="none" stroke="black" d="M356.67,-248.15C357.9,-236.76 358.19,-221.59 357.53,-208.43"/>
<polygon fill="black" stroke="black" points="361.03,-208.29 356.79,-198.59 354.05,-208.82 361.03,-208.29"/>
</g>
<!-- M4&#45;&gt;O6 -->
<g id="edge26" class="edge">
<title>M4&#45;&gt;O6</title>
<path fill="none" stroke="black" d="M367.77,-248.15C371.49,-236.64 372.33,-221.28 370.29,-208.03"/>
<polygon fill="black" stroke="black" points="373.77,-207.51 368.1,-198.55 366.95,-209.08 373.77,-207.51"/>
</g>
<!-- O6&#45;&gt;M5 -->
<g id="edge8" class="edge">
<title>O6&#45;&gt;M5</title>
<path fill="none" stroke="black" d="M327.04,-160.4C309.3,-147.61 284.95,-130.07 265.36,-115.95"/>
<polygon fill="black" stroke="black" points="267.56,-113.22 257.4,-110.21 263.47,-118.9 267.56,-113.22"/>
<text text-anchor="middle" x="251.38" y="-129.45" font-family="Times New Roman,serif" font-size="14.00">Q: 1.0</text>
</g>
<!-- O6&#45;&gt;M5 -->
<g id="edge15" class="edge">
<title>O6&#45;&gt;M5</title>
<path fill="none" stroke="black" d="M327.04,-160.4C309.3,-147.61 284.95,-130.07 265.36,-115.95"/>
<polygon fill="black" stroke="black" points="267.56,-113.22 257.4,-110.21 263.47,-118.9 267.56,-113.22"/>
<text text-anchor="middle" x="309.38" y="-129.45" font-family="Times New Roman,serif" font-size="14.00">Q: 1.0</text>
</g>
<!-- O6&#45;&gt;M5 -->
<g id="edge24" class="edge">
<title>O6&#45;&gt;M5</title>
<path fill="none" stroke="black" d="M327.04,-160.4C309.3,-147.61 284.95,-130.07 265.36,-115.95"/>
<polygon fill="black" stroke="black" points="267.56,-113.22 257.4,-110.21 263.47,-118.9 267.56,-113.22"/>
<text text-anchor="middle" x="351.38" y="-129.45" font-family="Times New Roman,serif" font-size="14.00">Q: 1.0</text>
</g>
<!-- O6&#45;&gt;M5 -->
<g id="edge27" class="edge">
<title>O6&#45;&gt;M5</title>
<path fill="none" stroke="black" d="M327.04,-160.4C309.3,-147.61 284.95,-130.07 265.36,-115.95"/>
<polygon fill="black" stroke="black" points="267.56,-113.22 257.4,-110.21 263.47,-118.9 267.56,-113.22"/>
<text text-anchor="middle" x="390.38" y="-129.45" font-family="Times New Roman,serif" font-size="14.00">Q: 1.0</text>
</g>
<!-- M3 -->
<g id="node9" class="node">
<title>M3</title>
<polygon fill="none" stroke="black" points="467.88,-606 252.38,-606 252.38,-570 467.88,-570 467.88,-606"/>
<text text-anchor="middle" x="360.12" y="-582.58" font-family="Times New Roman,serif" font-size="14.00">Backrest (Oak 18&quot; x 12&quot; x 1&quot; thick)</text>
</g>
<!-- O5 -->
<g id="node10" class="node">
<title>O5</title>
<polygon fill="none" stroke="black" points="402.31,-515 368.22,-533 300.03,-533 265.94,-515 300.03,-497 368.22,-497 402.31,-515"/>
<text text-anchor="middle" x="334.12" y="-509.57" font-family="Times New Roman,serif" font-size="14.00">Cut Backrest</text>
</g>
<!-- M3&#45;&gt;O5 -->
<g id="edge17" class="edge">
<title>M3&#45;&gt;O5</title>
<path fill="none" stroke="black" d="M353.83,-569.81C350.96,-561.96 347.48,-552.47 344.25,-543.66"/>
<polygon fill="black" stroke="black" points="347.61,-542.64 340.88,-534.45 341.03,-545.04 347.61,-542.64"/>
</g>
<!-- O5&#45;&gt;M2 -->
<g id="edge18" class="edge">
<title>O5&#45;&gt;M2</title>
<path fill="none" stroke="black" d="M309.64,-496.65C291.6,-483.86 266.84,-466.32 246.92,-452.2"/>
<polygon fill="black" stroke="black" points="248.99,-449.38 238.81,-446.45 244.94,-455.09 248.99,-449.38"/>
<text text-anchor="middle" x="302.38" y="-465.7" font-family="Times New Roman,serif" font-size="14.00">Q: 4.0</text>
</g>
</g>
</svg>
