<?xml version="1.0" encoding="UTF-8" standalone="no"?>
<!DOCTYPE svg PUBLIC "-//W3C//DTD SVG 1.1//EN"
 "http://www.w3.org/Graphics/SVG/1.1/DTD/svg11.dtd">
<!-- Generated by graphviz version 10.0.1 (20240210.2158)
 -->
<!-- Title: G Pages: 1 -->
<svg width="1008pt" height="658pt"
 viewBox="0.00 0.00 1007.50 658.25" xmlns="http://www.w3.org/2000/svg" xmlns:xlink="http://www.w3.org/1999/xlink">
<g id="graph0" class="graph" transform="scale(1 1) rotate(0) translate(4 654.25)">
<title>G</title>
<polygon fill="white" stroke="none" points="-4,4 -4,-654.25 1003.5,-654.25 1003.5,4 -4,4"/>
<!-- 1001 -->
<g id="node1" class="node">
<title>1001</title>
<polygon fill="none" stroke="black" points="116.75,-387 3.25,-387 3.25,-351 116.75,-351 116.75,-387"/>
<text text-anchor="middle" x="60" y="-363.57" font-family="Times New Roman,serif" font-size="14.00">bench leg &#160;w/hole</text>
</g>
<!-- 14 -->
<g id="node2" class="node">
<title>14</title>
<polygon fill="none" stroke="black" points="169.22,-281.25 133.11,-299.25 60.89,-299.25 24.78,-281.25 60.89,-263.25 133.11,-263.25 169.22,-281.25"/>
<text text-anchor="middle" x="97" y="-275.82" font-family="Times New Roman,serif" font-size="14.00">drill bench leg</text>
</g>
<!-- 1001&#45;&gt;14 -->
<g id="edge1" class="edge">
<title>1001&#45;&gt;14</title>
<path fill="none" stroke="black" d="M67.49,-350.65C72.5,-339.02 79.22,-323.47 84.97,-310.13"/>
<polygon fill="black" stroke="black" points="88.18,-311.54 88.92,-300.97 81.75,-308.76 88.18,-311.54"/>
<text text-anchor="middle" x="79.25" y="-319.7" font-family="Times New Roman,serif" font-size="14.00">Q: 1.0</text>
</g>
<!-- 18 -->
<g id="node3" class="node">
<title>18</title>
<polygon fill="none" stroke="black" points="213.01,-193.5 172.01,-211.5 89.99,-211.5 48.99,-193.5 89.99,-175.5 172.01,-175.5 213.01,-193.5"/>
<text text-anchor="middle" x="131" y="-188.07" font-family="Times New Roman,serif" font-size="14.00">polish bench leg</text>
</g>
<!-- 14&#45;&gt;18 -->
<g id="edge2" class="edge">
<title>14&#45;&gt;18</title>
<path fill="none" stroke="black" d="M103.88,-262.9C108.49,-251.27 114.66,-235.72 119.95,-222.38"/>
<polygon fill="black" stroke="black" points="123.14,-223.82 123.57,-213.23 116.63,-221.24 123.14,-223.82"/>
<text text-anchor="middle" x="34.25" y="-231.95" font-family="Times New Roman,serif" font-size="14.00">Q: 1.0</text>
</g>
<!-- 14&#45;&gt;18 -->
<g id="edge8" class="edge">
<title>14&#45;&gt;18</title>
<path fill="none" stroke="black" d="M103.88,-262.9C108.49,-251.27 114.66,-235.72 119.95,-222.38"/>
<polygon fill="black" stroke="black" points="123.14,-223.82 123.57,-213.23 116.63,-221.24 123.14,-223.82"/>
<text text-anchor="middle" x="92.25" y="-231.95" font-family="Times New Roman,serif" font-size="14.00">Q: 1.0</text>
</g>
<!-- 14&#45;&gt;18 -->
<g id="edge28" class="edge">
<title>14&#45;&gt;18</title>
<path fill="none" stroke="black" d="M103.88,-262.9C108.49,-251.27 114.66,-235.72 119.95,-222.38"/>
<polygon fill="black" stroke="black" points="123.14,-223.82 123.57,-213.23 116.63,-221.24 123.14,-223.82"/>
<text text-anchor="middle" x="135.25" y="-231.95" font-family="Times New Roman,serif" font-size="14.00">Q: 1.0</text>
</g>
<!-- 14&#45;&gt;18 -->
<g id="edge48" class="edge">
<title>14&#45;&gt;18</title>
<path fill="none" stroke="black" d="M103.88,-262.9C108.49,-251.27 114.66,-235.72 119.95,-222.38"/>
<polygon fill="black" stroke="black" points="123.14,-223.82 123.57,-213.23 116.63,-221.24 123.14,-223.82"/>
<text text-anchor="middle" x="173.25" y="-231.95" font-family="Times New Roman,serif" font-size="14.00">Q: 1.0</text>
</g>
<!-- 12 -->
<g id="node4" class="node">
<title>12</title>
<polygon fill="none" stroke="black" points="224.33,-105.75 189.67,-123.75 120.33,-123.75 85.67,-105.75 120.33,-87.75 189.67,-87.75 224.33,-105.75"/>
<text text-anchor="middle" x="155" y="-100.33" font-family="Times New Roman,serif" font-size="14.00">cut bench leg</text>
</g>
<!-- 18&#45;&gt;12 -->
<g id="edge3" class="edge">
<title>18&#45;&gt;12</title>
<path fill="none" stroke="black" d="M135.86,-175.15C139.08,-163.64 143.38,-148.28 147.09,-135.03"/>
<polygon fill="black" stroke="black" points="150.42,-136.11 149.74,-125.53 143.68,-134.22 150.42,-136.11"/>
<text text-anchor="middle" x="34.25" y="-144.2" font-family="Times New Roman,serif" font-size="14.00">Q: 1.0</text>
</g>
<!-- 18&#45;&gt;12 -->
<g id="edge9" class="edge">
<title>18&#45;&gt;12</title>
<path fill="none" stroke="black" d="M135.86,-175.15C139.08,-163.64 143.38,-148.28 147.09,-135.03"/>
<polygon fill="black" stroke="black" points="150.42,-136.11 149.74,-125.53 143.68,-134.22 150.42,-136.11"/>
<text text-anchor="middle" x="92.25" y="-144.2" font-family="Times New Roman,serif" font-size="14.00">Q: 1.0</text>
</g>
<!-- 18&#45;&gt;12 -->
<g id="edge29" class="edge">
<title>18&#45;&gt;12</title>
<path fill="none" stroke="black" d="M135.86,-175.15C139.08,-163.64 143.38,-148.28 147.09,-135.03"/>
<polygon fill="black" stroke="black" points="150.42,-136.11 149.74,-125.53 143.68,-134.22 150.42,-136.11"/>
<text text-anchor="middle" x="150.25" y="-144.2" font-family="Times New Roman,serif" font-size="14.00">Q: 1.0</text>
</g>
<!-- 18&#45;&gt;12 -->
<g id="edge39" class="edge">
<title>18&#45;&gt;12</title>
<path fill="none" stroke="black" d="M135.86,-175.15C139.08,-163.64 143.38,-148.28 147.09,-135.03"/>
<polygon fill="black" stroke="black" points="150.42,-136.11 149.74,-125.53 143.68,-134.22 150.42,-136.11"/>
<text text-anchor="middle" x="184.25" y="-144.2" font-family="Times New Roman,serif" font-size="14.00">Q: 1.0</text>
</g>
<!-- 18&#45;&gt;12 -->
<g id="edge49" class="edge">
<title>18&#45;&gt;12</title>
<path fill="none" stroke="black" d="M135.86,-175.15C139.08,-163.64 143.38,-148.28 147.09,-135.03"/>
<polygon fill="black" stroke="black" points="150.42,-136.11 149.74,-125.53 143.68,-134.22 150.42,-136.11"/>
<text text-anchor="middle" x="222.25" y="-144.2" font-family="Times New Roman,serif" font-size="14.00">Q: 1.0</text>
</g>
<!-- 1016 -->
<g id="node5" class="node">
<title>1016</title>
<polygon fill="none" stroke="black" points="210.88,-36 107.12,-36 107.12,0 210.88,0 210.88,-36"/>
<text text-anchor="middle" x="159" y="-12.57" font-family="Times New Roman,serif" font-size="14.00">wood pole 4cm</text>
</g>
<!-- 12&#45;&gt;1016 -->
<g id="edge4" class="edge">
<title>12&#45;&gt;1016</title>
<path fill="none" stroke="black" d="M155.81,-87.4C156.34,-76.01 157.05,-60.84 157.66,-47.68"/>
<polygon fill="black" stroke="black" points="161.15,-47.99 158.12,-37.84 154.16,-47.66 161.15,-47.99"/>
<text text-anchor="middle" x="20.62" y="-56.45" font-family="Times New Roman,serif" font-size="14.00">Q: 0.28</text>
</g>
<!-- 12&#45;&gt;1016 -->
<g id="edge10" class="edge">
<title>12&#45;&gt;1016</title>
<path fill="none" stroke="black" d="M155.81,-87.4C156.34,-76.01 157.05,-60.84 157.66,-47.68"/>
<polygon fill="black" stroke="black" points="161.15,-47.99 158.12,-37.84 154.16,-47.66 161.15,-47.99"/>
<text text-anchor="middle" x="84.62" y="-56.45" font-family="Times New Roman,serif" font-size="14.00">Q: 0.28</text>
</g>
<!-- 12&#45;&gt;1016 -->
<g id="edge30" class="edge">
<title>12&#45;&gt;1016</title>
<path fill="none" stroke="black" d="M155.81,-87.4C156.34,-76.01 157.05,-60.84 157.66,-47.68"/>
<polygon fill="black" stroke="black" points="161.15,-47.99 158.12,-37.84 154.16,-47.66 161.15,-47.99"/>
<text text-anchor="middle" x="148.62" y="-56.45" font-family="Times New Roman,serif" font-size="14.00">Q: 0.28</text>
</g>
<!-- 12&#45;&gt;1016 -->
<g id="edge40" class="edge">
<title>12&#45;&gt;1016</title>
<path fill="none" stroke="black" d="M155.81,-87.4C156.34,-76.01 157.05,-60.84 157.66,-47.68"/>
<polygon fill="black" stroke="black" points="161.15,-47.99 158.12,-37.84 154.16,-47.66 161.15,-47.99"/>
<text text-anchor="middle" x="189.62" y="-56.45" font-family="Times New Roman,serif" font-size="14.00">Q: 0.28</text>
</g>
<!-- 12&#45;&gt;1016 -->
<g id="edge50" class="edge">
<title>12&#45;&gt;1016</title>
<path fill="none" stroke="black" d="M155.81,-87.4C156.34,-76.01 157.05,-60.84 157.66,-47.68"/>
<polygon fill="black" stroke="black" points="161.15,-47.99 158.12,-37.84 154.16,-47.66 161.15,-47.99"/>
<text text-anchor="middle" x="234.62" y="-56.45" font-family="Times New Roman,serif" font-size="14.00">Q: 0.28</text>
</g>
<!-- 12&#45;&gt;1016 -->
<g id="edge59" class="edge">
<title>12&#45;&gt;1016</title>
<path fill="none" stroke="black" d="M155.81,-87.4C156.34,-76.01 157.05,-60.84 157.66,-47.68"/>
<polygon fill="black" stroke="black" points="161.15,-47.99 158.12,-37.84 154.16,-47.66 161.15,-47.99"/>
<text text-anchor="middle" x="279.62" y="-56.45" font-family="Times New Roman,serif" font-size="14.00">Q: 0.28</text>
</g>
<!-- 1002 -->
<g id="node6" class="node">
<title>1002</title>
<polygon fill="none" stroke="black" points="355.12,-474.75 246.88,-474.75 246.88,-438.75 355.12,-438.75 355.12,-474.75"/>
<text text-anchor="middle" x="301" y="-451.32" font-family="Times New Roman,serif" font-size="14.00">bench leg w/bolt</text>
</g>
<!-- 16 -->
<g id="node7" class="node">
<title>16</title>
<polygon fill="none" stroke="black" points="379.55,-369 340.28,-387 261.72,-387 222.45,-369 261.72,-351 340.28,-351 379.55,-369"/>
<text text-anchor="middle" x="301" y="-363.57" font-family="Times New Roman,serif" font-size="14.00">fix bolt M16 22</text>
</g>
<!-- 1002&#45;&gt;16 -->
<g id="edge5" class="edge">
<title>1002&#45;&gt;16</title>
<path fill="none" stroke="black" d="M301,-438.4C301,-427.01 301,-411.84 301,-398.68"/>
<polygon fill="black" stroke="black" points="304.5,-398.84 301,-388.84 297.5,-398.84 304.5,-398.84"/>
<text text-anchor="middle" x="318.25" y="-407.45" font-family="Times New Roman,serif" font-size="14.00">Q: 1.0</text>
</g>
<!-- 16&#45;&gt;14 -->
<g id="edge7" class="edge">
<title>16&#45;&gt;14</title>
<path fill="none" stroke="black" d="M260.7,-351.06C227.76,-337.21 181.07,-317.59 145.98,-302.84"/>
<polygon fill="black" stroke="black" points="147.46,-299.67 136.89,-299.02 144.75,-306.12 147.46,-299.67"/>
<text text-anchor="middle" x="137.25" y="-319.7" font-family="Times New Roman,serif" font-size="14.00">Q: 1.0</text>
</g>
<!-- 16&#45;&gt;14 -->
<g id="edge27" class="edge">
<title>16&#45;&gt;14</title>
<path fill="none" stroke="black" d="M260.7,-351.06C227.76,-337.21 181.07,-317.59 145.98,-302.84"/>
<polygon fill="black" stroke="black" points="147.46,-299.67 136.89,-299.02 144.75,-306.12 147.46,-299.67"/>
<text text-anchor="middle" x="195.25" y="-319.7" font-family="Times New Roman,serif" font-size="14.00">Q: 1.0</text>
</g>
<!-- 16&#45;&gt;14 -->
<g id="edge47" class="edge">
<title>16&#45;&gt;14</title>
<path fill="none" stroke="black" d="M260.7,-351.06C227.76,-337.21 181.07,-317.59 145.98,-302.84"/>
<polygon fill="black" stroke="black" points="147.46,-299.67 136.89,-299.02 144.75,-306.12 147.46,-299.67"/>
<text text-anchor="middle" x="256.25" y="-319.7" font-family="Times New Roman,serif" font-size="14.00">Q: 1.0</text>
</g>
<!-- 1013 -->
<g id="node8" class="node">
<title>1013</title>
<polygon fill="none" stroke="black" points="441.25,-299.25 324.75,-299.25 324.75,-263.25 441.25,-263.25 441.25,-299.25"/>
<text text-anchor="middle" x="383" y="-275.82" font-family="Times New Roman,serif" font-size="14.00">threaded rod M16</text>
</g>
<!-- 16&#45;&gt;1013 -->
<g id="edge6" class="edge">
<title>16&#45;&gt;1013</title>
<path fill="none" stroke="black" d="M317.59,-350.65C329.38,-338.33 345.38,-321.59 358.61,-307.75"/>
<polygon fill="black" stroke="black" points="361,-310.32 365.38,-300.67 355.94,-305.48 361,-310.32"/>
<text text-anchor="middle" x="311.25" y="-319.7" font-family="Times New Roman,serif" font-size="14.00">Q: 1.0</text>
</g>
<!-- 16&#45;&gt;1013 -->
<g id="edge26" class="edge">
<title>16&#45;&gt;1013</title>
<path fill="none" stroke="black" d="M317.59,-350.65C329.38,-338.33 345.38,-321.59 358.61,-307.75"/>
<polygon fill="black" stroke="black" points="361,-310.32 365.38,-300.67 355.94,-305.48 361,-310.32"/>
<text text-anchor="middle" x="367.25" y="-319.7" font-family="Times New Roman,serif" font-size="14.00">Q: 1.0</text>
</g>
<!-- 16&#45;&gt;1013 -->
<g id="edge46" class="edge">
<title>16&#45;&gt;1013</title>
<path fill="none" stroke="black" d="M317.59,-350.65C329.38,-338.33 345.38,-321.59 358.61,-307.75"/>
<polygon fill="black" stroke="black" points="361,-310.32 365.38,-300.67 355.94,-305.48 361,-310.32"/>
<text text-anchor="middle" x="403.25" y="-319.7" font-family="Times New Roman,serif" font-size="14.00">Q: 1.0</text>
</g>
<!-- 1003 -->
<g id="node9" class="node">
<title>1003</title>
<polygon fill="none" stroke="black" points="526.88,-387 405.12,-387 405.12,-351 526.88,-351 526.88,-387"/>
<text text-anchor="middle" x="466" y="-363.57" font-family="Times New Roman,serif" font-size="14.00">bench seat w/holes</text>
</g>
<!-- 15 -->
<g id="node10" class="node">
<title>15</title>
<polygon fill="none" stroke="black" points="618.71,-281.25 578.85,-299.25 499.15,-299.25 459.29,-281.25 499.15,-263.25 578.85,-263.25 618.71,-281.25"/>
<text text-anchor="middle" x="539" y="-275.82" font-family="Times New Roman,serif" font-size="14.00">drill bench seat </text>
</g>
<!-- 1003&#45;&gt;15 -->
<g id="edge11" class="edge">
<title>1003&#45;&gt;15</title>
<path fill="none" stroke="black" d="M480.77,-350.65C491.16,-338.44 505.24,-321.9 516.96,-308.14"/>
<polygon fill="black" stroke="black" points="519.45,-310.61 523.27,-300.73 514.12,-306.08 519.45,-310.61"/>
<text text-anchor="middle" x="485.25" y="-319.7" font-family="Times New Roman,serif" font-size="14.00">Q: 1.0</text>
</g>
<!-- 19 -->
<g id="node11" class="node">
<title>19</title>
<polygon fill="none" stroke="black" points="673.5,-193.5 628.75,-211.5 539.25,-211.5 494.5,-193.5 539.25,-175.5 628.75,-175.5 673.5,-193.5"/>
<text text-anchor="middle" x="584" y="-188.07" font-family="Times New Roman,serif" font-size="14.00">polish bench seat </text>
</g>
<!-- 15&#45;&gt;19 -->
<g id="edge12" class="edge">
<title>15&#45;&gt;19</title>
<path fill="none" stroke="black" d="M548.11,-262.9C554.27,-251.16 562.53,-235.41 569.58,-221.98"/>
<polygon fill="black" stroke="black" points="572.66,-223.65 574.2,-213.17 566.46,-220.4 572.66,-223.65"/>
<text text-anchor="middle" x="487.25" y="-231.95" font-family="Times New Roman,serif" font-size="14.00">Q: 1.0</text>
</g>
<!-- 15&#45;&gt;19 -->
<g id="edge18" class="edge">
<title>15&#45;&gt;19</title>
<path fill="none" stroke="black" d="M548.11,-262.9C554.27,-251.16 562.53,-235.41 569.58,-221.98"/>
<polygon fill="black" stroke="black" points="572.66,-223.65 574.2,-213.17 566.46,-220.4 572.66,-223.65"/>
<text text-anchor="middle" x="545.25" y="-231.95" font-family="Times New Roman,serif" font-size="14.00">Q: 1.0</text>
</g>
<!-- 15&#45;&gt;19 -->
<g id="edge34" class="edge">
<title>15&#45;&gt;19</title>
<path fill="none" stroke="black" d="M548.11,-262.9C554.27,-251.16 562.53,-235.41 569.58,-221.98"/>
<polygon fill="black" stroke="black" points="572.66,-223.65 574.2,-213.17 566.46,-220.4 572.66,-223.65"/>
<text text-anchor="middle" x="586.25" y="-231.95" font-family="Times New Roman,serif" font-size="14.00">Q: 1.0</text>
</g>
<!-- 15&#45;&gt;19 -->
<g id="edge54" class="edge">
<title>15&#45;&gt;19</title>
<path fill="none" stroke="black" d="M548.11,-262.9C554.27,-251.16 562.53,-235.41 569.58,-221.98"/>
<polygon fill="black" stroke="black" points="572.66,-223.65 574.2,-213.17 566.46,-220.4 572.66,-223.65"/>
<text text-anchor="middle" x="624.25" y="-231.95" font-family="Times New Roman,serif" font-size="14.00">Q: 1.0</text>
</g>
<!-- 13 -->
<g id="node12" class="node">
<title>13</title>
<polygon fill="none" stroke="black" points="683.94,-105.75 646.97,-123.75 573.03,-123.75 536.06,-105.75 573.03,-87.75 646.97,-87.75 683.94,-105.75"/>
<text text-anchor="middle" x="610" y="-100.33" font-family="Times New Roman,serif" font-size="14.00">cut bench seat</text>
</g>
<!-- 19&#45;&gt;13 -->
<g id="edge13" class="edge">
<title>19&#45;&gt;13</title>
<path fill="none" stroke="black" d="M589.26,-175.15C592.75,-163.64 597.41,-148.28 601.43,-135.03"/>
<polygon fill="black" stroke="black" points="604.75,-136.11 604.31,-125.53 598.06,-134.08 604.75,-136.11"/>
<text text-anchor="middle" x="487.25" y="-144.2" font-family="Times New Roman,serif" font-size="14.00">Q: 1.0</text>
</g>
<!-- 19&#45;&gt;13 -->
<g id="edge19" class="edge">
<title>19&#45;&gt;13</title>
<path fill="none" stroke="black" d="M589.26,-175.15C592.75,-163.64 597.41,-148.28 601.43,-135.03"/>
<polygon fill="black" stroke="black" points="604.75,-136.11 604.31,-125.53 598.06,-134.08 604.75,-136.11"/>
<text text-anchor="middle" x="545.25" y="-144.2" font-family="Times New Roman,serif" font-size="14.00">Q: 1.0</text>
</g>
<!-- 19&#45;&gt;13 -->
<g id="edge35" class="edge">
<title>19&#45;&gt;13</title>
<path fill="none" stroke="black" d="M589.26,-175.15C592.75,-163.64 597.41,-148.28 601.43,-135.03"/>
<polygon fill="black" stroke="black" points="604.75,-136.11 604.31,-125.53 598.06,-134.08 604.75,-136.11"/>
<text text-anchor="middle" x="603.25" y="-144.2" font-family="Times New Roman,serif" font-size="14.00">Q: 1.0</text>
</g>
<!-- 19&#45;&gt;13 -->
<g id="edge42" class="edge">
<title>19&#45;&gt;13</title>
<path fill="none" stroke="black" d="M589.26,-175.15C592.75,-163.64 597.41,-148.28 601.43,-135.03"/>
<polygon fill="black" stroke="black" points="604.75,-136.11 604.31,-125.53 598.06,-134.08 604.75,-136.11"/>
<text text-anchor="middle" x="637.25" y="-144.2" font-family="Times New Roman,serif" font-size="14.00">Q: 1.0</text>
</g>
<!-- 19&#45;&gt;13 -->
<g id="edge55" class="edge">
<title>19&#45;&gt;13</title>
<path fill="none" stroke="black" d="M589.26,-175.15C592.75,-163.64 597.41,-148.28 601.43,-135.03"/>
<polygon fill="black" stroke="black" points="604.75,-136.11 604.31,-125.53 598.06,-134.08 604.75,-136.11"/>
<text text-anchor="middle" x="676.25" y="-144.2" font-family="Times New Roman,serif" font-size="14.00">Q: 1.0</text>
</g>
<!-- 1015 -->
<g id="node13" class="node">
<title>1015</title>
<polygon fill="none" stroke="black" points="636,-36 560,-36 560,0 636,0 636,-36"/>
<text text-anchor="middle" x="598" y="-12.57" font-family="Times New Roman,serif" font-size="14.00">wood 3cm</text>
</g>
<!-- 13&#45;&gt;1015 -->
<g id="edge14" class="edge">
<title>13&#45;&gt;1015</title>
<path fill="none" stroke="black" d="M607.57,-87.4C605.98,-76.01 603.85,-60.84 602.01,-47.68"/>
<polygon fill="black" stroke="black" points="605.49,-47.24 600.63,-37.83 598.55,-48.21 605.49,-47.24"/>
<text text-anchor="middle" x="432.38" y="-56.45" font-family="Times New Roman,serif" font-size="14.00">Q: 0.0576</text>
</g>
<!-- 13&#45;&gt;1015 -->
<g id="edge20" class="edge">
<title>13&#45;&gt;1015</title>
<path fill="none" stroke="black" d="M607.57,-87.4C605.98,-76.01 603.85,-60.84 602.01,-47.68"/>
<polygon fill="black" stroke="black" points="605.49,-47.24 600.63,-37.83 598.55,-48.21 605.49,-47.24"/>
<text text-anchor="middle" x="510.38" y="-56.45" font-family="Times New Roman,serif" font-size="14.00">Q: 0.0576</text>
</g>
<!-- 13&#45;&gt;1015 -->
<g id="edge36" class="edge">
<title>13&#45;&gt;1015</title>
<path fill="none" stroke="black" d="M607.57,-87.4C605.98,-76.01 603.85,-60.84 602.01,-47.68"/>
<polygon fill="black" stroke="black" points="605.49,-47.24 600.63,-37.83 598.55,-48.21 605.49,-47.24"/>
<text text-anchor="middle" x="588.38" y="-56.45" font-family="Times New Roman,serif" font-size="14.00">Q: 0.0576</text>
</g>
<!-- 13&#45;&gt;1015 -->
<g id="edge43" class="edge">
<title>13&#45;&gt;1015</title>
<path fill="none" stroke="black" d="M607.57,-87.4C605.98,-76.01 603.85,-60.84 602.01,-47.68"/>
<polygon fill="black" stroke="black" points="605.49,-47.24 600.63,-37.83 598.55,-48.21 605.49,-47.24"/>
<text text-anchor="middle" x="642.38" y="-56.45" font-family="Times New Roman,serif" font-size="14.00">Q: 0.0576</text>
</g>
<!-- 13&#45;&gt;1015 -->
<g id="edge56" class="edge">
<title>13&#45;&gt;1015</title>
<path fill="none" stroke="black" d="M607.57,-87.4C605.98,-76.01 603.85,-60.84 602.01,-47.68"/>
<polygon fill="black" stroke="black" points="605.49,-47.24 600.63,-37.83 598.55,-48.21 605.49,-47.24"/>
<text text-anchor="middle" x="701.38" y="-56.45" font-family="Times New Roman,serif" font-size="14.00">Q: 0.0576</text>
</g>
<!-- 13&#45;&gt;1015 -->
<g id="edge61" class="edge">
<title>13&#45;&gt;1015</title>
<path fill="none" stroke="black" d="M607.57,-87.4C605.98,-76.01 603.85,-60.84 602.01,-47.68"/>
<polygon fill="black" stroke="black" points="605.49,-47.24 600.63,-37.83 598.55,-48.21 605.49,-47.24"/>
<text text-anchor="middle" x="760.38" y="-56.45" font-family="Times New Roman,serif" font-size="14.00">Q: 0.0576</text>
</g>
<!-- 1004 -->
<g id="node14" class="node">
<title>1004</title>
<polygon fill="none" stroke="black" points="752.88,-474.75 643.12,-474.75 643.12,-438.75 752.88,-438.75 752.88,-474.75"/>
<text text-anchor="middle" x="698" y="-451.32" font-family="Times New Roman,serif" font-size="14.00">bench seat w/nut</text>
</g>
<!-- 17 -->
<g id="node15" class="node">
<title>17</title>
<polygon fill="none" stroke="black" points="773.1,-369 735.55,-387 660.45,-387 622.9,-369 660.45,-351 735.55,-351 773.1,-369"/>
<text text-anchor="middle" x="698" y="-363.57" font-family="Times New Roman,serif" font-size="14.00">fix nut M16 21</text>
</g>
<!-- 1004&#45;&gt;17 -->
<g id="edge15" class="edge">
<title>1004&#45;&gt;17</title>
<path fill="none" stroke="black" d="M698,-438.4C698,-427.01 698,-411.84 698,-398.68"/>
<polygon fill="black" stroke="black" points="701.5,-398.84 698,-388.84 694.5,-398.84 701.5,-398.84"/>
<text text-anchor="middle" x="715.25" y="-407.45" font-family="Times New Roman,serif" font-size="14.00">Q: 1.0</text>
</g>
<!-- 17&#45;&gt;15 -->
<g id="edge17" class="edge">
<title>17&#45;&gt;15</title>
<path fill="none" stroke="black" d="M665.82,-350.65C641.44,-337.5 607.73,-319.32 581.19,-305"/>
<polygon fill="black" stroke="black" points="583.2,-302.11 572.73,-300.44 579.87,-308.27 583.2,-302.11"/>
<text text-anchor="middle" x="543.25" y="-319.7" font-family="Times New Roman,serif" font-size="14.00">Q: 1.0</text>
</g>
<!-- 17&#45;&gt;15 -->
<g id="edge33" class="edge">
<title>17&#45;&gt;15</title>
<path fill="none" stroke="black" d="M665.82,-350.65C641.44,-337.5 607.73,-319.32 581.19,-305"/>
<polygon fill="black" stroke="black" points="583.2,-302.11 572.73,-300.44 579.87,-308.27 583.2,-302.11"/>
<text text-anchor="middle" x="601.25" y="-319.7" font-family="Times New Roman,serif" font-size="14.00">Q: 1.0</text>
</g>
<!-- 17&#45;&gt;15 -->
<g id="edge53" class="edge">
<title>17&#45;&gt;15</title>
<path fill="none" stroke="black" d="M665.82,-350.65C641.44,-337.5 607.73,-319.32 581.19,-305"/>
<polygon fill="black" stroke="black" points="583.2,-302.11 572.73,-300.44 579.87,-308.27 583.2,-302.11"/>
<text text-anchor="middle" x="658.25" y="-319.7" font-family="Times New Roman,serif" font-size="14.00">Q: 1.0</text>
</g>
<!-- 1005 -->
<g id="node16" class="node">
<title>1005</title>
<polygon fill="none" stroke="black" points="841.12,-299.25 780.88,-299.25 780.88,-263.25 841.12,-263.25 841.12,-299.25"/>
<text text-anchor="middle" x="811" y="-275.82" font-family="Times New Roman,serif" font-size="14.00">bolt M6</text>
</g>
<!-- 17&#45;&gt;1005 -->
<g id="edge16" class="edge">
<title>17&#45;&gt;1005</title>
<path fill="none" stroke="black" d="M720.87,-350.65C737.64,-337.92 760.63,-320.48 779.19,-306.39"/>
<polygon fill="black" stroke="black" points="781.11,-309.33 786.96,-300.49 776.88,-303.75 781.11,-309.33"/>
<text text-anchor="middle" x="718.62" y="-319.7" font-family="Times New Roman,serif" font-size="14.00">Q: 12.0</text>
</g>
<!-- 17&#45;&gt;1005 -->
<g id="edge32" class="edge">
<title>17&#45;&gt;1005</title>
<path fill="none" stroke="black" d="M720.87,-350.65C737.64,-337.92 760.63,-320.48 779.19,-306.39"/>
<polygon fill="black" stroke="black" points="781.11,-309.33 786.96,-300.49 776.88,-303.75 781.11,-309.33"/>
<text text-anchor="middle" x="782.62" y="-319.7" font-family="Times New Roman,serif" font-size="14.00">Q: 12.0</text>
</g>
<!-- 17&#45;&gt;1005 -->
<g id="edge52" class="edge">
<title>17&#45;&gt;1005</title>
<path fill="none" stroke="black" d="M720.87,-350.65C737.64,-337.92 760.63,-320.48 779.19,-306.39"/>
<polygon fill="black" stroke="black" points="781.11,-309.33 786.96,-300.49 776.88,-303.75 781.11,-309.33"/>
<text text-anchor="middle" x="826.62" y="-319.7" font-family="Times New Roman,serif" font-size="14.00">Q: 12.0</text>
</g>
<!-- 1007 -->
<g id="node17" class="node">
<title>1007</title>
<polygon fill="none" stroke="black" points="979.25,-299.25 916.75,-299.25 916.75,-263.25 979.25,-263.25 979.25,-299.25"/>
<text text-anchor="middle" x="948" y="-275.82" font-family="Times New Roman,serif" font-size="14.00">nut M16</text>
</g>
<!-- 17&#45;&gt;1007 -->
<g id="edge21" class="edge">
<title>17&#45;&gt;1007</title>
<path fill="none" stroke="black" d="M740.98,-353.26C787.02,-337.47 859.65,-312.56 905.5,-296.83"/>
<polygon fill="black" stroke="black" points="906.52,-300.18 914.84,-293.62 904.24,-293.56 906.52,-300.18"/>
<text text-anchor="middle" x="896.25" y="-319.7" font-family="Times New Roman,serif" font-size="14.00">Q: 4.0</text>
</g>
<!-- 17&#45;&gt;1007 -->
<g id="edge37" class="edge">
<title>17&#45;&gt;1007</title>
<path fill="none" stroke="black" d="M740.98,-353.26C787.02,-337.47 859.65,-312.56 905.5,-296.83"/>
<polygon fill="black" stroke="black" points="906.52,-300.18 914.84,-293.62 904.24,-293.56 906.52,-300.18"/>
<text text-anchor="middle" x="943.25" y="-319.7" font-family="Times New Roman,serif" font-size="14.00">Q: 4.0</text>
</g>
<!-- 17&#45;&gt;1007 -->
<g id="edge57" class="edge">
<title>17&#45;&gt;1007</title>
<path fill="none" stroke="black" d="M740.98,-353.26C787.02,-337.47 859.65,-312.56 905.5,-296.83"/>
<polygon fill="black" stroke="black" points="906.52,-300.18 914.84,-293.62 904.24,-293.56 906.52,-300.18"/>
<text text-anchor="middle" x="982.25" y="-319.7" font-family="Times New Roman,serif" font-size="14.00">Q: 4.0</text>
</g>
<!-- 1006 -->
<g id="node18" class="node">
<title>1006</title>
<polygon fill="none" stroke="black" points="590.5,-650.25 493.5,-650.25 493.5,-614.25 590.5,-614.25 590.5,-650.25"/>
<text text-anchor="middle" x="542" y="-626.83" font-family="Times New Roman,serif" font-size="14.00">finished bench</text>
</g>
<!-- 20 -->
<g id="node19" class="node">
<title>20</title>
<polygon fill="none" stroke="black" points="616.52,-544.5 579.26,-562.5 504.74,-562.5 467.48,-544.5 504.74,-526.5 579.26,-526.5 616.52,-544.5"/>
<text text-anchor="middle" x="542" y="-539.08" font-family="Times New Roman,serif" font-size="14.00">varnish bench </text>
</g>
<!-- 1006&#45;&gt;20 -->
<g id="edge22" class="edge">
<title>1006&#45;&gt;20</title>
<path fill="none" stroke="black" d="M542,-613.9C542,-602.51 542,-587.34 542,-574.18"/>
<polygon fill="black" stroke="black" points="545.5,-574.34 542,-564.34 538.5,-574.34 545.5,-574.34"/>
<text text-anchor="middle" x="559.25" y="-582.95" font-family="Times New Roman,serif" font-size="14.00">Q: 1.0</text>
</g>
<!-- 1014 -->
<g id="node20" class="node">
<title>1014</title>
<polygon fill="none" stroke="black" points="826.88,-474.75 771.12,-474.75 771.12,-438.75 826.88,-438.75 826.88,-474.75"/>
<text text-anchor="middle" x="799" y="-451.32" font-family="Times New Roman,serif" font-size="14.00">varnish</text>
</g>
<!-- 20&#45;&gt;1014 -->
<g id="edge23" class="edge">
<title>20&#45;&gt;1014</title>
<path fill="none" stroke="black" d="M585.31,-529.05C634.17,-512.75 712.96,-486.46 759.99,-470.77"/>
<polygon fill="black" stroke="black" points="760.84,-474.17 769.22,-467.69 758.63,-467.53 760.84,-474.17"/>
<text text-anchor="middle" x="727" y="-495.2" font-family="Times New Roman,serif" font-size="14.00">Q: 0.125</text>
</g>
<!-- 11 -->
<g id="node21" class="node">
<title>11</title>
<polygon fill="none" stroke="black" points="625.16,-456.75 583.58,-474.75 500.42,-474.75 458.84,-456.75 500.42,-438.75 583.58,-438.75 625.16,-456.75"/>
<text text-anchor="middle" x="542" y="-451.32" font-family="Times New Roman,serif" font-size="14.00">assemble bench </text>
</g>
<!-- 20&#45;&gt;11 -->
<g id="edge24" class="edge">
<title>20&#45;&gt;11</title>
<path fill="none" stroke="black" d="M542,-526.15C542,-514.76 542,-499.59 542,-486.43"/>
<polygon fill="black" stroke="black" points="545.5,-486.59 542,-476.59 538.5,-486.59 545.5,-486.59"/>
<text text-anchor="middle" x="559.25" y="-495.2" font-family="Times New Roman,serif" font-size="14.00">Q: 1.0</text>
</g>
<!-- 11&#45;&gt;16 -->
<g id="edge25" class="edge">
<title>11&#45;&gt;16</title>
<path fill="none" stroke="black" d="M496.95,-439.72C456.85,-425.45 398.08,-404.54 355.37,-389.35"/>
<polygon fill="black" stroke="black" points="356.63,-386.08 346.03,-386.02 354.28,-392.67 356.63,-386.08"/>
<text text-anchor="middle" x="442.25" y="-407.45" font-family="Times New Roman,serif" font-size="14.00">Q: 4.0</text>
</g>
<!-- 11&#45;&gt;16 -->
<g id="edge45" class="edge">
<title>11&#45;&gt;16</title>
<path fill="none" stroke="black" d="M496.95,-439.72C456.85,-425.45 398.08,-404.54 355.37,-389.35"/>
<polygon fill="black" stroke="black" points="356.63,-386.08 346.03,-386.02 354.28,-392.67 356.63,-386.08"/>
<text text-anchor="middle" x="501.25" y="-407.45" font-family="Times New Roman,serif" font-size="14.00">Q: 4.0</text>
</g>
<!-- 11&#45;&gt;17 -->
<g id="edge31" class="edge">
<title>11&#45;&gt;17</title>
<path fill="none" stroke="black" d="M573.57,-438.4C597.38,-425.31 630.28,-407.23 656.26,-392.94"/>
<polygon fill="black" stroke="black" points="657.81,-396.09 664.88,-388.2 654.43,-389.95 657.81,-396.09"/>
<text text-anchor="middle" x="595.25" y="-407.45" font-family="Times New Roman,serif" font-size="14.00">Q: 1.0</text>
</g>
<!-- 11&#45;&gt;17 -->
<g id="edge51" class="edge">
<title>11&#45;&gt;17</title>
<path fill="none" stroke="black" d="M573.57,-438.4C597.38,-425.31 630.28,-407.23 656.26,-392.94"/>
<polygon fill="black" stroke="black" points="657.81,-396.09 664.88,-388.2 654.43,-389.95 657.81,-396.09"/>
<text text-anchor="middle" x="654.25" y="-407.45" font-family="Times New Roman,serif" font-size="14.00">Q: 1.0</text>
</g>
<!-- 1008 -->
<g id="node22" class="node">
<title>1008</title>
<polygon fill="none" stroke="black" points="307.12,-299.25 186.88,-299.25 186.88,-263.25 307.12,-263.25 307.12,-299.25"/>
<text text-anchor="middle" x="247" y="-275.82" font-family="Times New Roman,serif" font-size="14.00">polished bench leg</text>
</g>
<!-- 1008&#45;&gt;18 -->
<g id="edge38" class="edge">
<title>1008&#45;&gt;18</title>
<path fill="none" stroke="black" d="M223.53,-262.9C206.31,-250.17 182.71,-232.73 163.66,-218.64"/>
<polygon fill="black" stroke="black" points="165.78,-215.86 155.66,-212.73 161.62,-221.49 165.78,-215.86"/>
<text text-anchor="middle" x="227.25" y="-231.95" font-family="Times New Roman,serif" font-size="14.00">Q: 1.0</text>
</g>
<!-- 1009 -->
<g id="node23" class="node">
<title>1009</title>
<polygon fill="none" stroke="black" points="763.12,-299.25 636.88,-299.25 636.88,-263.25 763.12,-263.25 763.12,-299.25"/>
<text text-anchor="middle" x="700" y="-275.82" font-family="Times New Roman,serif" font-size="14.00">polished bench seat</text>
</g>
<!-- 1009&#45;&gt;19 -->
<g id="edge41" class="edge">
<title>1009&#45;&gt;19</title>
<path fill="none" stroke="black" d="M676.53,-262.9C659.31,-250.17 635.71,-232.73 616.66,-218.64"/>
<polygon fill="black" stroke="black" points="618.78,-215.86 608.66,-212.73 614.62,-221.49 618.78,-215.86"/>
<text text-anchor="middle" x="678.25" y="-231.95" font-family="Times New Roman,serif" font-size="14.00">Q: 1.0</text>
</g>
<!-- 1010 -->
<g id="node24" class="node">
<title>1010</title>
<polygon fill="none" stroke="black" points="707.88,-562.5 634.12,-562.5 634.12,-526.5 707.88,-526.5 707.88,-562.5"/>
<text text-anchor="middle" x="671" y="-539.08" font-family="Times New Roman,serif" font-size="14.00">raw bench</text>
</g>
<!-- 1010&#45;&gt;11 -->
<g id="edge44" class="edge">
<title>1010&#45;&gt;11</title>
<path fill="none" stroke="black" d="M644.89,-526.15C625.49,-513.25 598.79,-495.5 577.45,-481.31"/>
<polygon fill="black" stroke="black" points="579.59,-478.54 569.33,-475.91 575.72,-484.37 579.59,-478.54"/>
<text text-anchor="middle" x="635.25" y="-495.2" font-family="Times New Roman,serif" font-size="14.00">Q: 1.0</text>
</g>
<!-- 1011 -->
<g id="node25" class="node">
<title>1011</title>
<polygon fill="none" stroke="black" points="351.62,-211.5 258.38,-211.5 258.38,-175.5 351.62,-175.5 351.62,-211.5"/>
<text text-anchor="middle" x="305" y="-188.07" font-family="Times New Roman,serif" font-size="14.00">raw bench leg</text>
</g>
<!-- 1011&#45;&gt;12 -->
<g id="edge58" class="edge">
<title>1011&#45;&gt;12</title>
<path fill="none" stroke="black" d="M274.65,-175.15C251.85,-162.11 220.4,-144.14 195.46,-129.88"/>
<polygon fill="black" stroke="black" points="197.3,-126.9 186.88,-124.98 193.83,-132.98 197.3,-126.9"/>
<text text-anchor="middle" x="279.25" y="-144.2" font-family="Times New Roman,serif" font-size="14.00">Q: 1.0</text>
</g>
<!-- 1012 -->
<g id="node26" class="node">
<title>1012</title>
<polygon fill="none" stroke="black" points="807.62,-211.5 708.38,-211.5 708.38,-175.5 807.62,-175.5 807.62,-211.5"/>
<text text-anchor="middle" x="758" y="-188.07" font-family="Times New Roman,serif" font-size="14.00">raw bench seat</text>
</g>
<!-- 1012&#45;&gt;13 -->
<g id="edge60" class="edge">
<title>1012&#45;&gt;13</title>
<path fill="none" stroke="black" d="M728.05,-175.15C705.56,-162.11 674.52,-144.14 649.92,-129.88"/>
<polygon fill="black" stroke="black" points="651.88,-126.97 641.47,-124.98 648.37,-133.02 651.88,-126.97"/>
<text text-anchor="middle" x="732.25" y="-144.2" font-family="Times New Roman,serif" font-size="14.00">Q: 1.0</text>
</g>
</g>
</svg>
