<?xml version="1.0" encoding="UTF-8" standalone="no"?>
<!DOCTYPE svg PUBLIC "-//W3C//DTD SVG 1.1//EN"
 "http://www.w3.org/Graphics/SVG/1.1/DTD/svg11.dtd">
<!-- Generated by graphviz version 10.0.1 (20240210.2158)
 -->
<!-- Title: G Pages: 1 -->
<svg width="435pt" height="395pt"
 viewBox="0.00 0.00 435.00 395.00" xmlns="http://www.w3.org/2000/svg" xmlns:xlink="http://www.w3.org/1999/xlink">
<g id="graph0" class="graph" transform="scale(1 1) rotate(0) translate(4 391)">
<title>G</title>
<polygon fill="white" stroke="none" points="-4,4 -4,-391 431,-391 431,4 -4,4"/>
<!-- M1 -->
<g id="node1" class="node">
<title>M1</title>
<polygon fill="none" stroke="black" points="174,-387 120,-387 120,-351 174,-351 174,-387"/>
<text text-anchor="middle" x="147" y="-363.57" font-family="Times New Roman,serif" font-size="14.00">M1</text>
</g>
<!-- O3 -->
<g id="node2" class="node">
<title>O3</title>
<polygon fill="none" stroke="black" points="152,-281.25 138.5,-299.25 111.5,-299.25 98,-281.25 111.5,-263.25 138.5,-263.25 152,-281.25"/>
<text text-anchor="middle" x="125" y="-275.82" font-family="Times New Roman,serif" font-size="14.00">O3</text>
</g>
<!-- M1&#45;&gt;O3 -->
<g id="edge1" class="edge">
<title>M1&#45;&gt;O3</title>
<path fill="none" stroke="black" d="M142.55,-350.65C139.6,-339.14 135.65,-323.78 132.25,-310.53"/>
<polygon fill="black" stroke="black" points="135.7,-309.86 129.82,-301.04 128.92,-311.6 135.7,-309.86"/>
<text text-anchor="middle" x="135.75" y="-319.7" font-family="Times New Roman,serif" font-size="14.00"> &#160;</text>
</g>
<!-- M2 -->
<g id="node3" class="node">
<title>M2</title>
<polygon fill="none" stroke="black" points="224,-299.25 170,-299.25 170,-263.25 224,-263.25 224,-299.25"/>
<text text-anchor="middle" x="197" y="-275.82" font-family="Times New Roman,serif" font-size="14.00">M2</text>
</g>
<!-- M1&#45;&gt;M2 -->
<g id="edge2" class="edge">
<title>M1&#45;&gt;M2</title>
<path fill="none" stroke="black" d="M157.12,-350.65C164.03,-338.79 173.33,-322.84 181.21,-309.33"/>
<polygon fill="black" stroke="black" points="184.12,-311.29 186.13,-300.88 178.07,-307.76 184.12,-311.29"/>
<text text-anchor="middle" x="189" y="-319.7" font-family="Times New Roman,serif" font-size="14.00">Q: 8</text>
</g>
<!-- O4 -->
<g id="node4" class="node">
<title>O4</title>
<polygon fill="none" stroke="black" points="110,-193.5 96.5,-211.5 69.5,-211.5 56,-193.5 69.5,-175.5 96.5,-175.5 110,-193.5"/>
<text text-anchor="middle" x="83" y="-188.07" font-family="Times New Roman,serif" font-size="14.00">O4</text>
</g>
<!-- M2&#45;&gt;O4 -->
<g id="edge3" class="edge">
<title>M2&#45;&gt;O4</title>
<path fill="none" stroke="black" d="M173.93,-262.9C155.14,-248.77 128.63,-228.82 109.07,-214.11"/>
<polygon fill="black" stroke="black" points="111.4,-211.48 101.31,-208.27 107.19,-217.08 111.4,-211.48"/>
<text text-anchor="middle" x="63.75" y="-231.95" font-family="Times New Roman,serif" font-size="14.00"> &#160;</text>
</g>
<!-- M2&#45;&gt;O4 -->
<g id="edge10" class="edge">
<title>M2&#45;&gt;O4</title>
<path fill="none" stroke="black" d="M173.93,-262.9C155.14,-248.77 128.63,-228.82 109.07,-214.11"/>
<polygon fill="black" stroke="black" points="111.4,-211.48 101.31,-208.27 107.19,-217.08 111.4,-211.48"/>
<text text-anchor="middle" x="94.75" y="-231.95" font-family="Times New Roman,serif" font-size="14.00"> &#160;</text>
</g>
<!-- M2&#45;&gt;O4 -->
<g id="edge19" class="edge">
<title>M2&#45;&gt;O4</title>
<path fill="none" stroke="black" d="M173.93,-262.9C155.14,-248.77 128.63,-228.82 109.07,-214.11"/>
<polygon fill="black" stroke="black" points="111.4,-211.48 101.31,-208.27 107.19,-217.08 111.4,-211.48"/>
<text text-anchor="middle" x="143.75" y="-231.95" font-family="Times New Roman,serif" font-size="14.00"> &#160;</text>
</g>
<!-- M4 -->
<g id="node5" class="node">
<title>M4</title>
<polygon fill="none" stroke="black" points="182,-211.5 128,-211.5 128,-175.5 182,-175.5 182,-211.5"/>
<text text-anchor="middle" x="155" y="-188.07" font-family="Times New Roman,serif" font-size="14.00">M4</text>
</g>
<!-- M2&#45;&gt;M4 -->
<g id="edge4" class="edge">
<title>M2&#45;&gt;M4</title>
<path fill="none" stroke="black" d="M188.5,-262.9C182.75,-251.16 175.04,-235.41 168.46,-221.98"/>
<polygon fill="black" stroke="black" points="171.69,-220.63 164.15,-213.19 165.41,-223.71 171.69,-220.63"/>
<text text-anchor="middle" x="163" y="-231.95" font-family="Times New Roman,serif" font-size="14.00">Q: 4</text>
</g>
<!-- M2&#45;&gt;M4 -->
<g id="edge11" class="edge">
<title>M2&#45;&gt;M4</title>
<path fill="none" stroke="black" d="M188.5,-262.9C182.75,-251.16 175.04,-235.41 168.46,-221.98"/>
<polygon fill="black" stroke="black" points="171.69,-220.63 164.15,-213.19 165.41,-223.71 171.69,-220.63"/>
<text text-anchor="middle" x="194" y="-231.95" font-family="Times New Roman,serif" font-size="14.00">Q: 4</text>
</g>
<!-- M2&#45;&gt;M4 -->
<g id="edge20" class="edge">
<title>M2&#45;&gt;M4</title>
<path fill="none" stroke="black" d="M188.5,-262.9C182.75,-251.16 175.04,-235.41 168.46,-221.98"/>
<polygon fill="black" stroke="black" points="171.69,-220.63 164.15,-213.19 165.41,-223.71 171.69,-220.63"/>
<text text-anchor="middle" x="222" y="-231.95" font-family="Times New Roman,serif" font-size="14.00">Q: 4</text>
</g>
<!-- M5 -->
<g id="node7" class="node">
<title>M5</title>
<polygon fill="none" stroke="black" points="289,-123.75 235,-123.75 235,-87.75 289,-87.75 289,-123.75"/>
<text text-anchor="middle" x="262" y="-100.33" font-family="Times New Roman,serif" font-size="14.00">M5</text>
</g>
<!-- M2&#45;&gt;M5 -->
<g id="edge8" class="edge">
<title>M2&#45;&gt;M5</title>
<path fill="none" stroke="black" d="M216.51,-263.13C241.89,-239.56 283,-201.38 283,-201.38 283,-201.38 274.62,-163.21 268.45,-135.11"/>
<polygon fill="black" stroke="black" points="271.94,-134.68 266.37,-125.67 265.1,-136.18 271.94,-134.68"/>
<text text-anchor="middle" x="295" y="-188.07" font-family="Times New Roman,serif" font-size="14.00">Q: 1</text>
</g>
<!-- M2&#45;&gt;M5 -->
<g id="edge15" class="edge">
<title>M2&#45;&gt;M5</title>
<path fill="none" stroke="black" d="M224.46,-266.23C266.75,-243.09 343,-201.38 343,-201.38 343,-201.38 308.93,-161.15 284.98,-132.88"/>
<polygon fill="black" stroke="black" points="287.73,-130.71 278.6,-125.34 282.39,-135.24 287.73,-130.71"/>
<text text-anchor="middle" x="355" y="-188.07" font-family="Times New Roman,serif" font-size="14.00">Q: 1</text>
</g>
<!-- M2&#45;&gt;M5 -->
<g id="edge24" class="edge">
<title>M2&#45;&gt;M5</title>
<path fill="none" stroke="black" d="M224.36,-270.64C280.39,-248.92 403,-201.38 403,-201.38 403,-201.38 340.31,-158.86 298.53,-130.52"/>
<polygon fill="black" stroke="black" points="300.68,-127.75 290.44,-125.04 296.75,-133.55 300.68,-127.75"/>
<text text-anchor="middle" x="415" y="-188.07" font-family="Times New Roman,serif" font-size="14.00">Q: 1</text>
</g>
<!-- O6 -->
<g id="node6" class="node">
<title>O6</title>
<polygon fill="none" stroke="black" points="71,-105.75 57.5,-123.75 30.5,-123.75 17,-105.75 30.5,-87.75 57.5,-87.75 71,-105.75"/>
<text text-anchor="middle" x="44" y="-100.33" font-family="Times New Roman,serif" font-size="14.00">O6</text>
</g>
<!-- M4&#45;&gt;O6 -->
<g id="edge5" class="edge">
<title>M4&#45;&gt;O6</title>
<path fill="none" stroke="black" d="M132.54,-175.15C114.44,-161.16 88.97,-141.49 69.99,-126.83"/>
<polygon fill="black" stroke="black" points="72.24,-124.14 62.19,-120.8 67.96,-129.68 72.24,-124.14"/>
<text text-anchor="middle" x="3.75" y="-144.2" font-family="Times New Roman,serif" font-size="14.00"> &#160;</text>
</g>
<!-- M4&#45;&gt;O6 -->
<g id="edge12" class="edge">
<title>M4&#45;&gt;O6</title>
<path fill="none" stroke="black" d="M132.54,-175.15C114.44,-161.16 88.97,-141.49 69.99,-126.83"/>
<polygon fill="black" stroke="black" points="72.24,-124.14 62.19,-120.8 67.96,-129.68 72.24,-124.14"/>
<text text-anchor="middle" x="34.75" y="-144.2" font-family="Times New Roman,serif" font-size="14.00"> &#160;</text>
</g>
<!-- M4&#45;&gt;O6 -->
<g id="edge21" class="edge">
<title>M4&#45;&gt;O6</title>
<path fill="none" stroke="black" d="M132.54,-175.15C114.44,-161.16 88.97,-141.49 69.99,-126.83"/>
<polygon fill="black" stroke="black" points="72.24,-124.14 62.19,-120.8 67.96,-129.68 72.24,-124.14"/>
<text text-anchor="middle" x="65.75" y="-144.2" font-family="Times New Roman,serif" font-size="14.00"> &#160;</text>
</g>
<!-- M4&#45;&gt;O6 -->
<g id="edge26" class="edge">
<title>M4&#45;&gt;O6</title>
<path fill="none" stroke="black" d="M132.54,-175.15C114.44,-161.16 88.97,-141.49 69.99,-126.83"/>
<polygon fill="black" stroke="black" points="72.24,-124.14 62.19,-120.8 67.96,-129.68 72.24,-124.14"/>
<text text-anchor="middle" x="113.75" y="-144.2" font-family="Times New Roman,serif" font-size="14.00"> &#160;</text>
</g>
<!-- M4&#45;&gt;M5 -->
<g id="edge6" class="edge">
<title>M4&#45;&gt;M5</title>
<path fill="none" stroke="black" d="M176.65,-175.15C192.46,-162.48 214.1,-145.14 231.64,-131.08"/>
<polygon fill="black" stroke="black" points="233.58,-134.01 239.2,-125.02 229.21,-128.55 233.58,-134.01"/>
<text text-anchor="middle" x="134" y="-144.2" font-family="Times New Roman,serif" font-size="14.00">Q: 1</text>
</g>
<!-- M4&#45;&gt;M5 -->
<g id="edge13" class="edge">
<title>M4&#45;&gt;M5</title>
<path fill="none" stroke="black" d="M176.65,-175.15C192.46,-162.48 214.1,-145.14 231.64,-131.08"/>
<polygon fill="black" stroke="black" points="233.58,-134.01 239.2,-125.02 229.21,-128.55 233.58,-134.01"/>
<text text-anchor="middle" x="181" y="-144.2" font-family="Times New Roman,serif" font-size="14.00">Q: 1</text>
</g>
<!-- M4&#45;&gt;M5 -->
<g id="edge22" class="edge">
<title>M4&#45;&gt;M5</title>
<path fill="none" stroke="black" d="M176.65,-175.15C192.46,-162.48 214.1,-145.14 231.64,-131.08"/>
<polygon fill="black" stroke="black" points="233.58,-134.01 239.2,-125.02 229.21,-128.55 233.58,-134.01"/>
<text text-anchor="middle" x="228" y="-144.2" font-family="Times New Roman,serif" font-size="14.00">Q: 1</text>
</g>
<!-- M4&#45;&gt;M5 -->
<g id="edge27" class="edge">
<title>M4&#45;&gt;M5</title>
<path fill="none" stroke="black" d="M176.65,-175.15C192.46,-162.48 214.1,-145.14 231.64,-131.08"/>
<polygon fill="black" stroke="black" points="233.58,-134.01 239.2,-125.02 229.21,-128.55 233.58,-134.01"/>
<text text-anchor="middle" x="258" y="-144.2" font-family="Times New Roman,serif" font-size="14.00">Q: 1</text>
</g>
<!-- O10 -->
<g id="node8" class="node">
<title>O10</title>
<polygon fill="none" stroke="black" points="292.73,-18 277.37,-36 246.63,-36 231.27,-18 246.63,0 277.37,0 292.73,-18"/>
<text text-anchor="middle" x="262" y="-12.57" font-family="Times New Roman,serif" font-size="14.00">O10</text>
</g>
<!-- M5&#45;&gt;O10 -->
<g id="edge7" class="edge">
<title>M5&#45;&gt;O10</title>
<path fill="none" stroke="black" d="M262,-87.4C262,-76.01 262,-60.84 262,-47.68"/>
<polygon fill="black" stroke="black" points="265.5,-47.84 262,-37.84 258.5,-47.84 265.5,-47.84"/>
<text text-anchor="middle" x="160.75" y="-56.45" font-family="Times New Roman,serif" font-size="14.00"> &#160;</text>
</g>
<!-- M5&#45;&gt;O10 -->
<g id="edge9" class="edge">
<title>M5&#45;&gt;O10</title>
<path fill="none" stroke="black" d="M262,-87.4C262,-76.01 262,-60.84 262,-47.68"/>
<polygon fill="black" stroke="black" points="265.5,-47.84 262,-37.84 258.5,-47.84 265.5,-47.84"/>
<text text-anchor="middle" x="191.75" y="-56.45" font-family="Times New Roman,serif" font-size="14.00"> &#160;</text>
</g>
<!-- M5&#45;&gt;O10 -->
<g id="edge14" class="edge">
<title>M5&#45;&gt;O10</title>
<path fill="none" stroke="black" d="M262,-87.4C262,-76.01 262,-60.84 262,-47.68"/>
<polygon fill="black" stroke="black" points="265.5,-47.84 262,-37.84 258.5,-47.84 265.5,-47.84"/>
<text text-anchor="middle" x="221.75" y="-56.45" font-family="Times New Roman,serif" font-size="14.00"> &#160;</text>
</g>
<!-- M5&#45;&gt;O10 -->
<g id="edge16" class="edge">
<title>M5&#45;&gt;O10</title>
<path fill="none" stroke="black" d="M262,-87.4C262,-76.01 262,-60.84 262,-47.68"/>
<polygon fill="black" stroke="black" points="265.5,-47.84 262,-37.84 258.5,-47.84 265.5,-47.84"/>
<text text-anchor="middle" x="252.75" y="-56.45" font-family="Times New Roman,serif" font-size="14.00"> &#160;</text>
</g>
<!-- M5&#45;&gt;O10 -->
<g id="edge23" class="edge">
<title>M5&#45;&gt;O10</title>
<path fill="none" stroke="black" d="M262,-87.4C262,-76.01 262,-60.84 262,-47.68"/>
<polygon fill="black" stroke="black" points="265.5,-47.84 262,-37.84 258.5,-47.84 265.5,-47.84"/>
<text text-anchor="middle" x="265.75" y="-56.45" font-family="Times New Roman,serif" font-size="14.00"> &#160;</text>
</g>
<!-- M5&#45;&gt;O10 -->
<g id="edge25" class="edge">
<title>M5&#45;&gt;O10</title>
<path fill="none" stroke="black" d="M262,-87.4C262,-76.01 262,-60.84 262,-47.68"/>
<polygon fill="black" stroke="black" points="265.5,-47.84 262,-37.84 258.5,-47.84 265.5,-47.84"/>
<text text-anchor="middle" x="277.75" y="-56.45" font-family="Times New Roman,serif" font-size="14.00"> &#160;</text>
</g>
<!-- M5&#45;&gt;O10 -->
<g id="edge28" class="edge">
<title>M5&#45;&gt;O10</title>
<path fill="none" stroke="black" d="M262,-87.4C262,-76.01 262,-60.84 262,-47.68"/>
<polygon fill="black" stroke="black" points="265.5,-47.84 262,-37.84 258.5,-47.84 265.5,-47.84"/>
<text text-anchor="middle" x="289.75" y="-56.45" font-family="Times New Roman,serif" font-size="14.00"> &#160;</text>
</g>
<!-- M5&#45;&gt;O10 -->
<g id="edge29" class="edge">
<title>M5&#45;&gt;O10</title>
<path fill="none" stroke="black" d="M262,-87.4C262,-76.01 262,-60.84 262,-47.68"/>
<polygon fill="black" stroke="black" points="265.5,-47.84 262,-37.84 258.5,-47.84 265.5,-47.84"/>
<text text-anchor="middle" x="301.75" y="-56.45" font-family="Times New Roman,serif" font-size="14.00"> &#160;</text>
</g>
<!-- M3 -->
<g id="node9" class="node">
<title>M3</title>
<polygon fill="none" stroke="black" points="258,-387 204,-387 204,-351 258,-351 258,-387"/>
<text text-anchor="middle" x="231" y="-363.57" font-family="Times New Roman,serif" font-size="14.00">M3</text>
</g>
<!-- M3&#45;&gt;M2 -->
<g id="edge18" class="edge">
<title>M3&#45;&gt;M2</title>
<path fill="none" stroke="black" d="M224.12,-350.65C219.51,-339.02 213.34,-323.47 208.05,-310.13"/>
<polygon fill="black" stroke="black" points="211.37,-308.99 204.43,-300.98 204.86,-311.57 211.37,-308.99"/>
<text text-anchor="middle" x="229" y="-319.7" font-family="Times New Roman,serif" font-size="14.00">Q: 4</text>
</g>
<!-- O5 -->
<g id="node10" class="node">
<title>O5</title>
<polygon fill="none" stroke="black" points="296,-281.25 282.5,-299.25 255.5,-299.25 242,-281.25 255.5,-263.25 282.5,-263.25 296,-281.25"/>
<text text-anchor="middle" x="269" y="-275.82" font-family="Times New Roman,serif" font-size="14.00">O5</text>
</g>
<!-- M3&#45;&gt;O5 -->
<g id="edge17" class="edge">
<title>M3&#45;&gt;O5</title>
<path fill="none" stroke="black" d="M238.69,-350.65C243.89,-338.91 250.87,-323.16 256.82,-309.73"/>
<polygon fill="black" stroke="black" points="259.86,-311.52 260.71,-300.96 253.46,-308.69 259.86,-311.52"/>
<text text-anchor="middle" x="256.75" y="-319.7" font-family="Times New Roman,serif" font-size="14.00"> &#160;</text>
</g>
</g>
</svg>
