<?xml version="1.0" encoding="UTF-8" standalone="no"?>
<!DOCTYPE svg PUBLIC "-//W3C//DTD SVG 1.1//EN"
 "http://www.w3.org/Graphics/SVG/1.1/DTD/svg11.dtd">
<!-- Generated by graphviz version 10.0.1 (20240210.2158)
 -->
<!-- Title: G Pages: 1 -->
<svg width="1012pt" height="658pt"
 viewBox="0.00 0.00 1011.96 658.25" xmlns="http://www.w3.org/2000/svg" xmlns:xlink="http://www.w3.org/1999/xlink">
<g id="graph0" class="graph" transform="scale(1 1) rotate(0) translate(4 654.25)">
<title>G</title>
<polygon fill="white" stroke="none" points="-4,4 -4,-654.25 1007.96,-654.25 1007.96,4 -4,4"/>
<!-- 1001 -->
<g id="node1" class="node">
<title>1001</title>
<polygon fill="none" stroke="black" points="469,-387 355.5,-387 355.5,-351 469,-351 469,-387"/>
<text text-anchor="middle" x="412.25" y="-363.57" font-family="Times New Roman,serif" font-size="14.00">bench leg &#160;w/hole</text>
</g>
<!-- 14 -->
<g id="node2" class="node">
<title>14</title>
<polygon fill="none" stroke="black" points="452.47,-281.25 416.36,-299.25 344.14,-299.25 308.03,-281.25 344.14,-263.25 416.36,-263.25 452.47,-281.25"/>
<text text-anchor="middle" x="380.25" y="-275.82" font-family="Times New Roman,serif" font-size="14.00">drill bench leg</text>
</g>
<!-- 1001&#45;&#45;14 -->
<g id="edge1" class="edge">
<title>1001&#45;&#45;14</title>
<path fill="none" stroke="black" d="M405.77,-350.65C400.22,-335.77 392.27,-314.45 386.72,-299.58"/>
<text text-anchor="middle" x="407.88" y="-319.7" font-family="Times New Roman,serif" font-size="14.00">1.0</text>
</g>
<!-- 18 -->
<g id="node3" class="node">
<title>18</title>
<polygon fill="none" stroke="black" points="378.26,-193.5 337.26,-211.5 255.24,-211.5 214.24,-193.5 255.24,-175.5 337.26,-175.5 378.26,-193.5"/>
<text text-anchor="middle" x="296.25" y="-188.07" font-family="Times New Roman,serif" font-size="14.00">polish bench leg</text>
</g>
<!-- 14&#45;&#45;18 -->
<g id="edge2" class="edge">
<title>14&#45;&#45;18</title>
<path fill="none" stroke="black" d="M363.25,-262.9C348.68,-248.02 327.79,-226.7 313.22,-211.83"/>
<text text-anchor="middle" x="354.88" y="-231.95" font-family="Times New Roman,serif" font-size="14.00">1.0</text>
</g>
<!-- 12 -->
<g id="node4" class="node">
<title>12</title>
<polygon fill="none" stroke="black" points="507.58,-105.75 472.92,-123.75 403.58,-123.75 368.92,-105.75 403.58,-87.75 472.92,-87.75 507.58,-105.75"/>
<text text-anchor="middle" x="438.25" y="-100.33" font-family="Times New Roman,serif" font-size="14.00">cut bench leg</text>
</g>
<!-- 18&#45;&#45;12 -->
<g id="edge3" class="edge">
<title>18&#45;&#45;12</title>
<path fill="none" stroke="black" d="M324.99,-175.15C349.62,-160.27 384.93,-138.95 409.56,-124.08"/>
<text text-anchor="middle" x="388.88" y="-144.2" font-family="Times New Roman,serif" font-size="14.00">1.0</text>
</g>
<!-- 1016 -->
<g id="node5" class="node">
<title>1016</title>
<polygon fill="none" stroke="black" points="490.12,-36 386.38,-36 386.38,0 490.12,0 490.12,-36"/>
<text text-anchor="middle" x="438.25" y="-12.57" font-family="Times New Roman,serif" font-size="14.00">wood pole 4cm</text>
</g>
<!-- 12&#45;&#45;1016 -->
<g id="edge4" class="edge">
<title>12&#45;&#45;1016</title>
<path fill="none" stroke="black" d="M438.25,-87.4C438.25,-72.52 438.25,-51.2 438.25,-36.33"/>
<text text-anchor="middle" x="450.25" y="-56.45" font-family="Times New Roman,serif" font-size="14.00">0.28</text>
</g>
<!-- 1002 -->
<g id="node6" class="node">
<title>1002</title>
<polygon fill="none" stroke="black" points="295.38,-474.75 187.12,-474.75 187.12,-438.75 295.38,-438.75 295.38,-474.75"/>
<text text-anchor="middle" x="241.25" y="-451.32" font-family="Times New Roman,serif" font-size="14.00">bench leg w/bolt</text>
</g>
<!-- 16 -->
<g id="node7" class="node">
<title>16</title>
<polygon fill="none" stroke="black" points="319.8,-369 280.53,-387 201.97,-387 162.7,-369 201.97,-351 280.53,-351 319.8,-369"/>
<text text-anchor="middle" x="241.25" y="-363.57" font-family="Times New Roman,serif" font-size="14.00">fix bolt M16 22</text>
</g>
<!-- 1002&#45;&#45;16 -->
<g id="edge5" class="edge">
<title>1002&#45;&#45;16</title>
<path fill="none" stroke="black" d="M241.25,-438.4C241.25,-423.52 241.25,-402.2 241.25,-387.33"/>
<text text-anchor="middle" x="249.88" y="-407.45" font-family="Times New Roman,serif" font-size="14.00">1.0</text>
</g>
<!-- 16&#45;&#45;14 -->
<g id="edge7" class="edge">
<title>16&#45;&#45;14</title>
<path fill="none" stroke="black" d="M269.38,-350.65C293.49,-335.77 328.06,-314.45 352.16,-299.58"/>
<text text-anchor="middle" x="331.88" y="-319.7" font-family="Times New Roman,serif" font-size="14.00">1.0</text>
</g>
<!-- 1013 -->
<g id="node8" class="node">
<title>1013</title>
<polygon fill="none" stroke="black" points="116.5,-299.25 0,-299.25 0,-263.25 116.5,-263.25 116.5,-299.25"/>
<text text-anchor="middle" x="58.25" y="-275.82" font-family="Times New Roman,serif" font-size="14.00">threaded rod M16</text>
</g>
<!-- 16&#45;&#45;1013 -->
<g id="edge6" class="edge">
<title>16&#45;&#45;1013</title>
<path fill="none" stroke="black" d="M204.22,-350.65C172.57,-335.82 127.26,-314.59 95.54,-299.72"/>
<text text-anchor="middle" x="174.88" y="-319.7" font-family="Times New Roman,serif" font-size="14.00">1.0</text>
</g>
<!-- 1003 -->
<g id="node9" class="node">
<title>1003</title>
<polygon fill="none" stroke="black" points="985.12,-387 863.38,-387 863.38,-351 985.12,-351 985.12,-387"/>
<text text-anchor="middle" x="924.25" y="-363.57" font-family="Times New Roman,serif" font-size="14.00">bench seat w/holes</text>
</g>
<!-- 15 -->
<g id="node10" class="node">
<title>15</title>
<polygon fill="none" stroke="black" points="1003.96,-281.25 964.1,-299.25 884.4,-299.25 844.54,-281.25 884.4,-263.25 964.1,-263.25 1003.96,-281.25"/>
<text text-anchor="middle" x="924.25" y="-275.82" font-family="Times New Roman,serif" font-size="14.00">drill bench seat </text>
</g>
<!-- 1003&#45;&#45;15 -->
<g id="edge8" class="edge">
<title>1003&#45;&#45;15</title>
<path fill="none" stroke="black" d="M924.25,-350.65C924.25,-335.77 924.25,-314.45 924.25,-299.58"/>
<text text-anchor="middle" x="932.88" y="-319.7" font-family="Times New Roman,serif" font-size="14.00">1.0</text>
</g>
<!-- 19 -->
<g id="node11" class="node">
<title>19</title>
<polygon fill="none" stroke="black" points="877.75,-193.5 833,-211.5 743.5,-211.5 698.75,-193.5 743.5,-175.5 833,-175.5 877.75,-193.5"/>
<text text-anchor="middle" x="788.25" y="-188.07" font-family="Times New Roman,serif" font-size="14.00">polish bench seat </text>
</g>
<!-- 15&#45;&#45;19 -->
<g id="edge9" class="edge">
<title>15&#45;&#45;19</title>
<path fill="none" stroke="black" d="M896.73,-262.9C873.13,-248.02 839.31,-226.7 815.73,-211.83"/>
<text text-anchor="middle" x="876.88" y="-231.95" font-family="Times New Roman,serif" font-size="14.00">1.0</text>
</g>
<!-- 13 -->
<g id="node12" class="node">
<title>13</title>
<polygon fill="none" stroke="black" points="708.19,-105.75 671.22,-123.75 597.28,-123.75 560.31,-105.75 597.28,-87.75 671.22,-87.75 708.19,-105.75"/>
<text text-anchor="middle" x="634.25" y="-100.33" font-family="Times New Roman,serif" font-size="14.00">cut bench seat</text>
</g>
<!-- 19&#45;&#45;13 -->
<g id="edge10" class="edge">
<title>19&#45;&#45;13</title>
<path fill="none" stroke="black" d="M757.09,-175.15C730.46,-160.32 692.32,-139.09 665.63,-124.22"/>
<text text-anchor="middle" x="732.88" y="-144.2" font-family="Times New Roman,serif" font-size="14.00">1.0</text>
</g>
<!-- 1015 -->
<g id="node13" class="node">
<title>1015</title>
<polygon fill="none" stroke="black" points="672.25,-36 596.25,-36 596.25,0 672.25,0 672.25,-36"/>
<text text-anchor="middle" x="634.25" y="-12.57" font-family="Times New Roman,serif" font-size="14.00">wood 3cm</text>
</g>
<!-- 13&#45;&#45;1015 -->
<g id="edge11" class="edge">
<title>13&#45;&#45;1015</title>
<path fill="none" stroke="black" d="M634.25,-87.4C634.25,-72.52 634.25,-51.2 634.25,-36.33"/>
<text text-anchor="middle" x="653" y="-56.45" font-family="Times New Roman,serif" font-size="14.00">0.0576</text>
</g>
<!-- 1004 -->
<g id="node14" class="node">
<title>1004</title>
<polygon fill="none" stroke="black" points="769.12,-474.75 659.38,-474.75 659.38,-438.75 769.12,-438.75 769.12,-474.75"/>
<text text-anchor="middle" x="714.25" y="-451.32" font-family="Times New Roman,serif" font-size="14.00">bench seat w/nut</text>
</g>
<!-- 17 -->
<g id="node15" class="node">
<title>17</title>
<polygon fill="none" stroke="black" points="789.35,-369 751.8,-387 676.7,-387 639.15,-369 676.7,-351 751.8,-351 789.35,-369"/>
<text text-anchor="middle" x="714.25" y="-363.57" font-family="Times New Roman,serif" font-size="14.00">fix nut M16 21</text>
</g>
<!-- 1004&#45;&#45;17 -->
<g id="edge12" class="edge">
<title>1004&#45;&#45;17</title>
<path fill="none" stroke="black" d="M714.25,-438.4C714.25,-423.52 714.25,-402.2 714.25,-387.33"/>
<text text-anchor="middle" x="722.88" y="-407.45" font-family="Times New Roman,serif" font-size="14.00">1.0</text>
</g>
<!-- 17&#45;&#45;15 -->
<g id="edge15" class="edge">
<title>17&#45;&#45;15</title>
<path fill="none" stroke="black" d="M754.24,-351.67C791.13,-336.61 845.68,-314.33 882.97,-299.11"/>
<text text-anchor="middle" x="845.88" y="-319.7" font-family="Times New Roman,serif" font-size="14.00">1.0</text>
</g>
<!-- 1005 -->
<g id="node16" class="node">
<title>1005</title>
<polygon fill="none" stroke="black" points="710.38,-299.25 650.12,-299.25 650.12,-263.25 710.38,-263.25 710.38,-299.25"/>
<text text-anchor="middle" x="680.25" y="-275.82" font-family="Times New Roman,serif" font-size="14.00">bolt M6</text>
</g>
<!-- 17&#45;&#45;1005 -->
<g id="edge13" class="edge">
<title>17&#45;&#45;1005</title>
<path fill="none" stroke="black" d="M707.37,-350.65C701.47,-335.77 693.02,-314.45 687.12,-299.58"/>
<text text-anchor="middle" x="712.25" y="-319.7" font-family="Times New Roman,serif" font-size="14.00">12.0</text>
</g>
<!-- 1007 -->
<g id="node17" class="node">
<title>1007</title>
<polygon fill="none" stroke="black" points="808.5,-299.25 746,-299.25 746,-263.25 808.5,-263.25 808.5,-299.25"/>
<text text-anchor="middle" x="777.25" y="-275.82" font-family="Times New Roman,serif" font-size="14.00">nut M16</text>
</g>
<!-- 17&#45;&#45;1007 -->
<g id="edge14" class="edge">
<title>17&#45;&#45;1007</title>
<path fill="none" stroke="black" d="M727,-350.65C737.93,-335.77 753.6,-314.45 764.52,-299.58"/>
<text text-anchor="middle" x="759.88" y="-319.7" font-family="Times New Roman,serif" font-size="14.00">4.0</text>
</g>
<!-- 1006 -->
<g id="node18" class="node">
<title>1006</title>
<polygon fill="none" stroke="black" points="632.75,-650.25 535.75,-650.25 535.75,-614.25 632.75,-614.25 632.75,-650.25"/>
<text text-anchor="middle" x="584.25" y="-626.83" font-family="Times New Roman,serif" font-size="14.00">finished bench</text>
</g>
<!-- 20 -->
<g id="node19" class="node">
<title>20</title>
<polygon fill="none" stroke="black" points="658.77,-544.5 621.51,-562.5 546.99,-562.5 509.73,-544.5 546.99,-526.5 621.51,-526.5 658.77,-544.5"/>
<text text-anchor="middle" x="584.25" y="-539.08" font-family="Times New Roman,serif" font-size="14.00">varnish bench </text>
</g>
<!-- 1006&#45;&#45;20 -->
<g id="edge16" class="edge">
<title>1006&#45;&#45;20</title>
<path fill="none" stroke="black" d="M584.25,-613.9C584.25,-599.02 584.25,-577.7 584.25,-562.83"/>
<text text-anchor="middle" x="592.88" y="-582.95" font-family="Times New Roman,serif" font-size="14.00">1.0</text>
</g>
<!-- 11 -->
<g id="node20" class="node">
<title>11</title>
<polygon fill="none" stroke="black" points="520.41,-456.75 478.83,-474.75 395.67,-474.75 354.09,-456.75 395.67,-438.75 478.83,-438.75 520.41,-456.75"/>
<text text-anchor="middle" x="437.25" y="-451.32" font-family="Times New Roman,serif" font-size="14.00">assemble bench </text>
</g>
<!-- 20&#45;&#45;11 -->
<g id="edge17" class="edge">
<title>20&#45;&#45;11</title>
<path fill="none" stroke="black" d="M554.5,-526.15C529.08,-511.32 492.68,-490.09 467.21,-475.22"/>
<text text-anchor="middle" x="532.88" y="-495.2" font-family="Times New Roman,serif" font-size="14.00">1.0</text>
</g>
<!-- 1014 -->
<g id="node21" class="node">
<title>1014</title>
<polygon fill="none" stroke="black" points="612.12,-474.75 556.38,-474.75 556.38,-438.75 612.12,-438.75 612.12,-474.75"/>
<text text-anchor="middle" x="584.25" y="-451.32" font-family="Times New Roman,serif" font-size="14.00">varnish</text>
</g>
<!-- 20&#45;&#45;1014 -->
<g id="edge20" class="edge">
<title>20&#45;&#45;1014</title>
<path fill="none" stroke="black" d="M584.25,-526.15C584.25,-511.27 584.25,-489.95 584.25,-475.08"/>
<text text-anchor="middle" x="599.62" y="-495.2" font-family="Times New Roman,serif" font-size="14.00">0.125</text>
</g>
<!-- 11&#45;&#45;16 -->
<g id="edge18" class="edge">
<title>11&#45;&#45;16</title>
<path fill="none" stroke="black" d="M397.59,-438.4C363.58,-423.52 314.84,-402.2 280.85,-387.33"/>
<text text-anchor="middle" x="365.88" y="-407.45" font-family="Times New Roman,serif" font-size="14.00">4.0</text>
</g>
<!-- 11&#45;&#45;17 -->
<g id="edge19" class="edge">
<title>11&#45;&#45;17</title>
<path fill="none" stroke="black" d="M484.87,-441.01C536.69,-424.97 618.9,-399.52 669.54,-383.84"/>
<text text-anchor="middle" x="608.88" y="-407.45" font-family="Times New Roman,serif" font-size="14.00">1.0</text>
</g>
<!-- 1008 -->
<g id="node22" class="node">
<title>1008</title>
<polygon fill="none" stroke="black" points="272.38,-299.25 152.12,-299.25 152.12,-263.25 272.38,-263.25 272.38,-299.25"/>
<text text-anchor="middle" x="212.25" y="-275.82" font-family="Times New Roman,serif" font-size="14.00">polished bench leg</text>
</g>
<!-- 1008&#45;&#45;18 -->
<g id="edge21" class="edge">
<title>1008&#45;&#45;18</title>
<path fill="none" stroke="black" d="M229.25,-262.9C243.82,-248.02 264.71,-226.7 279.28,-211.83"/>
<text text-anchor="middle" x="270.88" y="-231.95" font-family="Times New Roman,serif" font-size="14.00">1.0</text>
</g>
<!-- 1009 -->
<g id="node23" class="node">
<title>1009</title>
<polygon fill="none" stroke="black" points="614.38,-299.25 488.12,-299.25 488.12,-263.25 614.38,-263.25 614.38,-299.25"/>
<text text-anchor="middle" x="551.25" y="-275.82" font-family="Times New Roman,serif" font-size="14.00">polished bench seat</text>
</g>
<!-- 1009&#45;&#45;19 -->
<g id="edge22" class="edge">
<title>1009&#45;&#45;19</title>
<path fill="none" stroke="black" d="M599.5,-262.79C641.18,-247.71 701.02,-226.06 742.09,-211.2"/>
<text text-anchor="middle" x="698.88" y="-231.95" font-family="Times New Roman,serif" font-size="14.00">1.0</text>
</g>
<!-- 1010 -->
<g id="node24" class="node">
<title>1010</title>
<polygon fill="none" stroke="black" points="474.12,-562.5 400.38,-562.5 400.38,-526.5 474.12,-526.5 474.12,-562.5"/>
<text text-anchor="middle" x="437.25" y="-539.08" font-family="Times New Roman,serif" font-size="14.00">raw bench</text>
</g>
<!-- 1010&#45;&#45;11 -->
<g id="edge23" class="edge">
<title>1010&#45;&#45;11</title>
<path fill="none" stroke="black" d="M437.25,-526.15C437.25,-511.27 437.25,-489.95 437.25,-475.08"/>
<text text-anchor="middle" x="445.88" y="-495.2" font-family="Times New Roman,serif" font-size="14.00">1.0</text>
</g>
<!-- 1011 -->
<g id="node25" class="node">
<title>1011</title>
<polygon fill="none" stroke="black" points="507.88,-211.5 414.62,-211.5 414.62,-175.5 507.88,-175.5 507.88,-211.5"/>
<text text-anchor="middle" x="461.25" y="-188.07" font-family="Times New Roman,serif" font-size="14.00">raw bench leg</text>
</g>
<!-- 1011&#45;&#45;12 -->
<g id="edge24" class="edge">
<title>1011&#45;&#45;12</title>
<path fill="none" stroke="black" d="M456.6,-175.15C452.61,-160.27 446.89,-138.95 442.9,-124.08"/>
<text text-anchor="middle" x="460.88" y="-144.2" font-family="Times New Roman,serif" font-size="14.00">1.0</text>
</g>
<!-- 1012 -->
<g id="node26" class="node">
<title>1012</title>
<polygon fill="none" stroke="black" points="662.88,-211.5 563.62,-211.5 563.62,-175.5 662.88,-175.5 662.88,-211.5"/>
<text text-anchor="middle" x="613.25" y="-188.07" font-family="Times New Roman,serif" font-size="14.00">raw bench seat</text>
</g>
<!-- 1012&#45;&#45;13 -->
<g id="edge25" class="edge">
<title>1012&#45;&#45;13</title>
<path fill="none" stroke="black" d="M617.5,-175.15C621.14,-160.27 626.37,-138.95 630.01,-124.08"/>
<text text-anchor="middle" x="633.88" y="-144.2" font-family="Times New Roman,serif" font-size="14.00">1.0</text>
</g>
</g>
</svg>
