<?xml version="1.0" encoding="UTF-8" standalone="no"?>
<!DOCTYPE svg PUBLIC "-//W3C//DTD SVG 1.1//EN"
 "http://www.w3.org/Graphics/SVG/1.1/DTD/svg11.dtd">
<!-- Generated by graphviz version 10.0.1 (20240210.2158)
 -->
<!-- Title: G Pages: 1 -->
<svg width="1065pt" height="188pt"
 viewBox="0.00 0.00 1065.38 188.00" xmlns="http://www.w3.org/2000/svg" xmlns:xlink="http://www.w3.org/1999/xlink">
<g id="graph0" class="graph" transform="scale(1 1) rotate(0) translate(4 184)">
<title>G</title>
<polygon fill="white" stroke="none" points="-4,4 -4,-184 1061.38,-184 1061.38,4 -4,4"/>
<!-- Leg braces -->
<g id="node1" class="node">
<title>Leg braces</title>
<polygon fill="#b2dfee" stroke="#b2dfee" points="139.75,-36 0,-36 0,0 139.75,0 139.75,-36"/>
<text text-anchor="middle" x="69.88" y="-12.95" font-family="Helvetica,Arial,sans-serif" font-size="14.00">Leg braces (Qtd: 2)</text>
</g>
<!-- Tabletop -->
<g id="node2" class="node">
<title>Tabletop</title>
<polygon fill="#b2dfee" stroke="#b2dfee" points="591.88,-36 467.88,-36 467.88,0 591.88,0 591.88,-36"/>
<text text-anchor="middle" x="529.88" y="-12.95" font-family="Helvetica,Arial,sans-serif" font-size="14.00">Tabletop (Qtd: 1)</text>
</g>
<!-- Skirting -->
<g id="node3" class="node">
<title>Skirting</title>
<polygon fill="#b2dfee" stroke="#b2dfee" points="724,-36 609.75,-36 609.75,0 724,0 724,-36"/>
<text text-anchor="middle" x="666.88" y="-12.95" font-family="Helvetica,Arial,sans-serif" font-size="14.00">Skirting (Qtd: 4)</text>
</g>
<!-- Foot pads -->
<g id="node4" class="node">
<title>Foot pads</title>
<polygon fill="#b2dfee" stroke="#b2dfee" points="290,-36 157.75,-36 157.75,0 290,0 290,-36"/>
<text text-anchor="middle" x="223.88" y="-12.95" font-family="Helvetica,Arial,sans-serif" font-size="14.00">Foot pads (Qtd: 4)</text>
</g>
<!-- Mounting brackets -->
<g id="node5" class="node">
<title>Mounting brackets</title>
<polygon fill="#b2dfee" stroke="#b2dfee" points="924.12,-36 741.62,-36 741.62,0 924.12,0 924.12,-36"/>
<text text-anchor="middle" x="832.88" y="-12.95" font-family="Helvetica,Arial,sans-serif" font-size="14.00">Mounting brackets (Qtd: 4)</text>
</g>
<!-- Support bar -->
<g id="node6" class="node">
<title>Support bar</title>
<polygon fill="#b2dfee" stroke="#b2dfee" points="449.88,-36 307.88,-36 307.88,0 449.88,0 449.88,-36"/>
<text text-anchor="middle" x="378.88" y="-12.95" font-family="Helvetica,Arial,sans-serif" font-size="14.00">Support bar (Qtd: 2)</text>
</g>
<!-- Varnish -->
<g id="node7" class="node">
<title>Varnish</title>
<polygon fill="#b2dfee" stroke="#b2dfee" points="1057.38,-36 942.38,-36 942.38,0 1057.38,0 1057.38,-36"/>
<text text-anchor="middle" x="999.88" y="-12.95" font-family="Helvetica,Arial,sans-serif" font-size="14.00">Varnish (Qtd: 1)</text>
</g>
<!-- Leg Assembly -->
<g id="node8" class="node">
<title>Leg Assembly</title>
<polygon fill="#9ac0cd" stroke="#9ac0cd" points="355.62,-108 248.12,-108 248.12,-72 355.62,-72 355.62,-108"/>
<text text-anchor="middle" x="301.88" y="-84.95" font-family="Helvetica,Arial,sans-serif" font-size="14.00">Leg Assembly</text>
</g>
<!-- Leg Assembly&#45;&gt;Leg braces -->
<g id="edge8" class="edge">
<title>Leg Assembly&#45;&gt;Leg braces</title>
<path fill="none" stroke="black" d="M247.77,-72.68C215.13,-62.83 173.24,-50.19 138.31,-39.65"/>
<polygon fill="black" stroke="black" points="139.75,-36.43 129.16,-36.89 137.73,-43.13 139.75,-36.43"/>
</g>
<!-- Leg Assembly&#45;&gt;Foot pads -->
<g id="edge7" class="edge">
<title>Leg Assembly&#45;&gt;Foot pads</title>
<path fill="none" stroke="black" d="M282.59,-71.7C273.22,-63.28 261.78,-53.02 251.5,-43.79"/>
<polygon fill="black" stroke="black" points="254.11,-41.43 244.33,-37.36 249.44,-46.64 254.11,-41.43"/>
</g>
<!-- Leg Assembly&#45;&gt;Support bar -->
<g id="edge5" class="edge">
<title>Leg Assembly&#45;&gt;Support bar</title>
<path fill="none" stroke="black" d="M320.91,-71.7C330.07,-63.37 341.23,-53.22 351.3,-44.07"/>
<polygon fill="black" stroke="black" points="353.63,-46.68 358.67,-37.37 348.92,-41.5 353.63,-46.68"/>
</g>
<!-- Top Assembly -->
<g id="node9" class="node">
<title>Top Assembly</title>
<polygon fill="#9ac0cd" stroke="#9ac0cd" points="721,-108 612.75,-108 612.75,-72 721,-72 721,-108"/>
<text text-anchor="middle" x="666.88" y="-84.95" font-family="Helvetica,Arial,sans-serif" font-size="14.00">Top Assembly</text>
</g>
<!-- Top Assembly&#45;&gt;Tabletop -->
<g id="edge10" class="edge">
<title>Top Assembly&#45;&gt;Tabletop</title>
<path fill="none" stroke="black" d="M632.66,-71.52C614.87,-62.43 592.93,-51.22 573.89,-41.49"/>
<polygon fill="black" stroke="black" points="575.5,-38.38 565,-36.95 572.32,-44.62 575.5,-38.38"/>
</g>
<!-- Top Assembly&#45;&gt;Skirting -->
<g id="edge2" class="edge">
<title>Top Assembly&#45;&gt;Skirting</title>
<path fill="none" stroke="black" d="M666.88,-71.7C666.88,-64.41 666.88,-55.73 666.88,-47.54"/>
<polygon fill="black" stroke="black" points="670.38,-47.62 666.88,-37.62 663.38,-47.62 670.38,-47.62"/>
</g>
<!-- Top Assembly&#45;&gt;Mounting brackets -->
<g id="edge3" class="edge">
<title>Top Assembly&#45;&gt;Mounting brackets</title>
<path fill="none" stroke="black" d="M708.34,-71.52C730.4,-62.21 757.75,-50.68 781.19,-40.79"/>
<polygon fill="black" stroke="black" points="782.41,-44.08 790.26,-36.97 779.69,-37.63 782.41,-44.08"/>
</g>
<!-- Finish Assembly -->
<g id="node10" class="node">
<title>Finish Assembly</title>
<polygon fill="#9ac0cd" stroke="#9ac0cd" points="959,-108 838.75,-108 838.75,-72 959,-72 959,-108"/>
<text text-anchor="middle" x="898.88" y="-84.95" font-family="Helvetica,Arial,sans-serif" font-size="14.00">Finish Assembly</text>
</g>
<!-- Finish Assembly&#45;&gt;Varnish -->
<g id="edge6" class="edge">
<title>Finish Assembly&#45;&gt;Varnish</title>
<path fill="none" stroke="black" d="M924.1,-71.52C936.73,-62.76 952.2,-52.04 965.86,-42.58"/>
<polygon fill="black" stroke="black" points="967.5,-45.7 973.73,-37.12 963.51,-39.94 967.5,-45.7"/>
</g>
<!-- Table -->
<g id="node11" class="node">
<title>Table</title>
<polygon fill="#9ac0cd" stroke="#9ac0cd" points="694.38,-180 639.38,-180 639.38,-144 694.38,-144 694.38,-180"/>
<text text-anchor="start" x="647.38" y="-157.95" font-family="Helvetica,Arial,sans-serif" font-weight="bold" font-size="14.00">Table</text>
</g>
<!-- Table&#45;&gt;Leg Assembly -->
<g id="edge9" class="edge">
<title>Table&#45;&gt;Leg Assembly</title>
<path fill="none" stroke="black" d="M639.14,-155.68C581.54,-144.64 447.63,-118.95 366.94,-103.48"/>
<polygon fill="black" stroke="black" points="367.89,-100.1 357.41,-101.65 366.57,-106.97 367.89,-100.1"/>
</g>
<!-- Table&#45;&gt;Top Assembly -->
<g id="edge1" class="edge">
<title>Table&#45;&gt;Top Assembly</title>
<path fill="none" stroke="black" d="M666.88,-143.7C666.88,-136.41 666.88,-127.73 666.88,-119.54"/>
<polygon fill="black" stroke="black" points="670.38,-119.62 666.88,-109.62 663.38,-119.62 670.38,-119.62"/>
</g>
<!-- Table&#45;&gt;Finish Assembly -->
<g id="edge4" class="edge">
<title>Table&#45;&gt;Finish Assembly</title>
<path fill="none" stroke="black" d="M694.86,-152.56C728.15,-142.51 784.9,-125.39 830.11,-111.75"/>
<polygon fill="black" stroke="black" points="831.02,-115.13 839.59,-108.89 829,-108.43 831.02,-115.13"/>
</g>
</g>
</svg>
